<svg width="37" height="44" viewBox="0 0 37 44" fill="none" xmlns="http://www.w3.org/2000/svg">
<path d="M17.7573 9.18408C15.6396 7.06556 14.1901 3.36607 13.4707 0C12.7502 3.36675 11.3023 7.06702 9.18374 9.18554C7.06599 11.3026 3.36538 12.7521 0 13.4729C3.36675 14.1923 7.06668 15.6409 9.18443 17.7596C11.3022 19.8773 12.7517 23.5776 13.4722 26.9436C14.1915 23.5769 15.6406 19.8766 17.758 17.7581C19.8758 15.6403 23.5764 14.1915 26.9418 13.4707C23.5758 12.7514 19.8759 11.3019 17.7573 9.18408Z" fill="white"/>
<path d="M31.5147 26.1466C30.2506 24.8819 29.3832 22.6706 28.9534 20.6599C28.5229 22.6706 27.6585 24.8818 26.393 26.1473C25.1275 27.4115 22.9166 28.2781 20.9062 28.7086C22.9173 29.139 25.1275 30.0042 26.393 31.2697C27.6585 32.5345 28.5245 34.7458 28.9549 36.7565C29.3846 34.745 30.2506 32.5345 31.5153 31.269C32.7801 30.0042 34.9913 29.1382 37.0013 28.7071C34.9914 28.2774 32.7802 27.4115 31.5147 26.1466Z" fill="white"/>
<path d="M9.07972 30.4734C8.71828 32.1615 7.99249 34.0185 6.93026 35.0806C5.86821 36.142 4.01198 36.8693 2.32422 37.2308C4.01198 37.593 5.86821 38.3181 6.93026 39.3809C7.99249 40.4429 8.71974 42.2985 9.08118 43.9874C9.44227 42.2985 10.1684 40.443 11.231 39.3802C12.2923 38.3182 14.1489 37.5915 15.8363 37.2294C14.149 36.8685 12.2923 36.1421 11.2303 35.0799C10.1684 34.0186 9.44081 32.1616 9.07972 30.4734Z" fill="white"/>
</svg>
