<svg width="72" height="72" viewBox="0 0 72 72" fill="none" xmlns="http://www.w3.org/2000/svg">
<path d="M33 42.0018V66.0018H21C18.6131 66.0018 16.3239 65.0536 14.636 63.3657C12.9482 61.6779 12 59.3887 12 57.0018V45.0018C12 44.2061 12.3161 43.4431 12.8787 42.8804C13.4413 42.3178 14.2044 42.0018 15 42.0018H33ZM57 42.0018C57.7957 42.0018 58.5587 42.3178 59.1213 42.8804C59.6839 43.4431 60 44.2061 60 45.0018V57.0018C60 59.3887 59.0518 61.6779 57.364 63.3657C55.6761 65.0536 53.387 66.0018 51 66.0018H39V42.0018H57ZM49.5 6.00176C51.2715 6.0014 53.0144 6.44926 54.5663 7.30366C56.1182 8.15807 57.4286 9.39123 58.3757 10.8884C59.3228 12.3855 59.8757 14.0979 59.9829 15.8662C60.0902 17.6345 59.7482 19.4012 58.989 21.0018H60C61.5913 21.0018 63.1174 21.6339 64.2426 22.7591C65.3679 23.8843 66 25.4105 66 27.0018V30.0018C66 31.5931 65.3679 33.1192 64.2426 34.2444C63.1174 35.3696 61.5913 36.0018 60 36.0018H39V21.0018H33V36.0018H12C10.4087 36.0018 8.88258 35.3696 7.75736 34.2444C6.63214 33.1192 6 31.5931 6 30.0018V27.0018C6 25.4105 6.63214 23.8843 7.75736 22.7591C8.88258 21.6339 10.4087 21.0018 12 21.0018H13.011C12.3447 19.5952 11.9993 18.0582 12 16.5018C12 10.7028 16.701 6.00176 22.449 6.00176C27.714 5.91176 32.385 9.27776 35.592 14.8038L36 15.5328C39.099 9.79076 43.68 6.19076 48.873 6.00776L49.5 6.00176ZM22.5 12.0018C21.3065 12.0018 20.1619 12.4759 19.318 13.3198C18.4741 14.1637 18 15.3083 18 16.5018C18 17.6952 18.4741 18.8398 19.318 19.6837C20.1619 20.5277 21.3065 21.0018 22.5 21.0018H31.929C29.706 15.2868 26.082 11.9418 22.5 12.0018ZM49.449 12.0018C45.909 11.9418 42.294 15.2898 40.071 21.0018H49.5C50.6935 20.995 51.8354 20.5144 52.6745 19.6657C53.5137 18.817 53.9813 17.6697 53.9745 16.4763C53.9677 15.2828 53.4872 14.1409 52.6385 13.3018C51.7898 12.4626 50.6425 11.995 49.449 12.0018Z" fill="url(#paint0_linear_3038_25614)"/>
<defs>
<linearGradient id="paint0_linear_3038_25614" x1="66" y1="6" x2="5.99824" y2="66" gradientUnits="userSpaceOnUse">
<stop offset="0.604" stop-color="#FFAE00"/>
<stop offset="1" stop-color="#F87E00"/>
</linearGradient>
</defs>
</svg>
