<svg width="134" height="170" viewBox="0 0 134 170" fill="none" xmlns="http://www.w3.org/2000/svg">
<path d="M81.792 3.16287C84.2997 2.13261 86.9851 1.32566 89.8308 0.788378C124.983 -5.84592 146.131 42.0033 108.638 76.5304L120.143 81.4417L107.44 95.8155L100.901 82.1838C93.1642 90.2723 88.8645 97.0652 86.9569 102.909C84.6294 110.041 85.5507 115.903 88.3755 122.214C88.7943 123.149 89.2617 124.088 89.7677 125.036C102.018 116.813 115.633 117.671 124.423 123.841C129.559 127.446 133.105 132.944 133.511 139.255C133.916 145.565 131.111 152.402 124.68 158.511L120.216 153.813C125.615 148.685 127.312 143.814 127.046 139.666C126.779 135.518 124.472 131.806 120.692 129.152C114.159 124.566 103.42 123.404 93.0813 130.57C99.5345 140.467 109.01 151.571 115.71 166.453L109.758 169.015C103.631 155.517 94.6973 145.142 88.0077 134.818C76.9512 145.535 64.0723 148.323 53.6355 145.223C46.2032 143.016 40.056 137.833 36.6945 130.889L35.2518 143.19L21.9752 135.478L32.8671 125.504C-10.9052 105.515 -6.47011 55.4313 26.9955 50.5427C60.992 45.5771 85.4572 86.0549 41.3254 125.038C43.3784 131.935 48.6764 136.992 55.4811 139.013C63.6072 141.426 73.9688 139.539 83.7071 129.979C84.0004 129.691 84.2978 129.413 84.5942 129.137C83.8203 127.723 83.1014 126.295 82.4566 124.855C79.195 117.569 77.9566 109.596 80.7945 100.901C83.1722 93.6158 88.2287 85.9075 96.7533 77.126C48.0966 55.3865 53.5865 14.7486 81.7914 3.16237L81.792 3.16287Z" fill="url(#paint0_linear_200_31404)" fill-opacity="0.1"/>
<path d="M81.792 3.16287C84.2997 2.13261 86.9851 1.32566 89.8308 0.788378C124.983 -5.84592 146.131 42.0033 108.638 76.5304L120.143 81.4417L107.44 95.8155L100.901 82.1838C93.1642 90.2723 88.8645 97.0652 86.9569 102.909C84.6294 110.041 85.5507 115.903 88.3755 122.214C88.7943 123.149 89.2617 124.088 89.7677 125.036C102.018 116.813 115.633 117.671 124.423 123.841C129.559 127.446 133.105 132.944 133.511 139.255C133.916 145.565 131.111 152.402 124.68 158.511L120.216 153.813C125.615 148.685 127.312 143.814 127.046 139.666C126.779 135.518 124.472 131.806 120.692 129.152C114.159 124.566 103.42 123.404 93.0813 130.57C99.5345 140.467 109.01 151.571 115.71 166.453L109.758 169.015C103.631 155.517 94.6973 145.142 88.0077 134.818C76.9512 145.535 64.0723 148.323 53.6355 145.223C46.2032 143.016 40.056 137.833 36.6945 130.889L35.2518 143.19L21.9752 135.478L32.8671 125.504C-10.9052 105.515 -6.47011 55.4313 26.9955 50.5427C60.992 45.5771 85.4572 86.0549 41.3254 125.038C43.3784 131.935 48.6764 136.992 55.4811 139.013C63.6072 141.426 73.9688 139.539 83.7071 129.979C84.0004 129.691 84.2978 129.413 84.5942 129.137C83.8203 127.723 83.1014 126.295 82.4566 124.855C79.195 117.569 77.9566 109.596 80.7945 100.901C83.1722 93.6158 88.2287 85.9075 96.7533 77.126C48.0966 55.3865 53.5865 14.7486 81.7914 3.16237L81.792 3.16287Z" fill="url(#paint1_linear_200_31404)" fill-opacity="0.1"/>
<defs>
<linearGradient id="paint0_linear_200_31404" x1="-17.9987" y1="46.106" x2="186.167" y2="111.217" gradientUnits="userSpaceOnUse">
<stop stop-color="#FFAE00"/>
<stop offset="1" stop-color="#F87E00"/>
</linearGradient>
<linearGradient id="paint1_linear_200_31404" x1="47.1803" y1="18.053" x2="111.78" y2="168.145" gradientUnits="userSpaceOnUse">
<stop stop-color="#F87E00"/>
<stop offset="0.6" stop-color="#FFAE00"/>
</linearGradient>
</defs>
</svg>
