<svg width="56" height="64" viewBox="0 0 56 64" fill="none" xmlns="http://www.w3.org/2000/svg">
<g clip-path="url(#clip0_200_31948)">
<path d="M10.8 0.6875L7.725 5.95C7.25 6.7625 7 7.7 7 8.65V9C7 11.7625 9.2375 14 12 14C14.7625 14 17 11.7625 17 9V8.65C17 7.7 16.75 6.775 16.275 5.95L13.2 0.6875C12.95 0.2625 12.5 0 12 0C11.5 0 11.05 0.2625 10.8 0.6875ZM26.8 0.6875L23.725 5.95C23.25 6.7625 23 7.7 23 8.65V9C23 11.7625 25.2375 14 28 14C30.7625 14 33 11.7625 33 9V8.65C33 7.7 32.75 6.775 32.275 5.95L29.2 0.6875C28.95 0.2625 28.5 0 28 0C27.5 0 27.05 0.2625 26.8 0.6875ZM39.725 5.95C39.25 6.7625 39 7.7 39 8.65V9C39 11.7625 41.2375 14 44 14C46.7625 14 49 11.7625 49 9V8.65C49 7.7 48.75 6.775 48.275 5.95L45.2 0.6875C44.95 0.2625 44.5 0 44 0C43.5 0 43.05 0.2625 42.8 0.6875L39.725 5.95ZM16 22C16 19.7875 14.2125 18 12 18C9.7875 18 8 19.7875 8 22V28C3.5875 28 0 31.5875 0 36V44.875C1.0375 45.525 2.2625 46 3.6 46C5.2875 46 7 45.2375 8.4 44.325C9.075 43.8875 9.6375 43.4375 10.025 43.1125C10.2125 42.95 10.3625 42.8125 10.4625 42.725C10.5125 42.675 10.55 42.65 10.5625 42.625L10.575 42.6125C10.9625 42.2125 11.5 42 12.0625 42.0125C12.625 42.025 13.1375 42.275 13.5125 42.6875L13.525 42.7L13.6125 42.7875C13.7 42.875 13.825 43 14 43.1625C14.35 43.4875 14.85 43.925 15.475 44.35C16.75 45.2375 18.35 45.9875 20.0125 45.9875C21.675 45.9875 23.275 45.2375 24.55 44.35C25.175 43.9125 25.675 43.4875 26.025 43.1625C26.2 43 26.325 42.875 26.4125 42.7875L26.5 42.7L26.5125 42.6875C26.8875 42.25 27.4375 42.0125 28.0125 42.0125C28.5875 42.0125 29.1375 42.2625 29.5125 42.6875L29.525 42.7L29.6125 42.7875C29.7 42.875 29.825 43 30 43.1625C30.35 43.4875 30.85 43.925 31.475 44.35C32.75 45.2375 34.35 45.9875 36.0125 45.9875C37.675 45.9875 39.275 45.2375 40.55 44.35C41.175 43.9125 41.675 43.4875 42.025 43.1625C42.2 43 42.325 42.875 42.4125 42.7875L42.5 42.7L42.5125 42.6875C42.875 42.2625 43.4 42.025 43.9625 42.0125C44.525 42 45.05 42.2125 45.45 42.6125L45.4625 42.625L45.5625 42.725C45.6625 42.8125 45.8 42.95 46 43.1125C46.3875 43.4375 46.9375 43.8875 47.625 44.325C49.025 45.2375 50.7375 46 52.425 46C53.7625 46 54.9875 45.5125 56.025 44.875V36C56.025 31.5875 52.4375 28 48.025 28V22C48.025 19.7875 46.2375 18 44.025 18C41.8125 18 40.025 19.7875 40.025 22V28H32.025V22C32.025 19.7875 30.2375 18 28.025 18C25.8125 18 24.025 19.7875 24.025 22V28H16.025V22H16ZM56 49.325C54.9375 49.7375 53.725 50 52.4 50C49.5875 50 47.1 48.7625 45.425 47.675C44.9125 47.3375 44.45 47 44.0625 46.7C43.7125 47 43.3 47.325 42.8375 47.6375C41.225 48.75 38.825 50 36 50C33.175 50 30.775 48.75 29.175 47.6375C28.7375 47.3375 28.3375 47.025 28 46.7375C27.6625 47.025 27.2625 47.325 26.825 47.6375C25.225 48.75 22.825 50 20 50C17.175 50 14.775 48.75 13.175 47.6375C12.7125 47.3125 12.3 46.9875 11.95 46.7C11.5625 47 11.1 47.3375 10.5875 47.675C8.9 48.7625 6.4125 50 3.6 50C2.275 50 1.0625 49.725 0 49.325V60C0 62.2125 1.7875 64 4 64H52C54.2125 64 56 62.2125 56 60V49.325Z" fill="#FFAE00"/>
</g>
<defs>
<clipPath id="clip0_200_31948">
<rect width="56" height="64" fill="white"/>
</clipPath>
</defs>
</svg>
