<svg width="64" height="64" viewBox="0 0 64 64" fill="none" xmlns="http://www.w3.org/2000/svg">
<g clip-path="url(#clip0_200_31944)">
<path fill-rule="evenodd" clip-rule="evenodd" d="M21.5506 6.7883C21.5506 3.2043 24.458 0.296875 28.042 0.296875H57.4545C59.1754 0.298087 60.8253 0.982538 62.0417 2.19979C63.2581 3.41703 63.9414 5.06746 63.9414 6.7883V57.2112C63.9414 58.9328 63.2575 60.5839 62.0401 61.8013C60.8227 63.0187 59.1716 63.7026 57.45 63.7026H35.05C35.402 62.7243 35.5985 61.6683 35.5985 60.5712V52.2603C35.5985 51.8824 35.5833 51.506 35.5528 51.1312C36.3513 51.2744 37.1605 51.346 37.9803 51.346H44.2523C46.4531 51.346 48.5801 50.5522 50.2427 49.1102C51.9053 47.6682 52.992 45.6749 53.3032 43.4962C53.6145 41.3175 53.1294 39.0996 51.937 37.2497C50.7447 35.3999 48.9251 34.0422 46.8123 33.426C48.285 32.0505 49.4223 30.3554 50.1366 28.4711C50.851 26.5868 51.1232 24.5636 50.9324 22.5575C50.7416 20.5514 50.0928 18.6159 49.0361 16.9001C47.9793 15.1842 46.5428 13.7339 44.8372 12.6607C43.1316 11.5875 41.2024 10.9202 39.1982 10.7102C37.194 10.5001 35.1684 10.7529 33.2773 11.4491C31.3862 12.1453 29.6802 13.2663 28.2907 14.7258C26.9011 16.1853 25.8652 17.9442 25.2626 19.8672C24.0808 19.3648 22.8343 19.0308 21.5597 18.8752V6.7883H21.5506ZM30.3734 23.8032C30.3734 21.8269 31.1585 19.9316 32.5559 18.5342C33.9533 17.1368 35.8486 16.3517 37.8248 16.3517C39.8011 16.3517 41.6964 17.1368 43.0938 18.5342C44.4912 19.9316 45.2763 21.8269 45.2763 23.8032C45.2763 25.7794 44.4912 27.6747 43.0938 29.0721C41.6964 30.4695 39.8011 31.2546 37.8248 31.2546C35.8486 31.2546 33.9533 30.4695 32.5559 29.0721C31.1585 27.6747 30.3734 25.7794 30.3734 23.8032ZM30.7528 31.2089L30.762 31.2226L37.5734 38.034C37.6823 38.1404 37.828 38.201 37.9803 38.2032H44.2477C45.3086 38.2032 46.326 38.6246 47.0761 39.3747C47.8263 40.1249 48.2477 41.1423 48.2477 42.2032C48.2477 43.264 47.8263 44.2814 47.0761 45.0316C46.326 45.7817 45.3086 46.2032 44.2477 46.2032H37.9803C35.7083 46.2032 33.5277 45.3026 31.9185 43.6934L27.9231 39.698L24.6774 42.9437L27.9414 46.1986C29.546 47.8077 30.4511 49.9883 30.4511 52.2603V59.4283C30.4511 60.4892 30.0297 61.5066 29.2795 62.2567C28.5294 63.0069 27.512 63.4283 26.4511 63.4283C25.3903 63.4283 24.3728 63.0069 23.6227 62.2567C22.8725 61.5066 22.4511 60.4892 22.4511 59.4283V52.2603C22.4478 52.1096 22.3873 51.9658 22.282 51.858L18.9677 48.5392C17.476 49.6703 15.6558 50.2835 13.7837 50.2854H4.57227C3.5114 50.2854 2.49398 49.864 1.74384 49.1139C0.993693 48.3637 0.572266 47.3463 0.572266 46.2854C0.572266 45.2246 0.993693 44.2072 1.74384 43.457C2.49398 42.7069 3.5114 42.2854 4.57227 42.2854H13.7837C13.936 42.2833 14.0816 42.2227 14.1906 42.1163L22.2637 34.0386L20.3071 32.0866C20.1993 31.9812 20.0555 31.9208 19.9048 31.9174H11.594C10.5331 31.9174 9.5157 31.496 8.76555 30.7459C8.01541 29.9957 7.59398 28.9783 7.59398 27.9174C7.59398 26.8566 8.01541 25.8392 8.76555 25.089C9.5157 24.3389 10.5331 23.9174 11.594 23.9174H19.9094C22.1814 23.9174 24.362 24.8226 25.9665 26.4317L30.7391 31.1997L30.7528 31.2089Z" fill="#FFAE00"/>
<path fill-rule="evenodd" clip-rule="evenodd" d="M21.5506 6.7883C21.5506 3.2043 24.458 0.296875 28.042 0.296875H57.4545C59.1754 0.298087 60.8253 0.982538 62.0417 2.19979C63.2581 3.41703 63.9414 5.06746 63.9414 6.7883V57.2112C63.9414 58.9328 63.2575 60.5839 62.0401 61.8013C60.8227 63.0187 59.1716 63.7026 57.45 63.7026H35.05C35.402 62.7243 35.5985 61.6683 35.5985 60.5712V52.2603C35.5985 51.8824 35.5833 51.506 35.5528 51.1312C36.3513 51.2744 37.1605 51.346 37.9803 51.346H44.2523C46.4531 51.346 48.5801 50.5522 50.2427 49.1102C51.9053 47.6682 52.992 45.6749 53.3032 43.4962C53.6145 41.3175 53.1294 39.0996 51.937 37.2497C50.7447 35.3999 48.9251 34.0422 46.8123 33.426C48.285 32.0505 49.4223 30.3554 50.1366 28.4711C50.851 26.5868 51.1232 24.5636 50.9324 22.5575C50.7416 20.5514 50.0928 18.6159 49.0361 16.9001C47.9793 15.1842 46.5428 13.7339 44.8372 12.6607C43.1316 11.5875 41.2024 10.9202 39.1982 10.7102C37.194 10.5001 35.1684 10.7529 33.2773 11.4491C31.3862 12.1453 29.6802 13.2663 28.2907 14.7258C26.9011 16.1853 25.8652 17.9442 25.2626 19.8672C24.0808 19.3648 22.8343 19.0308 21.5597 18.8752V6.7883H21.5506ZM30.3734 23.8032C30.3734 21.8269 31.1585 19.9316 32.5559 18.5342C33.9533 17.1368 35.8486 16.3517 37.8248 16.3517C39.8011 16.3517 41.6964 17.1368 43.0938 18.5342C44.4912 19.9316 45.2763 21.8269 45.2763 23.8032C45.2763 25.7794 44.4912 27.6747 43.0938 29.0721C41.6964 30.4695 39.8011 31.2546 37.8248 31.2546C35.8486 31.2546 33.9533 30.4695 32.5559 29.0721C31.1585 27.6747 30.3734 25.7794 30.3734 23.8032ZM30.7528 31.2089L30.762 31.2226L37.5734 38.034C37.6823 38.1404 37.828 38.201 37.9803 38.2032H44.2477C45.3086 38.2032 46.326 38.6246 47.0761 39.3747C47.8263 40.1249 48.2477 41.1423 48.2477 42.2032C48.2477 43.264 47.8263 44.2814 47.0761 45.0316C46.326 45.7817 45.3086 46.2032 44.2477 46.2032H37.9803C35.7083 46.2032 33.5277 45.3026 31.9185 43.6934L27.9231 39.698L24.6774 42.9437L27.9414 46.1986C29.546 47.8077 30.4511 49.9883 30.4511 52.2603V59.4283C30.4511 60.4892 30.0297 61.5066 29.2795 62.2567C28.5294 63.0069 27.512 63.4283 26.4511 63.4283C25.3903 63.4283 24.3728 63.0069 23.6227 62.2567C22.8725 61.5066 22.4511 60.4892 22.4511 59.4283V52.2603C22.4478 52.1096 22.3873 51.9658 22.282 51.858L18.9677 48.5392C17.476 49.6703 15.6558 50.2835 13.7837 50.2854H4.57227C3.5114 50.2854 2.49398 49.864 1.74384 49.1139C0.993693 48.3637 0.572266 47.3463 0.572266 46.2854C0.572266 45.2246 0.993693 44.2072 1.74384 43.457C2.49398 42.7069 3.5114 42.2854 4.57227 42.2854H13.7837C13.936 42.2833 14.0816 42.2227 14.1906 42.1163L22.2637 34.0386L20.3071 32.0866C20.1993 31.9812 20.0555 31.9208 19.9048 31.9174H11.594C10.5331 31.9174 9.5157 31.496 8.76555 30.7459C8.01541 29.9957 7.59398 28.9783 7.59398 27.9174C7.59398 26.8566 8.01541 25.8392 8.76555 25.089C9.5157 24.3389 10.5331 23.9174 11.594 23.9174H19.9094C22.1814 23.9174 24.362 24.8226 25.9665 26.4317L30.7391 31.1997L30.7528 31.2089Z" fill="#FFAE00"/>
</g>
<defs>
<clipPath id="clip0_200_31944">
<rect width="64" height="64" fill="white"/>
</clipPath>
</defs>
</svg>
