<svg width="72" height="72" viewBox="0 0 72 72" fill="none" xmlns="http://www.w3.org/2000/svg">
<g clip-path="url(#clip0_200_31952)">
<path d="M7.59961 40.6454C7.59961 36.9215 7.59961 33.1976 7.59961 29.4736C7.59961 26.0513 9.08728 23.4812 12.0626 21.7633C14.7945 20.1881 17.5278 18.6196 20.2624 17.0579C20.5056 16.8875 20.8009 16.8071 21.0973 16.8308C21.3937 16.8544 21.6725 16.9804 21.8853 17.1871C22.1036 17.3774 22.2465 17.639 22.2882 17.9249C22.3298 18.2107 22.2675 18.502 22.1125 18.7462C21.9204 19.0042 21.6757 19.219 21.3944 19.3762C18.7166 20.9393 16.0104 22.4701 13.3163 24.0372C12.3556 24.5393 11.556 25.3001 11.0087 26.2327C10.4613 27.1654 10.1883 28.2324 10.2206 29.3121C10.2206 36.8515 10.2206 44.3909 10.2206 51.9303C10.1851 53.0101 10.4554 54.0781 11.0007 55.0123C11.5459 55.9465 12.3442 56.7092 13.3042 57.2132C19.8418 60.9829 26.3821 64.7405 32.9252 68.486C33.8443 69.0581 34.9065 69.3614 35.9905 69.3614C37.0745 69.3614 38.1367 69.0581 39.0558 68.486C45.615 64.7163 52.173 60.9466 58.7296 57.1769C59.6805 56.6736 60.4703 55.9146 61.009 54.9863C61.5477 54.058 61.8137 52.9977 61.7766 51.9262C61.7766 44.3868 61.7766 36.8474 61.7766 29.308C61.8081 28.235 61.539 27.1744 60.9995 26.2449C60.4599 25.3155 59.6711 24.5538 58.7214 24.0453C56.0071 22.4701 53.3009 20.9474 50.6069 19.3843C50.297 19.2156 50.0294 18.9795 49.8238 18.6937C49.6822 18.4524 49.6286 18.1699 49.6722 17.8939C49.7159 17.6178 49.854 17.3653 50.0632 17.179C50.2664 16.9736 50.5339 16.8433 50.8216 16.8095C51.1092 16.7757 51.3998 16.8405 51.6455 16.9932C52.8992 17.696 54.1367 18.4271 55.3863 19.142C56.9403 20.0346 58.5064 20.903 60.0441 21.8198C62.8639 23.5 64.3611 25.984 64.3773 29.2596C64.4071 36.8447 64.4071 44.4286 64.3773 52.011C64.3773 55.2866 62.8802 57.7948 60.0401 59.4427C53.4645 63.2555 46.8728 67.0427 40.2648 70.8043C38.9828 71.5867 37.5084 72.0008 36.0047 72.0008C34.501 72.0008 33.0265 71.5867 31.7445 70.8043C25.0987 67.0346 18.4718 63.2259 11.8638 59.3781C9.0724 57.7625 7.64424 55.2462 7.61584 52.0232C7.59961 48.2265 7.59961 44.4259 7.59961 40.6454Z" fill="#F9AC1A"/>
<path d="M20.8886 46.5891H24.5007C25.1824 46.58 25.8579 46.7201 26.4798 46.9996C27.1016 47.2791 27.6549 47.6912 28.1007 48.2071C28.6912 48.8583 28.6548 49.5136 27.9591 50.0232C25.6697 51.71 24.6301 53.9873 24.6746 56.8026C24.6746 57.7693 24.6746 58.736 24.6746 59.7028C24.6746 60.5118 24.1447 60.8637 23.4611 60.4592C20.3573 58.6794 17.2562 56.8888 14.1578 55.0875C13.6933 54.8044 13.3039 54.4136 13.0223 53.9482C12.7407 53.4829 12.5752 52.9566 12.5398 52.4138C12.2202 49.9342 13.3488 47.754 15.5088 46.941C16.1197 46.7301 16.7597 46.6155 17.4059 46.6012C18.5587 46.5486 19.7357 46.5891 20.8886 46.5891Z" fill="#F9AC1A"/>
<path d="M20.8913 45.6958C19.5299 45.699 18.223 45.1613 17.2581 44.2009C16.2932 43.2406 15.7493 41.9362 15.7461 40.5749C15.7429 39.2135 16.2806 37.9066 17.241 36.9417C18.2013 35.9768 19.5056 35.4329 20.867 35.4297C21.5411 35.4281 22.2089 35.5593 22.8323 35.8158C23.4556 36.0723 24.0224 36.449 24.5002 36.9245C24.9779 37.4001 25.3574 37.965 25.6168 38.5872C25.8762 39.2094 26.0106 39.8765 26.0122 40.5506C26.0138 41.2247 25.8826 41.8925 25.6261 42.5159C25.3696 43.1392 24.9928 43.706 24.5173 44.1838C24.0418 44.6615 23.4768 45.041 22.8547 45.3004C22.2325 45.5598 21.5654 45.6942 20.8913 45.6958Z" fill="#F9AC1A"/>
<path d="M50.9252 46.5891C52.0295 46.5891 53.1378 46.6376 54.2381 46.5891C56.9603 46.4435 59.7149 48.5509 59.2983 52.3532C59.2507 52.9724 59.0454 53.5692 58.702 54.0868C58.3587 54.6043 57.8886 55.0254 57.3365 55.31C54.3918 56.9765 51.4754 58.6835 48.5468 60.3743C47.6286 60.9042 47.1513 60.617 47.1392 59.5653C47.1392 58.1698 47.1675 56.7621 47.0421 55.3707C46.9485 54.3545 46.6388 53.3701 46.1338 52.4834C45.6287 51.5968 44.9399 50.8283 44.1136 50.2296C43.0902 49.4206 43.0417 48.8745 43.9599 47.9765C44.4067 47.5288 44.9395 47.1762 45.5262 46.9399C46.1129 46.7035 46.7414 46.5883 47.3738 46.6012C48.559 46.5891 49.7401 46.5891 50.9252 46.5891Z" fill="#F9AC1A"/>
<path d="M56.0701 40.5547C56.0325 41.8959 55.4733 43.1696 54.5113 44.105C53.5494 45.0403 52.2605 45.5636 50.9188 45.5636C49.5771 45.5636 48.2883 45.0403 47.3263 44.105C46.3644 43.1696 45.8052 41.8959 45.7676 40.5547C45.7844 39.1993 46.3309 37.9043 47.2901 36.9466C48.2493 35.9889 49.5452 35.4445 50.9006 35.4298C51.5769 35.4255 52.2474 35.5549 52.8736 35.8103C53.4998 36.0658 54.0694 36.4425 54.5497 36.9186C55.03 37.3948 55.4116 37.9611 55.6725 38.5851C55.9333 39.2091 56.0685 39.8784 56.0701 40.5547Z" fill="#F9AC1A"/>
<path d="M35.9154 51.5614C37.3554 51.5614 38.8075 51.4279 40.2273 51.5897C41.3447 51.7246 42.3745 52.2625 43.1237 53.1024C43.8728 53.9424 44.2898 55.0269 44.2965 56.1524C44.341 58.0656 44.2965 59.9789 44.2965 61.8922C44.3057 62.1782 44.2349 62.4612 44.0919 62.7092C43.949 62.9572 43.7397 63.1603 43.4875 63.2958C41.5621 64.4041 39.6489 65.5326 37.7154 66.6207C37.1621 66.9443 36.5316 67.1122 35.8907 67.1065C35.2498 67.1008 34.6223 66.9217 34.0749 66.5883C32.1778 65.5124 30.301 64.4041 28.412 63.32C28.1396 63.1782 27.9131 62.9618 27.7591 62.6961C27.6051 62.4303 27.5299 62.1262 27.5423 61.8194C27.5423 59.9668 27.5423 58.1101 27.5423 56.2576C27.5466 55.6253 27.6756 55.0001 27.9221 54.4179C28.1686 53.8357 28.5276 53.3078 28.9786 52.8647C29.4296 52.4216 29.9637 52.0719 30.5502 51.8358C31.1367 51.5996 31.7641 51.4816 32.3963 51.4886H35.9154V51.5614Z" fill="#F9AC1A"/>
<path d="M41.037 45.4846C41.0354 46.498 40.7334 47.4883 40.1691 48.3301C39.6048 49.1719 38.8036 49.8275 37.8667 50.214C36.9299 50.6006 35.8995 50.7007 34.9058 50.5017C33.9121 50.3027 32.9997 49.8136 32.2839 49.0961C31.5681 48.3786 31.0811 47.4651 30.8845 46.4709C30.6879 45.4767 30.7904 44.4465 31.1792 43.5106C31.5679 42.5747 32.2254 41.775 33.0686 41.2127C33.9117 40.6505 34.9026 40.3508 35.9161 40.3516C37.2744 40.358 38.575 40.9012 39.5343 41.8628C40.4936 42.8244 41.0338 44.1263 41.037 45.4846Z" fill="#F9AC1A"/>
<path d="M35.9161 0.808594L40.8671 10.836L51.9301 12.4419L43.9251 20.2486L45.8141 31.267L35.9161 26.0652L26.0222 31.267L27.9112 20.2486L19.9062 12.4419L30.9692 10.836L35.9161 0.808594Z" fill="#F9AC1A"/>
</g>
<defs>
<clipPath id="clip0_200_31952">
<rect width="72" height="72" fill="white"/>
</clipPath>
</defs>
</svg>
