<svg width="1440" height="276" viewBox="0 0 1440 276" fill="none" xmlns="http://www.w3.org/2000/svg">
<path opacity="0.1" d="M1278.5 177.632C1278.42 178.006 1278.26 178.418 1278.02 178.653C1277.79 178.888 1277.37 179.049 1277 179.129C1277.37 179.209 1277.79 179.37 1278.02 179.606C1278.26 179.841 1278.42 180.252 1278.5 180.626C1278.58 180.252 1278.74 179.841 1278.98 179.605C1279.21 179.37 1279.63 179.209 1280 179.129C1279.63 179.049 1279.21 178.888 1278.98 178.653C1278.74 178.418 1278.58 178.006 1278.5 177.632Z" fill="white"/>
<path opacity="0.5" d="M290.5 113.764C290.42 114.138 290.258 114.55 290.023 114.785C289.787 115.02 289.375 115.181 289 115.261C289.375 115.342 289.787 115.502 290.023 115.738C290.258 115.973 290.42 116.384 290.5 116.758C290.58 116.384 290.742 115.973 290.978 115.738C291.213 115.502 291.625 115.341 292 115.261C291.625 115.181 291.213 115.02 290.977 114.785C290.742 114.55 290.58 114.138 290.5 113.764Z" fill="white"/>
<path opacity="0.1" d="M1364.5 181.624C1364.42 181.998 1364.26 182.409 1364.02 182.645C1363.79 182.88 1363.37 183.041 1363 183.121C1363.37 183.201 1363.79 183.362 1364.02 183.597C1364.26 183.833 1364.42 184.244 1364.5 184.618C1364.58 184.244 1364.74 183.833 1364.98 183.597C1365.21 183.362 1365.63 183.201 1366 183.121C1365.63 183.041 1365.21 182.88 1364.98 182.645C1364.74 182.409 1364.58 181.998 1364.5 181.624Z" fill="white"/>
<path opacity="0.1" d="M324.5 53.8884C324.42 54.2624 324.258 54.6738 324.023 54.9091C323.787 55.1442 323.375 55.3054 323 55.3854C323.375 55.4657 323.787 55.6263 324.023 55.8618C324.258 56.097 324.42 56.5081 324.5 56.8822C324.58 56.5081 324.742 56.0971 324.978 55.8616C325.213 55.6263 325.625 55.4653 326 55.3851C325.625 55.3052 325.213 55.1442 324.977 54.9089C324.742 54.6738 324.58 54.2624 324.5 53.8884Z" fill="white"/>
<path opacity="0.5" d="M422.5 75.843C422.42 76.2169 422.258 76.6283 422.023 76.8636C421.787 77.0988 421.375 77.2599 421 77.34C421.375 77.4202 421.787 77.5808 422.023 77.8163C422.258 78.0516 422.42 78.4626 422.5 78.8368C422.58 78.4626 422.742 78.0516 422.978 77.8161C423.213 77.5809 423.625 77.4199 424 77.3397C423.625 77.2597 423.213 77.0988 422.977 76.8635C422.742 76.6284 422.58 76.217 422.5 75.843Z" fill="white"/>
<path opacity="0.1" d="M1006.5 162.663C1006.42 163.037 1006.26 163.449 1006.02 163.684C1005.79 163.919 1005.37 164.08 1005 164.16C1005.37 164.24 1005.79 164.401 1006.02 164.637C1006.26 164.872 1006.42 165.283 1006.5 165.657C1006.58 165.283 1006.74 164.872 1006.98 164.636C1007.21 164.401 1007.63 164.24 1008 164.16C1007.63 164.08 1007.21 163.919 1006.98 163.684C1006.74 163.449 1006.58 163.037 1006.5 162.663Z" fill="white"/>
<path opacity="0.5" d="M718.5 148.692C718.42 149.066 718.258 149.478 718.023 149.713C717.787 149.948 717.375 150.109 717 150.189C717.375 150.269 717.787 150.43 718.023 150.666C718.258 150.901 718.42 151.312 718.5 151.686C718.58 151.312 718.742 150.901 718.978 150.665C719.213 150.43 719.625 150.269 720 150.189C719.625 150.109 719.213 149.948 718.977 149.713C718.742 149.478 718.58 149.066 718.5 148.692Z" fill="white"/>
<path opacity="0.1" d="M995.5 118.754C995.42 119.128 995.258 119.54 995.023 119.775C994.787 120.01 994.375 120.171 994 120.251C994.375 120.331 994.787 120.492 995.023 120.727C995.258 120.963 995.42 121.374 995.5 121.748C995.58 121.374 995.742 120.963 995.978 120.727C996.213 120.492 996.625 120.331 997 120.251C996.625 120.171 996.213 120.01 995.977 119.775C995.742 119.54 995.58 119.128 995.5 118.754Z" fill="white"/>
<path opacity="0.1" d="M1210.5 121.748C1210.42 122.122 1210.26 122.533 1210.02 122.769C1209.79 123.004 1209.37 123.165 1209 123.245C1209.37 123.325 1209.79 123.486 1210.02 123.721C1210.26 123.957 1210.42 124.368 1210.5 124.742C1210.58 124.368 1210.74 123.957 1210.98 123.721C1211.21 123.486 1211.63 123.325 1212 123.245C1211.63 123.165 1211.21 123.004 1210.98 122.768C1210.74 122.533 1210.58 122.122 1210.5 121.748Z" fill="white"/>
<path opacity="0.5" d="M1123.5 86.8203C1123.42 87.1942 1123.26 87.6056 1123.02 87.8409C1122.79 88.0761 1122.37 88.2372 1122 88.3173C1122.37 88.3975 1122.79 88.5581 1123.02 88.7936C1123.26 89.0289 1123.42 89.4399 1123.5 89.8141C1123.58 89.4399 1123.74 89.0289 1123.98 88.7934C1124.21 88.5582 1124.63 88.3972 1125 88.317C1124.63 88.237 1124.21 88.0761 1123.98 87.8408C1123.74 87.6056 1123.58 87.1943 1123.5 86.8203Z" fill="white"/>
<path opacity="0.5" d="M942.5 145.698C942.42 146.072 942.258 146.484 942.023 146.719C941.787 146.954 941.375 147.115 941 147.195C941.375 147.276 941.787 147.436 942.023 147.672C942.258 147.907 942.42 148.318 942.5 148.692C942.58 148.318 942.742 147.907 942.978 147.672C943.213 147.436 943.625 147.275 944 147.195C943.625 147.115 943.213 146.954 942.977 146.719C942.742 146.484 942.58 146.072 942.5 145.698Z" fill="white"/>
<path opacity="0.5" d="M840.5 140.709C840.42 141.083 840.258 141.494 840.023 141.729C839.787 141.965 839.375 142.126 839 142.206C839.375 142.286 839.787 142.447 840.023 142.682C840.258 142.917 840.42 143.328 840.5 143.703C840.58 143.328 840.742 142.917 840.978 142.682C841.213 142.447 841.625 142.286 842 142.205C841.625 142.125 841.213 141.965 840.977 141.729C840.742 141.494 840.58 141.083 840.5 140.709Z" fill="white"/>
<path opacity="0.5" d="M668 166.655C667.946 167.029 667.839 167.44 667.682 167.676C667.525 167.911 667.25 168.072 667 168.152C667.25 168.232 667.525 168.393 667.682 168.628C667.839 168.864 667.947 169.275 668 169.649C668.054 169.275 668.161 168.864 668.318 168.628C668.475 168.393 668.75 168.232 669 168.152C668.75 168.072 668.475 167.911 668.318 167.675C668.161 167.44 668.053 167.029 668 166.655Z" fill="white"/>
<path opacity="0.5" d="M493 171.645C492.946 172.019 492.839 172.43 492.682 172.665C492.525 172.9 492.25 173.062 492 173.142C492.25 173.222 492.525 173.383 492.682 173.618C492.839 173.853 492.947 174.264 493 174.638C493.054 174.264 493.161 173.853 493.318 173.618C493.475 173.383 493.75 173.222 494 173.141C493.75 173.061 493.475 172.9 493.318 172.665C493.161 172.43 493.053 172.019 493 171.645Z" fill="white"/>
<path opacity="0.1" d="M539.5 144.7C539.42 145.074 539.258 145.486 539.023 145.721C538.787 145.956 538.375 146.117 538 146.197C538.375 146.278 538.787 146.438 539.023 146.674C539.258 146.909 539.42 147.32 539.5 147.694C539.58 147.32 539.742 146.909 539.978 146.674C540.213 146.438 540.625 146.277 541 146.197C540.625 146.117 540.213 145.956 539.977 145.721C539.742 145.486 539.58 145.074 539.5 144.7Z" fill="white"/>
<path opacity="0.2" d="M1237.5 153.682C1237.37 154.305 1237.1 154.991 1236.7 155.383C1236.31 155.775 1235.62 156.043 1235 156.177C1235.62 156.311 1236.31 156.578 1236.7 156.971C1237.1 157.363 1237.37 158.048 1237.5 158.672C1237.63 158.048 1237.9 157.363 1238.3 156.97C1238.69 156.578 1239.38 156.31 1240 156.176C1239.38 156.043 1238.69 155.775 1238.3 155.383C1237.9 154.991 1237.63 154.305 1237.5 153.682Z" fill="white"/>
<path opacity="0.2" d="M449.5 144.7C449.366 145.324 449.097 146.009 448.704 146.402C448.311 146.793 447.625 147.062 447 147.195C447.625 147.329 448.311 147.597 448.704 147.989C449.097 148.381 449.367 149.067 449.5 149.69C449.634 149.067 449.903 148.381 450.296 147.989C450.689 147.597 451.376 147.329 452 147.195C451.376 147.062 450.689 146.793 450.296 146.401C449.903 146.009 449.633 145.324 449.5 144.7Z" fill="white"/>
<path opacity="0.2" d="M242.5 54.8864C242.366 55.5096 242.097 56.1953 241.704 56.5875C241.311 56.9793 240.625 57.2479 240 57.3813C240.625 57.5151 241.311 57.7828 241.704 58.1752C242.097 58.5674 242.367 59.2525 242.5 59.8761C242.634 59.2525 242.903 58.5674 243.296 58.175C243.689 57.7828 244.376 57.5145 245 57.3808C244.376 57.2476 243.689 56.9794 243.296 56.5872C242.903 56.1953 242.633 55.5097 242.5 54.8864Z" fill="white"/>
<path opacity="0.1" d="M1166.5 138.713C1166.37 139.336 1166.1 140.022 1165.7 140.414C1165.31 140.806 1164.62 141.074 1164 141.208C1164.62 141.342 1165.31 141.609 1165.7 142.002C1166.1 142.394 1166.37 143.079 1166.5 143.703C1166.63 143.079 1166.9 142.394 1167.3 142.001C1167.69 141.609 1168.38 141.341 1169 141.207C1168.38 141.074 1167.69 140.806 1167.3 140.414C1166.9 140.022 1166.63 139.336 1166.5 138.713Z" fill="white"/>
<path opacity="0.1" d="M151.5 70.8533C151.366 71.4766 151.097 72.1622 150.704 72.5544C150.311 72.9463 149.625 73.2148 149 73.3483C149.625 73.482 150.311 73.7498 150.704 74.1422C151.097 74.5343 151.367 75.2194 151.5 75.843C151.634 75.2194 151.903 74.5343 152.296 74.1419C152.689 73.7498 153.376 73.4815 154 73.3478C153.376 73.2146 152.689 72.9463 152.296 72.5542C151.903 72.1623 151.633 71.4766 151.5 70.8533Z" fill="white"/>
<path opacity="0.1" d="M164.5 130.729C164.366 131.353 164.097 132.038 163.704 132.43C163.311 132.822 162.625 133.091 162 133.224C162.625 133.358 163.311 133.626 163.704 134.018C164.097 134.41 164.367 135.095 164.5 135.719C164.634 135.095 164.903 134.41 165.296 134.018C165.689 133.626 166.376 133.358 167 133.224C166.376 133.091 165.689 132.822 165.296 132.43C164.903 132.038 164.633 131.353 164.5 130.729Z" fill="white"/>
<path opacity="0.2" d="M1057.5 115.76C1057.37 116.384 1057.1 117.069 1056.7 117.461C1056.31 117.853 1055.62 118.122 1055 118.255C1055.62 118.389 1056.31 118.657 1056.7 119.049C1057.1 119.441 1057.37 120.126 1057.5 120.75C1057.63 120.126 1057.9 119.441 1058.3 119.049C1058.69 118.657 1059.38 118.389 1060 118.255C1059.38 118.122 1058.69 117.853 1058.3 117.461C1057.9 117.069 1057.63 116.384 1057.5 115.76Z" fill="white"/>
<path opacity="0.2" d="M618.5 143.703C618.366 144.326 618.097 145.011 617.704 145.404C617.311 145.795 616.625 146.064 616 146.197C616.625 146.331 617.311 146.599 617.704 146.991C618.097 147.383 618.367 148.069 618.5 148.692C618.634 148.069 618.903 147.384 619.296 146.991C619.689 146.599 620.376 146.331 621 146.197C620.376 146.064 619.689 145.796 619.296 145.403C618.903 145.011 618.633 144.326 618.5 143.703Z" fill="white"/>
<path opacity="0.2" d="M483.5 121.748C483.366 122.371 483.097 123.057 482.704 123.449C482.311 123.841 481.625 124.109 481 124.243C481.625 124.377 482.311 124.644 482.704 125.037C483.097 125.429 483.367 126.114 483.5 126.738C483.634 126.114 483.903 125.429 484.296 125.037C484.689 124.644 485.376 124.376 486 124.242C485.376 124.109 484.689 123.841 484.296 123.449C483.903 123.057 483.633 122.371 483.5 121.748Z" fill="white"/>
<path opacity="0.2" d="M776.5 113.764C776.366 114.388 776.097 115.073 775.704 115.466C775.311 115.857 774.625 116.126 774 116.259C774.625 116.393 775.311 116.661 775.704 117.053C776.097 117.445 776.367 118.131 776.5 118.754C776.634 118.131 776.903 117.446 777.296 117.053C777.689 116.661 778.376 116.393 779 116.259C778.376 116.126 777.689 115.857 777.296 115.465C776.903 115.073 776.633 114.388 776.5 113.764Z" fill="white"/>
<path opacity="0.2" d="M570.5 106.779C570.366 107.402 570.097 108.088 569.704 108.48C569.311 108.872 568.625 109.14 568 109.274C568.625 109.408 569.311 109.675 569.704 110.068C570.097 110.46 570.367 111.145 570.5 111.769C570.634 111.145 570.903 110.46 571.296 110.068C571.689 109.675 572.376 109.407 573 109.273C572.376 109.14 571.689 108.872 571.296 108.48C570.903 108.088 570.633 107.402 570.5 106.779Z" fill="white"/>
<path opacity="0.1" d="M1061.5 56.8822C1061.37 57.5055 1061.1 58.1912 1060.7 58.5833C1060.31 58.9752 1059.62 59.2438 1059 59.3772C1059.62 59.5109 1060.31 59.7787 1060.7 60.1711C1061.1 60.5632 1061.37 61.2483 1061.5 61.8719C1061.63 61.2483 1061.9 60.5633 1062.3 60.1708C1062.69 59.7787 1063.38 59.5104 1064 59.3767C1063.38 59.2435 1062.69 58.9752 1062.3 58.5831C1061.9 58.1912 1061.63 57.5055 1061.5 56.8822Z" fill="white"/>
<path opacity="0.5" d="M684.5 110.771C684.366 111.394 684.097 112.08 683.704 112.472C683.311 112.864 682.625 113.132 682 113.266C682.625 113.399 683.311 113.667 683.704 114.06C684.097 114.452 684.367 115.137 684.5 115.76C684.634 115.137 684.903 114.452 685.296 114.059C685.689 113.667 686.376 113.399 687 113.265C686.376 113.132 685.689 112.864 685.296 112.472C684.903 112.08 684.633 111.394 684.5 110.771Z" fill="white"/>
<path opacity="0.5" d="M401.5 119.752C401.366 120.375 401.097 121.061 400.704 121.453C400.311 121.845 399.625 122.114 399 122.247C399.625 122.381 400.311 122.649 400.704 123.041C401.097 123.433 401.367 124.118 401.5 124.742C401.634 124.118 401.903 123.433 402.296 123.041C402.689 122.649 403.376 122.38 404 122.247C403.376 122.113 402.689 121.845 402.296 121.453C401.903 121.061 401.633 120.375 401.5 119.752Z" fill="white"/>
<path opacity="0.5" d="M94.4998 33.9298C94.366 34.553 94.0975 35.2387 93.7044 35.6308C93.3114 36.0227 92.6245 36.2913 92 36.4247C92.6245 36.5585 93.3114 36.8262 93.7044 37.2186C94.0975 37.6107 94.3666 38.2959 94.5003 38.9194C94.634 38.2959 94.9026 37.6108 95.2958 37.2184C95.6886 36.8262 96.3756 36.5579 97 36.4242C96.3756 36.291 95.6886 36.0228 95.2956 35.6306C94.9026 35.2387 94.6334 34.5531 94.4998 33.9298Z" fill="white"/>
<path opacity="0.5" d="M891.5 163.661C891.42 164.035 891.258 164.447 891.023 164.682C890.787 164.917 890.375 165.078 890 165.158C890.375 165.238 890.787 165.399 891.023 165.635C891.258 165.87 891.42 166.281 891.5 166.655C891.58 166.281 891.742 165.87 891.978 165.634C892.213 165.399 892.625 165.238 893 165.158C892.625 165.078 892.213 164.917 891.977 164.682C891.742 164.447 891.58 164.035 891.5 163.661Z" fill="white"/>
<path opacity="0.2" d="M1209.5 181.624C1209.37 182.247 1209.1 182.933 1208.7 183.325C1208.31 183.717 1207.62 183.986 1207 184.119C1207.62 184.253 1208.31 184.52 1208.7 184.913C1209.1 185.305 1209.37 185.99 1209.5 186.614C1209.63 185.99 1209.9 185.305 1210.3 184.913C1210.69 184.52 1211.38 184.252 1212 184.118C1211.38 183.985 1210.69 183.717 1210.3 183.325C1209.9 182.933 1209.63 182.247 1209.5 181.624Z" fill="white"/>
<path opacity="0.2" d="M205.5 95.8017C205.366 96.4249 205.097 97.1106 204.704 97.5028C204.311 97.8946 203.625 98.1632 203 98.2966C203.625 98.4304 204.311 98.6981 204.704 99.0905C205.097 99.4827 205.367 100.168 205.5 100.791C205.634 100.168 205.903 99.4827 206.296 99.0903C206.689 98.6981 207.376 98.4298 208 98.2961C207.376 98.1629 206.689 97.8947 206.296 97.5025C205.903 97.1106 205.633 96.425 205.5 95.8017Z" fill="white"/>
<path opacity="0.2" d="M243 130.729C242.946 130.979 242.839 131.253 242.682 131.41C242.525 131.567 242.25 131.674 242 131.727C242.25 131.781 242.525 131.888 242.682 132.045C242.839 132.202 242.947 132.476 243 132.725C243.054 132.476 243.161 132.202 243.318 132.045C243.475 131.888 243.75 131.781 244 131.727C243.75 131.674 243.475 131.567 243.318 131.41C243.161 131.253 243.053 130.979 243 130.729Z" fill="white"/>
<path opacity="0.5" d="M144 188.61C143.946 188.859 143.839 189.133 143.682 189.29C143.525 189.447 143.25 189.554 143 189.608C143.25 189.661 143.525 189.768 143.682 189.925C143.839 190.082 143.947 190.356 144 190.605C144.054 190.356 144.161 190.082 144.318 189.925C144.475 189.768 144.75 189.661 145 189.607C144.75 189.554 144.475 189.447 144.318 189.29C144.161 189.133 144.053 188.859 144 188.61Z" fill="white"/>
<path opacity="0.2" d="M187 161.665C186.946 161.915 186.839 162.189 186.682 162.346C186.525 162.503 186.25 162.61 186 162.663C186.25 162.717 186.525 162.824 186.682 162.981C186.839 163.138 186.947 163.412 187 163.661C187.054 163.412 187.161 163.138 187.318 162.981C187.475 162.824 187.75 162.717 188 162.663C187.75 162.61 187.475 162.503 187.318 162.346C187.161 162.189 187.053 161.915 187 161.665Z" fill="white"/>
<path opacity="0.2" d="M76.9999 132.725C76.9464 132.975 76.839 133.249 76.6818 133.406C76.5246 133.562 76.2498 133.67 76 133.723C76.2498 133.777 76.5246 133.884 76.6818 134.041C76.839 134.198 76.9466 134.472 77.0001 134.721C77.0536 134.472 77.1611 134.198 77.3183 134.041C77.4754 133.884 77.7502 133.777 78 133.723C77.7502 133.67 77.4754 133.562 77.3182 133.406C77.1611 133.249 77.0534 132.975 76.9999 132.725Z" fill="white"/>
<path opacity="0.5" d="M110.5 159.669C110.366 160.293 110.097 160.978 109.704 161.371C109.311 161.762 108.625 162.031 108 162.164C108.625 162.298 109.311 162.566 109.704 162.958C110.097 163.35 110.367 164.036 110.5 164.659C110.634 164.036 110.903 163.35 111.296 162.958C111.689 162.566 112.376 162.298 113 162.164C112.376 162.031 111.689 161.762 111.296 161.37C110.903 160.978 110.633 160.293 110.5 159.669Z" fill="white"/>
<path opacity="0.2" d="M115.5 95.8017C115.366 96.4249 115.097 97.1106 114.704 97.5028C114.311 97.8946 113.625 98.1632 113 98.2966C113.625 98.4304 114.311 98.6981 114.704 99.0905C115.097 99.4827 115.367 100.168 115.5 100.791C115.634 100.168 115.903 99.4827 116.296 99.0903C116.689 98.6981 117.376 98.4298 118 98.2961C117.376 98.1629 116.689 97.8947 116.296 97.5025C115.903 97.1106 115.633 96.425 115.5 95.8017Z" fill="white"/>
<path opacity="0.5" d="M1301.5 96.7996C1301.37 97.4229 1301.1 98.1085 1300.7 98.5007C1300.31 98.8926 1299.62 99.1611 1299 99.2946C1299.62 99.4283 1300.31 99.696 1300.7 100.088C1301.1 100.481 1301.37 101.166 1301.5 101.789C1301.63 101.166 1301.9 100.481 1302.3 100.088C1302.69 99.6961 1303.38 99.4278 1304 99.2941C1303.38 99.1608 1302.69 98.8926 1302.3 98.5004C1301.9 98.1086 1301.63 97.4229 1301.5 96.7996Z" fill="white"/>
<path opacity="0.1" d="M1360.5 0C1360.37 0.623257 1360.1 1.30891 1359.7 1.70108C1359.31 2.09296 1358.62 2.36151 1358 2.49496C1358.62 2.6287 1359.31 2.89642 1359.7 3.28885C1360.1 3.68098 1360.37 4.3661 1360.5 4.98967C1360.63 4.3661 1360.9 3.68102 1361.3 3.28859C1361.69 2.89646 1362.38 2.62816 1363 2.49445C1362.38 2.36123 1361.69 2.09299 1361.3 1.70082C1360.9 1.30894 1360.63 0.623289 1360.5 0Z" fill="white"/>
<path opacity="0.5" d="M1204.5 71.8513C1204.37 72.4745 1204.1 73.1602 1203.7 73.5523C1203.31 73.9442 1202.62 74.2128 1202 74.3462C1202.62 74.48 1203.31 74.7477 1203.7 75.1401C1204.1 75.5322 1204.37 76.2174 1204.5 76.8409C1204.63 76.2174 1204.9 75.5323 1205.3 75.1399C1205.69 74.7477 1206.38 74.4794 1207 74.3457C1206.38 74.2125 1205.69 73.9442 1205.3 73.5521C1204.9 73.1602 1204.63 72.4745 1204.5 71.8513Z" fill="white"/>
<path d="M962.328 254.07C962.328 253.73 962.468 253.19 962.248 252.89C962.028 252.59 961.328 252.56 961.578 252.05H960.638C960.569 252.064 960.498 252.064 960.428 252.05C960.351 251.999 960.292 251.926 960.258 251.84C960.008 251.38 959.968 250.99 959.398 251.23C959.128 251.35 958.078 251.75 957.848 251.44C957.816 251.38 957.806 251.311 957.821 251.245C957.836 251.179 957.874 251.12 957.928 251.08C956.928 250.75 955.928 251.37 954.868 251.34C954.537 251.288 954.2 251.288 953.868 251.34C953.458 251.487 953.107 251.764 952.868 252.13C952.439 252.789 951.86 253.337 951.178 253.73C950.458 253.973 949.696 254.068 948.938 254.01L946.368 254.08C946.28 254.1 946.187 254.1 946.098 254.08C945.948 254 945.908 253.8 945.878 253.63C945.87 253.47 945.825 253.313 945.747 253.173C945.669 253.033 945.56 252.912 945.428 252.82C945.138 252.67 944.718 252.76 944.528 252.5C944.338 252.24 944.528 251.89 944.388 251.62C944.178 251.17 943.388 251.32 943.138 250.88C942.888 250.44 943.268 249.88 942.628 249.88C942.147 249.938 941.663 249.971 941.178 249.98C940.938 249.984 940.701 249.917 940.498 249.787C940.295 249.658 940.135 249.47 940.038 249.25C939.868 248.71 940.278 248.17 940.398 247.62C940.413 247.585 940.421 247.548 940.421 247.51C940.421 247.472 940.413 247.435 940.398 247.4C940.347 247.325 940.274 247.269 940.188 247.24C939.472 246.95 938.819 246.522 938.268 245.98C938.156 245.898 938.066 245.789 938.006 245.663C937.947 245.537 937.92 245.399 937.928 245.26C937.988 244.92 938.368 244.78 938.648 244.59C939.868 243.77 939.338 241.64 937.758 241.84C937.358 241.89 936.868 242.1 936.598 241.84C936.476 241.631 936.414 241.392 936.418 241.15C936.148 239.36 933.918 240.46 932.948 239.61C932.798 239.47 932.668 239.28 932.468 239.22C932.333 239.195 932.194 239.195 932.058 239.22C930.339 239.492 928.599 239.609 926.858 239.57C926.773 239.551 926.684 239.551 926.598 239.57C926.526 239.608 926.462 239.658 926.408 239.72C926.118 240.01 925.408 240.47 925.408 240.9C925.402 241.011 925.419 241.122 925.456 241.227C925.494 241.332 925.553 241.428 925.628 241.51C925.958 241.87 926.258 241.96 926.258 242.51C926.258 242.88 926.448 243.96 926.058 244.18C925.906 244.245 925.744 244.286 925.578 244.3C925.109 244.39 925.398 244.65 925.228 244.88C924.945 245.183 924.569 245.384 924.158 245.45C924.09 245.47 924.017 245.47 923.948 245.45C923.808 245.4 923.768 245.24 923.728 245.1C923.488 244.1 923.208 243.87 922.218 244.02C922.109 244.024 922.003 244.055 921.908 244.11C921.779 244.216 921.69 244.365 921.658 244.53C921.457 245.409 920.941 246.184 920.208 246.71C919.789 246.94 919.378 246.77 919.208 247.25C919.039 247.73 919.448 248.25 918.938 248.49C918.428 248.73 916.598 248.01 916.938 249.27C917.068 249.72 917.548 249.68 917.728 250C917.908 250.32 917.548 250.85 918.158 251.1C918.232 251.114 918.299 251.153 918.348 251.21C918.363 251.262 918.363 251.317 918.348 251.37L918.268 252.2C918.279 252.236 918.279 252.274 918.268 252.31C918.268 252.39 918.108 252.37 918.018 252.38C917.928 252.39 917.698 252.73 917.738 252.97C917.778 253.21 918.078 254.15 917.548 254.15C917.018 254.15 915.678 254.48 915.408 254.02C915.328 253.87 915.288 253.69 915.148 253.59C915.008 253.49 914.488 253.69 914.148 253.59C914.028 253.113 913.977 252.621 913.998 252.13C913.741 252.184 913.476 252.184 913.218 252.13C913.088 252.102 912.971 252.032 912.884 251.931C912.798 251.829 912.746 251.703 912.738 251.57C912.738 251.32 912.978 251.08 912.868 250.86C912.815 250.771 912.729 250.706 912.628 250.68C912.373 250.615 912.105 250.614 911.849 250.676C911.592 250.739 911.355 250.864 911.158 251.04C910.763 251.393 910.331 251.701 909.868 251.96C909.766 252.012 909.653 252.039 909.538 252.039C909.424 252.039 909.311 252.012 909.208 251.96C909.039 251.808 908.926 251.604 908.888 251.38C908.568 250.38 907.338 249.6 908.348 248.63C908.466 248.541 908.567 248.433 908.648 248.31C908.692 248.205 908.715 248.093 908.718 247.98C908.735 247.715 908.698 247.449 908.61 247.198C908.523 246.948 908.386 246.717 908.208 246.52C907.839 246.201 907.397 245.976 906.922 245.867C906.446 245.757 905.95 245.765 905.478 245.89C905.373 245.915 905.264 245.915 905.158 245.89C905.079 245.854 905.01 245.799 904.958 245.73C904.711 245.455 904.569 245.1 904.558 244.73C904.578 244.5 904.578 244.269 904.558 244.04C904.388 243.19 903.118 243.71 902.808 242.99C902.783 242.902 902.753 242.815 902.718 242.73C902.548 242.44 902.128 242.5 901.798 242.48C901.486 242.452 901.181 242.367 900.898 242.23C900.204 241.862 899.469 241.577 898.708 241.38C897.898 241.27 897.008 241.33 896.188 241.3C896.097 241.289 896.005 241.31 895.928 241.36C895.885 241.418 895.861 241.487 895.858 241.56C895.799 241.75 895.696 241.923 895.557 242.066C895.418 242.208 895.247 242.316 895.058 242.38C894.487 242.529 893.905 242.639 893.318 242.71C893.016 242.772 892.723 242.877 892.448 243.02C892.198 243.15 891.988 243.43 891.738 243.54C891.488 243.65 891.168 243.41 890.868 243.42C890.568 243.43 890.418 243.81 890.348 244.13C890.26 244.535 890.086 244.917 889.839 245.25C889.626 245.439 889.488 245.698 889.448 245.98C889.448 246.24 889.659 246.44 889.818 246.64C889.978 246.84 890.099 247.14 889.958 247.35C889.897 247.428 889.814 247.487 889.721 247.521C889.627 247.555 889.526 247.561 889.428 247.54C889.228 247.54 889.039 247.44 888.839 247.42C888.638 247.4 888.678 247.42 888.638 247.49C888.598 247.56 888.638 247.64 888.638 247.71C888.798 248.06 889.638 249.39 889.028 249.71C888.928 249.744 888.824 249.764 888.718 249.77C888.568 249.817 888.439 249.914 888.352 250.045C888.264 250.176 888.224 250.333 888.238 250.49C888.284 250.801 888.436 251.087 888.668 251.3C888.868 251.5 889.128 251.72 889.078 252C889.029 252.28 888.628 252.42 888.308 252.43C887.248 252.49 887.598 253.16 887.018 253.74C886.878 253.847 886.713 253.917 886.538 253.943C886.363 253.969 886.184 253.951 886.018 253.89C884.428 253.49 884.718 252.1 884.678 250.81C884.583 249.931 884.357 249.072 884.008 248.26C883.852 247.674 883.584 247.124 883.218 246.64C882.896 246.321 882.512 246.072 882.089 245.91C879.936 245.139 877.664 244.756 875.378 244.78C875.138 244.746 874.892 244.763 874.658 244.83C874.305 245.01 874.008 245.283 873.798 245.62C873.379 246.169 872.888 246.66 872.339 247.08C871.912 247.376 871.514 247.711 871.148 248.08C870.738 248.55 870.818 249.08 870.688 249.7C870.532 250.3 870.293 250.875 869.978 251.41C869.95 251.474 869.909 251.532 869.858 251.58C869.598 251.77 869.058 251.49 868.798 251.43C868.736 251.423 868.677 251.399 868.628 251.36C868.593 251.317 868.562 251.27 868.538 251.22L867.888 249.55C867.851 249.446 867.794 249.351 867.718 249.27C867.438 249.03 866.348 249.22 865.988 249.22C865.942 249.209 865.894 249.209 865.848 249.22C865.793 249.255 865.751 249.308 865.728 249.37C865.618 249.59 865.508 250 865.278 250.03C865.048 250.06 864.538 249.59 864.368 249.49L862.608 248.49L860.528 247.97C859.82 247.9 859.107 247.9 858.398 247.97C857.42 247.889 856.435 247.981 855.488 248.24C855.129 248.393 854.758 248.517 854.378 248.61C853.481 248.667 852.584 248.499 851.768 248.12C850.83 247.85 849.85 247.759 848.878 247.85C848.723 247.849 848.568 247.87 848.418 247.91C848.108 248.04 847.828 248.234 847.598 248.48C846.963 248.998 846.169 249.284 845.348 249.29C844.516 249.228 843.705 248.993 842.968 248.6C841.132 248.056 839.166 248.148 837.388 248.86C836.868 249.102 836.274 249.138 835.728 248.96C835.271 248.648 834.794 248.367 834.298 248.12C834.092 248.068 833.881 248.041 833.668 248.04C832.896 247.971 832.118 247.988 831.348 248.09C830.424 248.277 829.531 248.597 828.698 249.04C828.598 249.106 828.479 249.138 828.358 249.13C828.264 249.106 828.178 249.057 828.108 248.99C827.918 248.99 827.258 248.3 827.108 248.16C826.969 248.033 826.859 247.878 826.783 247.706C826.707 247.534 826.668 247.348 826.668 247.16C826.668 246.82 826.898 246.5 826.668 246.16C826.367 245.906 825.992 245.755 825.598 245.73C825.158 245.65 824.718 245.61 824.278 245.56C824.073 245.53 823.864 245.53 823.658 245.56C823.068 245.66 822.428 246.41 821.968 246.77H819.698V241.85H821.298L805.738 226.29L787.398 240.65H789.858L789.698 243.21H782.998C781.539 243.111 780.074 243.301 778.688 243.77C777.268 244.31 775.618 245.39 774.058 245.41C772.498 245.43 770.388 244.54 768.728 244.25C762.968 243.25 757.058 243.46 751.218 243.69C747.548 243.83 743.648 243.89 740.088 244.86C737.088 245.7 733.938 248.07 730.638 247.06C729.618 246.675 728.653 246.157 727.768 245.52C724.361 243.538 720.75 241.928 716.998 240.72C713.359 239.328 709.443 238.814 705.568 239.22C702.198 239.65 699.028 241.3 695.858 242.48H692.658C692.658 242.48 692.788 242.96 692.658 242.96H690.488L689.718 241.41L688.858 241.46V240.52H687.998V241.41H687.218V242.5H682.468V241.5H680.888C680.888 241.5 681.108 240.89 680.888 240.89H678.568V240.3L677.688 239.93L676.798 239.53L674.798 240.17V241.17L672.158 241.11V242.5C671.025 242.527 669.89 242.457 668.768 242.29C668.659 242.202 668.562 242.102 668.478 241.99C667.789 241.092 667.019 240.258 666.178 239.5C666.076 239.398 665.958 239.313 665.828 239.25C665.639 239.183 665.439 239.156 665.238 239.17C664.846 239.158 664.453 239.191 664.068 239.27C663.838 239.32 663.608 239.42 663.368 239.49C662 239.957 660.523 240.003 659.128 239.62C658.18 239.317 657.257 238.939 656.368 238.49C655.475 238.048 654.51 237.767 653.518 237.66C652.158 237.59 651.378 238.26 650.288 238.91C649.684 239.259 648.977 239.386 648.288 239.27L635.008 237.95L625.628 237.03H625.578C623.578 236.83 621.798 235.52 619.978 234.74C618.158 233.96 615.978 233.67 614.718 231.95C614.478 231.63 614.218 231.15 613.818 231.01C613.287 230.875 612.73 230.875 612.198 231.01C612.198 231.01 612.098 231.01 612.078 231.06C612.064 231.098 612.064 231.141 612.078 231.18V232.18C612.098 232.272 612.098 232.367 612.078 232.46C611.838 232.96 610.028 232.59 609.528 232.61C608.927 232.709 608.31 232.636 607.748 232.4C607.188 232.08 606.928 231.46 606.308 231.25C605.634 231.027 604.899 231.073 604.258 231.38C603.068 231.96 602.388 233.38 601.128 233.74C600.708 233.85 600.272 233.89 599.838 233.86C598.991 233.954 598.134 233.917 597.298 233.75C596.688 233.52 596.298 232.84 595.868 232.4C595.078 231.59 593.978 231.81 592.918 231.79H590.818L586.268 231.89C583.716 232.071 581.154 232.088 578.598 231.94C576.598 231.73 574.688 231.22 572.748 230.84C570.808 230.46 568.568 230.01 566.478 229.59C565.281 229.341 564.062 229.211 562.838 229.2H560.048H554.488C553.819 229.177 553.15 229.217 552.488 229.32C551.432 229.594 550.398 229.952 549.398 230.39C548.271 230.785 547.084 230.985 545.888 230.98C545.278 230.982 544.67 230.908 544.078 230.76C543.534 230.553 543.008 230.299 542.508 230C541.718 229.61 540.858 229.33 540.048 229C539.961 228.964 539.871 228.937 539.778 228.92C539.645 228.927 539.515 228.964 539.398 229.03C538.795 229.196 538.221 229.456 537.698 229.8C537.188 230.03 536.698 230.27 536.158 230.49C535.086 231.039 533.863 231.218 532.678 231C532.104 230.832 531.545 230.615 531.008 230.35L528.678 229.26C527.681 228.693 526.564 228.371 525.418 228.32C524.318 228.32 523.348 229.39 522.628 230.16C522.502 230.263 522.405 230.398 522.347 230.551C522.289 230.703 522.272 230.869 522.298 231.03C521.194 230.935 520.083 230.935 518.978 231.03H508.708C507.111 231.03 505.533 231.37 504.078 232.03C502.508 232.74 500.918 233.39 499.318 234.03C499.161 234.112 498.986 234.157 498.808 234.16C498.617 234.135 498.435 234.063 498.278 233.95C497.517 233.596 496.799 233.157 496.138 232.64L493.818 231.25C492.258 230.33 490.688 229.41 489.138 228.48C488.938 228.348 488.719 228.247 488.488 228.18C488.293 228.151 488.094 228.151 487.898 228.18C486.488 228.18 485.068 228.25 483.658 228.23C483.564 228.22 483.469 228.241 483.388 228.29C483.344 228.332 483.31 228.383 483.289 228.441C483.268 228.498 483.261 228.559 483.268 228.62C483.268 228.91 481.548 229.35 481.268 228.85C480.548 228.764 479.822 228.744 479.098 228.79C479.098 228.79 477.588 229.51 477.548 229.51C476.008 229.22 477.318 228.51 475.778 228.14C474.238 227.77 475.598 228.09 474.158 227.82C472.753 227.66 471.334 227.66 469.928 227.82H469.098C468.76 227.858 468.416 227.813 468.098 227.69C467.598 227.46 467.608 226.87 467.448 226.41C464.548 226.23 461.538 226.04 458.758 227.03C458.078 227.28 457.418 227.59 456.758 227.78C455.762 227.967 454.735 227.922 453.758 227.65C452.625 227.49 451.483 227.4 450.338 227.38C448.998 227.38 448.138 228.03 447.018 228.69C445.488 229.58 444.018 230.52 442.468 231.44C441.108 232.442 439.626 233.268 438.058 233.9C437.952 233.94 437.835 233.94 437.728 233.9C437.655 233.833 437.602 233.746 437.578 233.65C437.179 232.453 437.019 231.189 437.108 229.93C437.108 229.75 437.108 229.54 436.958 229.46C436.896 229.445 436.831 229.445 436.768 229.46H434.628C434.529 229.44 434.427 229.44 434.328 229.46C433.848 229.62 434.078 230.67 433.668 230.68C433.258 230.69 431.758 230.57 431.548 231.17C431.272 231.875 431.097 232.616 431.028 233.37C431.029 233.502 431.009 233.634 430.968 233.76C430.93 233.837 430.879 233.908 430.818 233.97C430.658 234.17 429.718 235.58 429.478 235.58C428.848 235.58 427.908 235.82 427.478 235.21C427.11 234.687 426.817 234.114 426.608 233.51C426.577 233.172 426.517 232.837 426.428 232.51C426.248 232.23 425.968 232.51 425.728 232.29C425.656 232.211 425.617 232.107 425.618 232C425.618 231.72 425.858 230.95 425.468 230.94C425.078 230.93 424.738 230.86 424.368 230.88C423.698 230.88 423.958 231.21 423.808 231.71C423.777 231.801 423.72 231.881 423.643 231.94C423.567 231.998 423.475 232.033 423.378 232.04C423.186 232.06 422.992 232.039 422.808 231.98C422.88 232.138 422.891 232.317 422.839 232.483C422.788 232.649 422.677 232.79 422.528 232.88C422.452 232.916 422.368 232.936 422.283 232.937C422.198 232.937 422.114 232.92 422.037 232.884C421.96 232.849 421.891 232.797 421.836 232.732C421.781 232.668 421.741 232.592 421.718 232.51C421.709 232.309 421.74 232.109 421.808 231.92C421.808 231.72 421.808 231.47 421.598 231.4C421.388 231.33 421.218 231.47 421.048 231.4C420.878 231.33 420.858 231.03 420.908 230.81H420.178C419.927 230.777 419.672 230.811 419.438 230.91C419.382 230.939 419.333 230.979 419.293 231.028C419.253 231.078 419.224 231.135 419.207 231.196C419.19 231.257 419.186 231.32 419.195 231.383C419.203 231.446 419.225 231.506 419.258 231.56C418.879 231.54 418.498 231.54 418.118 231.56C418.178 231.84 418.168 232.23 417.888 232.29C417.758 232.29 417.478 232.18 417.368 232.29C417.258 232.4 417.368 232.88 417.368 233.02C417.37 233.061 417.363 233.102 417.347 233.139C417.332 233.177 417.308 233.212 417.278 233.24C417.23 233.255 417.177 233.255 417.128 233.24C416.882 233.255 416.635 233.255 416.388 233.24C416.363 233.23 416.334 233.23 416.308 233.24C416.308 233.24 416.308 233.29 416.308 233.32C416.293 233.434 416.252 233.543 416.19 233.64C416.128 233.736 416.046 233.818 415.948 233.88C415.328 234.185 414.637 234.316 413.948 234.26C413.11 234.177 412.283 234.01 411.478 233.76C410.515 233.522 409.53 233.378 408.538 233.33C407.833 233.344 407.128 233.277 406.438 233.13C405.898 232.98 405.438 232.71 404.848 232.59C404.339 232.516 403.824 232.483 403.308 232.49C402.601 232.374 401.902 232.207 401.218 231.99C400.838 231.92 400.218 231.99 400.128 231.51C400.128 231.38 400.128 231.22 399.988 231.13C399.934 231.105 399.874 231.092 399.813 231.092C399.753 231.092 399.693 231.105 399.638 231.13L396.288 231.73C396.136 231.752 395.988 231.796 395.848 231.86C395.667 231.973 395.507 232.119 395.378 232.29C394.864 232.887 394.248 233.388 393.558 233.77C392.883 234.088 392.237 234.466 391.628 234.9C390.488 235.84 389.628 237.12 388.208 237.76C386.058 238.76 383.568 237.99 381.408 238.9C380.683 239.336 380.012 239.857 379.408 240.45L376.638 242.59C376.427 242.765 376.199 242.919 375.958 243.05C375.131 243.274 374.265 243.318 373.418 243.18H372.168C371.708 243.18 371.098 242.98 370.708 243.32C370.318 243.66 370.268 244.55 370.108 245.07L369.348 247.48C369.314 247.626 369.253 247.765 369.168 247.89C369.041 248.025 368.888 248.134 368.718 248.21L366.718 249.21C365.718 249.7 365.718 250.94 365.488 251.91C365.408 252.26 365.488 252.86 365.178 253.12C364.868 253.38 362.978 252.9 362.488 252.82C361.838 252.73 361.558 253.09 361.038 253.39C360.518 253.69 360.088 253.96 359.618 254.27C358.888 254.75 358.178 255.27 357.498 255.79C357.118 256.08 356.928 256.15 356.888 256.6C356.848 257.05 357.038 257.51 357.038 257.96C357.038 258.41 357.348 259.32 357.108 259.53C356.868 259.74 355.658 259.61 355.318 259.63L353.528 259.74C353.279 259.737 353.032 259.781 352.798 259.87C352.428 260.03 352.198 260.56 351.958 260.87L351.068 262.07L349.898 263.64H962.328V254.07Z" fill="#4A4C4C"/>
<path d="M529.27 253.9H344V252.06L346.8 251.73L348.27 250.81H349.8L352.23 249.88L354.23 249.48L356.02 249.09L356.97 249.45L360.55 249.09L361.55 247.4H364.68L367.23 246.59L371.23 246.9L372.57 245.74L376.84 245.28C376.84 245.28 378.18 245.48 378.18 245.28C378.321 244.942 378.51 244.625 378.74 244.34H381.74L382.62 243.76L384.47 242.76L387.03 243.15L387.86 242.76H390.09C390.741 242.939 391.421 242.987 392.09 242.9L393.57 243.04L394.97 242.48L396.12 242.64L397.21 242.85L398.99 242.25L400.4 242.3H400.54C402.33 241.96 404.05 241.48 405.77 241.09L409.63 240.2C410.707 239.891 411.82 239.72 412.94 239.69C414.09 239.69 415.23 239.69 416.36 239.8C417.356 239.907 418.361 239.923 419.36 239.85C420.06 239.78 420.72 239.65 421.36 239.56C424.245 239.244 427.152 239.164 430.05 239.32C430.22 239.49 430.21 239.73 430.71 239.82C431.043 239.848 431.377 239.848 431.71 239.82H432.54C433.93 239.82 435.23 240.31 436.6 240.41C437.97 240.51 439.66 240.07 441.1 240.19C442.54 240.31 441.41 239.5 442.96 239.61C442.96 239.61 443.83 240.05 443.87 240.05C444.211 239.961 444.546 239.848 444.87 239.71C445.53 239.52 445.87 239.84 445.87 239.71C445.87 239.58 446.04 239.88 446.13 239.85C446.22 239.82 446.13 239.99 446.25 239.99H450.48C450.676 239.975 450.874 239.975 451.07 239.99C451.289 240.014 451.507 240.054 451.72 240.11L456.4 241.19L457.84 242.43L460.56 243.05L463.11 242.65L467.79 243.27V244.13L469.33 244.44C469.58 244.44 476.05 244.44 476.05 244.44L477.16 245.23L480.05 245.45L482.69 246.64L485.07 246.29L488.07 247.08H490.71L493.09 247.53L493.77 248.53L496.84 248.31L500.67 249.55L501.18 250.12L503.81 249.81L507.05 250.61L507.64 251.22H512.07L512.5 252.28L516.5 252.77H519.13V252.13L521.26 252.31L522.45 252.92H525.18L529.27 253.9Z" fill="#040707"/>
<path d="M799.341 246.22V256.64H475.891V252.64C475.891 252.49 475.811 252.26 475.891 252.14C475.971 252.02 476.401 251.99 476.271 251.78H476.791C476.827 251.79 476.865 251.79 476.901 251.78C476.922 251.774 476.942 251.764 476.959 251.75C476.977 251.737 476.991 251.719 477.001 251.7C477.141 251.51 477.161 251.35 477.481 251.45C477.631 251.45 478.211 251.67 478.341 251.53C478.352 251.521 478.36 251.509 478.366 251.496C478.372 251.483 478.375 251.469 478.375 251.455C478.375 251.441 478.372 251.427 478.366 251.414C478.36 251.401 478.352 251.389 478.341 251.38C478.91 251.353 479.48 251.39 480.041 251.49C480.234 251.47 480.428 251.47 480.621 251.49C480.826 251.546 481.01 251.661 481.151 251.82C481.41 252.114 481.731 252.346 482.091 252.5C482.5 252.601 482.921 252.641 483.341 252.62H484.771H484.921C484.953 252.598 484.98 252.57 485.001 252.538C485.022 252.505 485.035 252.468 485.041 252.43C485.049 252.356 485.076 252.286 485.12 252.226C485.164 252.167 485.223 252.12 485.291 252.09C485.451 252.02 485.691 252.09 485.791 251.95C485.891 251.81 485.791 251.7 485.871 251.57C485.951 251.44 486.441 251.46 486.571 251.27C486.701 251.08 486.491 250.85 486.851 250.85C487.211 250.85 487.391 250.91 487.661 250.85C487.785 250.852 487.908 250.823 488.018 250.766C488.128 250.708 488.222 250.623 488.291 250.52C488.381 250.31 488.161 250.08 488.091 249.85C488.084 249.836 488.08 249.821 488.08 249.805C488.08 249.789 488.084 249.774 488.091 249.76C488.104 249.74 488.122 249.723 488.143 249.711C488.164 249.699 488.187 249.692 488.211 249.69C488.593 249.577 488.951 249.397 489.271 249.16C489.381 249.08 489.491 248.97 489.461 248.86C489.431 248.75 489.221 248.65 489.061 248.58C488.381 248.22 488.681 247.34 489.551 247.42C489.781 247.42 490.051 247.52 490.201 247.42C490.351 247.32 490.281 247.22 490.301 247.13C490.461 246.38 491.691 246.84 492.231 246.47C492.312 246.405 492.403 246.354 492.501 246.32C492.576 246.3 492.656 246.3 492.731 246.32C493.691 246.427 494.656 246.473 495.621 246.46C495.671 246.45 495.721 246.45 495.771 246.46C495.771 246.46 495.841 246.46 495.871 246.51C495.901 246.56 496.431 246.84 496.451 247.01C496.458 247.062 496.451 247.114 496.43 247.162C496.408 247.21 496.374 247.251 496.331 247.28C496.151 247.43 495.981 247.46 495.981 247.69C495.981 247.92 495.871 248.3 496.091 248.4C496.181 248.41 496.271 248.41 496.361 248.4C496.621 248.4 496.461 248.55 496.561 248.65C496.733 248.781 496.936 248.864 497.151 248.89C497.19 248.9 497.232 248.9 497.271 248.89C497.302 248.877 497.329 248.857 497.35 248.83C497.371 248.804 497.385 248.773 497.391 248.74C497.531 248.31 497.681 248.22 498.231 248.29C498.287 248.28 498.345 248.28 498.401 248.29C498.469 248.33 498.519 248.394 498.541 248.47C498.682 248.867 498.973 249.194 499.351 249.38C499.591 249.48 499.811 249.38 499.921 249.61C500.031 249.84 499.791 250.02 500.071 250.13C500.351 250.24 501.371 249.92 501.161 250.46C501.081 250.65 500.821 250.63 500.721 250.77C500.621 250.91 500.821 251.11 500.481 251.23C500.448 251.223 500.414 251.223 500.381 251.23C500.374 251.24 500.37 251.252 500.37 251.265C500.37 251.277 500.374 251.29 500.381 251.3C500.375 251.413 500.375 251.527 500.381 251.64C500.381 251.64 500.381 251.64 500.381 251.7C500.381 251.76 500.481 251.7 500.521 251.7C500.561 251.7 500.701 251.83 500.681 251.94C500.661 252.05 500.491 252.44 500.781 252.44C501.071 252.44 501.781 252.58 501.981 252.38C502.009 252.308 502.058 252.245 502.121 252.2C502.271 252.11 502.491 252.2 502.671 252.2C502.71 252.005 502.71 251.805 502.671 251.61C502.817 251.635 502.965 251.635 503.111 251.61C503.251 251.61 503.381 251.49 503.371 251.38C503.361 251.27 503.241 251.17 503.301 251.07C503.334 251.032 503.381 251.007 503.431 251C503.571 250.969 503.715 250.966 503.856 250.992C503.997 251.018 504.131 251.071 504.251 251.15C504.477 251.302 504.718 251.429 504.971 251.53C505.09 251.575 505.222 251.575 505.341 251.53C505.451 251.53 505.481 251.39 505.521 251.3C505.691 250.88 506.381 250.55 505.821 250.14C505.758 250.101 505.701 250.054 505.651 250C505.647 249.957 505.647 249.913 505.651 249.87C505.647 249.751 505.672 249.633 505.722 249.525C505.773 249.418 505.848 249.323 505.941 249.25C506.395 248.969 506.94 248.875 507.461 248.99C507.517 249 507.575 249 507.631 248.99C507.674 248.976 507.714 248.956 507.751 248.93C507.877 248.825 507.956 248.674 507.971 248.51C507.961 248.417 507.961 248.323 507.971 248.23C508.061 247.87 508.771 248.08 508.971 247.77C508.971 247.77 508.971 247.71 509.031 247.67C509.091 247.63 509.351 247.58 509.541 247.56C509.712 247.552 509.88 247.518 510.041 247.46C510.433 247.298 510.843 247.181 511.261 247.11C511.711 247.11 512.201 247.11 512.661 247.11C512.706 247.094 512.756 247.094 512.801 247.11C512.808 247.14 512.808 247.17 512.801 247.2C512.842 247.287 512.904 247.364 512.98 247.423C513.057 247.482 513.146 247.522 513.241 247.54C513.571 247.612 513.905 247.662 514.241 247.69C514.405 247.713 514.566 247.754 514.721 247.81C514.861 247.86 514.981 247.99 515.121 248.03C515.261 248.07 515.441 248.03 515.601 248.03C515.761 248.03 515.851 248.2 515.891 248.33C515.949 248.507 516.049 248.668 516.181 248.8C516.271 248.9 516.401 248.99 516.391 249.11C516.381 249.23 516.281 249.3 516.191 249.38C516.101 249.46 516.031 249.59 516.111 249.69C516.152 249.724 516.2 249.749 516.252 249.763C516.304 249.777 516.358 249.779 516.411 249.77C516.521 249.77 516.621 249.77 516.731 249.77C516.748 249.762 516.767 249.758 516.786 249.758C516.805 249.758 516.824 249.762 516.841 249.77C516.841 249.77 516.841 249.84 516.841 249.87C516.841 249.9 516.281 250.57 516.631 250.69C516.687 250.7 516.745 250.7 516.801 250.69C516.874 250.698 516.942 250.733 516.99 250.788C517.039 250.844 517.064 250.916 517.061 250.99C517.048 251.061 517.019 251.127 516.978 251.186C516.937 251.245 516.883 251.294 516.821 251.33C516.711 251.4 516.571 251.51 516.601 251.62C516.631 251.73 516.851 251.8 517.021 251.81C517.621 251.81 517.421 252.1 517.751 252.35C517.918 252.445 518.116 252.47 518.301 252.42C519.191 252.25 519.031 251.67 519.051 251.12C519.105 250.742 519.234 250.378 519.431 250.05C519.522 249.792 519.673 249.559 519.871 249.37C520.058 249.231 520.268 249.126 520.491 249.06C521.711 248.737 522.969 248.576 524.231 248.58C524.364 248.565 524.498 248.565 524.631 248.58C524.819 248.648 524.984 248.765 525.111 248.92C525.358 249.155 525.629 249.363 525.921 249.54C526.153 249.653 526.373 249.787 526.581 249.94C526.811 250.13 526.771 250.37 526.841 250.62C526.931 250.877 527.063 251.116 527.231 251.33C527.231 251.33 527.231 251.4 527.301 251.41C527.371 251.42 527.751 251.41 527.901 251.35H527.991C527.991 251.35 527.991 251.35 528.041 251.3L528.401 250.6C528.422 250.554 528.452 250.513 528.491 250.48C528.651 250.37 529.251 250.48 529.491 250.48H529.571C529.598 250.492 529.619 250.513 529.631 250.54C529.691 250.63 529.751 250.81 529.881 250.82C530.011 250.83 530.291 250.63 530.391 250.59L531.391 250.15L532.551 249.92C532.944 249.895 533.338 249.895 533.731 249.92C534.274 249.888 534.82 249.931 535.351 250.05C535.561 250.05 535.761 250.17 535.971 250.2C536.463 250.225 536.955 250.157 537.421 250C537.949 249.88 538.491 249.84 539.031 249.88C539.117 249.87 539.205 249.87 539.291 249.88C539.455 249.941 539.61 250.025 539.751 250.13C540.131 250.35 540.562 250.467 541.001 250.47C541.456 250.441 541.905 250.343 542.331 250.18C543.357 249.952 544.424 249.989 545.431 250.29C545.732 250.375 546.05 250.375 546.351 250.29C546.609 250.155 546.877 250.038 547.151 249.94C547.267 249.93 547.385 249.93 547.501 249.94C547.93 249.905 548.362 249.905 548.791 249.94C549.297 250.02 549.793 250.154 550.271 250.34C550.334 250.35 550.398 250.35 550.461 250.34L550.601 250.28C550.8 250.19 550.985 250.072 551.151 249.93C551.223 249.885 551.282 249.824 551.324 249.75C551.366 249.677 551.389 249.594 551.391 249.51C551.391 249.35 551.261 249.23 551.391 249.09C551.595 249.062 551.803 249.075 552.001 249.13L552.741 249.05H553.081C553.42 249.167 553.738 249.34 554.021 249.56H555.291V247.49H554.401L563.061 240.96L573.271 246.96H571.901L572.001 248.13H575.741C576.548 248.082 577.357 248.156 578.141 248.35C578.966 248.696 579.834 248.928 580.721 249.04C581.732 248.955 582.734 248.794 583.721 248.56C586.96 248.223 590.22 248.146 593.471 248.33C595.544 248.318 597.614 248.479 599.661 248.81C601.361 249.17 603.091 250.17 604.921 249.74C605.477 249.58 606.014 249.359 606.521 249.08C608.465 248.254 610.471 247.586 612.521 247.08C614.587 246.497 616.741 246.287 618.881 246.46C620.723 246.746 622.535 247.205 624.291 247.83H626.071C626.071 247.83 626.001 248.03 626.071 248.03H627.281L627.711 247.37H628.191V246.98H628.621V247.34H629.001V247.8H631.651V247.4H632.521C632.521 247.4 632.401 247.14 632.521 247.14H633.821V246.89L634.311 246.73L634.801 246.57L635.881 246.84V247.25H637.361V247.82C637.989 247.84 638.617 247.814 639.241 247.74C639.304 247.711 639.359 247.666 639.401 247.61C639.802 247.246 640.23 246.911 640.681 246.61C640.742 246.567 640.81 246.533 640.881 246.51C640.99 246.49 641.102 246.49 641.211 246.51C641.427 246.49 641.645 246.49 641.861 246.51L642.251 246.61C643.027 246.79 643.835 246.79 644.611 246.61C645.135 246.493 645.649 246.339 646.151 246.15C646.66 245.951 647.196 245.833 647.741 245.8C648.373 245.812 648.991 245.991 649.531 246.32C649.884 246.47 650.271 246.522 650.651 246.47C653.121 246.29 655.581 246.09 658.051 245.92L663.271 245.53C664.349 245.33 665.397 244.994 666.391 244.53C667.391 244.2 668.621 244.07 669.321 243.35C669.451 243.22 669.601 243.01 669.821 242.96C670.121 242.9 670.431 242.9 670.731 242.96C670.731 242.96 670.781 242.96 670.791 242.96C670.801 242.96 670.791 242.96 670.791 243.01C670.791 243.06 670.791 243.29 670.791 243.45C670.781 243.489 670.781 243.531 670.791 243.57C670.931 243.78 671.941 243.57 672.221 243.63C672.558 243.674 672.9 243.64 673.221 243.53C673.531 243.41 673.671 243.15 674.021 243.06C674.397 242.961 674.795 242.978 675.161 243.11C675.821 243.36 676.161 243.95 676.901 244.11C677.139 244.152 677.38 244.169 677.621 244.16C678.095 244.194 678.571 244.177 679.041 244.11C679.339 243.969 679.607 243.772 679.831 243.53C680.338 243.276 680.912 243.188 681.471 243.28H682.641H685.171C686.597 243.355 688.025 243.355 689.451 243.28C690.541 243.19 691.621 242.98 692.701 242.82L696.191 242.29C696.853 242.188 697.521 242.135 698.191 242.13H702.841C703.218 242.116 703.596 242.133 703.971 242.18C704.555 242.284 705.131 242.434 705.691 242.63C706.344 242.799 707.017 242.88 707.691 242.87C708.027 242.875 708.362 242.845 708.691 242.78C708.995 242.7 709.29 242.589 709.571 242.45C710.011 242.3 710.491 242.18 710.941 242.04C710.988 242.014 711.038 241.997 711.091 241.99C711.164 241.996 711.236 242.016 711.301 242.05C711.63 242.117 711.949 242.225 712.251 242.37L713.101 242.66C713.72 242.889 714.387 242.961 715.041 242.87C715.357 242.801 715.667 242.711 715.971 242.6L717.271 242.14C717.846 241.89 718.464 241.754 719.091 241.74C719.678 241.827 720.221 242.101 720.641 242.52C720.761 242.62 720.881 242.75 720.821 242.89C721.437 242.85 722.055 242.85 722.671 242.89H728.371C729.248 242.885 730.12 243.027 730.951 243.31C731.831 243.61 732.711 243.88 733.601 244.16C733.697 244.18 733.795 244.18 733.891 244.16C733.991 244.157 734.09 244.133 734.181 244.09C734.595 243.936 734.997 243.748 735.381 243.53L736.671 242.95L739.271 241.78C739.386 241.725 739.506 241.685 739.631 241.66C739.741 241.65 739.851 241.65 739.961 241.66H742.321C742.37 241.649 742.422 241.649 742.471 241.66C742.495 241.676 742.515 241.699 742.527 241.725C742.539 241.752 742.544 241.781 742.541 241.81C742.556 241.926 742.556 242.044 742.541 242.16C742.541 242.16 742.541 242.27 742.601 242.29H742.671C743.531 242.16 744.371 241.98 745.221 241.84L747.631 241.47C748.416 241.4 749.206 241.4 749.991 241.47H750.451C750.63 241.5 750.812 241.5 750.991 241.47C751.271 241.37 751.261 241.12 751.351 240.93C752.968 240.767 754.6 240.851 756.191 241.18C756.571 241.29 756.941 241.42 757.321 241.5C757.88 241.583 758.448 241.567 759.001 241.45C759.632 241.378 760.266 241.341 760.901 241.34C761.553 241.37 762.188 241.558 762.751 241.89L764.891 242.89C765.891 243.3 766.811 243.82 767.811 244.19C767.811 244.19 767.811 244.19 767.861 244.19C767.911 244.19 768.111 243.83 768.111 243.69C768.229 243.233 768.273 242.761 768.241 242.29C768.731 242.29 769.241 242.29 769.711 242.29C769.75 242.279 769.792 242.279 769.831 242.29C769.951 242.34 770.001 242.66 770.031 242.75C770.031 242.75 770.031 242.75 770.091 242.75C770.361 242.75 771.151 242.7 771.271 242.96C771.426 243.245 771.524 243.558 771.561 243.88C771.546 243.929 771.546 243.981 771.561 244.03C771.58 244.072 771.611 244.107 771.651 244.13C771.741 244.21 772.261 244.81 772.391 244.81C772.741 244.81 773.271 244.91 773.491 244.66C773.685 244.444 773.847 244.202 773.971 243.94C773.971 243.83 773.971 243.61 774.071 243.52C774.171 243.43 774.331 243.52 774.461 243.43C774.48 243.417 774.496 243.399 774.506 243.378C774.517 243.357 774.522 243.333 774.521 243.31C774.521 243.19 774.381 242.87 774.601 242.87C774.821 242.87 775.411 242.78 775.501 242.87C775.51 242.889 775.514 242.909 775.514 242.93C775.514 242.951 775.51 242.971 775.501 242.99C775.501 243.32 775.661 243.31 776.061 243.27C776.061 243.27 776.061 243.48 776.061 243.51C776.061 243.54 776.171 243.66 776.401 243.66C776.444 243.664 776.488 243.658 776.529 243.645C776.571 243.631 776.609 243.609 776.641 243.58C776.65 243.558 776.655 243.534 776.655 243.51C776.655 243.486 776.65 243.462 776.641 243.44C776.641 243.37 776.581 243.12 776.641 243.07C776.701 243.02 777.061 243.13 777.131 242.92C777.15 242.868 777.15 242.812 777.131 242.76C777.371 242.76 777.611 242.76 777.841 242.76C778.071 242.76 778.111 242.9 778.061 243.07C778.061 243.07 778.621 243.07 778.691 243.07C778.761 243.07 778.631 243.33 778.751 243.37C778.814 243.375 778.878 243.375 778.941 243.37C779 243.355 779.062 243.355 779.121 243.37C779.106 243.469 779.106 243.571 779.121 243.67C779.109 243.699 779.109 243.731 779.121 243.76C779.15 243.769 779.182 243.769 779.211 243.76H779.621C779.621 243.86 779.721 243.93 779.821 244C780.093 244.112 780.39 244.15 780.681 244.11C780.971 244.11 780.591 243.97 780.891 243.92C781.451 243.86 781.221 243.31 781.791 243.25C782.333 243.178 782.868 243.061 783.391 242.9C783.641 242.83 784.391 242.81 784.661 242.77C784.931 242.73 785.351 242.33 785.661 242.29C785.971 242.25 786.111 241.29 786.341 241.22C786.755 241.064 787.184 240.95 787.621 240.88C787.331 239.88 787.941 239.57 788.731 239.06C788.871 238.97 789.021 238.88 789.171 238.77C789.581 238.49 789.951 237.63 790.371 237.17C790.455 237.067 790.552 236.976 790.661 236.9C791.301 236.553 792.024 236.387 792.751 236.42C792.991 236.42 789.181 242.86 789.421 242.86H789.591C789.671 242.92 789.681 243.01 789.721 243.07C789.786 243.141 789.864 243.199 789.952 243.238C790.04 243.278 790.135 243.299 790.231 243.3C791.046 243.473 791.846 243.714 792.621 244.02L795.541 244.94L799.341 246.22Z" fill="#040707"/>
<path d="M1058.3 235.29C1058.3 235.267 1058.3 235.243 1058.3 235.22C1058.31 235.136 1058.34 235.057 1058.39 234.99C1058.44 234.91 1058.5 234.841 1058.58 234.79C1058.72 234.696 1058.87 234.637 1059.04 234.62C1059.1 234.614 1059.16 234.614 1059.22 234.62H1066V238.05H1059.35C1059.21 238.062 1059.08 238.062 1058.94 238.05H1058.82C1058.76 238.032 1058.7 238.005 1058.64 237.97C1058.48 237.864 1058.36 237.699 1058.31 237.51C1058.3 237.443 1058.3 237.376 1058.31 237.31C1058.31 237.31 1058.29 235.55 1058.3 235.29Z" fill="#040707"/>
<path d="M1070.17 230.32C1070.4 230.31 1070.63 230.33 1070.85 230.38C1071.51 230.542 1072.09 230.945 1072.48 231.51C1072.83 232.064 1072.96 232.726 1072.85 233.37C1072.78 233.75 1072.78 233.75 1072.39 233.75H1070.68L1070.91 233.43C1071.05 233.27 1071.12 233.063 1071.11 232.853C1071.09 232.643 1071 232.444 1070.85 232.3C1070.78 232.222 1070.69 232.158 1070.6 232.113C1070.5 232.068 1070.4 232.041 1070.3 232.036C1070.19 232.03 1070.09 232.045 1069.99 232.08C1069.89 232.115 1069.8 232.17 1069.72 232.24C1069.25 232.68 1068.8 233.14 1068.35 233.6C1068.3 233.653 1068.24 233.694 1068.18 233.722C1068.11 233.749 1068.04 233.762 1067.97 233.76C1067.26 233.76 1066.56 233.76 1065.85 233.76C1065.74 233.766 1065.63 233.748 1065.53 233.706C1065.43 233.665 1065.34 233.601 1065.27 233.52C1064.88 233.1 1064.46 232.7 1064.05 232.29C1063.94 232.182 1063.81 232.106 1063.66 232.069C1063.51 232.032 1063.35 232.036 1063.21 232.08C1063.06 232.124 1062.93 232.207 1062.83 232.319C1062.72 232.432 1062.65 232.57 1062.62 232.72C1062.59 232.842 1062.6 232.968 1062.63 233.089C1062.66 233.21 1062.71 233.323 1062.79 233.42L1063.09 233.74H1061.21C1061.09 233.74 1061.04 233.74 1061 233.58C1060.9 233.227 1060.88 232.857 1060.94 232.495C1060.99 232.134 1061.12 231.788 1061.32 231.481C1061.52 231.173 1061.79 230.912 1062.09 230.714C1062.4 230.515 1062.75 230.385 1063.11 230.33C1063.23 230.316 1063.35 230.316 1063.47 230.33C1063.66 230.333 1063.85 230.353 1064.04 230.39C1064.26 230.436 1064.48 230.51 1064.68 230.61C1064.9 230.729 1065.1 230.877 1065.28 231.05C1065.68 231.41 1065.93 231.69 1066.46 232.23L1066.89 232.66L1066.98 232.58C1067.52 232.07 1068.06 231.58 1068.61 231.04C1068.81 230.846 1069.04 230.687 1069.29 230.57C1069.57 230.437 1069.86 230.353 1070.17 230.32Z" fill="#FFAE00"/>
<path d="M1066 247.51H1060.09C1059.95 247.53 1059.82 247.53 1059.68 247.51C1059.53 247.466 1059.4 247.378 1059.31 247.259C1059.21 247.139 1059.15 246.993 1059.14 246.84C1059.14 246.75 1059.14 246.66 1059.14 246.57V239.84H1066V247.51Z" fill="#040707"/>
<path d="M1067.77 239.79H1074.62C1074.63 239.846 1074.63 239.903 1074.62 239.96V246.56C1074.65 246.736 1074.62 246.916 1074.53 247.072C1074.45 247.229 1074.31 247.354 1074.15 247.43C1074.03 247.482 1073.9 247.51 1073.76 247.51H1067.76L1067.77 239.79Z" fill="#040707"/>
<path d="M1067.77 238.04V234.62H1074.53C1074.66 234.592 1074.8 234.598 1074.93 234.635C1075.06 234.672 1075.18 234.74 1075.28 234.834C1075.38 234.927 1075.45 235.043 1075.49 235.171C1075.54 235.299 1075.55 235.436 1075.53 235.57V237.13C1075.55 237.252 1075.54 237.377 1075.5 237.494C1075.46 237.612 1075.4 237.719 1075.31 237.808C1075.22 237.897 1075.12 237.965 1075 238.007C1074.89 238.048 1074.76 238.063 1074.64 238.05C1072.39 238.05 1070.14 238.05 1067.89 238.05L1067.77 238.04Z" fill="#040707"/>
<path d="M774.19 225.7C773.944 225.476 773.624 225.353 773.292 225.356C772.96 225.358 772.641 225.486 772.398 225.713C772.156 225.94 772.008 226.25 771.984 226.581C771.961 226.912 772.063 227.24 772.27 227.5L769.42 224.36L766.21 227.28C766.392 227.105 766.52 226.882 766.579 226.637C766.637 226.392 766.625 226.135 766.543 225.897C766.46 225.659 766.311 225.449 766.114 225.293C765.916 225.136 765.677 225.04 765.427 225.015C765.176 224.99 764.923 225.037 764.698 225.151C764.473 225.265 764.286 225.441 764.158 225.658C764.03 225.876 763.967 226.125 763.976 226.377C763.985 226.629 764.066 226.873 764.21 227.08C764.318 227.238 764.459 227.371 764.624 227.469C764.788 227.567 764.973 227.628 765.163 227.647C765.354 227.666 765.547 227.643 765.727 227.58C765.908 227.516 766.073 227.414 766.21 227.28L763 230.2L765.34 232.77C765.343 232.55 765.4 232.335 765.507 232.143C765.614 231.952 765.767 231.79 765.952 231.672C766.137 231.554 766.349 231.485 766.568 231.469C766.787 231.454 767.006 231.494 767.206 231.584C767.406 231.675 767.58 231.814 767.712 231.989C767.845 232.164 767.932 232.37 767.965 232.587C767.998 232.804 767.976 233.026 767.902 233.232C767.828 233.439 767.704 233.624 767.54 233.77C767.406 233.893 767.248 233.987 767.076 234.046C766.904 234.105 766.721 234.126 766.54 234.11L768.88 236.67L775.29 230.82L772.44 227.7C772.669 227.899 772.959 228.014 773.263 228.027C773.566 228.04 773.865 227.949 774.11 227.77C774.271 227.652 774.403 227.5 774.497 227.324C774.591 227.148 774.644 226.953 774.651 226.754C774.659 226.555 774.622 226.357 774.542 226.174C774.462 225.992 774.342 225.829 774.19 225.7Z" fill="#040707"/>
<path d="M776.552 221.76C776.652 221.633 776.706 221.476 776.706 221.315C776.706 221.153 776.652 220.997 776.552 220.87C776.495 220.795 776.424 220.732 776.342 220.685C776.261 220.639 776.171 220.609 776.077 220.598C775.984 220.586 775.889 220.594 775.799 220.62C775.709 220.646 775.625 220.69 775.552 220.75L777.202 219.2L775.612 217.51C775.744 217.642 775.924 217.717 776.112 217.717C776.299 217.717 776.479 217.642 776.612 217.51C776.744 217.377 776.819 217.197 776.819 217.01C776.819 216.822 776.744 216.642 776.612 216.51C776.487 216.413 776.334 216.361 776.177 216.361C776.019 216.361 775.866 216.413 775.742 216.51C775.669 216.569 775.609 216.642 775.565 216.724C775.521 216.807 775.494 216.898 775.486 216.991C775.477 217.084 775.488 217.178 775.516 217.267C775.545 217.356 775.591 217.439 775.652 217.51L774.002 215.83L772.692 217.13C772.811 217.124 772.93 217.149 773.037 217.202C773.144 217.254 773.236 217.333 773.305 217.431C773.374 217.528 773.417 217.642 773.43 217.76C773.443 217.879 773.426 217.999 773.381 218.109C773.335 218.22 773.263 218.317 773.17 218.392C773.077 218.467 772.967 218.517 772.849 218.538C772.732 218.559 772.611 218.55 772.498 218.512C772.384 218.474 772.283 218.408 772.202 218.32C772.069 218.168 772.001 217.971 772.012 217.77L770.672 219.04L773.852 222.41L775.492 220.86C775.389 220.984 775.333 221.139 775.333 221.3C775.333 221.46 775.389 221.616 775.492 221.74C775.557 221.816 775.638 221.877 775.728 221.92C775.819 221.963 775.917 221.986 776.017 221.987C776.117 221.989 776.217 221.97 776.309 221.931C776.401 221.892 776.484 221.833 776.552 221.76Z" fill="#040707"/>
<path d="M1168.58 205.03C1168.34 204.657 1167.96 204.387 1167.53 204.274C1167.1 204.162 1166.65 204.213 1166.25 204.42C1166.11 204.496 1165.98 204.579 1165.85 204.67C1165.81 204.519 1165.76 204.372 1165.69 204.23C1165.52 203.821 1165.19 203.492 1164.79 203.307C1164.38 203.122 1163.92 203.094 1163.5 203.23C1163.06 203.375 1162.68 203.66 1162.42 204.04C1162.15 204.421 1162.02 204.877 1162.04 205.34C1162.07 205.825 1162.18 206.302 1162.37 206.75C1162.79 207.72 1163.35 208.625 1164.02 209.44C1164.05 209.478 1164.09 209.506 1164.13 209.52C1164.17 209.53 1164.22 209.53 1164.26 209.52C1165.3 209.334 1166.31 208.997 1167.26 208.52C1167.69 208.29 1168.08 207.989 1168.41 207.63C1168.72 207.276 1168.91 206.829 1168.94 206.359C1168.97 205.888 1168.84 205.421 1168.58 205.03Z" fill="#FFAE00"/>
<path d="M278.812 239.58H278.632C278.512 239.58 278.472 239.58 278.462 239.41L278.312 237.64C278.202 236.45 278.102 235.26 278.002 234.06C278.002 233.77 278.002 233.48 277.932 233.19C277.932 233.09 277.932 233.02 278.072 233.04C278.212 233.06 278.162 233.04 278.162 232.97C278.162 232.9 278.102 232.9 278.042 232.9H277.702C277.687 232.902 277.672 232.9 277.658 232.895C277.644 232.89 277.631 232.882 277.621 232.871C277.61 232.861 277.602 232.848 277.597 232.834C277.592 232.82 277.59 232.805 277.592 232.79V231.65C277.592 231.57 277.642 231.53 277.682 231.47C277.704 231.449 277.721 231.423 277.733 231.395C277.745 231.366 277.752 231.336 277.752 231.305C277.752 231.274 277.745 231.244 277.733 231.215C277.721 231.187 277.704 231.161 277.682 231.14C277.639 231.106 277.586 231.087 277.532 231.087C277.477 231.087 277.424 231.106 277.382 231.14C277.36 231.161 277.342 231.187 277.33 231.215C277.318 231.244 277.312 231.274 277.312 231.305C277.312 231.336 277.318 231.366 277.33 231.395C277.342 231.423 277.36 231.449 277.382 231.47C277.413 231.499 277.437 231.535 277.453 231.575C277.468 231.615 277.475 231.657 277.472 231.7C277.472 232.04 277.472 232.39 277.472 232.7C277.472 232.85 277.402 232.88 277.282 232.87H277.002C276.952 232.87 276.922 232.87 276.922 232.95C276.922 233.03 276.922 233.01 276.992 233.01H277.182C277.202 233.159 277.202 233.311 277.182 233.46L276.882 237.95C276.882 238.42 276.802 238.95 276.782 239.37C276.782 239.51 276.722 239.55 276.592 239.55H275.932C275.742 239.55 275.742 239.55 275.742 239.74C275.732 239.91 275.732 240.08 275.742 240.25C275.742 240.38 275.692 240.41 275.572 240.41H274.192C274.177 240.408 274.162 240.41 274.148 240.415C274.134 240.42 274.121 240.428 274.111 240.439C274.1 240.449 274.092 240.462 274.087 240.476C274.082 240.49 274.08 240.505 274.082 240.52C274.087 240.583 274.087 240.647 274.082 240.71V245.39C274.082 245.47 274.082 245.5 273.972 245.49H273.812C272.712 245.49 271.612 245.49 270.502 245.49H270.372C270.282 245.49 270.222 245.49 270.232 245.35V219.98C270.232 219.54 270.302 219.65 269.892 219.52L268.312 219.09C268.284 219.086 268.257 219.077 268.233 219.063C268.209 219.049 268.188 219.03 268.171 219.008C268.155 218.985 268.143 218.96 268.136 218.933C268.129 218.906 268.128 218.878 268.132 218.85C268.132 218.3 268.132 217.76 268.132 217.21C268.132 216.97 268.132 216.97 267.922 216.89L264.862 215.78C264.592 215.68 264.622 215.72 264.622 215.42C264.622 214.42 264.622 213.42 264.622 212.42C264.629 212.348 264.613 212.276 264.577 212.213C264.541 212.151 264.487 212.101 264.422 212.07C263.272 211.4 262.142 210.73 261.012 210.07C260.95 210.031 260.88 210.006 260.807 209.997C260.735 209.989 260.661 209.996 260.592 210.02L259.112 210.41C258.912 210.41 258.902 210.41 258.902 210.67V213.92C258.902 214.23 258.902 214.19 258.652 214.26L257.652 214.53C257.452 214.53 257.452 214.59 257.452 214.79V216.12C257.452 216.35 257.452 216.35 257.212 216.4L256.342 216.6C256.142 216.6 256.142 216.6 256.142 216.87V218.38C256.142 218.65 256.142 218.6 255.912 218.67L255.012 218.87C254.892 218.87 254.832 218.93 254.852 219.05V229.71C254.852 229.8 254.852 229.84 254.722 229.83C254.592 229.82 254.622 229.83 254.622 229.71V228.97C254.617 228.9 254.617 228.83 254.622 228.76C254.622 228.66 254.622 228.61 254.482 228.62H247.202C246.882 228.62 246.912 228.62 246.912 228.92V229.92C246.912 230.12 246.912 230.13 246.712 230.13H245.572C245.442 230.124 245.314 230.155 245.202 230.22L243.952 230.92C243.91 230.956 243.856 230.973 243.802 230.97C243.802 231.05 243.692 231.07 243.622 231.11C243.372 231.25 243.122 231.41 242.862 231.53C242.769 231.567 242.692 231.635 242.642 231.723C242.593 231.81 242.576 231.911 242.592 232.01C242.592 235.48 242.592 238.95 242.592 242.42C242.587 242.49 242.587 242.56 242.592 242.63C242.598 242.656 242.598 242.684 242.592 242.71V251.38H282.332V239.58H278.812Z" fill="#4A4C4C"/>
<path d="M1440 251H0V276H1440V251Z" fill="#040707"/>
<path d="M137.051 250.52C137.14 250.53 137.231 250.53 137.321 250.52H313.001V247.4H308.201C308.142 247.42 308.079 247.42 308.021 247.4C307.982 247.366 307.958 247.32 307.951 247.27C307.893 247.019 307.803 246.777 307.681 246.55C307.601 246.33 307.511 246.1 307.431 245.87C307.241 245.35 307.041 244.87 306.851 244.32C306.83 244.257 306.796 244.199 306.751 244.15C306.675 244.108 306.587 244.09 306.501 244.1H305.211C304.777 244.12 304.343 244.08 303.921 243.98C303.702 243.926 303.495 243.831 303.311 243.7C303.151 243.58 303.061 243.23 302.901 243.17C302.817 243.14 302.725 243.14 302.641 243.17C302.203 243.313 301.781 243.501 301.381 243.73C300.891 243.94 300.161 244.07 299.781 243.59C299.631 243.4 299.121 242.93 299.041 242.81C298.717 242.531 298.348 242.308 297.951 242.15C297.601 242.03 297.521 242.15 296.951 242.15C296.381 242.15 295.711 242.1 295.591 242.1C295.001 242.1 294.441 241.65 293.891 241.49C293.231 241.3 292.526 241.339 291.891 241.6L291.521 241.77C290.596 242.061 289.614 242.12 288.661 241.94C287.851 241.82 287.101 241.45 286.301 241.27C285.459 241.087 284.602 240.983 283.741 240.96C282.967 240.914 282.192 241.005 281.451 241.23C280.695 241.469 279.902 241.571 279.111 241.53C278.531 241.53 277.941 241.53 277.351 241.53C276.8 241.562 276.254 241.649 275.721 241.79C275.685 241.799 275.647 241.799 275.611 241.79C275.56 241.773 275.515 241.742 275.481 241.7C275.114 241.347 274.674 241.08 274.191 240.92C273.691 240.688 273.141 240.585 272.591 240.62L271.291 240.87C270.962 240.966 270.628 241.043 270.291 241.1C269.902 241.137 269.511 241.153 269.121 241.15C268.337 241.113 267.552 241.167 266.781 241.31C266.331 241.41 265.891 241.59 265.441 241.72C264.651 241.897 263.848 242.014 263.041 242.07C262.801 242.07 262.551 242.07 262.311 242.13C262.05 242.204 261.781 242.244 261.511 242.25C261.37 242.22 261.233 242.177 261.101 242.12C260.506 241.877 259.873 241.742 259.231 241.72C257.973 241.777 256.724 241.955 255.501 242.25C255.158 242.332 254.835 242.482 254.551 242.69C254.201 242.89 253.841 243.09 253.481 243.27C252.991 243.491 252.514 243.738 252.051 244.01C251.571 244.32 251.241 244.88 250.711 245.12C250.023 245.367 249.313 245.547 248.591 245.66L246.321 246.18C246.055 246.245 245.777 246.245 245.511 246.18C245.347 246.138 245.175 246.138 245.011 246.18C244.941 246.18 244.891 246.28 244.821 246.28C244.751 246.28 244.631 246.22 244.551 246.2C244.404 246.146 244.247 246.125 244.092 246.139C243.936 246.153 243.786 246.201 243.651 246.28C243.651 246.17 243.491 246.15 243.401 246.2C243.311 246.25 243.191 246.31 243.111 246.2C243.031 246.09 243.051 246.1 243.021 246.05C242.955 245.961 242.859 245.898 242.751 245.872C242.643 245.846 242.53 245.86 242.431 245.91C242.211 245.99 241.901 246.28 241.651 246.19C241.401 246.1 241.471 246.03 241.371 245.94C241.312 245.884 241.24 245.844 241.161 245.823C241.082 245.802 241 245.801 240.921 245.82C240.741 245.82 240.591 245.99 240.411 245.99C240.231 245.99 240.081 245.89 239.921 245.89C239.761 245.89 239.591 246 239.421 246.01C239.251 246.02 238.931 245.88 238.731 246.01C238.696 246.034 238.659 246.054 238.621 246.07C238.471 246.14 238.351 246.07 238.221 245.97C238.047 245.925 237.865 245.925 237.691 245.97C237.125 246.089 236.57 246.253 236.031 246.46C235.251 246.67 234.43 246.67 233.651 246.46C233.566 246.433 233.479 246.416 233.391 246.41C233.162 246.421 232.943 246.501 232.761 246.64V246.95C232.466 246.96 232.177 247.032 231.911 247.16C231.761 247.24 231.611 247.33 231.451 247.4C231.292 247.425 231.13 247.425 230.971 247.4C230.773 247.428 230.579 247.474 230.391 247.54L229.131 247.87H229.011C228.861 247.87 228.761 247.66 228.661 247.57C228.516 247.451 228.344 247.368 228.161 247.33C227.921 247.33 227.681 247.27 227.451 247.2C227.193 247.1 226.943 246.983 226.701 246.85C226.579 246.788 226.447 246.752 226.311 246.743C226.175 246.735 226.039 246.754 225.911 246.8C225.855 246.835 225.794 246.862 225.731 246.88C225.621 246.88 225.521 246.8 225.431 246.73C225.251 246.585 225.045 246.476 224.824 246.411C224.602 246.346 224.37 246.325 224.141 246.35C224.065 246.365 223.987 246.365 223.911 246.35C223.849 246.326 223.791 246.293 223.741 246.25L222.801 245.5C222.754 245.455 222.695 245.423 222.631 245.41C222.578 245.4 222.524 245.4 222.471 245.41C222.164 245.489 221.848 245.529 221.531 245.53C221.222 245.497 220.911 245.571 220.651 245.74L220.341 245.33C220.309 245.288 220.272 245.251 220.231 245.22C220.168 245.205 220.103 245.205 220.041 245.22H219.511C219.465 245.21 219.417 245.21 219.371 245.22C219.371 245.22 219.291 245.29 219.251 245.33C219.007 245.528 218.694 245.622 218.381 245.59H217.471C217.405 245.575 217.337 245.575 217.271 245.59C217.219 245.651 217.181 245.723 217.161 245.8C217.041 246.03 216.851 246.02 216.641 246.11C216.418 246.218 216.239 246.397 216.131 246.62C216.107 246.673 216.077 246.724 216.041 246.77C216.002 246.804 215.958 246.831 215.911 246.85L215.441 247.05C215.398 247.067 215.36 247.095 215.331 247.13V247.22C215.331 247.29 215.331 247.49 215.261 247.53C215.191 247.57 214.961 247.53 214.851 247.53C214.696 247.558 214.536 247.541 214.391 247.48C214.325 247.434 214.267 247.376 214.221 247.31L213.941 246.98C213.899 246.909 213.836 246.853 213.761 246.82C213.695 246.805 213.627 246.805 213.561 246.82C213.209 246.86 212.853 246.86 212.501 246.82C212.251 246.76 212.101 246.36 211.991 246.14C211.973 246.1 211.95 246.063 211.921 246.03C211.872 245.997 211.818 245.973 211.761 245.96L210.301 245.63C210.301 245.63 210.011 245.95 209.951 245.98C209.763 246.044 209.568 246.088 209.371 246.11L208.061 246.39C208.025 246.571 207.95 246.741 207.841 246.89C207.785 246.945 207.725 246.995 207.661 247.04C207.431 247.153 207.219 247.297 207.031 247.47C206.884 247.631 206.757 247.809 206.651 248C206.366 247.849 206.092 247.679 205.831 247.49C205.562 247.311 205.244 247.22 204.921 247.23C204.584 247.284 204.238 247.246 203.921 247.12C203.728 246.977 203.52 246.857 203.301 246.76C203.185 246.739 203.067 246.739 202.951 246.76H201.621C201.271 246.76 200.761 246.88 200.561 246.53C200.471 246.36 200.441 246.17 200.341 246C200.255 245.875 200.144 245.769 200.015 245.69C199.886 245.611 199.741 245.56 199.591 245.54C199.291 245.47 198.981 245.47 198.691 245.4C198.531 245.375 198.377 245.317 198.241 245.23C198.079 245.098 197.94 244.939 197.831 244.76L197.301 243.97C197.266 243.913 197.222 243.863 197.171 243.82C197.105 243.805 197.037 243.805 196.971 243.82C196.665 243.845 196.357 243.845 196.051 243.82C195.812 243.759 195.587 243.65 195.391 243.5C195.003 243.175 194.576 242.9 194.121 242.68C193.759 242.583 193.385 242.536 193.011 242.54C192.941 242.55 192.87 242.55 192.801 242.54C192.736 242.503 192.676 242.46 192.621 242.41L191.441 241.41C191.396 241.376 191.35 241.346 191.301 241.32C191.245 241.31 191.187 241.31 191.131 241.32L189.831 241.4C189.097 241.406 188.367 241.291 187.671 241.06C187.017 240.902 186.342 240.845 185.671 240.89C185.535 240.914 185.396 240.914 185.261 240.89C185.181 240.842 185.107 240.785 185.041 240.72L184.371 240.13C184.228 239.994 184.067 239.879 183.891 239.79C183.623 239.69 183.336 239.649 183.051 239.67H180.181C179.952 239.681 179.736 239.781 179.581 239.95C179.451 240.07 179.271 240.4 179.081 240.38C178.598 240.37 178.12 240.289 177.661 240.14C177.231 239.96 176.841 239.67 176.421 239.47C176.348 239.426 176.266 239.398 176.181 239.39C176.092 239.371 176 239.371 175.911 239.39L174.071 240C174.051 240.001 174.031 240.008 174.014 240.018C173.996 240.028 173.982 240.043 173.971 240.06C173.959 240.102 173.959 240.147 173.971 240.19C173.996 240.416 173.996 240.644 173.971 240.87C173.974 240.904 173.97 240.938 173.96 240.971C173.949 241.003 173.933 241.034 173.911 241.06C173.855 241.075 173.796 241.075 173.741 241.06C173.331 241.06 172.931 241.06 172.521 241.06L171.521 241.68C171.321 241.823 171.086 241.909 170.841 241.93C170.611 241.93 170.381 241.93 170.161 242.01C169.941 242.09 169.761 242.01 169.571 242.01C169.413 242.04 169.274 242.129 169.181 242.26C169.081 242.41 169.071 242.63 168.911 242.72C168.852 242.735 168.79 242.735 168.731 242.72L167.651 242.85C167.496 242.859 167.342 242.882 167.191 242.92C166.938 242.976 166.693 243.064 166.461 243.18C166.269 243.296 166.068 243.396 165.861 243.48C165.632 243.515 165.399 243.515 165.171 243.48L163.591 243.37C163.565 243.38 163.536 243.38 163.511 243.37C163.492 243.358 163.476 243.341 163.464 243.322C163.452 243.303 163.444 243.282 163.441 243.26C163.341 242.91 163.261 242.55 163.141 242.26C163.085 242.134 163.004 242.021 162.902 241.928C162.801 241.835 162.681 241.764 162.551 241.72C162.321 241.601 162.103 241.461 161.901 241.3C161.801 241.22 161.69 241.156 161.571 241.11H161.321L160.201 241.23C159.881 241.23 159.501 241.23 159.201 241.42C159.073 241.538 158.97 241.681 158.901 241.84L158.671 242.31C158.654 242.353 158.626 242.39 158.591 242.42C158.535 242.436 158.476 242.436 158.421 242.42H157.481C157.305 242.4 157.127 242.4 156.951 242.42C156.822 242.447 156.695 242.484 156.571 242.53C156.163 242.699 155.746 242.842 155.321 242.96C154.864 243.03 154.402 243.05 153.941 243.02C153.875 243.03 153.807 243.03 153.741 243.02C153.672 242.993 153.608 242.956 153.551 242.91L152.311 241.99C152.246 241.934 152.171 241.89 152.091 241.86C152.028 241.849 151.964 241.849 151.901 241.86H150.141C150.095 241.851 150.047 241.851 150.001 241.86C149.963 241.881 149.929 241.908 149.901 241.94C149.725 242.08 149.579 242.254 149.473 242.451C149.366 242.649 149.301 242.866 149.281 243.09C148.979 243.088 148.683 243.175 148.431 243.34C148.187 243.515 147.934 243.675 147.671 243.82C147.501 243.884 147.342 243.975 147.201 244.09C147.051 244.26 146.961 244.58 146.681 244.55C146.631 244.54 146.58 244.54 146.531 244.55C146.426 244.567 146.333 244.624 146.271 244.71C146.123 244.868 145.955 245.006 145.771 245.12C145.17 245.373 144.626 245.744 144.171 246.21C144.102 246.316 144.009 246.405 143.901 246.47C143.752 246.52 143.59 246.52 143.441 246.47C143.379 246.45 143.313 246.45 143.251 246.47C143.205 246.481 143.163 246.505 143.131 246.54C142.811 246.872 142.431 247.14 142.011 247.33C141.741 247.39 141.451 247.33 141.191 247.33C141.018 247.402 140.859 247.504 140.721 247.63C140.455 247.84 140.171 248.024 139.871 248.18C139.665 248.256 139.467 248.353 139.281 248.47C139.051 248.64 139.071 249.02 139.141 249.26H138.861C138.658 249.235 138.453 249.235 138.251 249.26C137.931 249.34 137.811 249.58 137.601 249.79C137.404 250.023 137.221 250.267 137.051 250.52Z" fill="#040707"/>
<path d="M402.748 216.91L402.568 214.82L401.068 216.3L399.098 215.89L399.938 217.78L398.898 219.63L400.908 219.32L402.248 220.86L402.648 218.78L404.518 217.89L402.748 216.91Z" fill="#040707"/>
<path d="M408.871 204.3L405.091 201.74L405.531 206.29L402.141 209.07L406.481 210.23L408.171 214.52L410.411 210.69L414.841 210.55L411.881 207.03L412.931 202.66L408.871 204.3Z" fill="#040707"/>
<path d="M1152.62 198.13V184.25H1150.43V179.49H1148.79V174.83H1143.49V179.49H1141.85V184.25H1139.67V204.98C1130.48 217.98 1106.6 211.45 1104.53 210.86V195.95H1091.26V220.23H1078.63V254.07H1104.53V221.79C1105.06 222.39 1105.63 222.955 1106.23 223.48V231.07L1112.93 227.2C1114.6 227.748 1116.32 228.143 1118.06 228.38L1121.54 234.96L1125.54 228.67C1127.17 228.59 1128.75 228.44 1130.23 228.24L1135.23 234.01L1137.71 226.77C1138.59 226.54 1139.25 226.34 1139.71 226.22V254.49H1151.98V256H1161.29V212.75L1152.62 198.13ZM1104.53 220.3V211.94C1104.95 212.06 1105.63 212.24 1106.53 212.46L1108.78 219.33L1113.78 213.74C1115.4 213.93 1117.13 214.06 1118.93 214.1L1123.15 220.41L1126.5 213.59C1128.37 213.285 1130.2 212.786 1131.97 212.1L1138.67 215.78L1138.5 207.92C1138.91 207.51 1139.29 207.08 1139.67 206.64V225.23C1137.72 225.78 1114.14 232.74 1104.53 220.25V220.3Z" fill="#4A4C4C"/>
<path d="M1083.56 203.13C1083.33 202.985 1083.06 202.909 1082.79 202.91C1081.44 202.91 1080.88 201.91 1081.55 200.77C1081.69 200.533 1081.76 200.257 1081.74 199.98L1078.55 198.15H1078.38C1078.23 198.252 1078.11 198.385 1078.02 198.54L1077.93 198.68C1077.85 198.94 1077.68 199.166 1077.46 199.327C1077.24 199.488 1076.97 199.574 1076.7 199.574C1076.42 199.574 1076.15 199.488 1075.93 199.327C1075.71 199.166 1075.55 198.94 1075.46 198.68L1075.38 198.54C1075.29 198.386 1075.17 198.253 1075.03 198.15H1074.87L1071.69 199.98C1071.68 200.242 1071.74 200.501 1071.87 200.73C1072.56 201.91 1072 202.87 1070.64 202.87C1070.37 202.871 1070.11 202.947 1069.89 203.09V206.77C1070.11 206.913 1070.37 206.989 1070.64 206.99C1072 206.99 1072.56 207.99 1071.87 209.13C1071.74 209.359 1071.68 209.618 1071.69 209.88L1074.87 211.72H1075.03C1075.18 211.618 1075.3 211.485 1075.39 211.33L1075.48 211.18C1075.57 210.92 1075.73 210.693 1075.95 210.533C1076.18 210.372 1076.44 210.286 1076.72 210.286C1076.99 210.286 1077.26 210.372 1077.48 210.533C1077.7 210.693 1077.87 210.92 1077.95 211.18L1078.03 211.33C1078.12 211.482 1078.25 211.615 1078.39 211.72H1078.55L1081.74 209.88C1081.75 209.617 1081.69 209.356 1081.55 209.13C1080.87 207.95 1081.42 206.99 1082.78 206.99C1083.05 206.991 1083.31 206.915 1083.53 206.77V203.13H1083.56ZM1076.71 207.44C1076.23 207.44 1075.76 207.297 1075.35 207.029C1074.95 206.761 1074.64 206.379 1074.46 205.934C1074.27 205.488 1074.22 204.997 1074.32 204.524C1074.41 204.051 1074.64 203.616 1074.99 203.275C1075.33 202.933 1075.76 202.701 1076.23 202.607C1076.71 202.513 1077.2 202.561 1077.64 202.746C1078.09 202.93 1078.47 203.243 1078.74 203.644C1079.01 204.046 1079.15 204.517 1079.15 205C1079.14 205.64 1078.88 206.25 1078.42 206.699C1077.97 207.148 1077.35 207.4 1076.71 207.4V207.44Z" fill="#040707"/>
<path d="M1069.66 189.41C1069.52 189.319 1069.35 189.27 1069.18 189.27C1068.33 189.27 1067.98 188.67 1068.4 187.93C1068.49 187.781 1068.53 187.611 1068.52 187.44L1066.52 186.29H1066.41C1066.32 186.355 1066.25 186.436 1066.19 186.53L1066.13 186.62C1066.08 186.782 1065.97 186.924 1065.84 187.024C1065.7 187.124 1065.53 187.178 1065.36 187.178C1065.19 187.178 1065.02 187.124 1064.88 187.024C1064.75 186.924 1064.64 186.782 1064.59 186.62L1064.53 186.53C1064.48 186.434 1064.4 186.352 1064.31 186.29H1064.22L1062.22 187.44C1062.21 187.605 1062.25 187.769 1062.34 187.91C1062.76 188.65 1062.42 189.25 1061.57 189.25C1061.4 189.252 1061.24 189.297 1061.09 189.38V191.73C1061.23 191.822 1061.4 191.871 1061.57 191.87C1062.42 191.87 1062.76 192.47 1062.34 193.21C1062.25 193.35 1062.21 193.514 1062.22 193.68L1064.22 194.83H1064.32C1064.41 194.767 1064.49 194.685 1064.54 194.59L1064.6 194.5C1065.02 193.76 1065.71 193.76 1066.14 194.5V194.59C1066.2 194.686 1066.28 194.768 1066.37 194.83H1066.47L1068.47 193.68C1068.48 193.515 1068.43 193.352 1068.35 193.21C1067.92 192.47 1068.27 191.87 1069.12 191.87C1069.29 191.871 1069.45 191.822 1069.59 191.73V189.41H1069.66ZM1065.37 192.11C1065.07 192.11 1064.77 192.02 1064.52 191.852C1064.27 191.684 1064.07 191.445 1063.96 191.165C1063.84 190.886 1063.81 190.578 1063.87 190.281C1063.93 189.985 1064.07 189.712 1064.29 189.498C1064.5 189.284 1064.77 189.138 1065.07 189.079C1065.37 189.02 1065.68 189.05 1065.96 189.166C1066.24 189.282 1066.47 189.478 1066.64 189.73C1066.81 189.981 1066.9 190.277 1066.9 190.58C1066.9 190.782 1066.86 190.983 1066.79 191.171C1066.71 191.359 1066.6 191.53 1066.46 191.675C1066.32 191.819 1066.15 191.933 1065.96 192.011C1065.77 192.09 1065.57 192.13 1065.37 192.13V192.11Z" fill="#040707"/>
<path d="M1177.5 229.32C1177.36 229.227 1177.19 229.179 1177.02 229.18C1176.17 229.18 1175.82 228.58 1176.25 227.84C1176.34 227.692 1176.37 227.521 1176.36 227.35L1174.36 226.2H1174.25C1174.16 226.268 1174.08 226.353 1174.02 226.45V226.54C1173.96 226.701 1173.86 226.841 1173.72 226.94C1173.58 227.039 1173.42 227.092 1173.24 227.092C1173.07 227.092 1172.91 227.039 1172.77 226.94C1172.63 226.841 1172.53 226.701 1172.47 226.54V226.45C1172.41 226.353 1172.34 226.269 1172.25 226.2H1172.15L1170.15 227.35C1170.14 227.514 1170.18 227.677 1170.26 227.82C1170.69 228.56 1170.34 229.16 1169.49 229.16C1169.32 229.16 1169.16 229.209 1169.02 229.3V231.64C1169.16 231.731 1169.32 231.78 1169.49 231.78C1170.34 231.78 1170.69 232.38 1170.26 233.12C1170.18 233.264 1170.14 233.426 1170.14 233.59L1172.14 234.75H1172.24C1172.33 234.682 1172.41 234.597 1172.47 234.5V234.41C1172.53 234.249 1172.63 234.109 1172.77 234.01C1172.91 233.911 1173.07 233.858 1173.24 233.858C1173.42 233.858 1173.58 233.911 1173.72 234.01C1173.86 234.109 1173.96 234.249 1174.02 234.41V234.5C1174.08 234.597 1174.16 234.682 1174.25 234.75H1174.35L1176.35 233.59C1176.35 233.426 1176.31 233.264 1176.23 233.12C1175.8 232.38 1176.15 231.78 1177 231.78C1177.17 231.78 1177.33 231.731 1177.47 231.64V229.3L1177.5 229.32ZM1173.21 232.02C1172.91 232.02 1172.61 231.93 1172.36 231.762C1172.11 231.594 1171.91 231.355 1171.8 231.075C1171.68 230.796 1171.65 230.488 1171.71 230.191C1171.77 229.895 1171.91 229.622 1172.13 229.408C1172.34 229.194 1172.61 229.048 1172.91 228.989C1173.21 228.93 1173.52 228.961 1173.8 229.076C1174.07 229.192 1174.31 229.388 1174.48 229.64C1174.65 229.892 1174.74 230.187 1174.74 230.49C1174.74 230.895 1174.57 231.283 1174.29 231.569C1174 231.855 1173.61 232.017 1173.21 232.02Z" fill="#040707"/>
<path d="M1290.13 262.83H768.648V245.49C768.788 245.4 768.938 245.31 769.088 245.2C769.498 244.92 769.868 244.07 770.288 243.6L772.668 242.85L774.998 242.13L780.248 240.48C781.645 239.934 783.083 239.499 784.548 239.18C784.718 239.178 784.885 239.141 785.039 239.072C785.194 239.003 785.333 238.904 785.448 238.78C785.528 238.65 785.538 238.5 785.688 238.41C785.785 238.363 785.892 238.343 785.998 238.35L787.288 238.25L787.608 238.89C788.17 238.865 788.733 238.922 789.278 239.06C789.685 239.185 790.099 239.285 790.518 239.36C791.118 239.43 791.738 239.36 792.328 239.36C792.783 239.456 793.231 239.583 793.668 239.74C794.853 239.92 796.05 240.004 797.248 239.99C798.248 240.1 799.248 240.42 800.248 240.55C800.748 240.59 801.249 240.59 801.748 240.55C802.272 240.6 802.8 240.525 803.288 240.33C803.379 240.291 803.46 240.233 803.524 240.158C803.588 240.084 803.634 239.995 803.658 239.9C803.654 239.891 803.652 239.88 803.652 239.87C803.652 239.86 803.654 239.849 803.658 239.84H803.738C803.978 239.84 804.228 239.84 804.478 239.84C804.528 239.846 804.579 239.846 804.628 239.84C804.655 239.82 804.676 239.795 804.69 239.765C804.704 239.735 804.71 239.703 804.708 239.67C804.738 239.494 804.738 239.315 804.708 239.14C804.816 239.11 804.93 239.11 805.038 239.14C805.151 239.159 805.266 239.159 805.378 239.14C805.598 239.07 805.488 238.74 805.488 238.6C805.865 238.58 806.242 238.58 806.618 238.6C806.538 238.3 806.618 238.06 807.008 238.04C807.398 238.02 807.868 238.04 808.288 238.04C808.253 238.14 808.253 238.25 808.288 238.35C808.418 238.71 808.958 238.35 809.168 238.6C809.248 238.69 809.168 239.14 809.168 239.27C809.155 239.353 809.172 239.439 809.218 239.51C809.334 239.611 809.485 239.665 809.638 239.66C810.048 239.66 810.158 239.66 810.248 239.38C810.248 239.38 810.308 238.96 810.248 238.95C810.968 239.03 811.248 239.04 811.248 238.47C811.225 238.395 811.225 238.315 811.248 238.24C811.408 238.02 812.568 238.16 812.858 238.16C813.148 238.16 812.988 238.75 813.018 238.97C813.018 239.01 813.026 239.05 813.044 239.087C813.061 239.123 813.087 239.155 813.118 239.18C813.358 239.35 813.648 239.18 813.828 239.35C814.008 239.52 813.928 239.9 814.008 240.09C814.23 240.56 814.52 240.995 814.868 241.38C815.268 241.83 816.208 241.65 816.868 241.65C817.108 241.65 818.038 240.59 818.208 240.44C818.263 240.394 818.31 240.34 818.348 240.28C818.398 240.188 818.419 240.084 818.408 239.98C818.484 239.399 818.664 238.837 818.938 238.32C819.148 237.87 820.558 237.96 821.048 237.95C821.088 237.961 821.129 237.961 821.168 237.95C821.184 237.942 821.197 237.93 821.207 237.916C821.218 237.903 821.225 237.887 821.228 237.87C821.298 237.7 821.388 237.15 821.588 237.06C821.658 237.045 821.729 237.045 821.798 237.06C822.688 237.06 823.568 237.06 824.448 237.06C824.398 237.907 824.479 238.757 824.688 239.58C824.688 239.85 825.008 240.22 825.138 240.47C825.143 240.489 825.153 240.507 825.167 240.521C825.181 240.535 825.199 240.545 825.218 240.55C825.234 240.557 825.251 240.561 825.268 240.561C825.286 240.561 825.303 240.557 825.318 240.55C827.108 239.9 828.828 238.98 830.558 238.22L834.408 236.51C835.416 235.918 836.551 235.575 837.718 235.51C838.868 235.51 840.008 235.59 841.148 235.71C842.135 235.918 843.15 235.952 844.148 235.81C844.848 235.66 845.498 235.43 846.148 235.24C849.004 234.641 851.935 234.485 854.838 234.78C854.998 235.12 854.988 235.57 855.488 235.78C855.813 235.873 856.152 235.907 856.488 235.88H857.328C858.733 235.765 860.144 235.765 861.548 235.88C862.998 236.09 864.438 236.31 865.878 236.55C867.318 236.79 868.878 237.13 870.468 237.35C870.512 237.355 870.555 237.355 870.598 237.35C870.698 237.35 870.708 237.22 870.698 237.14C870.679 236.924 870.679 236.706 870.698 236.49C870.697 236.441 870.708 236.392 870.731 236.348C870.754 236.304 870.787 236.267 870.828 236.24C870.916 236.213 871.01 236.213 871.098 236.24C872.508 236.24 873.918 236.19 875.328 236.19C875.528 236.175 875.729 236.175 875.928 236.19C876.149 236.244 876.364 236.321 876.568 236.42L881.258 238.52L883.568 239.52C884.253 239.919 884.972 240.254 885.718 240.52C885.882 240.607 886.063 240.658 886.248 240.67C886.422 240.67 886.595 240.64 886.758 240.58C888.358 240.08 889.948 239.58 891.508 239.05C893.003 238.544 894.571 238.288 896.148 238.29H906.398C907.504 238.22 908.613 238.22 909.718 238.29C909.608 238.06 909.818 237.81 910.038 237.63C910.798 236.885 911.775 236.401 912.828 236.25C913.953 236.285 915.061 236.526 916.098 236.96L918.428 237.78C918.972 237.985 919.53 238.149 920.098 238.27C921.273 238.437 922.47 238.303 923.578 237.88C924.098 237.72 924.578 237.54 925.108 237.36C925.654 237.1 926.228 236.905 926.818 236.78C926.937 236.733 927.062 236.706 927.188 236.7C927.281 236.708 927.371 236.728 927.458 236.76C928.278 237.02 929.138 237.24 929.928 237.53C930.437 237.76 930.962 237.954 931.498 238.11C932.096 238.219 932.701 238.272 933.308 238.27C934.493 238.277 935.674 238.125 936.818 237.82C937.832 237.489 938.863 237.219 939.908 237.01C940.572 236.935 941.241 236.908 941.908 236.93H950.258C951.478 236.935 952.695 237.035 953.898 237.23C955.988 237.54 958.078 237.87 960.178 238.17C962.118 238.45 964.058 238.84 966.018 239C968.558 239.2 971.158 239 973.698 239L978.248 238.93H980.348C981.408 238.93 982.498 238.77 983.348 239.39C983.75 239.815 984.233 240.155 984.768 240.39C985.609 240.52 986.461 240.551 987.308 240.48C987.744 240.5 988.18 240.47 988.608 240.39C989.868 240.11 990.548 239.04 991.728 238.61C992.371 238.382 993.066 238.347 993.728 238.51C994.348 238.67 994.608 239.14 995.168 239.37C995.743 239.553 996.35 239.611 996.948 239.54C997.458 239.54 999.268 239.8 999.508 239.42C999.528 239.351 999.528 239.278 999.508 239.21C999.508 238.94 999.508 238.68 999.508 238.42C999.508 238.42 999.508 238.35 999.508 238.33C999.547 238.315 999.59 238.315 999.628 238.33C1000.17 238.225 1000.72 238.225 1001.26 238.33C1001.62 238.475 1001.93 238.722 1002.15 239.04C1003.42 240.34 1005.58 240.56 1007.41 241.15C1009.24 241.74 1011 242.72 1013.02 242.87L1022.39 243.56L1035.68 244.56C1036.36 244.656 1037.05 244.566 1037.68 244.3C1038.65 243.702 1039.76 243.374 1040.9 243.35C1041.87 243.424 1042.83 243.636 1043.75 243.98C1044.65 244.32 1045.57 244.604 1046.51 244.83C1047.91 245.121 1049.37 245.09 1050.76 244.74C1050.99 244.68 1051.22 244.61 1051.46 244.56C1051.85 244.506 1052.24 244.483 1052.63 244.49C1052.83 244.479 1053.03 244.499 1053.22 244.55C1053.34 244.601 1053.46 244.665 1053.57 244.74C1054.39 245.296 1055.16 245.925 1055.87 246.62C1055.95 246.71 1056.05 246.787 1056.16 246.85C1057.28 246.977 1058.42 247.031 1059.55 247.01V245.96H1062.19V245.13L1064.19 244.64L1065.07 244.94L1065.95 245.22V245.67H1068.28C1068.49 245.67 1068.28 246.13 1068.28 246.13H1069.85V246.88H1074.61V246.32C1074.61 246.25 1074.61 246.09 1074.61 246.05C1074.72 246.035 1074.84 246.035 1074.95 246.05C1075.07 246.05 1077.77 247.21 1077.77 247.21H1079.93C1080.07 247.21 1079.93 246.85 1079.93 246.85H1083.14C1086.3 245.96 1089.48 244.71 1092.85 244.39C1096.7 244.084 1100.57 244.467 1104.28 245.52C1107.99 246.411 1111.62 247.626 1115.13 249.15C1116.04 249.645 1116.99 250.038 1117.99 250.32C1121.29 251.08 1124.4 249.32 1127.45 248.66C1131.12 248.047 1134.84 247.749 1138.57 247.77C1144.41 247.442 1150.26 247.586 1156.08 248.2C1157.75 248.42 1159.74 249.09 1161.41 249.07C1163.08 249.05 1164.62 248.24 1166.05 247.83C1167.46 247.474 1168.91 247.332 1170.36 247.41H1177L1177.16 245.48H1174.71L1193.05 234.63L1208.61 246.38H1207.01V250.13H1209.28C1209.78 249.719 1210.35 249.407 1210.96 249.21C1211.17 249.19 1211.38 249.19 1211.59 249.21C1212.03 249.21 1212.47 249.27 1212.9 249.33C1213.28 249.35 1213.65 249.463 1213.98 249.66C1214.2 249.88 1213.98 250.12 1213.98 250.38C1213.98 250.534 1214.02 250.685 1214.1 250.818C1214.18 250.951 1214.29 251.062 1214.42 251.14C1214.72 251.402 1215.05 251.615 1215.42 251.77C1215.49 251.825 1215.58 251.862 1215.67 251.88C1215.79 251.883 1215.9 251.859 1216.01 251.81C1216.87 251.472 1217.76 251.231 1218.67 251.09C1219.44 251.03 1220.22 251.03 1220.99 251.09C1221.2 251.085 1221.41 251.105 1221.62 251.15C1222.11 251.333 1222.58 251.544 1223.05 251.78C1223.59 251.911 1224.17 251.887 1224.7 251.71C1226.51 251.171 1228.43 251.102 1230.28 251.51C1231.04 251.806 1231.85 251.982 1232.67 252.03C1233.46 252.03 1234.24 251.82 1234.92 251.42C1235.16 251.226 1235.44 251.08 1235.74 250.99C1235.89 250.975 1236.04 250.975 1236.19 250.99C1237.16 250.923 1238.14 250.994 1239.09 251.2C1239.93 251.49 1240.81 251.612 1241.7 251.56C1242.07 251.49 1242.44 251.4 1242.81 251.29C1243.76 251.09 1244.74 251.019 1245.72 251.08C1246.42 251.03 1247.13 251.03 1247.84 251.08L1249.93 251.48L1251.68 252.27C1251.97 252.441 1252.28 252.579 1252.6 252.68C1252.83 252.68 1252.94 252.35 1253.05 252.18C1253.07 252.132 1253.11 252.093 1253.16 252.07C1253.21 252.06 1253.26 252.06 1253.31 252.07C1253.88 251.979 1254.47 251.979 1255.04 252.07C1255.11 252.123 1255.17 252.196 1255.2 252.28L1255.86 253.54C1255.88 253.583 1255.9 253.62 1255.94 253.65C1255.99 253.677 1256.05 253.694 1256.11 253.7C1256.37 253.7 1256.92 253.96 1257.17 253.81C1257.22 253.78 1257.27 253.735 1257.3 253.68C1257.6 253.292 1257.84 252.861 1258.01 252.4C1258.13 251.96 1258.01 251.52 1258.47 251.17C1258.84 250.89 1259.24 250.645 1259.66 250.44C1260.19 250.132 1260.68 249.759 1261.12 249.33C1261.35 249.061 1261.64 248.857 1261.98 248.74C1262.22 248.704 1262.46 248.704 1262.7 248.74C1264.08 248.8 1265.53 248.85 1266.93 249.05C1267.77 249.151 1268.6 249.331 1269.41 249.59C1269.81 249.709 1270.19 249.899 1270.53 250.15C1270.88 250.49 1271.15 250.908 1271.32 251.37C1271.66 251.965 1271.9 252.619 1272 253.3L1272.92 253.11C1274.34 252.36 1274.69 253.61 1275.07 253.93C1275.27 254.11 1276.16 254.93 1276.55 254.72C1280.55 252.8 1282.42 252.18 1282.67 251.99L1284.67 253.3H1288L1290.13 262.83Z" fill="#040707"/>
<path fill-rule="evenodd" clip-rule="evenodd" d="M344 161.87C337.773 161.873 331.721 163.93 326.782 167.722C321.842 171.514 318.291 176.829 316.679 182.844C315.068 188.859 315.484 195.238 317.866 200.992C320.247 206.745 324.459 211.553 329.85 214.67V232.6L334.58 237.32H339.29C339.29 238.569 339.786 239.767 340.67 240.65C341.553 241.534 342.751 242.03 344 242.03C345.249 242.03 346.447 241.534 347.331 240.65C348.214 239.767 348.71 238.569 348.71 237.32H353.44L358.15 232.6V214.67C363.549 211.558 367.769 206.751 370.156 200.995C372.542 195.239 372.961 188.856 371.348 182.837C369.735 176.818 366.18 171.5 361.235 167.709C356.29 163.918 350.231 161.865 344 161.87ZM348.71 227.87H339.29V218.05C342.412 218.57 345.598 218.57 348.72 218.05L348.71 227.87Z" fill="black"/>
<path d="M318.209 211L308.203 221.006L313.202 226.005L323.208 215.999L318.209 211Z" fill="black"/>
<path d="M369.882 211.001L364.883 216L374.888 226.006L379.888 221.007L369.882 211.001Z" fill="black"/>
<path d="M391.201 186.62H377.051V193.69H391.201V186.62Z" fill="#FFAE00"/>
<path d="M311.029 186.62H296.879V193.69H311.029V186.62Z" fill="#FFAE00"/>
<path d="M374.892 154.315L364.887 164.321L369.886 169.32L379.892 159.315L374.892 154.315Z" fill="black"/>
<path d="M313.191 154.311L308.191 159.31L318.197 169.316L323.196 164.317L313.191 154.311Z" fill="black"/>
<path d="M347.578 143H340.508V157.15H347.578V143Z" fill="#FFAE00"/>
<path d="M286.721 238.83L285.541 240.96L285.081 241.77C284.964 241.933 284.886 242.12 284.854 242.318C284.821 242.515 284.833 242.718 284.891 242.91H282.631C282.631 243.04 282.631 243.15 282.631 243.25V245.25C282.631 245.79 282.401 246.01 281.871 246.01C281.341 246.01 280.591 246.01 279.961 246.01C279.864 246.025 279.765 246.017 279.671 245.987C279.578 245.957 279.493 245.905 279.423 245.836C279.353 245.767 279.3 245.682 279.268 245.589C279.237 245.496 279.227 245.397 279.241 245.3V242.88H271.861C271.741 242.899 271.618 242.884 271.507 242.836C271.395 242.789 271.3 242.71 271.231 242.61C271.177 242.508 271.153 242.393 271.162 242.278C271.171 242.163 271.212 242.052 271.281 241.96L274.001 237.13C274.191 236.79 274.161 236.75 273.781 236.75H273.001C272.887 236.765 272.771 236.744 272.669 236.69C272.567 236.636 272.484 236.553 272.431 236.45C272.383 236.346 272.367 236.23 272.383 236.117C272.398 236.003 272.447 235.897 272.521 235.81L276.061 230.95L276.181 230.78C276.281 230.63 276.241 230.53 276.051 230.53H275.431C275.315 230.55 275.195 230.533 275.089 230.481C274.983 230.43 274.896 230.346 274.84 230.241C274.785 230.137 274.764 230.018 274.78 229.901C274.796 229.784 274.849 229.675 274.931 229.59L278.211 224.77C278.25 224.724 278.284 224.674 278.311 224.62C278.311 224.55 278.361 224.46 278.391 224.38C278.309 224.352 278.226 224.329 278.141 224.31C277.985 224.325 277.827 224.325 277.671 224.31C277.511 224.31 277.301 224.21 277.251 224.1C277.229 224.019 277.225 223.934 277.239 223.851C277.253 223.769 277.284 223.69 277.331 223.62C277.891 222.81 278.491 222.02 279.071 221.23L280.401 219.43C280.721 219 281.071 219 281.401 219.43C282.401 220.8 283.401 222.17 284.401 223.55C284.511 223.707 284.557 223.9 284.531 224.09C284.481 224.33 284.221 224.31 284.011 224.32C283.801 224.33 283.591 224.38 283.381 224.41C283.481 224.58 283.561 224.77 283.681 224.94C284.728 226.487 285.781 228.033 286.841 229.58C287.051 229.9 287.071 230.17 286.841 230.37C286.713 230.459 286.566 230.518 286.411 230.54C286.201 230.54 285.991 230.54 285.781 230.54C285.698 230.549 285.616 230.573 285.541 230.61C285.561 230.693 285.591 230.774 285.631 230.85C286.381 231.85 287.131 232.93 287.901 233.96C287.965 234.025 288.001 234.113 288.001 234.205C288.001 234.297 287.965 234.385 287.901 234.45C287.301 235.25 286.711 236.07 286.121 236.88C285.981 237.032 285.883 237.217 285.837 237.419C285.792 237.62 285.799 237.83 285.86 238.028C285.921 238.225 286.032 238.403 286.183 238.544C286.334 238.685 286.52 238.783 286.721 238.83Z" fill="#040707"/>
<path d="M291.818 242.92H286.298C286.218 242.925 286.138 242.925 286.058 242.92C285.608 242.92 285.438 242.61 285.658 242.21L287.738 238.49C287.798 238.39 287.838 238.28 287.928 238.11H287.108C287.003 238.127 286.896 238.112 286.8 238.068C286.704 238.023 286.623 237.951 286.568 237.86C286.532 237.766 286.524 237.665 286.545 237.567C286.567 237.469 286.616 237.38 286.688 237.31C287.588 236.09 288.478 234.86 289.368 233.64C289.428 233.56 289.478 233.46 289.588 233.28C289.372 233.295 289.155 233.295 288.938 233.28C288.76 233.257 288.592 233.18 288.458 233.06C288.298 232.89 288.458 232.69 288.538 232.51C289.378 231.29 290.212 230.063 291.038 228.83C291.114 228.715 291.181 228.595 291.238 228.47H290.618C290.288 228.47 290.148 228.2 290.348 227.94C291.158 226.83 291.968 225.72 292.798 224.62C292.831 224.559 292.879 224.509 292.938 224.473C292.997 224.438 293.064 224.419 293.133 224.419C293.202 224.419 293.269 224.438 293.328 224.473C293.387 224.509 293.436 224.559 293.468 224.62C294.288 225.71 295.098 226.81 295.898 227.91C296.108 228.2 295.968 228.44 295.618 228.46H295.348H295.028C295.098 228.59 295.138 228.7 295.198 228.79L297.618 232.34C297.681 232.419 297.737 232.503 297.788 232.59C297.833 232.654 297.859 232.729 297.863 232.807C297.867 232.885 297.85 232.963 297.812 233.031C297.775 233.1 297.719 233.157 297.651 233.195C297.584 233.234 297.506 233.253 297.428 233.25H296.678C296.778 233.42 296.828 233.52 296.888 233.61L299.508 237.21C299.648 237.4 299.808 237.58 299.678 237.83C299.548 238.08 299.318 238.08 299.088 238.08H298.338C298.408 238.23 298.448 238.34 298.498 238.44C299.188 239.66 299.878 240.88 300.558 242.11C300.838 242.61 300.668 242.89 300.098 242.89C298.338 242.89 296.588 242.89 294.838 242.89H294.448C294.448 243.03 294.448 243.13 294.448 243.24V245.39C294.448 245.84 294.258 246.02 293.808 246.02H292.518C291.998 246.02 291.828 245.85 291.828 245.34V242.88L291.818 242.92Z" fill="#040707"/>
</svg>
