<svg width="48" height="48" viewBox="0 0 48 48" fill="none" xmlns="http://www.w3.org/2000/svg">
<path d="M23.482 37.8438C21.4274 37.8438 19.3775 37.8438 17.3323 37.8438C16.9056 37.8438 16.8202 37.7774 16.8321 37.3692C16.9087 34.75 16.2367 32.1633 14.8952 29.9132C14.2091 28.7409 13.6123 27.5185 13.1101 26.2563C10.6398 19.8492 14.6819 12.7301 21.4337 11.5104C23.486 11.1312 25.6036 11.3401 27.5425 12.113C29.4813 12.886 31.1626 14.1915 32.3925 15.8792C33.6224 17.5669 34.351 19.5681 34.4942 21.6522C34.6374 23.7362 34.1895 25.8184 33.202 27.6588C32.7278 28.5653 32.2964 29.4931 31.7985 30.383C30.6498 32.4345 30.0795 34.7598 30.1485 37.1105C30.1485 37.2031 30.1485 37.298 30.1485 37.3905C30.1651 37.7109 30.0323 37.8652 29.6957 37.8485C28.8588 37.8367 28.0196 37.8485 27.1803 37.8485L23.482 37.8438ZM28.2045 28.9355C28.3279 28.8676 28.4446 28.7881 28.553 28.6982C28.9607 28.2995 29.3566 27.8866 29.7668 27.4903C29.8237 27.4514 29.8709 27.3999 29.9047 27.3398C29.9385 27.2797 29.958 27.2126 29.9616 27.1437C29.9653 27.0749 29.9531 27.0061 29.9258 26.9427C29.8986 26.8793 29.8572 26.8231 29.8047 26.7784C29.5297 26.4485 29.2666 26.1068 28.9963 25.7699C28.9214 25.6963 28.8715 25.6011 28.8536 25.4976C28.8357 25.3941 28.8508 25.2876 28.8967 25.1932C29.0461 24.88 29.1338 24.5383 29.314 24.244C29.4189 24.0767 29.5832 23.9555 29.7739 23.9047C30.1971 23.8277 30.6246 23.7769 31.0541 23.7528C31.1213 23.7548 31.1882 23.7424 31.2503 23.7166C31.3124 23.6907 31.3683 23.6519 31.4143 23.6027C31.4602 23.5536 31.4952 23.4952 31.5169 23.4315C31.5386 23.3677 31.5465 23.3001 31.5401 23.2331C31.5401 22.6612 31.5401 22.0917 31.5401 21.5198C31.5401 21.2255 31.4216 21.0333 31.0968 21.0048C30.67 20.9645 30.2433 20.9028 29.8142 20.8624C29.6863 20.8603 29.5628 20.8159 29.4628 20.736C29.3629 20.6562 29.2922 20.5454 29.2618 20.4211C29.1814 20.1546 29.0758 19.8963 28.9465 19.6498C28.8725 19.5377 28.8407 19.4029 28.8568 19.2695C28.8729 19.136 28.9358 19.0127 29.0342 18.9213C29.2903 18.6199 29.5321 18.3067 29.7763 17.9958C30.0205 17.685 30.0299 17.5212 29.7478 17.2412C29.3566 16.8425 28.9536 16.4534 28.5625 16.0547C28.5232 15.9984 28.4717 15.9517 28.4118 15.9182C28.3519 15.8847 28.2852 15.8653 28.2166 15.8614C28.1481 15.8575 28.0797 15.8693 28.0164 15.8958C27.9531 15.9223 27.8966 15.9628 27.8512 16.0144C27.5267 16.3082 27.1855 16.5832 26.8295 16.8378C26.6556 16.9304 26.453 16.9533 26.2629 16.9019C25.9553 16.8012 25.6538 16.6831 25.3596 16.5483C25.2547 16.5193 25.1617 16.4577 25.094 16.3724C25.0262 16.2871 24.9873 16.1825 24.9827 16.0737C24.9518 15.656 24.8949 15.2408 24.8452 14.8255C24.7954 14.4102 24.6816 14.3177 24.2857 14.3153H22.638C22.2279 14.3153 22.1093 14.4316 22.0643 14.8492C22.0352 15.2668 21.9846 15.6827 21.9126 16.095C21.8536 16.2835 21.7269 16.4433 21.557 16.5435C21.2914 16.7025 20.9785 16.7809 20.6988 16.9137C20.5932 16.9755 20.4701 17.0007 20.3488 16.9852C20.2275 16.9698 20.1146 16.9146 20.0278 16.8283C19.7078 16.5602 19.3711 16.3086 19.0511 16.0381C19.0066 15.9859 18.9509 15.9445 18.8881 15.917C18.8253 15.8896 18.7571 15.8767 18.6886 15.8795C18.6201 15.8822 18.5531 15.9005 18.4927 15.9329C18.4323 15.9653 18.3801 16.011 18.3399 16.0666C17.9416 16.4747 17.5362 16.8781 17.1284 17.2792C17.0725 17.3188 17.0263 17.3704 16.9931 17.4304C16.9599 17.4903 16.9407 17.557 16.9368 17.6254C16.9329 17.6938 16.9445 17.7622 16.9707 17.8256C16.9969 17.8889 17.0371 17.9455 17.0881 17.9911C17.3631 18.3233 17.6239 18.6674 17.8989 18.9973C17.9806 19.0812 18.0321 19.1899 18.0454 19.3062C18.0587 19.4226 18.033 19.5401 17.9724 19.6403C17.8397 19.8844 17.7317 20.1412 17.65 20.4068C17.6182 20.5464 17.5397 20.6708 17.4277 20.7597C17.3156 20.8486 17.1766 20.8966 17.0336 20.8957C16.6164 20.9313 16.2015 20.9906 15.7842 21.0309C15.7247 21.0315 15.666 21.0446 15.612 21.0695C15.5579 21.0943 15.5097 21.1303 15.4705 21.1752C15.4314 21.22 15.4021 21.2726 15.3847 21.3295C15.3672 21.3865 15.362 21.4464 15.3694 21.5055C15.3694 22.0988 15.3694 22.692 15.3694 23.2877C15.3639 23.3523 15.3723 23.4173 15.3939 23.4783C15.4155 23.5394 15.4499 23.5952 15.4948 23.6419C15.5397 23.6886 15.594 23.7252 15.6541 23.7493C15.7143 23.7733 15.7788 23.7842 15.8435 23.7813C16.2702 23.8216 16.697 23.8809 17.1261 23.9189C17.2365 23.9197 17.3437 23.9561 17.4317 24.0228C17.5197 24.0895 17.5838 24.1829 17.6144 24.2891C17.7259 24.5952 17.8515 24.8942 17.9914 25.1885C18.0455 25.2847 18.0675 25.3958 18.0543 25.5054C18.0411 25.6151 17.9933 25.7177 17.9179 25.7983C17.65 26.1211 17.3916 26.4509 17.1308 26.7808C16.87 27.1106 16.8771 27.2411 17.1593 27.5283C17.5528 27.9269 17.9535 28.3161 18.3446 28.7148C18.3842 28.7705 18.4358 28.8167 18.4956 28.8498C18.5554 28.883 18.6218 28.9023 18.69 28.9064C18.7582 28.9105 18.8265 28.8993 18.8898 28.8735C18.9531 28.8477 19.0098 28.8081 19.0558 28.7575C19.3996 28.4775 19.7505 28.207 20.0919 27.9269C20.1695 27.8563 20.2673 27.8119 20.3716 27.7999C20.4758 27.788 20.5811 27.8092 20.6727 27.8605C20.9648 28.0022 21.2639 28.1289 21.5688 28.2402C21.6748 28.2669 21.769 28.3279 21.8367 28.4137C21.9045 28.4995 21.942 28.6054 21.9434 28.7148C21.9766 29.1206 22.0311 29.5264 22.0761 29.9298C22.1212 30.3332 22.2492 30.4803 22.6736 30.4827C23.1975 30.4827 23.7214 30.4827 24.2454 30.4827C24.6887 30.4827 24.8096 30.3617 24.857 29.906C24.8973 29.5003 24.9542 29.0968 24.9898 28.691C24.9916 28.586 25.0281 28.4844 25.0938 28.4024C25.1594 28.3204 25.2504 28.2625 25.3525 28.2378C25.6485 28.1376 25.9376 28.0179 26.2178 27.8795C26.3217 27.8149 26.4443 27.7875 26.5657 27.8018C26.6872 27.816 26.8002 27.871 26.8864 27.9578C27.1969 28.2188 27.517 28.4727 27.8346 28.7219C27.9542 28.7993 28.0777 28.8706 28.2045 28.9355Z" fill="#F7AC1B"/>
<path d="M29.8947 43.2026C29.8729 43.3742 29.8067 43.5371 29.7028 43.6753C29.5988 43.8135 29.4607 43.9221 29.302 43.9905C28.661 44.3345 27.9876 44.6143 27.2916 44.8258C24.4574 45.5929 21.4583 45.4896 18.6835 44.5292C18.2807 44.3814 17.8996 44.1803 17.5503 43.9312C17.3332 43.7414 17.1405 43.5254 16.9766 43.2881L17.0524 43.2026H29.8947Z" fill="#F7AC1B"/>
<path d="M23.4801 38.6582H29.3145C29.9404 38.6582 30.3268 39.1684 30.1087 39.6976C30.0465 39.8503 29.938 39.9796 29.7985 40.0673C29.659 40.155 29.4955 40.1966 29.3311 40.1864C28.8309 40.1864 28.3306 40.1864 27.8304 40.1864C24.4766 40.1864 21.1228 40.1864 17.769 40.1864C17.1764 40.1864 16.835 39.9159 16.8208 39.4437C16.8065 38.9714 17.1384 38.6582 17.679 38.6582H23.4801Z" fill="#F7AC1B"/>
<path d="M23.4626 42.4624C21.5076 42.4624 19.5517 42.4624 17.5951 42.4624C17.4361 42.4782 17.2765 42.4399 17.1419 42.3538C17.0073 42.2677 16.9055 42.1388 16.8531 41.9878C16.7854 41.8557 16.7648 41.7045 16.7945 41.5591C16.8242 41.4138 16.9026 41.2829 17.0166 41.188C17.2081 41.0438 17.4387 40.9611 17.6781 40.9507C19.6813 40.9341 21.6822 40.9507 23.6855 40.9507H29.3444C29.508 40.9375 29.6712 40.98 29.8077 41.0713C29.9441 41.1626 30.0457 41.2974 30.0959 41.4538C30.1588 41.5942 30.1707 41.7521 30.1296 41.9003C30.0884 42.0485 29.9969 42.1776 29.8707 42.2654C29.6888 42.3822 29.4775 42.4448 29.2614 42.4457C27.3293 42.4671 25.3948 42.4624 23.4626 42.4624Z" fill="#F7AC1B"/>
<path d="M22.8685 6.24253C22.8685 5.4357 22.8567 4.63125 22.8685 3.82442C22.8603 3.56296 22.9438 3.30687 23.1044 3.10055C23.2651 2.89423 23.4928 2.75071 23.7481 2.69486C23.9831 2.64042 24.2295 2.66621 24.4482 2.76812C24.6668 2.87003 24.8452 3.04221 24.9548 3.25727C25.048 3.46303 25.0965 3.68628 25.097 3.91222C25.1081 5.47367 25.1081 7.03512 25.097 8.59656C25.097 9.3322 24.6513 9.81155 23.997 9.81867C23.3427 9.82579 22.8733 9.34406 22.8662 8.5847C22.8591 7.82533 22.8685 7.02325 22.8685 6.24253Z" fill="#F7AC1B"/>
<path d="M14.3502 13.1843C14.3336 13.408 14.2561 13.623 14.1261 13.8058C13.9961 13.9886 13.8186 14.1323 13.6129 14.2213C13.4117 14.3161 13.1855 14.3442 12.9672 14.3016C12.7489 14.2589 12.5499 14.1476 12.3991 13.984C11.5741 13.17 10.7609 12.3537 9.94302 11.5279C9.60401 11.1886 9.26025 10.8564 8.93072 10.5099C8.82082 10.4096 8.73228 10.2881 8.67042 10.1527C8.60855 10.0173 8.57464 9.87083 8.5707 9.72201C8.56676 9.57319 8.59289 9.4251 8.64751 9.28663C8.70213 9.14816 8.78412 9.02215 8.88857 8.91617C8.99302 8.81018 9.11777 8.72639 9.25535 8.66983C9.39292 8.61327 9.5405 8.5851 9.68921 8.587C9.83793 8.58891 9.98473 8.62086 10.1208 8.68092C10.2569 8.74099 10.3795 8.82795 10.4812 8.93658C11.6665 10.0922 12.8211 11.2574 13.9685 12.4392C14.1306 12.668 14.2591 12.919 14.3502 13.1843Z" fill="#F7AC1B"/>
<path d="M33.6367 13.1644C33.7424 12.8926 33.8844 12.6363 34.0587 12.4026C35.1895 11.2375 36.3393 10.0937 37.4939 8.95227C37.5963 8.84834 37.7183 8.76573 37.8528 8.70923C37.9873 8.65273 38.1316 8.62344 38.2774 8.62305C38.4233 8.62267 38.5678 8.65119 38.7026 8.70699C38.8373 8.76278 38.9597 8.84474 39.0627 8.94812C39.1657 9.05151 39.2472 9.17429 39.3025 9.30937C39.3579 9.44445 39.3859 9.58916 39.3851 9.73515C39.3843 9.88114 39.3546 10.0255 39.2977 10.16C39.2409 10.2944 39.158 10.4162 39.0538 10.5185C37.9127 11.6717 36.7661 12.8203 35.6139 13.9641C35.4616 14.1344 35.2583 14.2509 35.0345 14.2962C34.8106 14.3416 34.5781 14.3133 34.3716 14.2156C33.9425 14.0258 33.7268 13.677 33.6367 13.1644Z" fill="#F7AC1B"/>
<path d="M16.3619 4.19821C16.5728 4.20877 16.7758 4.28218 16.9448 4.40903C17.1137 4.53588 17.241 4.71037 17.3102 4.91011C17.9171 6.43676 18.5153 7.96577 19.1048 9.49716C19.1615 9.63342 19.1903 9.77966 19.1897 9.92726C19.189 10.0749 19.1588 10.2208 19.1009 10.3566C19.043 10.4923 18.9585 10.615 18.8524 10.7176C18.7464 10.8201 18.6209 10.9004 18.4833 10.9536C18.3458 11.0068 18.199 11.032 18.0516 11.0275C17.9042 11.0231 17.7592 10.9891 17.6251 10.9277C17.4911 10.8663 17.3706 10.7786 17.2709 10.6699C17.1712 10.5611 17.0943 10.4335 17.0447 10.2945C16.4393 8.78051 15.8459 7.26257 15.2642 5.74067C15.19 5.56581 15.1618 5.3748 15.1823 5.18591C15.2028 4.99702 15.2715 4.81657 15.3816 4.66181C15.4917 4.50705 15.6397 4.38316 15.8113 4.30199C15.9829 4.22082 16.1725 4.18509 16.3619 4.19821Z" fill="#F7AC1B"/>
<path d="M29.8297 10.9724C29.6467 10.9796 29.4647 10.9407 29.3005 10.8593C29.1363 10.7779 28.9951 10.6566 28.8899 10.5064C28.7847 10.3562 28.7188 10.182 28.6983 9.99978C28.6778 9.81752 28.7032 9.63302 28.7724 9.46317C29.422 7.91359 30.1 6.37824 30.7899 4.84527C30.8505 4.71629 30.9362 4.60067 31.0419 4.50514C31.1476 4.40961 31.2712 4.33608 31.4056 4.28882C31.5399 4.24156 31.6823 4.22152 31.8245 4.22987C31.9667 4.23822 32.1057 4.27479 32.2337 4.33744C32.3658 4.39704 32.4847 4.48233 32.5836 4.58836C32.6825 4.6944 32.7593 4.81906 32.8096 4.95509C32.8599 5.09111 32.8827 5.2358 32.8766 5.38072C32.8705 5.52564 32.8357 5.6679 32.7742 5.79923C32.3356 6.83624 31.8781 7.8685 31.4252 8.90314C31.2214 9.37774 31.0151 9.85235 30.8065 10.3151C30.726 10.5085 30.5905 10.6739 30.4169 10.7908C30.2432 10.9077 30.039 10.9708 29.8297 10.9724Z" fill="#F7AC1B"/>
<path d="M4.18359 31.637C4.19096 31.4395 4.25753 31.2487 4.37465 31.0896C4.49177 30.9305 4.65401 30.8103 4.84029 30.7447C6.40022 30.1206 7.96016 29.4989 9.52958 28.9009C9.79867 28.8042 10.0948 28.8162 10.3552 28.9344C10.6156 29.0525 10.8198 29.2674 10.9246 29.5337C11.0294 29.7999 11.0265 30.0965 10.9166 30.3607C10.8066 30.6248 10.5983 30.8358 10.3356 30.9488C8.76858 31.5824 7.19442 32.2065 5.6084 32.7926C4.89481 33.0584 4.18359 32.5055 4.18359 31.637Z" fill="#F7AC1B"/>
<path d="M37.0707 29.8584C37.0665 29.6745 37.1092 29.4926 37.1947 29.3298C37.2802 29.167 37.4058 29.0288 37.5595 28.9281C37.7133 28.8274 37.8901 28.7676 38.0734 28.7543C38.2567 28.741 38.4403 28.7747 38.6069 28.8522C40.1171 29.4929 41.6177 30.155 43.1113 30.8218C43.2486 30.8758 43.3733 30.9575 43.4776 31.0619C43.5819 31.1662 43.6637 31.291 43.7177 31.4284C43.7718 31.5657 43.797 31.7128 43.7917 31.8603C43.7865 32.0079 43.751 32.1528 43.6874 32.286C43.6269 32.4214 43.5396 32.5431 43.4309 32.6439C43.3221 32.7446 43.1941 32.8223 43.0545 32.8722C42.915 32.9221 42.7668 32.9432 42.6188 32.9342C42.4709 32.9252 42.3263 32.8863 42.1938 32.8199C40.9848 32.3026 39.7828 31.771 38.5761 31.2442C38.2892 31.1208 37.9976 31.0069 37.7179 30.8669C37.5214 30.7832 37.3546 30.6422 37.2392 30.4624C37.1237 30.2825 37.065 30.072 37.0707 29.8584Z" fill="#F7AC1B"/>
<path d="M5.38906 15.146C5.51943 15.1645 5.64741 15.1972 5.77075 15.2433C7.26747 15.8904 8.76023 16.543 10.2491 17.2011C10.4637 17.2905 10.6445 17.4458 10.7656 17.6446C10.8866 17.8433 10.9415 18.0754 10.9226 18.3074C10.9036 18.5393 10.8117 18.7593 10.66 18.9358C10.5083 19.1122 10.3047 19.236 10.0784 19.2893C9.84623 19.3358 9.60578 19.3169 9.38374 19.2348C7.87121 18.5964 6.36817 17.9367 4.87935 17.2699C4.6441 17.173 4.45061 16.9961 4.33305 16.7703C4.21549 16.5445 4.18143 16.2844 4.23689 16.0359C4.28911 15.7733 4.43457 15.5385 4.64638 15.3749C4.85819 15.2113 5.12201 15.13 5.38906 15.146Z" fill="#F7AC1B"/>
<path d="M43.8068 16.4413C43.7996 16.6407 43.7327 16.8333 43.6148 16.9942C43.4968 17.155 43.3333 17.2766 43.1453 17.3431C41.5981 17.9712 40.0468 18.5802 38.4916 19.1703C38.2238 19.2718 37.927 19.2643 37.6647 19.1495C37.4023 19.0346 37.1954 18.8215 37.0881 18.5557C37.0322 18.4226 37.0035 18.2796 37.0039 18.1352C37.0043 17.9908 37.0336 17.8479 37.0903 17.7151C37.1469 17.5823 37.2296 17.4622 37.3335 17.362C37.4374 17.2618 37.5603 17.1836 37.695 17.1319C39.2384 16.5078 40.777 15.8932 42.3464 15.3047C43.0766 15.0175 43.8115 15.5681 43.8068 16.4413Z" fill="#F7AC1B"/>
<path d="M6.20843 22.9388C7.00026 22.9388 7.79208 22.9388 8.57916 22.9388C9.29038 22.9388 9.78112 23.4134 9.76453 24.0613C9.74793 24.7091 9.29038 25.1481 8.57916 25.1505H3.83771C3.12649 25.1505 2.65234 24.702 2.65234 24.0565C2.65234 23.4111 3.09804 22.9483 3.80215 22.9412C4.60819 22.9317 5.41187 22.9388 6.20843 22.9388Z" fill="#F7AC1B"/>
<path d="M41.7704 22.9391C42.5503 22.9391 43.3303 22.9391 44.1103 22.9391C44.8547 22.9391 45.3146 23.3663 45.3194 24.0355C45.3241 24.7046 44.8452 25.1484 44.0842 25.1508H39.4115C38.6861 25.1508 38.1977 24.7023 38.1953 24.0473C38.193 23.3924 38.6695 22.9462 39.3997 22.9391C40.1915 22.9344 40.9857 22.9391 41.7704 22.9391Z" fill="#F7AC1B"/>
<path d="M23.4502 26.295C22.6741 26.2916 21.9164 26.0575 21.2734 25.6223C20.6304 25.1871 20.1311 24.5704 19.8389 23.8506C19.5467 23.1308 19.4748 22.3404 19.6322 21.5796C19.7897 20.8188 20.1694 20.122 20.7233 19.5776C21.2771 19.0333 21.98 18.6659 22.7428 18.5222C23.5057 18.3785 24.2939 18.4649 25.0076 18.7705C25.7212 19.0761 26.328 19.587 26.751 20.2385C27.174 20.8899 27.3941 21.6525 27.3833 22.4294C27.3799 22.9421 27.2753 23.449 27.0756 23.9211C26.8758 24.3932 26.5849 24.8212 26.2194 25.1804C25.8539 25.5396 25.4212 25.823 24.9459 26.0143C24.4707 26.2056 23.9624 26.301 23.4502 26.295Z" fill="#F7AC1B"/>
</svg>
