<svg width="48" height="48" viewBox="0 0 48 48" fill="none" xmlns="http://www.w3.org/2000/svg">
<path d="M42.7166 13.6545C42.6139 14.08 42.5254 14.5056 42.4084 14.9281C42.1133 15.9914 41.6168 16.9823 40.9483 17.8421C40.2798 18.702 39.4529 19.4134 38.5163 19.9343C37.5798 20.4553 36.5526 20.7752 35.4955 20.8752C34.4384 20.9752 33.3728 20.8533 32.3616 20.5166C32.2837 20.4816 32.1969 20.4746 32.1147 20.4966C32.0326 20.5187 31.9598 20.5687 31.9079 20.6386C31.2944 21.2992 30.6638 21.945 30.0389 22.5937C29.9533 22.6859 29.8592 22.7722 29.7793 22.8526L24.957 17.8235C25.6447 17.1123 26.3324 16.3833 27.0372 15.6721C27.1216 15.604 27.1822 15.5089 27.2096 15.4013C27.2369 15.2937 27.2295 15.1797 27.1884 15.0769C26.7753 13.6736 26.7268 12.1811 27.0478 10.7518C27.3688 9.32249 28.0478 8.00766 29.0155 6.9416C29.9831 5.87553 31.2048 5.09643 32.5557 4.68387C33.9066 4.27131 35.3382 4.24008 36.7045 4.59336C37.706 4.84927 38.0056 5.91459 37.2752 6.67638C36.0967 7.91727 34.904 9.14625 33.7312 10.3663L36.9413 13.7021C38.0827 12.5118 39.2554 11.2799 40.431 10.0747C40.6128 9.8779 40.8382 9.73075 41.0873 9.64618C41.2367 9.60309 41.3931 9.59303 41.5465 9.61664C41.6998 9.64026 41.8468 9.69703 41.9779 9.78332C42.109 9.86961 42.2213 9.98351 42.3078 10.1177C42.3942 10.2519 42.4528 10.4035 42.4798 10.5627C42.5625 10.9079 42.6367 11.2561 42.7166 11.6042V13.6545Z" fill="#FFAE00"/>
<path d="M10.9939 43.7588C10.7231 43.6815 10.4581 43.5804 10.1844 43.5299C9.95645 43.5059 9.74069 43.4108 9.56528 43.257C9.38988 43.1031 9.26297 42.8978 9.20111 42.6676C9.13762 42.4323 9.14157 42.1827 9.21248 41.9497C9.28339 41.7167 9.41816 41.5104 9.60014 41.3564C10.7687 40.167 11.9202 38.948 13.0489 37.7705L9.85381 34.4404C8.71373 35.6298 7.54514 36.8637 6.35945 38.0946C5.89202 38.5823 5.24217 38.6596 4.80039 38.2463C4.59807 38.0542 4.45102 37.8071 4.37571 37.5327C4.10977 36.4562 4.05471 35.3348 4.21383 34.2356C4.37295 33.1364 4.74297 32.082 5.30176 31.1355C5.86055 30.1889 6.59662 29.3697 7.46594 28.7267C8.33526 28.0838 9.31997 27.6304 10.3612 27.3937C11.7033 27.0635 13.1068 27.1263 14.417 27.575C14.5152 27.6177 14.624 27.6256 14.7269 27.5977C14.8299 27.5698 14.9212 27.5076 14.987 27.4204C15.6654 26.6831 16.3637 25.9665 17.0392 25.2559L21.8846 30.2927C21.2034 31.0003 20.5136 31.7258 19.8096 32.4364C19.7255 32.5046 19.665 32.5996 19.6372 32.7069C19.6094 32.8142 19.6159 32.928 19.6557 33.0311C19.9903 34.1606 20.0893 35.3517 19.9462 36.5245C19.803 37.6973 19.4209 38.8245 18.8257 39.8305C18.2304 40.8365 17.4356 41.6979 16.4948 42.357C15.554 43.0161 14.4889 43.4576 13.371 43.6518C13.2171 43.6756 13.066 43.7142 12.9149 43.7469L10.9939 43.7588Z" fill="#FFAE00"/>
<path d="M42.3329 45.333C41.6342 44.9071 40.9418 44.4715 40.2367 44.0553C38.4595 43.002 36.6759 41.9519 34.8861 40.905C34.8294 40.8725 34.7791 40.8303 34.7539 40.814L39.6293 35.7781L43.9948 43.6945V44.4715L43.0757 45.333H42.3329Z" fill="#FFAE00"/>
<path d="M39.3572 35.2054C37.645 36.9675 35.8951 38.7816 34.164 40.5632L11.2695 16.9148L16.4597 11.5701L39.3572 35.2054Z" fill="#FFAE00"/>
<path d="M11.0915 5.93047L5.79435 11.402L4.12621 9.67896C3.83979 9.38311 3.55023 9.09377 3.27325 8.79142C2.89309 8.40251 2.67583 7.87505 2.66818 7.32244C2.66053 6.76982 2.86309 6.23616 3.23234 5.83618C4.04123 4.94864 4.87844 4.08385 5.75028 3.25157C6.11333 2.88553 6.59807 2.67661 7.10532 2.66754C7.61258 2.65848 8.10402 2.84996 8.47911 3.20281C9.39187 4.09035 10.2417 5.03642 11.0915 5.93047Z" fill="#FFAE00"/>
<path d="M7.70703 13.2104L12.9129 7.82007L14.6094 9.56915L9.39091 14.9529L7.70703 13.2104Z" fill="#FFAE00"/>
<path d="M40.3719 32.9449C40.301 32.9449 40.271 32.8912 40.2624 32.8152C40.2044 32.3523 40.1549 31.8894 40.0883 31.431C40.0101 30.8613 39.8806 30.3006 39.7016 29.7561C39.5612 29.3145 39.3221 28.9139 39.0038 28.5873C38.6856 28.2607 38.2973 28.0175 37.871 27.8777C37.269 27.672 36.6517 27.5179 36.0254 27.4171C35.9481 27.4037 35.8729 27.3925 35.875 27.2874C35.8772 27.1823 35.9588 27.1756 36.0319 27.1622C36.6381 27.0655 37.2364 26.9213 37.8216 26.7306C38.2894 26.5844 38.7136 26.3165 39.0542 25.9522C39.3948 25.588 39.6405 25.1393 39.7682 24.6487C39.9403 24.0484 40.0647 23.4344 40.1399 22.8128C40.1829 22.4707 40.2172 22.1263 40.2667 21.7842C40.2733 21.7556 40.2863 21.7289 40.3046 21.7064C40.3229 21.6839 40.3459 21.6661 40.3719 21.6545C40.4493 21.6344 40.4858 21.7014 40.4966 21.7797C40.5309 22.0883 40.5632 22.3991 40.6061 22.7077C40.6859 23.4404 40.8401 24.1622 41.0659 24.8611C41.2077 25.2931 41.4448 25.6844 41.7582 26.0036C42.0717 26.3229 42.4527 26.5611 42.8707 26.6993C43.476 26.9071 44.0969 27.0619 44.727 27.1622C44.7979 27.1756 44.871 27.1823 44.8731 27.2829C44.8753 27.3835 44.8087 27.4037 44.727 27.4193C44.1051 27.5183 43.4916 27.6678 42.8922 27.8666C42.4387 28.0163 42.0283 28.2815 41.6982 28.638C41.3681 28.9945 41.1286 29.431 41.0015 29.9082C40.8133 30.5574 40.6803 31.2226 40.604 31.8961C40.5675 32.1913 40.5352 32.4887 40.4987 32.7906C40.4901 32.8621 40.4815 32.9404 40.3719 32.9449Z" fill="#FFAE00"/>
<path d="M45.3415 23.3442C45.2826 23.3904 45.254 23.4274 45.2147 23.4403C45.1217 23.4718 45.0234 23.4884 44.9287 23.5143C44.7195 23.5641 44.5289 23.6763 44.3806 23.8369C44.2323 23.9975 44.1327 24.1995 44.0942 24.418C44.062 24.564 44.037 24.7137 44.0102 24.8635C44.0102 24.8764 44.0102 24.8912 44.0013 24.9041C43.9906 24.9633 43.9727 25.0169 43.9012 25.015C43.8297 25.0132 43.8172 24.9633 43.8047 24.9004C43.7761 24.7341 43.7422 24.5696 43.7064 24.4051C43.6651 24.1758 43.5577 23.9647 43.3982 23.7998C43.2387 23.6348 43.0347 23.5237 42.8129 23.481C42.7332 23.464 42.6544 23.4424 42.577 23.4163C42.5431 23.4015 42.4966 23.3516 42.5002 23.3257C42.5062 23.304 42.5169 23.2839 42.5314 23.2669C42.546 23.2499 42.564 23.2366 42.5842 23.2278C42.6745 23.1971 42.7663 23.1718 42.8594 23.152C43.0788 23.1 43.278 22.9809 43.431 22.8101C43.584 22.6393 43.6837 22.4249 43.7171 22.1946C43.7475 22.0505 43.7672 21.9026 43.8029 21.7603C43.8094 21.7373 43.8206 21.716 43.8357 21.6978C43.8508 21.6797 43.8695 21.6651 43.8905 21.655C43.9566 21.6346 43.9816 21.6938 43.9941 21.7548C44.0299 21.9396 44.062 22.1244 44.1031 22.2926C44.1466 22.5062 44.2491 22.7022 44.3982 22.8567C44.5473 23.0112 44.7366 23.1177 44.943 23.1631C45.0288 23.1871 45.1217 23.2019 45.1986 23.2333C45.2512 23.2628 45.2994 23.3002 45.3415 23.3442Z" fill="#FFAE00"/>
</svg>
