<svg width="48" height="48" viewBox="0 0 48 48" fill="none" xmlns="http://www.w3.org/2000/svg">
<path d="M9.83835 8.74247C9.83835 7.30119 9.83835 5.56359 9.83835 4.17921C9.83835 3.2784 10.4382 2.6597 11.2893 2.66681C12.1404 2.67392 12.6975 3.29974 12.6975 4.17683C12.6975 5.56122 12.6975 7.30119 12.6975 8.71402H29.8431C29.8431 8.60498 29.862 8.47697 29.8644 8.34896C29.8644 7.06651 29.8644 5.43084 29.8644 4.15076C29.8644 3.77165 30.015 3.40807 30.2831 3.14C30.5512 2.87193 30.9149 2.72133 31.294 2.72133C31.6731 2.72133 32.0368 2.87193 32.3049 3.14C32.573 3.40807 32.7236 3.77165 32.7236 4.15076C32.7236 5.547 32.7236 7.29882 32.7236 8.73299H36.8559C38.6766 8.73299 39.8739 9.91825 39.8763 11.7436V15.8967L2.66458 15.8667C2.66458 14.6815 2.64774 12.0517 2.80658 10.8902C2.97965 9.61245 4.21009 8.75669 5.50929 8.75669C6.93413 8.7401 8.3566 8.74247 9.83835 8.74247Z" fill="#F7AC1B"/>
<path d="M2.66406 17.3643V17.8667C2.66406 24.7934 2.66406 31.6001 2.66422 38.5947C2.66006 38.9998 2.73706 39.4016 2.89068 39.7764C3.0443 40.1513 3.27143 40.4916 3.55868 40.7772C3.84593 41.0629 4.18748 41.2882 4.56319 41.4398C4.9389 41.5913 5.34116 41.6662 5.74625 41.6598C13.7074 41.6314 21.6669 41.6258 29.6249 41.6432V34.2946C29.6249 34.0479 29.6735 33.8037 29.7681 33.5759C29.8626 33.3481 30.0012 33.1412 30.1758 32.967C30.3504 32.7928 30.5577 32.6548 30.7858 32.5609C31.0139 32.4669 31.2582 32.4189 31.5049 32.4195V30.049C31.5049 30.049 31.4338 22.8497 39.8856 24.0017C39.8856 21.9473 39.8856 19.8849 39.8856 17.8147V17.3643H2.66406ZM27.3513 37.0159H15.2033V35.3803H27.3513V37.0159ZM30.6396 24.7437C30.5723 24.9349 30.4882 25.1197 30.3882 25.296C30.2704 25.4892 30.1039 25.6482 29.9055 25.7572C29.7071 25.8661 29.4837 25.9213 29.2574 25.9171C29.1578 26.3746 29.0606 26.8345 28.9587 27.2897C28.4845 29.4674 28.0167 31.642 27.5552 33.8134C27.5192 33.9484 27.4907 34.0853 27.4698 34.2235C27.4556 34.3609 27.3892 34.3847 27.2659 34.3799H22.3252C19.9923 34.3799 17.6642 34.3799 15.3314 34.3799C15.1867 34.3799 15.1298 34.3467 15.0943 34.1903C14.5205 31.4863 13.9413 28.7807 13.3565 26.0736C13.3423 26.0262 13.328 25.9788 13.3114 25.9171C13.0902 25.9207 12.8717 25.8677 12.6767 25.7631C12.4817 25.6586 12.3167 25.506 12.1972 25.3198C11.6163 24.4569 12.0431 23.2811 12.9463 23.0227C13.2829 22.9432 13.6372 22.9957 13.9362 23.1694C14.2352 23.3432 14.4562 23.6249 14.5537 23.9567C14.658 24.2672 14.661 24.6029 14.5621 24.9152C14.4633 25.2275 14.2677 25.5003 14.0037 25.6943C14.0701 25.7986 14.1388 25.9029 14.2123 26.0072C14.7359 26.808 15.375 27.5269 16.109 28.1407C16.3575 28.3183 16.6181 28.4783 16.889 28.6195C17.4224 28.923 17.906 28.7926 18.3541 28.4323C18.88 27.9858 19.3043 27.4322 19.5988 26.8084C20.0445 25.8982 20.4452 24.95 20.8885 24.0136C20.5565 23.881 20.2803 23.6383 20.1061 23.3261C19.632 22.4467 20.1346 21.323 21.0663 21.1547C21.2421 21.129 21.4214 21.1382 21.5936 21.1821C21.7658 21.2259 21.9277 21.3033 22.0698 21.41C22.212 21.5166 22.3316 21.6504 22.4218 21.8035C22.512 21.9566 22.5711 22.126 22.5955 22.3021C22.7282 23.0346 22.4485 23.5822 21.7206 23.9994C22.1948 25.2392 22.6808 26.4718 23.4489 27.567C23.6528 27.8583 23.8916 28.1234 24.1602 28.3564C24.7695 28.8993 25.2602 28.9135 25.9596 28.4868C26.6827 28.0116 27.3167 27.413 27.8325 26.7184C28.0886 26.3912 28.328 26.0475 28.5793 25.7038C28.3648 25.5531 28.1934 25.3489 28.0823 25.1114C27.9713 24.8739 27.9244 24.6115 27.9463 24.3502C27.9481 24.0733 28.0332 23.8034 28.1905 23.5755C28.3478 23.3477 28.57 23.1724 28.8283 23.0725C29.1269 22.9519 29.4603 22.9491 29.7609 23.0649C30.0615 23.1806 30.3069 23.4062 30.4475 23.6959C30.5219 23.8585 30.5861 24.0255 30.6396 24.1961V24.7437Z" fill="#F7AC1B"/>
<path d="M44.2153 33.1448C43.9474 33.1591 43.6819 33.1448 43.3855 33.1448V32.6423C43.3855 31.8742 43.3855 31.1062 43.3855 30.3405C43.3852 30.0574 43.3654 29.7746 43.3263 29.4942C43.1534 28.1973 42.4993 27.0127 41.4937 26.1755C41.1189 25.8452 40.698 25.5713 40.2442 25.3624C40.1257 25.3102 40.0072 25.2605 39.8863 25.2154C39.4707 25.0651 39.0384 24.9656 38.5989 24.9191C38.5704 24.9113 38.5433 24.8993 38.5183 24.8835H37.4183C37.1409 24.9499 36.854 24.9997 36.579 25.0827C35.7759 25.2964 35.0344 25.6962 34.4146 26.2497C33.7947 26.8032 33.3139 27.4948 33.011 28.2687C32.9132 28.499 32.8339 28.7369 32.7739 28.9798C32.6647 29.4515 32.6138 29.9347 32.6222 30.4187C32.6222 31.3219 32.6222 32.2251 32.6222 33.1496C32.3353 33.1496 32.065 33.1638 31.7924 33.1496C31.6441 33.1373 31.4948 33.1567 31.3546 33.2066C31.2144 33.2564 31.0864 33.3356 30.9792 33.4388C30.8757 33.5486 30.7949 33.6778 30.7416 33.819C30.6883 33.9602 30.6635 34.1105 30.6686 34.2614C30.6686 36.722 30.6686 39.1873 30.6686 41.6479V44.2152C30.6686 44.9264 31.0669 45.3317 31.7758 45.3317H36.8445C39.3007 45.3317 41.756 45.3317 44.2106 45.3317C44.2477 45.3341 44.2849 45.3341 44.322 45.3317C44.4619 45.3254 44.5991 45.2913 44.7256 45.2314C44.8522 45.1715 44.9655 45.087 45.0591 44.9829C45.1526 44.8787 45.2245 44.757 45.2706 44.6248C45.3166 44.4926 45.3359 44.3525 45.3272 44.2128C45.3272 41.0126 45.3272 37.4592 45.3272 34.2566C45.339 34.1076 45.3183 33.9578 45.2666 33.8176C45.2149 33.6774 45.1334 33.55 45.0277 33.4443C44.922 33.3387 44.7946 33.2571 44.6544 33.2054C44.5141 33.1537 44.3643 33.1331 44.2153 33.1448ZM39.5306 38.936C39.4058 39.2045 39.2149 39.4369 38.9759 39.6116C38.9415 39.6307 38.9144 39.6605 38.8986 39.6965C38.8827 39.7324 38.8791 39.7725 38.8882 39.8108C38.9237 40.0004 38.9593 40.1924 38.9854 40.3797C39.0114 40.567 39.0636 40.7993 39.0968 41.0079C39.111 41.0837 39.1229 41.1572 39.1371 41.2449C39.2153 41.6906 39.2936 42.141 39.3742 42.5914C39.3768 42.6007 39.3768 42.6105 39.3742 42.6198H36.6406C36.6406 42.5843 36.6525 42.5487 36.662 42.5179C36.6833 42.378 36.7047 42.2382 36.7331 42.0983C36.7331 42.0604 36.7473 42.0225 36.7521 41.9845C36.8232 41.5721 36.8967 41.1596 36.9654 40.7447C37.0223 40.4271 37.0698 40.1094 37.1338 39.7965C37.1405 39.7667 37.1369 39.7354 37.1236 39.7078C37.1102 39.6802 37.0879 39.658 37.0603 39.6448C36.7993 39.4598 36.5974 39.2033 36.4788 38.9062C36.3602 38.6091 36.33 38.2841 36.3919 37.9702C36.4538 37.6564 36.6051 37.3671 36.8275 37.1372C37.05 36.9074 37.3342 36.7467 37.6459 36.6746C37.8628 36.6281 38.0869 36.6252 38.305 36.6659C38.5231 36.7065 38.731 36.7901 38.9166 36.9116C38.9651 36.9429 39.0118 36.9769 39.0565 37.0135C39.2746 37.1901 39.443 37.4205 39.5449 37.682C39.5841 37.7867 39.6142 37.8946 39.635 38.0044C39.6925 38.3185 39.6563 38.6425 39.5306 38.936ZM41.387 33.1306H34.6373C34.6342 33.0912 34.6342 33.0515 34.6373 33.0121V32.6257C34.6373 31.7841 34.6373 30.9426 34.6373 30.1058C34.6615 29.4503 34.8762 28.816 35.2551 28.2805C35.6341 27.745 36.1608 27.3315 36.771 27.0905C37.2813 26.8952 37.8303 26.8229 38.3737 26.8795C38.9157 26.9329 39.4357 27.1211 39.8863 27.4271C40.0131 27.5088 40.1335 27.5999 40.2466 27.6997C40.6423 28.0478 40.9509 28.4838 41.1475 28.9727C41.228 29.1698 41.2907 29.3737 41.3348 29.5819C41.369 29.7618 41.388 29.9441 41.3917 30.1272C41.3893 31.1323 41.387 32.1231 41.387 33.1377V33.1306Z" fill="#F7AC1B"/>
<path d="M39.649 28.8163V32.2156H35.7396C35.7586 30.5965 35.5428 29.4018 36.4698 28.456C37.3162 27.5931 38.8572 27.759 39.649 28.8163Z" fill="#F7AC1B"/>
</svg>
