<svg width="45" height="45" viewBox="0 0 45 45" fill="none" xmlns="http://www.w3.org/2000/svg">
<circle cx="22.5" cy="22.5" r="22.25" fill="url(#paint0_linear_101_19449)"/>
<circle cx="22.5" cy="22.5" r="22.25" fill="url(#paint1_linear_101_19449)"/>
<circle cx="22.5" cy="22.5" r="22.25" stroke="url(#paint2_linear_101_19449)" stroke-width="0.5"/>
<mask id="mask0_101_19449" style="mask-type:alpha" maskUnits="userSpaceOnUse" x="10" y="10" width="25" height="25">
<rect x="10.5" y="10.5" width="24" height="24" fill="#D9D9D9"/>
</mask>
<g mask="url(#mask0_101_19449)">
<path d="M15.5 32.5C14.95 32.5 14.4792 32.3042 14.0875 31.9125C13.6958 31.5208 13.5 31.05 13.5 30.5V16.5C13.5 15.95 13.6958 15.4792 14.0875 15.0875C14.4792 14.6958 14.95 14.5 15.5 14.5H16.5V12.5H18.5V14.5H26.5V12.5H28.5V14.5H29.5C30.05 14.5 30.5208 14.6958 30.9125 15.0875C31.3042 15.4792 31.5 15.95 31.5 16.5V30.5C31.5 31.05 31.3042 31.5208 30.9125 31.9125C30.5208 32.3042 30.05 32.5 29.5 32.5H15.5ZM15.5 30.5H29.5V20.5H15.5V30.5ZM15.5 18.5H29.5V16.5H15.5V18.5ZM22.5 24.5C22.2167 24.5 21.9792 24.4042 21.7875 24.2125C21.5958 24.0208 21.5 23.7833 21.5 23.5C21.5 23.2167 21.5958 22.9792 21.7875 22.7875C21.9792 22.5958 22.2167 22.5 22.5 22.5C22.7833 22.5 23.0208 22.5958 23.2125 22.7875C23.4042 22.9792 23.5 23.2167 23.5 23.5C23.5 23.7833 23.4042 24.0208 23.2125 24.2125C23.0208 24.4042 22.7833 24.5 22.5 24.5ZM18.5 24.5C18.2167 24.5 17.9792 24.4042 17.7875 24.2125C17.5958 24.0208 17.5 23.7833 17.5 23.5C17.5 23.2167 17.5958 22.9792 17.7875 22.7875C17.9792 22.5958 18.2167 22.5 18.5 22.5C18.7833 22.5 19.0208 22.5958 19.2125 22.7875C19.4042 22.9792 19.5 23.2167 19.5 23.5C19.5 23.7833 19.4042 24.0208 19.2125 24.2125C19.0208 24.4042 18.7833 24.5 18.5 24.5ZM26.5 24.5C26.2167 24.5 25.9792 24.4042 25.7875 24.2125C25.5958 24.0208 25.5 23.7833 25.5 23.5C25.5 23.2167 25.5958 22.9792 25.7875 22.7875C25.9792 22.5958 26.2167 22.5 26.5 22.5C26.7833 22.5 27.0208 22.5958 27.2125 22.7875C27.4042 22.9792 27.5 23.2167 27.5 23.5C27.5 23.7833 27.4042 24.0208 27.2125 24.2125C27.0208 24.4042 26.7833 24.5 26.5 24.5ZM22.5 28.5C22.2167 28.5 21.9792 28.4042 21.7875 28.2125C21.5958 28.0208 21.5 27.7833 21.5 27.5C21.5 27.2167 21.5958 26.9792 21.7875 26.7875C21.9792 26.5958 22.2167 26.5 22.5 26.5C22.7833 26.5 23.0208 26.5958 23.2125 26.7875C23.4042 26.9792 23.5 27.2167 23.5 27.5C23.5 27.7833 23.4042 28.0208 23.2125 28.2125C23.0208 28.4042 22.7833 28.5 22.5 28.5ZM18.5 28.5C18.2167 28.5 17.9792 28.4042 17.7875 28.2125C17.5958 28.0208 17.5 27.7833 17.5 27.5C17.5 27.2167 17.5958 26.9792 17.7875 26.7875C17.9792 26.5958 18.2167 26.5 18.5 26.5C18.7833 26.5 19.0208 26.5958 19.2125 26.7875C19.4042 26.9792 19.5 27.2167 19.5 27.5C19.5 27.7833 19.4042 28.0208 19.2125 28.2125C19.0208 28.4042 18.7833 28.5 18.5 28.5ZM26.5 28.5C26.2167 28.5 25.9792 28.4042 25.7875 28.2125C25.5958 28.0208 25.5 27.7833 25.5 27.5C25.5 27.2167 25.5958 26.9792 25.7875 26.7875C25.9792 26.5958 26.2167 26.5 26.5 26.5C26.7833 26.5 27.0208 26.5958 27.2125 26.7875C27.4042 26.9792 27.5 27.2167 27.5 27.5C27.5 27.7833 27.4042 28.0208 27.2125 28.2125C27.0208 28.4042 26.7833 28.5 26.5 28.5Z" fill="white"/>
</g>
<defs>
<linearGradient id="paint0_linear_101_19449" x1="44.5" y1="0.5" x2="0.5" y2="44.5" gradientUnits="userSpaceOnUse">
<stop stop-color="#FFAE00"/>
<stop offset="1" stop-color="#F87E00"/>
</linearGradient>
<linearGradient id="paint1_linear_101_19449" x1="22.5" y1="0.5" x2="22.5" y2="44.5" gradientUnits="userSpaceOnUse">
<stop stop-color="#F87E00"/>
<stop offset="0.6" stop-color="#FFAE00"/>
</linearGradient>
<linearGradient id="paint2_linear_101_19449" x1="30.2" y1="30.2" x2="44.5" y2="44.5" gradientUnits="userSpaceOnUse">
<stop stop-color="white" stop-opacity="0.5"/>
<stop offset="1" stop-color="#FFAE00"/>
</linearGradient>
</defs>
</svg>
