<svg width="140" height="140" viewBox="0 0 140 140" fill="none" xmlns="http://www.w3.org/2000/svg">
<path d="M71.3367 88.95H69.725C69.2947 88.95 68.8819 88.7994 68.5776 88.5315C68.2732 88.2636 68.1023 87.9003 68.1023 87.5214V80.694C68.1023 80.3152 67.9313 79.9518 67.6269 79.6839C67.3226 79.416 66.9098 79.2655 66.4795 79.2655H29.0544C28.624 79.2655 28.2113 79.416 27.9069 79.6839C27.6026 79.9518 27.4316 80.3152 27.4316 80.694V87.4623C27.4316 87.6494 27.3896 87.8347 27.3079 88.0075C27.2262 88.1803 27.1065 88.3371 26.9557 88.469C26.8048 88.6008 26.6258 88.7051 26.429 88.7758C26.2322 88.8466 26.0214 88.8823 25.8088 88.881H24.0965C23.6788 88.8837 23.2768 88.7415 22.9773 88.4852C22.6778 88.2289 22.5049 87.8792 22.4961 87.5116V78.3099C22.4961 75.2459 22.9885 74.8124 26.5475 74.8124H66.4459C66.8763 74.8124 67.289 74.6619 67.5934 74.394C67.8977 74.1261 68.0687 73.7627 68.0687 73.3839V50.9313C68.0686 50.7412 68.1117 50.553 68.1953 50.3777C68.279 50.2024 68.4015 50.0436 68.5558 49.9106C68.7101 49.7775 68.8929 49.6729 69.0937 49.6029C69.2945 49.5329 69.5091 49.4988 69.725 49.5027H71.2583C71.4709 49.5027 71.6814 49.5398 71.8776 49.6117C72.0739 49.6836 72.2521 49.789 72.4019 49.9218C72.5517 50.0545 72.6701 50.2121 72.7505 50.3854C72.8308 50.5586 72.8714 50.7442 72.8699 50.9313V73.3839C72.8699 73.5715 72.9119 73.7572 72.9934 73.9305C73.075 74.1039 73.1945 74.2614 73.3452 74.394C73.4959 74.5267 73.6748 74.6319 73.8717 74.7037C74.0686 74.7755 74.2796 74.8124 74.4927 74.8124H112.891C114.376 74.8124 115.799 75.3314 116.848 76.2552C117.898 77.179 118.487 78.4319 118.487 79.7384V87.4032C118.487 87.7821 118.316 88.1454 118.012 88.4133C117.708 88.6812 117.295 88.8317 116.864 88.8317H115.32C114.89 88.8317 114.477 88.6812 114.173 88.4133C113.868 88.1454 113.697 87.7821 113.697 87.4032V80.6842C113.699 80.4975 113.658 80.3124 113.578 80.1397C113.497 79.967 113.378 79.8101 113.229 79.6781C113.079 79.5461 112.9 79.4416 112.704 79.3708C112.508 79.3 112.298 79.2642 112.086 79.2655H74.5822C74.3697 79.2642 74.1589 79.2999 73.9621 79.3706C73.7653 79.4414 73.5863 79.5456 73.4354 79.6775C73.2846 79.8094 73.1649 79.9662 73.0832 80.139C73.0015 80.3117 72.9594 80.497 72.9594 80.6842V87.482C72.9654 87.6729 72.9279 87.8629 72.849 88.0408C72.7701 88.2187 72.6516 88.3809 72.5003 88.5177C72.349 88.6546 72.168 88.7633 71.9682 88.8376C71.7683 88.9118 71.5536 88.95 71.3367 88.95Z" fill="#FFAE00"/>
<path d="M77.257 113.702C79.1923 113.702 81.2208 115.051 82.469 116.418C83.7173 117.784 84.4133 119.548 84.4269 121.38C84.4984 124.484 84.4269 127.598 84.4269 130.712C84.4401 131.18 84.3188 131.642 84.0769 132.046C83.835 132.45 83.4821 132.78 83.0583 132.998C79.8511 134.804 76.6644 136.64 73.4368 138.407C72.5096 138.951 71.4467 139.234 70.3654 139.225C69.284 139.216 68.2262 138.916 67.3084 138.357C64.1421 136.61 61.0166 134.804 57.8605 133.037C57.4176 132.793 57.0554 132.431 56.8165 131.992C56.5776 131.554 56.472 131.058 56.5123 130.562C56.5123 127.568 56.5123 124.574 56.5123 121.51C56.5189 120.481 56.7334 119.464 57.1434 118.516C57.5535 117.569 58.1509 116.709 58.9016 115.988C59.6522 115.267 60.5412 114.697 61.5177 114.312C62.4941 113.927 63.3228 113.702 64.8711 113.702C68.9997 113.702 73.1284 113.702 77.257 113.702Z" fill="#FFAE00"/>
<path d="M78.9917 104.015C78.9836 105.664 78.4757 107.274 77.5321 108.641C76.5885 110.008 75.2515 111.071 73.6899 111.697C72.1284 112.322 70.4123 112.481 68.7583 112.153C67.1044 111.826 65.5867 111.027 64.397 109.858C63.2074 108.688 62.399 107.201 62.0739 105.583C61.7489 103.965 61.9218 102.289 62.5709 100.766C63.2199 99.2444 64.3159 97.9443 65.7206 97.0304C67.1252 96.1166 68.7755 95.6299 70.463 95.6318C72.7297 95.645 74.8988 96.5341 76.4968 98.1049C78.0948 99.6757 78.9917 101.801 78.9917 104.015Z" fill="#FFAE00"/>
<path d="M77.6258 18.3156C79.4949 18.5364 81.2176 19.4152 82.4716 20.7875C83.7255 22.1597 84.4248 23.9314 84.4385 25.7711C84.51 28.895 84.4385 32.0189 84.4385 35.1528C84.4519 35.6219 84.3296 36.0852 84.0857 36.4895C83.8418 36.8938 83.4861 37.2226 83.0596 37.4383C79.8422 39.2548 76.6453 41.1012 73.4074 42.8677C72.4838 43.4158 71.4239 43.7056 70.3433 43.7056C69.2626 43.7056 68.2027 43.4158 67.2791 42.8677C64.1025 41.1112 60.9669 39.3047 57.8005 37.5282C57.3453 37.2982 56.9668 36.9458 56.7098 36.5126C56.4528 36.0793 56.328 35.5832 56.3502 35.0829C56.3502 32.0888 56.3502 29.0247 56.3502 25.9907C56.3568 24.9584 56.5722 23.9376 56.9839 22.9869C57.3955 22.0362 57.9954 21.1744 58.7491 20.451C59.5027 19.7276 60.3952 19.1568 61.3752 18.7715C62.3553 18.3862 63.4037 18.194 64.46 18.2058C68.8544 18.1853 73.2363 18.0706 77.6258 18.3156Z" fill="#FFAE00"/>
<path d="M79.0687 8.39363C79.0646 10.0477 78.5593 11.6635 77.6166 13.0372C76.6739 14.411 75.3359 15.4812 73.7715 16.1128C72.207 16.7444 70.4862 16.9091 68.8261 16.5861C67.1659 16.2632 65.6409 15.4671 64.4432 14.2982C63.2456 13.1293 62.4291 11.6401 62.0966 10.0182C61.7641 8.39644 61.9307 6.71474 62.5752 5.1853C63.2197 3.65586 64.3133 2.34719 65.7181 1.42437C67.1228 0.501549 68.7758 0.00591901 70.4685 0C72.7468 0.0026346 74.9312 0.887489 76.5431 2.46074C78.1551 4.034 79.0632 6.1674 79.0687 8.39363Z" fill="#FFAE00"/>
<path d="M123.699 113.701C125.565 113.913 127.419 115.04 128.672 116.408C129.925 117.776 130.623 119.545 130.632 121.381C130.704 124.485 130.632 127.599 130.632 130.713C130.641 131.181 130.517 131.643 130.273 132.046C130.03 132.45 129.677 132.779 129.254 132.999C126.046 134.805 122.86 136.642 119.632 138.408C118.705 138.952 117.642 139.235 116.561 139.226C115.479 139.217 114.421 138.917 113.504 138.358C110.348 136.612 107.212 134.805 104.066 133.039C103.612 132.81 103.233 132.46 102.976 132.028C102.719 131.597 102.594 131.102 102.616 130.603C102.616 127.609 102.616 124.615 102.616 121.551C102.621 120.522 102.835 119.504 103.244 118.556C103.654 117.607 104.251 116.748 105.002 116.026C105.753 115.304 106.642 114.735 107.619 114.351C108.596 113.966 109.486 113.69 110.539 113.702C114.797 113.702 119.441 113.701 123.699 113.701Z" fill="#FFAE00"/>
<path d="M125.16 104.015C125.152 105.663 124.644 107.272 123.702 108.638C122.76 110.004 121.425 111.068 119.865 111.694C118.305 112.32 116.591 112.48 114.938 112.156C113.284 111.831 111.767 111.035 110.576 109.868C109.385 108.702 108.574 107.217 108.246 105.601C107.917 103.985 108.086 102.31 108.73 100.787C109.374 99.2646 110.466 97.9624 111.866 97.045C113.267 96.1275 114.914 95.6358 116.6 95.6318C117.726 95.6331 118.84 95.851 119.879 96.2731C120.918 96.6951 121.862 97.313 122.657 98.0915C123.452 98.87 124.082 99.7938 124.511 100.81C124.941 101.827 125.161 102.916 125.16 104.015Z" fill="#FFAE00"/>
<path d="M31.1921 113.702C33.1274 113.702 34.845 115.053 36.0933 116.42C37.3415 117.786 38.0375 119.55 38.0512 121.382C38.1227 124.486 38.0512 127.6 38.0512 130.714C38.0646 131.183 37.9423 131.646 37.6984 132.051C37.4545 132.455 37.0988 132.784 36.6723 132.999C33.4753 134.806 30.2886 136.642 27.061 138.409C26.133 138.951 25.0705 139.232 23.9896 139.224C22.9088 139.215 21.8512 138.916 20.9326 138.359C17.7765 136.612 14.6408 134.806 11.4949 133.039C11.0472 132.799 10.6794 132.437 10.4351 131.999C10.1907 131.56 10.08 131.062 10.116 130.564C10.116 127.57 10.116 124.576 10.116 121.512C10.1403 119.446 11.0006 117.474 12.5088 116.026C14.0171 114.579 16.0967 113.702 18.4191 113.702C22.6768 113.702 26.9344 113.702 31.1921 113.702Z" fill="#FFAE00"/>
<path d="M32.6626 104.015C32.6525 105.66 32.1445 107.265 31.2026 108.629C30.2607 109.992 28.927 111.052 27.3695 111.676C25.8121 112.3 24.1004 112.46 22.4502 112.135C20.8001 111.81 19.2851 111.016 18.0963 109.851C16.9074 108.687 16.0978 107.205 15.7694 105.591C15.4409 103.978 15.6084 102.306 16.2507 100.786C16.893 99.2652 17.9814 97.9646 19.3788 97.0474C20.7761 96.1303 22.42 95.6378 24.1033 95.6318C25.2291 95.6318 26.3437 95.8488 27.3835 96.2704C28.4233 96.692 29.3678 97.3098 30.1629 98.0886C30.9579 98.8673 31.588 99.7917 32.0169 100.809C32.4459 101.826 32.6653 102.915 32.6626 104.015Z" fill="#FFAE00"/>
</svg>
