<svg width="140" height="140" viewBox="0 0 140 140" fill="none" xmlns="http://www.w3.org/2000/svg">
<path d="M14.7773 79.031C14.7773 71.7901 14.7773 64.5491 14.7773 57.3082C14.7773 50.6536 17.67 45.6561 23.4554 42.3158C28.7675 39.2529 34.0821 36.2031 39.3994 33.1664C39.8722 32.8351 40.4465 32.6789 41.0229 32.7248C41.5992 32.7707 42.1412 33.0158 42.5551 33.4177C42.9796 33.7877 43.2574 34.2964 43.3384 34.8522C43.4194 35.408 43.2983 35.9744 42.9969 36.4492C42.6234 36.951 42.1475 37.3685 41.6005 37.6743C36.3937 40.7136 31.1316 43.6901 25.8932 46.7373C24.0252 47.7137 22.4704 49.1929 21.4061 51.0064C20.3418 52.8199 19.8108 54.8947 19.8737 56.994C19.8737 71.654 19.8737 86.3139 19.8737 100.974C19.8047 103.074 20.3303 105.15 21.3905 106.967C22.4507 108.783 24.0029 110.266 25.8695 111.246C38.5816 118.576 51.2989 125.883 64.0215 133.165C65.8087 134.278 67.874 134.868 69.9818 134.868C72.0896 134.868 74.1549 134.278 75.9421 133.165C88.6963 125.835 101.448 118.506 114.197 111.176C116.046 110.197 117.581 108.721 118.629 106.916C119.676 105.111 120.194 103.049 120.121 100.966C120.121 86.306 120.121 71.6461 120.121 56.9862C120.183 54.8997 119.66 52.8374 118.61 51.0301C117.561 49.2228 116.028 47.7419 114.181 46.753C108.903 43.6901 103.641 40.7294 98.4026 37.69C97.8001 37.362 97.2796 36.903 96.88 36.3471C96.6045 35.878 96.5004 35.3286 96.5852 34.7919C96.6701 34.2552 96.9386 33.7642 97.3454 33.402C97.7406 33.0026 98.2608 32.7492 98.8201 32.6835C99.3794 32.6178 99.9445 32.7438 100.422 33.0407C102.86 34.4073 105.266 35.8287 107.696 37.2188C110.718 38.9545 113.763 40.643 116.753 42.4257C122.236 45.6928 125.147 50.5227 125.178 56.8919C125.236 71.6409 125.236 86.3872 125.178 101.131C125.178 107.5 122.267 112.377 116.745 115.581C103.959 122.995 91.1419 130.359 78.2931 137.673C75.8003 139.195 72.9333 140 70.0094 140C67.0855 140 64.2186 139.195 61.7258 137.673C48.8033 130.343 35.9177 122.938 23.0689 115.456C17.6411 112.314 14.8641 107.422 14.8089 101.154C14.7773 93.7721 14.7773 86.382 14.7773 79.031Z" fill="#F9AC1A"/>
<path d="M40.615 90.5909H47.6386C48.9642 90.5733 50.2776 90.8457 51.4868 91.3892C52.696 91.9326 53.7717 92.734 54.6386 93.737C55.7869 95.0033 55.7161 96.2774 54.3633 97.2684C49.9116 100.548 47.8903 104.976 47.9768 110.45C47.9768 112.33 47.9768 114.21 47.9768 116.09C47.9768 117.663 46.9465 118.347 45.6172 117.561C39.582 114.1 33.5521 110.618 27.5274 107.116C26.6243 106.565 25.867 105.805 25.3194 104.9C24.7719 103.996 24.4501 102.972 24.3813 101.917C23.7599 97.0954 25.9543 92.8561 30.1543 91.2752C31.3423 90.8652 32.5867 90.6423 33.8431 90.6145C36.0847 90.5122 38.3734 90.5909 40.615 90.5909Z" fill="#F9AC1A"/>
<path d="M40.6217 88.8529C37.9746 88.8592 35.4334 87.8136 33.5572 85.9463C31.681 84.0789 30.6235 81.5427 30.6172 78.8956C30.611 76.2485 31.6565 73.7074 33.5239 71.8312C35.3912 69.955 37.9274 68.8974 40.5745 68.8911C41.8852 68.888 43.1837 69.1431 44.3958 69.6419C45.608 70.1406 46.71 70.8732 47.639 71.7978C48.568 72.7224 49.3058 73.821 49.8102 75.0307C50.3147 76.2405 50.5759 77.5377 50.579 78.8484C50.5821 80.1592 50.327 81.4576 49.8283 82.6698C49.3296 83.8819 48.597 84.9839 47.6724 85.9129C46.7477 86.8419 45.6492 87.5797 44.4394 88.0842C43.2297 88.5886 41.9324 88.8498 40.6217 88.8529Z" fill="#F9AC1A"/>
<path d="M99.021 90.5909C101.168 90.5909 103.323 90.6853 105.463 90.5909C110.756 90.3078 116.112 94.4055 115.302 101.799C115.209 103.003 114.81 104.163 114.143 105.17C113.475 106.176 112.561 106.995 111.487 107.548C105.761 110.789 100.091 114.108 94.3963 117.395C92.6109 118.426 91.6828 117.867 91.6592 115.822C91.6592 113.109 91.7142 110.372 91.4704 107.666C91.2885 105.69 90.6863 103.776 89.7042 102.052C88.7221 100.328 87.3828 98.8338 85.776 97.6696C83.7862 96.0965 83.6918 95.0347 85.4772 93.2887C86.346 92.4182 87.382 91.7325 88.5229 91.2729C89.6637 90.8133 90.8857 90.5894 92.1154 90.6145C94.4199 90.5909 96.7165 90.5909 99.021 90.5909Z" fill="#F9AC1A"/>
<path d="M109.025 78.8565C108.952 81.4644 107.864 83.9409 105.994 85.7597C104.123 87.5785 101.617 88.596 99.0085 88.596C96.3996 88.596 93.8935 87.5785 92.0231 85.7597C90.1526 83.9409 89.0653 81.4644 88.9922 78.8565C89.0249 76.221 90.0875 73.7029 91.9526 71.8407C93.8178 69.9784 96.3376 68.9199 98.9731 68.8913C100.288 68.883 101.592 69.1345 102.809 69.6313C104.027 70.1281 105.135 70.8604 106.069 71.7863C107.002 72.7122 107.744 73.8133 108.252 75.0266C108.759 76.2399 109.022 77.5414 109.025 78.8565Z" fill="#F9AC1A"/>
<path d="M69.8343 100.257C72.6343 100.257 75.4579 99.9973 78.2185 100.312C80.3913 100.574 82.3937 101.62 83.8504 103.253C85.3071 104.887 86.1179 106.995 86.1309 109.184C86.2174 112.904 86.1309 116.624 86.1309 120.345C86.1488 120.901 86.011 121.451 85.7331 121.933C85.4552 122.415 85.0482 122.81 84.5579 123.074C80.814 125.229 77.0938 127.423 73.3343 129.539C72.2585 130.168 71.0325 130.495 69.7863 130.483C68.54 130.472 67.32 130.124 66.2556 129.476C62.5668 127.384 58.9174 125.229 55.2444 123.121C54.7146 122.845 54.2743 122.424 53.9748 121.908C53.6754 121.391 53.5292 120.8 53.5534 120.203C53.5534 116.601 53.5534 112.991 53.5534 109.388C53.5616 108.159 53.8125 106.943 54.2918 105.811C54.771 104.679 55.4692 103.653 56.3461 102.791C57.2231 101.93 58.2616 101.25 59.402 100.79C60.5424 100.331 61.7622 100.102 62.9916 100.115H69.8343V100.257Z" fill="#F9AC1A"/>
<path d="M79.7936 88.4438C79.7905 90.4144 79.2032 92.3398 78.106 93.9767C77.0088 95.6135 75.4509 96.8883 73.6292 97.6399C71.8076 98.3915 69.804 98.5862 67.8718 98.1992C65.9396 97.8123 64.1655 96.8612 62.7737 95.4662C61.3819 94.0711 60.435 92.2947 60.0527 90.3616C59.6703 88.4284 59.8697 86.4253 60.6256 84.6055C61.3815 82.7856 62.66 81.2308 64.2995 80.1374C65.9389 79.0441 67.8657 78.4613 69.8363 78.4629C72.4774 78.4753 75.0064 79.5316 76.8718 81.4014C78.7371 83.2712 79.7874 85.8027 79.7936 88.4438Z" fill="#F9AC1A"/>
<path d="M69.8374 1.57324L79.4643 21.071L100.976 24.1935L85.4104 39.3732L89.0834 60.798L69.8374 50.6834L50.5992 60.798L54.2722 39.3732L38.707 24.1935L60.2183 21.071L69.8374 1.57324Z" fill="#F9AC1A"/>
</svg>
