<svg width="140" height="140" viewBox="0 0 140 140" fill="none" xmlns="http://www.w3.org/2000/svg">
<path d="M69.9361 18.9834C63.2857 18.9834 56.7846 20.9528 51.255 24.6426C45.7255 28.3324 41.4159 33.5768 38.8712 39.7125C36.3265 45.8483 35.6611 52.5998 36.9592 59.1132C38.2572 65.6266 41.4603 71.6093 46.1634 76.3047C50.8666 81.0002 56.8584 84.1974 63.3813 85.4921C69.9042 86.7867 76.665 86.1207 82.8088 83.5782C88.9525 81.0356 94.2033 76.7308 97.8969 71.2082C101.591 65.6855 103.561 59.1931 103.56 52.552C103.561 48.1427 102.692 43.7765 101.002 39.7028C99.3127 35.6291 96.836 31.9278 93.7134 28.8103C90.5909 25.6929 86.8838 23.2205 82.8039 21.5343C78.7241 19.8481 74.3515 18.9813 69.9361 18.9834ZM85.4777 69.9332H56.1406C54.8822 69.9332 53.8676 69.1478 53.8676 68.1503C53.8676 67.1528 54.8822 66.3674 56.1406 66.3674H85.4777C86.7361 66.3674 87.7507 67.1528 87.7507 68.1503C87.7507 69.1478 86.7361 69.9332 85.4777 69.9332ZM93.508 45.5225C92.9697 45.7175 92.4176 45.8724 91.8563 45.9859L87.1372 65.7155H55.0709C53.4979 59.1128 51.9249 52.5075 50.3518 45.8995C49.5533 45.9169 48.7721 45.6652 48.1343 45.185C47.4964 44.7048 47.0391 44.0241 46.8361 43.2527C46.8361 43.2056 46.7653 43.1663 46.7417 43.127V41.7525C46.9232 41.288 47.147 40.8411 47.4103 40.4173C47.7076 39.9953 48.0949 39.6444 48.5444 39.3899C48.994 39.1355 49.4944 38.9838 50.0097 38.9458C50.5251 38.9079 51.0424 38.9846 51.5244 39.1705C52.0065 39.3563 52.4412 39.6467 52.7973 40.0206C53.1533 40.3946 53.4219 40.8428 53.5835 41.3329C53.7451 41.823 53.7958 42.3428 53.7319 42.8548C53.668 43.3669 53.4911 43.8584 53.214 44.2939C52.9369 44.7294 52.5664 45.0981 52.1294 45.3733C52.6485 46.0095 53.1597 46.6771 53.7024 47.3211C55.1655 49.173 56.9637 50.7342 59.0035 51.9237C60.0732 52.4892 61.1979 52.929 62.4091 52.3478C63.0409 52.0437 63.6283 51.6553 64.1552 51.1932C65.3577 50.0924 66.3469 48.7798 67.0732 47.3211C68.1114 45.3576 69.0631 43.3941 70.0462 41.3677C69.2709 41.0445 68.6398 40.4506 68.2706 39.697C67.9015 38.9433 67.8195 38.0812 68.04 37.2716C68.2605 36.462 68.7684 35.7602 69.469 35.2971C70.1695 34.8339 71.0149 34.6411 71.8473 34.7545C72.3377 34.8536 72.8007 35.0577 73.2045 35.3527C73.6083 35.6477 73.9432 36.0266 74.1861 36.4634C74.4291 36.9001 74.5744 37.3843 74.6119 37.8825C74.6494 38.3807 74.5783 38.8811 74.4035 39.3492C74.2103 39.8208 73.919 40.246 73.5488 40.5967C73.1786 40.9474 72.7381 41.2155 72.2563 41.3834C73.1149 43.564 74.1459 45.673 75.3395 47.6903C76.0562 49.0249 76.9951 50.228 78.1159 51.2482C78.6434 51.7053 79.2308 52.0884 79.862 52.387C81.0811 52.9683 82.2215 52.5127 83.2676 51.9551C85.2831 50.7798 87.0599 49.2372 88.5058 47.4075C89.0563 46.7713 89.5754 46.1037 90.126 45.4126C89.4255 44.9552 88.8971 44.2783 88.6237 43.4883C88.477 43.0399 88.4246 42.5661 88.4698 42.0966C88.5151 41.627 88.657 41.1719 88.8866 40.7596C89.1163 40.3474 89.4288 39.987 89.8044 39.7011C90.1801 39.4151 90.6109 39.2097 91.0698 39.0978C91.7415 38.9221 92.4501 38.9476 93.1074 39.171C93.7647 39.3945 94.3416 39.806 94.7664 40.3545C95.0829 40.7574 95.3037 41.2267 95.4122 41.7271C95.5207 42.2275 95.5142 42.7459 95.393 43.2435C95.2719 43.741 95.0393 44.2045 94.7128 44.5993C94.3863 44.9941 93.9744 45.3097 93.508 45.5225Z" fill="#F9AC1A"/>
<path d="M54.2288 4.90891C57.3748 5.58437 60.7569 4.39054 64.0366 2.55267C65.3737 1.76726 66.8209 1.22532 68.1895 0.518452C68.7144 0.22898 69.3044 0.0771484 69.9041 0.0771484C70.5038 0.0771484 71.0937 0.22898 71.6187 0.518452C74.4187 1.83271 77.2318 3.14435 80.058 4.45337C80.5936 4.70083 81.1747 4.83456 81.7647 4.84608C84.8636 4.84608 87.9625 4.89321 91.0535 4.84608C91.6107 4.82411 92.1648 4.93944 92.6668 5.18188C93.1689 5.42433 93.6034 5.78644 93.9321 6.23626C95.8512 8.66319 97.7782 11.0823 99.7366 13.4699C100.146 13.9547 100.649 14.3526 101.215 14.6402C103.897 15.9754 106.587 17.2949 109.309 18.5673C109.923 18.8245 110.461 19.2333 110.874 19.7553C111.287 20.2774 111.56 20.8955 111.668 21.5518C112.274 24.3558 112.871 27.1597 113.564 29.9322C113.78 30.748 114.154 31.5137 114.665 32.1863C116.432 34.5059 118.251 36.7889 120.123 39.0351C120.546 39.5225 120.839 40.1079 120.976 40.7376C121.114 41.3674 121.091 42.0215 120.91 42.6402C120.257 45.3813 119.714 48.1381 118.967 50.8713C118.448 52.7563 119.242 54.4135 119.557 56.1414C119.934 58.16 120.493 60.1392 120.949 62.1341C121.114 62.7353 121.128 63.3676 120.991 63.9756C120.854 64.5836 120.569 65.1487 120.162 65.6214C118.755 67.2943 117.52 69.1165 116.033 70.7187C114.416 72.494 113.37 74.7128 113.029 77.0884C112.675 79.1462 112.124 81.1726 111.676 83.2225C111.557 83.8602 111.278 84.4574 110.865 84.9586C110.453 85.4598 109.92 85.8488 109.316 86.0893C106.603 87.3381 103.905 88.6419 101.223 90.0163C100.656 90.2994 100.155 90.6981 99.7524 91.1866C97.8097 93.5428 95.9142 95.8991 94.0265 98.3182C93.6793 98.8077 93.2139 99.2018 92.6736 99.464C92.1333 99.7262 91.5355 99.8481 90.9355 99.8183C87.8838 99.7633 84.8322 99.779 81.7805 99.8183C81.1905 99.8298 80.6093 99.9635 80.0737 100.211C77.2344 101.523 74.4187 102.858 71.6187 104.24C71.0905 104.524 70.5 104.673 69.9001 104.673C69.3003 104.673 68.7098 104.524 68.1816 104.24C65.1535 102.748 62.2198 100.753 59.0029 100.015C55.7861 99.2764 52.3333 99.7947 48.9748 99.8419C48.3532 99.8696 47.7346 99.7401 47.1764 99.4655C46.6182 99.1909 46.1384 98.7801 45.7816 98.271C43.9333 95.9148 42.0614 93.5585 40.1423 91.2023C39.7061 90.688 39.1712 90.266 38.5692 89.9614C35.9344 88.6419 33.2838 87.3224 30.594 86.1128C29.9529 85.8481 29.391 85.4228 28.9625 84.878C28.534 84.3332 28.2535 83.6873 28.1479 83.0026C27.5737 80.3715 27.0232 77.7325 26.3232 75.1485C26.0306 74.0556 25.5401 73.0254 24.876 72.1089C23.2243 69.8626 21.4468 67.7027 19.6771 65.5507C19.2691 65.0787 18.9839 64.5136 18.8467 63.9054C18.7096 63.2971 18.7246 62.6645 18.8906 62.0635C19.5355 59.3145 20.0861 56.5656 20.849 53.8323C21.376 51.9473 20.5973 50.2901 20.2827 48.5622C19.9524 46.5358 19.4097 44.5487 18.9378 42.5538C18.7676 41.9518 18.7504 41.317 18.8877 40.7068C19.025 40.0965 19.3126 39.5301 19.7243 39.0587C21.1557 37.3465 22.4142 35.4851 23.9322 33.8593C25.5276 32.1099 26.5558 29.9196 26.8816 27.576C27.2513 25.5182 27.794 23.4839 28.2265 21.434C28.3407 20.7848 28.6167 20.1747 29.029 19.66C29.4414 19.1452 29.9769 18.7425 30.5861 18.4887C33.276 17.2713 35.9265 15.9675 38.5692 14.6402C39.1734 14.3388 39.7088 13.9164 40.1423 13.3992C42.085 11.043 43.9805 8.68675 45.8602 6.26768C46.1954 5.79598 46.6442 5.41629 47.1653 5.16369C47.6863 4.91109 48.2627 4.79375 48.8411 4.82252C50.3984 4.90891 51.9479 4.90891 54.2288 4.90891ZM107.586 52.5757C107.589 45.1376 105.384 37.8654 101.25 31.6783C97.1156 25.4912 91.2374 20.6667 84.3582 17.8145C77.479 14.9623 69.9075 14.2105 62.6006 15.654C55.2936 17.0975 48.5792 20.6715 43.3056 25.9245C38.0321 31.1774 34.4363 37.8735 32.9724 45.1666C31.5086 52.4597 32.2426 60.0224 35.0815 66.899C37.9205 73.7757 42.737 79.6577 48.9225 83.8017C55.1079 87.9457 62.3847 90.1657 69.8333 90.1813C79.8239 90.1627 89.4014 86.1977 96.4747 79.152C103.548 72.1063 107.542 62.5522 107.586 52.5757Z" fill="#F9AC1A"/>
<path d="M63.9346 105.567C60.1987 103.211 58.7594 102.818 54.6223 102.818C52.774 102.818 50.9257 102.779 49.1167 102.818C48.0192 102.869 46.9263 102.647 45.9364 102.171C44.9464 101.695 44.0906 100.981 43.4459 100.093C41.92 98.1294 40.4099 96.1658 38.7818 94.273C37.8174 93.2867 36.793 92.3608 35.7144 91.5005L24.829 105.748L14.7773 119.587H35.3605L43.8785 139.222L65.9009 105.889" fill="#F9AC1A"/>
<path d="M75.7356 105.567C79.4715 103.211 80.9108 102.818 85.0479 102.818C86.8962 102.818 88.7445 102.779 90.5535 102.818C91.651 102.869 92.7439 102.647 93.7338 102.171C94.7238 101.695 95.5796 100.981 96.2243 100.093C97.7502 98.1294 99.2603 96.1658 100.888 94.273C101.853 93.2867 102.877 92.3608 103.956 91.5005L114.802 105.74L124.893 119.587H104.31L95.8311 139.222L73.8086 105.889" fill="#F9AC1A"/>
</svg>
