<svg width="140" height="140" viewBox="0 0 140 140" fill="none" xmlns="http://www.w3.org/2000/svg">
<path d="M109.522 83.7085C113.243 83.7054 116.88 84.8073 119.974 86.8746C123.068 88.942 125.479 91.8817 126.902 95.3214C128.324 98.7612 128.695 102.546 127.966 106.197C127.237 109.847 125.442 113.199 122.807 115.828C120.173 118.456 116.818 120.243 113.168 120.962C109.518 121.681 105.736 121.3 102.303 119.867C98.8692 118.433 95.9381 116.012 93.8808 112.911C91.8235 109.809 90.7326 106.166 90.7462 102.444C90.7588 97.4694 92.7428 92.7034 96.2627 89.1911C99.7827 85.6788 104.551 83.7071 109.522 83.7085ZM107.601 103.895C106.426 102.708 105.156 101.411 103.897 100.129C102.876 99.1128 101.568 99.0704 100.653 99.9865C99.7374 100.903 99.7903 102.216 100.801 103.233C102.565 104.998 104.329 106.763 106.093 108.528C107.178 109.587 108.406 109.624 109.491 108.56C110.279 107.781 111.046 106.971 111.824 106.203L118.344 99.6264C118.669 99.3452 118.901 98.9717 119.009 98.5555C119.116 98.1393 119.095 97.7002 118.947 97.2965C118.828 96.9087 118.6 96.5634 118.291 96.3015C117.981 96.0396 117.603 95.8721 117.201 95.8191C116.824 95.769 116.44 95.8135 116.085 95.9485C115.729 96.0834 115.413 96.3046 115.164 96.5922C112.655 98.991 110.173 101.395 107.601 103.895Z" fill="#F9AC1A"/>
<path fill-rule="evenodd" clip-rule="evenodd" d="M11.6562 17.1108H111.88V78.768C111.334 78.7307 110.783 78.7118 110.228 78.7118C96.9614 78.7118 86.207 89.5201 86.207 102.853C86.207 111.717 90.9613 119.466 98.047 123.664H11.6562V17.1108ZM74.3679 70.6643C80.5235 66.5144 84.575 59.4564 84.575 51.4473C84.575 38.6765 74.2739 28.3237 61.5668 28.3237C48.8597 28.3237 38.5586 38.6765 38.5586 51.4473C38.5586 59.6437 42.8019 66.8442 49.2012 70.9508L42.8008 112.102H80.8129L74.3679 70.6643Z" fill="#FFAE00"/>
</svg>
