<svg width="140" height="140" viewBox="0 0 140 140" fill="none" xmlns="http://www.w3.org/2000/svg">
<path d="M113.958 64.1715C111.963 60.1265 109.15 57.0236 105.043 55.2297C102.487 54.1076 99.8132 53.3873 96.994 53.9899C95.7197 54.2622 94.5753 54.9583 93.7476 55.9646C92.9198 56.9709 92.4575 58.2281 92.4362 59.5309C92.3946 61.6087 92.3877 63.6866 92.4362 65.7645C92.4961 66.0604 92.4415 66.368 92.2834 66.6251C92.1252 66.8822 91.8753 67.0698 91.5842 67.1497C90.6976 67.4614 89.8456 67.8839 88.8135 68.3272C91.3071 56.0123 88.1208 45.6645 78.2156 37.8517C75.2463 35.4809 71.8129 33.7591 68.1369 32.7975C64.4609 31.8359 60.6241 31.6559 56.8742 32.2691C53.1078 32.7847 49.4806 34.0407 46.2019 35.9646C42.9231 37.8884 40.0576 40.4422 37.7704 43.4786C35.4833 46.515 33.8198 49.974 32.8758 53.6563C31.9319 57.3385 31.7261 61.1712 32.2704 64.9333C34.5354 81.0992 50.8687 93.9059 69.7857 88.351C69.7754 89.2495 69.8286 90.1475 69.945 91.0384C70.4853 93.7674 72.6395 95.4228 75.6734 95.4712C78.1463 95.5128 80.6122 95.4712 83.0781 95.5128C83.6984 95.5437 84.2938 95.7663 84.7821 96.15C86.8727 97.7873 89.3271 98.8968 91.9375 99.3846C91.9375 100.001 91.9375 100.638 91.9375 101.262C91.8682 102.224 91.2794 102.55 90.372 102.155C88.7512 101.462 87.1649 100.659 85.5233 100.029C85.2596 99.9386 84.9806 99.9014 84.7025 99.9193C84.4244 99.9371 84.1525 100.01 83.9024 100.133C80.267 102.198 76.3912 103.807 72.3624 104.926C71.8321 105.113 71.3967 105.501 71.1503 106.006C70.1597 108.347 69.2523 110.723 68.3796 113.105C68.3273 113.373 68.1747 113.61 67.9532 113.768C67.7317 113.927 67.458 113.994 67.1882 113.957C62.9836 113.957 58.786 113.923 54.5884 113.957C54.2958 114.001 53.9975 113.933 53.7533 113.766C53.5091 113.599 53.3373 113.346 53.2723 113.057C52.4065 110.723 51.5475 108.375 50.5847 106.075C50.314 105.537 49.8406 105.129 49.2686 104.939C45.2858 103.816 41.4512 102.22 37.8464 100.188C37.3022 99.9283 36.6775 99.8935 36.1078 100.091C33.8427 101.019 31.6054 102.044 29.3819 103.076C29.123 103.259 28.8038 103.335 28.4904 103.288C28.177 103.242 27.8935 103.077 27.6987 102.827C24.7618 99.8209 21.7833 96.8634 18.7978 93.9198C18.5803 93.7566 18.4338 93.516 18.3887 93.2479C18.3435 92.9797 18.4032 92.7045 18.5554 92.4791C19.636 90.1796 20.6334 87.8593 21.6309 85.5113C21.7224 85.2504 21.761 84.974 21.7443 84.6981C21.7277 84.4221 21.6561 84.1523 21.5339 83.9044C19.4583 80.2671 17.8612 76.377 16.7821 72.3306C16.6902 72.0702 16.5473 71.8307 16.3618 71.6262C16.1763 71.4216 15.9518 71.2561 15.7016 71.1393C13.3188 70.1557 10.9498 69.29 8.60163 68.3203C8.26222 68.1818 7.8189 67.7246 7.81198 67.4129C7.77734 62.8278 7.77734 58.2426 7.77734 53.6297C10.4026 52.6254 12.9516 51.6072 15.5353 50.6722C15.8591 50.5853 16.1521 50.4095 16.381 50.1647C16.6099 49.9198 16.7657 49.6158 16.8306 49.2869C17.8692 45.2357 19.4636 41.3478 21.5685 37.7339C21.677 37.5022 21.7383 37.2512 21.749 36.9956C21.7598 36.74 21.7196 36.4848 21.6309 36.2448C20.6611 33.8968 19.6221 31.5765 18.5554 29.27C18.3989 29.0237 18.3433 28.7265 18.4 28.4402C18.4568 28.1539 18.6215 27.9005 18.8602 27.7324C21.8248 24.8234 24.7618 21.8866 27.671 18.9222C27.8526 18.668 28.1249 18.4931 28.4317 18.4339C28.7385 18.3746 29.0563 18.4353 29.3196 18.6036C31.5846 19.6633 33.8912 20.6191 36.1563 21.665C36.4052 21.8112 36.6899 21.8854 36.9785 21.8792C37.2672 21.8731 37.5485 21.787 37.791 21.6304C41.3972 19.4881 45.2832 17.8564 49.3379 16.782C49.6195 16.6816 49.8781 16.5256 50.0982 16.3234C50.3184 16.1211 50.4956 15.8766 50.6194 15.6045C51.5545 13.3188 52.3718 10.9501 53.3208 8.63669C53.4168 8.43245 53.5586 8.2531 53.7352 8.11256C53.9118 7.97201 54.1184 7.87406 54.339 7.82632C58.883 7.77783 63.4269 7.77783 68.0401 7.77783C69.0722 10.4375 70.0697 13.0972 71.1572 15.7153C71.2646 15.9469 71.4174 16.1545 71.6066 16.3258C71.7958 16.4972 72.0175 16.6287 72.2585 16.7127C76.3736 17.8414 80.33 19.4844 84.034 21.6026C84.2696 21.7023 84.5229 21.7536 84.7787 21.7536C85.0345 21.7536 85.2877 21.7023 85.5233 21.6026C87.8692 20.6284 90.1919 19.601 92.4916 18.5205C92.721 18.3757 92.997 18.3237 93.2634 18.3752C93.5297 18.4267 93.7665 18.5777 93.9255 18.7975C96.8763 21.7827 99.8409 24.761 102.84 27.6908C103.072 27.8732 103.227 28.1365 103.273 28.4281C103.32 28.7196 103.254 29.0179 103.09 29.2631C102.057 31.4934 101.095 33.7513 100.063 35.9816C99.8984 36.2746 99.8198 36.6079 99.8357 36.9434C99.8516 37.2789 99.9614 37.6032 100.153 37.8794C102.25 41.4683 103.86 45.3209 104.939 49.3354C105.045 49.6145 105.206 49.8697 105.411 50.0861C105.617 50.3025 105.864 50.4758 106.137 50.596C108.437 51.5587 110.799 52.383 113.113 53.3249C113.322 53.4216 113.508 53.5648 113.654 53.7436C113.8 53.9224 113.904 54.1321 113.958 54.3569C113.985 57.6469 113.958 60.8953 113.958 64.1715Z" fill="#F9AC1A"/>
<path d="M128.073 115.63H84.9375C84.5943 114.528 85.0404 113.801 85.7885 113.087C89.0371 109.998 92.24 106.878 95.3971 103.729C95.8065 103.278 96.049 102.698 96.0834 102.087C96.1658 99.8494 96.0834 97.605 96.0834 95.4229C94.4774 95.1666 92.9469 95.0142 91.4713 94.6539C89.4915 94.2063 87.7177 93.1013 86.4337 91.5159C86.1176 91.2115 85.6969 91.0427 85.2601 91.0448C82.2128 91.0033 79.1655 91.0448 76.1251 91.0448C74.5465 91.0448 74.1622 90.6569 74.1484 89.0567C74.1484 87.7613 74.1484 86.459 74.1484 85.1636C74.1484 81.0557 76.0839 78.1947 79.7763 76.5322C84.9581 74.2046 90.1467 71.884 95.3559 69.6049C95.7161 69.5072 96.0285 69.2801 96.2345 68.9663C96.4405 68.6525 96.5259 68.2736 96.4746 67.9008C96.406 65.3031 96.4746 62.7053 96.4746 60.1145C96.4746 58.1056 97.1198 57.5099 99.1238 57.5584C104.93 57.7108 110.29 62.9963 110.496 68.8637C110.448 69.2975 110.557 69.7343 110.803 70.0933C111.049 70.4524 111.415 70.7095 111.835 70.8172C116.028 72.452 119.034 75.5831 121.512 79.2269C125.842 85.4076 128.138 92.8061 128.073 100.376C128.032 105.01 128.073 109.638 128.073 114.272V115.63Z" fill="#F9AC1A"/>
<path d="M106.545 132.222H82.792C81.0317 132.222 80.7852 131.984 80.7852 130.186C80.7852 127.344 80.7852 124.502 80.7852 121.661C80.7852 120.135 81.1208 119.778 82.6002 119.778H130.359C131.921 119.778 132.222 120.121 132.222 121.717C132.222 124.605 132.222 127.491 132.222 130.375C132.222 131.893 131.907 132.222 130.428 132.222C122.464 132.222 114.503 132.222 106.545 132.222Z" fill="#F9AC1A"/>
<path d="M56.9309 62.8253C60.4484 59.3536 63.9522 55.9163 67.4286 52.4789C68.5874 51.3377 69.6982 50.1484 70.857 49.0072C72.6877 47.2061 75.1973 47.1305 76.9321 48.801C77.3622 49.1928 77.7058 49.6704 77.9409 50.2031C78.1761 50.7359 78.2976 51.312 78.2976 51.8946C78.2976 52.4772 78.1761 53.0533 77.9409 53.5861C77.7058 54.1188 77.3622 54.5964 76.9321 54.9882C71.3781 60.6483 65.8036 66.2969 60.2084 71.9341C58.3365 73.7903 55.8818 73.7903 53.9482 71.8723C50.8992 68.8612 47.8708 65.8341 44.863 62.7909C44.4351 62.4032 44.0899 61.9329 43.8479 61.408C43.606 60.8832 43.4723 60.3148 43.455 59.7369C43.4378 59.1589 43.5372 58.5835 43.7473 58.0451C43.9574 57.5067 44.2739 57.0164 44.6778 56.6037C46.4263 54.8507 48.9633 54.8919 50.8489 56.755C52.9471 58.7623 54.963 60.8522 56.9309 62.8253Z" fill="#F9AC1A"/>
</svg>
