<svg width="25" height="24" viewBox="0 0 25 24" fill="none" xmlns="http://www.w3.org/2000/svg">
<path fill-rule="evenodd" clip-rule="evenodd" d="M12.5 16C14.3565 16 16.137 15.2625 17.4497 13.9497C18.7625 12.637 19.5 10.8565 19.5 9C19.5 7.14348 18.7625 5.36301 17.4497 4.05025C16.137 2.7375 14.3565 2 12.5 2C10.6435 2 8.86301 2.7375 7.55025 4.05025C6.2375 5.36301 5.5 7.14348 5.5 9C5.5 10.8565 6.2375 12.637 7.55025 13.9497C8.86301 15.2625 10.6435 16 12.5 16ZM12.5 6C12.216 6 12.026 6.34 11.646 7.023L11.548 7.199C11.44 7.393 11.386 7.489 11.302 7.553C11.217 7.617 11.112 7.641 10.902 7.688L10.712 7.732C9.974 7.899 9.605 7.982 9.517 8.264C9.429 8.546 9.681 8.841 10.184 9.429L10.314 9.581C10.457 9.748 10.529 9.831 10.561 9.935C10.593 10.039 10.582 10.15 10.561 10.373L10.541 10.576C10.465 11.361 10.427 11.754 10.656 11.928C10.886 12.102 11.232 11.943 11.923 11.625L12.101 11.543C12.298 11.453 12.396 11.408 12.5 11.408C12.604 11.408 12.702 11.453 12.899 11.543L13.077 11.625C13.768 11.944 14.114 12.102 14.344 11.928C14.574 11.754 14.535 11.361 14.459 10.576L14.439 10.373C14.418 10.15 14.407 10.039 14.439 9.935C14.471 9.831 14.543 9.748 14.686 9.581L14.816 9.429C15.319 8.841 15.571 8.547 15.483 8.264C15.395 7.982 15.026 7.899 14.288 7.732L14.098 7.688C13.888 7.641 13.783 7.618 13.698 7.553C13.614 7.489 13.56 7.393 13.452 7.199L13.354 7.023C12.974 6.34 12.784 6 12.5 6Z" fill="#FFAE00"/>
<path d="M4.99533 12.9932L3.49233 14.5482C2.95233 15.1082 2.68233 15.3872 2.58833 15.6242C2.37533 16.1642 2.55833 16.7622 3.02133 17.0462C3.22533 17.1702 3.59133 17.2092 4.32633 17.2862C4.74033 17.3302 4.94833 17.3522 5.12133 17.4192C5.51033 17.5682 5.81133 17.8812 5.95633 18.2832C6.02033 18.4632 6.04133 18.6772 6.08333 19.1062C6.15833 19.8662 6.19633 20.2462 6.31633 20.4572C6.59033 20.9372 7.16933 21.1262 7.69033 20.9052C7.91833 20.8092 8.18833 20.5292 8.72933 19.9702L11.2113 17.4002C9.90366 17.1998 8.66081 16.697 7.58168 15.9318C6.50255 15.1665 5.61694 14.161 4.99533 12.9932ZM13.7903 17.4012L16.2723 19.9712C16.8123 20.5312 17.0823 20.8102 17.3103 20.9072C17.8313 21.1272 18.4103 20.9382 18.6843 20.4582C18.8043 20.2482 18.8413 19.8682 18.9163 19.1082C18.9593 18.6782 18.9803 18.4642 19.0443 18.2842C19.1883 17.8822 19.4903 17.5692 19.8793 17.4202C20.0523 17.3532 20.2593 17.3322 20.6743 17.2882C21.4083 17.2102 21.7753 17.1712 21.9793 17.0472C22.4423 16.7632 22.6253 16.1642 22.4123 15.6252C22.3183 15.3882 22.0483 15.1082 21.5083 14.5492L20.0053 12.9932C19.3837 14.161 18.4981 15.1675 17.419 15.9328C16.3398 16.698 15.097 17.2008 13.7893 17.4012" fill="#FFAE00"/>
</svg>
