<svg width="1440" height="248" viewBox="0 0 1440 248" fill="none" xmlns="http://www.w3.org/2000/svg">
<path d="M962.328 229.069C962.328 228.729 962.468 228.189 962.248 227.889C962.028 227.589 961.328 227.559 961.578 227.049H960.638C960.569 227.064 960.498 227.064 960.428 227.049C960.351 226.999 960.292 226.925 960.258 226.839C960.008 226.379 959.968 225.989 959.398 226.229C959.128 226.349 958.078 226.749 957.848 226.439C957.816 226.38 957.806 226.31 957.821 226.244C957.836 226.178 957.874 226.119 957.928 226.079C956.928 225.749 955.928 226.369 954.868 226.339C954.537 226.288 954.2 226.288 953.868 226.339C953.458 226.487 953.107 226.764 952.868 227.129C952.439 227.788 951.86 228.336 951.178 228.729C950.458 228.972 949.696 229.068 948.938 229.009L946.368 229.079C946.28 229.099 946.187 229.099 946.098 229.079C945.948 228.999 945.908 228.799 945.878 228.629C945.87 228.469 945.825 228.313 945.747 228.173C945.669 228.032 945.56 227.911 945.428 227.819C945.138 227.669 944.718 227.759 944.528 227.499C944.338 227.239 944.528 226.889 944.388 226.619C944.178 226.169 943.388 226.319 943.138 225.879C942.888 225.439 943.268 224.879 942.628 224.879C942.147 224.937 941.663 224.971 941.178 224.979C940.938 224.984 940.701 224.917 940.498 224.787C940.295 224.657 940.135 224.47 940.038 224.249C939.868 223.709 940.278 223.169 940.398 222.619C940.413 222.585 940.421 222.547 940.421 222.509C940.421 222.471 940.413 222.434 940.398 222.399C940.347 222.325 940.274 222.269 940.188 222.239C939.472 221.95 938.819 221.522 938.268 220.979C938.156 220.897 938.066 220.789 938.006 220.663C937.947 220.537 937.92 220.398 937.928 220.259C937.988 219.919 938.368 219.779 938.648 219.589C939.868 218.769 939.338 216.639 937.758 216.839C937.358 216.889 936.868 217.099 936.598 216.839C936.476 216.63 936.414 216.392 936.418 216.149C936.148 214.359 933.918 215.459 932.948 214.609C932.798 214.469 932.668 214.279 932.468 214.219C932.333 214.194 932.194 214.194 932.058 214.219C930.339 214.491 928.599 214.608 926.858 214.569C926.773 214.551 926.684 214.551 926.598 214.569C926.526 214.607 926.462 214.658 926.408 214.719C926.118 215.009 925.408 215.469 925.408 215.899C925.402 216.011 925.419 216.122 925.456 216.227C925.494 216.331 925.553 216.428 925.628 216.509C925.958 216.869 926.258 216.959 926.258 217.509C926.258 217.879 926.448 218.959 926.058 219.179C925.906 219.245 925.744 219.285 925.578 219.299C925.109 219.389 925.398 219.649 925.228 219.879C924.945 220.183 924.569 220.383 924.158 220.449C924.09 220.469 924.017 220.469 923.948 220.449C923.808 220.399 923.768 220.239 923.728 220.099C923.488 219.099 923.208 218.869 922.218 219.019C922.109 219.023 922.003 219.054 921.908 219.109C921.779 219.216 921.69 219.364 921.658 219.529C921.457 220.408 920.941 221.184 920.208 221.709C919.789 221.939 919.378 221.769 919.208 222.249C919.039 222.729 919.448 223.249 918.938 223.489C918.428 223.729 916.598 223.009 916.938 224.269C917.068 224.719 917.548 224.679 917.728 224.999C917.908 225.319 917.548 225.849 918.158 226.099C918.232 226.113 918.299 226.152 918.348 226.209C918.363 226.262 918.363 226.317 918.348 226.369L918.268 227.199C918.279 227.235 918.279 227.273 918.268 227.309C918.268 227.389 918.108 227.369 918.018 227.379C917.928 227.389 917.698 227.729 917.738 227.969C917.778 228.209 918.078 229.149 917.548 229.149C917.018 229.149 915.678 229.479 915.408 229.019C915.328 228.869 915.288 228.689 915.148 228.589C915.008 228.489 914.488 228.689 914.148 228.589C914.028 228.113 913.977 227.621 913.998 227.129C913.741 227.184 913.476 227.184 913.218 227.129C913.088 227.101 912.971 227.031 912.884 226.93C912.798 226.829 912.746 226.702 912.738 226.569C912.738 226.319 912.978 226.079 912.868 225.859C912.815 225.77 912.729 225.706 912.628 225.679C912.373 225.614 912.105 225.613 911.849 225.676C911.592 225.739 911.355 225.863 911.158 226.039C910.763 226.392 910.331 226.701 909.868 226.959C909.766 227.011 909.653 227.038 909.538 227.038C909.424 227.038 909.311 227.011 909.208 226.959C909.039 226.808 908.926 226.603 908.888 226.379C908.568 225.379 907.338 224.599 908.348 223.629C908.466 223.54 908.567 223.432 908.648 223.309C908.692 223.204 908.715 223.093 908.718 222.979C908.735 222.714 908.698 222.449 908.61 222.198C908.523 221.947 908.386 221.717 908.208 221.519C907.839 221.2 907.397 220.976 906.922 220.866C906.446 220.756 905.95 220.764 905.478 220.889C905.373 220.914 905.264 220.914 905.158 220.889C905.079 220.854 905.01 220.799 904.958 220.729C904.711 220.454 904.569 220.1 904.558 219.729C904.578 219.5 904.578 219.269 904.558 219.039C904.388 218.189 903.118 218.709 902.808 217.989C902.783 217.901 902.753 217.814 902.718 217.729C902.548 217.439 902.128 217.499 901.798 217.479C901.486 217.452 901.181 217.367 900.898 217.229C900.204 216.862 899.469 216.577 898.708 216.379C897.898 216.269 897.008 216.329 896.188 216.299C896.097 216.288 896.005 216.309 895.928 216.359C895.885 216.417 895.861 216.487 895.858 216.559C895.799 216.749 895.696 216.923 895.557 217.065C895.418 217.208 895.247 217.316 895.058 217.379C894.487 217.529 893.905 217.639 893.318 217.709C893.016 217.772 892.723 217.876 892.448 218.019C892.198 218.149 891.988 218.429 891.738 218.539C891.488 218.649 891.168 218.409 890.868 218.419C890.568 218.429 890.418 218.809 890.348 219.129C890.26 219.535 890.086 219.916 889.839 220.249C889.626 220.439 889.488 220.697 889.448 220.979C889.448 221.239 889.659 221.439 889.818 221.639C889.978 221.839 890.099 222.139 889.958 222.349C889.897 222.428 889.814 222.487 889.721 222.52C889.627 222.554 889.526 222.561 889.428 222.539C889.228 222.539 889.039 222.439 888.839 222.419C888.638 222.399 888.678 222.419 888.638 222.489C888.598 222.559 888.638 222.639 888.638 222.709C888.798 223.059 889.638 224.389 889.028 224.709C888.928 224.744 888.824 224.764 888.718 224.769C888.568 224.817 888.439 224.914 888.352 225.045C888.264 225.176 888.224 225.333 888.238 225.489C888.284 225.801 888.436 226.087 888.668 226.299C888.868 226.499 889.128 226.719 889.078 226.999C889.029 227.279 888.628 227.419 888.308 227.429C887.248 227.489 887.598 228.159 887.018 228.739C886.878 228.846 886.713 228.916 886.538 228.943C886.363 228.969 886.184 228.95 886.018 228.889C884.428 228.489 884.718 227.099 884.678 225.809C884.583 224.931 884.357 224.071 884.008 223.259C883.852 222.673 883.584 222.123 883.218 221.639C882.896 221.321 882.512 221.072 882.089 220.909C879.936 220.138 877.664 219.756 875.378 219.779C875.138 219.746 874.892 219.763 874.658 219.829C874.305 220.009 874.008 220.282 873.798 220.619C873.379 221.169 872.888 221.66 872.339 222.079C871.912 222.376 871.514 222.71 871.148 223.079C870.738 223.549 870.818 224.079 870.688 224.699C870.532 225.299 870.293 225.875 869.978 226.409C869.95 226.473 869.909 226.531 869.858 226.579C869.598 226.769 869.058 226.489 868.798 226.429C868.736 226.423 868.677 226.398 868.628 226.359C868.593 226.317 868.562 226.27 868.538 226.219L867.888 224.549C867.851 224.445 867.794 224.35 867.718 224.269C867.438 224.029 866.348 224.219 865.988 224.219C865.942 224.209 865.894 224.209 865.848 224.219C865.793 224.255 865.751 224.308 865.728 224.369C865.618 224.589 865.508 224.999 865.278 225.029C865.048 225.059 864.538 224.589 864.368 224.489L862.608 223.489L860.528 222.969C859.82 222.899 859.107 222.899 858.398 222.969C857.42 222.889 856.435 222.98 855.488 223.239C855.129 223.392 854.758 223.516 854.378 223.609C853.481 223.667 852.584 223.498 851.768 223.119C850.83 222.85 849.85 222.758 848.878 222.849C848.723 222.849 848.568 222.869 848.418 222.909C848.108 223.039 847.828 223.233 847.598 223.479C846.963 223.998 846.169 224.284 845.348 224.289C844.516 224.227 843.705 223.992 842.968 223.599C841.132 223.056 839.166 223.147 837.388 223.859C836.868 224.101 836.274 224.137 835.728 223.959C835.271 223.647 834.794 223.366 834.298 223.119C834.092 223.067 833.881 223.041 833.668 223.039C832.896 222.971 832.118 222.988 831.348 223.089C830.424 223.276 829.531 223.596 828.698 224.039C828.598 224.106 828.479 224.137 828.358 224.129C828.264 224.105 828.178 224.057 828.108 223.989C827.918 223.989 827.258 223.299 827.108 223.159C826.969 223.032 826.859 222.878 826.783 222.706C826.707 222.534 826.668 222.347 826.668 222.159C826.668 221.819 826.898 221.499 826.668 221.159C826.367 220.906 825.992 220.755 825.598 220.729C825.158 220.649 824.718 220.609 824.278 220.559C824.073 220.529 823.864 220.529 823.658 220.559C823.068 220.659 822.428 221.409 821.968 221.769H819.698V216.849H821.298L805.738 201.289L787.398 215.649H789.858L789.698 218.209H782.998C781.539 218.11 780.074 218.3 778.688 218.769C777.268 219.309 775.618 220.389 774.058 220.409C772.498 220.429 770.388 219.539 768.728 219.249C762.968 218.249 757.058 218.459 751.218 218.689C747.548 218.829 743.648 218.889 740.088 219.859C737.088 220.699 733.938 223.069 730.638 222.059C729.618 221.674 728.653 221.156 727.768 220.519C724.361 218.537 720.75 216.928 716.998 215.719C713.359 214.327 709.443 213.813 705.568 214.219C702.198 214.649 699.028 216.299 695.858 217.479H692.658C692.658 217.479 692.788 217.959 692.658 217.959H690.488L689.718 216.409L688.858 216.459V215.519H687.998V216.409H687.218V217.499H682.468V216.499H680.888C680.888 216.499 681.108 215.889 680.888 215.889H678.568V215.299L677.688 214.929L676.798 214.529L674.798 215.169V216.169L672.158 216.109V217.499C671.025 217.526 669.89 217.456 668.768 217.289C668.659 217.202 668.562 217.101 668.478 216.989C667.789 216.091 667.019 215.258 666.178 214.499C666.076 214.397 665.958 214.313 665.828 214.249C665.639 214.182 665.439 214.155 665.238 214.169C664.846 214.157 664.453 214.191 664.068 214.269C663.838 214.319 663.608 214.419 663.368 214.489C662 214.957 660.523 215.002 659.128 214.619C658.18 214.316 657.257 213.938 656.368 213.489C655.475 213.047 654.51 212.766 653.518 212.659C652.158 212.589 651.378 213.259 650.288 213.909C649.684 214.258 648.977 214.386 648.288 214.269L635.008 212.949L625.628 212.029H625.578C623.578 211.829 621.798 210.519 619.978 209.739C618.158 208.959 615.978 208.669 614.718 206.949C614.478 206.629 614.218 206.149 613.818 206.009C613.287 205.874 612.73 205.874 612.198 206.009C612.198 206.009 612.098 206.009 612.078 206.059C612.064 206.098 612.064 206.141 612.078 206.179V207.179C612.098 207.272 612.098 207.367 612.078 207.459C611.838 207.959 610.028 207.589 609.528 207.609C608.927 207.709 608.31 207.636 607.748 207.399C607.188 207.079 606.928 206.459 606.308 206.249C605.634 206.026 604.899 206.073 604.258 206.379C603.068 206.959 602.388 208.379 601.128 208.739C600.708 208.849 600.272 208.89 599.838 208.859C598.991 208.954 598.134 208.917 597.298 208.749C596.688 208.519 596.298 207.839 595.868 207.399C595.078 206.589 593.978 206.809 592.918 206.789H590.818L586.268 206.889C583.716 207.071 581.154 207.088 578.598 206.939C576.598 206.729 574.688 206.219 572.748 205.839C570.808 205.459 568.568 205.009 566.478 204.589C565.281 204.341 564.062 204.21 562.838 204.199H560.048H554.488C553.819 204.177 553.15 204.217 552.488 204.319C551.432 204.593 550.398 204.951 549.398 205.389C548.271 205.785 547.084 205.984 545.888 205.979C545.278 205.981 544.67 205.907 544.078 205.759C543.534 205.553 543.008 205.299 542.508 204.999C541.718 204.609 540.858 204.329 540.048 203.999C539.961 203.963 539.871 203.937 539.778 203.919C539.645 203.926 539.515 203.964 539.398 204.029C538.795 204.196 538.221 204.456 537.698 204.799C537.188 205.029 536.698 205.269 536.158 205.489C535.086 206.038 533.863 206.218 532.678 205.999C532.104 205.832 531.545 205.614 531.008 205.349L528.678 204.259C527.681 203.693 526.564 203.371 525.418 203.319C524.318 203.319 523.348 204.389 522.628 205.159C522.502 205.263 522.405 205.397 522.347 205.55C522.289 205.703 522.272 205.868 522.298 206.029C521.194 205.934 520.083 205.934 518.978 206.029H508.708C507.111 206.029 505.533 206.37 504.078 207.029C502.508 207.739 500.918 208.389 499.318 209.029C499.161 209.112 498.986 209.156 498.808 209.159C498.617 209.134 498.435 209.062 498.278 208.949C497.517 208.596 496.799 208.156 496.138 207.639L493.818 206.249C492.258 205.329 490.688 204.409 489.138 203.479C488.938 203.347 488.719 203.246 488.488 203.179C488.293 203.15 488.094 203.15 487.898 203.179C486.488 203.179 485.068 203.249 483.658 203.229C483.564 203.219 483.469 203.24 483.388 203.289C483.344 203.331 483.31 203.383 483.289 203.44C483.268 203.497 483.261 203.559 483.268 203.619C483.268 203.909 481.548 204.349 481.268 203.849C480.548 203.764 479.822 203.744 479.098 203.789C479.098 203.789 477.588 204.509 477.548 204.509C476.008 204.219 477.318 203.509 475.778 203.139C474.238 202.769 475.598 203.089 474.158 202.819C472.753 202.659 471.334 202.659 469.928 202.819H469.098C468.76 202.857 468.416 202.812 468.098 202.689C467.598 202.459 467.608 201.869 467.448 201.409C464.548 201.229 461.538 201.039 458.758 202.029C458.078 202.279 457.418 202.589 456.758 202.779C455.762 202.966 454.735 202.922 453.758 202.649C452.625 202.489 451.483 202.399 450.338 202.379C448.998 202.379 448.138 203.029 447.018 203.689C445.488 204.579 444.018 205.519 442.468 206.439C441.108 207.441 439.626 208.268 438.058 208.899C437.952 208.939 437.835 208.939 437.728 208.899C437.655 208.833 437.602 208.746 437.578 208.649C437.179 207.452 437.019 206.188 437.108 204.929C437.108 204.749 437.108 204.539 436.958 204.459C436.896 204.445 436.831 204.445 436.768 204.459H434.628C434.529 204.439 434.427 204.439 434.328 204.459C433.848 204.619 434.078 205.669 433.668 205.679C433.258 205.689 431.758 205.569 431.548 206.169C431.272 206.874 431.097 207.615 431.028 208.369C431.029 208.502 431.009 208.633 430.968 208.759C430.93 208.837 430.879 208.908 430.818 208.969C430.658 209.169 429.718 210.579 429.478 210.579C428.848 210.579 427.908 210.819 427.478 210.209C427.11 209.686 426.817 209.114 426.608 208.509C426.577 208.171 426.517 207.837 426.428 207.509C426.248 207.229 425.968 207.509 425.728 207.289C425.656 207.21 425.617 207.106 425.618 206.999C425.618 206.719 425.858 205.949 425.468 205.939C425.078 205.929 424.738 205.859 424.368 205.879C423.698 205.879 423.958 206.209 423.808 206.709C423.777 206.801 423.72 206.88 423.643 206.939C423.567 206.998 423.475 207.033 423.378 207.039C423.186 207.059 422.992 207.039 422.808 206.979C422.88 207.138 422.891 207.317 422.839 207.482C422.788 207.648 422.677 207.79 422.528 207.879C422.452 207.916 422.368 207.935 422.283 207.936C422.198 207.937 422.114 207.919 422.037 207.884C421.96 207.848 421.891 207.797 421.836 207.732C421.781 207.667 421.741 207.591 421.718 207.509C421.709 207.309 421.74 207.108 421.808 206.919C421.808 206.719 421.808 206.469 421.598 206.399C421.388 206.329 421.218 206.469 421.048 206.399C420.878 206.329 420.858 206.029 420.908 205.809H420.178C419.927 205.776 419.672 205.811 419.438 205.909C419.382 205.938 419.333 205.979 419.293 206.028C419.253 206.077 419.224 206.134 419.207 206.195C419.19 206.256 419.186 206.32 419.195 206.383C419.203 206.445 419.225 206.505 419.258 206.559C418.879 206.539 418.498 206.539 418.118 206.559C418.178 206.839 418.168 207.229 417.888 207.289C417.758 207.289 417.478 207.179 417.368 207.289C417.258 207.399 417.368 207.879 417.368 208.019C417.37 208.06 417.363 208.101 417.347 208.139C417.332 208.177 417.308 208.211 417.278 208.239C417.23 208.254 417.177 208.254 417.128 208.239C416.882 208.254 416.635 208.254 416.388 208.239C416.363 208.229 416.334 208.229 416.308 208.239C416.308 208.239 416.308 208.289 416.308 208.319C416.293 208.433 416.252 208.542 416.19 208.639C416.128 208.736 416.046 208.818 415.948 208.879C415.328 209.184 414.637 209.315 413.948 209.259C413.11 209.177 412.283 209.009 411.478 208.759C410.515 208.521 409.53 208.377 408.538 208.329C407.833 208.344 407.128 208.276 406.438 208.129C405.898 207.979 405.438 207.709 404.848 207.589C404.339 207.516 403.824 207.482 403.308 207.489C402.601 207.374 401.902 207.206 401.218 206.989C400.838 206.919 400.218 206.989 400.128 206.509C400.128 206.379 400.128 206.219 399.988 206.129C399.934 206.104 399.874 206.091 399.813 206.091C399.753 206.091 399.693 206.104 399.638 206.129L396.288 206.729C396.136 206.751 395.988 206.795 395.848 206.859C395.667 206.973 395.507 207.118 395.378 207.289C394.864 207.887 394.248 208.388 393.558 208.769C392.883 209.087 392.237 209.466 391.628 209.899C390.488 210.839 389.628 212.119 388.208 212.759C386.058 213.759 383.568 212.989 381.408 213.899C380.683 214.336 380.012 214.856 379.408 215.449L376.638 217.589C376.427 217.764 376.199 217.918 375.958 218.049C375.131 218.274 374.265 218.318 373.418 218.179H372.168C371.708 218.179 371.098 217.979 370.708 218.319C370.318 218.659 370.268 219.549 370.108 220.069L369.348 222.479C369.314 222.626 369.253 222.765 369.168 222.889C369.041 223.024 368.888 223.133 368.718 223.209L366.718 224.209C365.718 224.699 365.718 225.939 365.488 226.909C365.408 227.259 365.488 227.859 365.178 228.119C364.868 228.379 362.978 227.899 362.488 227.819C361.838 227.729 361.558 228.089 361.038 228.389C360.518 228.689 360.088 228.959 359.618 229.269C358.888 229.749 358.178 230.269 357.498 230.789C357.118 231.079 356.928 231.149 356.888 231.599C356.848 232.049 357.038 232.509 357.038 232.959C357.038 233.409 357.348 234.319 357.108 234.529C356.868 234.739 355.658 234.609 355.318 234.629L353.528 234.739C353.279 234.737 353.032 234.781 352.798 234.869C352.428 235.029 352.198 235.559 351.958 235.869L351.068 237.069L349.898 238.639H962.328V229.069Z" fill="#4A4C4C"/>
<path d="M529.27 228.9H344V227.06L346.8 226.73L348.27 225.81H349.8L352.23 224.88L354.23 224.48L356.02 224.09L356.97 224.45L360.55 224.09L361.55 222.4H364.68L367.23 221.59L371.23 221.9L372.57 220.74L376.84 220.28C376.84 220.28 378.18 220.48 378.18 220.28C378.321 219.941 378.51 219.625 378.74 219.34H381.74L382.62 218.76L384.47 217.76L387.03 218.15L387.86 217.76H390.09C390.741 217.939 391.421 217.987 392.09 217.9L393.57 218.04L394.97 217.48L396.12 217.64L397.21 217.85L398.99 217.25L400.4 217.3H400.54C402.33 216.96 404.05 216.48 405.77 216.09L409.63 215.2C410.707 214.891 411.82 214.719 412.94 214.69C414.09 214.69 415.23 214.69 416.36 214.8C417.356 214.906 418.361 214.923 419.36 214.85C420.06 214.78 420.72 214.65 421.36 214.56C424.245 214.244 427.152 214.163 430.05 214.32C430.22 214.49 430.21 214.73 430.71 214.82C431.043 214.848 431.377 214.848 431.71 214.82H432.54C433.93 214.82 435.23 215.31 436.6 215.41C437.97 215.51 439.66 215.07 441.1 215.19C442.54 215.31 441.41 214.5 442.96 214.61C442.96 214.61 443.83 215.05 443.87 215.05C444.211 214.961 444.546 214.848 444.87 214.71C445.53 214.52 445.87 214.84 445.87 214.71C445.87 214.58 446.04 214.88 446.13 214.85C446.22 214.82 446.13 214.99 446.25 214.99H450.48C450.676 214.975 450.874 214.975 451.07 214.99C451.289 215.013 451.507 215.053 451.72 215.11L456.4 216.19L457.84 217.43L460.56 218.05L463.11 217.65L467.79 218.27V219.13L469.33 219.44C469.58 219.44 476.05 219.44 476.05 219.44L477.16 220.23L480.05 220.45L482.69 221.64L485.07 221.29L488.07 222.08H490.71L493.09 222.53L493.77 223.53L496.84 223.31L500.67 224.55L501.18 225.12L503.81 224.81L507.05 225.61L507.64 226.22H512.07L512.5 227.28L516.5 227.77H519.13V227.13L521.26 227.31L522.45 227.92H525.18L529.27 228.9Z" fill="#040707"/>
<path d="M799.341 221.22V231.64H475.891V227.64C475.891 227.49 475.811 227.26 475.891 227.14C475.971 227.02 476.401 226.99 476.271 226.78H476.791C476.827 226.79 476.865 226.79 476.901 226.78C476.922 226.774 476.942 226.764 476.959 226.751C476.977 226.737 476.991 226.72 477.001 226.7C477.141 226.51 477.161 226.35 477.481 226.45C477.631 226.45 478.211 226.67 478.341 226.53C478.352 226.521 478.36 226.509 478.366 226.496C478.372 226.483 478.375 226.469 478.375 226.455C478.375 226.441 478.372 226.427 478.366 226.414C478.36 226.401 478.352 226.39 478.341 226.38C478.91 226.353 479.48 226.39 480.041 226.49C480.234 226.47 480.428 226.47 480.621 226.49C480.826 226.546 481.01 226.661 481.151 226.82C481.41 227.114 481.731 227.347 482.091 227.5C482.5 227.601 482.921 227.641 483.341 227.62H484.771H484.921C484.953 227.599 484.98 227.57 485.001 227.538C485.022 227.505 485.035 227.468 485.041 227.43C485.049 227.356 485.076 227.286 485.12 227.226C485.164 227.167 485.223 227.12 485.291 227.09C485.451 227.02 485.691 227.09 485.791 226.95C485.891 226.81 485.791 226.7 485.871 226.57C485.951 226.44 486.441 226.46 486.571 226.27C486.701 226.08 486.491 225.85 486.851 225.85C487.211 225.85 487.391 225.91 487.661 225.85C487.785 225.853 487.908 225.824 488.018 225.766C488.128 225.708 488.222 225.624 488.291 225.52C488.381 225.31 488.161 225.08 488.091 224.85C488.084 224.836 488.08 224.821 488.08 224.805C488.08 224.79 488.084 224.774 488.091 224.76C488.104 224.74 488.122 224.724 488.143 224.711C488.164 224.699 488.187 224.692 488.211 224.69C488.593 224.577 488.951 224.398 489.271 224.16C489.381 224.08 489.491 223.97 489.461 223.86C489.431 223.75 489.221 223.65 489.061 223.58C488.381 223.22 488.681 222.34 489.551 222.42C489.781 222.42 490.051 222.52 490.201 222.42C490.351 222.32 490.281 222.22 490.301 222.13C490.461 221.38 491.691 221.84 492.231 221.47C492.312 221.405 492.403 221.354 492.501 221.32C492.576 221.3 492.656 221.3 492.731 221.32C493.691 221.427 494.656 221.474 495.621 221.46C495.671 221.45 495.721 221.45 495.771 221.46C495.771 221.46 495.841 221.46 495.871 221.51C495.901 221.56 496.431 221.84 496.451 222.01C496.458 222.062 496.451 222.115 496.43 222.162C496.408 222.21 496.374 222.251 496.331 222.28C496.151 222.43 495.981 222.46 495.981 222.69C495.981 222.92 495.871 223.3 496.091 223.4C496.181 223.411 496.271 223.411 496.361 223.4C496.621 223.4 496.461 223.55 496.561 223.65C496.733 223.781 496.936 223.864 497.151 223.89C497.19 223.9 497.232 223.9 497.271 223.89C497.302 223.877 497.329 223.857 497.35 223.831C497.371 223.804 497.385 223.773 497.391 223.74C497.531 223.31 497.681 223.22 498.231 223.29C498.287 223.28 498.345 223.28 498.401 223.29C498.469 223.33 498.519 223.395 498.541 223.47C498.682 223.867 498.973 224.194 499.351 224.38C499.591 224.48 499.811 224.38 499.921 224.61C500.031 224.84 499.791 225.02 500.071 225.13C500.351 225.24 501.371 224.92 501.161 225.46C501.081 225.65 500.821 225.63 500.721 225.77C500.621 225.91 500.821 226.11 500.481 226.23C500.448 226.223 500.414 226.223 500.381 226.23C500.374 226.24 500.37 226.253 500.37 226.265C500.37 226.278 500.374 226.29 500.381 226.3C500.375 226.413 500.375 226.527 500.381 226.64C500.381 226.64 500.381 226.64 500.381 226.7C500.381 226.76 500.481 226.7 500.521 226.7C500.561 226.7 500.701 226.83 500.681 226.94C500.661 227.05 500.491 227.44 500.781 227.44C501.071 227.44 501.781 227.58 501.981 227.38C502.009 227.308 502.058 227.245 502.121 227.2C502.271 227.11 502.491 227.2 502.671 227.2C502.71 227.005 502.71 226.805 502.671 226.61C502.817 226.635 502.965 226.635 503.111 226.61C503.251 226.61 503.381 226.49 503.371 226.38C503.361 226.27 503.241 226.17 503.301 226.07C503.334 226.032 503.381 226.007 503.431 226C503.571 225.969 503.715 225.966 503.856 225.992C503.997 226.018 504.131 226.072 504.251 226.15C504.477 226.302 504.718 226.43 504.971 226.53C505.09 226.576 505.222 226.576 505.341 226.53C505.451 226.53 505.481 226.39 505.521 226.3C505.691 225.88 506.381 225.55 505.821 225.14C505.758 225.102 505.701 225.055 505.651 225C505.647 224.957 505.647 224.913 505.651 224.87C505.647 224.751 505.672 224.633 505.722 224.526C505.773 224.418 505.848 224.324 505.941 224.25C506.395 223.969 506.94 223.876 507.461 223.99C507.517 224 507.575 224 507.631 223.99C507.674 223.976 507.714 223.956 507.751 223.93C507.877 223.825 507.956 223.674 507.971 223.51C507.961 223.417 507.961 223.323 507.971 223.23C508.061 222.87 508.771 223.08 508.971 222.77C508.971 222.77 508.971 222.71 509.031 222.67C509.091 222.63 509.351 222.58 509.541 222.56C509.712 222.552 509.88 222.518 510.041 222.46C510.433 222.298 510.843 222.181 511.261 222.11C511.711 222.11 512.201 222.11 512.661 222.11C512.706 222.094 512.756 222.094 512.801 222.11C512.808 222.14 512.808 222.171 512.801 222.2C512.842 222.288 512.904 222.364 512.98 222.423C513.057 222.482 513.146 222.522 513.241 222.54C513.571 222.612 513.905 222.663 514.241 222.69C514.405 222.714 514.566 222.754 514.721 222.81C514.861 222.86 514.981 222.99 515.121 223.03C515.261 223.07 515.441 223.03 515.601 223.03C515.761 223.03 515.851 223.2 515.891 223.33C515.949 223.508 516.049 223.669 516.181 223.8C516.271 223.9 516.401 223.99 516.391 224.11C516.381 224.23 516.281 224.3 516.191 224.38C516.101 224.46 516.031 224.59 516.111 224.69C516.152 224.724 516.2 224.749 516.252 224.763C516.304 224.777 516.358 224.779 516.411 224.77C516.521 224.77 516.621 224.77 516.731 224.77C516.748 224.762 516.767 224.758 516.786 224.758C516.805 224.758 516.824 224.762 516.841 224.77C516.841 224.77 516.841 224.84 516.841 224.87C516.841 224.9 516.281 225.57 516.631 225.69C516.687 225.701 516.745 225.701 516.801 225.69C516.874 225.698 516.942 225.733 516.99 225.789C517.039 225.844 517.064 225.916 517.061 225.99C517.048 226.061 517.019 226.128 516.978 226.186C516.937 226.245 516.883 226.294 516.821 226.33C516.711 226.4 516.571 226.51 516.601 226.62C516.631 226.73 516.851 226.8 517.021 226.81C517.621 226.81 517.421 227.1 517.751 227.35C517.918 227.445 518.116 227.47 518.301 227.42C519.191 227.25 519.031 226.67 519.051 226.12C519.105 225.742 519.234 225.378 519.431 225.05C519.522 224.792 519.673 224.559 519.871 224.37C520.058 224.232 520.268 224.127 520.491 224.06C521.711 223.738 522.969 223.576 524.231 223.58C524.364 223.565 524.498 223.565 524.631 223.58C524.819 223.648 524.984 223.766 525.111 223.92C525.358 224.156 525.629 224.364 525.921 224.54C526.153 224.653 526.373 224.787 526.581 224.94C526.811 225.13 526.771 225.37 526.841 225.62C526.931 225.877 527.063 226.117 527.231 226.33C527.231 226.33 527.231 226.4 527.301 226.41C527.371 226.42 527.751 226.41 527.901 226.35H527.991C527.991 226.35 527.991 226.35 528.041 226.3L528.401 225.6C528.422 225.554 528.452 225.513 528.491 225.48C528.651 225.37 529.251 225.48 529.491 225.48H529.571C529.598 225.492 529.619 225.514 529.631 225.54C529.691 225.63 529.751 225.81 529.881 225.82C530.011 225.83 530.291 225.63 530.391 225.59L531.391 225.15L532.551 224.92C532.944 224.895 533.338 224.895 533.731 224.92C534.274 224.888 534.82 224.932 535.351 225.05C535.561 225.05 535.761 225.17 535.971 225.2C536.463 225.225 536.955 225.157 537.421 225C537.949 224.88 538.491 224.84 539.031 224.88C539.117 224.87 539.205 224.87 539.291 224.88C539.455 224.941 539.61 225.026 539.751 225.13C540.131 225.35 540.562 225.467 541.001 225.47C541.456 225.441 541.905 225.344 542.331 225.18C543.357 224.952 544.424 224.99 545.431 225.29C545.732 225.375 546.05 225.375 546.351 225.29C546.609 225.155 546.877 225.038 547.151 224.94C547.267 224.93 547.385 224.93 547.501 224.94C547.93 224.905 548.362 224.905 548.791 224.94C549.297 225.02 549.793 225.154 550.271 225.34C550.334 225.351 550.398 225.351 550.461 225.34L550.601 225.28C550.8 225.19 550.985 225.072 551.151 224.93C551.223 224.886 551.282 224.824 551.324 224.75C551.366 224.677 551.389 224.595 551.391 224.51C551.391 224.35 551.261 224.23 551.391 224.09C551.595 224.062 551.803 224.075 552.001 224.13L552.741 224.05H553.081C553.42 224.167 553.738 224.34 554.021 224.56H555.291V222.49H554.401L563.061 215.96L573.271 221.96H571.901L572.001 223.13H575.741C576.548 223.082 577.357 223.156 578.141 223.35C578.966 223.696 579.834 223.929 580.721 224.04C581.732 223.955 582.734 223.795 583.721 223.56C586.96 223.223 590.22 223.147 593.471 223.33C595.544 223.319 597.614 223.479 599.661 223.81C601.361 224.17 603.091 225.17 604.921 224.74C605.477 224.58 606.014 224.359 606.521 224.08C608.465 223.255 610.471 222.586 612.521 222.08C614.587 221.497 616.741 221.287 618.881 221.46C620.723 221.747 622.535 222.205 624.291 222.83H626.071C626.071 222.83 626.001 223.03 626.071 223.03H627.281L627.711 222.37H628.191V221.98H628.621V222.34H629.001V222.8H631.651V222.4H632.521C632.521 222.4 632.401 222.14 632.521 222.14H633.821V221.89L634.311 221.73L634.801 221.57L635.881 221.84V222.25H637.361V222.82C637.989 222.841 638.617 222.814 639.241 222.74C639.304 222.711 639.359 222.666 639.401 222.61C639.802 222.246 640.23 221.912 640.681 221.61C640.742 221.567 640.81 221.533 640.881 221.51C640.99 221.49 641.102 221.49 641.211 221.51C641.427 221.49 641.645 221.49 641.861 221.51L642.251 221.61C643.027 221.79 643.835 221.79 644.611 221.61C645.135 221.493 645.649 221.34 646.151 221.15C646.66 220.952 647.196 220.833 647.741 220.8C648.373 220.812 648.991 220.991 649.531 221.32C649.884 221.471 650.271 221.522 650.651 221.47C653.121 221.29 655.581 221.09 658.051 220.92L663.271 220.53C664.349 220.33 665.397 219.994 666.391 219.53C667.391 219.2 668.621 219.07 669.321 218.35C669.451 218.22 669.601 218.01 669.821 217.96C670.121 217.9 670.431 217.9 670.731 217.96C670.731 217.96 670.781 217.96 670.791 217.96C670.801 217.96 670.791 217.96 670.791 218.01C670.791 218.06 670.791 218.29 670.791 218.45C670.781 218.49 670.781 218.531 670.791 218.57C670.931 218.78 671.941 218.57 672.221 218.63C672.558 218.674 672.9 218.64 673.221 218.53C673.531 218.41 673.671 218.15 674.021 218.06C674.397 217.961 674.795 217.978 675.161 218.11C675.821 218.36 676.161 218.95 676.901 219.11C677.139 219.152 677.38 219.169 677.621 219.16C678.095 219.194 678.571 219.177 679.041 219.11C679.339 218.969 679.607 218.772 679.831 218.53C680.338 218.276 680.912 218.189 681.471 218.28H682.641H685.171C686.597 218.355 688.025 218.355 689.451 218.28C690.541 218.19 691.621 217.98 692.701 217.82L696.191 217.29C696.853 217.189 697.521 217.135 698.191 217.13H702.841C703.218 217.117 703.596 217.133 703.971 217.18C704.555 217.284 705.131 217.435 705.691 217.63C706.344 217.8 707.017 217.88 707.691 217.87C708.027 217.875 708.362 217.845 708.691 217.78C708.995 217.7 709.29 217.59 709.571 217.45C710.011 217.3 710.491 217.18 710.941 217.04C710.988 217.015 711.038 216.998 711.091 216.99C711.164 216.996 711.236 217.017 711.301 217.05C711.63 217.117 711.949 217.225 712.251 217.37L713.101 217.66C713.72 217.889 714.387 217.961 715.041 217.87C715.357 217.801 715.667 217.711 715.971 217.6L717.271 217.14C717.846 216.89 718.464 216.754 719.091 216.74C719.678 216.827 720.221 217.101 720.641 217.52C720.761 217.62 720.881 217.75 720.821 217.89C721.437 217.85 722.055 217.85 722.671 217.89H728.371C729.248 217.886 730.12 218.028 730.951 218.31C731.831 218.61 732.711 218.88 733.601 219.16C733.697 219.18 733.795 219.18 733.891 219.16C733.991 219.157 734.09 219.133 734.181 219.09C734.595 218.936 734.997 218.749 735.381 218.53L736.671 217.95L739.271 216.78C739.386 216.725 739.506 216.685 739.631 216.66C739.741 216.65 739.851 216.65 739.961 216.66H742.321C742.37 216.65 742.422 216.65 742.471 216.66C742.495 216.676 742.515 216.699 742.527 216.725C742.539 216.752 742.544 216.781 742.541 216.81C742.556 216.926 742.556 217.044 742.541 217.16C742.541 217.16 742.541 217.27 742.601 217.29H742.671C743.531 217.16 744.371 216.98 745.221 216.84L747.631 216.47C748.416 216.4 749.206 216.4 749.991 216.47H750.451C750.63 216.5 750.812 216.5 750.991 216.47C751.271 216.37 751.261 216.12 751.351 215.93C752.968 215.767 754.6 215.852 756.191 216.18C756.571 216.29 756.941 216.42 757.321 216.5C757.88 216.584 758.448 216.567 759.001 216.45C759.632 216.378 760.266 216.342 760.901 216.34C761.553 216.37 762.188 216.559 762.751 216.89L764.891 217.89C765.891 218.3 766.811 218.82 767.811 219.19C767.811 219.19 767.811 219.19 767.861 219.19C767.911 219.19 768.111 218.83 768.111 218.69C768.229 218.233 768.273 217.761 768.241 217.29C768.731 217.29 769.241 217.29 769.711 217.29C769.75 217.28 769.792 217.28 769.831 217.29C769.951 217.34 770.001 217.66 770.031 217.75C770.031 217.75 770.031 217.75 770.091 217.75C770.361 217.75 771.151 217.7 771.271 217.96C771.426 218.246 771.524 218.558 771.561 218.88C771.546 218.929 771.546 218.981 771.561 219.03C771.58 219.072 771.611 219.107 771.651 219.13C771.741 219.21 772.261 219.81 772.391 219.81C772.741 219.81 773.271 219.91 773.491 219.66C773.685 219.445 773.847 219.202 773.971 218.94C773.971 218.83 773.971 218.61 774.071 218.52C774.171 218.43 774.331 218.52 774.461 218.43C774.48 218.417 774.496 218.399 774.506 218.378C774.517 218.357 774.522 218.334 774.521 218.31C774.521 218.19 774.381 217.87 774.601 217.87C774.821 217.87 775.411 217.78 775.501 217.87C775.51 217.889 775.514 217.909 775.514 217.93C775.514 217.951 775.51 217.971 775.501 217.99C775.501 218.32 775.661 218.31 776.061 218.27C776.061 218.27 776.061 218.48 776.061 218.51C776.061 218.54 776.171 218.66 776.401 218.66C776.444 218.664 776.488 218.659 776.529 218.645C776.571 218.631 776.609 218.609 776.641 218.58C776.65 218.558 776.655 218.534 776.655 218.51C776.655 218.486 776.65 218.462 776.641 218.44C776.641 218.37 776.581 218.12 776.641 218.07C776.701 218.02 777.061 218.13 777.131 217.92C777.15 217.869 777.15 217.812 777.131 217.76C777.371 217.76 777.611 217.76 777.841 217.76C778.071 217.76 778.111 217.9 778.061 218.07C778.061 218.07 778.621 218.07 778.691 218.07C778.761 218.07 778.631 218.33 778.751 218.37C778.814 218.375 778.878 218.375 778.941 218.37C779 218.355 779.062 218.355 779.121 218.37C779.106 218.47 779.106 218.571 779.121 218.67C779.109 218.699 779.109 218.731 779.121 218.76C779.15 218.769 779.182 218.769 779.211 218.76H779.621C779.621 218.86 779.721 218.93 779.821 219C780.093 219.112 780.39 219.15 780.681 219.11C780.971 219.11 780.591 218.97 780.891 218.92C781.451 218.86 781.221 218.31 781.791 218.25C782.333 218.179 782.868 218.062 783.391 217.9C783.641 217.83 784.391 217.81 784.661 217.77C784.931 217.73 785.351 217.33 785.661 217.29C785.971 217.25 786.111 216.29 786.341 216.22C786.755 216.064 787.184 215.95 787.621 215.88C787.331 214.88 787.941 214.57 788.731 214.06C788.871 213.97 789.021 213.88 789.171 213.77C789.581 213.49 789.951 212.63 790.371 212.17C790.455 212.067 790.552 211.976 790.661 211.9C791.301 211.553 792.024 211.387 792.751 211.42C792.991 211.42 789.181 217.86 789.421 217.86H789.591C789.671 217.92 789.681 218.01 789.721 218.07C789.786 218.142 789.864 218.199 789.952 218.238C790.04 218.278 790.135 218.299 790.231 218.3C791.046 218.473 791.846 218.714 792.621 219.02L795.541 219.94L799.341 221.22Z" fill="#040707"/>
<path d="M1058.3 210.29C1058.3 210.267 1058.3 210.243 1058.3 210.22C1058.31 210.137 1058.34 210.057 1058.39 209.99C1058.44 209.91 1058.5 209.842 1058.58 209.79C1058.72 209.696 1058.87 209.638 1059.04 209.62C1059.1 209.615 1059.16 209.615 1059.22 209.62H1066V213.05H1059.35C1059.21 213.062 1059.08 213.062 1058.94 213.05H1058.82C1058.76 213.033 1058.7 213.006 1058.64 212.97C1058.48 212.864 1058.36 212.7 1058.31 212.51C1058.3 212.444 1058.3 212.377 1058.31 212.31C1058.31 212.31 1058.29 210.55 1058.3 210.29Z" fill="#040707"/>
<path d="M1070.17 205.32C1070.4 205.31 1070.63 205.33 1070.85 205.38C1071.51 205.542 1072.09 205.945 1072.48 206.51C1072.83 207.064 1072.96 207.726 1072.85 208.37C1072.78 208.75 1072.78 208.75 1072.39 208.75H1070.68L1070.91 208.43C1071.05 208.27 1071.12 208.063 1071.11 207.853C1071.09 207.643 1071 207.444 1070.85 207.3C1070.78 207.222 1070.69 207.158 1070.6 207.113C1070.5 207.068 1070.4 207.041 1070.3 207.036C1070.19 207.03 1070.09 207.045 1069.99 207.08C1069.89 207.115 1069.8 207.17 1069.72 207.24C1069.25 207.68 1068.8 208.14 1068.35 208.6C1068.3 208.653 1068.24 208.694 1068.18 208.722C1068.11 208.749 1068.04 208.762 1067.97 208.76C1067.26 208.76 1066.56 208.76 1065.85 208.76C1065.74 208.766 1065.63 208.748 1065.53 208.706C1065.43 208.665 1065.34 208.601 1065.27 208.52C1064.88 208.1 1064.46 207.7 1064.05 207.29C1063.94 207.182 1063.81 207.106 1063.66 207.069C1063.51 207.032 1063.35 207.036 1063.21 207.08C1063.06 207.124 1062.93 207.207 1062.83 207.319C1062.72 207.432 1062.65 207.57 1062.62 207.72C1062.59 207.842 1062.6 207.968 1062.63 208.089C1062.66 208.21 1062.71 208.323 1062.79 208.42L1063.09 208.74H1061.21C1061.09 208.74 1061.04 208.74 1061 208.58C1060.9 208.227 1060.88 207.857 1060.94 207.495C1060.99 207.134 1061.12 206.788 1061.32 206.481C1061.52 206.173 1061.79 205.912 1062.09 205.714C1062.4 205.515 1062.75 205.385 1063.11 205.33C1063.23 205.316 1063.35 205.316 1063.47 205.33C1063.66 205.333 1063.85 205.353 1064.04 205.39C1064.26 205.436 1064.48 205.51 1064.68 205.61C1064.9 205.729 1065.1 205.877 1065.28 206.05C1065.68 206.41 1065.93 206.69 1066.46 207.23L1066.89 207.66L1066.98 207.58C1067.52 207.07 1068.06 206.58 1068.61 206.04C1068.81 205.846 1069.04 205.687 1069.29 205.57C1069.57 205.437 1069.86 205.353 1070.17 205.32Z" fill="#FFAE00"/>
<path d="M1066 222.51H1060.09C1059.95 222.53 1059.82 222.53 1059.68 222.51C1059.53 222.466 1059.4 222.378 1059.31 222.259C1059.21 222.139 1059.15 221.993 1059.14 221.84C1059.14 221.75 1059.14 221.66 1059.14 221.57V214.84H1066V222.51Z" fill="#040707"/>
<path d="M1067.77 214.79H1074.62C1074.63 214.847 1074.63 214.903 1074.62 214.96V221.56C1074.65 221.736 1074.62 221.916 1074.53 222.073C1074.45 222.229 1074.31 222.355 1074.15 222.43C1074.03 222.483 1073.9 222.51 1073.76 222.51H1067.76L1067.77 214.79Z" fill="#040707"/>
<path d="M1067.77 213.04V209.62H1074.53C1074.66 209.592 1074.8 209.598 1074.93 209.635C1075.06 209.672 1075.18 209.74 1075.28 209.834C1075.38 209.927 1075.45 210.043 1075.49 210.171C1075.54 210.299 1075.55 210.436 1075.53 210.57V212.13C1075.55 212.252 1075.54 212.377 1075.5 212.494C1075.46 212.612 1075.4 212.719 1075.31 212.808C1075.22 212.897 1075.12 212.965 1075 213.007C1074.89 213.048 1074.76 213.063 1074.64 213.05C1072.39 213.05 1070.14 213.05 1067.89 213.05L1067.77 213.04Z" fill="#040707"/>
<path d="M774.19 200.7C773.944 200.477 773.624 200.354 773.292 200.356C772.96 200.359 772.641 200.486 772.398 200.713C772.156 200.94 772.008 201.25 771.984 201.582C771.961 201.913 772.063 202.241 772.27 202.5L769.42 199.36L766.21 202.28C766.392 202.106 766.52 201.883 766.579 201.637C766.637 201.392 766.625 201.136 766.543 200.897C766.46 200.659 766.311 200.449 766.114 200.293C765.916 200.137 765.677 200.04 765.427 200.015C765.176 199.99 764.923 200.038 764.698 200.152C764.473 200.266 764.286 200.442 764.158 200.659C764.03 200.876 763.967 201.125 763.976 201.377C763.985 201.629 764.066 201.873 764.21 202.08C764.318 202.239 764.459 202.372 764.624 202.47C764.788 202.568 764.973 202.629 765.163 202.648C765.354 202.667 765.547 202.644 765.727 202.58C765.908 202.517 766.073 202.414 766.21 202.28L763 205.2L765.34 207.77C765.343 207.551 765.4 207.336 765.507 207.144C765.614 206.952 765.767 206.79 765.952 206.672C766.137 206.555 766.349 206.485 766.568 206.47C766.787 206.454 767.006 206.494 767.206 206.585C767.406 206.676 767.58 206.815 767.712 206.99C767.845 207.165 767.932 207.37 767.965 207.587C767.998 207.804 767.976 208.026 767.902 208.233C767.828 208.439 767.704 208.624 767.54 208.77C767.406 208.894 767.248 208.988 767.076 209.046C766.904 209.105 766.721 209.127 766.54 209.11L768.88 211.67L775.29 205.82L772.44 202.7C772.669 202.9 772.959 203.015 773.263 203.028C773.566 203.04 773.865 202.95 774.11 202.77C774.271 202.653 774.403 202.501 774.497 202.325C774.591 202.149 774.644 201.954 774.651 201.755C774.659 201.556 774.622 201.357 774.542 201.175C774.462 200.992 774.342 200.83 774.19 200.7Z" fill="#040707"/>
<path d="M776.552 196.76C776.652 196.633 776.706 196.476 776.706 196.315C776.706 196.154 776.652 195.997 776.552 195.87C776.495 195.795 776.424 195.732 776.342 195.686C776.261 195.639 776.171 195.609 776.077 195.598C775.984 195.587 775.889 195.594 775.799 195.62C775.709 195.647 775.625 195.691 775.552 195.75L777.202 194.2L775.612 192.51C775.744 192.643 775.924 192.717 776.112 192.717C776.299 192.717 776.479 192.643 776.612 192.51C776.744 192.377 776.819 192.198 776.819 192.01C776.819 191.823 776.744 191.643 776.612 191.51C776.487 191.414 776.334 191.361 776.177 191.361C776.019 191.361 775.866 191.414 775.742 191.51C775.669 191.569 775.609 191.642 775.565 191.725C775.521 191.807 775.494 191.898 775.486 191.991C775.477 192.084 775.488 192.178 775.516 192.267C775.545 192.357 775.591 192.439 775.652 192.51L774.002 190.83L772.692 192.13C772.811 192.125 772.93 192.149 773.037 192.202C773.144 192.254 773.236 192.333 773.305 192.431C773.374 192.529 773.417 192.642 773.43 192.761C773.443 192.879 773.426 192.999 773.381 193.11C773.335 193.22 773.263 193.317 773.17 193.392C773.077 193.467 772.967 193.517 772.849 193.538C772.732 193.559 772.611 193.55 772.498 193.512C772.384 193.474 772.283 193.408 772.202 193.32C772.069 193.169 772.001 192.971 772.012 192.77L770.672 194.04L773.852 197.41L775.492 195.86C775.389 195.984 775.333 196.139 775.333 196.3C775.333 196.461 775.389 196.616 775.492 196.74C775.557 196.816 775.638 196.877 775.728 196.92C775.819 196.963 775.917 196.986 776.017 196.988C776.117 196.99 776.217 196.97 776.309 196.931C776.401 196.892 776.484 196.834 776.552 196.76Z" fill="#040707"/>
<path d="M1168.58 180.03C1168.34 179.657 1167.96 179.388 1167.53 179.275C1167.1 179.162 1166.65 179.214 1166.25 179.42C1166.11 179.496 1165.98 179.58 1165.85 179.67C1165.81 179.52 1165.76 179.372 1165.69 179.23C1165.52 178.821 1165.19 178.492 1164.79 178.307C1164.38 178.122 1163.92 178.095 1163.5 178.23C1163.06 178.376 1162.68 178.66 1162.42 179.041C1162.15 179.422 1162.02 179.878 1162.04 180.34C1162.07 180.826 1162.18 181.303 1162.37 181.75C1162.79 182.72 1163.35 183.626 1164.02 184.44C1164.05 184.479 1164.09 184.507 1164.13 184.52C1164.17 184.531 1164.22 184.531 1164.26 184.52C1165.3 184.335 1166.31 183.998 1167.26 183.52C1167.69 183.291 1168.08 182.99 1168.41 182.63C1168.72 182.277 1168.91 181.83 1168.94 181.359C1168.97 180.889 1168.84 180.421 1168.58 180.03Z" fill="#FFAE00"/>
<path d="M278.812 214.58H278.632C278.512 214.58 278.472 214.58 278.462 214.41L278.312 212.64C278.202 211.45 278.102 210.26 278.002 209.06C278.002 208.77 278.002 208.48 277.932 208.19C277.932 208.09 277.932 208.02 278.072 208.04C278.212 208.06 278.162 208.04 278.162 207.97C278.162 207.9 278.102 207.9 278.042 207.9H277.702C277.687 207.902 277.672 207.9 277.658 207.895C277.644 207.89 277.631 207.882 277.621 207.871C277.61 207.861 277.602 207.848 277.597 207.834C277.592 207.82 277.59 207.805 277.592 207.79V206.65C277.592 206.57 277.642 206.53 277.682 206.47C277.704 206.449 277.721 206.423 277.733 206.395C277.745 206.366 277.752 206.336 277.752 206.305C277.752 206.274 277.745 206.244 277.733 206.216C277.721 206.187 277.704 206.162 277.682 206.14C277.639 206.106 277.586 206.088 277.532 206.088C277.477 206.088 277.424 206.106 277.382 206.14C277.36 206.162 277.342 206.187 277.33 206.216C277.318 206.244 277.312 206.274 277.312 206.305C277.312 206.336 277.318 206.366 277.33 206.395C277.342 206.423 277.36 206.449 277.382 206.47C277.413 206.5 277.437 206.535 277.453 206.575C277.468 206.615 277.475 206.658 277.472 206.7C277.472 207.04 277.472 207.39 277.472 207.7C277.472 207.85 277.402 207.88 277.282 207.87H277.002C276.952 207.87 276.922 207.87 276.922 207.95C276.922 208.03 276.922 208.01 276.992 208.01H277.182C277.202 208.16 277.202 208.311 277.182 208.46L276.882 212.95C276.882 213.42 276.802 213.95 276.782 214.37C276.782 214.51 276.722 214.55 276.592 214.55H275.932C275.742 214.55 275.742 214.55 275.742 214.74C275.732 214.91 275.732 215.08 275.742 215.25C275.742 215.38 275.692 215.41 275.572 215.41H274.192C274.177 215.409 274.162 215.41 274.148 215.415C274.134 215.42 274.121 215.428 274.111 215.439C274.1 215.449 274.092 215.462 274.087 215.476C274.082 215.49 274.08 215.505 274.082 215.52C274.087 215.583 274.087 215.647 274.082 215.71V220.39C274.082 220.47 274.082 220.5 273.972 220.49H273.812C272.712 220.49 271.612 220.49 270.502 220.49H270.372C270.282 220.49 270.222 220.49 270.232 220.35V194.98C270.232 194.54 270.302 194.65 269.892 194.52L268.312 194.09C268.284 194.087 268.257 194.077 268.233 194.063C268.209 194.049 268.188 194.03 268.171 194.008C268.155 193.986 268.143 193.96 268.136 193.933C268.129 193.906 268.128 193.878 268.132 193.85C268.132 193.3 268.132 192.76 268.132 192.21C268.132 191.97 268.132 191.97 267.922 191.89L264.862 190.78C264.592 190.68 264.622 190.72 264.622 190.42C264.622 189.42 264.622 188.42 264.622 187.42C264.629 187.348 264.613 187.276 264.577 187.214C264.541 187.151 264.487 187.101 264.422 187.07C263.272 186.4 262.142 185.73 261.012 185.07C260.95 185.031 260.88 185.006 260.807 184.998C260.735 184.989 260.661 184.997 260.592 185.02L259.112 185.41C258.912 185.41 258.902 185.41 258.902 185.67V188.92C258.902 189.23 258.902 189.19 258.652 189.26L257.652 189.53C257.452 189.53 257.452 189.59 257.452 189.79V191.12C257.452 191.35 257.452 191.35 257.212 191.4L256.342 191.6C256.142 191.6 256.142 191.6 256.142 191.87V193.38C256.142 193.65 256.142 193.6 255.912 193.67L255.012 193.87C254.892 193.87 254.832 193.93 254.852 194.05V204.71C254.852 204.8 254.852 204.84 254.722 204.83C254.592 204.82 254.622 204.83 254.622 204.71V203.97C254.617 203.9 254.617 203.83 254.622 203.76C254.622 203.66 254.622 203.61 254.482 203.62H247.202C246.882 203.62 246.912 203.62 246.912 203.92V204.92C246.912 205.12 246.912 205.13 246.712 205.13H245.572C245.442 205.124 245.314 205.156 245.202 205.22L243.952 205.92C243.91 205.956 243.856 205.974 243.802 205.97C243.802 206.05 243.692 206.07 243.622 206.11C243.372 206.25 243.122 206.41 242.862 206.53C242.769 206.568 242.692 206.635 242.642 206.723C242.593 206.81 242.576 206.911 242.592 207.01C242.592 210.48 242.592 213.95 242.592 217.42C242.587 217.49 242.587 217.56 242.592 217.63C242.598 217.657 242.598 217.684 242.592 217.71V226.38H282.332V214.58H278.812Z" fill="#4A4C4C"/>
<path d="M1440 225.235H0V247.235H1440V225.235Z" fill="#040707"/>
<path d="M137.051 225.52C137.14 225.53 137.231 225.53 137.321 225.52H313.001V222.4H308.201C308.142 222.42 308.079 222.42 308.021 222.4C307.982 222.367 307.958 222.321 307.951 222.27C307.893 222.019 307.803 221.777 307.681 221.55C307.601 221.33 307.511 221.1 307.431 220.87C307.241 220.35 307.041 219.87 306.851 219.32C306.83 219.257 306.796 219.199 306.751 219.15C306.675 219.108 306.587 219.091 306.501 219.1H305.211C304.777 219.12 304.343 219.08 303.921 218.98C303.702 218.926 303.495 218.831 303.311 218.7C303.151 218.58 303.061 218.23 302.901 218.17C302.817 218.14 302.725 218.14 302.641 218.17C302.203 218.313 301.781 218.501 301.381 218.73C300.891 218.94 300.161 219.07 299.781 218.59C299.631 218.4 299.121 217.93 299.041 217.81C298.717 217.531 298.348 217.308 297.951 217.15C297.601 217.03 297.521 217.15 296.951 217.15C296.381 217.15 295.711 217.1 295.591 217.1C295.001 217.1 294.441 216.65 293.891 216.49C293.231 216.301 292.526 216.339 291.891 216.6L291.521 216.77C290.596 217.061 289.614 217.12 288.661 216.94C287.851 216.82 287.101 216.45 286.301 216.27C285.459 216.087 284.602 215.983 283.741 215.96C282.967 215.914 282.192 216.005 281.451 216.23C280.695 216.47 279.902 216.571 279.111 216.53C278.531 216.53 277.941 216.53 277.351 216.53C276.8 216.562 276.254 216.649 275.721 216.79C275.685 216.799 275.647 216.799 275.611 216.79C275.56 216.773 275.515 216.742 275.481 216.7C275.114 216.347 274.674 216.081 274.191 215.92C273.691 215.689 273.141 215.585 272.591 215.62L271.291 215.87C270.962 215.966 270.628 216.043 270.291 216.1C269.902 216.137 269.511 216.153 269.121 216.15C268.337 216.113 267.552 216.167 266.781 216.31C266.331 216.41 265.891 216.59 265.441 216.72C264.651 216.897 263.848 217.014 263.041 217.07C262.801 217.07 262.551 217.07 262.311 217.13C262.05 217.204 261.781 217.245 261.511 217.25C261.37 217.221 261.233 217.177 261.101 217.12C260.506 216.878 259.873 216.742 259.231 216.72C257.973 216.777 256.724 216.955 255.501 217.25C255.158 217.332 254.835 217.482 254.551 217.69C254.201 217.89 253.841 218.09 253.481 218.27C252.991 218.491 252.514 218.738 252.051 219.01C251.571 219.32 251.241 219.88 250.711 220.12C250.023 220.367 249.313 220.548 248.591 220.66L246.321 221.18C246.055 221.245 245.777 221.245 245.511 221.18C245.347 221.138 245.175 221.138 245.011 221.18C244.941 221.18 244.891 221.28 244.821 221.28C244.751 221.28 244.631 221.22 244.551 221.2C244.404 221.146 244.247 221.126 244.092 221.139C243.936 221.153 243.786 221.201 243.651 221.28C243.651 221.17 243.491 221.15 243.401 221.2C243.311 221.25 243.191 221.31 243.111 221.2C243.031 221.09 243.051 221.1 243.021 221.05C242.955 220.961 242.859 220.898 242.751 220.872C242.643 220.847 242.53 220.86 242.431 220.91C242.211 220.99 241.901 221.28 241.651 221.19C241.401 221.1 241.471 221.03 241.371 220.94C241.312 220.884 241.24 220.844 241.161 220.823C241.082 220.802 241 220.801 240.921 220.82C240.741 220.82 240.591 220.99 240.411 220.99C240.231 220.99 240.081 220.89 239.921 220.89C239.761 220.89 239.591 221 239.421 221.01C239.251 221.02 238.931 220.88 238.731 221.01C238.696 221.034 238.659 221.054 238.621 221.07C238.471 221.14 238.351 221.07 238.221 220.97C238.047 220.925 237.865 220.925 237.691 220.97C237.125 221.089 236.57 221.253 236.031 221.46C235.251 221.67 234.43 221.67 233.651 221.46C233.566 221.433 233.479 221.416 233.391 221.41C233.162 221.421 232.943 221.501 232.761 221.64V221.95C232.466 221.961 232.177 222.032 231.911 222.16C231.761 222.24 231.611 222.33 231.451 222.4C231.292 222.425 231.13 222.425 230.971 222.4C230.773 222.428 230.579 222.475 230.391 222.54L229.131 222.87H229.011C228.861 222.87 228.761 222.66 228.661 222.57C228.516 222.451 228.344 222.369 228.161 222.33C227.921 222.33 227.681 222.27 227.451 222.2C227.193 222.1 226.943 221.983 226.701 221.85C226.579 221.788 226.447 221.752 226.311 221.744C226.175 221.735 226.039 221.754 225.911 221.8C225.855 221.835 225.794 221.862 225.731 221.88C225.621 221.88 225.521 221.8 225.431 221.73C225.251 221.585 225.045 221.477 224.824 221.411C224.602 221.346 224.37 221.325 224.141 221.35C224.065 221.365 223.987 221.365 223.911 221.35C223.849 221.327 223.791 221.293 223.741 221.25L222.801 220.5C222.754 220.455 222.695 220.424 222.631 220.41C222.578 220.4 222.524 220.4 222.471 220.41C222.164 220.489 221.848 220.53 221.531 220.53C221.222 220.497 220.911 220.571 220.651 220.74L220.341 220.33C220.309 220.289 220.272 220.252 220.231 220.22C220.168 220.206 220.103 220.206 220.041 220.22H219.511C219.465 220.21 219.417 220.21 219.371 220.22C219.371 220.22 219.291 220.29 219.251 220.33C219.007 220.528 218.694 220.622 218.381 220.59H217.471C217.405 220.575 217.337 220.575 217.271 220.59C217.219 220.651 217.181 220.723 217.161 220.8C217.041 221.03 216.851 221.02 216.641 221.11C216.418 221.218 216.239 221.398 216.131 221.62C216.107 221.674 216.077 221.724 216.041 221.77C216.002 221.804 215.958 221.831 215.911 221.85L215.441 222.05C215.398 222.067 215.36 222.095 215.331 222.13V222.22C215.331 222.29 215.331 222.49 215.261 222.53C215.191 222.57 214.961 222.53 214.851 222.53C214.696 222.559 214.536 222.541 214.391 222.48C214.325 222.434 214.267 222.376 214.221 222.31L213.941 221.98C213.899 221.91 213.836 221.854 213.761 221.82C213.695 221.805 213.627 221.805 213.561 221.82C213.209 221.86 212.853 221.86 212.501 221.82C212.251 221.76 212.101 221.36 211.991 221.14C211.973 221.1 211.95 221.063 211.921 221.03C211.872 220.997 211.818 220.973 211.761 220.96L210.301 220.63C210.301 220.63 210.011 220.95 209.951 220.98C209.763 221.045 209.568 221.088 209.371 221.11L208.061 221.39C208.025 221.571 207.95 221.742 207.841 221.89C207.785 221.945 207.725 221.996 207.661 222.04C207.431 222.153 207.219 222.298 207.031 222.47C206.884 222.632 206.757 222.81 206.651 223C206.366 222.849 206.092 222.679 205.831 222.49C205.562 222.311 205.244 222.221 204.921 222.23C204.584 222.284 204.238 222.246 203.921 222.12C203.728 221.978 203.52 221.857 203.301 221.76C203.185 221.74 203.067 221.74 202.951 221.76H201.621C201.271 221.76 200.761 221.88 200.561 221.53C200.471 221.36 200.441 221.17 200.341 221C200.255 220.875 200.144 220.77 200.015 220.69C199.886 220.611 199.741 220.56 199.591 220.54C199.291 220.47 198.981 220.47 198.691 220.4C198.531 220.375 198.377 220.317 198.241 220.23C198.079 220.098 197.94 219.939 197.831 219.76L197.301 218.97C197.266 218.914 197.222 218.863 197.171 218.82C197.105 218.805 197.037 218.805 196.971 218.82C196.665 218.845 196.357 218.845 196.051 218.82C195.812 218.759 195.587 218.65 195.391 218.5C195.003 218.175 194.576 217.9 194.121 217.68C193.759 217.583 193.385 217.536 193.011 217.54C192.941 217.55 192.87 217.55 192.801 217.54C192.736 217.504 192.676 217.46 192.621 217.41L191.441 216.41C191.396 216.377 191.35 216.347 191.301 216.32C191.245 216.31 191.187 216.31 191.131 216.32L189.831 216.4C189.097 216.406 188.367 216.291 187.671 216.06C187.017 215.902 186.342 215.845 185.671 215.89C185.535 215.915 185.396 215.915 185.261 215.89C185.181 215.842 185.107 215.785 185.041 215.72L184.371 215.13C184.228 214.994 184.067 214.879 183.891 214.79C183.623 214.691 183.336 214.65 183.051 214.67H180.181C179.952 214.681 179.736 214.781 179.581 214.95C179.451 215.07 179.271 215.4 179.081 215.38C178.598 215.37 178.12 215.289 177.661 215.14C177.231 214.96 176.841 214.67 176.421 214.47C176.348 214.426 176.266 214.399 176.181 214.39C176.092 214.371 176 214.371 175.911 214.39L174.071 215C174.051 215.002 174.031 215.008 174.014 215.018C173.996 215.029 173.982 215.043 173.971 215.06C173.959 215.103 173.959 215.148 173.971 215.19C173.996 215.416 173.996 215.644 173.971 215.87C173.974 215.904 173.97 215.939 173.96 215.971C173.949 216.004 173.933 216.034 173.911 216.06C173.855 216.075 173.796 216.075 173.741 216.06C173.331 216.06 172.931 216.06 172.521 216.06L171.521 216.68C171.321 216.823 171.086 216.909 170.841 216.93C170.611 216.93 170.381 216.93 170.161 217.01C169.941 217.09 169.761 217.01 169.571 217.01C169.413 217.04 169.274 217.13 169.181 217.26C169.081 217.41 169.071 217.63 168.911 217.72C168.852 217.735 168.79 217.735 168.731 217.72L167.651 217.85C167.496 217.859 167.342 217.882 167.191 217.92C166.938 217.977 166.693 218.064 166.461 218.18C166.269 218.296 166.068 218.396 165.861 218.48C165.632 218.515 165.399 218.515 165.171 218.48L163.591 218.37C163.565 218.38 163.536 218.38 163.511 218.37C163.492 218.358 163.476 218.342 163.464 218.323C163.452 218.304 163.444 218.282 163.441 218.26C163.341 217.91 163.261 217.55 163.141 217.26C163.085 217.134 163.004 217.022 162.902 216.929C162.801 216.836 162.681 216.765 162.551 216.72C162.321 216.601 162.103 216.461 161.901 216.3C161.801 216.22 161.69 216.156 161.571 216.11H161.321L160.201 216.23C159.881 216.23 159.501 216.23 159.201 216.42C159.073 216.538 158.97 216.681 158.901 216.84L158.671 217.31C158.654 217.353 158.626 217.391 158.591 217.42C158.535 217.436 158.476 217.436 158.421 217.42H157.481C157.305 217.4 157.127 217.4 156.951 217.42C156.822 217.448 156.695 217.484 156.571 217.53C156.163 217.699 155.746 217.842 155.321 217.96C154.864 218.03 154.402 218.05 153.941 218.02C153.875 218.03 153.807 218.03 153.741 218.02C153.672 217.993 153.608 217.956 153.551 217.91L152.311 216.99C152.246 216.934 152.171 216.89 152.091 216.86C152.028 216.85 151.964 216.85 151.901 216.86H150.141C150.095 216.851 150.047 216.851 150.001 216.86C149.963 216.881 149.929 216.908 149.901 216.94C149.725 217.08 149.579 217.254 149.473 217.452C149.366 217.649 149.301 217.867 149.281 218.09C148.979 218.088 148.683 218.175 148.431 218.34C148.187 218.515 147.934 218.676 147.671 218.82C147.501 218.884 147.342 218.975 147.201 219.09C147.051 219.26 146.961 219.58 146.681 219.55C146.631 219.54 146.58 219.54 146.531 219.55C146.426 219.567 146.333 219.625 146.271 219.71C146.123 219.868 145.955 220.006 145.771 220.12C145.17 220.373 144.626 220.744 144.171 221.21C144.102 221.316 144.009 221.405 143.901 221.47C143.752 221.52 143.59 221.52 143.441 221.47C143.379 221.45 143.313 221.45 143.251 221.47C143.205 221.481 143.163 221.506 143.131 221.54C142.811 221.872 142.431 222.141 142.011 222.33C141.741 222.39 141.451 222.33 141.191 222.33C141.018 222.403 140.859 222.504 140.721 222.63C140.455 222.84 140.171 223.024 139.871 223.18C139.665 223.257 139.467 223.354 139.281 223.47C139.051 223.64 139.071 224.02 139.141 224.26H138.861C138.658 224.235 138.453 224.235 138.251 224.26C137.931 224.34 137.811 224.58 137.601 224.79C137.404 225.023 137.221 225.267 137.051 225.52Z" fill="#040707"/>
<path d="M402.748 191.909L402.568 189.819L401.068 191.299L399.098 190.889L399.938 192.779L398.898 194.629L400.908 194.319L402.248 195.859L402.648 193.779L404.518 192.889L402.748 191.909Z" fill="#040707"/>
<path d="M408.871 179.3L405.091 176.74L405.531 181.29L402.141 184.07L406.481 185.23L408.171 189.52L410.411 185.69L414.841 185.55L411.881 182.03L412.931 177.66L408.871 179.3Z" fill="#040707"/>
<path d="M1152.62 173.13V159.25H1150.43V154.49H1148.79V149.83H1143.49V154.49H1141.85V159.25H1139.67V179.98C1130.48 192.98 1106.6 186.45 1104.53 185.86V170.95H1091.26V195.23H1078.63V229.07H1104.53V196.79C1105.06 197.39 1105.63 197.955 1106.23 198.48V206.07L1112.93 202.2C1114.6 202.749 1116.32 203.144 1118.06 203.38L1121.54 209.96L1125.54 203.67C1127.17 203.59 1128.75 203.44 1130.23 203.24L1135.23 209.01L1137.71 201.77C1138.59 201.54 1139.25 201.34 1139.71 201.22V229.49H1151.98V231H1161.29V187.75L1152.62 173.13ZM1104.53 195.3V186.94C1104.95 187.06 1105.63 187.24 1106.53 187.46L1108.78 194.33L1113.78 188.74C1115.4 188.93 1117.13 189.06 1118.93 189.1L1123.15 195.41L1126.5 188.59C1128.37 188.286 1130.2 187.786 1131.97 187.1L1138.67 190.78L1138.5 182.92C1138.91 182.51 1139.29 182.08 1139.67 181.64V200.23C1137.72 200.78 1114.14 207.74 1104.53 195.25V195.3Z" fill="#4A4C4C"/>
<path d="M1083.56 178.129C1083.33 177.985 1083.06 177.908 1082.79 177.909C1081.44 177.909 1080.88 176.909 1081.55 175.769C1081.69 175.532 1081.76 175.256 1081.74 174.979L1078.55 173.149H1078.38C1078.23 173.252 1078.11 173.385 1078.02 173.539L1077.93 173.679C1077.85 173.94 1077.68 174.166 1077.46 174.327C1077.24 174.487 1076.97 174.573 1076.7 174.573C1076.42 174.573 1076.15 174.487 1075.93 174.327C1075.71 174.166 1075.55 173.94 1075.46 173.679L1075.38 173.539C1075.29 173.385 1075.17 173.252 1075.03 173.149H1074.87L1071.69 174.979C1071.68 175.241 1071.74 175.5 1071.87 175.729C1072.56 176.909 1072 177.869 1070.64 177.869C1070.37 177.87 1070.11 177.946 1069.89 178.089V181.769C1070.11 181.912 1070.37 181.989 1070.64 181.989C1072 181.989 1072.56 182.989 1071.87 184.129C1071.74 184.358 1071.68 184.618 1071.69 184.879L1074.87 186.719H1075.03C1075.18 186.617 1075.3 186.484 1075.39 186.329L1075.48 186.179C1075.57 185.919 1075.73 185.693 1075.95 185.532C1076.18 185.372 1076.44 185.285 1076.72 185.285C1076.99 185.285 1077.26 185.372 1077.48 185.532C1077.7 185.693 1077.87 185.919 1077.95 186.179L1078.03 186.329C1078.12 186.482 1078.25 186.615 1078.39 186.719H1078.55L1081.74 184.879C1081.75 184.616 1081.69 184.356 1081.55 184.129C1080.87 182.949 1081.42 181.989 1082.78 181.989C1083.05 181.99 1083.31 181.914 1083.53 181.769V178.129H1083.56ZM1076.71 182.439C1076.23 182.439 1075.76 182.296 1075.35 182.028C1074.95 181.76 1074.64 181.379 1074.46 180.933C1074.27 180.487 1074.22 179.997 1074.32 179.523C1074.41 179.05 1074.64 178.615 1074.99 178.274C1075.33 177.933 1075.76 177.7 1076.23 177.606C1076.71 177.512 1077.2 177.56 1077.64 177.745C1078.09 177.93 1078.47 178.243 1078.74 178.644C1079.01 179.045 1079.15 179.517 1079.15 179.999C1079.14 180.64 1078.88 181.25 1078.42 181.699C1077.97 182.148 1077.35 182.399 1076.71 182.399V182.439Z" fill="#040707"/>
<path d="M1069.66 164.41C1069.52 164.319 1069.35 164.27 1069.18 164.27C1068.33 164.27 1067.98 163.67 1068.4 162.93C1068.49 162.782 1068.53 162.612 1068.52 162.44L1066.52 161.29H1066.41C1066.32 161.355 1066.25 161.436 1066.19 161.53L1066.13 161.62C1066.08 161.782 1065.97 161.924 1065.84 162.024C1065.7 162.125 1065.53 162.179 1065.36 162.179C1065.19 162.179 1065.02 162.125 1064.88 162.024C1064.75 161.924 1064.64 161.782 1064.59 161.62L1064.53 161.53C1064.48 161.434 1064.4 161.352 1064.31 161.29H1064.22L1062.22 162.44C1062.21 162.605 1062.25 162.769 1062.34 162.91C1062.76 163.65 1062.42 164.25 1061.57 164.25C1061.4 164.252 1061.24 164.297 1061.09 164.38V166.73C1061.23 166.823 1061.4 166.871 1061.57 166.87C1062.42 166.87 1062.76 167.47 1062.34 168.21C1062.25 168.35 1062.21 168.515 1062.22 168.68L1064.22 169.83H1064.32C1064.41 169.768 1064.49 169.686 1064.54 169.59L1064.6 169.5C1065.02 168.76 1065.71 168.76 1066.14 169.5V169.59C1066.2 169.686 1066.28 169.768 1066.37 169.83H1066.47L1068.47 168.68C1068.48 168.515 1068.43 168.352 1068.35 168.21C1067.92 167.47 1068.27 166.87 1069.12 166.87C1069.29 166.871 1069.45 166.822 1069.59 166.73V164.41H1069.66ZM1065.37 167.11C1065.07 167.11 1064.77 167.02 1064.52 166.852C1064.27 166.684 1064.07 166.445 1063.96 166.166C1063.84 165.886 1063.81 165.578 1063.87 165.282C1063.93 164.985 1064.07 164.712 1064.29 164.498C1064.5 164.284 1064.77 164.138 1065.07 164.079C1065.37 164.02 1065.68 164.051 1065.96 164.166C1066.24 164.282 1066.47 164.478 1066.64 164.73C1066.81 164.982 1066.9 165.277 1066.9 165.58C1066.9 165.783 1066.86 165.984 1066.79 166.172C1066.71 166.36 1066.6 166.531 1066.46 166.675C1066.32 166.819 1066.15 166.934 1065.96 167.012C1065.77 167.09 1065.57 167.13 1065.37 167.13V167.11Z" fill="#040707"/>
<path d="M1177.5 204.32C1177.36 204.228 1177.19 204.179 1177.02 204.18C1176.17 204.18 1175.82 203.58 1176.25 202.84C1176.34 202.692 1176.37 202.521 1176.36 202.35L1174.36 201.2H1174.25C1174.16 201.269 1174.08 201.353 1174.02 201.45V201.54C1173.96 201.701 1173.86 201.841 1173.72 201.94C1173.58 202.039 1173.42 202.092 1173.24 202.092C1173.07 202.092 1172.91 202.039 1172.77 201.94C1172.63 201.841 1172.53 201.701 1172.47 201.54V201.45C1172.41 201.354 1172.34 201.269 1172.25 201.2H1172.15L1170.15 202.35C1170.14 202.514 1170.18 202.677 1170.26 202.82C1170.69 203.56 1170.34 204.16 1169.49 204.16C1169.32 204.16 1169.16 204.209 1169.02 204.3V206.64C1169.16 206.731 1169.32 206.78 1169.49 206.78C1170.34 206.78 1170.69 207.38 1170.26 208.12C1170.18 208.265 1170.14 208.426 1170.14 208.59L1172.14 209.75H1172.24C1172.33 209.682 1172.41 209.597 1172.47 209.5V209.41C1172.53 209.249 1172.63 209.109 1172.77 209.01C1172.91 208.911 1173.07 208.858 1173.24 208.858C1173.42 208.858 1173.58 208.911 1173.72 209.01C1173.86 209.109 1173.96 209.249 1174.02 209.41V209.5C1174.08 209.597 1174.16 209.682 1174.25 209.75H1174.35L1176.35 208.59C1176.35 208.426 1176.31 208.265 1176.23 208.12C1175.8 207.38 1176.15 206.78 1177 206.78C1177.17 206.78 1177.33 206.731 1177.47 206.64V204.3L1177.5 204.32ZM1173.21 207.02C1172.91 207.02 1172.61 206.93 1172.36 206.762C1172.11 206.594 1171.91 206.355 1171.8 206.076C1171.68 205.796 1171.65 205.488 1171.71 205.192C1171.77 204.895 1171.91 204.622 1172.13 204.408C1172.34 204.194 1172.61 204.049 1172.91 203.99C1173.21 203.931 1173.52 203.961 1173.8 204.077C1174.07 204.192 1174.31 204.389 1174.48 204.64C1174.65 204.892 1174.74 205.188 1174.74 205.49C1174.74 205.895 1174.57 206.283 1174.29 206.569C1174 206.856 1173.61 207.018 1173.21 207.02Z" fill="#040707"/>
<path d="M1290.13 237.83H768.648V220.49C768.788 220.4 768.938 220.31 769.088 220.2C769.498 219.92 769.868 219.07 770.288 218.6L772.668 217.85L774.998 217.13L780.248 215.48C781.645 214.934 783.083 214.499 784.548 214.18C784.718 214.178 784.885 214.141 785.039 214.072C785.194 214.003 785.333 213.904 785.448 213.78C785.528 213.65 785.538 213.5 785.688 213.41C785.785 213.363 785.892 213.343 785.998 213.35L787.288 213.25L787.608 213.89C788.17 213.865 788.733 213.922 789.278 214.06C789.685 214.185 790.099 214.285 790.518 214.36C791.118 214.43 791.738 214.36 792.328 214.36C792.783 214.456 793.231 214.583 793.668 214.74C794.853 214.92 796.05 215.004 797.248 214.99C798.248 215.1 799.248 215.42 800.248 215.55C800.748 215.59 801.249 215.59 801.748 215.55C802.272 215.6 802.8 215.525 803.288 215.33C803.379 215.291 803.46 215.233 803.524 215.158C803.588 215.084 803.634 214.995 803.658 214.9C803.654 214.891 803.652 214.88 803.652 214.87C803.652 214.86 803.654 214.849 803.658 214.84H803.738C803.978 214.84 804.228 214.84 804.478 214.84C804.528 214.846 804.579 214.846 804.628 214.84C804.655 214.82 804.676 214.795 804.69 214.765C804.704 214.735 804.71 214.703 804.708 214.67C804.738 214.494 804.738 214.315 804.708 214.14C804.816 214.11 804.93 214.11 805.038 214.14C805.151 214.159 805.266 214.159 805.378 214.14C805.598 214.07 805.488 213.74 805.488 213.6C805.865 213.58 806.242 213.58 806.618 213.6C806.538 213.3 806.618 213.06 807.008 213.04C807.398 213.02 807.868 213.04 808.288 213.04C808.253 213.14 808.253 213.25 808.288 213.35C808.418 213.71 808.958 213.35 809.168 213.6C809.248 213.69 809.168 214.14 809.168 214.27C809.155 214.353 809.172 214.439 809.218 214.51C809.334 214.611 809.485 214.665 809.638 214.66C810.048 214.66 810.158 214.66 810.248 214.38C810.248 214.38 810.308 213.96 810.248 213.95C810.968 214.03 811.248 214.04 811.248 213.47C811.225 213.395 811.225 213.315 811.248 213.24C811.408 213.02 812.568 213.16 812.858 213.16C813.148 213.16 812.988 213.75 813.018 213.97C813.018 214.01 813.026 214.05 813.044 214.087C813.061 214.123 813.087 214.155 813.118 214.18C813.358 214.35 813.648 214.18 813.828 214.35C814.008 214.52 813.928 214.9 814.008 215.09C814.23 215.56 814.52 215.995 814.868 216.38C815.268 216.83 816.208 216.65 816.868 216.65C817.108 216.65 818.038 215.59 818.208 215.44C818.263 215.394 818.31 215.34 818.348 215.28C818.398 215.188 818.419 215.084 818.408 214.98C818.484 214.399 818.664 213.837 818.938 213.32C819.148 212.87 820.558 212.96 821.048 212.95C821.088 212.961 821.129 212.961 821.168 212.95C821.184 212.942 821.197 212.93 821.207 212.916C821.218 212.903 821.225 212.887 821.228 212.87C821.298 212.7 821.388 212.15 821.588 212.06C821.658 212.045 821.729 212.045 821.798 212.06C822.688 212.06 823.568 212.06 824.448 212.06C824.398 212.907 824.479 213.757 824.688 214.58C824.688 214.85 825.008 215.22 825.138 215.47C825.143 215.489 825.153 215.507 825.167 215.521C825.181 215.535 825.199 215.545 825.218 215.55C825.234 215.557 825.251 215.561 825.268 215.561C825.286 215.561 825.303 215.557 825.318 215.55C827.108 214.9 828.828 213.98 830.558 213.22L834.408 211.51C835.416 210.918 836.551 210.575 837.718 210.51C838.868 210.51 840.008 210.59 841.148 210.71C842.135 210.918 843.15 210.952 844.148 210.81C844.848 210.66 845.498 210.43 846.148 210.24C849.004 209.641 851.935 209.485 854.838 209.78C854.998 210.12 854.988 210.57 855.488 210.78C855.813 210.873 856.152 210.907 856.488 210.88H857.328C858.733 210.765 860.144 210.765 861.548 210.88C862.998 211.09 864.438 211.31 865.878 211.55C867.318 211.79 868.878 212.13 870.468 212.35C870.512 212.355 870.555 212.355 870.598 212.35C870.698 212.35 870.708 212.22 870.698 212.14C870.679 211.924 870.679 211.706 870.698 211.49C870.697 211.441 870.708 211.392 870.731 211.348C870.754 211.304 870.787 211.267 870.828 211.24C870.916 211.213 871.01 211.213 871.098 211.24C872.508 211.24 873.918 211.19 875.328 211.19C875.528 211.175 875.729 211.175 875.928 211.19C876.149 211.244 876.364 211.321 876.568 211.42L881.258 213.52L883.568 214.52C884.253 214.919 884.972 215.254 885.718 215.52C885.882 215.607 886.063 215.658 886.248 215.67C886.422 215.67 886.595 215.64 886.758 215.58C888.358 215.08 889.948 214.58 891.508 214.05C893.003 213.544 894.571 213.288 896.148 213.29H906.398C907.504 213.22 908.613 213.22 909.718 213.29C909.608 213.06 909.818 212.81 910.038 212.63C910.798 211.885 911.775 211.401 912.828 211.25C913.953 211.285 915.061 211.526 916.098 211.96L918.428 212.78C918.972 212.985 919.53 213.149 920.098 213.27C921.273 213.437 922.47 213.303 923.578 212.88C924.098 212.72 924.578 212.54 925.108 212.36C925.654 212.1 926.228 211.905 926.818 211.78C926.937 211.733 927.062 211.706 927.188 211.7C927.281 211.708 927.371 211.728 927.458 211.76C928.278 212.02 929.138 212.24 929.928 212.53C930.437 212.76 930.962 212.954 931.498 213.11C932.096 213.219 932.701 213.272 933.308 213.27C934.493 213.277 935.674 213.125 936.818 212.82C937.832 212.489 938.863 212.219 939.908 212.01C940.572 211.935 941.241 211.908 941.908 211.93H950.258C951.478 211.935 952.695 212.035 953.898 212.23C955.988 212.54 958.078 212.87 960.178 213.17C962.118 213.45 964.058 213.84 966.018 214C968.558 214.2 971.158 214 973.698 214L978.248 213.93H980.348C981.408 213.93 982.498 213.77 983.348 214.39C983.75 214.815 984.233 215.155 984.768 215.39C985.609 215.52 986.461 215.551 987.308 215.48C987.744 215.5 988.18 215.47 988.608 215.39C989.868 215.11 990.548 214.04 991.728 213.61C992.371 213.382 993.066 213.347 993.728 213.51C994.348 213.67 994.608 214.14 995.168 214.37C995.743 214.553 996.35 214.611 996.948 214.54C997.458 214.54 999.268 214.8 999.508 214.42C999.528 214.351 999.528 214.278 999.508 214.21C999.508 213.94 999.508 213.68 999.508 213.42C999.508 213.42 999.508 213.35 999.508 213.33C999.547 213.315 999.59 213.315 999.628 213.33C1000.17 213.225 1000.72 213.225 1001.26 213.33C1001.62 213.475 1001.93 213.722 1002.15 214.04C1003.42 215.34 1005.58 215.56 1007.41 216.15C1009.24 216.74 1011 217.72 1013.02 217.87L1022.39 218.56L1035.68 219.56C1036.36 219.656 1037.05 219.566 1037.68 219.3C1038.65 218.702 1039.76 218.374 1040.9 218.35C1041.87 218.424 1042.83 218.636 1043.75 218.98C1044.65 219.32 1045.57 219.604 1046.51 219.83C1047.91 220.121 1049.37 220.09 1050.76 219.74C1050.99 219.68 1051.22 219.61 1051.46 219.56C1051.85 219.506 1052.24 219.483 1052.63 219.49C1052.83 219.479 1053.03 219.499 1053.22 219.55C1053.34 219.601 1053.46 219.665 1053.57 219.74C1054.39 220.296 1055.16 220.925 1055.87 221.62C1055.95 221.71 1056.05 221.787 1056.16 221.85C1057.28 221.977 1058.42 222.031 1059.55 222.01V220.96H1062.19V220.13L1064.19 219.64L1065.07 219.94L1065.95 220.22V220.67H1068.28C1068.49 220.67 1068.28 221.13 1068.28 221.13H1069.85V221.88H1074.61V221.32C1074.61 221.25 1074.61 221.09 1074.61 221.05C1074.72 221.035 1074.84 221.035 1074.95 221.05C1075.07 221.05 1077.77 222.21 1077.77 222.21H1079.93C1080.07 222.21 1079.93 221.85 1079.93 221.85H1083.14C1086.3 220.96 1089.48 219.71 1092.85 219.39C1096.7 219.084 1100.57 219.467 1104.28 220.52C1107.99 221.411 1111.62 222.626 1115.13 224.15C1116.04 224.645 1116.99 225.038 1117.99 225.32C1121.29 226.08 1124.4 224.32 1127.45 223.66C1131.12 223.047 1134.84 222.749 1138.57 222.77C1144.41 222.442 1150.26 222.586 1156.08 223.2C1157.75 223.42 1159.74 224.09 1161.41 224.07C1163.08 224.05 1164.62 223.24 1166.05 222.83C1167.46 222.474 1168.91 222.332 1170.36 222.41H1177L1177.16 220.48H1174.71L1193.05 209.63L1208.61 221.38H1207.01V225.13H1209.28C1209.78 224.719 1210.35 224.407 1210.96 224.21C1211.17 224.19 1211.38 224.19 1211.59 224.21C1212.03 224.21 1212.47 224.27 1212.9 224.33C1213.28 224.35 1213.65 224.463 1213.98 224.66C1214.2 224.88 1213.98 225.12 1213.98 225.38C1213.98 225.534 1214.02 225.685 1214.1 225.818C1214.18 225.951 1214.29 226.062 1214.42 226.14C1214.72 226.402 1215.05 226.615 1215.42 226.77C1215.49 226.825 1215.58 226.862 1215.67 226.88C1215.79 226.883 1215.9 226.859 1216.01 226.81C1216.87 226.472 1217.76 226.231 1218.67 226.09C1219.44 226.03 1220.22 226.03 1220.99 226.09C1221.2 226.085 1221.41 226.105 1221.62 226.15C1222.11 226.333 1222.58 226.544 1223.05 226.78C1223.59 226.911 1224.17 226.887 1224.7 226.71C1226.51 226.171 1228.43 226.102 1230.28 226.51C1231.04 226.806 1231.85 226.982 1232.67 227.03C1233.46 227.03 1234.24 226.82 1234.92 226.42C1235.16 226.226 1235.44 226.08 1235.74 225.99C1235.89 225.975 1236.04 225.975 1236.19 225.99C1237.16 225.923 1238.14 225.994 1239.09 226.2C1239.93 226.49 1240.81 226.612 1241.7 226.56C1242.07 226.49 1242.44 226.4 1242.81 226.29C1243.76 226.09 1244.74 226.019 1245.72 226.08C1246.42 226.03 1247.13 226.03 1247.84 226.08L1249.93 226.48L1251.68 227.27C1251.97 227.441 1252.28 227.579 1252.6 227.68C1252.83 227.68 1252.94 227.35 1253.05 227.18C1253.07 227.132 1253.11 227.093 1253.16 227.07C1253.21 227.06 1253.26 227.06 1253.31 227.07C1253.88 226.979 1254.47 226.979 1255.04 227.07C1255.11 227.123 1255.17 227.196 1255.2 227.28L1255.86 228.54C1255.88 228.583 1255.9 228.62 1255.94 228.65C1255.99 228.677 1256.05 228.694 1256.11 228.7C1256.37 228.7 1256.92 228.96 1257.17 228.81C1257.22 228.78 1257.27 228.735 1257.3 228.68C1257.6 228.292 1257.84 227.861 1258.01 227.4C1258.13 226.96 1258.01 226.52 1258.47 226.17C1258.84 225.89 1259.24 225.645 1259.66 225.44C1260.19 225.132 1260.68 224.759 1261.12 224.33C1261.35 224.061 1261.64 223.857 1261.98 223.74C1262.22 223.704 1262.46 223.704 1262.7 223.74C1264.08 223.8 1265.53 223.85 1266.93 224.05C1267.77 224.151 1268.6 224.331 1269.41 224.59C1269.81 224.709 1270.19 224.899 1270.53 225.15C1270.88 225.49 1271.15 225.908 1271.32 226.37C1271.66 226.965 1271.9 227.619 1272 228.3L1272.92 228.11C1274.34 227.36 1274.69 228.61 1275.07 228.93C1275.27 229.11 1276.16 229.93 1276.55 229.72C1280.55 227.8 1282.42 227.18 1282.67 226.99L1284.67 228.3H1288L1290.13 237.83Z" fill="#040707"/>
<path fill-rule="evenodd" clip-rule="evenodd" d="M344 136.87C337.773 136.873 331.721 138.93 326.782 142.722C321.842 146.514 318.291 151.83 316.679 157.844C315.068 163.859 315.484 170.238 317.866 175.992C320.247 181.746 324.459 186.553 329.85 189.67V207.6L334.58 212.32H339.29C339.29 213.569 339.786 214.767 340.67 215.651C341.553 216.534 342.751 217.03 344 217.03C345.249 217.03 346.447 216.534 347.331 215.651C348.214 214.767 348.71 213.569 348.71 212.32H353.44L358.15 207.6V189.67C363.549 186.558 367.769 181.751 370.156 175.995C372.542 170.239 372.961 163.856 371.348 157.837C369.735 151.818 366.18 146.5 361.235 142.709C356.29 138.918 350.231 136.865 344 136.87ZM348.71 202.87H339.29V193.05C342.412 193.57 345.598 193.57 348.72 193.05L348.71 202.87Z" fill="black"/>
<path d="M318.209 186L308.203 196.006L313.202 201.005L323.208 191L318.209 186Z" fill="black"/>
<path d="M369.882 186.002L364.883 191.001L374.888 201.007L379.888 196.007L369.882 186.002Z" fill="black"/>
<path d="M391.201 161.62H377.051V168.69H391.201V161.62Z" fill="#FFAE00"/>
<path d="M311.029 161.62H296.879V168.69H311.029V161.62Z" fill="#FFAE00"/>
<path d="M374.892 129.316L364.887 139.321L369.886 144.321L379.892 134.315L374.892 129.316Z" fill="black"/>
<path d="M313.191 129.311L308.191 134.311L318.197 144.316L323.196 139.317L313.191 129.311Z" fill="black"/>
<path d="M347.578 118H340.508V132.15H347.578V118Z" fill="#FFAE00"/>
<path d="M286.721 213.83L285.541 215.96L285.081 216.77C284.964 216.933 284.886 217.12 284.854 217.318C284.821 217.515 284.833 217.718 284.891 217.91H282.631C282.631 218.04 282.631 218.15 282.631 218.25V220.25C282.631 220.79 282.401 221.01 281.871 221.01C281.341 221.01 280.591 221.01 279.961 221.01C279.864 221.025 279.765 221.017 279.671 220.987C279.578 220.957 279.493 220.905 279.423 220.836C279.353 220.767 279.3 220.682 279.268 220.589C279.237 220.496 279.227 220.397 279.241 220.3V217.88H271.861C271.741 217.899 271.618 217.884 271.507 217.836C271.395 217.789 271.3 217.71 271.231 217.61C271.177 217.508 271.153 217.393 271.162 217.278C271.171 217.163 271.212 217.052 271.281 216.96L274.001 212.13C274.191 211.79 274.161 211.75 273.781 211.75H273.001C272.887 211.765 272.771 211.744 272.669 211.69C272.567 211.636 272.484 211.553 272.431 211.45C272.383 211.346 272.367 211.23 272.383 211.117C272.398 211.003 272.447 210.897 272.521 210.81L276.061 205.95L276.181 205.78C276.281 205.63 276.241 205.53 276.051 205.53H275.431C275.315 205.55 275.195 205.533 275.089 205.481C274.983 205.43 274.896 205.346 274.84 205.241C274.785 205.137 274.764 205.018 274.78 204.901C274.796 204.784 274.849 204.675 274.931 204.59L278.211 199.77C278.25 199.724 278.284 199.674 278.311 199.62C278.311 199.55 278.361 199.46 278.391 199.38C278.309 199.352 278.226 199.329 278.141 199.31C277.985 199.325 277.827 199.325 277.671 199.31C277.511 199.31 277.301 199.21 277.251 199.1C277.229 199.019 277.225 198.934 277.239 198.851C277.253 198.769 277.284 198.69 277.331 198.62C277.891 197.81 278.491 197.02 279.071 196.23L280.401 194.43C280.721 194 281.071 194 281.401 194.43C282.401 195.8 283.401 197.17 284.401 198.55C284.511 198.707 284.557 198.9 284.531 199.09C284.481 199.33 284.221 199.31 284.011 199.32C283.801 199.33 283.591 199.38 283.381 199.41C283.481 199.58 283.561 199.77 283.681 199.94C284.728 201.487 285.781 203.033 286.841 204.58C287.051 204.9 287.071 205.17 286.841 205.37C286.713 205.459 286.566 205.518 286.411 205.54C286.201 205.54 285.991 205.54 285.781 205.54C285.698 205.549 285.616 205.573 285.541 205.61C285.561 205.693 285.591 205.774 285.631 205.85C286.381 206.85 287.131 207.93 287.901 208.96C287.965 209.025 288.001 209.113 288.001 209.205C288.001 209.297 287.965 209.385 287.901 209.45C287.301 210.25 286.711 211.07 286.121 211.88C285.981 212.032 285.883 212.217 285.837 212.419C285.792 212.62 285.799 212.83 285.86 213.028C285.921 213.225 286.032 213.403 286.183 213.544C286.334 213.685 286.52 213.783 286.721 213.83Z" fill="#040707"/>
<path d="M291.818 217.92H286.298C286.218 217.925 286.138 217.925 286.058 217.92C285.608 217.92 285.438 217.61 285.658 217.21L287.738 213.49C287.798 213.39 287.838 213.28 287.928 213.11H287.108C287.003 213.127 286.896 213.112 286.8 213.068C286.704 213.023 286.623 212.951 286.568 212.86C286.532 212.766 286.524 212.664 286.545 212.567C286.567 212.469 286.616 212.379 286.688 212.31C287.588 211.09 288.478 209.86 289.368 208.64C289.428 208.56 289.478 208.46 289.588 208.28C289.372 208.295 289.155 208.295 288.938 208.28C288.76 208.256 288.592 208.18 288.458 208.06C288.298 207.89 288.458 207.69 288.538 207.51C289.378 206.29 290.212 205.063 291.038 203.83C291.114 203.715 291.181 203.595 291.238 203.47H290.618C290.288 203.47 290.148 203.2 290.348 202.94C291.158 201.83 291.968 200.72 292.798 199.62C292.831 199.559 292.879 199.508 292.938 199.473C292.997 199.438 293.064 199.419 293.133 199.419C293.202 199.419 293.269 199.438 293.328 199.473C293.387 199.508 293.436 199.559 293.468 199.62C294.288 200.71 295.098 201.81 295.898 202.91C296.108 203.2 295.968 203.44 295.618 203.46H295.348H295.028C295.098 203.59 295.138 203.7 295.198 203.79L297.618 207.34C297.681 207.419 297.737 207.502 297.788 207.59C297.833 207.654 297.859 207.729 297.863 207.807C297.867 207.885 297.85 207.962 297.812 208.031C297.775 208.1 297.719 208.156 297.651 208.195C297.584 208.234 297.506 208.252 297.428 208.25H296.678C296.778 208.42 296.828 208.52 296.888 208.61L299.508 212.21C299.648 212.4 299.808 212.58 299.678 212.83C299.548 213.08 299.318 213.08 299.088 213.08H298.338C298.408 213.23 298.448 213.34 298.498 213.44C299.188 214.66 299.878 215.88 300.558 217.11C300.838 217.61 300.668 217.89 300.098 217.89C298.338 217.89 296.588 217.89 294.838 217.89H294.448C294.448 218.03 294.448 218.13 294.448 218.24V220.39C294.448 220.84 294.258 221.02 293.808 221.02H292.518C291.998 221.02 291.828 220.85 291.828 220.34V217.88L291.818 217.92Z" fill="#040707"/>
<path opacity="0.1" d="M1327.5 154.873C1327.42 155.252 1327.26 155.67 1327.02 155.908C1326.79 156.147 1326.37 156.31 1326 156.391C1326.37 156.473 1326.79 156.636 1327.02 156.875C1327.26 157.113 1327.42 157.53 1327.5 157.91C1327.58 157.53 1327.74 157.113 1327.98 156.874C1328.21 156.636 1328.63 156.473 1329 156.391C1328.63 156.31 1328.21 156.147 1327.98 155.908C1327.74 155.67 1327.58 155.252 1327.5 154.873Z" fill="white"/>
<path opacity="0.5" d="M321.5 68.833C321.42 69.2123 321.258 69.6296 321.023 69.8683C320.787 70.1068 320.375 70.2702 320 70.3515C320.375 70.4328 320.787 70.5958 321.023 70.8346C321.258 71.0733 321.42 71.4902 321.5 71.8697C321.58 71.4902 321.742 71.0733 321.978 70.8345C322.213 70.5958 322.625 70.4325 323 70.3511C322.625 70.2701 322.213 70.1068 321.977 69.8681C321.742 69.6296 321.58 69.2123 321.5 68.833Z" fill="white"/>
<path opacity="0.1" d="M1374.5 184.229C1374.42 184.608 1374.26 185.025 1374.02 185.264C1373.79 185.502 1373.37 185.666 1373 185.747C1373.37 185.828 1373.79 185.991 1374.02 186.23C1374.26 186.469 1374.42 186.886 1374.5 187.265C1374.58 186.886 1374.74 186.469 1374.98 186.23C1375.21 185.991 1375.63 185.828 1376 185.747C1375.63 185.666 1375.21 185.502 1374.98 185.264C1374.74 185.025 1374.58 184.608 1374.5 184.229Z" fill="white"/>
<path opacity="0.1" d="M352.5 108.311C352.42 108.69 352.258 109.107 352.023 109.346C351.787 109.584 351.375 109.748 351 109.829C351.375 109.91 351.787 110.073 352.023 110.312C352.258 110.551 352.42 110.968 352.5 111.347C352.58 110.968 352.742 110.551 352.978 110.312C353.213 110.073 353.625 109.91 354 109.829C353.625 109.748 353.213 109.584 352.977 109.346C352.742 109.107 352.58 108.69 352.5 108.311Z" fill="white"/>
<path opacity="0.1" d="M395.5 136.653C395.42 137.033 395.258 137.45 395.023 137.689C394.787 137.927 394.375 138.091 394 138.172C394.375 138.253 394.787 138.416 395.023 138.655C395.258 138.894 395.42 139.311 395.5 139.69C395.58 139.311 395.742 138.894 395.978 138.655C396.213 138.416 396.625 138.253 397 138.171C396.625 138.09 396.213 137.927 395.977 137.688C395.742 137.45 395.58 137.033 395.5 136.653Z" fill="white"/>
<path opacity="0.5" d="M432.5 76.9307C432.42 77.31 432.258 77.7273 432.023 77.9659C431.787 78.2044 431.375 78.3679 431 78.4491C431.375 78.5305 431.787 78.6934 432.023 78.9323C432.258 79.1709 432.42 79.5879 432.5 79.9674C432.58 79.5879 432.742 79.1709 432.978 78.9321C433.213 78.6935 433.625 78.5302 434 78.4488C433.625 78.3677 433.213 78.2045 432.977 77.9658C432.742 77.7273 432.58 77.31 432.5 76.9307Z" fill="white"/>
<path opacity="0.1" d="M1029.5 172.082C1029.42 172.461 1029.26 172.879 1029.02 173.117C1028.79 173.356 1028.37 173.519 1028 173.6C1028.37 173.682 1028.79 173.845 1029.02 174.084C1029.26 174.322 1029.42 174.739 1029.5 175.119C1029.58 174.739 1029.74 174.322 1029.98 174.083C1030.21 173.845 1030.63 173.682 1031 173.6C1030.63 173.519 1030.21 173.356 1029.98 173.117C1029.74 172.879 1029.58 172.461 1029.5 172.082Z" fill="white"/>
<path opacity="0.1" d="M1005.5 144.751C1005.42 145.13 1005.26 145.548 1005.02 145.786C1004.79 146.025 1004.37 146.188 1004 146.269C1004.37 146.351 1004.79 146.514 1005.02 146.753C1005.26 146.991 1005.42 147.408 1005.5 147.788C1005.58 147.408 1005.74 146.991 1005.98 146.752C1006.21 146.514 1006.63 146.35 1007 146.269C1006.63 146.188 1006.21 146.025 1005.98 145.786C1005.74 145.548 1005.58 145.13 1005.5 144.751Z" fill="white"/>
<path opacity="0.5" d="M747.5 146.775C747.42 147.155 747.258 147.572 747.023 147.811C746.787 148.049 746.375 148.213 746 148.294C746.375 148.375 746.787 148.538 747.023 148.777C747.258 149.016 747.42 149.433 747.5 149.812C747.58 149.433 747.742 149.016 747.978 148.777C748.213 148.538 748.625 148.375 749 148.294C748.625 148.212 748.213 148.049 747.977 147.811C747.742 147.572 747.58 147.155 747.5 146.775Z" fill="white"/>
<path opacity="0.1" d="M1000.5 91.1016C1000.42 91.4809 1000.26 91.8982 1000.02 92.1368C999.787 92.3753 999.375 92.5388 999 92.62C999.375 92.7014 999.787 92.8643 1000.02 93.1032C1000.26 93.3418 1000.42 93.7588 1000.5 94.1383C1000.58 93.7588 1000.74 93.3418 1000.98 93.103C1001.21 92.8644 1001.63 92.7011 1002 92.6197C1001.63 92.5386 1001.21 92.3754 1000.98 92.1367C1000.74 91.8982 1000.58 91.4809 1000.5 91.1016Z" fill="white"/>
<path opacity="0.1" d="M889.5 170.058C889.42 170.437 889.258 170.854 889.023 171.093C888.787 171.331 888.375 171.495 888 171.576C888.375 171.657 888.787 171.82 889.023 172.059C889.258 172.298 889.42 172.715 889.5 173.094C889.58 172.715 889.742 172.298 889.978 172.059C890.213 171.82 890.625 171.657 891 171.576C890.625 171.495 890.213 171.331 889.977 171.093C889.742 170.854 889.58 170.437 889.5 170.058Z" fill="white"/>
<path opacity="0.1" d="M835.5 147.788C835.42 148.167 835.258 148.585 835.023 148.823C834.787 149.062 834.375 149.225 834 149.307C834.375 149.388 834.787 149.551 835.023 149.79C835.258 150.028 835.42 150.445 835.5 150.825C835.58 150.445 835.742 150.028 835.978 149.79C836.213 149.551 836.625 149.388 837 149.306C836.625 149.225 836.213 149.062 835.977 148.823C835.742 148.585 835.58 148.167 835.5 147.788Z" fill="white"/>
<path opacity="0.1" d="M1202.5 105.273C1202.42 105.653 1202.26 106.07 1202.02 106.309C1201.79 106.547 1201.37 106.711 1201 106.792C1201.37 106.873 1201.79 107.036 1202.02 107.275C1202.26 107.514 1202.42 107.931 1202.5 108.31C1202.58 107.931 1202.74 107.514 1202.98 107.275C1203.21 107.036 1203.63 106.873 1204 106.792C1203.63 106.71 1203.21 106.547 1202.98 106.309C1202.74 106.07 1202.58 105.653 1202.5 105.273Z" fill="white"/>
<path opacity="0.5" d="M227.5 164.996C227.42 165.375 227.258 165.793 227.023 166.031C226.787 166.27 226.375 166.433 226 166.515C226.375 166.596 226.787 166.759 227.023 166.998C227.258 167.236 227.42 167.653 227.5 168.033C227.58 167.653 227.742 167.236 227.978 166.998C228.213 166.759 228.625 166.596 229 166.514C228.625 166.433 228.213 166.27 227.977 166.031C227.742 165.793 227.58 165.375 227.5 164.996Z" fill="white"/>
<path opacity="0.5" d="M1129.5 106.286C1129.42 106.665 1129.26 107.083 1129.02 107.321C1128.79 107.56 1128.37 107.723 1128 107.805C1128.37 107.886 1128.79 108.049 1129.02 108.288C1129.26 108.526 1129.42 108.943 1129.5 109.323C1129.58 108.943 1129.74 108.526 1129.98 108.288C1130.21 108.049 1130.63 107.886 1131 107.804C1130.63 107.723 1130.21 107.56 1129.98 107.321C1129.74 107.083 1129.58 106.665 1129.5 106.286Z" fill="white"/>
<path opacity="0.5" d="M986.5 179.167C986.42 179.546 986.258 179.964 986.023 180.202C985.787 180.441 985.375 180.604 985 180.685C985.375 180.767 985.787 180.93 986.023 181.169C986.258 181.407 986.42 181.824 986.5 182.204C986.58 181.824 986.742 181.407 986.978 181.168C987.213 180.93 987.625 180.767 988 180.685C987.625 180.604 987.213 180.441 986.977 180.202C986.742 179.964 986.58 179.546 986.5 179.167Z" fill="white"/>
<path opacity="0.5" d="M952.5 135.641C952.42 136.02 952.258 136.437 952.023 136.676C951.787 136.914 951.375 137.078 951 137.159C951.375 137.24 951.787 137.403 952.023 137.642C952.258 137.881 952.42 138.298 952.5 138.677C952.58 138.298 952.742 137.881 952.978 137.642C953.213 137.403 953.625 137.24 954 137.159C953.625 137.078 953.213 136.914 952.977 136.676C952.742 136.437 952.58 136.02 952.5 135.641Z" fill="white"/>
<path opacity="0.5" d="M893.5 124.506C893.42 124.885 893.258 125.302 893.023 125.541C892.787 125.78 892.375 125.943 892 126.024C892.375 126.106 892.787 126.269 893.023 126.507C893.258 126.746 893.42 127.163 893.5 127.543C893.58 127.163 893.742 126.746 893.978 126.507C894.213 126.269 894.625 126.105 895 126.024C894.625 125.943 894.213 125.78 893.977 125.541C893.742 125.302 893.58 124.885 893.5 124.506Z" fill="white"/>
<path opacity="0.5" d="M693 158.923C692.946 159.302 692.839 159.719 692.682 159.958C692.525 160.197 692.25 160.36 692 160.441C692.25 160.523 692.525 160.686 692.682 160.924C692.839 161.163 692.947 161.58 693 161.96C693.054 161.58 693.161 161.163 693.318 160.924C693.475 160.686 693.75 160.522 694 160.441C693.75 160.36 693.475 160.197 693.318 159.958C693.161 159.719 693.053 159.302 693 158.923Z" fill="white"/>
<path opacity="0.5" d="M632 175.118C631.946 175.497 631.839 175.915 631.682 176.153C631.525 176.392 631.25 176.555 631 176.637C631.25 176.718 631.525 176.881 631.682 177.12C631.839 177.358 631.947 177.775 632 178.155C632.054 177.775 632.161 177.358 632.318 177.12C632.475 176.881 632.75 176.718 633 176.636C632.75 176.555 632.475 176.392 632.318 176.153C632.161 175.915 632.053 175.498 632 175.118Z" fill="white"/>
<path opacity="0.5" d="M296 105.273C295.946 105.653 295.839 106.07 295.682 106.309C295.525 106.547 295.25 106.711 295 106.792C295.25 106.873 295.525 107.036 295.682 107.275C295.839 107.514 295.947 107.931 296 108.31C296.054 107.931 296.161 107.514 296.318 107.275C296.475 107.036 296.75 106.873 297 106.792C296.75 106.71 296.475 106.547 296.318 106.309C296.161 106.07 296.053 105.653 296 105.273Z" fill="white"/>
<path opacity="0.1" d="M570.5 143.739C570.42 144.119 570.258 144.536 570.023 144.775C569.787 145.013 569.375 145.176 569 145.258C569.375 145.339 569.787 145.502 570.023 145.741C570.258 145.98 570.42 146.396 570.5 146.776C570.58 146.396 570.742 145.98 570.978 145.741C571.213 145.502 571.625 145.339 572 145.257C571.625 145.176 571.213 145.013 570.977 144.774C570.742 144.536 570.58 144.119 570.5 143.739Z" fill="white"/>
<path opacity="0.2" d="M1256.5 181.191C1256.37 181.824 1256.1 182.519 1255.7 182.917C1255.31 183.314 1254.62 183.587 1254 183.722C1254.62 183.858 1255.31 184.129 1255.7 184.527C1256.1 184.925 1256.37 185.62 1256.5 186.253C1256.63 185.62 1256.9 184.925 1257.3 184.527C1257.69 184.129 1258.38 183.857 1259 183.722C1258.38 183.586 1257.69 183.314 1257.3 182.917C1256.9 182.519 1256.63 181.824 1256.5 181.191Z" fill="white"/>
<path opacity="0.2" d="M403.5 172.082C403.366 172.714 403.097 173.41 402.704 173.808C402.311 174.205 401.625 174.477 401 174.613C401.625 174.748 402.311 175.02 402.704 175.418C403.097 175.816 403.367 176.511 403.5 177.143C403.634 176.511 403.903 175.816 404.296 175.418C404.689 175.02 405.376 174.748 406 174.612C405.376 174.477 404.689 174.205 404.296 173.807C403.903 173.41 403.633 172.714 403.5 172.082Z" fill="white"/>
<path opacity="0.2" d="M251.5 49.5996C251.366 50.2318 251.097 50.9273 250.704 51.3251C250.311 51.7226 249.625 51.995 249 52.1304C249.625 52.266 250.311 52.5376 250.704 52.9356C251.097 53.3334 251.367 54.0283 251.5 54.6608C251.634 54.0283 251.903 53.3334 252.296 52.9354C252.689 52.5376 253.376 52.2655 254 52.1298C253.376 51.9947 252.689 51.7226 252.296 51.3248C251.903 50.9273 251.633 50.2318 251.5 49.5996Z" fill="white"/>
<path opacity="0.1" d="M1090.5 134.629C1090.37 135.261 1090.1 135.957 1089.7 136.354C1089.31 136.752 1088.62 137.024 1088 137.16C1088.62 137.295 1089.31 137.567 1089.7 137.965C1090.1 138.363 1090.37 139.058 1090.5 139.69C1090.63 139.058 1090.9 138.363 1091.3 137.965C1091.69 137.567 1092.38 137.295 1093 137.159C1092.38 137.024 1091.69 136.752 1091.3 136.354C1090.9 135.957 1090.63 135.261 1090.5 134.629Z" fill="white"/>
<path opacity="0.1" d="M161.5 71.8691C161.366 72.5013 161.097 73.1968 160.704 73.5946C160.311 73.9921 159.625 74.2645 159 74.3999C159.625 74.5355 160.311 74.8071 160.704 75.2052C161.097 75.6029 161.367 76.2978 161.5 76.9304C161.634 76.2978 161.903 75.6029 162.296 75.2049C162.689 74.8071 163.376 74.535 164 74.3994C163.376 74.2642 162.689 73.9921 162.296 73.5944C161.903 73.1969 161.633 72.5014 161.5 71.8691Z" fill="white"/>
<path opacity="0.1" d="M158.5 127.543C158.366 128.175 158.097 128.871 157.704 129.268C157.311 129.666 156.625 129.938 156 130.074C156.625 130.209 157.311 130.481 157.704 130.879C158.097 131.277 158.367 131.972 158.5 132.604C158.634 131.972 158.903 131.277 159.296 130.879C159.689 130.481 160.376 130.209 161 130.073C160.376 129.938 159.689 129.666 159.296 129.268C158.903 128.871 158.633 128.175 158.5 127.543Z" fill="white"/>
<path opacity="0.2" d="M1042.5 105.273C1042.37 105.906 1042.1 106.601 1041.7 106.999C1041.31 107.396 1040.62 107.669 1040 107.804C1040.62 107.94 1041.31 108.211 1041.7 108.609C1042.1 109.007 1042.37 109.702 1042.5 110.335C1042.63 109.702 1042.9 109.007 1043.3 108.609C1043.69 108.211 1044.38 107.939 1045 107.804C1044.38 107.669 1043.69 107.396 1043.3 106.999C1042.9 106.601 1042.63 105.906 1042.5 105.273Z" fill="white"/>
<path opacity="0.2" d="M662.5 115.396C662.366 116.028 662.097 116.723 661.704 117.121C661.311 117.518 660.625 117.791 660 117.926C660.625 118.062 661.311 118.333 661.704 118.732C662.097 119.129 662.367 119.824 662.5 120.457C662.634 119.824 662.903 119.129 663.296 118.731C663.689 118.334 664.376 118.061 665 117.926C664.376 117.791 663.689 117.519 663.296 117.121C662.903 116.723 662.633 116.028 662.5 115.396Z" fill="white"/>
<path opacity="0.2" d="M493.5 123.494C493.366 124.126 493.097 124.822 492.704 125.22C492.311 125.617 491.625 125.89 491 126.025C491.625 126.161 492.311 126.432 492.704 126.83C493.097 127.228 493.367 127.923 493.5 128.555C493.634 127.923 493.903 127.228 494.296 126.83C494.689 126.432 495.376 126.16 496 126.024C495.376 125.889 494.689 125.617 494.296 125.219C493.903 124.822 493.633 124.126 493.5 123.494Z" fill="white"/>
<path opacity="0.2" d="M804.5 105.273C804.366 105.906 804.097 106.601 803.704 106.999C803.311 107.396 802.625 107.669 802 107.804C802.625 107.94 803.311 108.211 803.704 108.609C804.097 109.007 804.367 109.702 804.5 110.335C804.634 109.702 804.903 109.007 805.296 108.609C805.689 108.211 806.376 107.939 807 107.804C806.376 107.669 805.689 107.396 805.296 106.999C804.903 106.601 804.633 105.906 804.5 105.273Z" fill="white"/>
<path opacity="0.2" d="M580.5 108.311C580.366 108.943 580.097 109.638 579.704 110.036C579.311 110.434 578.625 110.706 578 110.841C578.625 110.977 579.311 111.249 579.704 111.647C580.097 112.044 580.367 112.739 580.5 113.372C580.634 112.739 580.903 112.044 581.296 111.646C581.689 111.249 582.376 110.976 583 110.841C582.376 110.706 581.689 110.434 581.296 110.036C580.903 109.638 580.633 108.943 580.5 108.311Z" fill="white"/>
<path opacity="0.1" d="M927.5 78.9551C927.366 79.5873 927.097 80.2828 926.704 80.6805C926.311 81.0781 925.625 81.3505 925 81.4858C925.625 81.6215 926.311 81.893 926.704 82.2911C927.097 82.6888 927.367 83.3838 927.5 84.0163C927.634 83.3838 927.903 82.6889 928.296 82.2908C928.689 81.8931 929.376 81.6209 930 81.4853C929.376 81.3502 928.689 81.0781 928.296 80.6803C927.903 80.2828 927.633 79.5873 927.5 78.9551Z" fill="white"/>
<path opacity="0.5" d="M724.5 108.311C724.366 108.943 724.097 109.638 723.704 110.036C723.311 110.434 722.625 110.706 722 110.841C722.625 110.977 723.311 111.249 723.704 111.647C724.097 112.044 724.367 112.739 724.5 113.372C724.634 112.739 724.903 112.044 725.296 111.646C725.689 111.249 726.376 110.976 727 110.841C726.376 110.706 725.689 110.434 725.296 110.036C724.903 109.638 724.633 108.943 724.5 108.311Z" fill="white"/>
<path opacity="0.5" d="M421.5 110.335C421.366 110.967 421.097 111.663 420.704 112.06C420.311 112.458 419.625 112.73 419 112.866C419.625 113.001 420.311 113.273 420.704 113.671C421.097 114.069 421.367 114.764 421.5 115.396C421.634 114.764 421.903 114.069 422.296 113.671C422.689 113.273 423.376 113.001 424 112.865C423.376 112.73 422.689 112.458 422.296 112.06C421.903 111.663 421.633 110.967 421.5 110.335Z" fill="white"/>
<path opacity="0.5" d="M104.5 34.416C104.366 35.0482 104.097 35.7437 103.704 36.1415C103.311 36.539 102.625 36.8114 102 36.9468C102.625 37.0824 103.311 37.354 103.704 37.752C104.097 38.1498 104.367 38.8447 104.5 39.4772C104.634 38.8447 104.903 38.1498 105.296 37.7518C105.689 37.354 106.376 37.0819 107 36.9462C106.376 36.8111 105.689 36.539 105.296 36.1412C104.903 35.7437 104.633 35.0482 104.5 34.416Z" fill="white"/>
<path opacity="0.5" d="M939.5 177.143C939.42 177.522 939.258 177.939 939.023 178.178C938.787 178.416 938.375 178.58 938 178.661C938.375 178.742 938.787 178.905 939.023 179.144C939.258 179.383 939.42 179.8 939.5 180.179C939.58 179.8 939.742 179.383 939.978 179.144C940.213 178.905 940.625 178.742 941 178.661C940.625 178.58 940.213 178.416 939.977 178.178C939.742 177.939 939.58 177.522 939.5 177.143Z" fill="white"/>
<path opacity="0.2" d="M1193.5 181.191C1193.37 181.824 1193.1 182.519 1192.7 182.917C1192.31 183.314 1191.62 183.587 1191 183.722C1191.62 183.858 1192.31 184.129 1192.7 184.527C1193.1 184.925 1193.37 185.62 1193.5 186.253C1193.63 185.62 1193.9 184.925 1194.3 184.527C1194.69 184.129 1195.38 183.857 1196 183.722C1195.38 183.586 1194.69 183.314 1194.3 182.917C1193.9 182.519 1193.63 181.824 1193.5 181.191Z" fill="white"/>
<path opacity="0.2" d="M201.5 112.359C201.366 112.992 201.097 113.687 200.704 114.085C200.311 114.482 199.625 114.755 199 114.89C199.625 115.026 200.311 115.297 200.704 115.695C201.097 116.093 201.367 116.788 201.5 117.421C201.634 116.788 201.903 116.093 202.296 115.695C202.689 115.297 203.376 115.025 204 114.89C203.376 114.754 202.689 114.482 202.296 114.085C201.903 113.687 201.633 112.992 201.5 112.359Z" fill="white"/>
<path opacity="0.2" d="M238 107.298C237.946 107.551 237.839 107.829 237.682 107.988C237.525 108.147 237.25 108.256 237 108.31C237.25 108.364 237.525 108.473 237.682 108.632C237.839 108.791 237.947 109.069 238 109.322C238.054 109.069 238.161 108.791 238.318 108.632C238.475 108.473 238.75 108.364 239 108.31C238.75 108.256 238.475 108.147 238.318 107.988C238.161 107.829 238.053 107.551 238 107.298Z" fill="white"/>
<path opacity="0.5" d="M126 147.788C125.946 148.041 125.839 148.319 125.682 148.478C125.525 148.637 125.25 148.746 125 148.8C125.25 148.855 125.525 148.963 125.682 149.122C125.839 149.282 125.947 149.56 126 149.813C126.054 149.56 126.161 149.282 126.318 149.122C126.475 148.963 126.75 148.854 127 148.8C126.75 148.746 126.475 148.637 126.318 148.478C126.161 148.319 126.053 148.041 126 147.788Z" fill="white"/>
<path opacity="0.2" d="M183 155.886C182.946 156.139 182.839 156.417 182.682 156.576C182.525 156.735 182.25 156.844 182 156.898C182.25 156.952 182.525 157.061 182.682 157.22C182.839 157.379 182.947 157.657 183 157.91C183.054 157.657 183.161 157.379 183.318 157.22C183.475 157.061 183.75 156.952 184 156.898C183.75 156.844 183.475 156.735 183.318 156.576C183.161 156.417 183.053 156.139 183 155.886Z" fill="white"/>
<path opacity="0.2" d="M68.9999 132.604C68.9464 132.857 68.839 133.136 68.6818 133.295C68.5246 133.454 68.2498 133.563 68 133.617C68.2498 133.671 68.5246 133.78 68.6818 133.939C68.839 134.098 68.9466 134.376 69.0001 134.629C69.0536 134.376 69.1611 134.098 69.3183 133.939C69.4754 133.78 69.7502 133.671 70 133.617C69.7502 133.563 69.4754 133.454 69.3182 133.295C69.1611 133.136 69.0534 132.857 68.9999 132.604Z" fill="white"/>
<path opacity="0.5" d="M87.4998 179.167C87.366 179.799 87.0975 180.495 86.7044 180.892C86.3114 181.29 85.6245 181.562 85 181.698C85.6245 181.833 86.3114 182.105 86.7044 182.503C87.0975 182.901 87.3666 183.596 87.5003 184.228C87.634 183.596 87.9026 182.901 88.2958 182.503C88.6886 182.105 89.3756 181.833 90 181.697C89.3756 181.562 88.6886 181.29 88.2956 180.892C87.9026 180.495 87.6334 179.799 87.4998 179.167Z" fill="white"/>
<path opacity="0.2" d="M107.5 102.236C107.366 102.869 107.097 103.564 106.704 103.962C106.311 104.359 105.625 104.632 105 104.767C105.625 104.903 106.311 105.174 106.704 105.572C107.097 105.97 107.367 106.665 107.5 107.298C107.634 106.665 107.903 105.97 108.296 105.572C108.689 105.174 109.376 104.902 110 104.767C109.376 104.631 108.689 104.359 108.296 103.962C107.903 103.564 107.633 102.869 107.5 102.236Z" fill="white"/>
<path opacity="0.5" d="M1265.5 130.579C1265.37 131.211 1265.1 131.907 1264.7 132.305C1264.31 132.702 1263.62 132.974 1263 133.11C1263.62 133.245 1264.31 133.517 1264.7 133.915C1265.1 134.313 1265.37 135.008 1265.5 135.64C1265.63 135.008 1265.9 134.313 1266.3 133.915C1266.69 133.517 1267.38 133.245 1268 133.109C1267.38 132.974 1266.69 132.702 1266.3 132.304C1265.9 131.907 1265.63 131.211 1265.5 130.579Z" fill="white"/>
<path opacity="0.1" d="M1370.5 0C1370.37 0.632195 1370.1 1.32768 1369.7 1.72547C1369.31 2.12297 1368.62 2.39538 1368 2.53074C1368.62 2.6664 1369.31 2.93796 1369.7 3.33601C1370.1 3.73377 1370.37 4.42871 1370.5 5.06122C1370.63 4.42871 1370.9 3.7338 1371.3 3.33575C1371.69 2.93799 1372.38 2.66585 1373 2.53023C1372.38 2.39509 1371.69 2.12301 1371.3 1.72521C1370.9 1.32771 1370.63 0.632227 1370.5 0Z" fill="white"/>
<path opacity="0.5" d="M1227.5 63.7715C1227.37 64.4037 1227.1 65.0992 1226.7 65.497C1226.31 65.8945 1225.62 66.1669 1225 66.3022C1225.62 66.4379 1226.31 66.7094 1226.7 67.1075C1227.1 67.5053 1227.37 68.2002 1227.5 68.8327C1227.63 68.2002 1227.9 67.5053 1228.3 67.1072C1228.69 66.7095 1229.38 66.4373 1230 66.3017C1229.38 66.1666 1228.69 65.8945 1228.3 65.4967C1227.9 65.0992 1227.63 64.4037 1227.5 63.7715Z" fill="white"/>
</svg>
