<svg width="1440" height="228" viewBox="0 0 1440 228" fill="none" xmlns="http://www.w3.org/2000/svg">
<path opacity="0.1" d="M1277.5 178C1277.42 178.375 1277.26 178.787 1277.02 179.023C1276.79 179.258 1276.37 179.42 1276 179.5C1276.37 179.58 1276.79 179.741 1277.02 179.977C1277.26 180.213 1277.42 180.625 1277.5 181C1277.58 180.625 1277.74 180.213 1277.98 179.977C1278.21 179.741 1278.63 179.58 1279 179.5C1278.63 179.42 1278.21 179.258 1277.98 179.023C1277.74 178.787 1277.58 178.375 1277.5 178Z" fill="white"/>
<path opacity="0.5" d="M289.5 114C289.42 114.375 289.258 114.787 289.023 115.023C288.787 115.258 288.375 115.42 288 115.5C288.375 115.58 288.787 115.741 289.023 115.977C289.258 116.213 289.42 116.625 289.5 117C289.58 116.625 289.742 116.213 289.978 115.977C290.213 115.741 290.625 115.58 291 115.5C290.625 115.42 290.213 115.258 289.977 115.023C289.742 114.787 289.58 114.375 289.5 114Z" fill="white"/>
<path opacity="0.1" d="M1363.5 182C1363.42 182.375 1363.26 182.787 1363.02 183.023C1362.79 183.258 1362.37 183.42 1362 183.5C1362.37 183.58 1362.79 183.741 1363.02 183.977C1363.26 184.213 1363.42 184.625 1363.5 185C1363.58 184.625 1363.74 184.213 1363.98 183.977C1364.21 183.741 1364.63 183.58 1365 183.5C1364.63 183.42 1364.21 183.258 1363.98 183.023C1363.74 182.787 1363.58 182.375 1363.5 182Z" fill="white"/>
<path opacity="0.1" d="M323.5 54C323.42 54.3747 323.258 54.787 323.023 55.0228C322.787 55.2584 322.375 55.4198 322 55.5001C322.375 55.5805 322.787 55.7415 323.023 55.9774C323.258 56.2132 323.42 56.6251 323.5 57C323.58 56.6251 323.742 56.2132 323.978 55.9772C324.213 55.7415 324.625 55.5802 325 55.4998C324.625 55.4197 324.213 55.2584 323.977 55.0226C323.742 54.787 323.58 54.3747 323.5 54Z" fill="white"/>
<path opacity="0.5" d="M421.5 76C421.42 76.3747 421.258 76.787 421.023 77.0228C420.787 77.2584 420.375 77.4198 420 77.5001C420.375 77.5805 420.787 77.7415 421.023 77.9774C421.258 78.2132 421.42 78.6251 421.5 79C421.58 78.6251 421.742 78.2132 421.978 77.9772C422.213 77.7415 422.625 77.5802 423 77.4998C422.625 77.4197 422.213 77.2584 421.977 77.0226C421.742 76.787 421.58 76.3747 421.5 76Z" fill="white"/>
<path opacity="0.1" d="M1005.5 163C1005.42 163.375 1005.26 163.787 1005.02 164.023C1004.79 164.258 1004.37 164.42 1004 164.5C1004.37 164.58 1004.79 164.741 1005.02 164.977C1005.26 165.213 1005.42 165.625 1005.5 166C1005.58 165.625 1005.74 165.213 1005.98 164.977C1006.21 164.741 1006.63 164.58 1007 164.5C1006.63 164.42 1006.21 164.258 1005.98 164.023C1005.74 163.787 1005.58 163.375 1005.5 163Z" fill="white"/>
<path opacity="0.5" d="M717.5 149C717.42 149.375 717.258 149.787 717.023 150.023C716.787 150.258 716.375 150.42 716 150.5C716.375 150.58 716.787 150.741 717.023 150.977C717.258 151.213 717.42 151.625 717.5 152C717.58 151.625 717.742 151.213 717.978 150.977C718.213 150.741 718.625 150.58 719 150.5C718.625 150.42 718.213 150.258 717.977 150.023C717.742 149.787 717.58 149.375 717.5 149Z" fill="white"/>
<path opacity="0.1" d="M994.5 119C994.42 119.375 994.258 119.787 994.023 120.023C993.787 120.258 993.375 120.42 993 120.5C993.375 120.58 993.787 120.741 994.023 120.977C994.258 121.213 994.42 121.625 994.5 122C994.58 121.625 994.742 121.213 994.978 120.977C995.213 120.741 995.625 120.58 996 120.5C995.625 120.42 995.213 120.258 994.977 120.023C994.742 119.787 994.58 119.375 994.5 119Z" fill="white"/>
<path opacity="0.1" d="M1209.5 122C1209.42 122.375 1209.26 122.787 1209.02 123.023C1208.79 123.258 1208.37 123.42 1208 123.5C1208.37 123.58 1208.79 123.741 1209.02 123.977C1209.26 124.213 1209.42 124.625 1209.5 125C1209.58 124.625 1209.74 124.213 1209.98 123.977C1210.21 123.741 1210.63 123.58 1211 123.5C1210.63 123.42 1210.21 123.258 1209.98 123.023C1209.74 122.787 1209.58 122.375 1209.5 122Z" fill="white"/>
<path opacity="0.5" d="M1122.5 87C1122.42 87.3747 1122.26 87.787 1122.02 88.0228C1121.79 88.2584 1121.37 88.4198 1121 88.5001C1121.37 88.5805 1121.79 88.7415 1122.02 88.9774C1122.26 89.2132 1122.42 89.6251 1122.5 90C1122.58 89.6251 1122.74 89.2132 1122.98 88.9772C1123.21 88.7415 1123.63 88.5802 1124 88.4998C1123.63 88.4197 1123.21 88.2584 1122.98 88.0226C1122.74 87.787 1122.58 87.3747 1122.5 87Z" fill="white"/>
<path opacity="0.5" d="M941.5 146C941.42 146.375 941.258 146.787 941.023 147.023C940.787 147.258 940.375 147.42 940 147.5C940.375 147.58 940.787 147.741 941.023 147.977C941.258 148.213 941.42 148.625 941.5 149C941.58 148.625 941.742 148.213 941.978 147.977C942.213 147.741 942.625 147.58 943 147.5C942.625 147.42 942.213 147.258 941.977 147.023C941.742 146.787 941.58 146.375 941.5 146Z" fill="white"/>
<path opacity="0.5" d="M839.5 141C839.42 141.375 839.258 141.787 839.023 142.023C838.787 142.258 838.375 142.42 838 142.5C838.375 142.58 838.787 142.741 839.023 142.977C839.258 143.213 839.42 143.625 839.5 144C839.58 143.625 839.742 143.213 839.978 142.977C840.213 142.741 840.625 142.58 841 142.5C840.625 142.42 840.213 142.258 839.977 142.023C839.742 141.787 839.58 141.375 839.5 141Z" fill="white"/>
<path opacity="0.5" d="M667 167C666.946 167.375 666.839 167.787 666.682 168.023C666.525 168.258 666.25 168.42 666 168.5C666.25 168.58 666.525 168.741 666.682 168.977C666.839 169.213 666.947 169.625 667 170C667.054 169.625 667.161 169.213 667.318 168.977C667.475 168.741 667.75 168.58 668 168.5C667.75 168.42 667.475 168.258 667.318 168.023C667.161 167.787 667.053 167.375 667 167Z" fill="white"/>
<path opacity="0.5" d="M492 172C491.946 172.375 491.839 172.787 491.682 173.023C491.525 173.258 491.25 173.42 491 173.5C491.25 173.58 491.525 173.741 491.682 173.977C491.839 174.213 491.947 174.625 492 175C492.054 174.625 492.161 174.213 492.318 173.977C492.475 173.741 492.75 173.58 493 173.5C492.75 173.42 492.475 173.258 492.318 173.023C492.161 172.787 492.053 172.375 492 172Z" fill="white"/>
<path opacity="0.1" d="M538.5 145C538.42 145.375 538.258 145.787 538.023 146.023C537.787 146.258 537.375 146.42 537 146.5C537.375 146.58 537.787 146.741 538.023 146.977C538.258 147.213 538.42 147.625 538.5 148C538.58 147.625 538.742 147.213 538.978 146.977C539.213 146.741 539.625 146.58 540 146.5C539.625 146.42 539.213 146.258 538.977 146.023C538.742 145.787 538.58 145.375 538.5 145Z" fill="white"/>
<path opacity="0.2" d="M1236.5 154C1236.37 154.625 1236.1 155.312 1235.7 155.705C1235.31 156.097 1234.62 156.366 1234 156.5C1234.62 156.634 1235.31 156.902 1235.7 157.296C1236.1 157.689 1236.37 158.375 1236.5 159C1236.63 158.375 1236.9 157.689 1237.3 157.295C1237.69 156.902 1238.38 156.634 1239 156.5C1238.38 156.366 1237.69 156.097 1237.3 155.704C1236.9 155.312 1236.63 154.625 1236.5 154Z" fill="white"/>
<path opacity="0.2" d="M448.5 145C448.366 145.625 448.097 146.312 447.704 146.705C447.311 147.097 446.625 147.366 446 147.5C446.625 147.634 447.311 147.902 447.704 148.296C448.097 148.689 448.367 149.375 448.5 150C448.634 149.375 448.903 148.689 449.296 148.295C449.689 147.902 450.376 147.634 451 147.5C450.376 147.366 449.689 147.097 449.296 146.704C448.903 146.312 448.633 145.625 448.5 145Z" fill="white"/>
<path opacity="0.2" d="M241.5 55C241.366 55.6245 241.097 56.3116 240.704 56.7046C240.311 57.0973 239.625 57.3664 239 57.5001C239.625 57.6341 240.311 57.9024 240.704 58.2957C241.097 58.6886 241.367 59.3751 241.5 60C241.634 59.3751 241.903 58.6886 242.296 58.2954C242.689 57.9025 243.376 57.6336 244 57.4996C243.376 57.3661 242.689 57.0973 242.296 56.7043C241.903 56.3117 241.633 55.6246 241.5 55Z" fill="white"/>
<path opacity="0.1" d="M1165.5 139C1165.37 139.625 1165.1 140.312 1164.7 140.705C1164.31 141.097 1163.62 141.366 1163 141.5C1163.62 141.634 1164.31 141.902 1164.7 142.296C1165.1 142.689 1165.37 143.375 1165.5 144C1165.63 143.375 1165.9 142.689 1166.3 142.295C1166.69 141.902 1167.38 141.634 1168 141.5C1167.38 141.366 1166.69 141.097 1166.3 140.704C1165.9 140.312 1165.63 139.625 1165.5 139Z" fill="white"/>
<path opacity="0.1" d="M150.5 71C150.366 71.6245 150.097 72.3116 149.704 72.7046C149.311 73.0973 148.625 73.3664 148 73.5001C148.625 73.6341 149.311 73.9024 149.704 74.2957C150.097 74.6886 150.367 75.3751 150.5 76C150.634 75.3751 150.903 74.6886 151.296 74.2954C151.689 73.9025 152.376 73.6336 153 73.4996C152.376 73.3661 151.689 73.0973 151.296 72.7043C150.903 72.3117 150.633 71.6246 150.5 71Z" fill="white"/>
<path opacity="0.1" d="M163.5 131C163.366 131.625 163.097 132.312 162.704 132.705C162.311 133.097 161.625 133.366 161 133.5C161.625 133.634 162.311 133.902 162.704 134.296C163.097 134.689 163.367 135.375 163.5 136C163.634 135.375 163.903 134.689 164.296 134.295C164.689 133.902 165.376 133.634 166 133.5C165.376 133.366 164.689 133.097 164.296 132.704C163.903 132.312 163.633 131.625 163.5 131Z" fill="white"/>
<path opacity="0.2" d="M1056.5 116C1056.37 116.625 1056.1 117.312 1055.7 117.705C1055.31 118.097 1054.62 118.366 1054 118.5C1054.62 118.634 1055.31 118.902 1055.7 119.296C1056.1 119.689 1056.37 120.375 1056.5 121C1056.63 120.375 1056.9 119.689 1057.3 119.295C1057.69 118.902 1058.38 118.634 1059 118.5C1058.38 118.366 1057.69 118.097 1057.3 117.704C1056.9 117.312 1056.63 116.625 1056.5 116Z" fill="white"/>
<path opacity="0.2" d="M617.5 144C617.366 144.625 617.097 145.312 616.704 145.705C616.311 146.097 615.625 146.366 615 146.5C615.625 146.634 616.311 146.902 616.704 147.296C617.097 147.689 617.367 148.375 617.5 149C617.634 148.375 617.903 147.689 618.296 147.295C618.689 146.902 619.376 146.634 620 146.5C619.376 146.366 618.689 146.097 618.296 145.704C617.903 145.312 617.633 144.625 617.5 144Z" fill="white"/>
<path opacity="0.2" d="M482.5 122C482.366 122.625 482.097 123.312 481.704 123.705C481.311 124.097 480.625 124.366 480 124.5C480.625 124.634 481.311 124.902 481.704 125.296C482.097 125.689 482.367 126.375 482.5 127C482.634 126.375 482.903 125.689 483.296 125.295C483.689 124.902 484.376 124.634 485 124.5C484.376 124.366 483.689 124.097 483.296 123.704C482.903 123.312 482.633 122.625 482.5 122Z" fill="white"/>
<path opacity="0.2" d="M775.5 114C775.366 114.625 775.097 115.312 774.704 115.705C774.311 116.097 773.625 116.366 773 116.5C773.625 116.634 774.311 116.902 774.704 117.296C775.097 117.689 775.367 118.375 775.5 119C775.634 118.375 775.903 117.689 776.296 117.295C776.689 116.902 777.376 116.634 778 116.5C777.376 116.366 776.689 116.097 776.296 115.704C775.903 115.312 775.633 114.625 775.5 114Z" fill="white"/>
<path opacity="0.2" d="M569.5 107C569.366 107.625 569.097 108.312 568.704 108.705C568.311 109.097 567.625 109.366 567 109.5C567.625 109.634 568.311 109.902 568.704 110.296C569.097 110.689 569.367 111.375 569.5 112C569.634 111.375 569.903 110.689 570.296 110.295C570.689 109.902 571.376 109.634 572 109.5C571.376 109.366 570.689 109.097 570.296 108.704C569.903 108.312 569.633 107.625 569.5 107Z" fill="white"/>
<path opacity="0.1" d="M1060.5 57C1060.37 57.6245 1060.1 58.3116 1059.7 58.7046C1059.31 59.0973 1058.62 59.3664 1058 59.5001C1058.62 59.6341 1059.31 59.9024 1059.7 60.2957C1060.1 60.6886 1060.37 61.3751 1060.5 62C1060.63 61.3751 1060.9 60.6886 1061.3 60.2954C1061.69 59.9025 1062.38 59.6336 1063 59.4996C1062.38 59.3661 1061.69 59.0973 1061.3 58.7043C1060.9 58.3117 1060.63 57.6246 1060.5 57Z" fill="white"/>
<path opacity="0.5" d="M683.5 111C683.366 111.625 683.097 112.312 682.704 112.705C682.311 113.097 681.625 113.366 681 113.5C681.625 113.634 682.311 113.902 682.704 114.296C683.097 114.689 683.367 115.375 683.5 116C683.634 115.375 683.903 114.689 684.296 114.295C684.689 113.902 685.376 113.634 686 113.5C685.376 113.366 684.689 113.097 684.296 112.704C683.903 112.312 683.633 111.625 683.5 111Z" fill="white"/>
<path opacity="0.5" d="M400.5 120C400.366 120.625 400.097 121.312 399.704 121.705C399.311 122.097 398.625 122.366 398 122.5C398.625 122.634 399.311 122.902 399.704 123.296C400.097 123.689 400.367 124.375 400.5 125C400.634 124.375 400.903 123.689 401.296 123.295C401.689 122.902 402.376 122.634 403 122.5C402.376 122.366 401.689 122.097 401.296 121.704C400.903 121.312 400.633 120.625 400.5 120Z" fill="white"/>
<path opacity="0.5" d="M93.4998 34C93.366 34.6245 93.0975 35.3116 92.7044 35.7046C92.3114 36.0973 91.6245 36.3664 91 36.5001C91.6245 36.6341 92.3114 36.9024 92.7044 37.2957C93.0975 37.6886 93.3666 38.3751 93.5003 39C93.634 38.3751 93.9026 37.6886 94.2958 37.2954C94.6886 36.9025 95.3756 36.6336 96 36.4996C95.3756 36.3661 94.6886 36.0973 94.2956 35.7043C93.9026 35.3117 93.6334 34.6246 93.4998 34Z" fill="white"/>
<path opacity="0.5" d="M890.5 164C890.42 164.375 890.258 164.787 890.023 165.023C889.787 165.258 889.375 165.42 889 165.5C889.375 165.58 889.787 165.741 890.023 165.977C890.258 166.213 890.42 166.625 890.5 167C890.58 166.625 890.742 166.213 890.978 165.977C891.213 165.741 891.625 165.58 892 165.5C891.625 165.42 891.213 165.258 890.977 165.023C890.742 164.787 890.58 164.375 890.5 164Z" fill="white"/>
<path opacity="0.2" d="M1208.5 182C1208.37 182.625 1208.1 183.312 1207.7 183.705C1207.31 184.097 1206.62 184.366 1206 184.5C1206.62 184.634 1207.31 184.902 1207.7 185.296C1208.1 185.689 1208.37 186.375 1208.5 187C1208.63 186.375 1208.9 185.689 1209.3 185.295C1209.69 184.902 1210.38 184.634 1211 184.5C1210.38 184.366 1209.69 184.097 1209.3 183.704C1208.9 183.312 1208.63 182.625 1208.5 182Z" fill="white"/>
<path opacity="0.2" d="M204.5 96C204.366 96.6245 204.097 97.3116 203.704 97.7046C203.311 98.0973 202.625 98.3664 202 98.5001C202.625 98.6341 203.311 98.9024 203.704 99.2957C204.097 99.6886 204.367 100.375 204.5 101C204.634 100.375 204.903 99.6886 205.296 99.2954C205.689 98.9025 206.376 98.6336 207 98.4996C206.376 98.3661 205.689 98.0973 205.296 97.7043C204.903 97.3117 204.633 96.6246 204.5 96Z" fill="white"/>
<path opacity="0.2" d="M242 131C241.946 131.25 241.839 131.525 241.682 131.682C241.525 131.839 241.25 131.947 241 132C241.25 132.054 241.525 132.161 241.682 132.318C241.839 132.475 241.947 132.75 242 133C242.054 132.75 242.161 132.475 242.318 132.318C242.475 132.161 242.75 132.053 243 132C242.75 131.946 242.475 131.839 242.318 131.682C242.161 131.525 242.053 131.25 242 131Z" fill="white"/>
<path opacity="0.5" d="M143 189C142.946 189.25 142.839 189.525 142.682 189.682C142.525 189.839 142.25 189.947 142 190C142.25 190.054 142.525 190.161 142.682 190.318C142.839 190.475 142.947 190.75 143 191C143.054 190.75 143.161 190.475 143.318 190.318C143.475 190.161 143.75 190.053 144 190C143.75 189.946 143.475 189.839 143.318 189.682C143.161 189.525 143.053 189.25 143 189Z" fill="white"/>
<path opacity="0.2" d="M186 162C185.946 162.25 185.839 162.525 185.682 162.682C185.525 162.839 185.25 162.947 185 163C185.25 163.054 185.525 163.161 185.682 163.318C185.839 163.475 185.947 163.75 186 164C186.054 163.75 186.161 163.475 186.318 163.318C186.475 163.161 186.75 163.053 187 163C186.75 162.946 186.475 162.839 186.318 162.682C186.161 162.525 186.053 162.25 186 162Z" fill="white"/>
<path opacity="0.2" d="M75.9999 133C75.9464 133.25 75.839 133.525 75.6818 133.682C75.5246 133.839 75.2498 133.947 75 134C75.2498 134.054 75.5246 134.161 75.6818 134.318C75.839 134.475 75.9466 134.75 76.0001 135C76.0536 134.75 76.1611 134.475 76.3183 134.318C76.4754 134.161 76.7502 134.053 77 134C76.7502 133.946 76.4754 133.839 76.3182 133.682C76.1611 133.525 76.0534 133.25 75.9999 133Z" fill="white"/>
<path opacity="0.5" d="M109.5 160C109.366 160.625 109.097 161.312 108.704 161.705C108.311 162.097 107.625 162.366 107 162.5C107.625 162.634 108.311 162.902 108.704 163.296C109.097 163.689 109.367 164.375 109.5 165C109.634 164.375 109.903 163.689 110.296 163.295C110.689 162.902 111.376 162.634 112 162.5C111.376 162.366 110.689 162.097 110.296 161.704C109.903 161.312 109.633 160.625 109.5 160Z" fill="white"/>
<path opacity="0.2" d="M114.5 96C114.366 96.6245 114.097 97.3116 113.704 97.7046C113.311 98.0973 112.625 98.3664 112 98.5001C112.625 98.6341 113.311 98.9024 113.704 99.2957C114.097 99.6886 114.367 100.375 114.5 101C114.634 100.375 114.903 99.6886 115.296 99.2954C115.689 98.9025 116.376 98.6336 117 98.4996C116.376 98.3661 115.689 98.0973 115.296 97.7043C114.903 97.3117 114.633 96.6246 114.5 96Z" fill="white"/>
<path opacity="0.5" d="M1300.5 97C1300.37 97.6245 1300.1 98.3116 1299.7 98.7046C1299.31 99.0973 1298.62 99.3664 1298 99.5001C1298.62 99.6341 1299.31 99.9024 1299.7 100.296C1300.1 100.689 1300.37 101.375 1300.5 102C1300.63 101.375 1300.9 100.689 1301.3 100.295C1301.69 99.9025 1302.38 99.6336 1303 99.4996C1302.38 99.3661 1301.69 99.0973 1301.3 98.7043C1300.9 98.3117 1300.63 97.6246 1300.5 97Z" fill="white"/>
<path opacity="0.1" d="M1359.5 0C1359.37 0.624547 1359.1 1.31162 1358.7 1.7046C1358.31 2.09729 1357.62 2.3664 1357 2.50013C1357.62 2.63414 1358.31 2.90242 1358.7 3.29566C1359.1 3.6886 1359.37 4.37513 1359.5 5C1359.63 4.37513 1359.9 3.68864 1360.3 3.2954C1360.69 2.90245 1361.38 2.6336 1362 2.49962C1361.38 2.36611 1360.69 2.09733 1360.3 1.70435C1359.9 1.31165 1359.63 0.624579 1359.5 0Z" fill="white"/>
<path opacity="0.5" d="M1203.5 72C1203.37 72.6245 1203.1 73.3116 1202.7 73.7046C1202.31 74.0973 1201.62 74.3664 1201 74.5001C1201.62 74.6341 1202.31 74.9024 1202.7 75.2957C1203.1 75.6886 1203.37 76.3751 1203.5 77C1203.63 76.3751 1203.9 75.6886 1204.3 75.2954C1204.69 74.9025 1205.38 74.6336 1206 74.4996C1205.38 74.3661 1204.69 74.0973 1204.3 73.7043C1203.9 73.3117 1203.63 72.6246 1203.5 72Z" fill="white"/>
<path d="M570.28 201.57V211.47H310.59V208.98L312.93 205.69H326.57L328.84 208.11H332.19V209.36H342.8L347.05 205.11L351.82 209.43L358.89 199.66V197.07H361.17V199.25H365.65V201.13H371.78L377.86 195.04H385.3V191.77L388.37 188.69H389.15V185.84H393.15L392.52 186.47H391.52V187.82H392.52V191.98H395V191.07H397.39V189.41H400.09V190.96H401.76V197.66H404.15V194.81L408.52 176.71V168.39H409.35V163.31H410.28V168.39H411.43V176.39L415.69 194.79V197.39H418.39V196.07H422.55V205.94H425V200.74H439.66V201.79H441.53V207.07H446.83V204.67H450.37V208.94H453.07V205.4H456.71V208.21H463.37V209.97H465V206.55H467.49V203.33H469V205.83H470.35V202.5H471.19V200.41H473.47V199.07H477.22L489.59 196.26H498.64V194.17H506.54L512.05 198.95V201.34H513.19V203.22H517.77L520.06 200H525.46V194.45C526.08 194.13 526.7 193.83 527.33 193.55V196.07H528.17V200.22H534.17L536.09 202.15V203.96H537.39V200.43H540.61V196.38H541.61V200.54L542.81 201.73V205.86H545.81V203.56H546.36V202.82H558.7V204.07H560.8V202.27H563V200.15H569V201.57H570.28Z" fill="#4A4C4C"/>
<path d="M762.729 207.73C761.299 209.44 758.729 209.58 756.519 209.58C748.519 209.58 740.519 209.58 732.519 209.58L512.519 209.21C509.949 209.21 506.269 207.45 507.629 205.21C508.052 204.662 508.63 204.254 509.289 204.04C509.719 203.86 510.139 203.69 510.579 203.54C516.759 201.35 523.668 201.54 529.848 199.33C532.161 198.441 534.379 197.322 536.468 195.99C539.718 193.99 542.838 191.74 546.218 189.99C546.708 189.73 547.219 189.49 547.699 189.26C547.909 189.17 548.109 189.07 548.319 188.99C553.509 186.77 559.209 186.15 564.819 185.55L604.679 181.3C610.49 180.84 616.255 179.914 621.919 178.53C629.688 176.42 637.269 172.53 645.309 173.1C654.539 173.72 662.819 180.15 672.069 179.9C676.329 179.78 680.449 178.23 684.709 178.09C693.709 177.78 701.709 183.6 710.439 185.55C713.619 186.26 716.889 186.45 720.079 187.1C734.249 189.94 746.079 203.3 760.559 203.3C762.629 202.5 764.148 206 762.729 207.73Z" fill="#4A4C4C"/>
<path d="M1028.72 214.93C1020.16 218.93 1010.02 219.06 1000.42 219.06H732.771C730.771 219.06 728.411 218.95 727.031 217.44C725.291 215.53 726.031 212.28 727.971 210.53C729.911 208.78 732.511 208.14 735.031 207.53C754.29 202.975 773.245 197.214 791.781 190.28C795.241 188.98 798.921 187.62 802.551 188.28C805.601 188.84 808.901 190.75 811.551 189.12C812.661 188.44 813.401 187.23 814.551 186.68C816.071 185.99 817.841 186.6 819.391 187.21L842.001 196.07C845.491 197.44 849.121 198.83 852.861 198.59C857.631 198.27 861.861 195.36 866.441 194.19C875.661 191.87 885.351 196.67 894.761 195.37C897.621 194.97 900.381 194.02 903.241 193.68C908.041 193.1 912.851 194.24 917.591 195.21C933.017 198.367 948.748 199.792 964.491 199.46C969.768 199.192 975.057 199.218 980.331 199.54C989.331 200.38 998.011 203.54 1006.52 206.69L1028.72 214.93Z" fill="#4A4C4C"/>
<path d="M1260.66 206.98H1216.83C1216.3 207.055 1215.76 207.055 1215.23 206.98C1214.75 206.95 1214.29 206.795 1213.89 206.53C1213.64 206.266 1213.45 205.951 1213.33 205.605C1213.21 205.26 1213.16 204.893 1213.2 204.53C1213.2 202.18 1216.49 199.36 1219.64 196.85C1221.34 195.49 1223.58 193.77 1226.28 191.85C1229.4 189.55 1231.58 189.31 1233.02 189.55C1233.95 189.71 1235.42 190.21 1236.76 189.46C1237.56 189.02 1237.66 188.51 1238.15 188.21C1239.04 187.68 1240.96 188.03 1245.45 192.03L1260.66 206.98Z" fill="#4A4C4C"/>
<path d="M1225.93 206.98H1145.83C1145.23 207.064 1144.63 206.945 1144.11 206.642C1143.59 206.339 1143.19 205.87 1142.97 205.31C1142.21 202.967 1142.38 200.422 1143.44 198.2C1144.21 196.794 1145.45 195.709 1146.95 195.14C1156.95 190.195 1166.41 184.248 1175.21 177.39C1176.93 176.06 1178.76 174.65 1180.57 175.34C1182.09 175.92 1183.73 177.88 1185.05 176.21C1185.6 175.52 1185.96 174.26 1186.55 173.71C1187.31 172.99 1188.19 173.62 1188.96 174.25L1198.14 181.69L1225.93 206.98Z" fill="#4A4C4C"/>
<path d="M537.531 218.61H1052.23V202.01C1052.1 201.92 1051.95 201.84 1051.8 201.73C1051.4 201.46 1051.03 200.65 1050.62 200.2L1048.27 199.48L1046.02 198.79L1040.83 197.21C1039.45 196.689 1038.03 196.274 1036.59 195.97C1036.25 195.962 1035.94 195.822 1035.7 195.58C1035.62 195.46 1035.61 195.32 1035.47 195.23C1035.37 195.184 1035.27 195.163 1035.16 195.17L1033.89 195.08L1033.57 195.69C1033.02 195.667 1032.46 195.721 1031.92 195.85C1031.52 195.971 1031.11 196.068 1030.7 196.14C1030.11 196.21 1029.49 196.09 1028.91 196.14C1028.46 196.229 1028.02 196.35 1027.59 196.5C1026.42 196.677 1025.24 196.757 1024.06 196.74C1023.06 196.85 1022.11 197.15 1021.11 197.28C1020.62 197.315 1020.12 197.315 1019.63 197.28C1019.12 197.323 1018.6 197.251 1018.11 197.07C1018.02 197.031 1017.95 196.974 1017.88 196.901C1017.82 196.828 1017.78 196.743 1017.75 196.65C1017.76 196.642 1017.76 196.634 1017.76 196.625C1017.76 196.616 1017.76 196.608 1017.75 196.6H1017.67C1017.43 196.6 1017.19 196.6 1016.94 196.6C1016.89 196.606 1016.84 196.606 1016.79 196.6C1016.76 196.58 1016.74 196.555 1016.73 196.525C1016.72 196.495 1016.71 196.463 1016.71 196.43C1016.68 196.265 1016.68 196.095 1016.71 195.93C1016.61 195.9 1016.5 195.9 1016.39 195.93C1016.28 195.949 1016.16 195.949 1016.05 195.93C1015.83 195.86 1015.94 195.54 1015.94 195.41C1015.57 195.39 1015.2 195.39 1014.83 195.41C1014.91 195.12 1014.83 194.89 1014.44 194.88C1014.05 194.87 1013.59 194.88 1013.18 194.88C1013.22 194.974 1013.22 195.076 1013.18 195.17C1013.05 195.52 1012.52 195.17 1012.31 195.41C1012.1 195.65 1012.31 195.93 1012.31 196.05C1012.34 196.124 1012.34 196.206 1012.31 196.28C1012.2 196.38 1012.05 196.433 1011.9 196.43C1011.49 196.43 1011.38 196.43 1011.29 196.16C1011.29 196.16 1011.23 195.76 1011.29 195.75C1010.58 195.82 1010.29 195.83 1010.29 195.29C1010.32 195.219 1010.32 195.141 1010.29 195.07C1010.13 194.86 1008.98 194.99 1008.7 194.99C1008.42 194.99 1008.57 195.55 1008.54 195.77C1008.54 195.809 1008.53 195.847 1008.51 195.881C1008.5 195.916 1008.47 195.946 1008.44 195.97C1008.2 196.13 1007.92 195.92 1007.74 196.13C1007.56 196.34 1007.64 196.66 1007.56 196.84C1007.35 197.293 1007.06 197.708 1006.71 198.07C1006.32 198.5 1005.39 198.33 1004.77 198.33C1004.53 198.33 1003.61 197.33 1003.45 197.17C1003.39 197.13 1003.35 197.079 1003.31 197.02C1003.26 196.932 1003.24 196.831 1003.25 196.73C1003.17 196.174 1003 195.635 1002.73 195.14C1002.52 194.71 1001.13 194.8 1000.64 194.79C1000.61 194.802 1000.57 194.802 1000.53 194.79C1000.52 194.782 1000.5 194.77 1000.49 194.757C1000.48 194.743 1000.47 194.727 1000.47 194.71C1000.4 194.55 1000.31 194.02 1000.11 193.94C1000.04 193.925 999.97 193.925 999.901 193.94C999.031 193.94 998.161 193.94 997.291 193.94C997.342 194.751 997.261 195.565 997.051 196.35C997.051 196.61 996.741 196.96 996.611 197.2C996.606 197.219 996.596 197.237 996.582 197.251C996.568 197.265 996.551 197.275 996.531 197.28C996.516 197.287 996.498 197.291 996.481 197.291C996.464 197.291 996.447 197.287 996.431 197.28C994.661 196.66 992.971 195.78 991.261 195.05L987.461 193.41C986.457 192.853 985.338 192.531 984.191 192.47C983.061 192.47 981.931 192.55 980.801 192.67C979.814 192.87 978.799 192.9 977.801 192.76C977.111 192.62 976.471 192.4 975.801 192.22C972.98 191.642 970.087 191.494 967.221 191.78C967.071 192.1 967.081 192.53 966.581 192.69C966.257 192.785 965.918 192.819 965.581 192.79H964.761C963.373 192.68 961.979 192.68 960.591 192.79C959.161 192.99 957.741 193.2 956.321 193.43C954.901 193.66 953.321 193.99 951.791 194.2H951.661C951.622 194.186 951.589 194.158 951.57 194.12C951.552 194.083 951.548 194.04 951.561 194C951.581 193.791 951.581 193.58 951.561 193.37C951.562 193.322 951.55 193.275 951.527 193.233C951.505 193.191 951.472 193.156 951.431 193.13C951.342 193.109 951.25 193.109 951.161 193.13C949.771 193.13 948.381 193.08 946.991 193.08C946.795 193.065 946.598 193.065 946.401 193.08C946.184 193.129 945.972 193.203 945.771 193.3L941.141 195.3L938.861 196.3C938.184 196.7 937.471 197.034 936.731 197.3C936.571 197.385 936.393 197.433 936.211 197.44C936.041 197.444 935.872 197.416 935.711 197.36C934.131 196.88 932.561 196.36 931.021 195.89C929.542 195.412 927.996 195.169 926.441 195.17H916.411C915.322 195.1 914.23 195.1 913.141 195.17C913.241 194.95 913.041 194.71 912.821 194.53C912.064 193.814 911.103 193.353 910.071 193.21C908.963 193.245 907.869 193.475 906.841 193.89L904.541 194.68C904.003 194.874 903.451 195.031 902.891 195.15C901.734 195.312 900.555 195.181 899.461 194.77C898.941 194.62 898.461 194.45 897.951 194.28C897.412 194.028 896.845 193.84 896.261 193.72C896.143 193.674 896.018 193.646 895.891 193.64C895.802 193.648 895.715 193.669 895.631 193.7C894.821 193.95 893.971 194.16 893.191 194.44C892.689 194.661 892.171 194.844 891.641 194.99C891.051 195.099 890.452 195.153 889.851 195.15C888.684 195.154 887.522 195.009 886.391 194.72C885.407 194.402 884.405 194.142 883.391 193.94C882.727 193.864 882.059 193.837 881.391 193.86H873.151C871.949 193.866 870.749 193.963 869.561 194.15C867.501 194.45 865.431 194.76 863.361 195.05C861.451 195.32 859.531 195.69 857.601 195.85C855.091 196.04 852.521 195.85 850.021 195.85L845.531 195.78H843.451C842.451 195.78 841.331 195.63 840.541 196.22C840.144 196.641 839.668 196.98 839.141 197.22C838.31 197.342 837.468 197.369 836.631 197.3C836.203 197.319 835.774 197.292 835.351 197.22C834.111 196.95 833.441 195.92 832.271 195.51C831.628 195.284 830.932 195.253 830.271 195.42C829.661 195.57 829.401 196.02 828.851 196.24C828.282 196.415 827.683 196.469 827.091 196.4C826.591 196.4 824.801 196.65 824.561 196.29C824.542 196.225 824.542 196.155 824.561 196.09C824.561 195.83 824.561 195.58 824.561 195.33C824.561 195.33 824.561 195.26 824.561 195.24C824.525 195.231 824.487 195.231 824.451 195.24C823.92 195.135 823.373 195.135 822.841 195.24C822.49 195.379 822.184 195.615 821.961 195.92C820.711 197.16 818.571 197.37 816.771 197.92C814.971 198.47 813.221 199.42 811.231 199.56H811.181L801.931 200.22L788.811 201.17C788.134 201.27 787.443 201.183 786.811 200.92C785.849 200.344 784.753 200.03 783.631 200.01C782.671 200.084 781.726 200.289 780.821 200.62C779.931 200.941 779.022 201.212 778.101 201.43C776.712 201.711 775.277 201.68 773.901 201.34L773.211 201.17C772.827 201.117 772.439 201.093 772.051 201.1C771.856 201.09 771.66 201.11 771.471 201.16C771.354 201.212 771.24 201.272 771.131 201.34C770.323 201.872 769.563 202.474 768.861 203.14C768.778 203.23 768.68 203.304 768.571 203.36C767.459 203.488 766.34 203.541 765.221 203.52V202.52H762.621V201.81L760.691 201.34L759.831 201.63L758.961 201.9V202.33H756.661C756.451 202.33 756.661 202.77 756.661 202.77H755.001V203.49H750.301V202.69H749.541V202.06H748.771V202.73H747.931L747.161 203.85H745.001C744.861 203.85 745.001 203.51 745.001 203.51H741.831C738.711 202.66 735.571 201.51 732.251 201.15C728.476 200.814 724.672 201.125 721.001 202.07C717.339 202.923 713.756 204.088 710.291 205.55C709.391 206.025 708.442 206.401 707.461 206.67C704.211 207.4 701.141 205.67 698.131 205.08C694.495 204.49 690.815 204.205 687.131 204.23C681.369 203.916 675.592 204.053 669.851 204.64C668.117 205.029 666.36 205.306 664.591 205.47C663.041 205.47 661.421 204.68 660.011 204.29C658.62 203.942 657.184 203.804 655.751 203.88H649.131L649.001 202.07H651.421L633.321 191.68L618.001 202.9H619.581V206.46H617.341C616.848 206.065 616.285 205.766 615.681 205.58C615.475 205.56 615.267 205.56 615.061 205.58C614.631 205.58 614.191 205.64 613.771 205.69C613.394 205.711 613.028 205.821 612.701 206.01C612.491 206.22 612.701 206.45 612.701 206.7C612.701 206.849 612.661 206.995 612.585 207.123C612.509 207.252 612.401 207.357 612.271 207.43C611.971 207.68 611.633 207.883 611.271 208.03C611.197 208.082 611.111 208.116 611.021 208.13C610.908 208.135 610.795 208.115 610.691 208.07C609.843 207.742 608.961 207.511 608.061 207.38C607.299 207.32 606.533 207.32 605.771 207.38C605.563 207.376 605.355 207.396 605.151 207.44C604.67 207.613 604.2 207.814 603.741 208.04C603.202 208.168 602.638 208.144 602.111 207.97C600.318 207.454 598.425 207.388 596.601 207.78C595.847 208.064 595.055 208.233 594.251 208.28C593.471 208.279 592.703 208.08 592.021 207.7C591.784 207.51 591.512 207.367 591.221 207.28C591.071 207.27 590.921 207.27 590.771 207.28C589.813 207.215 588.851 207.283 587.911 207.48C587.081 207.758 586.205 207.874 585.331 207.82C584.963 207.754 584.599 207.667 584.241 207.56C583.297 207.368 582.333 207.301 581.371 207.36C580.672 207.315 579.971 207.315 579.271 207.36L577.211 207.74L575.481 208.5C575.194 208.665 574.889 208.796 574.571 208.89C574.351 208.89 574.241 208.58 574.131 208.41C574.105 208.367 574.067 208.332 574.021 208.31C573.972 208.3 573.921 208.3 573.871 208.31C573.308 208.224 572.735 208.224 572.171 208.31C572.1 208.36 572.044 208.429 572.011 208.51C571.791 208.91 571.571 209.31 571.361 209.72C571.341 209.758 571.314 209.792 571.281 209.82C571.228 209.847 571.17 209.864 571.111 209.87C570.851 209.87 570.311 210.12 570.061 209.97C570.034 209.96 570.009 209.944 569.988 209.923C569.967 209.903 569.951 209.878 569.941 209.85C569.639 209.482 569.399 209.066 569.231 208.62C569.121 208.2 569.231 207.78 568.781 207.45C568.413 207.182 568.022 206.948 567.611 206.75C567.087 206.456 566.6 206.1 566.161 205.69C565.935 205.431 565.646 205.235 565.321 205.12C565.086 205.085 564.847 205.085 564.611 205.12C563.241 205.18 561.811 205.23 560.441 205.41C559.61 205.504 558.789 205.678 557.991 205.93C557.596 206.039 557.223 206.219 556.891 206.46C556.54 206.781 556.273 207.183 556.111 207.63C555.768 208.196 555.54 208.825 555.441 209.48L554.531 209.29C553.131 208.57 552.781 209.78 552.401 210.08C552.201 210.25 551.331 211.02 550.941 210.84C546.941 209 545.151 208.4 544.941 208.22L542.941 209.48H539.671L537.531 218.61Z" fill="#040707"/>
<path d="M741.66 209.68H556.43V207.84L559.23 207.51L560.7 206.58H562.23L564.66 205.65L566.66 205.26L568.45 204.86L569.45 205.22L573.03 204.86L574.03 203.17H577.16L579.71 202.36L583.71 202.67L585.05 201.52L589.32 201.06C589.32 201.06 590.66 201.25 590.66 201.06C590.798 200.721 590.987 200.404 591.22 200.12H594.22L595.1 199.53L596.95 198.53L599.51 198.93L600.34 198.53H602.57C603.22 198.709 603.9 198.757 604.57 198.67L606.05 198.82L607.45 198.25L608.6 198.42L609.69 198.62L611.47 198.02H612.88C612.916 198.025 612.953 198.025 612.99 198.02C614.78 197.68 616.5 197.2 618.22 196.8L622.08 195.92C623.155 195.601 624.268 195.43 625.39 195.41C626.54 195.41 627.68 195.41 628.81 195.51C629.806 195.617 630.81 195.633 631.81 195.56C632.51 195.49 633.17 195.37 633.81 195.27C636.695 194.959 639.601 194.879 642.5 195.03C642.67 195.21 642.66 195.44 643.16 195.53C643.492 195.558 643.827 195.558 644.16 195.53H645C646.39 195.53 647.68 196.01 649 196.11C650.32 196.21 652.07 195.77 653.51 195.89C654.95 196.01 653.81 195.2 655.36 195.31C655.36 195.31 656.24 195.75 656.28 195.75C656.621 195.662 656.955 195.548 657.28 195.41C657.94 195.23 658.28 195.54 658.28 195.41C658.28 195.28 658.44 195.58 658.53 195.55C658.62 195.52 658.53 195.69 658.66 195.69C660.07 195.69 661.48 195.69 662.89 195.69C663.086 195.675 663.283 195.675 663.48 195.69C663.698 195.719 663.915 195.759 664.13 195.81L668.9 197.07L670.34 198.3L673.06 198.92L675.61 198.52L680.29 199.14V199.89C680.29 199.89 681.57 200.16 681.83 200.2C682.09 200.24 688.55 200.2 688.55 200.2L689.66 201L692.55 201.22L695.19 202.4L697.57 202.05L700.57 202.85H703.21L705.59 203.29L706.27 204.29L709.34 204.06L713.17 205.3L713.68 205.87L716.31 205.57L719.55 206.36L720.14 206.98H724.57L725 208.03L729 208.52H731.63V207.95L733.76 208.12L734.95 208.74H737.68L741.66 209.68Z" fill="#040707"/>
<path d="M1180.66 155.96C1180.35 155.684 1179.95 155.523 1179.54 155.503C1179.12 155.483 1178.71 155.606 1178.38 155.85C1178.18 155.993 1178.02 156.174 1177.89 156.382C1177.77 156.59 1177.69 156.821 1177.66 157.061C1177.62 157.301 1177.64 157.545 1177.7 157.778C1177.77 158.012 1177.88 158.23 1178.03 158.42L1174.12 154.13L1169.72 158.13C1169.98 157.896 1170.16 157.591 1170.25 157.253C1170.34 156.915 1170.33 156.558 1170.22 156.226C1170.12 155.894 1169.91 155.6 1169.64 155.38C1169.37 155.16 1169.04 155.024 1168.69 154.988C1168.34 154.951 1167.99 155.017 1167.68 155.175C1167.37 155.334 1167.11 155.58 1166.94 155.883C1166.76 156.185 1166.68 156.532 1166.7 156.881C1166.71 157.231 1166.83 157.567 1167.04 157.85C1167.19 158.057 1167.38 158.231 1167.6 158.359C1167.82 158.487 1168.06 158.567 1168.32 158.593C1168.57 158.62 1168.82 158.592 1169.07 158.512C1169.31 158.432 1169.53 158.302 1169.72 158.13L1165.33 162.13L1168.53 165.65C1168.52 165.345 1168.58 165.042 1168.72 164.769C1168.86 164.497 1169.07 164.264 1169.32 164.092C1169.57 163.92 1169.86 163.814 1170.17 163.785C1170.47 163.756 1170.78 163.805 1171.06 163.926C1171.34 164.048 1171.58 164.238 1171.77 164.48C1171.96 164.722 1172.08 165.007 1172.13 165.308C1172.17 165.61 1172.14 165.919 1172.04 166.206C1171.93 166.493 1171.76 166.749 1171.53 166.95C1171.34 167.126 1171.11 167.258 1170.87 167.337C1170.62 167.417 1170.36 167.441 1170.11 167.41L1173.31 170.92L1182.1 162.92L1178.2 158.63C1178.56 158.951 1179.03 159.117 1179.51 159.09C1179.99 159.064 1180.44 158.848 1180.76 158.49C1181.08 158.132 1181.24 157.661 1181.22 157.181C1181.19 156.701 1180.98 156.251 1180.62 155.93L1180.66 155.96Z" fill="#040707"/>
<path d="M1054.2 139.68C1054.3 139.493 1054.35 139.276 1054.32 139.062C1054.29 138.849 1054.2 138.649 1054.05 138.494C1053.9 138.339 1053.7 138.237 1053.49 138.202C1053.28 138.167 1053.06 138.201 1052.87 138.3L1055.12 136.17L1052.94 133.86C1053.07 134.008 1053.24 134.115 1053.43 134.167C1053.62 134.22 1053.82 134.215 1054 134.154C1054.19 134.093 1054.36 133.978 1054.48 133.824C1054.6 133.669 1054.67 133.483 1054.69 133.287C1054.71 133.091 1054.66 132.895 1054.57 132.722C1054.47 132.55 1054.33 132.41 1054.16 132.318C1053.98 132.227 1053.79 132.189 1053.59 132.208C1053.4 132.228 1053.21 132.305 1053.06 132.43C1052.95 132.515 1052.87 132.62 1052.81 132.738C1052.75 132.857 1052.71 132.986 1052.7 133.12C1052.68 133.253 1052.7 133.387 1052.74 133.514C1052.78 133.642 1052.85 133.759 1052.94 133.86L1050.76 131.56L1048.92 133.3C1049.09 133.281 1049.27 133.307 1049.43 133.376C1049.58 133.445 1049.72 133.554 1049.83 133.693C1049.93 133.832 1050 133.996 1050.02 134.168C1050.04 134.341 1050.02 134.516 1049.95 134.676C1049.89 134.837 1049.78 134.977 1049.64 135.084C1049.5 135.19 1049.34 135.259 1049.17 135.284C1049 135.309 1048.82 135.288 1048.66 135.224C1048.5 135.16 1048.36 135.056 1048.25 134.92C1048.16 134.819 1048.09 134.701 1048.04 134.572C1048 134.443 1047.98 134.306 1047.99 134.17L1046.15 135.91L1050.51 140.53L1052.76 138.4C1052.66 138.598 1052.64 138.821 1052.68 139.035C1052.73 139.25 1052.84 139.443 1053.01 139.587C1053.17 139.73 1053.38 139.814 1053.6 139.828C1053.82 139.841 1054.04 139.782 1054.22 139.66L1054.2 139.68Z" fill="#FFAE00"/>
<path d="M290.371 196.27H290.201C290.091 196.27 290.051 196.27 290.041 196.12C290.041 195.57 289.951 195.03 289.911 194.49C289.811 193.39 289.721 192.29 289.631 191.19C289.631 190.92 289.631 190.65 289.561 190.39C289.561 190.29 289.561 190.23 289.691 190.24C289.821 190.25 289.781 190.24 289.771 190.19C289.761 190.14 289.771 190.12 289.661 190.12H289.351C289.281 190.12 289.251 190.12 289.251 190.02C289.251 189.67 289.251 189.32 289.251 188.97C289.251 188.89 289.301 188.85 289.341 188.8C289.37 188.77 289.39 188.733 289.397 188.692C289.405 188.652 289.401 188.61 289.385 188.572C289.369 188.534 289.342 188.501 289.307 188.478C289.273 188.455 289.233 188.443 289.191 188.443C289.15 188.443 289.109 188.455 289.075 188.478C289.041 188.501 289.014 188.534 288.998 188.572C288.982 188.61 288.977 188.652 288.985 188.692C288.993 188.733 289.012 188.77 289.041 188.8C289.071 188.826 289.094 188.859 289.11 188.895C289.125 188.931 289.132 188.971 289.131 189.01C289.131 189.33 289.131 189.64 289.131 189.96C289.131 190.1 289.081 190.13 288.961 190.12H288.671C288.621 190.12 288.591 190.12 288.591 190.19C288.591 190.26 288.591 190.24 288.651 190.24H288.831C288.851 190.383 288.851 190.527 288.831 190.67C288.731 192.04 288.641 193.42 288.541 194.8L288.451 196.11C288.451 196.24 288.401 196.28 288.281 196.27H287.671C287.501 196.27 287.491 196.27 287.491 196.45V196.92C287.491 197.04 287.491 197.07 287.341 197.07H286.071C286.001 197.07 285.971 197.07 285.971 197.17V201.66C285.971 201.73 285.971 201.76 285.861 201.75H282.551C282.461 201.75 282.411 201.75 282.421 201.62V201.4C282.421 193.673 282.421 185.94 282.421 178.2C282.421 177.8 282.491 177.89 282.111 177.78C281.731 177.67 281.111 177.5 280.661 177.38C280.61 177.373 280.563 177.345 280.532 177.304C280.5 177.263 280.485 177.212 280.491 177.16C280.491 176.65 280.491 176.16 280.491 175.65C280.491 175.43 280.491 175.42 280.291 175.35L277.481 174.35C277.231 174.25 277.261 174.29 277.261 174.02C277.261 173.09 277.261 172.15 277.261 171.22C277.27 171.153 277.257 171.085 277.225 171.026C277.192 170.967 277.142 170.919 277.081 170.89C276.031 170.28 274.981 169.65 273.941 169.02C273.883 168.985 273.819 168.963 273.751 168.954C273.684 168.946 273.616 168.951 273.551 168.97L272.181 169.33C272.001 169.38 272.001 169.38 272.001 169.57V172.57C272.001 172.85 272.001 172.81 271.771 172.88L270.771 173.13C270.591 173.18 270.591 173.18 270.591 173.37V174.59C270.591 174.81 270.591 174.81 270.371 174.86L269.561 175.04C269.381 175.09 269.381 175.09 269.381 175.29V176.68C269.381 176.92 269.381 176.88 269.171 176.94C268.961 177 268.621 177.08 268.341 177.13C268.231 177.13 268.181 177.19 268.191 177.3C268.196 177.357 268.196 177.413 268.191 177.47V187.13C268.191 187.21 268.191 187.24 268.071 187.24C267.951 187.24 267.981 187.18 267.981 187.12V186.25C267.981 186.15 267.981 186.11 267.851 186.12H261.151C260.851 186.12 260.881 186.12 260.871 186.39C260.861 186.66 260.871 187.03 260.871 187.34C260.871 187.65 260.871 187.53 260.691 187.53H259.641C259.519 187.53 259.399 187.561 259.291 187.62L258.151 188.27C258.101 188.27 258.061 188.32 258.011 188.27C257.961 188.22 257.911 188.36 257.851 188.4C257.611 188.53 257.391 188.68 257.141 188.79C257.056 188.825 256.986 188.887 256.94 188.967C256.895 189.047 256.878 189.139 256.891 189.23C256.891 192.43 256.891 195.63 256.891 198.83C256.886 198.893 256.886 198.957 256.891 199.02C256.897 199.046 256.897 199.074 256.891 199.1V207.1H293.531V196.27H290.371Z" fill="#4A4C4C"/>
<path d="M1440 206H0V228H1440V206Z" fill="#040707"/>
<path d="M374.281 206.66H452.281V206.07H450.071C450.071 206.07 449.981 205.97 449.951 205.93L449.841 205.81C449.751 205.71 449.661 205.62 449.581 205.52H448.901C448.711 205.53 448.521 205.53 448.331 205.52C448.24 205.514 448.149 205.497 448.061 205.47C447.991 205.47 447.951 205.38 447.881 205.37H447.771C447.571 205.37 447.391 205.44 447.211 205.47C446.979 205.536 446.733 205.536 446.501 205.47C446.431 205.47 446.201 205.35 446.171 205.32C446.015 205.267 445.854 205.227 445.691 205.2C445.531 205.2 445.501 205.2 445.251 205.2H444.651C444.395 205.184 444.141 205.147 443.891 205.09C443.6 205.045 443.303 205.045 443.011 205.09H442.841C442.422 205.135 442 205.135 441.581 205.09C441.221 205.09 440.891 205 440.531 204.97C440.171 204.94 439.781 204.92 439.401 204.91C439.067 204.907 438.733 204.924 438.401 204.96C438.07 205.004 437.736 205.024 437.401 205.02H436.621C436.377 205.022 436.133 205.038 435.891 205.07H435.841H435.791C435.604 205.002 435.409 204.955 435.211 204.93C434.98 204.89 434.746 204.87 434.511 204.87L433.931 204.92C433.781 204.92 433.651 204.92 433.501 204.92H432.981C432.631 204.92 432.281 204.92 431.981 204.92L431.391 205C431.041 205 430.681 205 430.321 205.06H430.001C429.885 205.07 429.768 205.07 429.651 205.06H429.461C429.187 205.016 428.909 204.992 428.631 204.99C428.071 204.99 427.531 205.05 426.981 205.08C426.838 205.094 426.697 205.124 426.561 205.17L426.091 205.27L425.451 205.41C425.259 205.489 425.062 205.556 424.861 205.61C424.571 205.67 424.221 205.68 423.921 205.71L422.921 205.81C422.801 205.82 422.681 205.82 422.561 205.81C422.488 205.8 422.414 205.8 422.341 205.81H422.261H422.141C422.009 205.785 421.873 205.785 421.741 205.81C421.741 205.81 421.671 205.81 421.631 205.81C421.588 205.82 421.544 205.82 421.501 205.81C421.417 205.783 421.326 205.783 421.241 205.81C421.125 205.825 421.007 205.825 420.891 205.81C420.851 205.816 420.811 205.816 420.771 205.81C420.706 205.794 420.637 205.794 420.571 205.81C420.495 205.815 420.418 205.815 420.341 205.81H420.121H419.911C419.808 205.8 419.704 205.8 419.601 205.81H419.551C419.492 205.825 419.43 205.825 419.371 205.81C419.295 205.795 419.217 205.795 419.141 205.81C418.881 205.81 418.651 205.87 418.401 205.9C418.052 205.94 417.7 205.94 417.351 205.9H417.001C416.906 205.906 416.812 205.923 416.721 205.95V206.01C416.598 205.999 416.474 205.999 416.351 206.01L416.141 206.06H415.931H415.671L415.111 206.12C415.111 206.12 415.111 206.12 415.061 206.12C415.009 206.131 414.954 206.131 414.901 206.12C414.828 206.109 414.754 206.109 414.681 206.12C414.581 206.12 414.471 206.12 414.371 206.12C414.26 206.106 414.15 206.086 414.041 206.06C413.922 206.04 413.8 206.04 413.681 206.06H413.611H413.481C413.294 206.001 413.098 205.974 412.901 205.98H412.721L412.311 205.84H412.231H412.161C412.021 205.85 411.881 205.85 411.741 205.84C411.612 205.819 411.48 205.819 411.351 205.84L411.221 205.76H411.171H410.791H410.741C410.614 205.794 410.483 205.811 410.351 205.81H409.861C409.845 205.806 409.828 205.806 409.811 205.81C409.739 205.844 409.661 205.865 409.581 205.87C409.499 205.882 409.42 205.913 409.351 205.96H409.291H409.081C409.081 205.96 409.081 206.01 409.081 206.02H408.901C408.835 206.03 408.768 206.03 408.701 206.02H408.621L408.501 205.96H408.421H407.861C407.773 205.943 407.692 205.897 407.631 205.83H407.561L406.921 205.77C406.869 205.793 406.816 205.813 406.761 205.83C406.675 205.84 406.588 205.84 406.501 205.83L405.921 205.89C405.898 205.93 405.863 205.961 405.821 205.98H405.741C405.648 205.995 405.557 206.022 405.471 206.06C405.411 206.082 405.353 206.112 405.301 206.15C405.171 206.15 405.061 206.09 404.941 206.06C404.811 206.023 404.676 206.006 404.541 206.01C404.398 206.02 404.254 206.02 404.111 206.01C404.019 205.982 403.926 205.959 403.831 205.94H403.091C402.936 205.973 402.776 205.973 402.621 205.94L402.521 205.84C402.418 205.789 402.306 205.758 402.191 205.75H401.791H401.591L401.411 205.66L401.171 205.51H401.111H400.621C400.519 205.502 400.419 205.482 400.321 205.45C400.139 205.386 399.952 205.336 399.761 205.3C399.598 205.29 399.434 205.29 399.271 205.3H399.001H398.921L398.391 205.11H398.331H397.681C397.347 205.113 397.013 205.092 396.681 205.05C396.385 205.03 396.088 205.03 395.791 205.05H395.611H395.511L395.221 204.94C395.15 204.914 395.076 204.894 395.001 204.88C394.878 204.864 394.754 204.864 394.631 204.88H393.361C393.269 204.879 393.177 204.896 393.091 204.93C393.024 204.972 392.949 204.999 392.871 205.01C392.66 205.009 392.45 204.992 392.241 204.96C392.051 204.96 391.881 204.88 391.691 204.84H391.591H391.471L390.651 204.96C390.661 205.003 390.661 205.047 390.651 205.09H390.001L389.551 205.21C389.452 205.225 389.351 205.225 389.251 205.21H388.951H388.691C388.632 205.198 388.571 205.198 388.511 205.21C388.511 205.21 388.511 205.28 388.401 205.3H388.311H387.841H387.631L387.311 205.35L387.041 205.4C386.942 205.41 386.841 205.41 386.741 205.4H386.041C386.001 205.334 385.958 205.271 385.911 205.21C385.836 205.152 385.746 205.118 385.651 205.11L385.361 205.03C385.311 205.024 385.261 205.024 385.211 205.03H385.001H384.511C384.365 205.009 384.217 205.009 384.071 205.03C384.023 205.048 383.979 205.076 383.941 205.11L383.841 205.2H383.111H382.941L382.381 205.28C382.181 205.29 381.981 205.29 381.781 205.28H381.691H381.601L381.001 205.07H380.901H380.001C379.861 205.12 379.731 205.19 379.731 205.28C379.605 205.265 379.477 205.265 379.351 205.28C379.243 205.316 379.133 205.346 379.021 205.37L378.811 205.42C378.741 205.42 378.701 205.51 378.581 205.51H378.511C378.471 205.504 378.431 205.504 378.391 205.51L378.171 205.59C377.928 205.631 377.69 205.699 377.461 205.79C377.425 205.815 377.384 205.832 377.341 205.84H377.141C377.141 205.84 377.081 205.84 377.061 205.84H377.001C376.846 205.91 376.681 205.957 376.511 205.98C376.391 205.98 376.261 205.98 376.141 205.98C376.07 205.994 375.999 206.014 375.931 206.04C375.81 206.081 375.686 206.114 375.561 206.14L375.301 206.19C375.201 206.19 375.201 206.29 375.241 206.34H374.841C374.739 206.353 374.64 206.387 374.551 206.44L374.281 206.66Z" fill="#040707"/>
<path d="M449.691 206.66H527.691V206.07H525.481C525.481 206.07 525.391 205.97 525.361 205.93L525.251 205.81C525.171 205.71 525.081 205.62 524.991 205.52H524.311C524.122 205.53 523.931 205.53 523.741 205.52C523.65 205.516 523.559 205.499 523.471 205.47C523.401 205.47 523.351 205.38 523.291 205.37H523.171C522.971 205.37 522.801 205.44 522.611 205.47C522.379 205.536 522.134 205.536 521.901 205.47C521.831 205.47 521.611 205.35 521.571 205.32C521.393 205.213 521.201 205.129 521.001 205.07C520.841 205.07 520.811 205.07 520.571 205.07H520.001C519.749 205.055 519.498 205.018 519.251 204.96C518.956 204.916 518.656 204.916 518.361 204.96H518.201C517.779 205.005 517.354 205.005 516.931 204.96C516.571 204.96 516.241 204.87 515.931 204.84C515.621 204.81 515.171 204.79 514.791 204.78C514.457 204.777 514.123 204.793 513.791 204.83C513.46 204.874 513.126 204.894 512.791 204.89H512.011C511.771 204.892 511.53 204.909 511.291 204.94C511.272 204.946 511.251 204.946 511.231 204.94C511.047 204.874 510.856 204.827 510.661 204.8C510.427 204.76 510.189 204.74 509.951 204.74L509.371 204.79C509.221 204.79 509.091 204.79 508.941 204.79H508.421C508.071 204.79 507.721 204.79 507.421 204.79L506.831 204.87C506.481 204.87 506.121 204.87 505.771 204.93H505.441C505.325 204.94 505.208 204.94 505.091 204.93H504.911C504.637 204.887 504.359 204.863 504.081 204.86C503.521 204.86 502.981 204.92 502.431 204.95C502.285 204.964 502.141 204.994 502.001 205.04L501.531 205.14L500.901 205.28C500.706 205.359 500.505 205.426 500.301 205.48C499.99 205.53 499.676 205.563 499.361 205.58L498.361 205.68C498.245 205.69 498.128 205.69 498.011 205.68C497.935 205.67 497.858 205.67 497.781 205.68H497.701H497.581C497.449 205.655 497.314 205.655 497.181 205.68C497.181 205.68 497.111 205.68 497.071 205.68C497.029 205.69 496.984 205.69 496.941 205.68C496.857 205.653 496.766 205.653 496.681 205.68C496.569 205.696 496.454 205.696 496.341 205.68C496.298 205.686 496.255 205.686 496.211 205.68C496.146 205.664 496.077 205.664 496.011 205.68C495.938 205.685 495.865 205.685 495.791 205.68H495.571C495.498 205.675 495.425 205.675 495.351 205.68C495.248 205.67 495.145 205.67 495.041 205.68C494.982 205.696 494.92 205.696 494.861 205.68C494.782 205.665 494.701 205.665 494.621 205.68C494.371 205.68 494.131 205.74 493.891 205.77C493.539 205.81 493.184 205.81 492.831 205.77H492.721C492.626 205.775 492.532 205.792 492.441 205.82V205.88C492.315 205.87 492.188 205.87 492.061 205.88L491.861 205.93H491.641H491.391L490.831 205.99C490.831 205.99 490.831 205.99 490.771 205.99C490.722 206.002 490.671 206.002 490.621 205.99C490.549 205.979 490.474 205.979 490.401 205.99C490.295 205.996 490.188 205.996 490.081 205.99L489.751 205.93C489.636 205.91 489.517 205.91 489.401 205.93H489.001H488.871C488.684 205.871 488.488 205.844 488.291 205.85H488.121L487.701 205.71H487.631H487.551C487.415 205.72 487.278 205.72 487.141 205.71C487.012 205.689 486.881 205.689 486.751 205.71L486.611 205.63H486.561H486.181H486.131C486.004 205.665 485.873 205.682 485.741 205.68H485.251C485.251 205.68 485.251 205.68 485.201 205.68C485.129 205.714 485.051 205.735 484.971 205.74C484.889 205.752 484.81 205.783 484.741 205.83H484.531H484.481C484.481 205.83 484.481 205.88 484.481 205.89H484.301C484.232 205.9 484.161 205.9 484.091 205.89H484.021L483.891 205.83H483.811H483.251C483.166 205.813 483.088 205.767 483.031 205.7H482.961L482.311 205.64L482.161 205.7C482.075 205.71 481.988 205.71 481.901 205.7L481.311 205.76C481.293 205.8 481.261 205.831 481.221 205.85H481.141C481.045 205.865 480.951 205.892 480.861 205.93C480.801 205.952 480.744 205.982 480.691 206.02C480.561 206.02 480.441 205.96 480.321 205.93C480.192 205.892 480.057 205.875 479.921 205.88C479.778 205.89 479.635 205.89 479.491 205.88C479.4 205.85 479.306 205.826 479.211 205.81H478.471C478.316 205.843 478.156 205.843 478.001 205.81C478.001 205.81 477.951 205.74 477.901 205.71C477.799 205.657 477.687 205.627 477.571 205.62H477.171H476.971L476.791 205.53L476.551 205.38H476.501H476.001C475.903 205.371 475.806 205.351 475.711 205.32C475.528 205.258 475.341 205.208 475.151 205.17C474.985 205.16 474.818 205.16 474.651 205.17H474.561H474.481L473.961 204.98H473.891H473.251C472.917 204.983 472.583 204.962 472.251 204.92C471.958 204.9 471.664 204.9 471.371 204.92H471.191H471.081L470.791 204.81C470.723 204.784 470.653 204.764 470.581 204.75C470.459 204.735 470.334 204.735 470.211 204.75H468.931C468.842 204.749 468.754 204.766 468.671 204.8C468.603 204.839 468.529 204.866 468.451 204.88C468.24 204.879 468.03 204.863 467.821 204.83C467.621 204.83 467.451 204.75 467.271 204.71H467.161H467.041L466.221 204.83C466.226 204.873 466.226 204.917 466.221 204.96H465.601L465.001 205.07C464.899 205.086 464.794 205.086 464.691 205.07H464.391H464.131C464.075 205.058 464.017 205.058 463.961 205.07C463.961 205.07 463.911 205.14 463.841 205.16H463.761H463.281H463.001L462.671 205.21L462.411 205.26C462.308 205.27 462.205 205.27 462.101 205.26H461.401C461.358 205.195 461.311 205.131 461.261 205.07C461.186 205.012 461.096 204.978 461.001 204.97L460.711 204.89C460.662 204.884 460.611 204.884 460.561 204.89H460.451H459.961C459.819 204.87 459.674 204.87 459.531 204.89C459.482 204.906 459.438 204.933 459.401 204.97L459.301 205.06H458.571H458.411L457.851 205.14C457.651 205.14 457.441 205.14 457.241 205.14H457.151H457.061L456.521 204.97H456.421H455.491C455.351 205.02 455.221 205.09 455.211 205.18C455.089 205.164 454.964 205.164 454.841 205.18C454.721 205.18 454.621 205.25 454.501 205.27L454.291 205.32C454.221 205.32 454.191 205.41 454.061 205.41H453.991C453.955 205.404 453.918 205.404 453.881 205.41L453.661 205.49C453.418 205.529 453.179 205.596 452.951 205.69C452.914 205.713 452.874 205.73 452.831 205.74H452.631C452.602 205.735 452.571 205.735 452.541 205.74H452.491C452.332 205.809 452.164 205.856 451.991 205.88C451.871 205.88 451.741 205.88 451.631 205.88C451.56 205.893 451.489 205.913 451.421 205.94L451.041 206.04L450.781 206.09C450.765 206.091 450.749 206.097 450.735 206.107C450.721 206.117 450.711 206.131 450.705 206.147C450.698 206.162 450.697 206.179 450.7 206.196C450.703 206.212 450.71 206.228 450.721 206.24H450.321C450.222 206.252 450.126 206.286 450.041 206.34L449.691 206.66Z" fill="#040707"/>
<path d="M527.66 206.66H605.66V206.07H603.46C603.46 206.07 603.38 205.97 603.35 205.93L603.23 205.81L602.98 205.52H602.3C602.11 205.53 601.92 205.53 601.73 205.52C601.638 205.515 601.548 205.498 601.46 205.47C601.39 205.47 601.35 205.38 601.28 205.37H601C600.8 205.37 600.63 205.44 600.44 205.47C600.211 205.536 599.969 205.536 599.74 205.47C599.67 205.47 599.44 205.35 599.41 205.32C599.281 205.226 599.144 205.142 599 205.07C598.85 205.07 598.81 205.07 598.57 205.07H597.97C597.714 205.054 597.46 205.017 597.21 204.96C596.919 204.915 596.622 204.915 596.33 204.96H596.16C595.741 205.005 595.319 205.005 594.9 204.96C594.54 204.96 594.21 204.87 593.85 204.84C593.49 204.81 593.1 204.79 592.71 204.78C592.376 204.777 592.042 204.794 591.71 204.83C591.379 204.874 591.045 204.894 590.71 204.89H589.93C589.689 204.892 589.449 204.909 589.21 204.94H589.16C588.972 204.873 588.778 204.826 588.58 204.8C588.346 204.76 588.108 204.739 587.87 204.74L587.3 204.79C587.15 204.79 587.02 204.79 586.86 204.79H586.34C586 204.79 585.65 204.79 585.34 204.79L584.74 204.87C584.4 204.87 584.03 204.87 583.68 204.93H583.35C583.234 204.94 583.117 204.94 583 204.93H582.82C582.546 204.886 582.268 204.862 581.99 204.86C581.43 204.86 580.89 204.92 580.34 204.95C580.197 204.963 580.056 204.993 579.92 205.04L579.44 205.14L578.81 205.28C578.617 205.357 578.42 205.424 578.22 205.48C577.93 205.54 577.58 205.55 577.28 205.58L576.28 205.68C576.16 205.69 576.04 205.69 575.92 205.68C575.847 205.67 575.773 205.67 575.7 205.68H575.62H575.5C575.368 205.655 575.232 205.655 575.1 205.68C575.1 205.68 575.03 205.68 574.99 205.68C574.947 205.689 574.903 205.689 574.86 205.68C574.776 205.653 574.685 205.653 574.6 205.68C574.484 205.695 574.366 205.695 574.25 205.68C574.21 205.686 574.17 205.686 574.13 205.68C574.064 205.665 573.996 205.665 573.93 205.68C573.854 205.685 573.777 205.685 573.7 205.68H573.48H573.26C573.16 205.67 573.06 205.67 572.96 205.68C572.901 205.695 572.839 205.695 572.78 205.68C572.701 205.665 572.619 205.665 572.54 205.68C572.29 205.68 572.06 205.74 571.81 205.77C571.478 205.806 571.143 205.806 570.81 205.77H570.69C570.595 205.776 570.501 205.793 570.41 205.82V205.88C570.284 205.87 570.157 205.87 570.03 205.88L569.83 205.93H569.61H569.36L568.8 205.99C568.747 206.002 568.693 206.002 568.64 205.99C568.567 205.979 568.493 205.979 568.42 205.99H568.1L567.77 205.93C567.654 205.91 567.536 205.91 567.42 205.93H567H566.87C566.686 205.871 566.493 205.844 566.3 205.85H566.12L565.71 205.71H565.63H565.56C565.42 205.72 565.28 205.72 565.14 205.71C565.011 205.689 564.879 205.689 564.75 205.71L564.61 205.63H564.23H564.17C564.047 205.665 563.919 205.682 563.79 205.68H563.3H563.24C563.172 205.715 563.097 205.735 563.02 205.74C562.938 205.752 562.859 205.783 562.79 205.83H562.73H562.52C562.52 205.83 562.52 205.88 562.52 205.89H562.34C562.274 205.9 562.206 205.9 562.14 205.89H562.06L561.94 205.83H561.86H561.3C561.212 205.813 561.131 205.767 561.07 205.7H561L560.35 205.64L560.2 205.7C560.114 205.71 560.027 205.71 559.94 205.7L559.36 205.76C559.337 205.8 559.302 205.831 559.26 205.85H559.18C559.087 205.865 558.996 205.892 558.91 205.93C558.846 205.952 558.786 205.982 558.73 206.02C558.6 206.02 558.49 205.96 558.37 205.93C558.237 205.893 558.099 205.876 557.96 205.88C557.817 205.89 557.673 205.89 557.53 205.88C557.442 205.851 557.352 205.828 557.26 205.81H556.51C556.359 205.843 556.202 205.843 556.05 205.81C556.05 205.81 555.99 205.74 555.95 205.71C555.844 205.657 555.728 205.627 555.61 205.62H555.21H555.02L554.84 205.53L554.6 205.38H554.54H554.05C553.948 205.372 553.848 205.352 553.75 205.32C553.567 205.257 553.38 205.207 553.19 205.17C553.027 205.16 552.863 205.16 552.7 205.17H552.61H552.53L552 204.98H551.94H551C550.666 204.983 550.332 204.962 550 204.92C549.707 204.9 549.413 204.9 549.12 204.92H549H548.9L548.6 204.81C548.532 204.783 548.462 204.763 548.39 204.75C548.267 204.734 548.143 204.734 548.02 204.75H546.75C546.658 204.748 546.566 204.765 546.48 204.8C546.412 204.839 546.337 204.866 546.26 204.88C546.049 204.879 545.839 204.862 545.63 204.83C545.44 204.83 545.27 204.75 545.08 204.71H544.97H544.86L544.04 204.83C544.05 204.873 544.05 204.917 544.04 204.96H543.43L542.98 205.08C542.881 205.095 542.78 205.095 542.68 205.08H542.38H542.12C542.061 205.068 542 205.068 541.94 205.08C541.94 205.08 541.94 205.15 541.82 205.17H541.74H541.27H541L540.68 205.22L540.41 205.27C540.31 205.28 540.21 205.28 540.11 205.27H539.4C539.4 205.27 539.32 205.14 539.27 205.08C539.191 205.023 539.098 204.988 539 204.98L538.71 204.9C538.664 204.895 538.617 204.895 538.57 204.9H538.46H537.96C537.818 204.88 537.673 204.88 537.53 204.9C537.482 204.918 537.438 204.946 537.4 204.98L537.3 205.07H536.57H536.41L535.85 205.15C535.65 205.15 535.44 205.15 535.24 205.15H535.15H535.07L534.52 204.98H534.42H533.5C533.36 205.03 533.23 205.1 533.23 205.19C533.104 205.174 532.976 205.174 532.85 205.19C532.738 205.226 532.625 205.256 532.51 205.28L532.31 205.33C532.24 205.33 532.2 205.42 532.08 205.42H532.01C531.97 205.413 531.93 205.413 531.89 205.42L531.67 205.5C531.427 205.539 531.188 205.606 530.96 205.7C530.924 205.725 530.883 205.742 530.84 205.75H530.64C530.61 205.745 530.58 205.745 530.55 205.75C530.394 205.819 530.229 205.866 530.06 205.89C529.94 205.89 529.81 205.89 529.69 205.89C529.619 205.904 529.548 205.924 529.48 205.95C529.359 205.991 529.235 206.024 529.11 206.05L528.84 206.1C528.823 206.101 528.807 206.107 528.794 206.117C528.78 206.127 528.77 206.141 528.763 206.156C528.757 206.172 528.755 206.189 528.758 206.206C528.761 206.222 528.769 206.238 528.78 206.25H528.39C528.287 206.262 528.188 206.296 528.1 206.35L527.66 206.66Z" fill="#040707"/>
<path d="M1274.28 206.01V209.13H1132.63C1132.56 209.14 1132.48 209.14 1132.41 209.13C1132.47 209.019 1132.54 208.912 1132.62 208.81C1132.69 208.692 1132.77 208.579 1132.85 208.47C1133.02 208.25 1133.11 208.02 1133.37 207.94C1133.53 207.915 1133.7 207.915 1133.86 207.94H1134.1C1134.05 207.81 1134.04 207.67 1134.05 207.533C1134.07 207.396 1134.12 207.264 1134.2 207.15C1134.35 207.044 1134.51 206.95 1134.67 206.87C1134.91 206.71 1135.14 206.525 1135.35 206.32C1135.46 206.197 1135.59 206.096 1135.73 206.02C1135.94 205.94 1136.18 206.02 1136.4 206.02C1136.62 206.02 1137.03 205.48 1137.29 205.23C1137.32 205.2 1137.35 205.176 1137.39 205.16C1137.41 205.15 1137.44 205.145 1137.47 205.145C1137.49 205.145 1137.52 205.15 1137.54 205.16C1137.66 205.21 1137.8 205.21 1137.92 205.16C1138.01 205.092 1138.08 205.003 1138.13 204.9C1138.48 204.452 1138.93 204.081 1139.43 203.81C1139.58 203.686 1139.71 203.549 1139.83 203.4C1139.88 203.33 1139.95 203.24 1140.04 203.23H1140.16C1140.39 203.23 1140.46 202.93 1140.58 202.77C1140.69 202.655 1140.82 202.563 1140.96 202.5C1141.17 202.37 1141.36 202.18 1141.58 202.02C1141.77 201.855 1142.01 201.765 1142.26 201.77C1142.26 201.61 1142.28 201.45 1142.34 201.3H1145.39L1145.7 201.59C1145.74 201.635 1145.79 201.672 1145.85 201.7C1145.9 201.71 1145.96 201.71 1146.01 201.7C1146.38 201.725 1146.75 201.705 1147.12 201.64C1147.41 201.547 1147.7 201.426 1147.97 201.28H1153.5C1153.56 201.5 1153.59 201.72 1153.65 201.94C1153.65 201.94 1153.65 202.03 1153.65 202.05H1153.71C1154.14 202.05 1154.57 202.13 1154.99 202.15C1155.17 202.195 1155.37 202.195 1155.55 202.15C1155.72 202.07 1155.88 201.973 1156.03 201.86C1156.22 201.745 1156.42 201.657 1156.63 201.6C1156.75 201.563 1156.87 201.54 1156.99 201.53L1157.86 201.4C1157.91 201.415 1157.96 201.415 1158.01 201.4C1158.04 201.382 1158.07 201.354 1158.09 201.32H1170.84V199.04L1171.03 199.25C1171.08 199.314 1171.14 199.368 1171.21 199.41C1171.32 199.445 1171.43 199.445 1171.54 199.41C1172.08 199.375 1172.63 199.436 1173.15 199.59C1173.7 199.82 1174.29 199.936 1174.89 199.93L1175.89 199.85C1175.93 199.836 1175.98 199.836 1176.02 199.85C1176.06 199.873 1176.11 199.904 1176.14 199.94C1176.45 200.29 1176.77 200.63 1177.14 200.94C1177.18 200.993 1177.23 201.035 1177.29 201.06C1177.34 201.07 1177.4 201.07 1177.45 201.06H1177.58C1177.83 201.06 1178.08 201.1 1178.32 201.18C1178.69 201.405 1179.03 201.681 1179.32 202C1179.48 202.144 1179.66 202.253 1179.86 202.32C1180.1 202.345 1180.35 202.345 1180.59 202.32C1180.64 202.305 1180.7 202.305 1180.75 202.32C1180.8 202.36 1180.83 202.407 1180.86 202.46L1181.29 203.26C1181.37 203.432 1181.48 203.588 1181.62 203.72C1181.72 203.811 1181.85 203.873 1181.98 203.9C1182.22 203.97 1182.46 203.97 1182.7 204.03C1182.83 204.058 1182.95 204.115 1183.06 204.196C1183.16 204.278 1183.25 204.381 1183.31 204.5C1183.39 204.67 1183.41 204.86 1183.49 205.03C1183.65 205.38 1184.07 205.26 1184.34 205.26H1185.42C1185.51 205.245 1185.61 205.245 1185.7 205.26H1185.76C1185.91 205.365 1186.06 205.478 1186.2 205.6C1186.44 205.721 1186.72 205.76 1186.99 205.71C1187.25 205.703 1187.51 205.796 1187.71 205.97C1187.92 206.157 1188.14 206.328 1188.38 206.48C1188.47 206.293 1188.57 206.116 1188.69 205.95C1188.83 205.78 1189 205.635 1189.19 205.52C1189.24 205.475 1189.3 205.425 1189.34 205.37C1189.43 205.217 1189.49 205.047 1189.52 204.87L1190.52 204.59C1190.68 204.568 1190.84 204.524 1190.99 204.46C1190.99 204.46 1191.27 204.1 1191.28 204.1L1192.45 204.44C1192.5 204.453 1192.54 204.477 1192.58 204.51L1192.64 204.62C1192.72 204.84 1192.85 205.24 1193.04 205.3C1193.33 205.34 1193.61 205.34 1193.9 205.3C1193.95 205.285 1194.01 205.285 1194.06 205.3C1194.13 205.335 1194.18 205.391 1194.21 205.46L1194.43 205.79C1194.47 205.851 1194.52 205.908 1194.57 205.96C1194.68 206.02 1194.81 206.038 1194.94 206.01C1195.03 206.01 1195.19 206.01 1195.27 206.01C1195.35 206.01 1195.27 205.77 1195.34 205.69C1195.41 205.61 1195.34 205.63 1195.34 205.6C1195.36 205.574 1195.39 205.55 1195.42 205.53L1195.81 205.33C1195.85 205.312 1195.88 205.285 1195.91 205.25C1195.91 205.25 1195.91 205.15 1195.99 205.1C1196.07 204.889 1196.21 204.709 1196.4 204.59C1196.56 204.49 1196.72 204.51 1196.81 204.28C1196.83 204.205 1196.87 204.134 1196.91 204.07C1196.95 204.034 1197.01 204.017 1197.06 204.02H1197.8C1197.93 204.034 1198.06 204.017 1198.19 203.972C1198.31 203.927 1198.42 203.855 1198.51 203.76C1198.53 203.715 1198.56 203.677 1198.6 203.65C1198.64 203.641 1198.67 203.641 1198.71 203.65H1199.13C1199.19 203.635 1199.24 203.635 1199.3 203.65C1199.33 203.682 1199.36 203.719 1199.38 203.76L1199.63 204.17C1199.83 204.008 1200.08 203.929 1200.34 203.95C1200.6 203.958 1200.86 203.921 1201.1 203.84C1201.14 203.826 1201.19 203.826 1201.23 203.84C1201.29 203.84 1201.32 203.89 1201.37 203.93L1202.12 204.67C1202.16 204.718 1202.2 204.756 1202.26 204.78C1202.32 204.795 1202.38 204.795 1202.44 204.78C1202.62 204.765 1202.81 204.792 1202.98 204.858C1203.16 204.923 1203.31 205.027 1203.44 205.16C1203.51 205.23 1203.58 205.32 1203.67 205.3C1203.73 205.291 1203.78 205.267 1203.82 205.23C1203.92 205.181 1204.03 205.16 1204.15 205.169C1204.26 205.178 1204.37 205.216 1204.46 205.28C1204.67 205.39 1204.86 205.55 1205.06 205.63C1205.26 205.71 1205.45 205.71 1205.64 205.76C1205.79 205.799 1205.93 205.882 1206.04 206C1206.12 206.09 1206.2 206.28 1206.32 206.29C1206.35 206.3 1206.39 206.3 1206.42 206.29L1207.42 205.95C1207.57 205.893 1207.72 205.849 1207.88 205.82C1208.01 205.846 1208.14 205.846 1208.27 205.82C1208.4 205.75 1208.52 205.66 1208.64 205.58C1208.85 205.455 1209.08 205.383 1209.32 205.37C1209.32 205.27 1209.32 205.17 1209.32 205.06C1209.46 204.928 1209.64 204.847 1209.83 204.83C1209.9 204.837 1209.97 204.854 1210.04 204.88C1210.66 205.09 1211.34 205.09 1211.96 204.88C1212.39 204.674 1212.84 204.51 1213.3 204.39C1213.44 204.346 1213.59 204.346 1213.73 204.39C1213.83 204.44 1213.93 204.56 1214.05 204.49L1214.13 204.43C1214.3 204.32 1214.51 204.43 1214.69 204.43C1214.87 204.43 1214.95 204.31 1215.09 204.31C1215.23 204.31 1215.36 204.42 1215.49 204.41C1215.62 204.4 1215.76 204.27 1215.9 204.24C1215.97 204.222 1216.04 204.224 1216.1 204.246C1216.17 204.267 1216.23 204.307 1216.27 204.36C1216.34 204.44 1216.4 204.57 1216.49 204.61C1216.58 204.65 1216.94 204.41 1217.12 204.33C1217.16 204.306 1217.21 204.29 1217.25 204.284C1217.3 204.278 1217.35 204.282 1217.39 204.295C1217.44 204.308 1217.48 204.33 1217.51 204.36C1217.55 204.391 1217.58 204.428 1217.6 204.47C1217.6 204.525 1217.63 204.577 1217.66 204.62C1217.73 204.68 1217.82 204.62 1217.9 204.57C1217.98 204.52 1218.11 204.57 1218.1 204.64C1218.21 204.566 1218.33 204.52 1218.45 204.506C1218.58 204.492 1218.71 204.511 1218.83 204.56C1218.9 204.56 1218.98 204.66 1219.05 204.65C1219.12 204.64 1219.15 204.57 1219.19 204.55C1219.32 204.5 1219.47 204.5 1219.6 204.55C1219.81 204.61 1220.04 204.61 1220.25 204.55L1222.09 204.03C1222.68 203.914 1223.25 203.733 1223.8 203.49C1224.22 203.25 1224.49 202.69 1224.88 202.38C1225.25 202.109 1225.63 201.862 1226.03 201.64C1226.32 201.46 1226.6 201.26 1226.89 201.06C1227.11 200.858 1227.37 200.705 1227.66 200.61C1228.64 200.32 1229.64 200.145 1230.66 200.09C1231.18 200.118 1231.7 200.25 1232.17 200.48C1232.27 200.546 1232.38 200.594 1232.5 200.62C1232.72 200.614 1232.93 200.574 1233.13 200.5L1233.72 200.44C1234.38 200.383 1235.03 200.266 1235.66 200.09C1236.03 199.96 1236.38 199.78 1236.74 199.68C1237.36 199.537 1238 199.483 1238.63 199.52C1238.96 199.525 1239.3 199.508 1239.63 199.47C1239.9 199.412 1240.16 199.335 1240.41 199.24C1240.75 199.15 1241.11 199.06 1241.41 198.99C1241.86 198.956 1242.31 199.061 1242.7 199.29C1243.09 199.464 1243.44 199.732 1243.7 200.07C1243.73 200.108 1243.76 200.139 1243.8 200.16C1243.83 200.17 1243.87 200.17 1243.9 200.16C1244.15 200.081 1244.4 200.018 1244.66 199.97C1244.84 199.931 1245.03 199.908 1245.22 199.9C1245.68 199.9 1246.16 199.9 1246.63 199.9C1247.27 199.941 1247.91 199.839 1248.51 199.6C1249.1 199.379 1249.73 199.284 1250.36 199.32C1251.06 199.352 1251.75 199.459 1252.43 199.64C1253.07 199.82 1253.68 200.19 1254.33 200.31C1255.1 200.49 1255.9 200.43 1256.63 200.14L1256.94 199.97C1257.18 199.842 1257.45 199.767 1257.73 199.748C1258 199.729 1258.28 199.767 1258.54 199.86C1258.99 200.02 1259.45 200.5 1259.91 200.47C1260.01 200.47 1260.58 200.47 1261.01 200.52C1261.44 200.57 1261.52 200.4 1261.8 200.52C1262.13 200.679 1262.43 200.903 1262.68 201.18C1262.74 201.3 1263.16 201.76 1263.28 201.96C1263.44 202.145 1263.66 202.263 1263.9 202.287C1264.14 202.311 1264.38 202.241 1264.57 202.09C1264.83 201.95 1265.07 201.76 1265.33 201.64C1265.41 201.596 1265.49 201.563 1265.58 201.54C1265.65 201.515 1265.73 201.515 1265.8 201.54C1265.91 201.6 1265.98 201.87 1266.08 202.02C1266.07 202.036 1266.07 202.054 1266.08 202.07C1266.22 202.198 1266.38 202.294 1266.56 202.35L1266.81 202.41C1267.07 202.465 1267.34 202.485 1267.61 202.47H1268.61C1268.65 202.46 1268.68 202.459 1268.72 202.467C1268.76 202.476 1268.79 202.494 1268.82 202.52C1268.86 202.57 1268.89 202.628 1268.9 202.69L1269.2 203.69C1269.26 203.87 1269.31 204.06 1269.37 204.24L1269.57 204.92C1269.67 205.15 1269.75 205.392 1269.79 205.64C1269.79 205.689 1269.81 205.736 1269.85 205.77C1269.87 205.779 1269.9 205.784 1269.92 205.784C1269.94 205.784 1269.97 205.779 1269.99 205.77H1273.86L1274.28 206.01Z" fill="#040707"/>
<path d="M1252.73 205.07V206.69H1293.73L1293.03 205.69H1291.91L1291.39 205.11H1291.33C1291.24 205.082 1291.15 205.059 1291.06 205.04C1290.99 205.06 1290.91 205.06 1290.84 205.04C1290.76 205.006 1290.69 204.963 1290.62 204.91C1290.49 204.852 1290.36 204.818 1290.22 204.81C1290.23 204.757 1290.23 204.703 1290.22 204.65C1290.14 204.575 1290.04 204.529 1289.93 204.52C1289.89 204.515 1289.84 204.515 1289.8 204.52C1289.44 204.625 1289.05 204.625 1288.69 204.52C1288.44 204.414 1288.18 204.327 1287.91 204.26C1287.83 204.236 1287.75 204.236 1287.67 204.26C1287.61 204.26 1287.55 204.34 1287.48 204.31C1287.38 204.25 1287.26 204.31 1287.15 204.31C1287.04 204.31 1287 204.25 1286.92 204.25C1286.85 204.275 1286.77 204.295 1286.7 204.31C1286.61 204.31 1286.54 204.23 1286.46 204.21C1286.42 204.201 1286.38 204.203 1286.34 204.216C1286.3 204.228 1286.27 204.25 1286.24 204.28C1286.24 204.28 1286.17 204.39 1286.11 204.41C1286.05 204.43 1285.85 204.31 1285.74 204.26C1285.69 204.237 1285.64 204.231 1285.59 204.244C1285.54 204.257 1285.5 204.288 1285.47 204.33C1285.47 204.33 1285.47 204.4 1285.47 204.41C1285.47 204.42 1285.38 204.41 1285.33 204.41C1285.28 204.41 1285.21 204.41 1285.22 204.41C1285.16 204.374 1285.08 204.355 1285.01 204.355C1284.94 204.355 1284.86 204.374 1284.8 204.41C1284.8 204.41 1284.71 204.46 1284.67 204.41C1284.63 204.36 1284.61 204.41 1284.58 204.36C1284.51 204.336 1284.43 204.336 1284.35 204.36C1284.23 204.39 1284.1 204.39 1283.97 204.36L1282.91 204.09C1282.57 204.029 1282.23 203.935 1281.91 203.81C1281.67 203.68 1281.52 203.39 1281.29 203.23C1281.08 203.09 1280.85 202.963 1280.62 202.85L1280.12 202.54C1279.99 202.436 1279.83 202.358 1279.67 202.31C1279.1 202.161 1278.52 202.071 1277.93 202.04C1277.63 202.05 1277.33 202.122 1277.05 202.25C1276.99 202.276 1276.93 202.296 1276.86 202.31C1276.73 202.309 1276.61 202.289 1276.49 202.25C1276.38 202.25 1276.26 202.25 1276.15 202.25C1275.76 202.221 1275.38 202.161 1275 202.07C1274.8 202 1274.59 201.91 1274.38 201.85C1274.02 201.779 1273.65 201.752 1273.28 201.77C1273.1 201.78 1272.91 201.78 1272.73 201.77C1272.58 201.77 1272.44 201.68 1272.28 201.65L1271.67 201.52C1271.41 201.501 1271.15 201.553 1270.92 201.67C1270.69 201.763 1270.49 201.903 1270.32 202.08C1270.32 202.08 1270.32 202.08 1270.26 202.08C1270.01 202.008 1269.75 201.964 1269.49 201.95C1269.22 201.95 1268.94 201.95 1268.67 201.95C1268.3 201.976 1267.92 201.925 1267.57 201.8C1267.23 201.678 1266.86 201.631 1266.5 201.66C1266.1 201.669 1265.7 201.722 1265.31 201.82C1264.93 201.92 1264.58 202.11 1264.2 202.17C1263.76 202.266 1263.3 202.235 1262.87 202.08L1262.69 202C1262.4 201.863 1262.07 201.838 1261.76 201.93C1261.5 202.02 1261.24 202.27 1260.96 202.26C1260.75 202.248 1260.53 202.248 1260.32 202.26C1260.07 202.26 1260.03 202.19 1259.87 202.26C1259.68 202.34 1259.51 202.455 1259.36 202.6C1259.36 202.66 1259.08 202.91 1259.01 203.01C1258.91 203.106 1258.78 203.165 1258.65 203.178C1258.51 203.19 1258.37 203.156 1258.26 203.08C1258.08 202.96 1257.88 202.862 1257.67 202.79C1257.63 202.776 1257.59 202.776 1257.55 202.79C1257.47 202.79 1257.43 203.01 1257.36 203.07C1257.28 203.14 1257.18 203.189 1257.07 203.21C1256.88 203.264 1256.67 203.287 1256.47 203.28H1255.87C1255.83 203.27 1255.79 203.27 1255.75 203.28C1255.75 203.31 1255.75 203.34 1255.75 203.37C1255.65 203.64 1255.56 203.91 1255.47 204.18C1255.47 204.29 1255.39 204.41 1255.36 204.53C1255.3 204.647 1255.26 204.771 1255.23 204.9C1255.23 204.923 1255.23 204.947 1255.23 204.97C1255.2 204.979 1255.17 204.979 1255.14 204.97L1252.73 205.07Z" fill="#040707"/>
<path d="M1045.58 204.9V207.56H1079.38L1078.81 205.95H1077.88L1077.46 204.95H1077.4C1077.33 204.899 1077.26 204.858 1077.18 204.83C1077.12 204.83 1077.06 204.83 1077 204.83C1076.93 204.768 1076.87 204.701 1076.82 204.63C1076.73 204.533 1076.62 204.469 1076.49 204.45C1076.49 204.363 1076.49 204.277 1076.49 204.19C1076.42 204.08 1076.34 203.98 1076.25 203.98C1076.16 203.98 1076.18 203.98 1076.14 204.03C1076 204.117 1075.84 204.164 1075.68 204.164C1075.52 204.164 1075.36 204.117 1075.23 204.03C1075.03 203.864 1074.82 203.723 1074.59 203.61C1074.55 203.601 1074.51 203.601 1074.48 203.61C1074.44 203.619 1074.41 203.636 1074.38 203.66C1074.33 203.66 1074.29 203.79 1074.23 203.74V203.68C1074.15 203.59 1074.05 203.68 1073.96 203.68C1073.87 203.68 1073.84 203.58 1073.77 203.58C1073.7 203.58 1073.65 203.67 1073.58 203.67C1073.51 203.67 1073.45 203.55 1073.39 203.52C1073.33 203.49 1073.25 203.52 1073.21 203.62C1073.17 203.72 1073.15 203.8 1073.1 203.83C1073.05 203.86 1072.88 203.67 1072.8 203.59C1072.72 203.51 1072.61 203.54 1072.58 203.71C1072.55 203.88 1072.58 203.82 1072.58 203.84C1072.58 203.86 1072.5 203.84 1072.47 203.84C1072.44 203.84 1072.37 203.84 1072.37 203.91C1072.27 203.77 1072.14 203.74 1072.02 203.84C1071.9 203.94 1071.95 203.92 1071.92 203.91C1071.89 203.9 1071.92 203.85 1071.85 203.83C1071.78 203.81 1071.72 203.83 1071.65 203.83C1071.6 203.855 1071.55 203.867 1071.49 203.867C1071.44 203.867 1071.39 203.855 1071.34 203.83L1070.46 203.38C1070.17 203.272 1069.89 203.116 1069.65 202.92C1069.46 202.613 1069.28 202.296 1069.13 201.97C1068.96 201.747 1068.78 201.536 1068.58 201.34C1068.44 201.18 1068.31 201.01 1068.17 200.84C1068.03 200.67 1067.94 200.51 1067.8 200.46C1067.35 200.223 1066.86 200.071 1066.36 200.01C1066.09 200.045 1065.84 200.164 1065.64 200.35C1065.6 200.402 1065.54 200.44 1065.48 200.46C1065.38 200.46 1065.28 200.4 1065.18 200.36C1065.08 200.366 1064.99 200.366 1064.9 200.36C1064.57 200.312 1064.26 200.21 1063.97 200.06C1063.8 199.95 1063.63 199.81 1063.45 199.71C1063.16 199.59 1062.86 199.542 1062.55 199.57C1062.4 199.585 1062.25 199.585 1062.1 199.57C1061.97 199.513 1061.85 199.446 1061.73 199.37L1061.22 199.16C1061.01 199.08 1060.8 199.25 1060.6 199.41C1060.39 199.593 1060.22 199.822 1060.11 200.08C1060.11 200.08 1060.11 200.14 1060.11 200.15C1059.91 200.04 1059.7 199.969 1059.48 199.94C1059.25 199.94 1059.02 199.94 1058.79 199.94C1058.47 199.976 1058.15 199.891 1057.9 199.7C1057.77 199.603 1057.63 199.532 1057.48 199.49C1057.32 199.449 1057.17 199.439 1057.01 199.46C1056.66 199.476 1056.32 199.565 1056.01 199.72C1055.72 199.935 1055.41 200.128 1055.09 200.3C1054.91 200.377 1054.71 200.404 1054.52 200.377C1054.32 200.351 1054.14 200.272 1053.99 200.15L1053.85 200.01C1053.75 199.903 1053.62 199.834 1053.48 199.816C1053.34 199.797 1053.2 199.831 1053.08 199.91C1052.87 200.05 1052.65 200.46 1052.43 200.44C1052.25 200.424 1052.07 200.424 1051.9 200.44C1051.69 200.44 1051.66 200.34 1051.52 200.44C1051.35 200.607 1051.21 200.799 1051.1 201.01C1051.1 201.11 1050.87 201.51 1050.81 201.67C1050.67 202.09 1050.39 201.98 1050.2 201.79C1050.01 201.6 1049.89 201.4 1049.71 201.32C1049.71 201.32 1049.65 201.32 1049.61 201.32C1049.57 201.32 1049.52 201.67 1049.46 201.78C1049.4 201.879 1049.32 201.962 1049.22 202.02C1049.06 202.101 1048.89 202.136 1048.72 202.12H1048.23C1048.21 202.111 1048.2 202.107 1048.18 202.107C1048.16 202.107 1048.14 202.111 1048.13 202.12C1048.12 202.17 1048.12 202.22 1048.13 202.27C1048.06 202.71 1047.98 203.16 1047.91 203.6C1047.91 203.79 1047.84 203.99 1047.81 204.18C1047.76 204.381 1047.73 204.585 1047.71 204.79C1047.71 204.827 1047.71 204.863 1047.71 204.9C1047.7 204.906 1047.69 204.909 1047.67 204.909C1047.66 204.909 1047.65 204.906 1047.64 204.9H1045.58Z" fill="#040707"/>
<path d="M366.559 129L363.879 127.18L364.199 130.4L361.789 132.38L364.869 133.2L366.069 136.24L367.659 133.53L370.799 133.43L368.699 130.93L369.449 127.83L366.559 129Z" fill="#FFAE00"/>
<path d="M289.62 186.13L289.18 185.19L288.75 186.13L287.77 186.27L288.48 187L288.31 188.03L289.18 187.54L290.06 188.03L289.89 187L290.6 186.27L289.62 186.13Z" fill="#FFAE00"/>
<path d="M1088.18 166.21L1086.25 169.11C1088.24 170.442 1090.36 171.571 1092.58 172.48L1093.91 169.26C1091.91 168.429 1089.99 167.408 1088.18 166.21Z" fill="#040707"/>
<path d="M1088.07 111.07L1086.07 108.18C1084.08 109.519 1082.23 111.05 1080.54 112.75L1083.01 115.21C1084.56 113.669 1086.25 112.283 1088.07 111.07Z" fill="#040707"/>
<path d="M1076 151.36C1075.17 149.358 1074.53 147.278 1074.11 145.15L1070.69 145.83C1071.16 148.184 1071.86 150.485 1072.78 152.7L1076 151.36Z" fill="#040707"/>
<path d="M1070.61 131.56C1070.16 133.886 1069.93 136.25 1069.93 138.62V138.69L1073.42 138.62C1073.42 136.472 1073.62 134.329 1074.03 132.22L1070.61 131.56Z" fill="#040707"/>
<path d="M1119.26 169.23C1117.26 170.064 1115.18 170.697 1113.05 171.12L1113.73 174.54C1116.08 174.069 1118.38 173.369 1120.6 172.45L1119.26 169.23Z" fill="#040707"/>
<path d="M1076.05 118.35C1074.72 120.346 1073.59 122.466 1072.67 124.68L1075.9 126.01C1076.72 124.009 1077.72 122.09 1078.9 120.28L1076.05 118.35Z" fill="#040707"/>
<path d="M1106.59 175.24V171.76C1104.43 171.761 1102.28 171.55 1100.16 171.13L1099.49 174.56C1101.83 175.011 1104.21 175.239 1106.59 175.24Z" fill="#040707"/>
<path d="M1126.79 108.07C1124.79 106.747 1122.67 105.622 1120.45 104.71L1119.13 107.93C1121.13 108.757 1123.05 109.778 1124.86 110.98L1126.79 108.07Z" fill="#040707"/>
<path d="M1132.46 164.5L1130 162.07C1128.47 163.601 1126.8 164.981 1125 166.19L1126.94 169.09C1128.93 167.747 1130.78 166.21 1132.46 164.5Z" fill="#040707"/>
<path d="M1113.58 102.67C1111.27 102.224 1108.93 102 1106.58 102H1106.47L1106.58 105.48C1108.71 105.482 1110.84 105.687 1112.94 106.09L1113.58 102.67Z" fill="#040707"/>
<path d="M1100 106.13L1099.31 102.71C1096.96 103.187 1094.66 103.893 1092.45 104.82L1093.79 108.03C1095.79 107.197 1097.87 106.561 1100 106.13Z" fill="#040707"/>
<path d="M1143.18 138.62V138.47L1139.69 138.62C1139.69 140.789 1139.48 142.952 1139.06 145.08L1142.48 145.76C1142.94 143.408 1143.18 141.017 1143.18 138.62Z" fill="#040707"/>
<path d="M1136.93 118.15C1135.59 116.165 1134.05 114.316 1132.35 112.63L1129.9 115.07C1131.44 116.6 1132.82 118.274 1134.04 120.07L1136.93 118.15Z" fill="#040707"/>
<path d="M1083.16 162.07C1081.62 160.543 1080.24 158.868 1079.03 157.07L1076.13 159.01C1077.47 161.001 1079 162.857 1080.7 164.55L1083.16 162.07Z" fill="#040707"/>
<path d="M1142.45 131.33C1141.98 128.978 1141.27 126.68 1140.34 124.47L1137.13 125.82C1137.96 127.82 1138.6 129.897 1139.03 132.02L1142.45 131.33Z" fill="#040707"/>
<path d="M1140.4 152.63L1137.18 151.29C1136.35 153.296 1135.33 155.215 1134.12 157.02L1137.02 158.96C1138.35 156.963 1139.48 154.844 1140.4 152.63Z" fill="#040707"/>
<path d="M1105.68 165.07V128.93C1104.83 129.801 1103.75 130.399 1102.56 130.649C1101.37 130.898 1100.14 130.786 1099.01 130.329C1097.89 129.871 1096.93 129.087 1096.25 128.079C1095.58 127.071 1095.22 125.884 1095.22 124.67H1097C1097 125.826 1097.46 126.935 1098.28 127.753C1099.09 128.571 1100.2 129.03 1101.36 129.03C1102.52 129.03 1103.63 128.571 1104.44 127.753C1105.26 126.935 1105.72 125.826 1105.72 124.67V112.14C1104.21 111.219 1102.49 110.728 1100.72 110.72C1099.37 110.743 1098.04 111.033 1096.8 111.571C1095.56 112.109 1094.44 112.886 1093.5 113.858C1092.57 114.829 1091.83 115.976 1091.33 117.232C1090.84 118.488 1090.6 119.83 1090.62 121.18V121.34C1088.23 121.79 1086.07 123.07 1084.53 124.954C1082.99 126.839 1082.17 129.206 1082.2 131.64C1082.19 134.209 1083.1 136.695 1084.78 138.64C1083.1 140.585 1082.19 143.071 1082.2 145.64C1082.2 150.64 1085.49 155.78 1090.47 156.07C1091.45 155.746 1092.28 155.082 1092.82 154.2C1093.36 153.317 1093.56 152.271 1093.4 151.251C1093.24 150.231 1092.71 149.302 1091.93 148.631C1091.14 147.961 1090.14 147.591 1089.11 147.59V145.84C1090.53 145.873 1091.9 146.404 1092.98 147.341C1094.05 148.277 1094.76 149.561 1094.98 150.968C1095.21 152.374 1094.93 153.815 1094.21 155.04C1093.48 156.264 1092.34 157.195 1091 157.67C1091.25 160.074 1092.38 162.302 1094.16 163.933C1095.94 165.564 1098.26 166.484 1100.68 166.52C1102.45 166.503 1104.18 166.001 1105.68 165.07Z" fill="#040707"/>
<path d="M1131 145.6C1131.01 143.03 1130.09 140.544 1128.41 138.6C1130.09 136.656 1131.01 134.17 1131 131.6C1131 126.68 1127.85 121.69 1123.06 121.19C1121.91 121.214 1120.81 121.695 1120.01 122.528C1119.21 123.36 1118.78 124.476 1118.8 125.63C1118.82 126.784 1119.31 127.881 1120.14 128.68C1120.97 129.478 1122.09 129.914 1123.24 129.89V131.64C1121.72 131.635 1120.26 131.062 1119.14 130.034C1118.02 129.006 1117.32 127.597 1117.18 126.082C1117.05 124.568 1117.48 123.057 1118.41 121.847C1119.33 120.637 1120.66 119.814 1122.16 119.54C1121.91 117.135 1120.79 114.906 1119 113.273C1117.22 111.641 1114.9 110.718 1112.48 110.68C1110.72 110.69 1108.99 111.181 1107.48 112.1V139.55C1108.33 138.68 1109.41 138.083 1110.6 137.835C1111.79 137.587 1113.03 137.698 1114.15 138.156C1115.27 138.613 1116.24 139.395 1116.91 140.403C1117.59 141.41 1117.95 142.596 1117.95 143.81H1116.2C1116.2 142.654 1115.74 141.545 1114.92 140.727C1114.11 139.909 1113 139.45 1111.84 139.45C1110.68 139.45 1109.58 139.909 1108.76 140.727C1107.94 141.545 1107.48 142.654 1107.48 143.81V165.07C1108.99 165.989 1110.72 166.48 1112.48 166.49C1113.83 166.467 1115.16 166.177 1116.4 165.639C1117.64 165.101 1118.76 164.324 1119.7 163.352C1120.64 162.381 1121.37 161.234 1121.87 159.978C1122.36 158.722 1122.6 157.38 1122.58 156.03C1122.58 155.98 1122.58 155.93 1122.58 155.87C1124.97 155.417 1127.12 154.141 1128.65 152.263C1130.19 150.386 1131.02 148.027 1131 145.6Z" fill="#040707"/>
<path d="M1153.64 145.6H1153.31C1151.86 145.724 1150.51 146.37 1149.5 147.416C1148.49 148.462 1147.9 149.839 1147.83 151.29L1143.52 173.46C1144.08 173.767 1144.57 174.182 1144.97 174.681C1145.37 175.18 1145.67 175.753 1145.85 176.367C1146.03 176.981 1146.08 177.624 1146.01 178.259C1145.94 178.895 1145.75 179.51 1145.44 180.07C1145.22 180.477 1144.94 180.848 1144.61 181.17L1133.45 190.59L1132.33 189.26L1143.44 179.89C1143.74 179.572 1143.97 179.195 1144.12 178.783C1144.26 178.372 1144.32 177.934 1144.29 177.498C1144.26 177.062 1144.14 176.637 1143.94 176.25C1143.73 175.863 1143.45 175.522 1143.11 175.25C1142.48 174.754 1141.7 174.476 1140.9 174.46C1140.1 174.444 1139.32 174.689 1138.67 175.16L1125.44 184.75C1124.99 185.065 1124.62 185.482 1124.37 185.968C1124.12 186.454 1123.99 186.993 1123.99 187.54V206.64H1141.43V201.73L1153.69 193.93C1155.36 192.673 1156.7 191.032 1157.61 189.144C1158.51 187.257 1158.94 185.18 1158.87 183.09V152.28C1158.84 148.59 1156.7 145.6 1153.64 145.6Z" fill="#040707"/>
<path d="M1059.42 193.93L1071.67 201.73V206.64H1089.11V187.54C1089.11 186.994 1088.98 186.456 1088.73 185.971C1088.48 185.485 1088.11 185.067 1087.67 184.75L1074.44 175.16C1073.79 174.689 1073 174.442 1072.2 174.459C1071.4 174.475 1070.62 174.753 1069.99 175.25C1069.65 175.522 1069.36 175.863 1069.16 176.25C1068.96 176.638 1068.84 177.063 1068.81 177.5C1068.78 177.936 1068.84 178.374 1068.99 178.786C1069.13 179.197 1069.37 179.573 1069.67 179.89L1080.78 189.26L1079.65 190.59L1068.49 181.17C1067.57 180.273 1067.05 179.049 1067.03 177.767C1067.02 176.484 1067.51 175.248 1068.41 174.33C1068.75 173.984 1069.15 173.691 1069.58 173.46L1065.27 151.29C1065.2 149.841 1064.61 148.465 1063.6 147.419C1062.59 146.373 1061.24 145.727 1059.8 145.6H1059.46C1056.46 145.6 1054.26 148.6 1054.26 152.28V183.09C1054.18 185.179 1054.61 187.254 1055.51 189.141C1056.41 191.028 1057.75 192.671 1059.42 193.93Z" fill="#040707"/>
<path d="M1038.29 192.99L1037.11 195.12L1036.65 195.92C1036.54 196.084 1036.46 196.272 1036.43 196.469C1036.39 196.666 1036.41 196.868 1036.46 197.06H1034.2C1034.2 197.2 1034.2 197.31 1034.2 197.41V199.41C1034.2 199.96 1033.98 200.18 1033.44 200.18H1031.53C1031.43 200.195 1031.33 200.187 1031.24 200.157C1031.14 200.126 1031.06 200.073 1030.99 200.003C1030.92 199.933 1030.86 199.847 1030.83 199.753C1030.8 199.658 1030.79 199.558 1030.81 199.46V197.07H1023.43C1023.31 197.089 1023.19 197.074 1023.08 197.027C1022.96 196.979 1022.87 196.9 1022.8 196.8C1022.75 196.7 1022.72 196.586 1022.73 196.473C1022.74 196.36 1022.78 196.251 1022.85 196.16L1025.61 191.23C1025.8 190.89 1025.77 190.85 1025.39 190.85C1025.01 190.85 1024.87 190.85 1024.61 190.85C1024.49 190.862 1024.38 190.839 1024.28 190.784C1024.17 190.729 1024.09 190.644 1024.04 190.54C1023.99 190.436 1023.98 190.32 1023.99 190.207C1024.01 190.094 1024.06 189.987 1024.13 189.9L1027.67 185.05L1027.79 184.88C1027.89 184.72 1027.85 184.63 1027.66 184.62H1027C1026.88 184.639 1026.76 184.619 1026.65 184.564C1026.54 184.508 1026.45 184.419 1026.4 184.31C1026.35 184.206 1026.33 184.089 1026.35 183.975C1026.37 183.861 1026.42 183.755 1026.5 183.67C1027.6 182.07 1028.69 180.46 1029.78 178.86C1029.82 178.815 1029.85 178.764 1029.88 178.71L1029.96 178.47C1029.88 178.441 1029.79 178.417 1029.71 178.4C1029.55 178.41 1029.4 178.41 1029.24 178.4C1029.09 178.4 1028.87 178.3 1028.82 178.19C1028.8 178.107 1028.8 178.021 1028.81 177.937C1028.82 177.852 1028.85 177.772 1028.9 177.7C1029.47 176.9 1030.06 176.11 1030.64 175.32L1031.97 173.51C1032.29 173.09 1032.64 173.09 1032.97 173.51C1033.97 174.88 1034.97 176.25 1035.97 177.63C1036.03 177.706 1036.07 177.794 1036.09 177.887C1036.11 177.979 1036.12 178.076 1036.1 178.17C1036.05 178.41 1035.79 178.39 1035.58 178.4C1035.37 178.41 1035.16 178.45 1034.95 178.48C1035.04 178.665 1035.14 178.846 1035.25 179.02L1038.41 183.66C1038.62 183.98 1038.64 184.25 1038.41 184.44C1038.29 184.537 1038.14 184.596 1037.98 184.61C1037.78 184.61 1037.56 184.61 1037.35 184.61C1037.27 184.628 1037.19 184.654 1037.11 184.69C1037.13 184.771 1037.16 184.849 1037.2 184.92C1037.95 185.92 1038.7 187.01 1039.47 188.04C1039.5 188.072 1039.53 188.11 1039.55 188.152C1039.57 188.194 1039.57 188.239 1039.57 188.285C1039.57 188.331 1039.57 188.376 1039.55 188.418C1039.53 188.46 1039.5 188.498 1039.47 188.53C1038.87 189.33 1038.28 190.15 1037.69 190.96C1037.53 191.111 1037.42 191.303 1037.36 191.514C1037.31 191.726 1037.31 191.948 1037.37 192.158C1037.43 192.368 1037.55 192.557 1037.71 192.703C1037.88 192.85 1038.08 192.949 1038.29 192.99Z" fill="#040707"/>
<path d="M1043.39 197.07H1037.63C1037.18 197.07 1037.01 196.76 1037.23 196.36C1037.92 195.12 1038.62 193.88 1039.31 192.63C1039.37 192.53 1039.42 192.43 1039.51 192.25H1038.68C1038.58 192.272 1038.47 192.26 1038.37 192.217C1038.28 192.174 1038.2 192.101 1038.15 192.01C1038.11 191.918 1038.1 191.814 1038.12 191.715C1038.14 191.616 1038.19 191.526 1038.27 191.46L1040.94 187.79L1041.16 187.43C1040.94 187.451 1040.72 187.451 1040.51 187.43C1040.33 187.409 1040.16 187.332 1040.03 187.21C1039.87 187.04 1040.03 186.84 1040.11 186.67C1040.95 185.45 1041.78 184.223 1042.61 182.99C1042.68 182.874 1042.75 182.754 1042.81 182.63H1042.19C1041.86 182.63 1041.73 182.36 1041.92 182.09C1042.73 180.98 1043.54 179.88 1044.37 178.78C1044.4 178.719 1044.45 178.669 1044.51 178.633C1044.57 178.598 1044.63 178.579 1044.7 178.579C1044.77 178.579 1044.84 178.598 1044.9 178.633C1044.96 178.669 1045.01 178.719 1045.04 178.78C1045.86 179.87 1046.67 180.97 1047.47 182.07C1047.68 182.35 1047.55 182.6 1047.19 182.62H1046.92H1046.6C1046.67 182.75 1046.71 182.85 1046.77 182.94C1047.58 184.13 1048.39 185.31 1049.19 186.5C1049.25 186.579 1049.31 186.663 1049.36 186.75C1049.4 186.814 1049.43 186.889 1049.43 186.967C1049.44 187.045 1049.42 187.123 1049.38 187.191C1049.35 187.26 1049.29 187.317 1049.22 187.355C1049.15 187.394 1049.08 187.413 1049 187.41H1048.25C1048.35 187.58 1048.4 187.68 1048.46 187.77L1051.08 191.37C1051.22 191.56 1051.38 191.73 1051.25 191.99C1051.12 192.25 1050.89 192.24 1050.66 192.23H1049.91C1049.96 192.354 1050.01 192.475 1050.08 192.59L1052.13 196.27C1052.41 196.77 1052.24 197.05 1051.67 197.05H1046C1046 197.19 1046 197.29 1046 197.4V199.55C1046 200 1045.81 200.18 1045.36 200.18H1044.07C1043.55 200.18 1043.39 200.02 1043.38 199.51V197.07H1043.39Z" fill="#040707"/>
<path d="M301.201 200.68C300.822 200.678 300.446 200.75 300.095 200.893C299.744 201.036 299.424 201.246 299.155 201.513C298.886 201.78 298.671 202.097 298.525 202.446C298.378 202.796 298.302 203.171 298.301 203.55C298.302 203.93 298.378 204.305 298.525 204.655C298.671 205.005 298.885 205.323 299.154 205.591C299.424 205.858 299.743 206.07 300.094 206.214C300.445 206.358 300.821 206.431 301.201 206.43H364.671C365.05 206.431 365.425 206.358 365.776 206.214C366.127 206.07 366.445 205.858 366.714 205.59C366.982 205.323 367.195 205.005 367.341 204.655C367.486 204.305 367.561 203.929 367.561 203.55C367.563 203.172 367.491 202.796 367.348 202.446C367.205 202.095 366.994 201.776 366.727 201.508C366.461 201.239 366.143 201.026 365.794 200.881C365.444 200.735 365.069 200.66 364.691 200.66H301.201V200.68Z" fill="#4A4C4C"/>
<path d="M311.002 180.49C309.173 180.511 307.425 181.247 306.132 182.54C304.839 183.833 304.103 185.581 304.082 187.41V203.57C304.083 203.95 304.159 204.325 304.306 204.675C304.452 205.026 304.666 205.343 304.936 205.611C305.205 205.878 305.524 206.09 305.875 206.234C306.226 206.378 306.603 206.452 306.982 206.45H318.522C319.285 206.448 320.016 206.143 320.556 205.604C321.095 205.064 321.399 204.333 321.402 203.57V187.41C321.381 185.581 320.646 183.833 319.352 182.54C318.059 181.247 316.311 180.511 314.482 180.49H311.002Z" fill="#4A4C4C"/>
<path d="M331.209 170.67C329.38 170.691 327.632 171.427 326.339 172.72C325.046 174.013 324.31 175.761 324.289 177.59V203.59C324.289 204.352 324.591 205.083 325.129 205.623C325.667 206.163 326.397 206.468 327.159 206.47H338.699C339.462 206.468 340.193 206.163 340.733 205.624C341.272 205.084 341.576 204.353 341.579 203.59V177.59C341.558 175.761 340.823 174.013 339.529 172.72C338.236 171.427 336.488 170.691 334.659 170.67H331.209Z" fill="#4A4C4C"/>
<path d="M351.4 162.07C349.572 162.091 347.824 162.827 346.53 164.12C345.237 165.413 344.501 167.161 344.48 168.99V203.57C344.483 204.332 344.786 205.061 345.323 205.6C345.861 206.14 346.589 206.445 347.35 206.45H358.9C359.279 206.452 359.655 206.378 360.006 206.234C360.356 206.09 360.675 205.878 360.943 205.61C361.212 205.343 361.425 205.025 361.57 204.675C361.716 204.325 361.79 203.949 361.79 203.57V168.94C361.77 167.108 361.031 165.357 359.734 164.063C358.436 162.769 356.683 162.036 354.85 162.02L351.4 162.07Z" fill="#4A4C4C"/>
<path d="M348.7 137.21C347.964 137.254 347.273 137.576 346.767 138.113C346.261 138.649 345.98 139.358 345.98 140.095C345.98 140.832 346.261 141.541 346.767 142.078C347.273 142.614 347.964 142.937 348.7 142.98H351.7C335.38 156.98 318.29 165.72 300.7 168.98C299.965 169.133 299.318 169.566 298.897 170.188C298.475 170.809 298.312 171.57 298.442 172.31C298.572 173.049 298.985 173.709 299.593 174.15C300.201 174.591 300.957 174.777 301.7 174.67C320.7 171.16 338.9 161.74 356.01 146.88V150.28C356.01 151.046 356.313 151.78 356.852 152.324C357.392 152.867 358.124 153.175 358.89 153.18C359.269 153.181 359.645 153.108 359.995 152.964C360.346 152.82 360.664 152.608 360.933 152.34C361.201 152.073 361.414 151.755 361.56 151.405C361.705 151.055 361.78 150.679 361.78 150.3V141.78C361.762 140.569 361.27 139.412 360.411 138.558C359.551 137.704 358.392 137.221 357.18 137.21H348.7Z" fill="#4A4C4C"/>
<path d="M201.52 207.29C201.609 207.3 201.7 207.3 201.79 207.29H377.46V204.17H372.66C372.601 204.19 372.538 204.19 372.48 204.17C372.444 204.137 372.417 204.096 372.4 204.05C372.346 203.796 372.258 203.551 372.14 203.32C372.05 203.1 371.97 202.87 371.89 202.65L371.3 201.07C371.284 201.005 371.249 200.945 371.2 200.9C371.127 200.858 371.043 200.84 370.96 200.85H369.67C369.236 200.875 368.801 200.835 368.38 200.73C368.16 200.682 367.953 200.59 367.77 200.46C367.61 200.33 367.52 199.98 367.36 199.92C367.275 199.895 367.184 199.895 367.1 199.92C366.66 200.055 366.237 200.24 365.84 200.47C365.35 200.69 364.62 200.81 364.24 200.33C364.08 200.14 363.58 199.67 363.5 199.55C363.173 199.274 362.805 199.051 362.41 198.89C362.05 198.77 361.98 198.89 361.41 198.89C360.84 198.89 360.16 198.84 360.05 198.89C359.46 198.89 358.9 198.43 358.34 198.27C357.679 198.08 356.973 198.122 356.34 198.39L355.96 198.55C355.039 198.845 354.06 198.907 353.11 198.73C352.3 198.61 351.55 198.24 350.75 198.06C349.908 197.874 349.051 197.766 348.19 197.74C347.412 197.698 346.634 197.793 345.89 198.02C345.136 198.255 344.348 198.356 343.56 198.32C342.97 198.32 342.39 198.26 341.8 198.32C341.249 198.349 340.703 198.432 340.17 198.57C340.13 198.58 340.089 198.58 340.05 198.57C340 198.57 339.97 198.52 339.93 198.49C339.563 198.134 339.123 197.864 338.64 197.7C338.139 197.471 337.589 197.372 337.04 197.41C336.6 197.48 336.17 197.56 335.73 197.65C335.29 197.74 335.1 197.85 334.73 197.89C334.336 197.91 333.943 197.91 333.55 197.89C332.769 197.853 331.987 197.907 331.22 198.05C330.76 198.16 330.33 198.34 329.88 198.46C329.09 198.642 328.288 198.759 327.48 198.81C327.23 198.81 326.98 198.81 326.74 198.88C326.482 198.952 326.217 198.989 325.95 198.99C325.809 198.962 325.671 198.918 325.54 198.86C324.943 198.623 324.311 198.488 323.67 198.46C322.413 198.522 321.164 198.699 319.94 198.99C319.58 199.069 319.24 199.219 318.94 199.43C318.59 199.64 318.24 199.84 317.88 200.02C317.388 200.233 316.91 200.477 316.45 200.75C315.96 201.07 315.64 201.62 315.11 201.86C314.42 202.112 313.706 202.293 312.98 202.4L310.71 202.93C310.446 202.99 310.173 202.99 309.91 202.93C309.742 202.886 309.567 202.886 309.4 202.93C309.34 202.93 309.28 203.02 309.22 203.03C309.16 203.04 309.03 202.97 308.95 202.94C308.803 202.886 308.646 202.866 308.491 202.879C308.335 202.893 308.184 202.941 308.05 203.02C308.05 202.91 307.89 202.9 307.8 202.94C307.71 202.98 307.59 203.06 307.5 202.94C307.461 202.897 307.434 202.846 307.42 202.79C307.32 202.6 307.03 202.58 306.83 202.65C306.63 202.72 306.3 203.03 306.05 202.94C305.8 202.85 305.86 202.77 305.77 202.68C305.71 202.624 305.638 202.584 305.56 202.563C305.481 202.542 305.399 202.541 305.32 202.56C305.14 202.56 304.99 202.73 304.81 202.74C304.63 202.75 304.48 202.64 304.31 202.64C304.14 202.64 303.99 202.74 303.82 202.76C303.65 202.78 303.33 202.62 303.12 202.76L303.02 202.82C302.87 202.88 302.75 202.77 302.62 202.72C302.447 202.658 302.261 202.641 302.08 202.67C301.517 202.792 300.965 202.96 300.43 203.17C299.65 203.38 298.829 203.38 298.05 203.17L297.79 203.12C297.557 203.136 297.335 203.22 297.15 203.36V203.67C296.854 203.678 296.564 203.75 296.3 203.88C296.14 203.95 296 204.05 295.84 204.11C295.678 204.145 295.511 204.145 295.35 204.11C295.155 204.138 294.964 204.185 294.78 204.25L293.52 204.58H293.39C293.24 204.58 293.15 204.38 293.05 204.29C292.905 204.165 292.728 204.082 292.54 204.05C292.3 204.018 292.063 203.971 291.83 203.91C291.576 203.811 291.329 203.698 291.09 203.57C290.963 203.515 290.827 203.487 290.69 203.487C290.552 203.487 290.416 203.515 290.29 203.57C290.233 203.601 290.172 203.625 290.11 203.64C289.999 203.632 289.895 203.582 289.82 203.5C289.639 203.352 289.432 203.242 289.209 203.175C288.985 203.108 288.751 203.086 288.52 203.11C288.447 203.125 288.372 203.125 288.3 203.11C288.233 203.091 288.171 203.057 288.12 203.01L287.19 202.26C287.141 202.217 287.083 202.186 287.02 202.17C286.963 202.161 286.906 202.161 286.85 202.17C286.544 202.255 286.227 202.296 285.91 202.29C285.6 202.267 285.292 202.344 285.03 202.51L284.72 202.09C284.694 202.05 284.66 202.016 284.62 201.99C284.558 201.971 284.491 201.971 284.43 201.99H284C283.953 201.98 283.906 201.98 283.86 201.99C283.815 202.021 283.775 202.058 283.74 202.1C283.62 202.2 283.481 202.275 283.331 202.32C283.182 202.364 283.025 202.378 282.87 202.36H281.96C281.894 202.339 281.825 202.339 281.76 202.36C281.706 202.425 281.665 202.5 281.64 202.58C281.53 202.8 281.33 202.79 281.13 202.89C280.905 202.994 280.722 203.17 280.61 203.39C280.594 203.443 280.565 203.492 280.527 203.532C280.489 203.571 280.442 203.602 280.39 203.62L279.92 203.83C279.92 203.83 279.84 203.83 279.82 203.9C279.815 203.93 279.815 203.96 279.82 203.99C279.82 204.06 279.82 204.26 279.75 204.31C279.68 204.36 279.45 204.31 279.34 204.31C279.185 204.344 279.023 204.326 278.88 204.26C278.811 204.217 278.753 204.159 278.71 204.09L278.43 203.76C278.382 203.694 278.321 203.639 278.25 203.6C278.183 203.59 278.116 203.59 278.05 203.6C277.694 203.635 277.335 203.635 276.98 203.6C276.74 203.54 276.59 203.13 276.48 202.92C276.464 202.87 276.433 202.827 276.392 202.795C276.351 202.763 276.301 202.744 276.25 202.74L274.79 202.4C274.79 202.4 274.5 202.72 274.44 202.75C274.251 202.813 274.057 202.857 273.86 202.88L272.54 203.16C272.514 203.342 272.441 203.514 272.33 203.66C272.277 203.718 272.216 203.769 272.15 203.81C271.922 203.926 271.71 204.071 271.52 204.24C271.367 204.403 271.236 204.584 271.13 204.78C270.844 204.635 270.569 204.468 270.31 204.28C270.043 204.097 269.723 204.006 269.4 204.02C269.061 204.066 268.717 204.025 268.4 203.9C268.201 203.767 267.994 203.647 267.78 203.54C267.663 203.531 267.546 203.531 267.43 203.54H266.1C265.75 203.54 265.24 203.66 265.04 203.3C264.95 203.14 264.92 202.94 264.82 202.78C264.732 202.656 264.621 202.55 264.492 202.469C264.363 202.389 264.22 202.334 264.07 202.31C263.77 202.24 263.46 202.24 263.16 202.18C263.004 202.145 262.855 202.085 262.72 202C262.555 201.87 262.416 201.711 262.31 201.53L261.78 200.74C261.744 200.687 261.7 200.639 261.65 200.6C261.584 200.581 261.515 200.581 261.45 200.6C261.144 200.63 260.835 200.63 260.53 200.6C260.287 200.539 260.059 200.43 259.86 200.28C259.477 199.953 259.053 199.678 258.6 199.46C258.238 199.363 257.864 199.316 257.49 199.32C257.42 199.33 257.349 199.33 257.28 199.32C257.212 199.288 257.151 199.244 257.1 199.19L255.91 198.19C255.872 198.146 255.824 198.112 255.77 198.09H255.61L254.31 198.17C253.577 198.175 252.847 198.064 252.15 197.84C251.497 197.674 250.822 197.613 250.15 197.66C250.035 197.684 249.916 197.678 249.804 197.643C249.692 197.608 249.59 197.545 249.51 197.46L248.85 196.86C248.682 196.684 248.475 196.55 248.245 196.471C248.016 196.391 247.77 196.366 247.53 196.4H244.66C244.545 196.406 244.433 196.435 244.33 196.485C244.227 196.534 244.135 196.604 244.06 196.69C243.93 196.8 243.75 197.13 243.56 197.11C243.077 197.104 242.599 197.027 242.14 196.88C241.7 196.69 241.32 196.41 240.9 196.2C240.825 196.16 240.743 196.133 240.66 196.12C240.57 196.106 240.479 196.106 240.39 196.12L238.55 196.73C238.55 196.73 238.47 196.73 238.45 196.79C238.435 196.832 238.435 196.878 238.45 196.92C238.469 197.146 238.469 197.374 238.45 197.6C238.454 197.634 238.451 197.669 238.44 197.702C238.43 197.734 238.413 197.765 238.39 197.79C238.335 197.81 238.274 197.81 238.22 197.79C237.81 197.79 237.4 197.79 237 197.79L236 198.41C235.797 198.549 235.564 198.635 235.32 198.66L234.64 198.73C234.44 198.73 234.24 198.73 234.05 198.78C233.89 198.805 233.747 198.891 233.65 199.02C233.56 199.17 233.55 199.39 233.39 199.48C233.333 199.507 233.272 199.524 233.21 199.53L232.13 199.65L231.67 199.72C231.416 199.778 231.17 199.869 230.94 199.99C230.749 200.105 230.548 200.202 230.34 200.28C230.111 200.315 229.878 200.315 229.65 200.28L228.06 200.17C228.034 200.178 228.006 200.178 227.98 200.17C227.946 200.142 227.925 200.103 227.92 200.06C227.82 199.72 227.74 199.36 227.62 199.06C227.565 198.932 227.484 198.818 227.382 198.723C227.281 198.628 227.161 198.556 227.03 198.51C226.8 198.389 226.58 198.252 226.37 198.1C226.276 198.012 226.163 197.947 226.04 197.91C225.957 197.895 225.872 197.895 225.79 197.91L224.68 198.03C224.334 197.986 223.984 198.053 223.68 198.22C223.553 198.337 223.454 198.48 223.39 198.64L223.16 199.1C223.142 199.143 223.115 199.181 223.08 199.21C223.025 199.23 222.964 199.23 222.91 199.21H221.97C221.79 199.195 221.609 199.195 221.43 199.21L221.06 199.32C220.649 199.489 220.228 199.632 219.8 199.75C219.346 199.819 218.887 199.842 218.43 199.82C218.363 199.83 218.296 199.83 218.23 199.82C218.156 199.792 218.089 199.751 218.03 199.7L216.8 198.78C216.732 198.727 216.658 198.684 216.58 198.65H214.58C214.533 198.64 214.486 198.64 214.44 198.65C214.4 198.664 214.366 198.688 214.34 198.72C214.164 198.863 214.019 199.038 213.913 199.238C213.806 199.437 213.741 199.655 213.72 199.88C213.417 199.868 213.118 199.956 212.87 200.13C212.61 200.28 212.38 200.47 212.11 200.6C211.937 200.663 211.777 200.758 211.64 200.88C211.49 201.04 211.4 201.36 211.12 201.33H210.96C210.86 201.33 210.78 201.42 210.7 201.5C210.555 201.655 210.39 201.789 210.21 201.9C209.609 202.163 209.063 202.536 208.6 203C208.534 203.103 208.445 203.188 208.34 203.25C208.191 203.305 208.028 203.305 207.88 203.25C207.817 203.235 207.752 203.235 207.69 203.25C207.643 203.271 207.599 203.298 207.56 203.33C207.241 203.657 206.865 203.921 206.45 204.11C206.18 204.18 205.89 204.11 205.63 204.16C205.453 204.225 205.293 204.327 205.16 204.46C204.892 204.664 204.608 204.845 204.31 205C204.107 205.085 203.91 205.181 203.72 205.29C203.624 205.397 203.56 205.529 203.535 205.67C203.511 205.811 203.526 205.957 203.58 206.09H203.29C203.088 206.055 202.881 206.055 202.68 206.09C202.37 206.16 202.25 206.4 202.04 206.61C201.852 206.825 201.678 207.052 201.52 207.29Z" fill="#040707"/>
</svg>
