<svg width="1440" height="258" viewBox="0 0 1440 258" fill="none" xmlns="http://www.w3.org/2000/svg">
<path opacity="0.1" d="M1277.5 178C1277.42 178.375 1277.26 178.787 1277.02 179.023C1276.79 179.258 1276.37 179.42 1276 179.5C1276.37 179.58 1276.79 179.741 1277.02 179.977C1277.26 180.213 1277.42 180.625 1277.5 181C1277.58 180.625 1277.74 180.213 1277.98 179.977C1278.21 179.741 1278.63 179.58 1279 179.5C1278.63 179.42 1278.21 179.258 1277.98 179.023C1277.74 178.787 1277.58 178.375 1277.5 178Z" fill="white"/>
<path opacity="0.5" d="M289.5 114C289.42 114.375 289.258 114.787 289.023 115.023C288.787 115.258 288.375 115.42 288 115.5C288.375 115.58 288.787 115.741 289.023 115.977C289.258 116.213 289.42 116.625 289.5 117C289.58 116.625 289.742 116.213 289.978 115.977C290.213 115.741 290.625 115.58 291 115.5C290.625 115.42 290.213 115.258 289.977 115.023C289.742 114.787 289.58 114.375 289.5 114Z" fill="white"/>
<path opacity="0.1" d="M1363.5 182C1363.42 182.375 1363.26 182.787 1363.02 183.023C1362.79 183.258 1362.37 183.42 1362 183.5C1362.37 183.58 1362.79 183.741 1363.02 183.977C1363.26 184.213 1363.42 184.625 1363.5 185C1363.58 184.625 1363.74 184.213 1363.98 183.977C1364.21 183.741 1364.63 183.58 1365 183.5C1364.63 183.42 1364.21 183.258 1363.98 183.023C1363.74 182.787 1363.58 182.375 1363.5 182Z" fill="white"/>
<path opacity="0.1" d="M323.5 54C323.42 54.3747 323.258 54.787 323.023 55.0228C322.787 55.2584 322.375 55.4198 322 55.5001C322.375 55.5805 322.787 55.7415 323.023 55.9774C323.258 56.2132 323.42 56.6251 323.5 57C323.58 56.6251 323.742 56.2132 323.978 55.9772C324.213 55.7415 324.625 55.5802 325 55.4998C324.625 55.4197 324.213 55.2584 323.977 55.0226C323.742 54.787 323.58 54.3747 323.5 54Z" fill="white"/>
<path opacity="0.5" d="M421.5 76C421.42 76.3747 421.258 76.787 421.023 77.0228C420.787 77.2584 420.375 77.4198 420 77.5001C420.375 77.5805 420.787 77.7415 421.023 77.9774C421.258 78.2132 421.42 78.6251 421.5 79C421.58 78.6251 421.742 78.2132 421.978 77.9772C422.213 77.7415 422.625 77.5802 423 77.4998C422.625 77.4197 422.213 77.2584 421.977 77.0226C421.742 76.787 421.58 76.3747 421.5 76Z" fill="white"/>
<path opacity="0.1" d="M1005.5 163C1005.42 163.375 1005.26 163.787 1005.02 164.023C1004.79 164.258 1004.37 164.42 1004 164.5C1004.37 164.58 1004.79 164.741 1005.02 164.977C1005.26 165.213 1005.42 165.625 1005.5 166C1005.58 165.625 1005.74 165.213 1005.98 164.977C1006.21 164.741 1006.63 164.58 1007 164.5C1006.63 164.42 1006.21 164.258 1005.98 164.023C1005.74 163.787 1005.58 163.375 1005.5 163Z" fill="white"/>
<path opacity="0.5" d="M717.5 149C717.42 149.375 717.258 149.787 717.023 150.023C716.787 150.258 716.375 150.42 716 150.5C716.375 150.58 716.787 150.741 717.023 150.977C717.258 151.213 717.42 151.625 717.5 152C717.58 151.625 717.742 151.213 717.978 150.977C718.213 150.741 718.625 150.58 719 150.5C718.625 150.42 718.213 150.258 717.977 150.023C717.742 149.787 717.58 149.375 717.5 149Z" fill="white"/>
<path opacity="0.1" d="M994.5 119C994.42 119.375 994.258 119.787 994.023 120.023C993.787 120.258 993.375 120.42 993 120.5C993.375 120.58 993.787 120.741 994.023 120.977C994.258 121.213 994.42 121.625 994.5 122C994.58 121.625 994.742 121.213 994.978 120.977C995.213 120.741 995.625 120.58 996 120.5C995.625 120.42 995.213 120.258 994.977 120.023C994.742 119.787 994.58 119.375 994.5 119Z" fill="white"/>
<path opacity="0.1" d="M1209.5 122C1209.42 122.375 1209.26 122.787 1209.02 123.023C1208.79 123.258 1208.37 123.42 1208 123.5C1208.37 123.58 1208.79 123.741 1209.02 123.977C1209.26 124.213 1209.42 124.625 1209.5 125C1209.58 124.625 1209.74 124.213 1209.98 123.977C1210.21 123.741 1210.63 123.58 1211 123.5C1210.63 123.42 1210.21 123.258 1209.98 123.023C1209.74 122.787 1209.58 122.375 1209.5 122Z" fill="white"/>
<path opacity="0.5" d="M1122.5 87C1122.42 87.3747 1122.26 87.787 1122.02 88.0228C1121.79 88.2584 1121.37 88.4198 1121 88.5001C1121.37 88.5805 1121.79 88.7415 1122.02 88.9774C1122.26 89.2132 1122.42 89.6251 1122.5 90C1122.58 89.6251 1122.74 89.2132 1122.98 88.9772C1123.21 88.7415 1123.63 88.5802 1124 88.4998C1123.63 88.4197 1123.21 88.2584 1122.98 88.0226C1122.74 87.787 1122.58 87.3747 1122.5 87Z" fill="white"/>
<path opacity="0.5" d="M941.5 146C941.42 146.375 941.258 146.787 941.023 147.023C940.787 147.258 940.375 147.42 940 147.5C940.375 147.58 940.787 147.741 941.023 147.977C941.258 148.213 941.42 148.625 941.5 149C941.58 148.625 941.742 148.213 941.978 147.977C942.213 147.741 942.625 147.58 943 147.5C942.625 147.42 942.213 147.258 941.977 147.023C941.742 146.787 941.58 146.375 941.5 146Z" fill="white"/>
<path opacity="0.5" d="M839.5 141C839.42 141.375 839.258 141.787 839.023 142.023C838.787 142.258 838.375 142.42 838 142.5C838.375 142.58 838.787 142.741 839.023 142.977C839.258 143.213 839.42 143.625 839.5 144C839.58 143.625 839.742 143.213 839.978 142.977C840.213 142.741 840.625 142.58 841 142.5C840.625 142.42 840.213 142.258 839.977 142.023C839.742 141.787 839.58 141.375 839.5 141Z" fill="white"/>
<path opacity="0.5" d="M667 167C666.946 167.375 666.839 167.787 666.682 168.023C666.525 168.258 666.25 168.42 666 168.5C666.25 168.58 666.525 168.741 666.682 168.977C666.839 169.213 666.947 169.625 667 170C667.054 169.625 667.161 169.213 667.318 168.977C667.475 168.741 667.75 168.58 668 168.5C667.75 168.42 667.475 168.258 667.318 168.023C667.161 167.787 667.053 167.375 667 167Z" fill="white"/>
<path opacity="0.5" d="M492 172C491.946 172.375 491.839 172.787 491.682 173.023C491.525 173.258 491.25 173.42 491 173.5C491.25 173.58 491.525 173.741 491.682 173.977C491.839 174.213 491.947 174.625 492 175C492.054 174.625 492.161 174.213 492.318 173.977C492.475 173.741 492.75 173.58 493 173.5C492.75 173.42 492.475 173.258 492.318 173.023C492.161 172.787 492.053 172.375 492 172Z" fill="white"/>
<path opacity="0.1" d="M538.5 145C538.42 145.375 538.258 145.787 538.023 146.023C537.787 146.258 537.375 146.42 537 146.5C537.375 146.58 537.787 146.741 538.023 146.977C538.258 147.213 538.42 147.625 538.5 148C538.58 147.625 538.742 147.213 538.978 146.977C539.213 146.741 539.625 146.58 540 146.5C539.625 146.42 539.213 146.258 538.977 146.023C538.742 145.787 538.58 145.375 538.5 145Z" fill="white"/>
<path opacity="0.2" d="M1236.5 154C1236.37 154.625 1236.1 155.312 1235.7 155.705C1235.31 156.097 1234.62 156.366 1234 156.5C1234.62 156.634 1235.31 156.902 1235.7 157.296C1236.1 157.689 1236.37 158.375 1236.5 159C1236.63 158.375 1236.9 157.689 1237.3 157.295C1237.69 156.902 1238.38 156.634 1239 156.5C1238.38 156.366 1237.69 156.097 1237.3 155.704C1236.9 155.312 1236.63 154.625 1236.5 154Z" fill="white"/>
<path opacity="0.2" d="M448.5 145C448.366 145.625 448.097 146.312 447.704 146.705C447.311 147.097 446.625 147.366 446 147.5C446.625 147.634 447.311 147.902 447.704 148.296C448.097 148.689 448.367 149.375 448.5 150C448.634 149.375 448.903 148.689 449.296 148.295C449.689 147.902 450.376 147.634 451 147.5C450.376 147.366 449.689 147.097 449.296 146.704C448.903 146.312 448.633 145.625 448.5 145Z" fill="white"/>
<path opacity="0.2" d="M241.5 55C241.366 55.6245 241.097 56.3116 240.704 56.7046C240.311 57.0973 239.625 57.3664 239 57.5001C239.625 57.6341 240.311 57.9024 240.704 58.2957C241.097 58.6886 241.367 59.3751 241.5 60C241.634 59.3751 241.903 58.6886 242.296 58.2954C242.689 57.9025 243.376 57.6336 244 57.4996C243.376 57.3661 242.689 57.0973 242.296 56.7043C241.903 56.3117 241.633 55.6246 241.5 55Z" fill="white"/>
<path opacity="0.1" d="M1165.5 139C1165.37 139.625 1165.1 140.312 1164.7 140.705C1164.31 141.097 1163.62 141.366 1163 141.5C1163.62 141.634 1164.31 141.902 1164.7 142.296C1165.1 142.689 1165.37 143.375 1165.5 144C1165.63 143.375 1165.9 142.689 1166.3 142.295C1166.69 141.902 1167.38 141.634 1168 141.5C1167.38 141.366 1166.69 141.097 1166.3 140.704C1165.9 140.312 1165.63 139.625 1165.5 139Z" fill="white"/>
<path opacity="0.1" d="M150.5 71C150.366 71.6245 150.097 72.3116 149.704 72.7046C149.311 73.0973 148.625 73.3664 148 73.5001C148.625 73.6341 149.311 73.9024 149.704 74.2957C150.097 74.6886 150.367 75.3751 150.5 76C150.634 75.3751 150.903 74.6886 151.296 74.2954C151.689 73.9025 152.376 73.6336 153 73.4996C152.376 73.3661 151.689 73.0973 151.296 72.7043C150.903 72.3117 150.633 71.6246 150.5 71Z" fill="white"/>
<path opacity="0.1" d="M163.5 131C163.366 131.625 163.097 132.312 162.704 132.705C162.311 133.097 161.625 133.366 161 133.5C161.625 133.634 162.311 133.902 162.704 134.296C163.097 134.689 163.367 135.375 163.5 136C163.634 135.375 163.903 134.689 164.296 134.295C164.689 133.902 165.376 133.634 166 133.5C165.376 133.366 164.689 133.097 164.296 132.704C163.903 132.312 163.633 131.625 163.5 131Z" fill="white"/>
<path opacity="0.2" d="M1056.5 116C1056.37 116.625 1056.1 117.312 1055.7 117.705C1055.31 118.097 1054.62 118.366 1054 118.5C1054.62 118.634 1055.31 118.902 1055.7 119.296C1056.1 119.689 1056.37 120.375 1056.5 121C1056.63 120.375 1056.9 119.689 1057.3 119.295C1057.69 118.902 1058.38 118.634 1059 118.5C1058.38 118.366 1057.69 118.097 1057.3 117.704C1056.9 117.312 1056.63 116.625 1056.5 116Z" fill="white"/>
<path opacity="0.2" d="M617.5 144C617.366 144.625 617.097 145.312 616.704 145.705C616.311 146.097 615.625 146.366 615 146.5C615.625 146.634 616.311 146.902 616.704 147.296C617.097 147.689 617.367 148.375 617.5 149C617.634 148.375 617.903 147.689 618.296 147.295C618.689 146.902 619.376 146.634 620 146.5C619.376 146.366 618.689 146.097 618.296 145.704C617.903 145.312 617.633 144.625 617.5 144Z" fill="white"/>
<path opacity="0.2" d="M482.5 122C482.366 122.625 482.097 123.312 481.704 123.705C481.311 124.097 480.625 124.366 480 124.5C480.625 124.634 481.311 124.902 481.704 125.296C482.097 125.689 482.367 126.375 482.5 127C482.634 126.375 482.903 125.689 483.296 125.295C483.689 124.902 484.376 124.634 485 124.5C484.376 124.366 483.689 124.097 483.296 123.704C482.903 123.312 482.633 122.625 482.5 122Z" fill="white"/>
<path opacity="0.2" d="M775.5 114C775.366 114.625 775.097 115.312 774.704 115.705C774.311 116.097 773.625 116.366 773 116.5C773.625 116.634 774.311 116.902 774.704 117.296C775.097 117.689 775.367 118.375 775.5 119C775.634 118.375 775.903 117.689 776.296 117.295C776.689 116.902 777.376 116.634 778 116.5C777.376 116.366 776.689 116.097 776.296 115.704C775.903 115.312 775.633 114.625 775.5 114Z" fill="white"/>
<path opacity="0.2" d="M569.5 107C569.366 107.625 569.097 108.312 568.704 108.705C568.311 109.097 567.625 109.366 567 109.5C567.625 109.634 568.311 109.902 568.704 110.296C569.097 110.689 569.367 111.375 569.5 112C569.634 111.375 569.903 110.689 570.296 110.295C570.689 109.902 571.376 109.634 572 109.5C571.376 109.366 570.689 109.097 570.296 108.704C569.903 108.312 569.633 107.625 569.5 107Z" fill="white"/>
<path opacity="0.1" d="M1060.5 57C1060.37 57.6245 1060.1 58.3116 1059.7 58.7046C1059.31 59.0973 1058.62 59.3664 1058 59.5001C1058.62 59.6341 1059.31 59.9024 1059.7 60.2957C1060.1 60.6886 1060.37 61.3751 1060.5 62C1060.63 61.3751 1060.9 60.6886 1061.3 60.2954C1061.69 59.9025 1062.38 59.6336 1063 59.4996C1062.38 59.3661 1061.69 59.0973 1061.3 58.7043C1060.9 58.3117 1060.63 57.6246 1060.5 57Z" fill="white"/>
<path opacity="0.5" d="M683.5 111C683.366 111.625 683.097 112.312 682.704 112.705C682.311 113.097 681.625 113.366 681 113.5C681.625 113.634 682.311 113.902 682.704 114.296C683.097 114.689 683.367 115.375 683.5 116C683.634 115.375 683.903 114.689 684.296 114.295C684.689 113.902 685.376 113.634 686 113.5C685.376 113.366 684.689 113.097 684.296 112.704C683.903 112.312 683.633 111.625 683.5 111Z" fill="white"/>
<path opacity="0.5" d="M400.5 120C400.366 120.625 400.097 121.312 399.704 121.705C399.311 122.097 398.625 122.366 398 122.5C398.625 122.634 399.311 122.902 399.704 123.296C400.097 123.689 400.367 124.375 400.5 125C400.634 124.375 400.903 123.689 401.296 123.295C401.689 122.902 402.376 122.634 403 122.5C402.376 122.366 401.689 122.097 401.296 121.704C400.903 121.312 400.633 120.625 400.5 120Z" fill="white"/>
<path opacity="0.5" d="M93.4998 34C93.366 34.6245 93.0975 35.3116 92.7044 35.7046C92.3114 36.0973 91.6245 36.3664 91 36.5001C91.6245 36.6341 92.3114 36.9024 92.7044 37.2957C93.0975 37.6886 93.3666 38.3751 93.5003 39C93.634 38.3751 93.9026 37.6886 94.2958 37.2954C94.6886 36.9025 95.3756 36.6336 96 36.4996C95.3756 36.3661 94.6886 36.0973 94.2956 35.7043C93.9026 35.3117 93.6334 34.6246 93.4998 34Z" fill="white"/>
<path opacity="0.5" d="M890.5 164C890.42 164.375 890.258 164.787 890.023 165.023C889.787 165.258 889.375 165.42 889 165.5C889.375 165.58 889.787 165.741 890.023 165.977C890.258 166.213 890.42 166.625 890.5 167C890.58 166.625 890.742 166.213 890.978 165.977C891.213 165.741 891.625 165.58 892 165.5C891.625 165.42 891.213 165.258 890.977 165.023C890.742 164.787 890.58 164.375 890.5 164Z" fill="white"/>
<path opacity="0.2" d="M1208.5 182C1208.37 182.625 1208.1 183.312 1207.7 183.705C1207.31 184.097 1206.62 184.366 1206 184.5C1206.62 184.634 1207.31 184.902 1207.7 185.296C1208.1 185.689 1208.37 186.375 1208.5 187C1208.63 186.375 1208.9 185.689 1209.3 185.295C1209.69 184.902 1210.38 184.634 1211 184.5C1210.38 184.366 1209.69 184.097 1209.3 183.704C1208.9 183.312 1208.63 182.625 1208.5 182Z" fill="white"/>
<path opacity="0.2" d="M204.5 96C204.366 96.6245 204.097 97.3116 203.704 97.7046C203.311 98.0973 202.625 98.3664 202 98.5001C202.625 98.6341 203.311 98.9024 203.704 99.2957C204.097 99.6886 204.367 100.375 204.5 101C204.634 100.375 204.903 99.6886 205.296 99.2954C205.689 98.9025 206.376 98.6336 207 98.4996C206.376 98.3661 205.689 98.0973 205.296 97.7043C204.903 97.3117 204.633 96.6246 204.5 96Z" fill="white"/>
<path opacity="0.2" d="M242 131C241.946 131.25 241.839 131.525 241.682 131.682C241.525 131.839 241.25 131.947 241 132C241.25 132.054 241.525 132.161 241.682 132.318C241.839 132.475 241.947 132.75 242 133C242.054 132.75 242.161 132.475 242.318 132.318C242.475 132.161 242.75 132.053 243 132C242.75 131.946 242.475 131.839 242.318 131.682C242.161 131.525 242.053 131.25 242 131Z" fill="white"/>
<path opacity="0.5" d="M143 189C142.946 189.25 142.839 189.525 142.682 189.682C142.525 189.839 142.25 189.947 142 190C142.25 190.054 142.525 190.161 142.682 190.318C142.839 190.475 142.947 190.75 143 191C143.054 190.75 143.161 190.475 143.318 190.318C143.475 190.161 143.75 190.053 144 190C143.75 189.946 143.475 189.839 143.318 189.682C143.161 189.525 143.053 189.25 143 189Z" fill="white"/>
<path opacity="0.2" d="M186 162C185.946 162.25 185.839 162.525 185.682 162.682C185.525 162.839 185.25 162.947 185 163C185.25 163.054 185.525 163.161 185.682 163.318C185.839 163.475 185.947 163.75 186 164C186.054 163.75 186.161 163.475 186.318 163.318C186.475 163.161 186.75 163.053 187 163C186.75 162.946 186.475 162.839 186.318 162.682C186.161 162.525 186.053 162.25 186 162Z" fill="white"/>
<path opacity="0.2" d="M75.9999 133C75.9464 133.25 75.839 133.525 75.6818 133.682C75.5246 133.839 75.2498 133.947 75 134C75.2498 134.054 75.5246 134.161 75.6818 134.318C75.839 134.475 75.9466 134.75 76.0001 135C76.0536 134.75 76.1611 134.475 76.3183 134.318C76.4754 134.161 76.7502 134.053 77 134C76.7502 133.946 76.4754 133.839 76.3182 133.682C76.1611 133.525 76.0534 133.25 75.9999 133Z" fill="white"/>
<path opacity="0.5" d="M109.5 160C109.366 160.625 109.097 161.312 108.704 161.705C108.311 162.097 107.625 162.366 107 162.5C107.625 162.634 108.311 162.902 108.704 163.296C109.097 163.689 109.367 164.375 109.5 165C109.634 164.375 109.903 163.689 110.296 163.295C110.689 162.902 111.376 162.634 112 162.5C111.376 162.366 110.689 162.097 110.296 161.704C109.903 161.312 109.633 160.625 109.5 160Z" fill="white"/>
<path opacity="0.2" d="M114.5 96C114.366 96.6245 114.097 97.3116 113.704 97.7046C113.311 98.0973 112.625 98.3664 112 98.5001C112.625 98.6341 113.311 98.9024 113.704 99.2957C114.097 99.6886 114.367 100.375 114.5 101C114.634 100.375 114.903 99.6886 115.296 99.2954C115.689 98.9025 116.376 98.6336 117 98.4996C116.376 98.3661 115.689 98.0973 115.296 97.7043C114.903 97.3117 114.633 96.6246 114.5 96Z" fill="white"/>
<path opacity="0.5" d="M1300.5 97C1300.37 97.6245 1300.1 98.3116 1299.7 98.7046C1299.31 99.0973 1298.62 99.3664 1298 99.5001C1298.62 99.6341 1299.31 99.9024 1299.7 100.296C1300.1 100.689 1300.37 101.375 1300.5 102C1300.63 101.375 1300.9 100.689 1301.3 100.295C1301.69 99.9025 1302.38 99.6336 1303 99.4996C1302.38 99.3661 1301.69 99.0973 1301.3 98.7043C1300.9 98.3117 1300.63 97.6246 1300.5 97Z" fill="white"/>
<path opacity="0.1" d="M1359.5 0C1359.37 0.624547 1359.1 1.31162 1358.7 1.7046C1358.31 2.09729 1357.62 2.3664 1357 2.50013C1357.62 2.63414 1358.31 2.90242 1358.7 3.29566C1359.1 3.6886 1359.37 4.37513 1359.5 5C1359.63 4.37513 1359.9 3.68864 1360.3 3.2954C1360.69 2.90245 1361.38 2.6336 1362 2.49962C1361.38 2.36611 1360.69 2.09733 1360.3 1.70435C1359.9 1.31165 1359.63 0.624579 1359.5 0Z" fill="white"/>
<path opacity="0.5" d="M1203.5 72C1203.37 72.6245 1203.1 73.3116 1202.7 73.7046C1202.31 74.0973 1201.62 74.3664 1201 74.5001C1201.62 74.6341 1202.31 74.9024 1202.7 75.2957C1203.1 75.6886 1203.37 76.3751 1203.5 77C1203.63 76.3751 1203.9 75.6886 1204.3 75.2954C1204.69 74.9025 1205.38 74.6336 1206 74.4996C1205.38 74.3661 1204.69 74.0973 1204.3 73.7043C1203.9 73.3117 1203.63 72.6246 1203.5 72Z" fill="white"/>
<path d="M570.28 231.57V241.47H310.59V238.98L312.93 235.69H326.57L328.84 238.11H332.19V239.36H342.8L347.05 235.11L351.82 239.43L358.89 229.66V227.07H361.17V229.25H365.65V231.13H371.78L377.86 225.04H385.3V221.77L388.37 218.69H389.15V215.84H393.15L392.52 216.47H391.52V217.82H392.52V221.98H395V221.07H397.39V219.41H400.09V220.96H401.76V227.66H404.15V224.81L408.52 206.71V198.39H409.35V193.31H410.28V198.39H411.43V206.39L415.69 224.79V227.39H418.39V226.07H422.55V235.94H425V230.74H439.66V231.79H441.53V237.07H446.83V234.67H450.37V238.94H453.07V235.4H456.71V238.21H463.37V239.97H465V236.55H467.49V233.33H469V235.83H470.35V232.5H471.19V230.41H473.47V229.07H477.22L489.59 226.26H498.64V224.17H506.54L512.05 228.95V231.34H513.19V233.22H517.77L520.06 230H525.46V224.45C526.08 224.13 526.7 223.83 527.33 223.55V226.07H528.17V230.22H534.17L536.09 232.15V233.96H537.39V230.43H540.61V226.38H541.61V230.54L542.81 231.73V235.86H545.81V233.56H546.36V232.82H558.7V234.07H560.8V232.27H563V230.15H569V231.57H570.28Z" fill="#4A4C4C"/>
<path d="M762.729 237.73C761.299 239.44 758.729 239.58 756.519 239.58C748.519 239.58 740.519 239.58 732.519 239.58L512.519 239.21C509.949 239.21 506.269 237.45 507.629 235.21C508.052 234.662 508.63 234.254 509.289 234.04C509.719 233.86 510.139 233.69 510.579 233.54C516.759 231.35 523.668 231.54 529.848 229.33C532.161 228.441 534.379 227.323 536.468 225.99C539.718 223.99 542.838 221.74 546.218 219.99C546.708 219.73 547.219 219.49 547.699 219.26C547.909 219.17 548.109 219.07 548.319 218.99C553.509 216.77 559.209 216.15 564.819 215.55L604.679 211.3C610.49 210.84 616.255 209.914 621.919 208.53C629.688 206.42 637.269 202.53 645.309 203.1C654.539 203.72 662.819 210.15 672.069 209.9C676.329 209.78 680.449 208.23 684.709 208.09C693.709 207.78 701.709 213.6 710.439 215.55C713.619 216.26 716.889 216.45 720.079 217.1C734.249 219.94 746.079 233.3 760.559 233.3C762.629 232.5 764.148 236 762.729 237.73Z" fill="#4A4C4C"/>
<path d="M1028.72 244.93C1020.16 248.93 1010.02 249.06 1000.42 249.06H732.771C730.771 249.06 728.411 248.95 727.031 247.44C725.291 245.53 726.031 242.28 727.971 240.53C729.911 238.78 732.511 238.14 735.031 237.53C754.29 232.975 773.245 227.214 791.781 220.28C795.241 218.98 798.921 217.62 802.551 218.28C805.601 218.84 808.901 220.75 811.551 219.12C812.661 218.44 813.401 217.23 814.551 216.68C816.071 215.99 817.841 216.6 819.391 217.21L842.001 226.07C845.491 227.44 849.121 228.83 852.861 228.59C857.631 228.27 861.861 225.36 866.441 224.19C875.661 221.87 885.351 226.67 894.761 225.37C897.621 224.97 900.381 224.02 903.241 223.68C908.041 223.1 912.851 224.24 917.591 225.21C933.017 228.367 948.748 229.792 964.491 229.46C969.768 229.191 975.057 229.218 980.331 229.54C989.331 230.38 998.011 233.54 1006.52 236.69L1028.72 244.93Z" fill="#4A4C4C"/>
<path d="M1260.66 236.98H1216.83C1216.3 237.055 1215.76 237.055 1215.23 236.98C1214.75 236.95 1214.29 236.795 1213.89 236.53C1213.64 236.266 1213.45 235.951 1213.33 235.605C1213.21 235.26 1213.16 234.893 1213.2 234.53C1213.2 232.18 1216.49 229.36 1219.64 226.85C1221.34 225.49 1223.58 223.77 1226.28 221.85C1229.4 219.55 1231.58 219.31 1233.02 219.55C1233.95 219.71 1235.42 220.21 1236.76 219.46C1237.56 219.02 1237.66 218.51 1238.15 218.21C1239.04 217.68 1240.96 218.03 1245.45 222.03L1260.66 236.98Z" fill="#4A4C4C"/>
<path d="M1225.93 236.98H1145.83C1145.23 237.065 1144.63 236.945 1144.11 236.642C1143.59 236.339 1143.19 235.87 1142.97 235.31C1142.21 232.968 1142.38 230.423 1143.44 228.2C1144.21 226.795 1145.45 225.709 1146.95 225.14C1156.95 220.195 1166.41 214.248 1175.21 207.39C1176.93 206.06 1178.76 204.65 1180.57 205.34C1182.09 205.92 1183.73 207.88 1185.05 206.21C1185.6 205.52 1185.96 204.26 1186.55 203.71C1187.31 202.99 1188.19 203.62 1188.96 204.25L1198.14 211.69L1225.93 236.98Z" fill="#4A4C4C"/>
<path d="M537.531 248.61H1052.23V232.01C1052.1 231.92 1051.95 231.84 1051.8 231.73C1051.4 231.46 1051.03 230.65 1050.62 230.2L1048.27 229.48L1046.02 228.79L1040.83 227.21C1039.45 226.689 1038.03 226.274 1036.59 225.97C1036.25 225.962 1035.94 225.822 1035.7 225.58C1035.62 225.46 1035.61 225.32 1035.47 225.23C1035.37 225.184 1035.27 225.163 1035.16 225.17L1033.89 225.08L1033.57 225.69C1033.02 225.667 1032.46 225.721 1031.92 225.85C1031.52 225.972 1031.11 226.069 1030.7 226.14C1030.11 226.21 1029.49 226.09 1028.91 226.14C1028.46 226.23 1028.02 226.35 1027.59 226.5C1026.42 226.677 1025.24 226.757 1024.06 226.74C1023.06 226.85 1022.11 227.15 1021.11 227.28C1020.62 227.315 1020.12 227.315 1019.63 227.28C1019.12 227.323 1018.6 227.252 1018.11 227.07C1018.02 227.032 1017.95 226.974 1017.88 226.901C1017.82 226.829 1017.78 226.743 1017.75 226.65C1017.76 226.643 1017.76 226.634 1017.76 226.625C1017.76 226.617 1017.76 226.608 1017.75 226.6H1017.67C1017.43 226.6 1017.19 226.6 1016.94 226.6C1016.89 226.606 1016.84 226.606 1016.79 226.6C1016.76 226.581 1016.74 226.555 1016.73 226.525C1016.72 226.496 1016.71 226.463 1016.71 226.43C1016.68 226.265 1016.68 226.096 1016.71 225.93C1016.61 225.9 1016.5 225.9 1016.39 225.93C1016.28 225.95 1016.16 225.95 1016.05 225.93C1015.83 225.86 1015.94 225.54 1015.94 225.41C1015.57 225.391 1015.2 225.391 1014.83 225.41C1014.91 225.12 1014.83 224.89 1014.44 224.88C1014.05 224.87 1013.59 224.88 1013.18 224.88C1013.22 224.974 1013.22 225.077 1013.18 225.17C1013.05 225.52 1012.52 225.17 1012.31 225.41C1012.1 225.65 1012.31 225.93 1012.31 226.05C1012.34 226.124 1012.34 226.206 1012.31 226.28C1012.2 226.38 1012.05 226.434 1011.9 226.43C1011.49 226.43 1011.38 226.43 1011.29 226.16C1011.29 226.16 1011.23 225.76 1011.29 225.75C1010.58 225.82 1010.29 225.83 1010.29 225.29C1010.32 225.219 1010.32 225.142 1010.29 225.07C1010.13 224.86 1008.98 224.99 1008.7 224.99C1008.42 224.99 1008.57 225.55 1008.54 225.77C1008.54 225.809 1008.53 225.847 1008.51 225.882C1008.5 225.916 1008.47 225.947 1008.44 225.97C1008.2 226.13 1007.92 225.92 1007.74 226.13C1007.56 226.34 1007.64 226.66 1007.56 226.84C1007.35 227.293 1007.06 227.709 1006.71 228.07C1006.32 228.5 1005.39 228.33 1004.77 228.33C1004.53 228.33 1003.61 227.33 1003.45 227.17C1003.39 227.131 1003.35 227.079 1003.31 227.02C1003.26 226.932 1003.24 226.831 1003.25 226.73C1003.17 226.174 1003 225.636 1002.73 225.14C1002.52 224.71 1001.13 224.8 1000.64 224.79C1000.61 224.802 1000.57 224.802 1000.53 224.79C1000.52 224.782 1000.5 224.771 1000.49 224.757C1000.48 224.743 1000.47 224.727 1000.47 224.71C1000.4 224.55 1000.31 224.02 1000.11 223.94C1000.04 223.925 999.97 223.925 999.901 223.94C999.031 223.94 998.161 223.94 997.291 223.94C997.342 224.751 997.261 225.565 997.051 226.35C997.051 226.61 996.741 226.96 996.611 227.2C996.606 227.22 996.596 227.237 996.582 227.251C996.568 227.265 996.551 227.275 996.531 227.28C996.516 227.288 996.498 227.291 996.481 227.291C996.464 227.291 996.447 227.288 996.431 227.28C994.661 226.66 992.971 225.78 991.261 225.05L987.461 223.41C986.457 222.853 985.338 222.531 984.191 222.47C983.061 222.47 981.931 222.55 980.801 222.67C979.814 222.87 978.799 222.901 977.801 222.76C977.111 222.62 976.471 222.4 975.801 222.22C972.98 221.642 970.087 221.494 967.221 221.78C967.071 222.1 967.081 222.53 966.581 222.69C966.257 222.785 965.918 222.819 965.581 222.79H964.761C963.373 222.68 961.979 222.68 960.591 222.79C959.161 222.99 957.741 223.2 956.321 223.43C954.901 223.66 953.321 223.99 951.791 224.2H951.661C951.622 224.187 951.589 224.158 951.57 224.121C951.552 224.083 951.548 224.04 951.561 224C951.581 223.791 951.581 223.58 951.561 223.37C951.562 223.323 951.55 223.275 951.527 223.233C951.505 223.191 951.472 223.156 951.431 223.13C951.342 223.109 951.25 223.109 951.161 223.13C949.771 223.13 948.381 223.08 946.991 223.08C946.795 223.065 946.598 223.065 946.401 223.08C946.184 223.129 945.972 223.203 945.771 223.3L941.141 225.3L938.861 226.3C938.184 226.7 937.471 227.035 936.731 227.3C936.571 227.385 936.393 227.433 936.211 227.44C936.041 227.444 935.872 227.417 935.711 227.36C934.131 226.88 932.561 226.36 931.021 225.89C929.542 225.413 927.996 225.17 926.441 225.17H916.411C915.322 225.1 914.23 225.1 913.141 225.17C913.241 224.95 913.041 224.71 912.821 224.53C912.064 223.815 911.103 223.353 910.071 223.21C908.963 223.245 907.869 223.475 906.841 223.89L904.541 224.68C904.003 224.874 903.451 225.031 902.891 225.15C901.734 225.312 900.555 225.181 899.461 224.77C898.941 224.62 898.461 224.45 897.951 224.28C897.412 224.028 896.845 223.84 896.261 223.72C896.143 223.674 896.018 223.647 895.891 223.64C895.802 223.649 895.715 223.669 895.631 223.7C894.821 223.95 893.971 224.16 893.191 224.44C892.689 224.661 892.171 224.845 891.641 224.99C891.051 225.099 890.452 225.153 889.851 225.15C888.684 225.154 887.522 225.01 886.391 224.72C885.407 224.403 884.405 224.142 883.391 223.94C882.727 223.864 882.059 223.837 881.391 223.86H873.151C871.949 223.867 870.749 223.964 869.561 224.15C867.501 224.45 865.431 224.76 863.361 225.05C861.451 225.32 859.531 225.69 857.601 225.85C855.091 226.04 852.521 225.85 850.021 225.85L845.531 225.78H843.451C842.451 225.78 841.331 225.63 840.541 226.22C840.144 226.641 839.668 226.981 839.141 227.22C838.31 227.343 837.468 227.37 836.631 227.3C836.203 227.319 835.774 227.292 835.351 227.22C834.111 226.95 833.441 225.92 832.271 225.51C831.628 225.284 830.932 225.253 830.271 225.42C829.661 225.57 829.401 226.02 828.851 226.24C828.282 226.415 827.683 226.469 827.091 226.4C826.591 226.4 824.801 226.65 824.561 226.29C824.542 226.225 824.542 226.156 824.561 226.09C824.561 225.83 824.561 225.58 824.561 225.33C824.561 225.33 824.561 225.26 824.561 225.24C824.525 225.231 824.487 225.231 824.451 225.24C823.92 225.135 823.373 225.135 822.841 225.24C822.49 225.379 822.184 225.615 821.961 225.92C820.711 227.16 818.571 227.37 816.771 227.92C814.971 228.47 813.221 229.42 811.231 229.56H811.181L801.931 230.22L788.811 231.17C788.134 231.27 787.443 231.184 786.811 230.92C785.849 230.344 784.753 230.031 783.631 230.01C782.671 230.084 781.726 230.289 780.821 230.62C779.931 230.941 779.022 231.212 778.101 231.43C776.712 231.711 775.277 231.68 773.901 231.34L773.211 231.17C772.827 231.117 772.439 231.093 772.051 231.1C771.856 231.09 771.66 231.11 771.471 231.16C771.354 231.212 771.24 231.272 771.131 231.34C770.323 231.872 769.563 232.474 768.861 233.14C768.778 233.23 768.68 233.304 768.571 233.36C767.459 233.488 766.34 233.541 765.221 233.52V232.52H762.621V231.81L760.691 231.34L759.831 231.63L758.961 231.9V232.33H756.661C756.451 232.33 756.661 232.77 756.661 232.77H755.001V233.49H750.301V232.69H749.541V232.06H748.771V232.73H747.931L747.161 233.85H745.001C744.861 233.85 745.001 233.51 745.001 233.51H741.831C738.711 232.66 735.571 231.51 732.251 231.15C728.476 230.814 724.672 231.126 721.001 232.07C717.339 232.924 713.756 234.088 710.291 235.55C709.391 236.025 708.442 236.401 707.461 236.67C704.211 237.4 701.141 235.67 698.131 235.08C694.495 234.49 690.815 234.205 687.131 234.23C681.369 233.916 675.592 234.053 669.851 234.64C668.117 235.029 666.36 235.306 664.591 235.47C663.041 235.47 661.421 234.68 660.011 234.29C658.62 233.943 657.184 233.804 655.751 233.88H649.131L649.001 232.07H651.421L633.321 221.68L618.001 232.9H619.581V236.46H617.341C616.848 236.065 616.285 235.766 615.681 235.58C615.475 235.56 615.267 235.56 615.061 235.58C614.631 235.58 614.191 235.64 613.771 235.69C613.394 235.711 613.028 235.821 612.701 236.01C612.491 236.22 612.701 236.45 612.701 236.7C612.701 236.849 612.661 236.995 612.585 237.124C612.509 237.252 612.401 237.358 612.271 237.43C611.971 237.681 611.633 237.883 611.271 238.03C611.197 238.082 611.111 238.116 611.021 238.13C610.908 238.135 610.795 238.115 610.691 238.07C609.843 237.742 608.961 237.511 608.061 237.38C607.299 237.32 606.533 237.32 605.771 237.38C605.563 237.376 605.355 237.396 605.151 237.44C604.67 237.614 604.2 237.814 603.741 238.04C603.202 238.168 602.638 238.144 602.111 237.97C600.318 237.454 598.425 237.389 596.601 237.78C595.847 238.064 595.055 238.233 594.251 238.28C593.471 238.28 592.703 238.08 592.021 237.7C591.784 237.51 591.512 237.367 591.221 237.28C591.071 237.27 590.921 237.27 590.771 237.28C589.813 237.216 588.851 237.283 587.911 237.48C587.081 237.759 586.205 237.874 585.331 237.82C584.963 237.754 584.599 237.667 584.241 237.56C583.297 237.368 582.333 237.301 581.371 237.36C580.672 237.315 579.971 237.315 579.271 237.36L577.211 237.74L575.481 238.5C575.194 238.665 574.889 238.796 574.571 238.89C574.351 238.89 574.241 238.58 574.131 238.41C574.105 238.367 574.067 238.333 574.021 238.31C573.972 238.301 573.921 238.301 573.871 238.31C573.308 238.224 572.735 238.224 572.171 238.31C572.1 238.36 572.044 238.43 572.011 238.51C571.791 238.91 571.571 239.31 571.361 239.72C571.341 239.758 571.314 239.792 571.281 239.82C571.228 239.847 571.17 239.864 571.111 239.87C570.851 239.87 570.311 240.12 570.061 239.97C570.034 239.96 570.009 239.944 569.988 239.924C569.967 239.903 569.951 239.878 569.941 239.85C569.639 239.482 569.399 239.066 569.231 238.62C569.121 238.2 569.231 237.78 568.781 237.45C568.413 237.182 568.022 236.948 567.611 236.75C567.087 236.456 566.6 236.1 566.161 235.69C565.935 235.431 565.646 235.235 565.321 235.12C565.086 235.085 564.847 235.085 564.611 235.12C563.241 235.18 561.811 235.23 560.441 235.41C559.61 235.504 558.789 235.679 557.991 235.93C557.596 236.039 557.223 236.219 556.891 236.46C556.54 236.782 556.273 237.183 556.111 237.63C555.768 238.197 555.54 238.825 555.441 239.48L554.531 239.29C553.131 238.57 552.781 239.78 552.401 240.08C552.201 240.25 551.331 241.02 550.941 240.84C546.941 239 545.151 238.4 544.941 238.22L542.941 239.48H539.671L537.531 248.61Z" fill="#040707"/>
<path d="M741.66 239.68H556.43V237.84L559.23 237.51L560.7 236.58H562.23L564.66 235.65L566.66 235.26L568.45 234.86L569.45 235.22L573.03 234.86L574.03 233.17H577.16L579.71 232.36L583.71 232.67L585.05 231.52L589.32 231.06C589.32 231.06 590.66 231.25 590.66 231.06C590.798 230.721 590.987 230.404 591.22 230.12H594.22L595.1 229.53L596.95 228.53L599.51 228.93L600.34 228.53H602.57C603.22 228.71 603.9 228.757 604.57 228.67L606.05 228.82L607.45 228.25L608.6 228.42L609.69 228.62L611.47 228.02H612.88C612.916 228.025 612.953 228.025 612.99 228.02C614.78 227.68 616.5 227.2 618.22 226.8L622.08 225.92C623.155 225.602 624.268 225.43 625.39 225.41C626.54 225.41 627.68 225.41 628.81 225.51C629.806 225.617 630.81 225.634 631.81 225.56C632.51 225.49 633.17 225.37 633.81 225.27C636.695 224.959 639.601 224.879 642.5 225.03C642.67 225.21 642.66 225.44 643.16 225.53C643.492 225.558 643.827 225.558 644.16 225.53H645C646.39 225.53 647.68 226.01 649 226.11C650.32 226.21 652.07 225.77 653.51 225.89C654.95 226.01 653.81 225.2 655.36 225.31C655.36 225.31 656.24 225.75 656.28 225.75C656.621 225.662 656.955 225.548 657.28 225.41C657.94 225.23 658.28 225.54 658.28 225.41C658.28 225.28 658.44 225.58 658.53 225.55C658.62 225.52 658.53 225.69 658.66 225.69C660.07 225.69 661.48 225.69 662.89 225.69C663.086 225.675 663.283 225.675 663.48 225.69C663.698 225.719 663.915 225.759 664.13 225.81L668.9 227.07L670.34 228.3L673.06 228.92L675.61 228.52L680.29 229.14V229.89C680.29 229.89 681.57 230.16 681.83 230.2C682.09 230.24 688.55 230.2 688.55 230.2L689.66 231L692.55 231.22L695.19 232.4L697.57 232.05L700.57 232.85H703.21L705.59 233.29L706.27 234.29L709.34 234.06L713.17 235.3L713.68 235.87L716.31 235.57L719.55 236.36L720.14 236.98H724.57L725 238.03L729 238.52H731.63V237.95L733.76 238.12L734.95 238.74H737.68L741.66 239.68Z" fill="#040707"/>
<path d="M1180.66 185.96C1180.35 185.684 1179.95 185.523 1179.54 185.503C1179.12 185.483 1178.71 185.605 1178.38 185.85C1178.18 185.993 1178.02 186.174 1177.89 186.382C1177.77 186.59 1177.69 186.82 1177.66 187.06C1177.62 187.3 1177.64 187.544 1177.7 187.778C1177.77 188.012 1177.88 188.23 1178.03 188.42L1174.12 184.13L1169.72 188.13C1169.98 187.895 1170.16 187.591 1170.25 187.253C1170.34 186.915 1170.33 186.558 1170.22 186.226C1170.12 185.893 1169.91 185.6 1169.64 185.38C1169.37 185.16 1169.04 185.024 1168.69 184.988C1168.34 184.951 1167.99 185.016 1167.68 185.175C1167.37 185.334 1167.11 185.58 1166.94 185.882C1166.76 186.185 1166.68 186.532 1166.7 186.881C1166.71 187.23 1166.83 187.567 1167.04 187.85C1167.19 188.057 1167.38 188.23 1167.6 188.358C1167.82 188.487 1168.06 188.566 1168.32 188.593C1168.57 188.619 1168.82 188.592 1169.07 188.512C1169.31 188.432 1169.53 188.302 1169.72 188.13L1165.33 192.13L1168.53 195.65C1168.52 195.345 1168.58 195.042 1168.72 194.769C1168.86 194.497 1169.07 194.263 1169.32 194.091C1169.57 193.919 1169.86 193.814 1170.17 193.785C1170.47 193.756 1170.78 193.805 1171.06 193.926C1171.34 194.048 1171.58 194.238 1171.77 194.48C1171.96 194.721 1172.08 195.006 1172.13 195.308C1172.17 195.61 1172.14 195.919 1172.04 196.206C1171.93 196.493 1171.76 196.749 1171.53 196.95C1171.34 197.125 1171.11 197.257 1170.87 197.337C1170.62 197.416 1170.36 197.441 1170.11 197.41L1173.31 200.92L1182.1 192.92L1178.2 188.63C1178.56 188.951 1179.03 189.116 1179.51 189.09C1179.99 189.064 1180.44 188.848 1180.76 188.49C1181.08 188.132 1181.24 187.661 1181.22 187.181C1181.19 186.701 1180.98 186.251 1180.62 185.93L1180.66 185.96Z" fill="#040707"/>
<path d="M1054.2 169.68C1054.3 169.493 1054.35 169.276 1054.32 169.062C1054.29 168.849 1054.2 168.649 1054.05 168.494C1053.9 168.339 1053.7 168.237 1053.49 168.202C1053.28 168.167 1053.06 168.201 1052.87 168.3L1055.12 166.17L1052.94 163.86C1053.07 164.008 1053.24 164.115 1053.43 164.167C1053.62 164.22 1053.82 164.215 1054 164.154C1054.19 164.093 1054.36 163.978 1054.48 163.824C1054.6 163.669 1054.67 163.483 1054.69 163.287C1054.71 163.091 1054.66 162.895 1054.57 162.722C1054.47 162.55 1054.33 162.41 1054.16 162.318C1053.98 162.227 1053.79 162.189 1053.59 162.208C1053.4 162.228 1053.21 162.305 1053.06 162.43C1052.95 162.515 1052.87 162.62 1052.81 162.738C1052.75 162.857 1052.71 162.986 1052.7 163.12C1052.68 163.253 1052.7 163.387 1052.74 163.514C1052.78 163.642 1052.85 163.759 1052.94 163.86L1050.76 161.56L1048.92 163.3C1049.09 163.281 1049.27 163.307 1049.43 163.376C1049.58 163.445 1049.72 163.554 1049.83 163.693C1049.93 163.832 1050 163.996 1050.02 164.168C1050.04 164.341 1050.02 164.516 1049.95 164.676C1049.89 164.837 1049.78 164.977 1049.64 165.084C1049.5 165.19 1049.34 165.259 1049.17 165.284C1049 165.309 1048.82 165.288 1048.66 165.224C1048.5 165.16 1048.36 165.056 1048.25 164.92C1048.16 164.819 1048.09 164.701 1048.04 164.572C1048 164.443 1047.98 164.306 1047.99 164.17L1046.15 165.91L1050.51 170.53L1052.76 168.4C1052.66 168.598 1052.64 168.821 1052.68 169.035C1052.73 169.25 1052.84 169.443 1053.01 169.587C1053.17 169.73 1053.38 169.814 1053.6 169.828C1053.82 169.841 1054.04 169.782 1054.22 169.66L1054.2 169.68Z" fill="#FFAE00"/>
<path d="M290.371 226.27H290.201C290.091 226.27 290.051 226.27 290.041 226.12C290.041 225.57 289.951 225.03 289.911 224.49C289.811 223.39 289.721 222.29 289.631 221.19C289.631 220.92 289.631 220.65 289.561 220.39C289.561 220.29 289.561 220.23 289.691 220.24C289.821 220.25 289.781 220.24 289.771 220.19C289.761 220.14 289.771 220.12 289.661 220.12H289.351C289.281 220.12 289.251 220.12 289.251 220.02C289.251 219.67 289.251 219.32 289.251 218.97C289.251 218.89 289.301 218.85 289.341 218.8C289.37 218.77 289.39 218.733 289.397 218.692C289.405 218.652 289.401 218.61 289.385 218.572C289.369 218.534 289.342 218.501 289.307 218.478C289.273 218.455 289.233 218.443 289.191 218.443C289.15 218.443 289.109 218.455 289.075 218.478C289.041 218.501 289.014 218.534 288.998 218.572C288.982 218.61 288.977 218.652 288.985 218.692C288.993 218.733 289.012 218.77 289.041 218.8C289.071 218.826 289.094 218.859 289.11 218.895C289.125 218.931 289.132 218.971 289.131 219.01C289.131 219.33 289.131 219.64 289.131 219.96C289.131 220.1 289.081 220.13 288.961 220.12H288.671C288.621 220.12 288.591 220.12 288.591 220.19C288.591 220.26 288.591 220.24 288.651 220.24H288.831C288.851 220.383 288.851 220.527 288.831 220.67C288.731 222.04 288.641 223.42 288.541 224.8L288.451 226.11C288.451 226.24 288.401 226.28 288.281 226.27H287.671C287.501 226.27 287.491 226.27 287.491 226.45V226.92C287.491 227.04 287.491 227.07 287.341 227.07H286.071C286.001 227.07 285.971 227.07 285.971 227.17V231.66C285.971 231.73 285.971 231.76 285.861 231.75H282.551C282.461 231.75 282.411 231.75 282.421 231.62V231.4C282.421 223.673 282.421 215.94 282.421 208.2C282.421 207.8 282.491 207.89 282.111 207.78C281.731 207.67 281.111 207.5 280.661 207.38C280.61 207.373 280.563 207.345 280.532 207.304C280.5 207.263 280.485 207.212 280.491 207.16C280.491 206.65 280.491 206.16 280.491 205.65C280.491 205.43 280.491 205.42 280.291 205.35L277.481 204.35C277.231 204.25 277.261 204.29 277.261 204.02C277.261 203.09 277.261 202.15 277.261 201.22C277.27 201.153 277.257 201.085 277.225 201.026C277.192 200.967 277.142 200.919 277.081 200.89C276.031 200.28 274.981 199.65 273.941 199.02C273.883 198.985 273.819 198.963 273.751 198.954C273.684 198.946 273.616 198.951 273.551 198.97L272.181 199.33C272.001 199.38 272.001 199.38 272.001 199.57V202.57C272.001 202.85 272.001 202.81 271.771 202.88L270.771 203.13C270.591 203.18 270.591 203.18 270.591 203.37V204.59C270.591 204.81 270.591 204.81 270.371 204.86L269.561 205.04C269.381 205.09 269.381 205.09 269.381 205.29V206.68C269.381 206.92 269.381 206.88 269.171 206.94C268.961 207 268.621 207.08 268.341 207.13C268.231 207.13 268.181 207.19 268.191 207.3C268.196 207.357 268.196 207.413 268.191 207.47V217.13C268.191 217.21 268.191 217.24 268.071 217.24C267.951 217.24 267.981 217.18 267.981 217.12V216.25C267.981 216.15 267.981 216.11 267.851 216.12H261.151C260.851 216.12 260.881 216.12 260.871 216.39C260.861 216.66 260.871 217.03 260.871 217.34C260.871 217.65 260.871 217.53 260.691 217.53H259.641C259.519 217.53 259.399 217.561 259.291 217.62L258.151 218.27C258.101 218.27 258.061 218.32 258.011 218.27C257.961 218.22 257.911 218.36 257.851 218.4C257.611 218.53 257.391 218.68 257.141 218.79C257.056 218.825 256.986 218.887 256.94 218.967C256.895 219.047 256.878 219.139 256.891 219.23C256.891 222.43 256.891 225.63 256.891 228.83C256.886 228.893 256.886 228.957 256.891 229.02C256.897 229.046 256.897 229.074 256.891 229.1V237.1H293.531V226.27H290.371Z" fill="#4A4C4C"/>
<path d="M1440 236H0V258H1440V236Z" fill="#040707"/>
<path d="M374.281 236.66H452.281V236.07H450.071C450.071 236.07 449.981 235.97 449.951 235.93L449.841 235.81C449.751 235.71 449.661 235.62 449.581 235.52H448.901C448.711 235.53 448.521 235.53 448.331 235.52C448.24 235.514 448.149 235.497 448.061 235.47C447.991 235.47 447.951 235.38 447.881 235.37H447.771C447.571 235.37 447.391 235.44 447.211 235.47C446.979 235.536 446.733 235.536 446.501 235.47C446.431 235.47 446.201 235.35 446.171 235.32C446.015 235.267 445.854 235.227 445.691 235.2C445.531 235.2 445.501 235.2 445.251 235.2H444.651C444.395 235.184 444.141 235.147 443.891 235.09C443.6 235.045 443.303 235.045 443.011 235.09H442.841C442.422 235.135 442 235.135 441.581 235.09C441.221 235.09 440.891 235 440.531 234.97C440.171 234.94 439.781 234.92 439.401 234.91C439.067 234.907 438.733 234.924 438.401 234.96C438.07 235.004 437.736 235.024 437.401 235.02H436.621C436.377 235.021 436.133 235.038 435.891 235.07H435.841H435.791C435.604 235.002 435.409 234.955 435.211 234.93C434.98 234.889 434.746 234.869 434.511 234.87L433.931 234.92C433.781 234.92 433.651 234.92 433.501 234.92H432.981C432.631 234.92 432.281 234.92 431.981 234.92L431.391 235C431.041 235 430.681 235 430.321 235.06H430.001C429.885 235.07 429.768 235.07 429.651 235.06H429.461C429.187 235.015 428.909 234.992 428.631 234.99C428.071 234.99 427.531 235.05 426.981 235.08C426.838 235.093 426.697 235.124 426.561 235.17L426.091 235.27L425.451 235.41C425.259 235.488 425.062 235.555 424.861 235.61C424.571 235.67 424.221 235.68 423.921 235.71L422.921 235.81C422.801 235.82 422.681 235.82 422.561 235.81C422.488 235.8 422.414 235.8 422.341 235.81H422.261H422.141C422.009 235.785 421.873 235.785 421.741 235.81C421.741 235.81 421.671 235.81 421.631 235.81C421.588 235.82 421.544 235.82 421.501 235.81C421.417 235.783 421.326 235.783 421.241 235.81C421.125 235.825 421.007 235.825 420.891 235.81C420.851 235.815 420.811 235.815 420.771 235.81C420.706 235.794 420.637 235.794 420.571 235.81C420.495 235.815 420.418 235.815 420.341 235.81H420.121H419.911C419.808 235.8 419.704 235.8 419.601 235.81H419.551C419.492 235.825 419.43 235.825 419.371 235.81C419.295 235.795 419.217 235.795 419.141 235.81C418.881 235.81 418.651 235.87 418.401 235.9C418.052 235.94 417.7 235.94 417.351 235.9H417.001C416.906 235.906 416.812 235.923 416.721 235.95V236.01C416.598 235.999 416.474 235.999 416.351 236.01L416.141 236.06H415.931H415.671L415.111 236.12C415.111 236.12 415.111 236.12 415.061 236.12C415.009 236.131 414.954 236.131 414.901 236.12C414.828 236.109 414.754 236.109 414.681 236.12C414.581 236.12 414.471 236.12 414.371 236.12C414.26 236.106 414.15 236.086 414.041 236.06C413.922 236.04 413.8 236.04 413.681 236.06H413.611H413.481C413.294 236.001 413.098 235.974 412.901 235.98H412.721L412.311 235.84H412.231H412.161C412.021 235.85 411.881 235.85 411.741 235.84C411.612 235.819 411.48 235.819 411.351 235.84L411.221 235.76H411.171H410.791H410.741C410.614 235.794 410.483 235.811 410.351 235.81H409.861C409.845 235.806 409.828 235.806 409.811 235.81C409.739 235.844 409.661 235.864 409.581 235.87C409.499 235.882 409.42 235.913 409.351 235.96H409.291H409.081C409.081 235.96 409.081 236.01 409.081 236.02H408.901C408.835 236.03 408.768 236.03 408.701 236.02H408.621L408.501 235.96H408.421H407.861C407.773 235.942 407.692 235.897 407.631 235.83H407.561L406.921 235.77C406.869 235.793 406.816 235.813 406.761 235.83C406.675 235.84 406.588 235.84 406.501 235.83L405.921 235.89C405.898 235.93 405.863 235.961 405.821 235.98H405.741C405.648 235.995 405.557 236.021 405.471 236.06C405.411 236.082 405.353 236.112 405.301 236.15C405.171 236.15 405.061 236.09 404.941 236.06C404.811 236.022 404.676 236.005 404.541 236.01C404.398 236.02 404.254 236.02 404.111 236.01C404.019 235.982 403.926 235.958 403.831 235.94H403.091C402.936 235.973 402.776 235.973 402.621 235.94L402.521 235.84C402.418 235.788 402.306 235.758 402.191 235.75H401.791H401.591L401.411 235.66L401.171 235.51H401.111H400.621C400.519 235.501 400.419 235.481 400.321 235.45C400.139 235.386 399.952 235.335 399.761 235.3C399.598 235.289 399.434 235.289 399.271 235.3H399.001H398.921L398.391 235.11H398.331H397.681C397.347 235.112 397.013 235.092 396.681 235.05C396.385 235.03 396.088 235.03 395.791 235.05H395.611H395.511L395.221 234.94C395.15 234.914 395.076 234.894 395.001 234.88C394.878 234.864 394.754 234.864 394.631 234.88H393.361C393.269 234.879 393.177 234.896 393.091 234.93C393.024 234.972 392.949 234.999 392.871 235.01C392.66 235.009 392.45 234.992 392.241 234.96C392.051 234.96 391.881 234.88 391.691 234.84H391.591H391.471L390.651 234.96C390.661 235.003 390.661 235.047 390.651 235.09H390.001L389.551 235.21C389.452 235.225 389.351 235.225 389.251 235.21H388.951H388.691C388.632 235.197 388.571 235.197 388.511 235.21C388.511 235.21 388.511 235.28 388.401 235.3H388.311H387.841H387.631L387.311 235.35L387.041 235.4C386.942 235.41 386.841 235.41 386.741 235.4H386.041C386.001 235.334 385.958 235.271 385.911 235.21C385.836 235.152 385.746 235.117 385.651 235.11L385.361 235.03C385.311 235.024 385.261 235.024 385.211 235.03H385.001H384.511C384.365 235.009 384.217 235.009 384.071 235.03C384.023 235.048 383.979 235.075 383.941 235.11L383.841 235.2H383.111H382.941L382.381 235.28C382.181 235.29 381.981 235.29 381.781 235.28H381.691H381.601L381.001 235.07H380.901H380.001C379.861 235.12 379.731 235.19 379.731 235.28C379.605 235.265 379.477 235.265 379.351 235.28C379.243 235.316 379.133 235.346 379.021 235.37L378.811 235.42C378.741 235.42 378.701 235.51 378.581 235.51H378.511C378.471 235.504 378.431 235.504 378.391 235.51L378.171 235.59C377.928 235.631 377.69 235.698 377.461 235.79C377.425 235.814 377.384 235.831 377.341 235.84H377.141C377.141 235.84 377.081 235.84 377.061 235.84H377.001C376.846 235.91 376.681 235.957 376.511 235.98C376.391 235.98 376.261 235.98 376.141 235.98C376.07 235.994 375.999 236.014 375.931 236.04C375.81 236.08 375.686 236.114 375.561 236.14L375.301 236.19C375.201 236.19 375.201 236.29 375.241 236.34H374.841C374.739 236.353 374.64 236.387 374.551 236.44L374.281 236.66Z" fill="#040707"/>
<path d="M449.691 236.66H527.691V236.07H525.481C525.481 236.07 525.391 235.97 525.361 235.93L525.251 235.81C525.171 235.71 525.081 235.62 524.991 235.52H524.311C524.122 235.53 523.931 235.53 523.741 235.52C523.65 235.516 523.559 235.499 523.471 235.47C523.401 235.47 523.351 235.38 523.291 235.37H523.171C522.971 235.37 522.801 235.44 522.611 235.47C522.379 235.536 522.134 235.536 521.901 235.47C521.831 235.47 521.611 235.35 521.571 235.32C521.393 235.213 521.201 235.129 521.001 235.07C520.841 235.07 520.811 235.07 520.571 235.07H520.001C519.749 235.054 519.498 235.018 519.251 234.96C518.956 234.916 518.656 234.916 518.361 234.96H518.201C517.779 235.005 517.354 235.005 516.931 234.96C516.571 234.96 516.241 234.87 515.931 234.84C515.621 234.81 515.171 234.79 514.791 234.78C514.457 234.777 514.123 234.793 513.791 234.83C513.46 234.874 513.126 234.894 512.791 234.89H512.011C511.771 234.892 511.53 234.908 511.291 234.94C511.272 234.946 511.251 234.946 511.231 234.94C511.047 234.873 510.856 234.827 510.661 234.8C510.427 234.76 510.189 234.74 509.951 234.74L509.371 234.79C509.221 234.79 509.091 234.79 508.941 234.79H508.421C508.071 234.79 507.721 234.79 507.421 234.79L506.831 234.87C506.481 234.87 506.121 234.87 505.771 234.93H505.441C505.325 234.94 505.208 234.94 505.091 234.93H504.911C504.637 234.886 504.359 234.863 504.081 234.86C503.521 234.86 502.981 234.92 502.431 234.95C502.285 234.963 502.141 234.994 502.001 235.04L501.531 235.14L500.901 235.28C500.706 235.359 500.505 235.425 500.301 235.48C499.99 235.53 499.676 235.563 499.361 235.58L498.361 235.68C498.245 235.69 498.128 235.69 498.011 235.68C497.935 235.67 497.858 235.67 497.781 235.68H497.701H497.581C497.449 235.655 497.314 235.655 497.181 235.68C497.181 235.68 497.111 235.68 497.071 235.68C497.029 235.69 496.984 235.69 496.941 235.68C496.857 235.653 496.766 235.653 496.681 235.68C496.569 235.696 496.454 235.696 496.341 235.68C496.298 235.686 496.255 235.686 496.211 235.68C496.146 235.664 496.077 235.664 496.011 235.68C495.938 235.685 495.865 235.685 495.791 235.68H495.571C495.498 235.675 495.425 235.675 495.351 235.68C495.248 235.67 495.145 235.67 495.041 235.68C494.982 235.696 494.92 235.696 494.861 235.68C494.782 235.665 494.701 235.665 494.621 235.68C494.371 235.68 494.131 235.74 493.891 235.77C493.539 235.81 493.184 235.81 492.831 235.77H492.721C492.626 235.775 492.532 235.792 492.441 235.82V235.88C492.315 235.87 492.188 235.87 492.061 235.88L491.861 235.93H491.641H491.391L490.831 235.99C490.831 235.99 490.831 235.99 490.771 235.99C490.722 236.001 490.671 236.001 490.621 235.99C490.549 235.979 490.474 235.979 490.401 235.99C490.295 235.995 490.188 235.995 490.081 235.99L489.751 235.93C489.636 235.909 489.517 235.909 489.401 235.93H489.001H488.871C488.684 235.871 488.488 235.843 488.291 235.85H488.121L487.701 235.71H487.631H487.551C487.415 235.72 487.278 235.72 487.141 235.71C487.012 235.689 486.881 235.689 486.751 235.71L486.611 235.63H486.561H486.181H486.131C486.004 235.665 485.873 235.681 485.741 235.68H485.251C485.251 235.68 485.251 235.68 485.201 235.68C485.129 235.714 485.051 235.734 484.971 235.74C484.889 235.752 484.81 235.783 484.741 235.83H484.531H484.481C484.481 235.83 484.481 235.88 484.481 235.89H484.301C484.232 235.9 484.161 235.9 484.091 235.89H484.021L483.891 235.83H483.811H483.251C483.166 235.813 483.088 235.767 483.031 235.7H482.961L482.311 235.64L482.161 235.7C482.075 235.71 481.988 235.71 481.901 235.7L481.311 235.76C481.293 235.799 481.261 235.831 481.221 235.85H481.141C481.045 235.865 480.951 235.892 480.861 235.93C480.801 235.952 480.744 235.982 480.691 236.02C480.561 236.02 480.441 235.96 480.321 235.93C480.192 235.892 480.057 235.875 479.921 235.88C479.778 235.89 479.635 235.89 479.491 235.88C479.4 235.85 479.306 235.826 479.211 235.81H478.471C478.316 235.842 478.156 235.842 478.001 235.81C478.001 235.81 477.951 235.74 477.901 235.71C477.799 235.657 477.687 235.626 477.571 235.62H477.171H476.971L476.791 235.53L476.551 235.38H476.501H476.001C475.903 235.371 475.806 235.35 475.711 235.32C475.528 235.258 475.341 235.208 475.151 235.17C474.985 235.16 474.818 235.16 474.651 235.17H474.561H474.481L473.961 234.98H473.891H473.251C472.917 234.982 472.583 234.962 472.251 234.92C471.958 234.9 471.664 234.9 471.371 234.92H471.191H471.081L470.791 234.81C470.723 234.784 470.653 234.764 470.581 234.75C470.459 234.735 470.334 234.735 470.211 234.75H468.931C468.842 234.749 468.754 234.766 468.671 234.8C468.603 234.838 468.529 234.865 468.451 234.88C468.24 234.879 468.03 234.862 467.821 234.83C467.621 234.83 467.451 234.75 467.271 234.71H467.161H467.041L466.221 234.83C466.226 234.873 466.226 234.917 466.221 234.96H465.601L465.001 235.07C464.899 235.086 464.794 235.086 464.691 235.07H464.391H464.131C464.075 235.057 464.017 235.057 463.961 235.07C463.961 235.07 463.911 235.14 463.841 235.16H463.761H463.281H463.001L462.671 235.21L462.411 235.26C462.308 235.27 462.205 235.27 462.101 235.26H461.401C461.358 235.194 461.311 235.131 461.261 235.07C461.186 235.012 461.096 234.977 461.001 234.97L460.711 234.89C460.662 234.883 460.611 234.883 460.561 234.89H460.451H459.961C459.819 234.869 459.674 234.869 459.531 234.89C459.482 234.906 459.438 234.933 459.401 234.97L459.301 235.06H458.571H458.411L457.851 235.14C457.651 235.14 457.441 235.14 457.241 235.14H457.151H457.061L456.521 234.97H456.421H455.491C455.351 235.02 455.221 235.09 455.211 235.18C455.089 235.164 454.964 235.164 454.841 235.18C454.721 235.18 454.621 235.25 454.501 235.27L454.291 235.32C454.221 235.32 454.191 235.41 454.061 235.41H453.991C453.955 235.404 453.918 235.404 453.881 235.41L453.661 235.49C453.418 235.529 453.179 235.596 452.951 235.69C452.914 235.713 452.874 235.729 452.831 235.74H452.631C452.602 235.735 452.571 235.735 452.541 235.74H452.491C452.332 235.809 452.164 235.856 451.991 235.88C451.871 235.88 451.741 235.88 451.631 235.88C451.56 235.893 451.489 235.913 451.421 235.94L451.041 236.04L450.781 236.09C450.765 236.091 450.749 236.097 450.735 236.107C450.721 236.117 450.711 236.131 450.705 236.146C450.698 236.162 450.697 236.179 450.7 236.195C450.703 236.212 450.71 236.227 450.721 236.24H450.321C450.222 236.252 450.126 236.286 450.041 236.34L449.691 236.66Z" fill="#040707"/>
<path d="M527.66 236.66H605.66V236.07H603.46C603.46 236.07 603.38 235.97 603.35 235.93L603.23 235.81L602.98 235.52H602.3C602.11 235.53 601.92 235.53 601.73 235.52C601.638 235.515 601.548 235.498 601.46 235.47C601.39 235.47 601.35 235.38 601.28 235.37H601C600.8 235.37 600.63 235.44 600.44 235.47C600.211 235.536 599.969 235.536 599.74 235.47C599.67 235.47 599.44 235.35 599.41 235.32C599.281 235.225 599.144 235.142 599 235.07C598.85 235.07 598.81 235.07 598.57 235.07H597.97C597.714 235.054 597.46 235.017 597.21 234.96C596.919 234.915 596.622 234.915 596.33 234.96H596.16C595.741 235.005 595.319 235.005 594.9 234.96C594.54 234.96 594.21 234.87 593.85 234.84C593.49 234.81 593.1 234.79 592.71 234.78C592.376 234.777 592.042 234.794 591.71 234.83C591.379 234.874 591.045 234.894 590.71 234.89H589.93C589.689 234.892 589.449 234.908 589.21 234.94H589.16C588.972 234.872 588.778 234.825 588.58 234.8C588.346 234.759 588.108 234.739 587.87 234.74L587.3 234.79C587.15 234.79 587.02 234.79 586.86 234.79H586.34C586 234.79 585.65 234.79 585.34 234.79L584.74 234.87C584.4 234.87 584.03 234.87 583.68 234.93H583.35C583.234 234.94 583.117 234.94 583 234.93H582.82C582.546 234.885 582.268 234.862 581.99 234.86C581.43 234.86 580.89 234.92 580.34 234.95C580.197 234.962 580.056 234.993 579.92 235.04L579.44 235.14L578.81 235.28C578.617 235.357 578.42 235.424 578.22 235.48C577.93 235.54 577.58 235.55 577.28 235.58L576.28 235.68C576.16 235.69 576.04 235.69 575.92 235.68C575.847 235.67 575.773 235.67 575.7 235.68H575.62H575.5C575.368 235.655 575.232 235.655 575.1 235.68C575.1 235.68 575.03 235.68 574.99 235.68C574.947 235.689 574.903 235.689 574.86 235.68C574.776 235.653 574.685 235.653 574.6 235.68C574.484 235.695 574.366 235.695 574.25 235.68C574.21 235.686 574.17 235.686 574.13 235.68C574.064 235.665 573.996 235.665 573.93 235.68C573.854 235.685 573.777 235.685 573.7 235.68H573.48H573.26C573.16 235.67 573.06 235.67 572.96 235.68C572.901 235.695 572.839 235.695 572.78 235.68C572.701 235.665 572.619 235.665 572.54 235.68C572.29 235.68 572.06 235.74 571.81 235.77C571.478 235.806 571.143 235.806 570.81 235.77H570.69C570.595 235.776 570.501 235.793 570.41 235.82V235.88C570.284 235.87 570.157 235.87 570.03 235.88L569.83 235.93H569.61H569.36L568.8 235.99C568.747 236.001 568.693 236.001 568.64 235.99C568.567 235.979 568.493 235.979 568.42 235.99H568.1L567.77 235.93C567.654 235.909 567.536 235.909 567.42 235.93H567H566.87C566.686 235.871 566.493 235.844 566.3 235.85H566.12L565.71 235.71H565.63H565.56C565.42 235.72 565.28 235.72 565.14 235.71C565.011 235.689 564.879 235.689 564.75 235.71L564.61 235.63H564.23H564.17C564.047 235.665 563.919 235.681 563.79 235.68H563.3H563.24C563.172 235.714 563.097 235.735 563.02 235.74C562.938 235.752 562.859 235.783 562.79 235.83H562.73H562.52C562.52 235.83 562.52 235.88 562.52 235.89H562.34C562.274 235.9 562.206 235.9 562.14 235.89H562.06L561.94 235.83H561.86H561.3C561.212 235.812 561.131 235.767 561.07 235.7H561L560.35 235.64L560.2 235.7C560.114 235.71 560.027 235.71 559.94 235.7L559.36 235.76C559.337 235.8 559.302 235.831 559.26 235.85H559.18C559.087 235.865 558.996 235.891 558.91 235.93C558.846 235.952 558.786 235.982 558.73 236.02C558.6 236.02 558.49 235.96 558.37 235.93C558.237 235.892 558.099 235.876 557.96 235.88C557.817 235.89 557.673 235.89 557.53 235.88C557.442 235.851 557.352 235.827 557.26 235.81H556.51C556.359 235.843 556.202 235.843 556.05 235.81C556.05 235.81 555.99 235.74 555.95 235.71C555.844 235.657 555.728 235.626 555.61 235.62H555.21H555.02L554.84 235.53L554.6 235.38H554.54H554.05C553.948 235.372 553.848 235.351 553.75 235.32C553.567 235.257 553.38 235.207 553.19 235.17C553.027 235.16 552.863 235.16 552.7 235.17H552.61H552.53L552 234.98H551.94H551C550.666 234.982 550.332 234.962 550 234.92C549.707 234.9 549.413 234.9 549.12 234.92H549H548.9L548.6 234.81C548.532 234.783 548.462 234.763 548.39 234.75C548.267 234.734 548.143 234.734 548.02 234.75H546.75C546.658 234.748 546.566 234.765 546.48 234.8C546.412 234.838 546.337 234.865 546.26 234.88C546.049 234.879 545.839 234.862 545.63 234.83C545.44 234.83 545.27 234.75 545.08 234.71H544.97H544.86L544.04 234.83C544.05 234.873 544.05 234.917 544.04 234.96H543.43L542.98 235.08C542.881 235.095 542.78 235.095 542.68 235.08H542.38H542.12C542.061 235.068 542 235.068 541.94 235.08C541.94 235.08 541.94 235.15 541.82 235.17H541.74H541.27H541L540.68 235.22L540.41 235.27C540.31 235.28 540.21 235.28 540.11 235.27H539.4C539.4 235.27 539.32 235.14 539.27 235.08C539.191 235.022 539.098 234.988 539 234.98L538.71 234.9C538.664 234.894 538.617 234.894 538.57 234.9H538.46H537.96C537.818 234.879 537.673 234.879 537.53 234.9C537.482 234.918 537.438 234.945 537.4 234.98L537.3 235.07H536.57H536.41L535.85 235.15C535.65 235.15 535.44 235.15 535.24 235.15H535.15H535.07L534.52 234.98H534.42H533.5C533.36 235.03 533.23 235.1 533.23 235.19C533.104 235.174 532.976 235.174 532.85 235.19C532.738 235.226 532.625 235.256 532.51 235.28L532.31 235.33C532.24 235.33 532.2 235.42 532.08 235.42H532.01C531.97 235.413 531.93 235.413 531.89 235.42L531.67 235.5C531.427 235.539 531.188 235.606 530.96 235.7C530.924 235.724 530.883 235.741 530.84 235.75H530.64C530.61 235.745 530.58 235.745 530.55 235.75C530.394 235.819 530.229 235.866 530.06 235.89C529.94 235.89 529.81 235.89 529.69 235.89C529.619 235.904 529.548 235.924 529.48 235.95C529.359 235.99 529.235 236.024 529.11 236.05L528.84 236.1C528.823 236.101 528.807 236.107 528.794 236.117C528.78 236.127 528.77 236.141 528.763 236.156C528.757 236.172 528.755 236.189 528.758 236.206C528.761 236.222 528.769 236.237 528.78 236.25H528.39C528.287 236.261 528.188 236.296 528.1 236.35L527.66 236.66Z" fill="#040707"/>
<path d="M1274.28 236.01V239.13H1132.63C1132.56 239.14 1132.48 239.14 1132.41 239.13C1132.47 239.019 1132.54 238.912 1132.62 238.81C1132.69 238.692 1132.77 238.579 1132.85 238.47C1133.02 238.25 1133.11 238.02 1133.37 237.94C1133.53 237.915 1133.7 237.915 1133.86 237.94H1134.1C1134.05 237.81 1134.04 237.67 1134.05 237.533C1134.07 237.396 1134.12 237.264 1134.2 237.15C1134.35 237.044 1134.51 236.95 1134.67 236.87C1134.91 236.71 1135.14 236.525 1135.35 236.32C1135.46 236.197 1135.59 236.096 1135.73 236.02C1135.94 235.94 1136.18 236.02 1136.4 236.02C1136.62 236.02 1137.03 235.48 1137.29 235.23C1137.32 235.2 1137.35 235.176 1137.39 235.16C1137.41 235.15 1137.44 235.145 1137.47 235.145C1137.49 235.145 1137.52 235.15 1137.54 235.16C1137.66 235.21 1137.8 235.21 1137.92 235.16C1138.01 235.092 1138.08 235.003 1138.13 234.9C1138.48 234.452 1138.93 234.081 1139.43 233.81C1139.58 233.686 1139.71 233.549 1139.83 233.4C1139.88 233.33 1139.95 233.24 1140.04 233.23H1140.16C1140.39 233.23 1140.46 232.93 1140.58 232.77C1140.69 232.655 1140.82 232.563 1140.96 232.5C1141.17 232.37 1141.36 232.18 1141.58 232.02C1141.77 231.855 1142.01 231.765 1142.26 231.77C1142.26 231.61 1142.28 231.45 1142.34 231.3H1145.39L1145.7 231.59C1145.74 231.635 1145.79 231.672 1145.85 231.7C1145.9 231.71 1145.96 231.71 1146.01 231.7C1146.38 231.725 1146.75 231.705 1147.12 231.64C1147.41 231.547 1147.7 231.426 1147.97 231.28H1153.5C1153.56 231.5 1153.59 231.72 1153.65 231.94C1153.65 231.94 1153.65 232.03 1153.65 232.05H1153.71C1154.14 232.05 1154.57 232.13 1154.99 232.15C1155.17 232.195 1155.37 232.195 1155.55 232.15C1155.72 232.07 1155.88 231.973 1156.03 231.86C1156.22 231.745 1156.42 231.657 1156.63 231.6C1156.75 231.563 1156.87 231.54 1156.99 231.53L1157.86 231.4C1157.91 231.415 1157.96 231.415 1158.01 231.4C1158.04 231.382 1158.07 231.354 1158.09 231.32H1170.84V229.04L1171.03 229.25C1171.08 229.314 1171.14 229.368 1171.21 229.41C1171.32 229.445 1171.43 229.445 1171.54 229.41C1172.08 229.375 1172.63 229.436 1173.15 229.59C1173.7 229.82 1174.29 229.936 1174.89 229.93L1175.89 229.85C1175.93 229.836 1175.98 229.836 1176.02 229.85C1176.06 229.873 1176.11 229.904 1176.14 229.94C1176.45 230.29 1176.77 230.63 1177.14 230.94C1177.18 230.993 1177.23 231.035 1177.29 231.06C1177.34 231.07 1177.4 231.07 1177.45 231.06H1177.58C1177.83 231.06 1178.08 231.1 1178.32 231.18C1178.69 231.405 1179.03 231.681 1179.32 232C1179.48 232.144 1179.66 232.253 1179.86 232.32C1180.1 232.345 1180.35 232.345 1180.59 232.32C1180.64 232.305 1180.7 232.305 1180.75 232.32C1180.8 232.36 1180.83 232.407 1180.86 232.46L1181.29 233.26C1181.37 233.432 1181.48 233.588 1181.62 233.72C1181.72 233.811 1181.85 233.873 1181.98 233.9C1182.22 233.97 1182.46 233.97 1182.7 234.03C1182.83 234.058 1182.95 234.115 1183.06 234.196C1183.16 234.278 1183.25 234.381 1183.31 234.5C1183.39 234.67 1183.41 234.86 1183.49 235.03C1183.65 235.38 1184.07 235.26 1184.34 235.26H1185.42C1185.51 235.245 1185.61 235.245 1185.7 235.26H1185.76C1185.91 235.365 1186.06 235.478 1186.2 235.6C1186.44 235.721 1186.72 235.76 1186.99 235.71C1187.25 235.703 1187.51 235.796 1187.71 235.97C1187.92 236.157 1188.14 236.328 1188.38 236.48C1188.47 236.293 1188.57 236.116 1188.69 235.95C1188.83 235.78 1189 235.635 1189.19 235.52C1189.24 235.475 1189.3 235.425 1189.34 235.37C1189.43 235.217 1189.49 235.047 1189.52 234.87L1190.52 234.59C1190.68 234.568 1190.84 234.524 1190.99 234.46C1190.99 234.46 1191.27 234.1 1191.28 234.1L1192.45 234.44C1192.5 234.453 1192.54 234.477 1192.58 234.51L1192.64 234.62C1192.72 234.84 1192.85 235.24 1193.04 235.3C1193.33 235.34 1193.61 235.34 1193.9 235.3C1193.95 235.285 1194.01 235.285 1194.06 235.3C1194.13 235.335 1194.18 235.391 1194.21 235.46L1194.43 235.79C1194.47 235.851 1194.52 235.908 1194.57 235.96C1194.68 236.02 1194.81 236.038 1194.94 236.01C1195.03 236.01 1195.19 236.01 1195.27 236.01C1195.35 236.01 1195.27 235.77 1195.34 235.69C1195.41 235.61 1195.34 235.63 1195.34 235.6C1195.36 235.574 1195.39 235.55 1195.42 235.53L1195.81 235.33C1195.85 235.312 1195.88 235.285 1195.91 235.25C1195.91 235.25 1195.91 235.15 1195.99 235.1C1196.07 234.889 1196.21 234.709 1196.4 234.59C1196.56 234.49 1196.72 234.51 1196.81 234.28C1196.83 234.205 1196.87 234.134 1196.91 234.07C1196.95 234.034 1197.01 234.017 1197.06 234.02H1197.8C1197.93 234.034 1198.06 234.017 1198.19 233.972C1198.31 233.927 1198.42 233.855 1198.51 233.76C1198.53 233.715 1198.56 233.677 1198.6 233.65C1198.64 233.641 1198.67 233.641 1198.71 233.65H1199.13C1199.19 233.635 1199.24 233.635 1199.3 233.65C1199.33 233.682 1199.36 233.719 1199.38 233.76L1199.63 234.17C1199.83 234.008 1200.08 233.929 1200.34 233.95C1200.6 233.958 1200.86 233.921 1201.1 233.84C1201.14 233.826 1201.19 233.826 1201.23 233.84C1201.29 233.84 1201.32 233.89 1201.37 233.93L1202.12 234.67C1202.16 234.718 1202.2 234.756 1202.26 234.78C1202.32 234.795 1202.38 234.795 1202.44 234.78C1202.62 234.765 1202.81 234.792 1202.98 234.858C1203.16 234.923 1203.31 235.027 1203.44 235.16C1203.51 235.23 1203.58 235.32 1203.67 235.3C1203.73 235.291 1203.78 235.267 1203.82 235.23C1203.92 235.181 1204.03 235.16 1204.15 235.169C1204.26 235.178 1204.37 235.216 1204.46 235.28C1204.67 235.39 1204.86 235.55 1205.06 235.63C1205.26 235.71 1205.45 235.71 1205.64 235.76C1205.79 235.799 1205.93 235.882 1206.04 236C1206.12 236.09 1206.2 236.28 1206.32 236.29C1206.35 236.3 1206.39 236.3 1206.42 236.29L1207.42 235.95C1207.57 235.893 1207.72 235.849 1207.88 235.82C1208.01 235.846 1208.14 235.846 1208.27 235.82C1208.4 235.75 1208.52 235.66 1208.64 235.58C1208.85 235.455 1209.08 235.383 1209.32 235.37C1209.32 235.27 1209.32 235.17 1209.32 235.06C1209.46 234.928 1209.64 234.847 1209.83 234.83C1209.9 234.837 1209.97 234.854 1210.04 234.88C1210.66 235.09 1211.34 235.09 1211.96 234.88C1212.39 234.674 1212.84 234.51 1213.3 234.39C1213.44 234.346 1213.59 234.346 1213.73 234.39C1213.83 234.44 1213.93 234.56 1214.05 234.49L1214.13 234.43C1214.3 234.32 1214.51 234.43 1214.69 234.43C1214.87 234.43 1214.95 234.31 1215.09 234.31C1215.23 234.31 1215.36 234.42 1215.49 234.41C1215.62 234.4 1215.76 234.27 1215.9 234.24C1215.97 234.222 1216.04 234.224 1216.1 234.246C1216.17 234.267 1216.23 234.307 1216.27 234.36C1216.34 234.44 1216.4 234.57 1216.49 234.61C1216.58 234.65 1216.94 234.41 1217.12 234.33C1217.16 234.306 1217.21 234.29 1217.25 234.284C1217.3 234.278 1217.35 234.282 1217.39 234.295C1217.44 234.308 1217.48 234.33 1217.51 234.36C1217.55 234.391 1217.58 234.428 1217.6 234.47C1217.6 234.525 1217.63 234.577 1217.66 234.62C1217.73 234.68 1217.82 234.62 1217.9 234.57C1217.98 234.52 1218.11 234.57 1218.1 234.64C1218.21 234.566 1218.33 234.52 1218.45 234.506C1218.58 234.492 1218.71 234.511 1218.83 234.56C1218.9 234.56 1218.98 234.66 1219.05 234.65C1219.12 234.64 1219.15 234.57 1219.19 234.55C1219.32 234.5 1219.47 234.5 1219.6 234.55C1219.81 234.61 1220.04 234.61 1220.25 234.55L1222.09 234.03C1222.68 233.914 1223.25 233.733 1223.8 233.49C1224.22 233.25 1224.49 232.69 1224.88 232.38C1225.25 232.109 1225.63 231.862 1226.03 231.64C1226.32 231.46 1226.6 231.26 1226.89 231.06C1227.11 230.858 1227.37 230.705 1227.66 230.61C1228.64 230.32 1229.64 230.145 1230.66 230.09C1231.18 230.118 1231.7 230.25 1232.17 230.48C1232.27 230.546 1232.38 230.594 1232.5 230.62C1232.72 230.614 1232.93 230.574 1233.13 230.5L1233.72 230.44C1234.38 230.383 1235.03 230.266 1235.66 230.09C1236.03 229.96 1236.38 229.78 1236.74 229.68C1237.36 229.537 1238 229.483 1238.63 229.52C1238.96 229.525 1239.3 229.508 1239.63 229.47C1239.9 229.412 1240.16 229.335 1240.41 229.24C1240.75 229.15 1241.11 229.06 1241.41 228.99C1241.86 228.956 1242.31 229.061 1242.7 229.29C1243.09 229.464 1243.44 229.732 1243.7 230.07C1243.73 230.108 1243.76 230.139 1243.8 230.16C1243.83 230.17 1243.87 230.17 1243.9 230.16C1244.15 230.081 1244.4 230.018 1244.66 229.97C1244.84 229.931 1245.03 229.908 1245.22 229.9C1245.68 229.9 1246.16 229.9 1246.63 229.9C1247.27 229.941 1247.91 229.839 1248.51 229.6C1249.1 229.379 1249.73 229.284 1250.36 229.32C1251.06 229.352 1251.75 229.459 1252.43 229.64C1253.07 229.82 1253.68 230.19 1254.33 230.31C1255.1 230.49 1255.9 230.43 1256.63 230.14L1256.94 229.97C1257.18 229.842 1257.45 229.767 1257.73 229.748C1258 229.729 1258.28 229.767 1258.54 229.86C1258.99 230.02 1259.45 230.5 1259.91 230.47C1260.01 230.47 1260.58 230.47 1261.01 230.52C1261.44 230.57 1261.52 230.4 1261.8 230.52C1262.13 230.679 1262.43 230.903 1262.68 231.18C1262.74 231.3 1263.16 231.76 1263.28 231.96C1263.44 232.145 1263.66 232.263 1263.9 232.287C1264.14 232.311 1264.38 232.241 1264.57 232.09C1264.83 231.95 1265.07 231.76 1265.33 231.64C1265.41 231.596 1265.49 231.563 1265.58 231.54C1265.65 231.515 1265.73 231.515 1265.8 231.54C1265.91 231.6 1265.98 231.87 1266.08 232.02C1266.07 232.036 1266.07 232.054 1266.08 232.07C1266.22 232.198 1266.38 232.294 1266.56 232.35L1266.81 232.41C1267.07 232.465 1267.34 232.485 1267.61 232.47H1268.61C1268.65 232.46 1268.68 232.459 1268.72 232.467C1268.76 232.476 1268.79 232.494 1268.82 232.52C1268.86 232.57 1268.89 232.628 1268.9 232.69L1269.2 233.69C1269.26 233.87 1269.31 234.06 1269.37 234.24L1269.57 234.92C1269.67 235.15 1269.75 235.392 1269.79 235.64C1269.79 235.689 1269.81 235.736 1269.85 235.77C1269.87 235.779 1269.9 235.784 1269.92 235.784C1269.94 235.784 1269.97 235.779 1269.99 235.77H1273.86L1274.28 236.01Z" fill="#040707"/>
<path d="M1252.73 235.07V236.69H1293.73L1293.03 235.69H1291.91L1291.39 235.11H1291.33C1291.24 235.082 1291.15 235.059 1291.06 235.04C1290.99 235.06 1290.91 235.06 1290.84 235.04C1290.76 235.007 1290.69 234.963 1290.62 234.91C1290.49 234.853 1290.36 234.819 1290.22 234.81C1290.23 234.757 1290.23 234.704 1290.22 234.65C1290.14 234.575 1290.04 234.53 1289.93 234.52C1289.89 234.515 1289.84 234.515 1289.8 234.52C1289.44 234.625 1289.05 234.625 1288.69 234.52C1288.44 234.414 1288.18 234.327 1287.91 234.26C1287.83 234.236 1287.75 234.236 1287.67 234.26C1287.61 234.26 1287.55 234.34 1287.48 234.31C1287.38 234.25 1287.26 234.31 1287.15 234.31C1287.04 234.31 1287 234.25 1286.92 234.25C1286.85 234.275 1286.77 234.295 1286.7 234.31C1286.61 234.31 1286.54 234.23 1286.46 234.21C1286.42 234.202 1286.38 234.204 1286.34 234.216C1286.3 234.228 1286.27 234.25 1286.24 234.28C1286.24 234.28 1286.17 234.39 1286.11 234.41C1286.05 234.43 1285.85 234.31 1285.74 234.26C1285.69 234.237 1285.64 234.231 1285.59 234.244C1285.54 234.257 1285.5 234.288 1285.47 234.33C1285.47 234.33 1285.47 234.4 1285.47 234.41C1285.47 234.42 1285.38 234.41 1285.33 234.41C1285.28 234.41 1285.21 234.41 1285.22 234.41C1285.16 234.375 1285.08 234.356 1285.01 234.356C1284.94 234.356 1284.86 234.375 1284.8 234.41C1284.8 234.41 1284.71 234.46 1284.67 234.41C1284.63 234.36 1284.61 234.41 1284.58 234.36C1284.51 234.336 1284.43 234.336 1284.35 234.36C1284.23 234.391 1284.1 234.391 1283.97 234.36L1282.91 234.09C1282.57 234.029 1282.23 233.935 1281.91 233.81C1281.67 233.68 1281.52 233.39 1281.29 233.23C1281.08 233.09 1280.85 232.963 1280.62 232.85L1280.12 232.54C1279.99 232.437 1279.83 232.359 1279.67 232.31C1279.1 232.161 1278.52 232.071 1277.93 232.04C1277.63 232.051 1277.33 232.122 1277.05 232.25C1276.99 232.276 1276.93 232.296 1276.86 232.31C1276.73 232.309 1276.61 232.289 1276.49 232.25C1276.38 232.25 1276.26 232.25 1276.15 232.25C1275.76 232.222 1275.38 232.161 1275 232.07C1274.8 232 1274.59 231.91 1274.38 231.85C1274.02 231.779 1273.65 231.752 1273.28 231.77C1273.1 231.78 1272.91 231.78 1272.73 231.77C1272.58 231.77 1272.44 231.68 1272.28 231.65L1271.67 231.52C1271.41 231.501 1271.15 231.553 1270.92 231.67C1270.69 231.763 1270.49 231.903 1270.32 232.08C1270.32 232.08 1270.32 232.08 1270.26 232.08C1270.01 232.008 1269.75 231.964 1269.49 231.95C1269.22 231.95 1268.94 231.95 1268.67 231.95C1268.3 231.976 1267.92 231.925 1267.57 231.8C1267.23 231.679 1266.86 231.631 1266.5 231.66C1266.1 231.669 1265.7 231.722 1265.31 231.82C1264.93 231.92 1264.58 232.11 1264.2 232.17C1263.76 232.266 1263.3 232.235 1262.87 232.08L1262.69 232C1262.4 231.863 1262.07 231.838 1261.76 231.93C1261.5 232.02 1261.24 232.27 1260.96 232.26C1260.75 232.248 1260.53 232.248 1260.32 232.26C1260.07 232.26 1260.03 232.19 1259.87 232.26C1259.68 232.34 1259.51 232.455 1259.36 232.6C1259.36 232.66 1259.08 232.91 1259.01 233.01C1258.91 233.106 1258.78 233.165 1258.65 233.178C1258.51 233.191 1258.37 233.156 1258.26 233.08C1258.08 232.96 1257.88 232.863 1257.67 232.79C1257.63 232.776 1257.59 232.776 1257.55 232.79C1257.47 232.79 1257.43 233.01 1257.36 233.07C1257.28 233.141 1257.18 233.189 1257.07 233.21C1256.88 233.264 1256.67 233.288 1256.47 233.28H1255.87C1255.83 233.271 1255.79 233.271 1255.75 233.28C1255.75 233.31 1255.75 233.341 1255.75 233.37C1255.65 233.64 1255.56 233.91 1255.47 234.18C1255.47 234.29 1255.39 234.41 1255.36 234.53C1255.3 234.647 1255.26 234.771 1255.23 234.9C1255.23 234.924 1255.23 234.947 1255.23 234.97C1255.2 234.98 1255.17 234.98 1255.14 234.97L1252.73 235.07Z" fill="#040707"/>
<path d="M1045.58 234.9V237.56H1079.38L1078.81 235.95H1077.88L1077.46 234.95H1077.4C1077.33 234.899 1077.26 234.858 1077.18 234.83C1077.12 234.83 1077.06 234.83 1077 234.83C1076.93 234.768 1076.87 234.701 1076.82 234.63C1076.73 234.533 1076.62 234.469 1076.49 234.45C1076.49 234.363 1076.49 234.277 1076.49 234.19C1076.42 234.08 1076.34 233.98 1076.25 233.98C1076.16 233.98 1076.18 233.98 1076.14 234.03C1076 234.117 1075.84 234.164 1075.68 234.164C1075.52 234.164 1075.36 234.117 1075.23 234.03C1075.03 233.864 1074.82 233.723 1074.59 233.61C1074.55 233.601 1074.51 233.601 1074.48 233.61C1074.44 233.619 1074.41 233.636 1074.38 233.66C1074.33 233.66 1074.29 233.79 1074.23 233.74V233.68C1074.15 233.59 1074.05 233.68 1073.96 233.68C1073.87 233.68 1073.84 233.58 1073.77 233.58C1073.7 233.58 1073.65 233.67 1073.58 233.67C1073.51 233.67 1073.45 233.55 1073.39 233.52C1073.33 233.49 1073.25 233.52 1073.21 233.62C1073.17 233.72 1073.15 233.8 1073.1 233.83C1073.05 233.86 1072.88 233.67 1072.8 233.59C1072.72 233.51 1072.61 233.54 1072.58 233.71C1072.55 233.88 1072.58 233.82 1072.58 233.84C1072.58 233.86 1072.5 233.84 1072.47 233.84C1072.44 233.84 1072.37 233.84 1072.37 233.91C1072.27 233.77 1072.14 233.74 1072.02 233.84C1071.9 233.94 1071.95 233.92 1071.92 233.91C1071.89 233.9 1071.92 233.85 1071.85 233.83C1071.78 233.81 1071.72 233.83 1071.65 233.83C1071.6 233.855 1071.55 233.867 1071.49 233.867C1071.44 233.867 1071.39 233.855 1071.34 233.83L1070.46 233.38C1070.17 233.272 1069.89 233.116 1069.65 232.92C1069.46 232.613 1069.28 232.296 1069.13 231.97C1068.96 231.747 1068.78 231.536 1068.58 231.34C1068.44 231.18 1068.31 231.01 1068.17 230.84C1068.03 230.67 1067.94 230.51 1067.8 230.46C1067.35 230.223 1066.86 230.071 1066.36 230.01C1066.09 230.045 1065.84 230.164 1065.64 230.35C1065.6 230.402 1065.54 230.44 1065.48 230.46C1065.38 230.46 1065.28 230.4 1065.18 230.36C1065.08 230.366 1064.99 230.366 1064.9 230.36C1064.57 230.312 1064.26 230.21 1063.97 230.06C1063.8 229.95 1063.63 229.81 1063.45 229.71C1063.16 229.59 1062.86 229.542 1062.55 229.57C1062.4 229.585 1062.25 229.585 1062.1 229.57C1061.97 229.513 1061.85 229.446 1061.73 229.37L1061.22 229.16C1061.01 229.08 1060.8 229.25 1060.6 229.41C1060.39 229.593 1060.22 229.822 1060.11 230.08C1060.11 230.08 1060.11 230.14 1060.11 230.15C1059.91 230.04 1059.7 229.969 1059.48 229.94C1059.25 229.94 1059.02 229.94 1058.79 229.94C1058.47 229.976 1058.15 229.891 1057.9 229.7C1057.77 229.603 1057.63 229.532 1057.48 229.49C1057.32 229.449 1057.17 229.439 1057.01 229.46C1056.66 229.476 1056.32 229.565 1056.01 229.72C1055.72 229.935 1055.41 230.128 1055.09 230.3C1054.91 230.377 1054.71 230.404 1054.52 230.377C1054.32 230.351 1054.14 230.272 1053.99 230.15L1053.85 230.01C1053.75 229.903 1053.62 229.834 1053.48 229.816C1053.34 229.797 1053.2 229.831 1053.08 229.91C1052.87 230.05 1052.65 230.46 1052.43 230.44C1052.25 230.424 1052.07 230.424 1051.9 230.44C1051.69 230.44 1051.66 230.34 1051.52 230.44C1051.35 230.607 1051.21 230.799 1051.1 231.01C1051.1 231.11 1050.87 231.51 1050.81 231.67C1050.67 232.09 1050.39 231.98 1050.2 231.79C1050.01 231.6 1049.89 231.4 1049.71 231.32C1049.71 231.32 1049.65 231.32 1049.61 231.32C1049.57 231.32 1049.52 231.67 1049.46 231.78C1049.4 231.879 1049.32 231.962 1049.22 232.02C1049.06 232.101 1048.89 232.136 1048.72 232.12H1048.23C1048.21 232.111 1048.2 232.107 1048.18 232.107C1048.16 232.107 1048.14 232.111 1048.13 232.12C1048.12 232.17 1048.12 232.22 1048.13 232.27C1048.06 232.71 1047.98 233.16 1047.91 233.6C1047.91 233.79 1047.84 233.99 1047.81 234.18C1047.76 234.381 1047.73 234.585 1047.71 234.79C1047.71 234.827 1047.71 234.863 1047.71 234.9C1047.7 234.906 1047.69 234.909 1047.67 234.909C1047.66 234.909 1047.65 234.906 1047.64 234.9H1045.58Z" fill="#040707"/>
<path d="M366.559 159L363.879 157.18L364.199 160.4L361.789 162.38L364.869 163.2L366.069 166.24L367.659 163.53L370.799 163.43L368.699 160.93L369.449 157.83L366.559 159Z" fill="#FFAE00"/>
<path d="M289.62 216.13L289.18 215.19L288.75 216.13L287.77 216.27L288.48 217L288.31 218.03L289.18 217.54L290.06 218.03L289.89 217L290.6 216.27L289.62 216.13Z" fill="#FFAE00"/>
<path d="M1088.18 196.21L1086.25 199.11C1088.24 200.442 1090.36 201.571 1092.58 202.48L1093.91 199.26C1091.91 198.429 1089.99 197.408 1088.18 196.21Z" fill="black"/>
<path d="M1088.07 141.07L1086.07 138.18C1084.08 139.519 1082.23 141.049 1080.54 142.75L1083.01 145.21C1084.56 143.669 1086.25 142.282 1088.07 141.07Z" fill="black"/>
<path d="M1076 181.36C1075.17 179.358 1074.53 177.278 1074.11 175.15L1070.69 175.83C1071.16 178.184 1071.86 180.485 1072.78 182.7L1076 181.36Z" fill="black"/>
<path d="M1070.61 161.56C1070.16 163.886 1069.93 166.25 1069.93 168.62V168.69L1073.42 168.62C1073.42 166.472 1073.62 164.329 1074.03 162.22L1070.61 161.56Z" fill="black"/>
<path d="M1119.26 199.23C1117.26 200.064 1115.18 200.697 1113.05 201.12L1113.73 204.54C1116.08 204.069 1118.38 203.369 1120.6 202.45L1119.26 199.23Z" fill="black"/>
<path d="M1076.05 148.35C1074.72 150.346 1073.59 152.466 1072.67 154.68L1075.9 156.01C1076.72 154.009 1077.72 152.09 1078.9 150.28L1076.05 148.35Z" fill="black"/>
<path d="M1106.59 205.24V201.76C1104.43 201.76 1102.28 201.549 1100.16 201.13L1099.49 204.56C1101.83 205.011 1104.21 205.239 1106.59 205.24Z" fill="black"/>
<path d="M1126.79 138.07C1124.79 136.747 1122.67 135.622 1120.45 134.71L1119.13 137.93C1121.13 138.756 1123.05 139.778 1124.86 140.98L1126.79 138.07Z" fill="black"/>
<path d="M1132.46 194.5L1130 192.07C1128.47 193.602 1126.8 194.981 1125 196.19L1126.94 199.09C1128.93 197.747 1130.78 196.21 1132.46 194.5Z" fill="black"/>
<path d="M1113.58 132.67C1111.27 132.224 1108.93 132 1106.58 132H1106.47L1106.58 135.48C1108.71 135.482 1110.84 135.687 1112.94 136.09L1113.58 132.67Z" fill="black"/>
<path d="M1100 136.13L1099.31 132.71C1096.96 133.186 1094.66 133.893 1092.45 134.82L1093.79 138.03C1095.79 137.197 1097.87 136.561 1100 136.13Z" fill="black"/>
<path d="M1143.18 168.62V168.47L1139.69 168.62C1139.69 170.788 1139.48 172.952 1139.06 175.08L1142.48 175.76C1142.94 173.408 1143.18 171.017 1143.18 168.62Z" fill="black"/>
<path d="M1136.93 148.15C1135.59 146.164 1134.05 144.315 1132.35 142.63L1129.9 145.07C1131.44 146.599 1132.82 148.274 1134.04 150.07L1136.93 148.15Z" fill="black"/>
<path d="M1083.16 192.07C1081.62 190.543 1080.24 188.869 1079.03 187.07L1076.13 189.01C1077.47 191.002 1079 192.857 1080.7 194.55L1083.16 192.07Z" fill="black"/>
<path d="M1142.45 161.33C1141.98 158.978 1141.27 156.68 1140.34 154.47L1137.13 155.82C1137.96 157.82 1138.6 159.896 1139.03 162.02L1142.45 161.33Z" fill="black"/>
<path d="M1140.4 182.63L1137.18 181.29C1136.35 183.296 1135.33 185.215 1134.12 187.02L1137.02 188.96C1138.35 186.963 1139.48 184.844 1140.4 182.63Z" fill="black"/>
<path d="M1105.68 195.07V158.93C1104.83 159.801 1103.75 160.399 1102.56 160.648C1101.37 160.898 1100.14 160.786 1099.01 160.328C1097.89 159.871 1096.93 159.087 1096.25 158.079C1095.58 157.071 1095.22 155.884 1095.22 154.67H1097C1097 155.826 1097.46 156.935 1098.28 157.753C1099.09 158.57 1100.2 159.03 1101.36 159.03C1102.52 159.03 1103.63 158.57 1104.44 157.753C1105.26 156.935 1105.72 155.826 1105.72 154.67V142.14C1104.21 141.219 1102.49 140.728 1100.72 140.72C1099.37 140.743 1098.04 141.032 1096.8 141.571C1095.56 142.109 1094.44 142.886 1093.5 143.858C1092.57 144.829 1091.83 145.975 1091.33 147.232C1090.84 148.488 1090.6 149.83 1090.62 151.18V151.34C1088.23 151.789 1086.07 153.069 1084.53 154.954C1082.99 156.838 1082.17 159.206 1082.2 161.64C1082.19 164.208 1083.1 166.695 1084.78 168.64C1083.1 170.584 1082.19 173.071 1082.2 175.64C1082.2 180.64 1085.49 185.78 1090.47 186.07C1091.45 185.745 1092.28 185.082 1092.82 184.199C1093.36 183.316 1093.56 182.271 1093.4 181.251C1093.24 180.231 1092.71 179.302 1091.93 178.631C1091.14 177.96 1090.14 177.591 1089.11 177.59V175.84C1090.53 175.873 1091.9 176.404 1092.98 177.34C1094.05 178.277 1094.76 179.561 1094.98 180.967C1095.21 182.374 1094.93 183.815 1094.21 185.04C1093.48 186.264 1092.34 187.195 1091 187.67C1091.25 190.074 1092.38 192.302 1094.16 193.933C1095.94 195.564 1098.26 196.484 1100.68 196.52C1102.45 196.503 1104.18 196.001 1105.68 195.07Z" fill="black"/>
<path d="M1131 175.6C1131.01 173.03 1130.09 170.543 1128.41 168.6C1130.09 166.656 1131.01 164.169 1131 161.6C1131 156.68 1127.85 151.69 1123.06 151.19C1121.91 151.214 1120.81 151.695 1120.01 152.527C1119.21 153.36 1118.78 154.476 1118.8 155.63C1118.82 156.783 1119.31 157.88 1120.14 158.679C1120.97 159.478 1122.09 159.914 1123.24 159.89V161.64C1121.72 161.635 1120.26 161.062 1119.14 160.034C1118.02 159.006 1117.32 157.597 1117.18 156.082C1117.05 154.568 1117.48 153.057 1118.41 151.847C1119.33 150.637 1120.66 149.814 1122.16 149.54C1121.91 147.135 1120.79 144.906 1119 143.273C1117.22 141.64 1114.9 140.718 1112.48 140.68C1110.72 140.689 1108.99 141.18 1107.48 142.1V169.55C1108.33 168.68 1109.41 168.083 1110.6 167.835C1111.79 167.586 1113.03 167.698 1114.15 168.155C1115.27 168.613 1116.24 169.395 1116.91 170.402C1117.59 171.41 1117.95 172.596 1117.95 173.81H1116.2C1116.2 172.653 1115.74 171.544 1114.92 170.727C1114.11 169.909 1113 169.45 1111.84 169.45C1110.68 169.45 1109.58 169.909 1108.76 170.727C1107.94 171.544 1107.48 172.653 1107.48 173.81V195.07C1108.99 195.989 1110.72 196.48 1112.48 196.49C1113.83 196.466 1115.16 196.177 1116.4 195.639C1117.64 195.1 1118.76 194.323 1119.7 193.352C1120.64 192.381 1121.37 191.234 1121.87 189.978C1122.36 188.721 1122.6 187.38 1122.58 186.03C1122.58 185.98 1122.58 185.93 1122.58 185.87C1124.97 185.417 1127.12 184.141 1128.65 182.263C1130.19 180.386 1131.02 178.027 1131 175.6Z" fill="black"/>
<path d="M1153.64 175.6H1153.31C1151.86 175.724 1150.51 176.37 1149.5 177.416C1148.49 178.462 1147.9 179.839 1147.83 181.29L1143.52 203.46C1144.08 203.767 1144.57 204.182 1144.97 204.681C1145.37 205.18 1145.67 205.753 1145.85 206.367C1146.03 206.981 1146.08 207.624 1146.01 208.259C1145.94 208.895 1145.75 209.51 1145.44 210.07C1145.22 210.477 1144.94 210.848 1144.61 211.17L1133.45 220.59L1132.33 219.26L1143.44 209.89C1143.74 209.572 1143.97 209.195 1144.12 208.783C1144.26 208.372 1144.32 207.934 1144.29 207.498C1144.26 207.062 1144.14 206.637 1143.94 206.25C1143.73 205.863 1143.45 205.522 1143.11 205.25C1142.48 204.754 1141.7 204.476 1140.9 204.46C1140.1 204.444 1139.32 204.689 1138.67 205.16L1125.44 214.75C1124.99 215.065 1124.62 215.482 1124.37 215.968C1124.12 216.454 1123.99 216.993 1123.99 217.54V236.64H1141.43V231.73L1153.69 223.93C1155.36 222.673 1156.7 221.032 1157.61 219.144C1158.51 217.257 1158.94 215.18 1158.87 213.09V182.28C1158.84 178.59 1156.7 175.6 1153.64 175.6Z" fill="black"/>
<path d="M1059.42 223.93L1071.67 231.73V236.64H1089.11V217.54C1089.11 216.994 1088.98 216.456 1088.73 215.971C1088.48 215.485 1088.11 215.067 1087.67 214.75L1074.44 205.16C1073.79 204.689 1073 204.442 1072.2 204.459C1071.4 204.475 1070.62 204.753 1069.99 205.25C1069.65 205.522 1069.36 205.863 1069.16 206.25C1068.96 206.638 1068.84 207.063 1068.81 207.5C1068.78 207.936 1068.84 208.374 1068.99 208.786C1069.13 209.197 1069.37 209.573 1069.67 209.89L1080.78 219.26L1079.65 220.59L1068.49 211.17C1067.57 210.273 1067.05 209.049 1067.03 207.767C1067.02 206.484 1067.51 205.248 1068.41 204.33C1068.75 203.984 1069.15 203.691 1069.58 203.46L1065.27 181.29C1065.2 179.841 1064.61 178.465 1063.6 177.419C1062.59 176.373 1061.24 175.727 1059.8 175.6H1059.46C1056.46 175.6 1054.26 178.6 1054.26 182.28V213.09C1054.18 215.179 1054.61 217.254 1055.51 219.141C1056.41 221.028 1057.75 222.671 1059.42 223.93Z" fill="black"/>
<path d="M1038.29 222.99L1037.11 225.12L1036.65 225.92C1036.54 226.084 1036.46 226.272 1036.43 226.469C1036.39 226.666 1036.41 226.868 1036.46 227.06H1034.2C1034.2 227.2 1034.2 227.31 1034.2 227.41V229.41C1034.2 229.96 1033.98 230.18 1033.44 230.18H1031.53C1031.43 230.196 1031.33 230.188 1031.24 230.157C1031.14 230.126 1031.06 230.074 1030.99 230.003C1030.92 229.933 1030.86 229.847 1030.83 229.753C1030.8 229.659 1030.79 229.558 1030.81 229.46V227.07H1023.43C1023.31 227.09 1023.19 227.075 1023.08 227.027C1022.96 226.979 1022.87 226.9 1022.8 226.8C1022.75 226.7 1022.72 226.586 1022.73 226.473C1022.74 226.36 1022.78 226.251 1022.85 226.16L1025.61 221.23C1025.8 220.89 1025.77 220.85 1025.39 220.85C1025.01 220.85 1024.87 220.85 1024.61 220.85C1024.49 220.863 1024.38 220.84 1024.28 220.784C1024.17 220.729 1024.09 220.644 1024.04 220.54C1023.99 220.436 1023.98 220.321 1023.99 220.207C1024.01 220.094 1024.06 219.987 1024.13 219.9L1027.67 215.05L1027.79 214.88C1027.89 214.72 1027.85 214.63 1027.66 214.62H1027C1026.88 214.639 1026.76 214.62 1026.65 214.564C1026.54 214.508 1026.45 214.419 1026.4 214.31C1026.35 214.206 1026.33 214.089 1026.35 213.975C1026.37 213.861 1026.42 213.755 1026.5 213.67C1027.6 212.07 1028.69 210.46 1029.78 208.86C1029.82 208.815 1029.85 208.765 1029.88 208.71L1029.96 208.47C1029.88 208.441 1029.79 208.418 1029.71 208.4C1029.55 208.41 1029.4 208.41 1029.24 208.4C1029.09 208.4 1028.87 208.3 1028.82 208.19C1028.8 208.108 1028.8 208.021 1028.81 207.937C1028.82 207.853 1028.85 207.772 1028.9 207.7C1029.47 206.9 1030.06 206.11 1030.64 205.32L1031.97 203.51C1032.29 203.09 1032.64 203.09 1032.97 203.51C1033.97 204.88 1034.97 206.25 1035.97 207.63C1036.03 207.707 1036.07 207.794 1036.09 207.887C1036.11 207.98 1036.12 208.076 1036.1 208.17C1036.05 208.41 1035.79 208.39 1035.58 208.4C1035.37 208.41 1035.16 208.45 1034.95 208.48C1035.04 208.666 1035.14 208.846 1035.25 209.02L1038.41 213.66C1038.62 213.98 1038.64 214.25 1038.41 214.44C1038.29 214.537 1038.14 214.596 1037.98 214.61C1037.78 214.61 1037.56 214.61 1037.35 214.61C1037.27 214.628 1037.19 214.655 1037.11 214.69C1037.13 214.771 1037.16 214.849 1037.2 214.92C1037.95 215.92 1038.7 217.01 1039.47 218.04C1039.5 218.072 1039.53 218.11 1039.55 218.152C1039.57 218.194 1039.57 218.24 1039.57 218.285C1039.57 218.331 1039.57 218.376 1039.55 218.418C1039.53 218.461 1039.5 218.499 1039.47 218.53C1038.87 219.33 1038.28 220.15 1037.69 220.96C1037.53 221.111 1037.42 221.303 1037.36 221.514C1037.31 221.726 1037.31 221.949 1037.37 222.158C1037.43 222.368 1037.55 222.557 1037.71 222.704C1037.88 222.85 1038.08 222.95 1038.29 222.99Z" fill="#040707"/>
<path d="M1043.39 227.07H1037.63C1037.18 227.07 1037.01 226.76 1037.23 226.36C1037.92 225.12 1038.62 223.88 1039.31 222.63C1039.37 222.53 1039.42 222.43 1039.51 222.25H1038.68C1038.58 222.272 1038.47 222.26 1038.37 222.217C1038.28 222.174 1038.2 222.101 1038.15 222.01C1038.11 221.917 1038.1 221.814 1038.12 221.715C1038.14 221.616 1038.19 221.526 1038.27 221.46L1040.94 217.79L1041.16 217.43C1040.94 217.451 1040.72 217.451 1040.51 217.43C1040.33 217.409 1040.16 217.332 1040.03 217.21C1039.87 217.04 1040.03 216.84 1040.11 216.67C1040.95 215.45 1041.78 214.223 1042.61 212.99C1042.68 212.874 1042.75 212.754 1042.81 212.63H1042.19C1041.86 212.63 1041.73 212.36 1041.92 212.09C1042.73 210.98 1043.54 209.88 1044.37 208.78C1044.4 208.719 1044.45 208.668 1044.51 208.633C1044.57 208.598 1044.63 208.579 1044.7 208.579C1044.77 208.579 1044.84 208.598 1044.9 208.633C1044.96 208.668 1045.01 208.719 1045.04 208.78C1045.86 209.87 1046.67 210.97 1047.47 212.07C1047.68 212.35 1047.55 212.6 1047.19 212.62H1046.92H1046.6C1046.67 212.75 1046.71 212.85 1046.77 212.94C1047.58 214.13 1048.39 215.31 1049.19 216.5C1049.25 216.579 1049.31 216.663 1049.36 216.75C1049.4 216.814 1049.43 216.889 1049.43 216.967C1049.44 217.045 1049.42 217.123 1049.38 217.191C1049.35 217.26 1049.29 217.316 1049.22 217.355C1049.15 217.394 1049.08 217.413 1049 217.41H1048.25C1048.35 217.58 1048.4 217.68 1048.46 217.77L1051.08 221.37C1051.22 221.56 1051.38 221.73 1051.25 221.99C1051.12 222.25 1050.89 222.24 1050.66 222.23H1049.91C1049.96 222.354 1050.01 222.474 1050.08 222.59L1052.13 226.27C1052.41 226.77 1052.24 227.05 1051.67 227.05H1046C1046 227.19 1046 227.29 1046 227.4V229.55C1046 230 1045.81 230.18 1045.36 230.18H1044.07C1043.55 230.18 1043.39 230.02 1043.38 229.51V227.07H1043.39Z" fill="#040707"/>
<path d="M301.201 230.68C300.822 230.678 300.446 230.75 300.095 230.893C299.744 231.036 299.424 231.246 299.155 231.513C298.886 231.78 298.671 232.097 298.525 232.446C298.378 232.796 298.302 233.171 298.301 233.55C298.302 233.93 298.378 234.305 298.525 234.655C298.671 235.005 298.885 235.323 299.154 235.591C299.424 235.858 299.743 236.07 300.094 236.214C300.445 236.358 300.821 236.431 301.201 236.43H364.671C365.05 236.431 365.425 236.358 365.776 236.214C366.127 236.07 366.445 235.858 366.714 235.59C366.982 235.323 367.195 235.005 367.341 234.655C367.486 234.305 367.561 233.929 367.561 233.55C367.563 233.172 367.491 232.796 367.348 232.446C367.205 232.095 366.994 231.776 366.727 231.508C366.461 231.239 366.143 231.026 365.794 230.881C365.444 230.735 365.069 230.66 364.691 230.66H301.201V230.68Z" fill="#4A4C4C"/>
<path d="M311.002 210.49C309.173 210.511 307.425 211.247 306.132 212.54C304.839 213.833 304.103 215.581 304.082 217.41V233.57C304.083 233.95 304.159 234.325 304.306 234.675C304.452 235.026 304.666 235.343 304.936 235.611C305.205 235.878 305.524 236.09 305.875 236.234C306.226 236.378 306.603 236.452 306.982 236.45H318.522C319.285 236.448 320.016 236.143 320.556 235.604C321.095 235.064 321.399 234.333 321.402 233.57V217.41C321.381 215.581 320.646 213.833 319.352 212.54C318.059 211.247 316.311 210.511 314.482 210.49H311.002Z" fill="#4A4C4C"/>
<path d="M331.209 200.67C329.38 200.691 327.632 201.426 326.339 202.72C325.046 204.013 324.31 205.761 324.289 207.59V233.59C324.289 234.352 324.591 235.083 325.129 235.623C325.667 236.163 326.397 236.467 327.159 236.47H338.699C339.462 236.467 340.193 236.163 340.733 235.623C341.272 235.084 341.576 234.353 341.579 233.59V207.59C341.558 205.761 340.823 204.013 339.529 202.72C338.236 201.426 336.488 200.691 334.659 200.67H331.209Z" fill="#4A4C4C"/>
<path d="M351.4 192.07C349.572 192.091 347.824 192.827 346.53 194.12C345.237 195.413 344.501 197.161 344.48 198.99V233.57C344.483 234.331 344.786 235.061 345.323 235.6C345.861 236.139 346.589 236.445 347.35 236.45H358.9C359.279 236.451 359.655 236.378 360.006 236.234C360.356 236.089 360.675 235.878 360.943 235.61C361.212 235.342 361.425 235.025 361.57 234.674C361.716 234.324 361.79 233.949 361.79 233.57V198.94C361.77 197.108 361.031 195.357 359.734 194.063C358.436 192.769 356.683 192.036 354.85 192.02L351.4 192.07Z" fill="#4A4C4C"/>
<path d="M348.7 167.21C347.964 167.253 347.273 167.576 346.767 168.112C346.261 168.649 345.98 169.358 345.98 170.095C345.98 170.832 346.261 171.541 346.767 172.077C347.273 172.614 347.964 172.937 348.7 172.98H351.7C335.38 186.98 318.29 195.72 300.7 198.98C299.965 199.133 299.318 199.566 298.897 200.187C298.475 200.809 298.312 201.57 298.442 202.31C298.572 203.049 298.985 203.709 299.593 204.15C300.201 204.59 300.957 204.777 301.7 204.67C320.7 201.16 338.9 191.74 356.01 176.88V180.28C356.01 181.046 356.313 181.78 356.852 182.324C357.392 182.867 358.124 183.175 358.89 183.18C359.269 183.181 359.645 183.108 359.995 182.964C360.346 182.819 360.664 182.608 360.933 182.34C361.201 182.072 361.414 181.754 361.56 181.404C361.705 181.054 361.78 180.679 361.78 180.3V171.78C361.762 170.568 361.27 169.412 360.411 168.558C359.551 167.704 358.392 167.22 357.18 167.21H348.7Z" fill="#4A4C4C"/>
<path d="M201.52 237.29C201.609 237.3 201.7 237.3 201.79 237.29H377.46V234.17H372.66C372.601 234.19 372.538 234.19 372.48 234.17C372.444 234.137 372.417 234.096 372.4 234.05C372.346 233.796 372.258 233.551 372.14 233.32C372.05 233.1 371.97 232.87 371.89 232.65L371.3 231.07C371.284 231.005 371.249 230.945 371.2 230.9C371.127 230.858 371.043 230.84 370.96 230.85H369.67C369.236 230.875 368.801 230.835 368.38 230.73C368.16 230.682 367.953 230.59 367.77 230.46C367.61 230.33 367.52 229.98 367.36 229.92C367.275 229.895 367.184 229.895 367.1 229.92C366.66 230.055 366.237 230.24 365.84 230.47C365.35 230.69 364.62 230.81 364.24 230.33C364.08 230.14 363.58 229.67 363.5 229.55C363.173 229.274 362.805 229.051 362.41 228.89C362.05 228.77 361.98 228.89 361.41 228.89C360.84 228.89 360.16 228.84 360.05 228.89C359.46 228.89 358.9 228.43 358.34 228.27C357.679 228.08 356.973 228.122 356.34 228.39L355.96 228.55C355.039 228.845 354.06 228.907 353.11 228.73C352.3 228.61 351.55 228.24 350.75 228.06C349.908 227.874 349.051 227.766 348.19 227.74C347.412 227.698 346.634 227.793 345.89 228.02C345.136 228.255 344.348 228.356 343.56 228.32C342.97 228.32 342.39 228.26 341.8 228.32C341.249 228.349 340.703 228.432 340.17 228.57C340.13 228.58 340.089 228.58 340.05 228.57C340 228.57 339.97 228.52 339.93 228.49C339.563 228.134 339.123 227.864 338.64 227.7C338.139 227.471 337.589 227.372 337.04 227.41C336.6 227.48 336.17 227.56 335.73 227.65C335.29 227.74 335.1 227.85 334.73 227.89C334.336 227.91 333.943 227.91 333.55 227.89C332.769 227.853 331.987 227.907 331.22 228.05C330.76 228.16 330.33 228.34 329.88 228.46C329.09 228.642 328.288 228.759 327.48 228.81C327.23 228.81 326.98 228.81 326.74 228.88C326.482 228.952 326.217 228.989 325.95 228.99C325.809 228.962 325.671 228.918 325.54 228.86C324.943 228.623 324.311 228.488 323.67 228.46C322.413 228.522 321.164 228.699 319.94 228.99C319.58 229.069 319.24 229.219 318.94 229.43C318.59 229.64 318.24 229.84 317.88 230.02C317.388 230.233 316.91 230.477 316.45 230.75C315.96 231.07 315.64 231.62 315.11 231.86C314.42 232.112 313.706 232.293 312.98 232.4L310.71 232.93C310.446 232.99 310.173 232.99 309.91 232.93C309.742 232.886 309.567 232.886 309.4 232.93C309.34 232.93 309.28 233.02 309.22 233.03C309.16 233.04 309.03 232.97 308.95 232.94C308.803 232.886 308.646 232.866 308.491 232.879C308.335 232.893 308.184 232.941 308.05 233.02C308.05 232.91 307.89 232.9 307.8 232.94C307.71 232.98 307.59 233.06 307.5 232.94C307.461 232.897 307.434 232.846 307.42 232.79C307.32 232.6 307.03 232.58 306.83 232.65C306.63 232.72 306.3 233.03 306.05 232.94C305.8 232.85 305.86 232.77 305.77 232.68C305.71 232.624 305.638 232.584 305.56 232.563C305.481 232.542 305.399 232.541 305.32 232.56C305.14 232.56 304.99 232.73 304.81 232.74C304.63 232.75 304.48 232.64 304.31 232.64C304.14 232.64 303.99 232.74 303.82 232.76C303.65 232.78 303.33 232.62 303.12 232.76L303.02 232.82C302.87 232.88 302.75 232.77 302.62 232.72C302.447 232.658 302.261 232.641 302.08 232.67C301.517 232.792 300.965 232.96 300.43 233.17C299.65 233.38 298.829 233.38 298.05 233.17L297.79 233.12C297.557 233.136 297.335 233.22 297.15 233.36V233.67C296.854 233.678 296.564 233.75 296.3 233.88C296.14 233.95 296 234.05 295.84 234.11C295.678 234.145 295.511 234.145 295.35 234.11C295.155 234.138 294.964 234.185 294.78 234.25L293.52 234.58H293.39C293.24 234.58 293.15 234.38 293.05 234.29C292.905 234.165 292.728 234.082 292.54 234.05C292.3 234.018 292.063 233.971 291.83 233.91C291.576 233.811 291.329 233.698 291.09 233.57C290.963 233.515 290.827 233.487 290.69 233.487C290.552 233.487 290.416 233.515 290.29 233.57C290.233 233.601 290.172 233.625 290.11 233.64C289.999 233.632 289.895 233.582 289.82 233.5C289.639 233.352 289.432 233.242 289.209 233.175C288.985 233.108 288.751 233.086 288.52 233.11C288.447 233.125 288.372 233.125 288.3 233.11C288.233 233.091 288.171 233.057 288.12 233.01L287.19 232.26C287.141 232.217 287.083 232.186 287.02 232.17C286.963 232.161 286.906 232.161 286.85 232.17C286.544 232.255 286.227 232.296 285.91 232.29C285.6 232.267 285.292 232.344 285.03 232.51L284.72 232.09C284.694 232.05 284.66 232.016 284.62 231.99C284.558 231.971 284.491 231.971 284.43 231.99H284C283.953 231.98 283.906 231.98 283.86 231.99C283.815 232.021 283.775 232.058 283.74 232.1C283.62 232.2 283.481 232.275 283.331 232.32C283.182 232.364 283.025 232.378 282.87 232.36H281.96C281.894 232.339 281.825 232.339 281.76 232.36C281.706 232.425 281.665 232.5 281.64 232.58C281.53 232.8 281.33 232.79 281.13 232.89C280.905 232.994 280.722 233.17 280.61 233.39C280.594 233.443 280.565 233.492 280.527 233.532C280.489 233.571 280.442 233.602 280.39 233.62L279.92 233.83C279.92 233.83 279.84 233.83 279.82 233.9C279.815 233.93 279.815 233.96 279.82 233.99C279.82 234.06 279.82 234.26 279.75 234.31C279.68 234.36 279.45 234.31 279.34 234.31C279.185 234.344 279.023 234.326 278.88 234.26C278.811 234.217 278.753 234.159 278.71 234.09L278.43 233.76C278.382 233.694 278.321 233.639 278.25 233.6C278.183 233.59 278.116 233.59 278.05 233.6C277.694 233.635 277.335 233.635 276.98 233.6C276.74 233.54 276.59 233.13 276.48 232.92C276.464 232.87 276.433 232.827 276.392 232.795C276.351 232.763 276.301 232.744 276.25 232.74L274.79 232.4C274.79 232.4 274.5 232.72 274.44 232.75C274.251 232.813 274.057 232.857 273.86 232.88L272.54 233.16C272.514 233.342 272.441 233.514 272.33 233.66C272.277 233.718 272.216 233.769 272.15 233.81C271.922 233.926 271.71 234.071 271.52 234.24C271.367 234.403 271.236 234.584 271.13 234.78C270.844 234.635 270.569 234.468 270.31 234.28C270.043 234.097 269.723 234.006 269.4 234.02C269.061 234.066 268.717 234.025 268.4 233.9C268.201 233.767 267.994 233.647 267.78 233.54C267.663 233.531 267.546 233.531 267.43 233.54H266.1C265.75 233.54 265.24 233.66 265.04 233.3C264.95 233.14 264.92 232.94 264.82 232.78C264.732 232.656 264.621 232.55 264.492 232.469C264.363 232.389 264.22 232.334 264.07 232.31C263.77 232.24 263.46 232.24 263.16 232.18C263.004 232.145 262.855 232.085 262.72 232C262.555 231.87 262.416 231.711 262.31 231.53L261.78 230.74C261.744 230.687 261.7 230.639 261.65 230.6C261.584 230.581 261.515 230.581 261.45 230.6C261.144 230.63 260.835 230.63 260.53 230.6C260.287 230.539 260.059 230.43 259.86 230.28C259.477 229.953 259.053 229.678 258.6 229.46C258.238 229.363 257.864 229.316 257.49 229.32C257.42 229.33 257.349 229.33 257.28 229.32C257.212 229.288 257.151 229.244 257.1 229.19L255.91 228.19C255.872 228.146 255.824 228.112 255.77 228.09H255.61L254.31 228.17C253.577 228.175 252.847 228.064 252.15 227.84C251.497 227.674 250.822 227.613 250.15 227.66C250.035 227.684 249.916 227.678 249.804 227.643C249.692 227.608 249.59 227.545 249.51 227.46L248.85 226.86C248.682 226.684 248.475 226.55 248.245 226.471C248.016 226.391 247.77 226.366 247.53 226.4H244.66C244.545 226.406 244.433 226.435 244.33 226.485C244.227 226.534 244.135 226.604 244.06 226.69C243.93 226.8 243.75 227.13 243.56 227.11C243.077 227.104 242.599 227.027 242.14 226.88C241.7 226.69 241.32 226.41 240.9 226.2C240.825 226.16 240.743 226.133 240.66 226.12C240.57 226.106 240.479 226.106 240.39 226.12L238.55 226.73C238.55 226.73 238.47 226.73 238.45 226.79C238.435 226.832 238.435 226.878 238.45 226.92C238.469 227.146 238.469 227.374 238.45 227.6C238.454 227.634 238.451 227.669 238.44 227.702C238.43 227.734 238.413 227.765 238.39 227.79C238.335 227.81 238.274 227.81 238.22 227.79C237.81 227.79 237.4 227.79 237 227.79L236 228.41C235.797 228.549 235.564 228.635 235.32 228.66L234.64 228.73C234.44 228.73 234.24 228.73 234.05 228.78C233.89 228.805 233.747 228.891 233.65 229.02C233.56 229.17 233.55 229.39 233.39 229.48C233.333 229.507 233.272 229.524 233.21 229.53L232.13 229.65L231.67 229.72C231.416 229.778 231.17 229.869 230.94 229.99C230.749 230.105 230.548 230.202 230.34 230.28C230.111 230.315 229.878 230.315 229.65 230.28L228.06 230.17C228.034 230.178 228.006 230.178 227.98 230.17C227.946 230.142 227.925 230.103 227.92 230.06C227.82 229.72 227.74 229.36 227.62 229.06C227.565 228.932 227.484 228.818 227.382 228.723C227.281 228.628 227.161 228.556 227.03 228.51C226.8 228.389 226.58 228.252 226.37 228.1C226.276 228.012 226.163 227.947 226.04 227.91C225.957 227.895 225.872 227.895 225.79 227.91L224.68 228.03C224.334 227.986 223.984 228.053 223.68 228.22C223.553 228.337 223.454 228.48 223.39 228.64L223.16 229.1C223.142 229.143 223.115 229.181 223.08 229.21C223.025 229.23 222.964 229.23 222.91 229.21H221.97C221.79 229.195 221.609 229.195 221.43 229.21L221.06 229.32C220.649 229.489 220.228 229.632 219.8 229.75C219.346 229.819 218.887 229.842 218.43 229.82C218.363 229.83 218.296 229.83 218.23 229.82C218.156 229.792 218.089 229.751 218.03 229.7L216.8 228.78C216.732 228.727 216.658 228.684 216.58 228.65H214.58C214.533 228.64 214.486 228.64 214.44 228.65C214.4 228.664 214.366 228.688 214.34 228.72C214.164 228.863 214.019 229.038 213.913 229.238C213.806 229.437 213.741 229.655 213.72 229.88C213.417 229.868 213.118 229.956 212.87 230.13C212.61 230.28 212.38 230.47 212.11 230.6C211.937 230.663 211.777 230.758 211.64 230.88C211.49 231.04 211.4 231.36 211.12 231.33H210.96C210.86 231.33 210.78 231.42 210.7 231.5C210.555 231.655 210.39 231.789 210.21 231.9C209.609 232.163 209.063 232.536 208.6 233C208.534 233.103 208.445 233.188 208.34 233.25C208.191 233.305 208.028 233.305 207.88 233.25C207.817 233.235 207.752 233.235 207.69 233.25C207.643 233.271 207.599 233.298 207.56 233.33C207.241 233.657 206.865 233.921 206.45 234.11C206.18 234.18 205.89 234.11 205.63 234.16C205.453 234.225 205.293 234.327 205.16 234.46C204.892 234.664 204.608 234.845 204.31 235C204.107 235.085 203.91 235.181 203.72 235.29C203.624 235.397 203.56 235.529 203.535 235.67C203.511 235.811 203.526 235.957 203.58 236.09H203.29C203.088 236.055 202.881 236.055 202.68 236.09C202.37 236.16 202.25 236.4 202.04 236.61C201.852 236.825 201.678 237.052 201.52 237.29Z" fill="#040707"/>
</svg>
