<svg width="32" height="33" viewBox="0 0 32 33" fill="none" xmlns="http://www.w3.org/2000/svg">
<circle cx="16" cy="16.7056" r="16" fill="url(#paint0_linear_2864_1342)"/>
<circle cx="16" cy="16.7056" r="16" fill="url(#paint1_linear_2864_1342)"/>
<circle cx="16" cy="16.7056" r="15.75" stroke="white" stroke-opacity="0.5" stroke-width="0.5"/>
<mask id="mask0_2864_1342" style="mask-type:alpha" maskUnits="userSpaceOnUse" x="6" y="6" width="20" height="21">
<rect x="6" y="6.70557" width="20" height="20" fill="#D9D9D9"/>
</mask>
<g mask="url(#mask0_2864_1342)">
<path d="M16 21.0806C16.2267 21.0806 16.4167 20.9967 16.57 20.829C16.7233 20.6613 16.8 20.4535 16.8 20.2056C16.8 19.9577 16.7233 19.7498 16.57 19.5821C16.4167 19.4144 16.2267 19.3306 16 19.3306C15.7733 19.3306 15.5833 19.4144 15.43 19.5821C15.2767 19.7498 15.2 19.9577 15.2 20.2056C15.2 20.4535 15.2767 20.6613 15.43 20.829C15.5833 20.9967 15.7733 21.0806 16 21.0806ZM16 17.5806C16.2267 17.5806 16.4167 17.4967 16.57 17.329C16.7233 17.1613 16.8 16.9535 16.8 16.7056C16.8 16.4576 16.7233 16.2498 16.57 16.0821C16.4167 15.9144 16.2267 15.8306 16 15.8306C15.7733 15.8306 15.5833 15.9144 15.43 16.0821C15.2767 16.2498 15.2 16.4576 15.2 16.7056C15.2 16.9535 15.2767 17.1613 15.43 17.329C15.5833 17.4967 15.7733 17.5806 16 17.5806ZM16 14.0806C16.2267 14.0806 16.4167 13.9967 16.57 13.829C16.7233 13.6613 16.8 13.4535 16.8 13.2056C16.8 12.9576 16.7233 12.7498 16.57 12.5821C16.4167 12.4144 16.2267 12.3306 16 12.3306C15.7733 12.3306 15.5833 12.4144 15.43 12.5821C15.2767 12.7498 15.2 12.9576 15.2 13.2056C15.2 13.4535 15.2767 13.6613 15.43 13.829C15.5833 13.9967 15.7733 14.0806 16 14.0806ZM22.4 23.7056H9.6C9.16 23.7056 8.78333 23.5342 8.47 23.1915C8.15667 22.8488 8 22.4368 8 21.9556V18.4556C8.44 18.4556 8.81667 18.2842 9.13 17.9415C9.44333 17.5988 9.6 17.1868 9.6 16.7056C9.6 16.2243 9.44333 15.8123 9.13 15.4696C8.81667 15.1269 8.44 14.9556 8 14.9556V11.4556C8 10.9743 8.15667 10.5623 8.47 10.2196C8.78333 9.87692 9.16 9.70557 9.6 9.70557H22.4C22.84 9.70557 23.2167 9.87692 23.53 10.2196C23.8433 10.5623 24 10.9743 24 11.4556V14.9556C23.56 14.9556 23.1833 15.1269 22.87 15.4696C22.5567 15.8123 22.4 16.2243 22.4 16.7056C22.4 17.1868 22.5567 17.5988 22.87 17.9415C23.1833 18.2842 23.56 18.4556 24 18.4556V21.9556C24 22.4368 23.8433 22.8488 23.53 23.1915C23.2167 23.5342 22.84 23.7056 22.4 23.7056ZM22.4 21.9556V19.7243C21.9067 19.4035 21.5167 18.9769 21.23 18.4446C20.9433 17.9123 20.8 17.3326 20.8 16.7056C20.8 16.0785 20.9433 15.4988 21.23 14.9665C21.5167 14.4342 21.9067 14.0076 22.4 13.6868V11.4556H9.6V13.6868C10.0933 14.0076 10.4833 14.4342 10.77 14.9665C11.0567 15.4988 11.2 16.0785 11.2 16.7056C11.2 17.3326 11.0567 17.9123 10.77 18.4446C10.4833 18.9769 10.0933 19.4035 9.6 19.7243V21.9556H22.4Z" fill="white"/>
</g>
<defs>
<linearGradient id="paint0_linear_2864_1342" x1="32" y1="0.705566" x2="0" y2="32.7056" gradientUnits="userSpaceOnUse">
<stop stop-color="#FFAE00"/>
<stop offset="1" stop-color="#F87E00"/>
</linearGradient>
<linearGradient id="paint1_linear_2864_1342" x1="16" y1="0.705566" x2="16" y2="32.7056" gradientUnits="userSpaceOnUse">
<stop stop-color="#F87E00"/>
<stop offset="0.6" stop-color="#FFAE00"/>
</linearGradient>
</defs>
</svg>
