<svg width="1440" height="94" viewBox="0 0 1440 94" fill="none" xmlns="http://www.w3.org/2000/svg">
<path d="M316.311 50.0187L315.121 52.1407L314.671 52.9515C314.555 53.1149 314.477 53.3021 314.442 53.4995C314.408 53.6968 314.417 53.8994 314.471 54.0926H312.211C312.211 54.2327 312.211 54.3328 312.211 54.4429C312.211 55.1235 312.211 55.7941 312.211 56.4448C312.211 57.0954 311.991 57.2155 311.451 57.2155H309.541C309.443 57.2291 309.344 57.2198 309.251 57.1883C309.158 57.1567 309.074 57.1038 309.005 57.0337C308.936 56.9637 308.884 56.8785 308.854 56.7849C308.824 56.6914 308.816 56.592 308.831 56.4948C308.831 55.7942 308.831 55.0935 308.831 54.4028V54.0825H301.441C301.322 54.1011 301.201 54.0856 301.091 54.0377C300.982 53.9899 300.888 53.9117 300.821 53.8123C300.764 53.7109 300.739 53.5951 300.748 53.4794C300.757 53.3637 300.799 53.2532 300.871 53.1616L303.621 48.237C303.811 47.8967 303.791 47.8466 303.401 47.8466H302.631C302.516 47.8629 302.4 47.8426 302.297 47.7887C302.195 47.7348 302.112 47.65 302.061 47.5463C302.008 47.4433 301.988 47.3265 302.004 47.2117C302.02 47.097 302.071 46.9901 302.151 46.9057L305.681 42.0512L305.811 41.881C305.911 41.7208 305.811 41.6307 305.681 41.6207H305.001C304.881 41.6382 304.759 41.6177 304.651 41.562C304.543 41.5064 304.456 41.4184 304.401 41.3104C304.356 41.2043 304.342 41.0876 304.362 40.974C304.381 40.8604 304.433 40.7548 304.511 40.6698C305.601 39.0683 306.691 37.4568 307.791 35.8553L307.891 35.7052C307.919 35.6265 307.942 35.5463 307.961 35.4649C307.885 35.4279 307.804 35.4042 307.721 35.3948C307.561 35.4049 307.401 35.4049 307.241 35.3948C307.091 35.3948 306.881 35.2847 306.831 35.1746C306.805 35.0945 306.798 35.0096 306.81 34.9263C306.822 34.843 306.853 34.7636 306.901 34.6942C307.471 33.8834 308.061 33.1027 308.651 32.3019L309.981 30.5002C310.301 30.0698 310.651 30.0798 310.981 30.5002C312.001 31.8682 313.001 33.2428 313.981 34.6241C314.091 34.7775 314.138 34.9676 314.111 35.1546C314.051 35.4049 313.801 35.3848 313.581 35.3948C313.361 35.4048 313.171 35.4449 312.961 35.4749C313.048 35.6602 313.144 35.8407 313.251 36.0154L316.411 40.6598C316.631 40.9801 316.641 41.2504 316.411 41.4406C316.287 41.5318 316.143 41.5904 315.991 41.6107C315.781 41.6107 315.571 41.6107 315.361 41.6107C315.151 41.6107 315.201 41.6608 315.111 41.6808C315.135 41.763 315.165 41.8433 315.201 41.921L317.471 45.044C317.503 45.0749 317.53 45.1121 317.547 45.1534C317.565 45.1947 317.574 45.2392 317.574 45.2842C317.574 45.3292 317.565 45.3737 317.547 45.415C317.53 45.4563 317.503 45.4936 317.471 45.5244C316.871 46.3352 316.281 47.146 315.691 47.9668C315.526 48.1184 315.408 48.3133 315.349 48.5291C315.291 48.745 315.294 48.973 315.359 49.1872C315.423 49.4013 315.547 49.5928 315.715 49.7399C315.884 49.887 316.09 49.9836 316.311 50.0187Z" fill="#4A4C4C"/>
<path d="M321.408 54.1124H315.648C315.198 54.1124 315.018 53.7921 315.238 53.4018L317.328 49.6682L317.518 49.2879H316.688C316.468 49.2879 316.268 49.2879 316.158 49.0376C316.048 48.7874 316.158 48.6573 316.278 48.4971L318.948 44.8136C319.008 44.7335 319.058 44.6435 319.178 44.4633C318.959 44.4844 318.738 44.4844 318.518 44.4633C318.34 44.4402 318.172 44.3634 318.038 44.2431C317.888 44.0729 318.038 43.8727 318.118 43.7026C318.958 42.4714 319.798 41.2503 320.628 40.0191C320.688 39.929 320.738 39.8189 320.828 39.6587H320.208C319.868 39.6587 319.738 39.3985 319.928 39.1282C320.738 38.0172 321.558 36.9061 322.378 35.8051C322.412 35.7447 322.461 35.6944 322.521 35.6594C322.581 35.6244 322.649 35.606 322.718 35.606C322.787 35.606 322.855 35.6244 322.915 35.6594C322.975 35.6944 323.024 35.7447 323.058 35.8051L325.488 39.0982C325.688 39.3785 325.558 39.6287 325.208 39.6487H324.618C324.667 39.7629 324.723 39.8733 324.788 39.9791C325.588 41.1702 326.398 42.3513 327.208 43.5424C327.267 43.622 327.321 43.7056 327.368 43.7927C327.413 43.8552 327.44 43.9291 327.445 44.0061C327.45 44.0831 327.434 44.1599 327.397 44.2279C327.361 44.2958 327.306 44.352 327.239 44.3901C327.172 44.4282 327.095 44.4466 327.018 44.4433C326.788 44.4433 326.568 44.4433 326.258 44.4433C326.323 44.5718 326.396 44.6956 326.478 44.8136L329.098 48.417C329.228 48.5972 329.398 48.7774 329.268 49.0376C329.138 49.2979 328.898 49.2779 328.668 49.2779H327.928C327.998 49.438 328.038 49.5381 328.088 49.6382L330.138 53.3117C330.418 53.8122 330.258 54.1024 329.678 54.1024H323.998C323.998 54.2325 323.998 54.3426 323.998 54.4427C323.998 55.1634 323.998 55.8841 323.998 56.6048C323.998 57.0552 323.808 57.2354 323.358 57.2354H322.098C321.578 57.2354 321.408 57.0652 321.408 56.5648V54.1024V54.1124Z" fill="#4A4C4C"/>
<path d="M1062.33 62.0498C1060.88 62.0498 1060.5 61.5994 1060.22 60.168C1059.91 58.393 1060.04 56.5704 1060.58 54.853C1063 46.2649 1065.34 37.6467 1067.7 29.0486C1067.75 28.8112 1067.79 28.5704 1067.81 28.3279L1068.33 28.6883C1070.27 30.2197 1072.21 31.7512 1074.16 33.2626C1074.3 33.3451 1074.41 33.4793 1074.47 33.6386C1074.52 33.7979 1074.51 33.9708 1074.44 34.1234C1072.2 42.2311 1069.96 50.3454 1067.73 58.4664C1067.73 58.6566 1067.65 58.8568 1067.61 59.047L1062.33 62.0498Z" fill="#4A4C4C"/>
<path d="M1071.57 56.7948C1073.5 49.7882 1075.42 42.8416 1077.37 35.7749L1078.08 36.3254L1088.08 44.2129C1089.28 45.1438 1089.4 45.7043 1088.69 47.0156L1071.57 56.7948Z" fill="#4A4C4C"/>
<path d="M1053.47 15.7461C1052.97 17.5778 1052.47 19.3595 1052 21.1412C1051.93 21.472 1051.77 21.7752 1051.53 22.0098C1051.29 22.2443 1050.98 22.3989 1050.65 22.4524C1050.38 22.4965 1050.11 22.4733 1049.86 22.3851C1049.6 22.2968 1049.38 22.1463 1049.19 21.9472C1049.01 21.7482 1048.88 21.5069 1048.82 21.2454C1048.76 20.984 1048.76 20.7107 1048.83 20.4505C1049.05 19.5597 1049.31 18.6688 1049.56 17.788C1049.56 17.6078 1049.64 17.4377 1049.72 17.1174L1048.38 17.8781L1046.78 18.7889C1046.59 18.8954 1046.39 18.9645 1046.18 18.9922C1045.97 19.0198 1045.75 19.0056 1045.55 18.9503C1045.34 18.895 1045.15 18.7997 1044.98 18.6698C1044.81 18.5399 1044.67 18.378 1044.56 18.1934C1044.46 18.0087 1044.39 17.8049 1044.36 17.5935C1044.33 17.3821 1044.35 17.1674 1044.4 16.9615C1044.46 16.7556 1044.55 16.5626 1044.68 16.3936C1044.81 16.2246 1044.97 16.0827 1045.16 15.9763C1046.02 15.4658 1046.89 14.9753 1047.75 14.4949L1048.05 14.2947C1047.87 14.2256 1047.69 14.1655 1047.51 14.1145C1046.61 13.8643 1045.7 13.6241 1044.8 13.3638C1044.39 13.2446 1044.03 12.9686 1043.82 12.5947C1043.61 12.2208 1043.55 11.7785 1043.66 11.3619C1043.71 11.1552 1043.81 10.9616 1043.94 10.7924C1044.07 10.6232 1044.24 10.4818 1044.42 10.3765C1044.61 10.2712 1044.81 10.2041 1045.03 10.1791C1045.24 10.1541 1045.45 10.1717 1045.66 10.2308C1046.58 10.4611 1047.48 10.7313 1048.38 10.9715L1049 11.1217C1048.5 10.2508 1048.06 9.47011 1047.62 8.68937C1047.47 8.50366 1047.37 8.28912 1047.32 8.0603C1047.26 7.83148 1047.26 7.59371 1047.31 7.36307C1047.35 7.13244 1047.45 6.91435 1047.58 6.72352C1047.72 6.5327 1047.9 6.3736 1048.1 6.25702C1048.3 6.14044 1048.53 6.0691 1048.77 6.0478C1049 6.02651 1049.23 6.05575 1049.46 6.13358C1049.68 6.21141 1049.88 6.336 1050.05 6.49891C1050.22 6.66183 1050.35 6.85927 1050.44 7.07786L1051.8 9.46012C1051.87 9.27995 1051.94 9.15982 1051.97 9.03971L1052.72 6.32715C1052.76 6.1054 1052.85 5.89478 1052.98 5.70865C1053.1 5.52251 1053.27 5.36491 1053.46 5.24578C1053.65 5.12664 1053.87 5.0486 1054.09 5.01655C1054.31 4.98451 1054.54 4.99918 1054.76 5.05963C1054.97 5.12007 1055.18 5.22497 1055.35 5.36772C1055.53 5.51046 1055.67 5.68795 1055.77 5.88893C1055.87 6.08991 1055.93 6.31 1055.95 6.53533C1055.96 6.76065 1055.93 6.98629 1055.85 7.19797C1055.58 8.19892 1055.28 9.19986 1054.97 10.3209C1055.12 10.2698 1055.27 10.2096 1055.42 10.1408C1056.24 9.68032 1057.05 9.19985 1057.87 8.74943C1058.06 8.62507 1058.27 8.54146 1058.5 8.50386C1058.72 8.46627 1058.95 8.47549 1059.17 8.53099C1059.39 8.58649 1059.59 8.68704 1059.77 8.82628C1059.95 8.96553 1060.1 9.14045 1060.21 9.33998C1060.31 9.53507 1060.38 9.74961 1060.4 9.97037C1060.41 10.1911 1060.39 10.4134 1060.32 10.6235C1060.25 10.8336 1060.14 11.0271 1059.99 11.192C1059.84 11.3568 1059.66 11.4896 1059.46 11.5821L1056.78 13.1236L1056.7 13.2037C1056.82 13.2694 1056.94 13.323 1057.07 13.3638L1059.73 14.1045C1059.95 14.1441 1060.16 14.2299 1060.35 14.3565C1060.54 14.483 1060.7 14.6475 1060.82 14.8394C1060.94 15.0312 1061.02 15.2463 1061.06 15.4708C1061.09 15.6954 1061.08 15.9244 1061.02 16.1433C1060.96 16.3621 1060.85 16.5661 1060.71 16.742C1060.56 16.9179 1060.39 17.062 1060.18 17.165C1059.98 17.268 1059.76 17.3276 1059.53 17.3401C1059.31 17.3526 1059.08 17.3176 1058.87 17.2375L1054.07 15.9162L1053.47 15.7461Z" fill="#4A4C4C"/>
<path d="M1058.77 48.7775C1058.58 47.2561 1058.38 45.7746 1058.19 44.2232C1057.24 36.9296 1056.29 29.6294 1055.36 22.3224C1055.28 22.0085 1055.28 21.6775 1055.38 21.3664C1055.47 21.0553 1055.65 20.7764 1055.89 20.5608C1056.19 20.2972 1056.59 20.158 1056.99 20.171C1057.39 20.184 1057.77 20.3482 1058.06 20.6308C1060.06 22.1923 1062.06 23.7638 1064.06 25.3353C1065.12 26.1661 1065.12 26.1661 1064.76 27.4774C1062.87 34.3705 1060.97 41.2704 1059.07 48.1769C1059.03 48.3885 1059.01 48.6026 1059 48.8175L1058.77 48.7775Z" fill="#4A4C4C"/>
<path d="M1075.38 20.9609C1075.21 20.5605 1075.28 20.4003 1075.64 20.1601C1076.09 19.8618 1076.61 19.6764 1077.14 19.6196C1079.78 19.2593 1082.42 18.8689 1085.06 18.4886L1085.27 18.4285V18.6187L1084.72 20.7607C1084.72 20.8102 1084.69 20.8562 1084.66 20.8895C1084.62 20.9228 1084.57 20.9411 1084.52 20.9409L1077.05 22.0119H1076.87L1075.38 20.9609Z" fill="#4A4C4C"/>
<path d="M1077.92 22.8628L1084.36 21.9519L1084.3 22.2122L1083.3 25.9057C1083.18 26.3461 1083.04 26.4462 1082.6 26.4062L1077.92 22.8628Z" fill="#4A4C4C"/>
<path d="M1087 12.9935L1085.35 13.2338C1085.25 13.2569 1085.15 13.2492 1085.05 13.2117C1084.96 13.1741 1084.87 13.1085 1084.82 13.0236C1084.78 12.9549 1084.75 12.8768 1084.75 12.7964C1084.74 12.7159 1084.76 12.6356 1084.79 12.5623C1084.82 12.4891 1084.88 12.4253 1084.94 12.3766C1085 12.3278 1085.08 12.2956 1085.16 12.2828L1085.98 12.1627H1086.18L1085.81 11.8925L1085.37 11.5622C1085.32 11.5244 1085.27 11.4765 1085.24 11.4211C1085.2 11.3658 1085.18 11.3042 1085.17 11.2399C1085.16 11.1756 1085.16 11.1099 1085.18 11.0467C1085.19 10.9834 1085.22 10.9239 1085.26 10.8715C1085.3 10.8189 1085.35 10.7746 1085.4 10.7414C1085.46 10.7082 1085.52 10.6867 1085.58 10.6783C1085.65 10.6698 1085.71 10.6746 1085.78 10.6924C1085.84 10.7101 1085.9 10.7404 1085.95 10.7814L1086.67 11.3119L1086.76 11.372C1086.76 11.3019 1086.76 11.2519 1086.76 11.2018L1086.64 10.371C1086.63 10.3078 1086.63 10.2433 1086.65 10.1812C1086.66 10.1192 1086.69 10.0608 1086.73 10.0095C1086.77 9.95824 1086.81 9.9151 1086.87 9.88265C1086.92 9.8502 1086.99 9.82907 1087.05 9.82052C1087.11 9.81062 1087.18 9.81344 1087.24 9.8288C1087.3 9.84416 1087.36 9.87177 1087.41 9.90999C1087.46 9.94821 1087.5 9.99628 1087.54 10.0514C1087.57 10.1065 1087.59 10.1675 1087.6 10.2309C1087.65 10.5012 1087.68 10.7814 1087.72 11.0617V11.2519L1088.22 10.5812C1088.25 10.5207 1088.3 10.4682 1088.36 10.4271C1088.41 10.3861 1088.48 10.3576 1088.54 10.3434C1088.61 10.3291 1088.68 10.3296 1088.75 10.3448C1088.82 10.3599 1088.88 10.3893 1088.94 10.4311C1088.99 10.4737 1089.04 10.5269 1089.07 10.5875C1089.1 10.6481 1089.12 10.7148 1089.13 10.7833C1089.13 10.8519 1089.12 10.9209 1089.1 10.9861C1089.08 11.0512 1089.04 11.111 1089 11.1618C1088.84 11.372 1088.68 11.5822 1088.51 11.8224H1088.64L1089.48 11.7023C1089.54 11.6893 1089.61 11.6895 1089.67 11.7027C1089.74 11.7159 1089.8 11.742 1089.85 11.7794C1089.91 11.8167 1089.95 11.8646 1089.99 11.9202C1090.02 11.9757 1090.05 12.0378 1090.06 12.1027C1090.07 12.1702 1090.07 12.2394 1090.05 12.3057C1090.03 12.372 1090 12.4341 1089.96 12.4878C1089.92 12.5416 1089.86 12.5858 1089.8 12.6178C1089.74 12.6497 1089.68 12.6686 1089.61 12.6732L1088.61 12.8034C1088.64 12.8393 1088.67 12.8727 1088.71 12.9034C1088.94 13.0736 1089.17 13.2337 1089.39 13.4139C1089.45 13.4483 1089.5 13.4955 1089.54 13.5522C1089.59 13.609 1089.61 13.674 1089.63 13.7428C1089.64 13.8117 1089.64 13.8828 1089.63 13.9513C1089.61 14.0198 1089.58 14.0842 1089.54 14.14C1089.49 14.1958 1089.44 14.2417 1089.38 14.2747C1089.32 14.3077 1089.25 14.327 1089.18 14.3313C1089.11 14.3355 1089.04 14.3246 1088.97 14.2993C1088.91 14.274 1088.85 14.2349 1088.8 14.1847L1088.06 13.6341C1088.05 13.674 1088.05 13.7144 1088.06 13.7542C1088.06 14.0245 1088.14 14.2947 1088.17 14.565C1088.19 14.6323 1088.19 14.7026 1088.18 14.7712C1088.17 14.8398 1088.14 14.9052 1088.1 14.9629C1088.06 15.0207 1088.01 15.0695 1087.95 15.1062C1087.89 15.1428 1087.83 15.1665 1087.76 15.1756C1087.69 15.1825 1087.62 15.1756 1087.56 15.1554C1087.49 15.1352 1087.43 15.1022 1087.38 15.0582C1087.33 15.0142 1087.29 14.9602 1087.26 14.8995C1087.23 14.8389 1087.21 14.7727 1087.21 14.7051L1087 13.2338V12.9935Z" fill="#FFAE00"/>
<path d="M1078.59 18.3987L1079.76 17.698C1081.65 16.5703 1083.54 15.4359 1085.42 14.2948C1085.5 14.2371 1085.59 14.2011 1085.69 14.1905C1085.78 14.18 1085.88 14.1952 1085.97 14.2348C1086.08 14.2852 1086.16 14.3755 1086.21 14.4872C1086.25 14.5989 1086.25 14.7235 1086.21 14.8353L1085.64 17.0474C1085.54 17.4378 1085.54 17.4378 1085.14 17.4979L1078.79 18.4087L1078.6 18.4688L1078.59 18.3987Z" fill="#4A4C4C"/>
<path d="M1096.76 63.7014C1096.32 63.4611 1096.29 63.1108 1096.68 62.7805C1097.57 62.0559 1098.36 61.2103 1099.02 60.2681C1099.33 59.8477 1099.54 59.3666 1099.65 58.8568C1099.71 58.6359 1099.71 58.4043 1099.65 58.1828C1099.6 57.9612 1099.49 57.7565 1099.34 57.5869C1099.19 57.4174 1098.99 57.2884 1098.78 57.2113C1098.57 57.1342 1098.33 57.1115 1098.11 57.1452C1097.65 57.19 1097.2 57.3297 1096.8 57.5556C1096.2 57.8786 1095.64 58.2645 1095.12 58.7067C1094.42 59.3786 1093.57 59.8789 1092.65 60.168C1092.31 60.2857 1091.95 60.3097 1091.59 60.2375C1091.24 60.1653 1090.92 59.9996 1090.65 59.7577C1090.43 59.547 1090.27 59.283 1090.18 58.9917C1090.1 58.7004 1090.09 58.3918 1090.16 58.0961C1090.33 57.2702 1090.71 56.5017 1091.26 55.864C1091.58 55.454 1091.85 55.0031 1092.06 54.5227C1092.3 55.0523 1092.71 55.4862 1093.22 55.7539C1092.94 55.854 1092.68 55.9341 1092.43 56.0341C1092.36 56.0547 1092.29 56.0964 1092.24 56.1543C1091.82 56.6461 1091.48 57.2041 1091.24 57.8058C1091.19 57.9667 1091.14 58.1304 1091.11 58.2963C1091.09 58.4441 1091.1 58.5957 1091.15 58.737C1091.2 58.8782 1091.28 59.0046 1091.4 59.1043C1091.51 59.2041 1091.64 59.2741 1091.79 59.3078C1091.93 59.3416 1092.09 59.3379 1092.23 59.2972C1092.75 59.1934 1093.24 58.982 1093.67 58.6766C1093.99 58.4564 1094.29 58.2162 1094.59 57.966C1095.42 57.2073 1096.41 56.6401 1097.48 56.3044C1097.81 56.1941 1098.15 56.1497 1098.49 56.1737C1098.84 56.1978 1099.17 56.2898 1099.48 56.4445C1099.9 56.6768 1100.25 57.0337 1100.46 57.4668C1100.67 57.9 1100.75 58.3887 1100.68 58.8668C1100.5 59.774 1100.08 60.6187 1099.48 61.3191C1098.84 62.1329 1098.11 62.8716 1097.31 63.5212C1097.24 63.5826 1097.15 63.6362 1097.07 63.6814L1096.76 63.7014Z" fill="#4A4C4C"/>
<path d="M1099.87 49.8884C1099.26 49.8843 1098.67 49.6988 1098.16 49.3555C1097.66 49.0123 1097.27 48.5268 1097.04 47.9609C1096.81 47.395 1096.76 46.7742 1096.89 46.1776C1097.01 45.5811 1097.31 45.0357 1097.75 44.6109C1098.19 44.186 1098.74 43.901 1099.34 43.7921C1099.94 43.6832 1100.56 43.7553 1101.12 43.9992C1101.68 44.2431 1102.15 44.6478 1102.48 45.1618C1102.81 45.6759 1102.97 46.2759 1102.96 46.8856C1102.95 47.6935 1102.61 48.4633 1102.03 49.0262C1101.46 49.5891 1100.68 49.8991 1099.87 49.8884Z" fill="#4A4C4C"/>
<path d="M1096.73 48.407C1096.97 48.8684 1097.3 49.2734 1097.71 49.5946C1098.11 49.9158 1098.59 50.1457 1099.09 50.2688L1098.92 50.3989L1093.85 55.0633C1093.71 55.208 1093.52 55.2969 1093.32 55.3135C1093.12 55.33 1092.92 55.2731 1092.76 55.1534C1092.59 55.0361 1092.48 54.8632 1092.43 54.6665C1092.38 54.4697 1092.41 54.2623 1092.5 54.0824C1092.55 53.9701 1092.62 53.8629 1092.69 53.7621C1094 52.0304 1095.3 50.2888 1096.61 48.5471L1096.73 48.407Z" fill="#4A4C4C"/>
<path d="M1048.63 70.5479H1052.38V74.6418H927.539V72.3296L929.699 69.3067H942.319L944.409 71.5388H947.509V72.6899H957.319L961.249 68.7562L965.659 72.77L972.199 63.7214V61.3192H974.309V63.331H978.449V65.0627H984.119L989.739 59.4374H996.619V56.4045L999.449 53.5718H1000.17V50.9193H1003.83L1003.25 51.4999H1002.29V52.751H1003.25V56.5947H1005.56V55.7338H1007.77V54.1924H1010.27V55.6337H1011.81V61.8396H1014.02V59.1971L1018.06 42.4513V34.754H1018.83V30.0396H1019.69V34.754H1020.75V42.161L1024.69 59.1971V61.5994H1027.19V60.3482H1031.04V69.4969H1033.34V64.6823H1046.9V65.6432H1048.63V70.5479Z" fill="#4A4C4C"/>
<path d="M1185.88 63.211V72.3796H1088.11V70.9883H1088.5V67.8053H1090.81V64.8225H1092.25V67.1347H1093.5V64.0517H1094.27V62.1299H1096.38V60.8788H1099.85L1111.29 58.2863H1119.64V56.3545H1126.96L1132.05 60.7887V63.0008H1133.11V64.7324H1137.34L1139.46 61.7496H1144.44V55.5837H1146.18V58.0861H1146.94V61.9398H1152.53L1154.31 63.7214V65.403H1155.51V62.1299H1158.48V58.3764H1159.44V62.23L1160.56 63.3311V67.1447H1163.32V65.0227H1163.83V64.332H1175.17V65.4831H1177.13V63.8616H1179.14V61.9197H1184.66V63.211H1185.88Z" fill="#4A4C4C"/>
<path d="M683.001 81.2981C663.841 81.2981 648.151 64.4721 629.381 60.8888C625.151 60.078 620.811 59.8378 616.601 58.9469C604.981 56.4846 594.421 49.1476 582.531 49.538C576.881 49.7282 571.421 51.67 565.781 51.8202C553.521 52.1405 542.561 44.0428 530.321 43.2521C519.681 42.5614 509.641 47.436 499.321 50.1086C491.871 52.0304 484.151 52.8211 476.481 53.5919L430.561 58.2463C423.131 58.997 415.561 61.4793 408.691 64.2519C400.081 67.7453 383.361 57.4955 374.561 60.5484C365.761 63.6013 358.711 78.7457 350.101 82.1989C349.241 82.4666 348.479 82.9818 347.911 83.6803C346.111 86.443 350.981 88.6851 354.391 88.6851L645.841 89.1455L677.631 89.1956C680.631 89.1956 683.971 89.0354 685.861 86.8633C687.751 84.6913 685.721 80.2771 682.971 81.3081" fill="#4A4C4C"/>
<path d="M724.498 71.9792C719.948 71.9792 716.229 65.5331 711.769 64.1518C710.769 63.8415 709.769 63.7514 708.769 63.4111C706.009 62.4702 703.508 59.6475 700.678 59.7977C699.348 59.8677 698.048 60.6185 696.678 60.6785C693.768 60.7986 691.169 57.6757 688.269 57.3854C685.739 57.1251 683.358 58.9969 680.908 60.0179C679.161 60.6791 677.342 61.1293 675.488 61.3592L662.998 63.4111C661.169 63.5786 659.398 64.1421 657.808 65.0627C655.808 66.4039 654.089 68.8863 652.009 70.0674C649.929 71.2485 647.578 71.0683 645.538 72.3395C645.31 72.4711 645.129 72.6705 645.019 72.9101C644.589 73.9711 645.748 74.8219 646.558 74.8219L715.728 74.9921H723.269C723.645 75.0559 724.032 75.0051 724.38 74.8463C724.728 74.6874 725.02 74.4279 725.218 74.1012C725.668 73.2704 725.218 71.5788 724.538 71.9692" fill="#4A4C4C"/>
<path d="M979.712 72.0294C972.852 72.0294 967.232 65.6934 960.502 64.3421C958.982 64.0318 957.432 63.9417 955.922 63.6014C951.762 62.6805 947.982 59.9079 943.712 60.058C941.712 60.1281 939.712 60.8588 937.712 60.9188C933.322 61.039 929.392 57.9861 925.012 57.6858C921.202 57.4256 917.602 59.2673 913.912 60.2682C911.224 60.924 908.489 61.3658 905.732 61.5895L886.812 63.5914C884.136 63.7478 881.498 64.2976 878.982 65.2229C875.902 66.5442 873.372 68.9765 870.222 70.1276C867.072 71.2787 863.542 71.0684 860.462 72.3697C860.144 72.4653 859.867 72.6622 859.672 72.9302C859.022 73.9312 860.772 74.802 861.992 74.802L966.412 74.9822H977.802C978.325 75.0585 978.86 75.0201 979.367 74.8698C979.875 74.7194 980.344 74.4607 980.742 74.1114C981.422 73.2906 980.742 71.619 979.742 72.0094" fill="#4A4C4C"/>
<path d="M894.738 71.8992C890.958 71.8992 887.858 68.4059 884.148 67.6652C883.318 67.495 882.458 67.445 881.628 67.2548C879.328 66.7443 877.248 65.2529 874.898 65.2529C873.788 65.2529 872.708 65.6933 871.588 65.7233C869.168 65.7934 867.008 64.1118 864.588 63.9416C862.488 63.8015 860.508 64.8125 858.468 65.373C856.987 65.7339 855.479 65.9749 853.958 66.0937L843.538 67.2047C842.062 67.2909 840.606 67.5945 839.218 68.1056C837.518 68.8263 836.118 70.1775 834.388 70.8081C832.658 71.4387 830.708 71.3186 829.008 72.0393C828.836 72.0948 828.685 72.2034 828.578 72.3496C828.218 72.9201 829.178 73.3505 829.858 73.3505L887.408 73.4406H893.688C893.977 73.4837 894.272 73.4631 894.551 73.3801C894.831 73.2971 895.09 73.1537 895.308 72.9602C895.678 72.5097 895.308 71.5889 894.738 71.7991" fill="#4A4C4C"/>
<path d="M439.43 75.5527H182V72.5498L185.89 72.0093L187.89 70.5279H190.02L193.4 69.0365L196.23 68.3859L198.72 67.7553L200.04 68.3358L205.04 67.7553L206.46 65.0327H210.81L214.35 63.7315L219.86 64.232L221.72 62.3702L227.65 61.6195C227.65 61.6195 229.51 61.9398 229.51 61.6195C229.703 61.0836 229.965 60.5754 230.29 60.108H234.5L235.73 59.1671L238.3 57.5656L241.85 58.2062L243.01 57.5656H246.11C246.65 57.956 247.95 57.7958 248.84 57.7958L250.9 58.0261L252.9 57.1152L254.49 57.3854L256.01 57.7058L258.48 56.7048L260.48 56.7849H260.64C263.12 56.2344 265.51 55.4637 267.9 54.783L273.27 53.3617C274.753 52.857 276.304 52.5802 277.87 52.5409C279.46 52.5409 281.05 52.6109 282.62 52.711C284.003 52.8831 285.401 52.91 286.79 52.7911C287.79 52.671 288.68 52.4708 289.62 52.3207C293.626 51.8136 297.67 51.6829 301.7 51.9303C301.93 52.2106 301.92 52.5909 302.61 52.7411C303.053 52.8106 303.502 52.8341 303.95 52.8111H305.1C307.03 52.8111 308.83 53.5919 310.74 53.752C312.65 53.9122 315 53.3316 317 53.5318C319 53.732 317.42 52.4208 319.57 52.6009C319.63 52.6009 320.79 53.3116 320.84 53.3016C321.329 53.1661 321.805 52.9852 322.26 52.7611C323.18 52.4608 323.67 52.9713 323.7 52.7611C323.73 52.5509 323.93 53.0313 324.05 52.9813C324.17 52.9312 324.05 53.2115 324.22 53.2115C326.22 53.2115 328.14 53.2115 330.1 53.2115C330.373 53.1913 330.647 53.1913 330.92 53.2115C331.224 53.2493 331.525 53.3096 331.82 53.3917C333.99 53.9922 336.16 54.5628 338.33 55.1534L340.33 57.1553L344.11 58.1562L347.65 57.5056L354.15 58.5065V59.7177C354.15 59.7177 355.93 60.1381 356.29 60.2081C356.65 60.2782 365.63 60.2081 365.63 60.2081L367.17 61.4893L371.17 61.8397L374.84 63.7615L378.15 63.2009L382.29 64.4722H386L389.31 65.1828L390.31 66.8244L394.57 66.464L399.89 68.4659L400.6 69.3868L404.26 68.8963L408.76 70.1776L409.58 71.1785H415.74L416.33 72.8801L421.89 73.6709H425.55V72.74L428.55 73.0203L430.2 74.0212H433.99L439.43 75.5527Z" fill="#040707"/>
<path d="M1440 71.9792H0V94.0001H1440V71.9792Z" fill="#040707"/>
<path d="M1065 74.9521C1065.08 74.9618 1065.16 74.9618 1065.24 74.9521H1223.33V71.8292H1219C1218.95 71.8475 1218.89 71.8475 1218.84 71.8292C1218.81 71.7923 1218.79 71.7472 1218.78 71.699C1218.73 71.449 1218.64 71.2067 1218.53 70.9783C1218.46 70.7581 1218.39 70.5279 1218.31 70.3077L1217.79 68.7462C1217.77 68.6855 1217.74 68.6282 1217.7 68.5761C1217.63 68.5341 1217.55 68.5164 1217.47 68.526H1216.32C1215.93 68.5462 1215.53 68.5057 1215.15 68.4059C1214.95 68.3532 1214.77 68.2575 1214.61 68.1256C1214.46 68.0055 1214.38 67.6552 1214.24 67.5951C1214.16 67.5699 1214.08 67.5699 1214 67.5951C1213.6 67.7393 1213.22 67.9273 1212.87 68.1557C1212.43 68.3759 1211.77 68.496 1211.43 68.0156C1211.29 67.8254 1210.83 67.3549 1210.76 67.2348C1210.47 66.9611 1210.13 66.7379 1209.76 66.5742C1209.44 66.4541 1209.37 66.5742 1208.88 66.5742C1208.39 66.5742 1207.76 66.5742 1207.65 66.5742C1207.13 66.5742 1206.65 66.1137 1206.12 65.9536C1205.53 65.7635 1204.89 65.8028 1204.33 66.0637L1203.99 66.2339C1203.17 66.5249 1202.28 66.5837 1201.42 66.404C1200.7 66.217 1199.99 65.9932 1199.29 65.7334C1198.54 65.5503 1197.77 65.4463 1196.99 65.4231C1196.29 65.3759 1195.59 65.4713 1194.93 65.7033C1194.26 65.9338 1193.54 66.0323 1192.83 65.9936C1192.3 65.9936 1191.77 65.9936 1191.24 65.9936C1190.74 66.0175 1190.25 66.1016 1189.77 66.2439C1189.74 66.2539 1189.7 66.2539 1189.67 66.2439C1189.63 66.2266 1189.59 66.1991 1189.56 66.1638C1189.24 65.8155 1188.84 65.545 1188.4 65.373C1187.96 65.1464 1187.46 65.046 1186.96 65.0828C1186.56 65.1528 1186.17 65.2329 1185.78 65.323C1185.5 65.4183 1185.2 65.4952 1184.91 65.5532C1184.56 65.5898 1184.2 65.6066 1183.85 65.6033C1183.15 65.5665 1182.44 65.6203 1181.75 65.7634C1181.34 65.8735 1180.94 66.0437 1180.54 66.1738C1179.83 66.3553 1179.11 66.4726 1178.38 66.5241C1178.16 66.5241 1177.94 66.5241 1177.72 66.5842C1177.49 66.658 1177.25 66.6985 1177.01 66.7043C1176.88 66.676 1176.76 66.6323 1176.64 66.5742C1176.11 66.3331 1175.53 66.1971 1174.95 66.1738C1173.82 66.2363 1172.7 66.414 1171.6 66.7043C1171.29 66.7899 1170.99 66.9399 1170.74 67.1447C1170.42 67.3449 1170.11 67.5451 1169.74 67.7253C1169.3 67.9488 1168.87 68.1961 1168.45 68.466C1168.02 68.7863 1167.72 69.3368 1167.25 69.577C1166.64 69.8271 1165.99 70.0084 1165.34 70.1175L1163.29 70.648C1163.05 70.7078 1162.81 70.7078 1162.57 70.648C1162.42 70.6035 1162.26 70.6035 1162.11 70.648C1162.06 70.648 1162 70.7381 1161.95 70.7481C1161.9 70.7581 1161.77 70.6881 1161.7 70.658C1161.57 70.6043 1161.43 70.5834 1161.29 70.5974C1161.14 70.6114 1161.01 70.6597 1160.89 70.7381C1160.89 70.628 1160.75 70.608 1160.67 70.658C1160.59 70.7081 1160.48 70.7781 1160.4 70.7081C1160.32 70.638 1160.4 70.608 1160.32 70.5579C1160.3 70.5145 1160.26 70.4764 1160.22 70.4458C1160.18 70.4152 1160.14 70.3928 1160.09 70.3798C1160.04 70.3667 1159.99 70.3634 1159.94 70.3699C1159.89 70.3765 1159.84 70.3927 1159.8 70.4178C1159.6 70.5079 1159.32 70.7882 1159.09 70.6981C1158.86 70.608 1158.93 70.5379 1158.84 70.4478C1158.79 70.392 1158.72 70.3513 1158.65 70.3301C1158.58 70.3089 1158.5 70.3081 1158.43 70.3277C1158.28 70.3277 1158.14 70.4979 1157.98 70.5079C1157.82 70.5179 1157.68 70.3978 1157.53 70.3978C1157.38 70.3978 1157.24 70.5079 1157.09 70.5179C1156.94 70.5279 1156.65 70.3878 1156.46 70.5179L1156.37 70.578C1156.24 70.648 1156.12 70.578 1156.01 70.4879C1155.86 70.4268 1155.69 70.4094 1155.53 70.4378C1155.02 70.562 1154.52 70.726 1154.04 70.9283C1153.34 71.1387 1152.6 71.1387 1151.9 70.9283C1151.82 70.9018 1151.74 70.885 1151.66 70.8782C1151.45 70.896 1151.25 70.9801 1151.09 71.1185V71.4288C1150.82 71.4359 1150.56 71.5044 1150.33 71.629C1150.2 71.7186 1150.06 71.7989 1149.91 71.8692C1149.77 71.8938 1149.62 71.8938 1149.48 71.8692C1149.3 71.8971 1149.13 71.9441 1148.96 72.0093L1147.82 72.3396H1147.71C1147.58 72.3396 1147.49 72.1294 1147.4 72.0393C1147.27 71.9253 1147.12 71.846 1146.95 71.8091C1146.74 71.7591 1146.52 71.7391 1146.31 71.669C1146.08 71.5662 1145.86 71.4492 1145.64 71.3187C1145.53 71.2623 1145.41 71.233 1145.28 71.233C1145.15 71.233 1145.03 71.2623 1144.92 71.3187C1144.87 71.3552 1144.82 71.3823 1144.76 71.3987C1144.66 71.3987 1144.58 71.3187 1144.5 71.2486C1144.34 71.1055 1144.16 70.9975 1143.96 70.9319C1143.75 70.8663 1143.54 70.8446 1143.33 70.8682C1143.26 70.8832 1143.2 70.8832 1143.13 70.8682C1143.07 70.8445 1143.02 70.8107 1142.97 70.7682L1142.13 70.0174C1142.09 69.9748 1142.04 69.9438 1141.98 69.9273C1141.93 69.9176 1141.88 69.9176 1141.83 69.9273C1141.55 70.012 1141.27 70.0526 1140.98 70.0475C1140.7 70.0164 1140.42 70.0914 1140.19 70.2577L1139.91 69.8473C1139.88 69.806 1139.85 69.7689 1139.81 69.7372C1139.75 69.7218 1139.7 69.7218 1139.64 69.7372H1139.17C1139.13 69.7277 1139.08 69.7277 1139.04 69.7372C1139 69.7689 1138.97 69.806 1138.94 69.8473C1138.83 69.9448 1138.71 70.0186 1138.57 70.0635C1138.44 70.1084 1138.29 70.1234 1138.15 70.1075H1137.33C1137.27 70.0877 1137.21 70.0877 1137.15 70.1075C1137.1 70.1713 1137.07 70.2424 1137.05 70.3177C1136.95 70.5479 1136.77 70.5379 1136.59 70.638C1136.38 70.7441 1136.21 70.9214 1136.12 71.1385C1136.11 71.1942 1136.08 71.2457 1136.04 71.2886C1136.01 71.324 1135.97 71.3515 1135.93 71.3687L1135.5 71.5789C1135.46 71.5895 1135.43 71.6147 1135.41 71.649C1135.41 71.649 1135.41 71.709 1135.41 71.7391C1135.41 71.7691 1135.41 72.0093 1135.34 72.0494C1135.27 72.0894 1135.08 72.0494 1134.98 72.0494C1134.84 72.0836 1134.7 72.0658 1134.57 71.9993C1134.5 71.9555 1134.45 71.8973 1134.41 71.8292L1134.16 71.4988C1134.16 71.4388 1134.07 71.3687 1134 71.3387C1133.94 71.3242 1133.88 71.3242 1133.82 71.3387C1133.49 71.3876 1133.15 71.3876 1132.82 71.3387C1132.6 71.2786 1132.46 70.8782 1132.37 70.658C1132.35 70.6178 1132.33 70.5807 1132.3 70.5479C1132.26 70.5138 1132.21 70.4928 1132.16 70.4879L1130.84 70.1475C1130.74 70.2701 1130.64 70.3871 1130.53 70.4979C1130.36 70.5611 1130.19 70.6048 1130.01 70.628L1128.82 70.9083C1128.8 71.0876 1128.73 71.259 1128.63 71.4087C1128.58 71.464 1128.53 71.5143 1128.47 71.5589C1128.26 71.6727 1128.07 71.8179 1127.9 71.9893C1127.76 72.154 1127.65 72.3357 1127.56 72.5298C1127.3 72.3781 1127.05 72.2075 1126.82 72.0193C1126.58 71.8412 1126.3 71.7494 1126 71.7591C1125.71 71.8081 1125.4 71.7698 1125.13 71.649C1124.96 71.5104 1124.77 71.3897 1124.57 71.2886C1124.46 71.2733 1124.36 71.2733 1124.25 71.2886H1123.06C1122.75 71.2886 1122.29 71.4188 1122.06 71.0584C1121.97 70.8882 1121.94 70.6981 1121.86 70.5379C1121.79 70.4155 1121.69 70.3102 1121.57 70.2291C1121.45 70.1479 1121.32 70.0928 1121.18 70.0675C1120.91 69.9974 1120.64 69.9974 1120.37 69.9374C1120.22 69.9025 1120.08 69.8415 1119.96 69.7572C1119.81 69.6229 1119.69 69.4637 1119.6 69.2867L1119.12 68.496C1119.09 68.4388 1119.05 68.3902 1119 68.3559C1118.94 68.336 1118.88 68.336 1118.82 68.3559C1118.54 68.3759 1118.27 68.3759 1117.99 68.3559C1117.77 68.2915 1117.57 68.1824 1117.4 68.0356C1117.06 67.7149 1116.67 67.4391 1116.26 67.2148C1115.94 67.1179 1115.6 67.0707 1115.26 67.0747C1115.2 67.0843 1115.13 67.0843 1115.07 67.0747C1115.01 67.0401 1114.96 66.9961 1114.91 66.9445L1113.84 65.9436C1113.81 65.8993 1113.77 65.8648 1113.72 65.845C1113.67 65.8253 1113.62 65.8212 1113.57 65.8335L1112.4 65.9136C1111.74 65.9201 1111.08 65.8048 1110.46 65.5732C1109.88 65.4168 1109.27 65.3593 1108.67 65.4031C1108.55 65.4287 1108.42 65.4287 1108.3 65.4031C1108.22 65.3582 1108.15 65.3007 1108.09 65.2329L1107.49 64.6423C1107.37 64.5047 1107.22 64.3895 1107.06 64.302C1106.82 64.2023 1106.57 64.1611 1106.31 64.1819H1103.72C1103.51 64.2005 1103.32 64.3012 1103.18 64.4622C1103.07 64.5823 1102.9 64.9126 1102.74 64.8926C1102.3 64.8862 1101.87 64.8085 1101.46 64.6624C1101.06 64.4722 1100.72 64.1819 1100.34 63.9817C1100.27 63.9361 1100.2 63.9084 1100.12 63.9016C1100.04 63.8989 1099.95 63.9161 1099.88 63.9517L1098.22 64.5623C1098.19 64.5732 1098.16 64.5943 1098.14 64.6223C1098.14 64.6223 1098.14 64.7024 1098.14 64.7525C1098.15 64.9791 1098.15 65.2065 1098.14 65.4331C1098.14 65.4672 1098.14 65.5015 1098.13 65.5342C1098.12 65.5668 1098.1 65.5971 1098.08 65.6233C1098.03 65.6428 1097.98 65.6428 1097.93 65.6233H1096.83L1095.92 66.2439C1095.74 66.3841 1095.53 66.4709 1095.31 66.4941C1095.11 66.4941 1094.9 66.4941 1094.7 66.5742C1094.5 66.6543 1094.34 66.5742 1094.17 66.6242C1094.1 66.6384 1094.03 66.6669 1093.97 66.7081C1093.9 66.7494 1093.85 66.8025 1093.81 66.8644C1093.73 67.0146 1093.72 67.2348 1093.58 67.3249C1093.52 67.3398 1093.47 67.3398 1093.41 67.3249L1092.41 67.455C1092.27 67.4678 1092.13 67.4912 1092 67.5251C1091.77 67.5847 1091.55 67.6721 1091.34 67.7853C1091.17 67.9063 1090.99 68.0071 1090.8 68.0856C1090.59 68.1207 1090.39 68.1207 1090.18 68.0856L1088.75 67.9755C1088.73 67.9839 1088.7 67.9839 1088.68 67.9755C1088.65 67.9462 1088.63 67.9076 1088.62 67.8654C1088.53 67.5251 1088.46 67.1547 1088.35 66.8144C1088.3 66.6925 1088.23 66.5815 1088.14 66.4884C1088.05 66.3954 1087.94 66.3223 1087.82 66.2739C1087.61 66.1519 1087.41 66.0112 1087.23 65.8535C1087.15 65.7693 1087.04 65.7074 1086.93 65.6733C1086.86 65.663 1086.78 65.663 1086.71 65.6733L1085.71 65.7934C1085.41 65.7934 1085.07 65.7935 1084.83 65.9836C1084.71 66.1078 1084.63 66.2543 1084.57 66.414L1084.36 66.8745C1084.34 66.9147 1084.32 66.9518 1084.29 66.9846C1084.24 66.9996 1084.18 66.9996 1084.13 66.9846H1083.29C1083.13 66.9694 1082.97 66.9694 1082.81 66.9846C1082.69 67.0107 1082.58 67.0475 1082.47 67.0947C1082.1 67.2615 1081.73 67.4053 1081.34 67.5251C1080.93 67.595 1080.51 67.6151 1080.1 67.5851C1080.04 67.595 1079.98 67.595 1079.92 67.5851C1079.85 67.5619 1079.79 67.5244 1079.74 67.475L1078.63 66.5541C1078.57 66.4961 1078.51 66.4516 1078.43 66.424H1076.56C1076.52 66.4426 1076.49 66.4702 1076.47 66.5041C1076.14 66.8064 1075.94 67.2213 1075.91 67.6652C1075.63 67.6543 1075.36 67.743 1075.14 67.9155C1074.91 68.0656 1074.7 68.2558 1074.46 68.3859C1074.3 68.4505 1074.15 68.5457 1074.03 68.6662C1073.9 68.8263 1073.82 69.1466 1073.57 69.1166C1073.52 69.1074 1073.48 69.1074 1073.43 69.1166C1073.33 69.1166 1073.26 69.2067 1073.19 69.2867C1073.06 69.4381 1072.91 69.5726 1072.75 69.6871C1072.2 69.952 1071.71 70.3227 1071.3 70.7781C1071.24 70.8849 1071.16 70.9747 1071.06 71.0384C1071 71.0657 1070.93 71.0797 1070.85 71.0797C1070.78 71.0797 1070.71 71.0657 1070.65 71.0384C1070.59 71.0231 1070.54 71.0231 1070.48 71.0384C1070.44 71.052 1070.4 71.0761 1070.37 71.1085C1070.08 71.3587 1069.73 71.7991 1069.37 71.8992C1069.01 71.9993 1068.87 71.8992 1068.64 71.9493C1068.48 72.0152 1068.33 72.1179 1068.21 72.2495C1067.98 72.4553 1067.72 72.6365 1067.45 72.7901C1067.27 72.8708 1067.09 72.968 1066.92 73.0803C1066.71 73.2505 1066.73 73.6309 1066.8 73.8811H1066.54C1066.36 73.846 1066.17 73.846 1065.99 73.8811C1065.7 73.9512 1065.59 74.1914 1065.4 74.4016C1065.42 74.3515 1065 74.9421 1065 74.9521Z" fill="#040707"/>
<path d="M549.711 72.9703H708.001V71.4588H703.681C703.628 71.4699 703.574 71.4699 703.521 71.4588C703.521 71.4588 703.521 71.4588 703.451 71.3988C703.381 71.3387 703.271 71.1486 703.211 71.0485C703.151 70.9484 703.061 70.8283 702.981 70.7282C702.811 70.4679 702.631 70.2177 702.461 69.9674C702.441 69.9312 702.409 69.9029 702.371 69.8874C702.298 69.872 702.223 69.872 702.151 69.8874H701.001C700.613 69.8929 700.226 69.8728 699.841 69.8273C699.652 69.8045 699.467 69.7573 699.291 69.6872C699.151 69.6271 699.061 69.4569 698.921 69.4269H698.691C698.306 69.4946 697.925 69.5849 697.551 69.6972C697.079 69.8496 696.568 69.8283 696.111 69.6371C695.971 69.537 695.521 69.3068 695.451 69.2568C695.133 69.1072 694.797 68.9996 694.451 68.9365C694.161 68.9159 693.871 68.9159 693.581 68.9365C693.081 68.9365 692.451 68.9365 692.351 68.9365C691.833 68.8837 691.321 68.7832 690.821 68.6362C690.223 68.5423 689.613 68.5593 689.021 68.6862L688.681 68.7663C687.836 68.9119 686.974 68.9422 686.121 68.8564C685.381 68.7963 684.711 68.6161 683.991 68.5261C683.224 68.4355 682.453 68.3854 681.681 68.3759C680.992 68.3585 680.302 68.402 679.621 68.5061C678.928 68.6267 678.224 68.677 677.521 68.6562C676.991 68.6562 676.521 68.6562 675.941 68.6562C675.449 68.6705 674.958 68.7106 674.471 68.7763H674.361H674.261C673.893 68.5899 673.498 68.4616 673.091 68.3959C672.62 68.2802 672.136 68.2297 671.651 68.2458L670.481 68.3659C670.181 68.3659 669.911 68.466 669.601 68.486C669.291 68.5061 668.901 68.486 668.541 68.486C667.84 68.4676 667.138 68.4943 666.441 68.5661C666.031 68.6162 665.641 68.6962 665.231 68.7563C664.531 68.8664 663.791 68.8864 663.081 68.9264C662.861 68.9264 662.631 68.9264 662.411 68.9264C662.176 68.9671 661.939 68.9873 661.701 68.9865C661.571 68.9865 661.451 68.9865 661.331 68.9264C660.778 68.8081 660.216 68.7411 659.651 68.7263C658.511 68.7263 657.411 68.8964 656.291 68.9865C655.998 69.0282 655.71 69.0986 655.431 69.1967L654.431 69.487C654.001 69.5971 653.551 69.6972 653.151 69.8373C652.778 70.0291 652.394 70.1996 652.001 70.3478C651.369 70.4667 650.732 70.5535 650.091 70.6081L648.091 70.8683C647.849 70.898 647.603 70.898 647.361 70.8683C647.212 70.8483 647.06 70.8483 646.911 70.8683H646.741C646.661 70.8779 646.581 70.8779 646.501 70.8683C646.234 70.8077 645.958 70.8077 645.691 70.8683C645.691 70.8182 645.551 70.8082 645.461 70.8683C645.377 70.8973 645.285 70.8973 645.201 70.8683C645.201 70.8683 645.141 70.8183 645.121 70.7982C645.043 70.7496 644.955 70.7182 644.863 70.7061C644.772 70.6941 644.679 70.7016 644.591 70.7282C644.367 70.8149 644.131 70.8623 643.891 70.8683C643.803 70.8351 643.719 70.7915 643.641 70.7382C643.511 70.6869 643.37 70.6663 643.231 70.6781C643.08 70.7177 642.926 70.7479 642.771 70.7682C642.621 70.7682 642.481 70.7682 642.331 70.7682C642.181 70.7682 642.041 70.7682 641.881 70.8283C641.675 70.8034 641.467 70.8034 641.261 70.8283H641.161C641.039 70.8418 640.915 70.8246 640.801 70.7782C640.642 70.758 640.48 70.758 640.321 70.7782C639.821 70.833 639.323 70.9132 638.831 71.0184C638.121 71.1185 637.401 71.1185 636.691 71.0184H636.461C636.262 71.0263 636.066 71.0669 635.881 71.1386V71.2887C635.624 71.2912 635.369 71.3248 635.121 71.3888L634.711 71.4989C634.565 71.5138 634.417 71.5138 634.271 71.4989C634.1 71.5084 633.93 71.5285 633.761 71.5589L632.621 71.7191H632.511C632.371 71.7191 632.291 71.619 632.191 71.579C632.049 71.5142 631.897 71.4736 631.741 71.4588C631.531 71.4588 631.311 71.4588 631.101 71.3988C630.891 71.3387 630.661 71.2787 630.431 71.2286C630.197 71.1736 629.954 71.1736 629.721 71.2286H629.561C629.466 71.2314 629.372 71.2071 629.291 71.1586C628.923 71.0094 628.526 70.9477 628.131 70.9784C628.061 70.9834 627.991 70.9834 627.921 70.9784H627.771L626.921 70.6081H626.771H626.621C626.343 70.6483 626.062 70.6684 625.781 70.6681C625.51 70.6536 625.24 70.6875 624.981 70.7682L624.711 70.568L624.611 70.518C624.555 70.5076 624.497 70.5076 624.441 70.518H623.841L623.731 70.578C623.484 70.6784 623.217 70.7195 622.951 70.6981H622.121C622.064 70.6925 622.007 70.6925 621.951 70.6981C621.891 70.6981 621.881 70.7582 621.841 70.7982C621.801 70.8383 621.561 70.8983 621.381 70.9484C621.206 70.9831 621.045 71.0704 620.921 71.1986L620.841 71.2687H620.721L620.301 71.3688C620.269 71.3573 620.233 71.3573 620.201 71.3688C620.201 71.3688 620.201 71.5089 620.131 71.5289C620.008 71.539 619.884 71.539 619.761 71.5289C619.625 71.5488 619.487 71.5488 619.351 71.5289C619.295 71.5083 619.241 71.4814 619.191 71.4488L618.941 71.2887C618.893 71.2522 618.839 71.225 618.781 71.2086H618.601C618.268 71.2303 617.934 71.2303 617.601 71.2086C617.416 71.157 617.256 71.0395 617.151 70.8783C617.128 70.8737 617.104 70.8737 617.081 70.8783C617.038 70.8691 616.994 70.8691 616.951 70.8783L615.631 70.7081C615.528 70.7712 615.421 70.8281 615.311 70.8783C615.139 70.9128 614.966 70.9362 614.791 70.9484L613.611 71.0785C613.576 71.1828 613.505 71.2713 613.411 71.3287L613.251 71.3988C613.056 71.4444 612.868 71.515 612.691 71.609C612.563 71.6792 612.445 71.7668 612.341 71.8692H612.271C612.011 71.8092 611.781 71.6991 611.531 71.619C611.27 71.5316 610.996 71.491 610.721 71.4989C610.426 71.5142 610.131 71.494 609.841 71.4388C609.658 71.3702 609.471 71.3134 609.281 71.2687C609.178 71.2588 609.074 71.2588 608.971 71.2687H607.771C607.461 71.2687 607.001 71.3287 606.821 71.1586C606.641 70.9884 606.711 70.9784 606.621 70.8983C606.418 70.766 606.183 70.69 605.941 70.6781C605.681 70.6781 605.401 70.6781 605.131 70.6081C604.845 70.6014 604.572 70.4911 604.361 70.2978L603.881 69.9174C603.851 69.8804 603.808 69.8556 603.761 69.8473C603.705 69.837 603.647 69.837 603.591 69.8473C603.314 69.8623 603.037 69.8623 602.761 69.8473C602.555 69.8258 602.353 69.7753 602.161 69.6972C601.798 69.5279 601.42 69.3938 601.031 69.2968C600.7 69.2518 600.365 69.2317 600.031 69.2368H599.851C599.792 69.2228 599.735 69.2027 599.681 69.1767L598.621 68.6762L598.491 68.6262H598.341H597.171C596.521 68.6255 595.871 68.5685 595.231 68.456C594.638 68.379 594.039 68.3522 593.441 68.3759C593.318 68.3859 593.194 68.3859 593.071 68.3759C593.001 68.3571 592.934 68.3302 592.871 68.2959L592.271 68.0056C592.133 67.9369 591.989 67.8799 591.841 67.8354C591.59 67.7929 591.335 67.7761 591.081 67.7854H588.501C588.312 67.7853 588.126 67.8335 587.961 67.9255C587.841 67.9855 587.681 68.1457 587.511 68.1357C587.082 68.1269 586.654 68.0868 586.231 68.0156C585.841 67.9255 585.491 67.7954 585.111 67.6853H584.901C584.821 67.6749 584.741 67.6749 584.661 67.6853L583.001 67.9856H582.911C582.902 68.0082 582.902 68.033 582.911 68.0556C582.931 68.1648 582.931 68.2767 582.911 68.3859C582.912 68.4054 582.907 68.4248 582.896 68.441C582.885 68.4573 582.869 68.4696 582.851 68.476C582.801 68.4866 582.75 68.4866 582.701 68.476H581.601L580.701 68.7763C580.502 68.849 580.293 68.8895 580.081 68.8964H579.471C579.301 68.8964 579.121 68.8964 578.941 68.8964C578.816 68.907 578.696 68.9483 578.591 69.0165C578.501 69.0866 578.491 69.1967 578.351 69.2368C578.295 69.2471 578.237 69.2471 578.181 69.2368L577.181 69.2968H576.761C576.538 69.3247 576.318 69.3682 576.101 69.4269C575.921 69.4269 575.761 69.537 575.561 69.5671C575.355 69.5871 575.147 69.5871 574.941 69.5671L573.521 69.517H573.441C573.429 69.5131 573.419 69.5065 573.41 69.4978C573.401 69.4891 573.395 69.4786 573.391 69.467C573.301 69.2968 573.221 69.1266 573.121 68.9565C572.975 68.8118 572.785 68.7202 572.581 68.6962L572.001 68.496C571.906 68.4504 571.805 68.42 571.701 68.406H571.471C571.141 68.406 570.811 68.456 570.471 68.466C570.175 68.4542 569.879 68.4845 569.591 68.5561C569.49 68.6071 569.402 68.6787 569.331 68.7663L569.121 68.9865C569.105 69.0139 569.08 69.035 569.051 69.0466H568.051C567.891 69.0366 567.731 69.0366 567.571 69.0466H567.231C566.858 69.1377 566.481 69.2079 566.101 69.2568C565.691 69.2819 565.281 69.2819 564.871 69.2568H564.681L564.511 69.2067L563.401 68.7563C563.336 68.7303 563.269 68.7103 563.201 68.6962H561.321H561.231C560.941 68.8464 560.671 69.0265 560.671 69.2568C560.412 69.2445 560.153 69.2854 559.911 69.3769C559.681 69.4469 559.471 69.547 559.221 69.6071C559.077 69.637 558.936 69.6805 558.801 69.7372C558.661 69.8173 558.581 69.9774 558.331 69.9574H558.191C558.109 69.9655 558.03 69.993 557.961 70.0375C557.818 70.1199 557.668 70.187 557.511 70.2377C557.009 70.3484 556.525 70.5269 556.071 70.7682C556.001 70.8259 555.919 70.8669 555.831 70.8883C555.696 70.9167 555.556 70.9167 555.421 70.8883H555.241C555.204 70.8838 555.167 70.8838 555.131 70.8883C554.817 71.0612 554.48 71.1892 554.131 71.2687C553.891 71.2687 553.631 71.2687 553.391 71.2687C553.244 71.2926 553.103 71.3399 552.971 71.4088C552.731 71.5089 552.471 71.599 552.211 71.679C551.951 71.7591 551.831 71.7491 551.671 71.8092C551.634 71.8234 551.601 71.8457 551.575 71.8745C551.548 71.9032 551.528 71.9377 551.516 71.9753C551.505 72.0128 551.502 72.0525 551.508 72.0914C551.514 72.1302 551.529 72.1672 551.551 72.1996H551.291C551.108 72.1846 550.924 72.1846 550.741 72.1996C550.532 72.2402 550.334 72.3256 550.161 72.4498C549.999 72.613 549.849 72.7869 549.711 72.9703Z" fill="#040707"/>
<path d="M383.309 75.4226C383.389 75.4322 383.47 75.4322 383.549 75.4226H541.639V72.3497H537.309C537.257 72.368 537.201 72.368 537.149 72.3497C537.119 72.3153 537.099 72.274 537.089 72.2296C537.039 71.9836 536.959 71.7448 536.849 71.5189C536.769 71.2987 536.699 71.0684 536.619 70.8482L536.099 69.3168C536.077 69.2592 536.047 69.2052 536.009 69.1566C535.977 69.132 535.94 69.114 535.9 69.1037C535.861 69.0934 535.82 69.091 535.779 69.0966H534.629C534.236 69.1117 533.842 69.0712 533.459 68.9765C533.261 68.9238 533.077 68.8281 532.919 68.6962C532.769 68.5761 532.689 68.2358 532.549 68.1757C532.472 68.1455 532.386 68.1455 532.309 68.1757C531.913 68.3163 531.534 68.5009 531.179 68.7262C530.739 68.9364 530.079 69.0666 529.739 68.5961C529.599 68.3959 529.139 67.9355 529.069 67.8254C528.779 67.5486 528.44 67.328 528.069 67.1748C527.749 67.0546 527.679 67.1748 527.189 67.1748C526.699 67.1748 526.069 67.1247 525.959 67.1247C525.439 67.1247 524.959 66.6743 524.429 66.5241C523.84 66.3341 523.201 66.3734 522.639 66.6343L522.299 66.7944C521.474 67.0854 520.585 67.1443 519.729 66.9646C518.999 66.8545 518.329 66.4841 517.599 66.3039C516.844 66.1257 516.074 66.0218 515.299 65.9936C514.601 65.9516 513.901 66.0468 513.239 66.2739C512.564 66.5043 511.851 66.6029 511.139 66.5642C510.609 66.5642 510.079 66.5642 509.549 66.5642C509.052 66.5979 508.56 66.6818 508.079 66.8144C508.047 66.8251 508.012 66.8251 507.979 66.8144C507.937 66.7972 507.899 66.7697 507.869 66.7344C507.548 66.39 507.151 66.1259 506.709 65.9636C506.265 65.737 505.767 65.6366 505.269 65.6733C504.869 65.7434 504.479 65.8235 504.089 65.9136C503.699 66.0037 503.519 66.1037 503.219 66.1438C502.866 66.1638 502.512 66.1638 502.159 66.1438C501.455 66.107 500.75 66.1609 500.059 66.3039C499.649 66.404 499.259 66.5842 498.849 66.7043C498.14 66.881 497.418 66.9982 496.689 67.0546L496.029 67.1147C495.8 67.1903 495.56 67.2275 495.319 67.2248C495.19 67.201 495.065 67.1571 494.949 67.0947C494.413 66.867 493.841 66.7349 493.259 66.7043C492.128 66.7642 491.005 66.9386 489.909 67.2248C489.597 67.3145 489.305 67.4641 489.049 67.6652C488.729 67.8654 488.419 68.0556 488.049 68.2358C487.606 68.4559 487.176 68.6998 486.759 68.9665C486.329 69.2767 486.029 69.8173 485.559 70.0575C484.942 70.2994 484.302 70.4772 483.649 70.588L481.649 71.1085C481.413 71.1682 481.166 71.1682 480.929 71.1085C480.779 71.064 480.619 71.064 480.469 71.1085C480.419 71.1085 480.369 71.1986 480.309 71.2086C480.249 71.2186 480.129 71.1485 480.059 71.1185C479.927 71.0695 479.785 71.0512 479.645 71.0651C479.505 71.079 479.369 71.1246 479.249 71.1986C479.249 71.0885 479.109 71.0784 479.029 71.1185C478.949 71.1585 478.839 71.2386 478.759 71.1686C478.679 71.0985 478.759 71.0785 478.679 71.0184C478.626 70.9343 478.542 70.874 478.445 70.8498C478.348 70.8256 478.246 70.8393 478.159 70.8883C477.959 70.9684 477.679 71.2486 477.449 71.1686C477.219 71.0885 477.289 70.9984 477.199 70.9183C477.149 70.8625 477.083 70.8218 477.011 70.8006C476.939 70.7794 476.862 70.7786 476.789 70.7982C476.639 70.7982 476.499 70.9583 476.339 70.9683C476.179 70.9784 476.039 70.8682 475.889 70.8682C475.74 70.8989 475.593 70.9391 475.449 70.9884C475.239 70.9884 475.009 70.8583 474.819 70.9884L474.729 71.0484C474.599 71.1085 474.479 70.9984 474.369 70.9483C474.212 70.9093 474.047 70.9093 473.889 70.9483C473.382 71.0771 472.884 71.2409 472.399 71.4388C471.701 71.6492 470.957 71.6492 470.259 71.4388C470.182 71.4123 470.101 71.3955 470.019 71.3888C469.81 71.4037 469.61 71.4842 469.449 71.619V71.9193C469.183 71.9302 468.923 72.0021 468.689 72.1295C468.555 72.2159 468.414 72.2929 468.269 72.3597C468.128 72.3945 467.98 72.3945 467.839 72.3597C467.661 72.3876 467.487 72.4346 467.319 72.4998L466.189 72.8301C466.15 72.8399 466.109 72.8399 466.069 72.8301C465.939 72.8301 465.849 72.6299 465.759 72.5398C465.631 72.4258 465.476 72.3465 465.309 72.3096C465.099 72.2596 464.879 72.2496 464.669 72.1795C464.439 72.0767 464.215 71.9597 463.999 71.8292C463.887 71.7751 463.764 71.7469 463.639 71.7469C463.515 71.7469 463.392 71.7751 463.279 71.8292C463.229 71.8585 463.175 71.882 463.119 71.8992C463.019 71.8992 462.939 71.8292 462.859 71.7591C462.702 71.616 462.517 71.508 462.315 71.4424C462.113 71.3768 461.9 71.3551 461.689 71.3787C461.623 71.3938 461.555 71.3938 461.489 71.3787C461.43 71.355 461.376 71.3211 461.329 71.2786L460.489 70.5379C460.448 70.4953 460.396 70.4643 460.339 70.4479C460.29 70.4382 460.239 70.4382 460.189 70.4479C459.914 70.5325 459.627 70.5731 459.339 70.568C459.06 70.5467 458.781 70.6207 458.549 70.7782L458.269 70.3778C458.245 70.3368 458.215 70.2997 458.179 70.2677C458.12 70.2533 458.058 70.2533 457.999 70.2677H457.529C457.486 70.2582 457.442 70.2582 457.399 70.2677C457.359 70.297 457.325 70.3345 457.299 70.3778C457.193 70.4736 457.068 70.5455 456.931 70.5887C456.795 70.6318 456.651 70.6453 456.509 70.628H455.689C455.634 70.6073 455.574 70.6073 455.519 70.628C455.467 70.6889 455.43 70.7607 455.409 70.8382C455.309 71.0584 455.129 71.0484 454.949 71.1485C454.739 71.2546 454.572 71.4319 454.479 71.649C454.463 71.7008 454.435 71.7485 454.399 71.7891C454.37 71.8245 454.332 71.852 454.289 71.8692L453.859 72.0694C453.825 72.087 453.795 72.1107 453.769 72.1395C453.765 72.1693 453.765 72.1997 453.769 72.2296C453.769 72.2996 453.769 72.4998 453.709 72.5398C453.649 72.5799 453.439 72.5398 453.339 72.5398C453.201 72.569 453.057 72.5514 452.929 72.4898C452.864 72.446 452.809 72.3878 452.769 72.3196L452.519 71.9993C452.482 71.932 452.426 71.8765 452.359 71.8392C452.3 71.8247 452.238 71.8247 452.179 71.8392C451.848 71.8881 451.511 71.8881 451.179 71.8392C450.959 71.7791 450.819 71.3888 450.729 71.1686C450.712 71.1283 450.688 71.0912 450.659 71.0584C450.618 71.0284 450.57 71.0079 450.519 70.9984L449.209 70.6681C449.209 70.6681 448.939 70.9884 448.889 71.0084C448.721 71.0716 448.547 71.1153 448.369 71.1385L447.179 71.4188C447.154 71.5946 447.089 71.7623 446.989 71.9092C446.989 71.9693 446.879 72.0093 446.829 72.0594C446.619 72.1696 446.427 72.3114 446.259 72.4798C446.125 72.6425 446.011 72.8206 445.919 73.0103C445.658 72.8656 445.411 72.6981 445.179 72.5098C444.943 72.3345 444.653 72.2462 444.359 72.2596C444.064 72.3005 443.763 72.2589 443.489 72.1395C443.315 72.0041 443.127 71.8867 442.929 71.7891C442.823 71.7738 442.715 71.7738 442.609 71.7891H441.419C441.109 71.7891 440.649 71.8992 440.469 71.5489C440.379 71.3888 440.349 71.1986 440.269 71.0384C440.195 70.9179 440.096 70.8145 439.979 70.7351C439.861 70.6558 439.729 70.6022 439.589 70.578C439.319 70.5079 439.049 70.5079 438.779 70.4479C438.631 70.4174 438.492 70.356 438.369 70.2677C438.223 70.1408 438.101 69.9881 438.009 69.8173L437.529 69.0265C437.498 68.9731 437.457 68.9257 437.409 68.8864C437.35 68.8716 437.288 68.8716 437.229 68.8864C436.956 68.9114 436.682 68.9114 436.409 68.8864C436.188 68.8242 435.984 68.7149 435.809 68.5661C435.467 68.2494 435.083 67.9801 434.669 67.7653C434.345 67.6685 434.008 67.6212 433.669 67.6252C433.606 67.6348 433.542 67.6348 433.479 67.6252C433.419 67.5906 433.365 67.5467 433.319 67.4951L432.249 66.4941C432.219 66.4527 432.177 66.421 432.129 66.4032C432.081 66.3854 432.029 66.3822 431.979 66.394L430.809 66.4741C430.148 66.4793 429.491 66.3674 428.869 66.1438C428.288 65.9791 427.682 65.9181 427.079 65.9636C426.958 65.9989 426.83 65.9989 426.709 65.9636C426.631 65.9226 426.56 65.8684 426.499 65.8035L425.899 65.2229C425.778 65.0878 425.636 64.9729 425.479 64.8826C425.239 64.7839 424.978 64.7428 424.719 64.7625H422.099C421.889 64.7811 421.695 64.8818 421.559 65.0428C421.449 65.1629 421.289 65.4932 421.119 65.4732C420.682 65.4636 420.25 65.3825 419.839 65.2329C419.439 65.0528 419.099 64.7725 418.719 64.5723C418.654 64.5267 418.578 64.499 418.499 64.4922C418.416 64.4895 418.334 64.5067 418.259 64.5423L416.599 65.1428C416.567 65.1538 416.539 65.1748 416.519 65.2029C416.519 65.2029 416.519 65.283 416.519 65.333C416.534 65.5563 416.534 65.7804 416.519 66.0037C416.523 66.0362 416.519 66.0691 416.509 66.1002C416.498 66.1313 416.481 66.1598 416.459 66.1838C416.411 66.2033 416.357 66.2033 416.309 66.1838C415.939 66.1838 415.579 66.1838 415.209 66.1838L414.309 66.7944C414.127 66.9278 413.913 67.0106 413.689 67.0346C413.489 67.0346 413.279 67.0346 413.079 67.1147C412.879 67.1948 412.719 67.1147 412.549 67.1147C412.476 67.1288 412.407 67.1574 412.345 67.1986C412.283 67.2398 412.23 67.293 412.189 67.3549C412.109 67.5051 412.099 67.7253 411.959 67.8054C411.906 67.8325 411.849 67.8494 411.789 67.8554L410.789 67.9755L410.379 68.0456C410.15 68.107 409.929 68.1942 409.719 68.3058C409.549 68.42 409.368 68.5172 409.179 68.5961C408.974 68.6312 408.764 68.6312 408.559 68.5961L407.129 68.496H407.059C407.022 68.4544 407.001 68.4014 406.999 68.3459C406.909 68.0056 406.839 67.6452 406.739 67.3449C406.638 67.1003 406.444 66.906 406.199 66.8044C405.99 66.6861 405.793 66.5487 405.609 66.394C405.528 66.3122 405.429 66.2505 405.319 66.2138C405.243 66.2039 405.166 66.2039 405.089 66.2138L404.089 66.334C403.789 66.334 403.449 66.334 403.209 66.5241C403.094 66.6445 403.006 66.7878 402.949 66.9446L402.739 67.395C402.722 67.4352 402.698 67.4724 402.669 67.5051C402.617 67.5201 402.562 67.5201 402.509 67.5051H401.669C401.51 67.4899 401.349 67.4899 401.189 67.5051C401.073 67.5312 400.959 67.568 400.849 67.6152C400.48 67.7744 400.103 67.9148 399.719 68.0356C399.31 68.1055 398.893 68.1256 398.479 68.0956C398.42 68.1055 398.359 68.1055 398.299 68.0956C398.232 68.0725 398.171 68.0349 398.119 67.9855L397.019 67.0847C396.961 67.025 396.889 66.9804 396.809 66.9545C396.756 66.9448 396.702 66.9448 396.649 66.9545H395.059C395.02 66.9448 394.979 66.9448 394.939 66.9545C394.903 66.9731 394.872 67.0007 394.849 67.0346C394.524 67.3252 394.323 67.7305 394.289 68.1657C394.012 68.1643 393.742 68.252 393.519 68.4159C393.289 68.5661 393.079 68.7563 392.839 68.8864C392.681 68.951 392.536 69.0424 392.409 69.1566C392.279 69.3168 392.199 69.6371 391.949 69.6071H391.809C391.711 69.6312 391.625 69.6921 391.569 69.7772C391.44 69.9286 391.292 70.0631 391.129 70.1776C390.58 70.4352 390.087 70.7992 389.679 71.2486C389.625 71.3526 389.546 71.4419 389.449 71.5089C389.313 71.5539 389.166 71.5539 389.029 71.5089C388.974 71.489 388.914 71.489 388.859 71.5089C388.817 71.5225 388.779 71.5466 388.749 71.5789C388.459 71.8192 388.109 72.2596 387.749 72.3497C387.389 72.4397 387.249 72.3496 387.019 72.3997C386.857 72.4656 386.711 72.5644 386.589 72.69C386.355 72.8958 386.1 73.0769 385.829 73.2305C385.645 73.3079 385.467 73.4017 385.299 73.5108C385.211 73.62 385.153 73.7508 385.132 73.8898C385.111 74.0288 385.127 74.1709 385.179 74.3015H384.919C384.738 74.2664 384.551 74.2664 384.369 74.3015C384.079 74.3716 383.979 74.6018 383.779 74.812C383.749 74.812 383.289 75.4126 383.309 75.4226Z" fill="#040707"/>
<path d="M699.93 72.3496H858.26V71.5088H853.78C853.757 71.5157 853.733 71.5157 853.71 71.5088C853.71 71.4587 853.53 71.3686 853.47 71.3186L853.24 71.1384L852.72 70.718C852.69 70.7088 852.659 70.7088 852.63 70.718C852.557 70.7076 852.483 70.7076 852.41 70.718H851.25C850.86 70.718 850.46 70.718 850.09 70.718C849.905 70.7041 849.721 70.6774 849.54 70.6379C849.4 70.6379 849.31 70.5078 849.17 70.4978H848.94C848.53 70.4978 848.18 70.5879 847.8 70.6379C847.324 70.7342 846.835 70.7342 846.36 70.6379L845.7 70.4277C845.371 70.3445 845.037 70.2843 844.7 70.2476C844.39 70.2476 844.32 70.2476 843.83 70.2476H842.6C842.087 70.2228 841.576 70.166 841.07 70.0774C840.471 70.0172 839.868 70.0172 839.27 70.0774H838.93C838.079 70.1545 837.223 70.1712 836.37 70.1275C835.63 70.1275 834.96 69.9873 834.24 69.9473C833.52 69.9073 832.71 69.8672 831.93 69.8572C831.242 69.8451 830.555 69.8685 829.87 69.9273C829.172 69.9929 828.471 70.023 827.77 70.0174C827.24 70.0174 826.77 70.0174 826.19 70.0174C825.61 70.0174 825.19 70.0174 824.72 70.0774H824.61H824.51C824.125 69.9793 823.734 69.909 823.34 69.8672C822.862 69.8048 822.381 69.778 821.9 69.7871L820.73 69.8572C820.43 69.8572 820.16 69.9073 819.85 69.9173H818.8C818.1 69.9173 817.39 69.9173 816.7 69.9173L815.49 70.0274C814.79 70.0874 814.05 70.0974 813.34 70.1174H812.67C812.44 70.1174 812.21 70.1174 811.96 70.1174H811.59C811.032 70.053 810.471 70.0196 809.91 70.0174C808.77 70.0174 807.67 70.1074 806.55 70.1575C806.26 70.1751 805.973 70.2152 805.69 70.2776C805.38 70.3276 805.06 70.3877 804.69 70.4277C804.32 70.4678 803.81 70.5479 803.41 70.6279C803.01 70.708 802.68 70.8681 802.2 70.9282C801.72 70.9883 800.91 71.0283 800.29 71.0784L798.29 71.2185C798.047 71.2336 797.803 71.2336 797.56 71.2185C797.41 71.2035 797.259 71.2035 797.11 71.2185H796.94H796.7C796.431 71.1881 796.159 71.1881 795.89 71.2185C795.89 71.2185 795.75 71.2185 795.66 71.2185C795.574 71.2378 795.485 71.2378 795.4 71.2185C795.373 71.2242 795.346 71.2242 795.32 71.2185C795.146 71.1744 794.964 71.1744 794.79 71.2185C794.559 71.2657 794.325 71.2925 794.09 71.2986C793.98 71.2986 793.92 71.2485 793.84 71.2285C793.704 71.2075 793.566 71.2075 793.43 71.2285C793.27 71.2285 793.13 71.2285 792.97 71.2285H792.53C792.38 71.2186 792.23 71.2186 792.08 71.2285C791.873 71.2137 791.666 71.2137 791.46 71.2285H791.36C791.241 71.2487 791.119 71.2487 791 71.2285C790.84 71.2134 790.679 71.2134 790.52 71.2285C790.01 71.2285 789.52 71.3186 789.03 71.3586C788.317 71.4137 787.602 71.4137 786.89 71.3586H786.66C786.465 71.3572 786.27 71.3774 786.08 71.4187V71.4987C785.825 71.498 785.571 71.5181 785.32 71.5588L784.91 71.6189C784.763 71.6289 784.616 71.6289 784.47 71.6189H783.96L782.82 71.7089H782.71C782.599 71.7013 782.491 71.6742 782.39 71.6289C782.242 71.5957 782.091 71.5756 781.94 71.5688H781.3L780.63 71.4687C780.394 71.4387 780.155 71.4387 779.92 71.4687H779.76C779.67 71.4798 779.579 71.4798 779.49 71.4687C779.109 71.3819 778.719 71.3482 778.33 71.3686H778.12H777.97L777.12 71.1684H776.97H776.82C776.54 71.1684 776.27 71.1684 775.98 71.1684C775.712 71.1616 775.444 71.1817 775.18 71.2285L774.91 71.1184H774.81H774.04C774.004 71.1069 773.965 71.1069 773.93 71.1184C773.673 71.1724 773.411 71.1926 773.15 71.1784H772.15C772.111 71.1941 772.074 71.2143 772.04 71.2385C771.892 71.2916 771.737 71.3186 771.58 71.3186C771.419 71.3351 771.263 71.3826 771.12 71.4587H771.04H770.92L770.5 71.5188H770.4C770.4 71.5188 770.4 71.5888 770.33 71.6089H770C769.863 71.6189 769.726 71.6189 769.59 71.6089H769.43L769.18 71.5188H769.02H768.84C768.55 71.5188 768.16 71.5188 767.84 71.5188C767.676 71.5032 767.519 71.4406 767.39 71.3386H767.32H767.19L765.87 71.2485L765.55 71.3486C765.4 71.3486 765.2 71.3486 765.03 71.3486L763.85 71.4287C763.802 71.4962 763.731 71.5429 763.65 71.5588H763.49C763.3 71.5851 763.113 71.6252 762.93 71.6789C762.809 71.7145 762.692 71.7614 762.58 71.8191H762.51L761.77 71.6789C761.503 71.6286 761.231 71.6051 760.96 71.6089C760.667 71.634 760.373 71.634 760.08 71.6089C759.895 71.5675 759.708 71.5375 759.52 71.5188H758C757.665 71.5537 757.327 71.5334 757 71.4587C756.937 71.4064 756.87 71.3595 756.8 71.3186C756.582 71.2387 756.352 71.1948 756.12 71.1885C755.86 71.1885 755.58 71.1885 755.31 71.1885L754.91 71.1384C754.781 71.1104 754.657 71.0667 754.54 71.0083L754.06 70.7981H753.94H753.76C753.49 70.7981 753.21 70.7981 752.94 70.7981C752.738 70.7889 752.537 70.762 752.34 70.718C751.968 70.6197 751.591 70.5462 751.21 70.4978C750.89 70.4978 750.54 70.4978 750.21 70.4978H750.03H749.86L748.8 70.2175H748.67H748.52H747.35C746.702 70.2232 746.054 70.1931 745.41 70.1275C744.82 70.1275 744.23 70.0774 743.62 70.1275C743.497 70.1374 743.373 70.1374 743.25 70.1275H743.05L742.45 69.9673C742.31 69.9673 742.18 69.8972 742.02 69.8772C741.767 69.8618 741.513 69.8618 741.26 69.8772H738.68C738.497 69.8739 738.314 69.9009 738.14 69.9573C737.997 70.0186 737.845 70.0558 737.69 70.0674C737.26 70.0674 736.81 70.0674 736.41 70.0073C736.01 69.9473 735.67 69.8772 735.29 69.8272H735.08H734.84L733.18 69.9873H733.09C733.11 70.0492 733.11 70.1157 733.09 70.1775C733.09 70.1775 733.09 70.1775 733.03 70.2276H731.78L730.88 70.3977C730.675 70.4387 730.468 70.4621 730.26 70.4678H729.65H729.12C729 70.4699 728.881 70.4937 728.77 70.5378C728.68 70.5378 728.67 70.6379 728.53 70.658H728.36H727.36H727L726.34 70.728C726.162 70.766 725.981 70.7927 725.8 70.8081C725.6 70.8081 725.39 70.8081 725.18 70.8081H723.76H723.68C723.672 70.8117 723.663 70.8136 723.655 70.8136C723.646 70.8136 723.638 70.8117 723.63 70.8081C723.54 70.718 723.46 70.6179 723.36 70.5278C723.191 70.4448 723.007 70.3971 722.82 70.3877C722.62 70.3877 722.42 70.3177 722.24 70.2676H721.94H721.71H720.71C720.415 70.2531 720.12 70.2699 719.83 70.3176C719.738 70.3407 719.65 70.3779 719.57 70.4277L719.36 70.5479C719.349 70.5525 719.337 70.555 719.325 70.555C719.313 70.555 719.301 70.5525 719.29 70.5479H717.81C717.69 70.5479 717.58 70.5479 717.47 70.5479C717.1 70.5479 716.73 70.6379 716.34 70.658C715.95 70.678 715.52 70.658 715.11 70.658H714.92C714.863 70.6683 714.806 70.6683 714.75 70.658L713.64 70.4177H713.44H711.56H711.47C711.18 70.5078 710.91 70.6079 710.91 70.728C710.655 70.7297 710.401 70.7531 710.15 70.7981L709.46 70.9282C709.319 70.9442 709.178 70.9676 709.04 70.9983C708.897 71.0797 708.734 71.1212 708.57 71.1184H708.43C708.354 71.1062 708.276 71.1062 708.2 71.1184C708.053 71.1691 707.903 71.206 707.75 71.2285C707.263 71.2914 706.781 71.3917 706.31 71.5288C706.232 71.557 706.152 71.5771 706.07 71.5888C705.933 71.6039 705.796 71.6039 705.66 71.5888H705.48H705.37C705.044 71.6898 704.709 71.7602 704.37 71.7991C704.13 71.7991 703.87 71.7991 703.63 71.7991C703.487 71.8163 703.347 71.8465 703.21 71.8891L702.45 72.0292C702.27 72.0292 702.07 72.0293 701.91 72.1093C701.75 72.1894 701.72 72.2595 701.79 72.3195H701C700.801 72.3414 700.606 72.3885 700.42 72.4596L699.93 72.3496Z" fill="#040707"/>
<path d="M917.32 72.3495H1075.64V71.5088H1071.16H1071.09C1071.09 71.4587 1070.92 71.3686 1070.85 71.3186L1070.63 71.1384L1070.1 70.718C1070.07 70.7088 1070.04 70.7088 1070.01 70.718C1069.94 70.7072 1069.86 70.7072 1069.79 70.718H1068.63C1068.25 70.718 1067.85 70.718 1067.47 70.718C1067.29 70.7033 1067.1 70.6766 1066.92 70.6379C1066.78 70.6379 1066.7 70.5078 1066.56 70.4978H1066.32C1065.92 70.4978 1065.56 70.5879 1065.18 70.6379C1064.71 70.7342 1064.22 70.7342 1063.75 70.6379L1063.08 70.4277C1062.75 70.3448 1062.42 70.2846 1062.08 70.2476C1061.76 70.2476 1061.69 70.2476 1061.2 70.2476H1060C1059.49 70.2222 1058.98 70.1654 1058.47 70.0774C1057.88 70.0171 1057.28 70.0171 1056.68 70.0774H1056.34C1055.49 70.1545 1054.63 70.1712 1053.77 70.1274C1053.04 70.1274 1052.37 69.9873 1051.64 69.9473C1050.91 69.9072 1050.11 69.8672 1049.34 69.8572C1048.65 69.8449 1047.97 69.8682 1047.28 69.9272C1046.58 69.9931 1045.87 70.0232 1045.17 70.0174C1044.65 70.0174 1044.12 70.0174 1043.59 70.0174C1043.06 70.0174 1042.59 70.0174 1042.12 70.0774H1042.02H1041.91C1041.53 69.9792 1041.14 69.9089 1040.75 69.8672C1040.27 69.8051 1039.79 69.7783 1039.31 69.7871L1038.13 69.8572C1037.83 69.8572 1037.56 69.9072 1037.26 69.9173H1036.2C1035.5 69.9173 1034.78 69.9173 1034.1 69.9173L1032.89 70.0273C1032.19 70.0874 1031.45 70.0974 1030.73 70.1174H1030.07C1029.83 70.1174 1029.6 70.1174 1029.36 70.1174H1028.99C1028.43 70.053 1027.87 70.0196 1027.3 70.0174C1026.16 70.0174 1025.06 70.1074 1023.95 70.1575C1023.66 70.1743 1023.37 70.2145 1023.09 70.2776L1022.09 70.4277C1021.66 70.4978 1021.21 70.5478 1020.8 70.6279C1020.39 70.708 1020.07 70.8681 1019.6 70.9282C1019.13 70.9882 1018.31 71.0283 1017.68 71.0784L1015.68 71.2185C1015.44 71.2333 1015.19 71.2333 1014.95 71.2185C1014.8 71.2034 1014.65 71.2034 1014.5 71.2185H1014.34H1014.09C1013.82 71.1882 1013.55 71.1882 1013.28 71.2185C1013.28 71.2185 1013.14 71.2185 1013.06 71.2185C1012.97 71.238 1012.88 71.238 1012.79 71.2185H1012.71C1012.54 71.1726 1012.36 71.1726 1012.19 71.2185C1011.96 71.2663 1011.72 71.2931 1011.48 71.2986C1011.37 71.2986 1011.32 71.2485 1011.23 71.2285C1011.09 71.2071 1010.96 71.2071 1010.82 71.2285C1010.66 71.2285 1010.53 71.2285 1010.36 71.2285H1009.92C1009.77 71.2185 1009.63 71.2185 1009.48 71.2285C1009.27 71.2136 1009.06 71.2136 1008.85 71.2285H1008.76C1008.64 71.2492 1008.51 71.2492 1008.39 71.2285C1008.23 71.2134 1008.08 71.2134 1007.92 71.2285C1007.4 71.2285 1006.92 71.3186 1006.42 71.3586C1005.71 71.4137 1005 71.4137 1004.29 71.3586H1004C1003.81 71.3566 1003.62 71.3768 1003.43 71.4187V71.4987C1003.18 71.4976 1002.92 71.5177 1002.67 71.5588L1002.25 71.6188C1002.11 71.6288 1001.96 71.6288 1001.82 71.6188H1001.3L1000.16 71.7089H1000.05C999.943 71.7014 999.838 71.6743 999.74 71.6289C999.592 71.5971 999.442 71.577 999.29 71.5688H998.65L998 71.3486C997.761 71.3187 997.519 71.3187 997.28 71.3486H997.12C997.034 71.3599 996.947 71.3599 996.86 71.3486C996.477 71.2622 996.083 71.2285 995.69 71.2485H995.49H995.33L994.49 71.0483H994.34H994.19C993.91 71.0483 993.63 71.0483 993.34 71.0483C993.076 71.0421 992.811 71.0622 992.55 71.1084L992.27 70.9983H992.17H991.4C991.364 70.9894 991.326 70.9894 991.29 70.9983C991.034 71.0523 990.772 71.0725 990.51 71.0583H989.51C989.474 71.0738 989.441 71.094 989.41 71.1184C989.259 71.1712 989.1 71.1983 988.94 71.1985C988.78 71.2181 988.624 71.2655 988.48 71.3386H988.4H988.28L987.86 71.3986H987.77C987.77 71.3986 987.77 71.4687 987.7 71.4887H987.34C987.204 71.499 987.067 71.499 986.93 71.4887C986.877 71.4973 986.823 71.4973 986.77 71.4887L986.52 71.3986H986.36H986.18C985.89 71.3986 985.5 71.3986 985.18 71.3986C985.013 71.3849 984.853 71.3223 984.72 71.2185H984.66H984.52L983.2 71.1284L982.89 71.2285C982.74 71.2285 982.53 71.2285 982.37 71.2285L981.18 71.3086C981.135 71.374 981.068 71.4204 980.99 71.4387H980.83C980.638 71.465 980.447 71.5051 980.26 71.5588C980.14 71.5959 980.023 71.6428 979.91 71.6989C979.64 71.6989 979.41 71.6088 979.17 71.5588C978.9 71.5085 978.625 71.485 978.35 71.4887C978.061 71.514 977.77 71.514 977.48 71.4887C977.295 71.4481 977.109 71.418 976.92 71.3986H975.4C975.082 71.4274 974.762 71.4071 974.45 71.3386C974.389 71.2887 974.326 71.2419 974.26 71.1985C974.042 71.1186 973.813 71.0747 973.58 71.0683C973.31 71.0683 973.03 71.0683 972.77 71.0683L972.36 71.0183C972.235 70.9921 972.114 70.9483 972 70.8882L971.52 70.678H971.4H971.22C970.95 70.678 970.66 70.678 970.39 70.678C970.192 70.6681 969.994 70.6413 969.8 70.5979C969.425 70.5006 969.045 70.427 968.66 70.3777C968.34 70.3777 967.99 70.3777 967.66 70.3777H967.47H967.31L966.24 70.0974H966.12H966H964.83C964.182 70.1031 963.535 70.073 962.89 70.0073C962.3 70.0073 961.7 69.9573 961.1 70.0073C960.977 70.0179 960.853 70.0179 960.73 70.0073H960.52L959.92 69.8472C959.779 69.8093 959.635 69.7792 959.49 69.7571C959.241 69.7417 958.99 69.7417 958.74 69.7571H956.15C955.967 69.7547 955.785 69.7817 955.61 69.8372C955.468 69.8995 955.315 69.9368 955.16 69.9473C954.74 69.9473 954.29 69.9473 953.88 69.8872C953.47 69.8272 953.15 69.7571 952.77 69.707H952.55H952.31L950.65 69.8672H950.57C950.585 69.9297 950.585 69.9949 950.57 70.0574C950.564 70.0693 950.556 70.0799 950.545 70.0885C950.535 70.0971 950.523 70.1035 950.51 70.1074H949.26L948.35 70.2776C948.149 70.318 947.945 70.3414 947.74 70.3477H947.13H946.6C946.477 70.3505 946.355 70.3742 946.24 70.4177C946.16 70.4177 946.15 70.5178 946.01 70.5378H945.84H944.84H944.43L943.77 70.6079C943.592 70.6451 943.412 70.6718 943.23 70.688C943.03 70.688 942.81 70.688 942.61 70.688H941.18H941.11C941.101 70.6924 941.091 70.6947 941.08 70.6947C941.07 70.6947 941.06 70.6924 941.05 70.688C940.966 70.5896 940.875 70.496 940.78 70.4077C940.616 70.3229 940.435 70.2751 940.25 70.2676C940.04 70.2676 939.85 70.1975 939.66 70.1475H939.36H939.14H938.14C937.846 70.1324 937.551 70.1492 937.26 70.1975C937.168 70.2187 937.08 70.256 937 70.3076L936.79 70.4277C936.767 70.4332 936.743 70.4332 936.72 70.4277H935.23H934.9C934.52 70.4277 934.16 70.5178 933.77 70.5378C933.38 70.5579 932.94 70.5378 932.53 70.5378H932.35C932.291 70.5483 932.23 70.5483 932.17 70.5378L931.06 70.2976H930.86H929H928.91C928.63 70.3877 928.36 70.4878 928.35 70.6079C928.095 70.61 927.841 70.6334 927.59 70.678L926.91 70.8081C926.766 70.8241 926.622 70.8475 926.48 70.8782C926.341 70.9612 926.182 71.0028 926.02 70.9983H925.88C925.801 70.9862 925.72 70.9862 925.64 70.9983C925.497 71.0479 925.35 71.0847 925.2 71.1084C924.71 71.1713 924.225 71.2717 923.75 71.4087C923.673 71.4369 923.592 71.457 923.51 71.4687C923.374 71.4837 923.237 71.4837 923.1 71.4687H922.93H922.82C922.494 71.57 922.159 71.6404 921.82 71.6789C921.58 71.6789 921.32 71.6789 921.08 71.6789C920.938 71.6962 920.797 71.7264 920.66 71.769L919.9 71.9091C919.73 71.9091 919.52 71.9091 919.36 71.9892C919.2 72.0693 919.18 72.1394 919.24 72.1994H918.44C918.238 72.2202 918.04 72.2673 917.85 72.3395L917.32 72.3495Z" fill="#040707"/>
<path d="M420.059 73.1403C420.148 73.1505 420.239 73.1505 420.329 73.1403H592.329V70.0174H587.619C587.564 70.0372 587.504 70.0372 587.449 70.0174C587.412 69.9864 587.388 69.944 587.379 69.8972C587.321 69.6427 587.231 69.397 587.109 69.1665L586.869 68.4959L586.299 66.9344C586.275 66.8725 586.241 66.815 586.199 66.7643C586.126 66.7229 586.042 66.7053 585.959 66.7142H584.699C584.272 66.7398 583.843 66.6993 583.429 66.5941C583.215 66.5456 583.015 66.4536 582.839 66.3239C582.679 66.1937 582.589 65.8434 582.439 65.7833C582.354 65.7583 582.263 65.7583 582.179 65.7833C581.766 65.9262 581.37 66.1142 580.999 66.3439C580.529 66.5641 579.809 66.6842 579.439 66.2037C579.289 66.0135 578.789 65.5431 578.709 65.423C578.392 65.1441 578.03 64.9208 577.639 64.7624C577.299 64.6423 577.219 64.7624 576.639 64.7624C576.059 64.7624 575.419 64.7624 575.299 64.7624C574.729 64.7624 574.179 64.3019 573.639 64.1418C572.979 63.9409 572.269 63.9836 571.639 64.2619L571.269 64.422C570.369 64.7168 569.409 64.7788 568.479 64.6022C567.679 64.4821 566.949 64.1117 566.159 63.9316C565.337 63.745 564.5 63.6377 563.659 63.6113C562.898 63.5684 562.136 63.6633 561.409 63.8915C560.672 64.1256 559.9 64.2273 559.129 64.1918C558.549 64.1918 557.979 64.1318 557.399 64.1918C556.858 64.2209 556.322 64.3047 555.799 64.4421C555.763 64.4524 555.725 64.4524 555.689 64.4421C555.689 64.4421 555.609 64.392 555.569 64.362C555.214 64.0064 554.783 63.7361 554.309 63.5713C553.818 63.3429 553.278 63.243 552.739 63.281C552.309 63.351 551.889 63.4311 551.459 63.5212C551.029 63.6113 550.839 63.7214 550.509 63.7614C550.126 63.7815 549.742 63.7815 549.359 63.7614C548.592 63.7243 547.823 63.778 547.069 63.9216C546.619 64.0317 546.199 64.2118 545.749 64.332C544.98 64.5136 544.197 64.6308 543.409 64.6823C543.169 64.6823 542.919 64.6823 542.689 64.7524C542.435 64.8239 542.172 64.8609 541.909 64.8625C541.771 64.8343 541.637 64.7906 541.509 64.7324C540.926 64.4953 540.307 64.3599 539.679 64.332C538.448 64.3936 537.226 64.5712 536.029 64.8625C535.688 64.9427 535.368 65.0926 535.089 65.3029C534.739 65.5131 534.399 65.7133 534.089 65.8934C533.61 66.107 533.146 66.3511 532.699 66.6241C532.219 66.9444 531.899 67.495 531.379 67.7352C530.706 67.9866 530.009 68.1678 529.299 68.2757L527.079 68.8062C526.819 68.8665 526.548 68.8665 526.289 68.8062C526.125 68.761 525.952 68.761 525.789 68.8062C525.729 68.8062 525.679 68.8963 525.619 68.9063C525.559 68.9163 525.429 68.8462 525.349 68.8162C525.206 68.7612 525.052 68.7398 524.899 68.7537C524.747 68.7676 524.599 68.8163 524.469 68.8963C524.469 68.7862 524.309 68.7762 524.219 68.8162C524.129 68.8562 524.019 68.9363 523.929 68.8662C523.89 68.8233 523.863 68.7718 523.849 68.7161C523.782 68.6307 523.688 68.5703 523.583 68.5449C523.478 68.5195 523.367 68.5304 523.269 68.576C523.059 68.6661 522.749 68.9563 522.509 68.8662C522.269 68.7762 522.329 68.6961 522.239 68.606C522.179 68.5502 522.107 68.51 522.029 68.489C521.95 68.4681 521.868 68.467 521.789 68.4859C521.619 68.4859 521.469 68.6561 521.289 68.6661C521.109 68.6761 520.969 68.566 520.809 68.566C520.649 68.566 520.489 68.6661 520.329 68.6861C520.169 68.7061 519.849 68.5459 519.649 68.6861C519.612 68.7 519.578 68.7203 519.549 68.7461C519.399 68.8062 519.279 68.7461 519.149 68.646C518.983 68.5835 518.803 68.5663 518.629 68.596C518.073 68.72 517.528 68.8873 516.999 69.0965C516.24 69.3067 515.438 69.3067 514.679 69.0965L514.419 69.0464C514.193 69.0631 513.977 69.1467 513.799 69.2867V69.5969C513.51 69.6062 513.227 69.6779 512.969 69.8071C512.819 69.8772 512.679 69.9773 512.519 70.0374C512.36 70.0721 512.197 70.0721 512.039 70.0374C511.848 70.0663 511.66 70.1132 511.479 70.1775L510.249 70.5078H510.119C509.979 70.5078 509.879 70.3076 509.789 70.2175C509.646 70.0945 509.474 70.0115 509.289 69.9773C509.056 69.946 508.825 69.8992 508.599 69.8372C508.349 69.7381 508.105 69.6244 507.869 69.4968C507.75 69.4323 507.619 69.3945 507.484 69.3858C507.349 69.3772 507.214 69.398 507.089 69.4468C507.031 69.4759 506.971 69.4994 506.909 69.5169C506.801 69.508 506.7 69.4578 506.629 69.3767C506.455 69.2287 506.252 69.1177 506.034 69.0506C505.815 68.9834 505.586 68.9616 505.359 68.9864C505.286 69.0015 505.211 69.0015 505.139 68.9864C505.072 68.9671 505.01 68.9328 504.959 68.8863L504.049 68.1356C504.004 68.0926 503.949 68.0616 503.889 68.0455C503.832 68.0358 503.775 68.0358 503.719 68.0455C503.42 68.1309 503.109 68.1714 502.799 68.1656C502.495 68.1407 502.193 68.2182 501.939 68.3858L501.629 67.9654C501.603 67.925 501.569 67.8908 501.529 67.8653C501.467 67.8454 501.4 67.8454 501.339 67.8653H500.829C500.782 67.855 500.735 67.855 500.689 67.8653C500.644 67.8966 500.604 67.9337 500.569 67.9754C500.453 68.0761 500.318 68.1514 500.171 68.1962C500.025 68.241 499.871 68.2545 499.719 68.2357H498.829C498.767 68.2151 498.7 68.2151 498.639 68.2357C498.569 68.2357 498.559 68.3758 498.519 68.4558C498.479 68.5359 498.219 68.6661 498.019 68.7662C497.797 68.8703 497.617 69.0468 497.509 69.2666C497.495 69.3248 497.463 69.3772 497.419 69.4168C497.385 69.4523 497.344 69.4796 497.299 69.4968L496.839 69.707C496.797 69.7207 496.759 69.7448 496.729 69.7771C496.724 69.807 496.724 69.8373 496.729 69.8672C496.729 69.9373 496.729 70.1375 496.649 70.1875C496.569 70.2375 496.359 70.1875 496.259 70.1875C496.107 70.2228 495.948 70.2051 495.809 70.1375C495.737 70.0944 495.676 70.0363 495.629 69.9673L495.359 69.637C495.315 69.5714 495.257 69.5166 495.189 69.4768C495.122 69.4665 495.055 69.4665 494.989 69.4768C494.656 69.5092 494.321 69.5092 493.989 69.4768C493.739 69.4168 493.599 69.0064 493.489 68.7962C493.474 68.7519 493.45 68.711 493.419 68.6761C493.376 68.6417 493.323 68.6208 493.269 68.616L491.839 68.2757C491.839 68.2757 491.549 68.596 491.499 68.626C491.314 68.6894 491.123 68.733 490.929 68.7562L489.639 69.0364C489.613 69.2185 489.54 69.3909 489.429 69.5369C489.376 69.5951 489.315 69.6456 489.249 69.687C489.028 69.8038 488.823 69.9484 488.639 70.1174C488.49 70.2808 488.362 70.4625 488.259 70.6579C487.98 70.5102 487.713 70.343 487.459 70.1575C487.2 69.9728 486.886 69.8811 486.569 69.8972C486.231 69.946 485.886 69.9046 485.569 69.7771C485.375 69.6416 485.171 69.5212 484.959 69.4168C484.845 69.4071 484.732 69.4071 484.619 69.4168H483.319C482.979 69.4168 482.479 69.5369 482.319 69.1765C482.229 69.0164 482.199 68.8162 482.109 68.6561C482.023 68.5319 481.914 68.4262 481.786 68.3454C481.659 68.2645 481.517 68.2102 481.369 68.1856C481.079 68.1155 480.779 68.1155 480.489 68.0555C480.332 68.0226 480.183 67.9615 480.049 67.8753C479.885 67.7475 479.748 67.5874 479.649 67.4049L479.119 66.6141C479.09 66.5589 479.049 66.511 478.999 66.474C478.933 66.4539 478.864 66.4539 478.799 66.474C478.499 66.5041 478.198 66.5041 477.899 66.474C477.663 66.4104 477.442 66.3016 477.249 66.1537C476.877 65.827 476.463 65.551 476.019 65.3329C475.66 65.2353 475.29 65.1881 474.919 65.1928H474.719C474.654 65.1562 474.594 65.1126 474.539 65.0627L473.379 64.0617C473.342 64.0199 473.298 63.9859 473.249 63.9616H472.999L471.729 64.0417C471.012 64.0463 470.3 63.9347 469.619 63.7114C468.983 63.5466 468.324 63.4858 467.669 63.5312C467.537 63.5612 467.4 63.5612 467.269 63.5312C467.186 63.4921 467.111 63.4378 467.049 63.3711L466.389 62.7705C466.253 62.6343 466.098 62.5196 465.929 62.4302C465.664 62.3319 465.381 62.2909 465.099 62.31H462.289C462.062 62.3269 461.85 62.4309 461.699 62.6003C461.579 62.7104 461.399 63.0407 461.219 63.0207C460.743 63.015 460.271 62.9374 459.819 62.7905C459.399 62.6003 459.019 62.32 458.609 62.1098C458.534 62.0684 458.453 62.0412 458.369 62.0298C458.28 62.0319 458.192 62.0488 458.109 62.0798L456.309 62.6904C456.309 62.6904 456.229 62.6904 456.209 62.7505C456.194 62.7926 456.194 62.8384 456.209 62.8806C456.228 63.107 456.228 63.3348 456.209 63.5612C456.213 63.5954 456.21 63.6301 456.199 63.6629C456.189 63.6957 456.172 63.7259 456.149 63.7514C456.094 63.7713 456.034 63.7713 455.979 63.7514C455.579 63.7514 455.189 63.7514 454.789 63.7514L453.789 64.372C453.59 64.5105 453.359 64.5965 453.119 64.6222L452.459 64.6923C452.269 64.6923 452.069 64.6923 451.879 64.7423C451.802 64.7551 451.73 64.7829 451.664 64.8241C451.599 64.8654 451.543 64.9193 451.499 64.9826C451.399 65.1327 451.389 65.3529 451.239 65.443C451.182 65.4689 451.121 65.4857 451.059 65.4931L449.999 65.6132L449.549 65.6832C449.301 65.7417 449.062 65.8325 448.839 65.9535C448.649 66.0701 448.448 66.1674 448.239 66.2438C448.017 66.279 447.791 66.279 447.569 66.2438L446.019 66.1337C445.993 66.1437 445.964 66.1437 445.939 66.1337C445.939 66.1337 445.889 66.0736 445.879 66.0236C445.779 65.6832 445.699 65.3229 445.589 65.0226C445.55 64.8709 445.477 64.7303 445.374 64.6121C445.272 64.4939 445.143 64.4014 444.999 64.342C444.773 64.2206 444.555 64.0835 444.349 63.9316C444.257 63.8461 444.148 63.7812 444.029 63.7414C443.949 63.7265 443.868 63.7265 443.789 63.7414C443.419 63.7414 443.059 63.8215 442.699 63.8615C442.353 63.8135 442.002 63.8803 441.699 64.0517C441.572 64.1688 441.473 64.3123 441.409 64.4721L441.189 64.9325C441.171 64.9753 441.144 65.0131 441.109 65.0426C441.054 65.0625 440.994 65.0625 440.939 65.0426H440.019C439.846 65.0276 439.672 65.0276 439.499 65.0426L439.129 65.1527C438.727 65.3199 438.317 65.4636 437.899 65.5831C437.452 65.6516 437 65.6751 436.549 65.6532C436.486 65.663 436.422 65.663 436.359 65.6532C436.29 65.6228 436.226 65.5823 436.169 65.5331L434.959 64.6122C434.891 64.5596 434.817 64.5159 434.739 64.4821H432.829C432.786 64.4726 432.741 64.4726 432.699 64.4821C432.66 64.496 432.625 64.5202 432.599 64.5522C432.251 64.8441 432.032 65.2611 431.989 65.7133C431.692 65.7016 431.4 65.7897 431.159 65.9635C430.909 66.1136 430.679 66.3038 430.409 66.4339C430.241 66.5018 430.086 66.5965 429.949 66.7142C429.799 66.8744 429.719 67.1947 429.439 67.1646H429.289C429.189 67.1646 429.109 67.2547 429.039 67.3348C428.892 67.4871 428.727 67.6216 428.549 67.7352C427.96 67.9987 427.427 68.3724 426.979 68.8362C426.91 68.9367 426.822 69.0219 426.719 69.0865C426.574 69.1419 426.413 69.1419 426.269 69.0865C426.206 69.0716 426.141 69.0716 426.079 69.0865L425.959 69.1665C425.649 69.4952 425.279 69.7604 424.869 69.9473C424.609 70.0173 424.319 69.9473 424.069 69.9973C423.893 70.0646 423.733 70.1668 423.599 70.2976C423.343 70.504 423.069 70.685 422.779 70.8381C422.576 70.9228 422.379 71.0197 422.189 71.1284C422.097 71.2377 422.036 71.3698 422.013 71.5108C421.99 71.6518 422.006 71.7964 422.059 71.9291H421.779C421.58 71.8942 421.377 71.8942 421.179 71.9291C420.869 71.9992 420.759 72.2395 420.549 72.4496C420.373 72.6711 420.21 72.9017 420.059 73.1403Z" fill="#040707"/>
<path d="M1129.73 78.3552C1129.81 78.3648 1129.89 78.3648 1129.97 78.3552H1288.05V75.2322H1283.73C1283.68 75.2458 1283.62 75.2458 1283.57 75.2322C1283.54 75.1941 1283.52 75.1496 1283.51 75.1021C1283.46 74.8516 1283.38 74.6091 1283.26 74.3814C1283.19 74.1512 1283.11 73.931 1283.04 73.7008C1282.87 73.1803 1282.69 72.6998 1282.51 72.1493C1282.5 72.0868 1282.47 72.0283 1282.43 71.9791C1282.37 71.9303 1282.28 71.9088 1282.2 71.9191H1281.04C1280.65 71.9387 1280.26 71.8982 1279.88 71.799C1279.68 71.7445 1279.49 71.649 1279.33 71.5187C1279.19 71.3986 1279.11 71.0483 1278.97 70.9782C1278.89 70.9529 1278.81 70.9529 1278.73 70.9782C1278.34 71.1188 1277.96 71.3034 1277.6 71.5287C1277.16 71.7489 1276.5 71.879 1276.16 71.3986C1276.02 71.1984 1275.56 70.738 1275.49 70.6178C1275.2 70.3375 1274.86 70.1135 1274.49 69.9572C1274.17 69.8371 1274.1 69.9572 1273.61 69.9572C1273.12 69.9572 1272.49 69.9072 1272.38 69.9072C1271.86 69.9072 1271.38 69.4568 1270.85 69.2966C1270.26 69.1066 1269.62 69.1459 1269.06 69.4067L1268.72 69.5769C1267.9 69.8679 1267.01 69.9267 1266.15 69.747C1265.42 69.6269 1264.75 69.2566 1264.02 69.0764C1263.27 68.89 1262.5 68.7827 1261.72 68.7561C1261.02 68.7133 1260.32 68.8085 1259.66 69.0364C1258.99 69.275 1258.27 69.377 1257.56 69.3366C1257.03 69.3366 1256.5 69.2866 1255.97 69.3366C1255.47 69.3689 1254.98 69.4562 1254.5 69.5969C1254.47 69.6069 1254.43 69.6069 1254.4 69.5969C1254.36 69.5792 1254.32 69.5477 1254.29 69.5068C1253.97 69.1613 1253.57 68.8942 1253.13 68.7261C1252.69 68.4914 1252.19 68.3873 1251.69 68.4258C1251.29 68.4958 1250.9 68.5859 1250.51 68.676C1250.23 68.7713 1249.94 68.8482 1249.64 68.9062C1249.29 68.9062 1248.93 68.9062 1248.58 68.9563C1247.88 68.9145 1247.17 68.9684 1246.48 69.1164C1246.07 69.2165 1245.67 69.3967 1245.27 69.5268C1244.56 69.6986 1243.84 69.8158 1243.11 69.8771C1242.89 69.8771 1242.67 69.8771 1242.45 69.9372C1242.22 70.0111 1241.98 70.0515 1241.74 70.0573C1241.61 70.0301 1241.49 69.9828 1241.37 69.9172C1240.84 69.6793 1240.26 69.5468 1239.68 69.5268C1238.55 69.5811 1237.43 69.7556 1236.33 70.0473C1236.02 70.1407 1235.73 70.2937 1235.47 70.4977C1235.15 70.6979 1234.83 70.8981 1234.47 71.0783C1234.03 71.298 1233.6 71.5454 1233.18 71.819C1232.74 72.1293 1232.45 72.6898 1231.98 72.93C1231.36 73.1752 1230.72 73.3564 1230.07 73.4705L1228.02 73.9911C1227.78 74.0462 1227.54 74.0462 1227.3 73.9911C1227.15 73.9414 1226.99 73.9414 1226.84 73.9911C1226.79 73.9911 1226.73 74.0811 1226.68 74.0911C1226.63 74.1011 1226.5 74.0311 1226.43 74.001C1226.3 73.9521 1226.16 73.9338 1226.02 73.9477C1225.88 73.9616 1225.74 74.0072 1225.62 74.0811C1225.62 73.981 1225.48 73.961 1225.4 74.0111C1225.32 74.0611 1225.21 74.1212 1225.13 74.0611C1225.1 74.0144 1225.07 73.964 1225.05 73.911C1225.03 73.8675 1224.99 73.8294 1224.95 73.7988C1224.91 73.7683 1224.87 73.7458 1224.82 73.7328C1224.77 73.7198 1224.72 73.7164 1224.67 73.723C1224.62 73.7295 1224.57 73.7458 1224.53 73.7708C1224.33 73.8509 1224.05 74.1412 1223.82 74.0511C1223.59 73.961 1223.66 73.881 1223.57 73.8009C1223.52 73.7459 1223.45 73.705 1223.38 73.6822C1223.31 73.6595 1223.23 73.6555 1223.16 73.6707C1223 73.6707 1222.87 73.8509 1222.7 73.8509C1222.53 73.8509 1222.41 73.7508 1222.26 73.7508C1222.11 73.7815 1221.97 73.8216 1221.82 73.8709C1221.61 73.8709 1221.38 73.7408 1221.19 73.8709L1221.1 73.931C1220.96 74.001 1220.85 73.931 1220.74 73.8309C1220.59 73.7752 1220.42 73.758 1220.26 73.7808C1219.75 73.9084 1219.25 74.0757 1218.76 74.2813C1218.07 74.4915 1217.33 74.4915 1216.63 74.2813C1216.55 74.2673 1216.47 74.2673 1216.39 74.2813C1216.18 74.2904 1215.98 74.3717 1215.82 74.5115V74.8218C1215.56 74.8328 1215.3 74.9047 1215.06 75.032C1214.92 75.1121 1214.79 75.2022 1214.64 75.2723C1214.5 75.2969 1214.35 75.2969 1214.21 75.2723C1214.03 75.3015 1213.86 75.345 1213.69 75.4024L1212.55 75.7427C1212.52 75.753 1212.48 75.753 1212.44 75.7427C1212.31 75.7427 1212.22 75.5425 1212.13 75.4524C1212.01 75.3324 1211.85 75.2492 1211.68 75.2122C1211.47 75.1621 1211.25 75.1522 1211.04 75.0821C1210.81 74.9793 1210.59 74.8623 1210.37 74.7318C1210.26 74.6675 1210.14 74.6295 1210.02 74.6208C1209.89 74.6121 1209.77 74.633 1209.65 74.6817C1209.61 74.719 1209.55 74.7432 1209.49 74.7518C1209.39 74.7518 1209.31 74.6817 1209.23 74.6116C1209.07 74.4685 1208.89 74.3605 1208.69 74.2949C1208.49 74.2293 1208.27 74.2076 1208.06 74.2313C1207.99 74.2413 1207.93 74.2413 1207.86 74.2313C1207.8 74.2076 1207.75 74.1699 1207.7 74.1212L1206.86 73.3805C1206.82 73.3379 1206.77 73.3068 1206.71 73.2904C1206.66 73.2756 1206.61 73.2756 1206.56 73.2904C1206.29 73.3718 1206 73.409 1205.71 73.4005C1205.43 73.3779 1205.15 73.4559 1204.92 73.6207L1204.64 73.2103C1204.61 73.169 1204.58 73.1319 1204.54 73.1002C1204.49 73.0849 1204.43 73.0849 1204.37 73.1002H1204C1203.96 73.0907 1203.91 73.0907 1203.87 73.1002C1203.83 73.1295 1203.8 73.167 1203.77 73.2103C1203.67 73.3079 1203.54 73.3816 1203.4 73.4265C1203.27 73.4714 1203.12 73.4864 1202.98 73.4705H1202.16C1202.1 73.4669 1202.03 73.4845 1201.98 73.5206C1201.94 73.5844 1201.9 73.6555 1201.88 73.7308C1201.78 73.961 1201.6 73.941 1201.42 74.0411C1201.21 74.1566 1201.05 74.3355 1200.95 74.5516C1200.93 74.6064 1200.91 74.6574 1200.87 74.7017C1200.84 74.7362 1200.8 74.7635 1200.75 74.7818L1200.33 74.982C1200.3 74.9996 1200.27 75.0233 1200.24 75.0521C1200.24 75.0819 1200.24 75.1123 1200.24 75.1421C1200.24 75.2222 1200.24 75.4224 1200.17 75.4624C1200.1 75.5025 1199.91 75.4624 1199.81 75.4624C1199.67 75.4868 1199.53 75.4694 1199.4 75.4124C1199.34 75.3685 1199.28 75.3104 1199.24 75.2422L1198.99 74.9019C1198.95 74.8418 1198.89 74.7908 1198.83 74.7518C1198.77 74.7373 1198.71 74.7373 1198.65 74.7518C1198.32 74.7897 1197.98 74.7897 1197.65 74.7518C1197.43 74.6917 1197.29 74.2913 1197.19 74.0711C1197.18 74.0275 1197.16 73.9867 1197.13 73.951C1197.09 73.9209 1197.04 73.9004 1196.99 73.891L1195.67 73.5506C1195.57 73.6767 1195.47 73.797 1195.36 73.911C1195.19 73.9698 1195.02 74.0133 1194.84 74.0411L1193.65 74.3214C1193.63 74.5003 1193.56 74.6713 1193.46 74.8218L1193.3 74.972C1193.09 75.0825 1192.9 75.228 1192.73 75.4024C1192.6 75.5651 1192.48 75.7432 1192.39 75.9329C1192.13 75.7836 1191.88 75.6129 1191.65 75.4224C1191.42 75.2405 1191.13 75.1482 1190.83 75.1621C1190.54 75.2013 1190.24 75.1634 1189.96 75.0521C1189.79 74.9126 1189.6 74.7887 1189.4 74.6817C1189.3 74.6664 1189.19 74.6664 1189.08 74.6817H1187.89C1187.58 74.6817 1187.12 74.8018 1186.89 74.4515C1186.8 74.2813 1186.77 74.0911 1186.69 73.921C1186.62 73.7986 1186.52 73.6933 1186.4 73.6121C1186.28 73.531 1186.15 73.4759 1186.01 73.4505C1185.74 73.3905 1185.47 73.3805 1185.2 73.3204C1185.05 73.2943 1184.91 73.2325 1184.79 73.1402C1184.64 73.0119 1184.52 72.8554 1184.43 72.6798L1183.95 71.879C1183.92 71.8259 1183.88 71.7785 1183.83 71.7389C1183.77 71.7241 1183.71 71.7241 1183.65 71.7389C1183.38 71.7689 1183.1 71.7689 1182.82 71.7389C1182.6 71.6781 1182.4 71.5723 1182.23 71.4286C1181.89 71.108 1181.5 70.8322 1181.09 70.6079C1180.77 70.5068 1180.43 70.4594 1180.09 70.4677C1180.03 70.4782 1179.96 70.4782 1179.9 70.4677C1179.84 70.4402 1179.78 70.3991 1179.74 70.3476L1178.67 69.3466L1178.55 69.2566C1178.5 69.2418 1178.45 69.2418 1178.4 69.2566L1177.23 69.3366C1176.57 69.3432 1175.91 69.2278 1175.29 68.9963C1174.71 68.8316 1174.1 68.7706 1173.5 68.8161C1173.4 68.8392 1173.29 68.8328 1173.18 68.7975C1173.08 68.7621 1172.99 68.6993 1172.92 68.6159L1172.32 68.0254C1172.2 67.8874 1172.05 67.7693 1171.89 67.6751C1171.65 67.5753 1171.4 67.5341 1171.14 67.5549H1168.55C1168.45 67.5637 1168.34 67.5941 1168.25 67.644C1168.16 67.6939 1168.08 67.7624 1168.01 67.8452C1167.9 67.9653 1167.73 68.2956 1167.57 68.2756C1167.13 68.2661 1166.7 68.1849 1166.29 68.0354C1165.89 67.8552 1165.55 67.565 1165.17 67.3548C1165.1 67.3166 1165.03 67.2928 1164.95 67.2847C1164.87 67.282 1164.79 67.2991 1164.71 67.3347L1163.05 67.9453C1163.03 67.9375 1163 67.9375 1162.97 67.9453C1162.96 67.9908 1162.96 68.04 1162.97 68.0854C1162.99 68.3121 1162.99 68.5395 1162.97 68.7661C1162.98 68.7987 1162.97 68.8318 1162.96 68.863C1162.95 68.8942 1162.93 68.9226 1162.91 68.9463C1162.86 68.9658 1162.81 68.9658 1162.76 68.9463C1162.39 68.9463 1162.03 68.9463 1161.66 68.9463L1160.75 69.5669C1160.58 69.7071 1160.36 69.7939 1160.14 69.8171L1159.53 69.8872C1159.35 69.8872 1159.17 69.8872 1159 69.9372C1158.93 69.9514 1158.86 69.981 1158.79 70.0241C1158.73 70.0672 1158.68 70.1229 1158.64 70.1874C1158.56 70.3376 1158.55 70.5578 1158.41 70.6379C1158.36 70.665 1158.3 70.6819 1158.24 70.6879L1157.24 70.808C1157.1 70.8241 1156.97 70.8509 1156.83 70.8881C1156.6 70.9389 1156.38 71.0267 1156.17 71.1483C1156 71.2625 1155.82 71.3597 1155.63 71.4386C1155.43 71.4737 1155.22 71.4737 1155.01 71.4386C1154.53 71.4386 1154.01 71.3786 1153.58 71.3385H1153.51C1153.48 71.3092 1153.46 71.2706 1153.45 71.2284C1153.36 70.8781 1153.29 70.5177 1153.18 70.1774C1153.08 69.9309 1152.89 69.733 1152.65 69.6269C1152.44 69.5086 1152.24 69.3712 1152.06 69.2165C1151.98 69.1294 1151.88 69.064 1151.76 69.0263C1151.69 69.0112 1151.61 69.0112 1151.54 69.0263L1150.54 69.1464C1150.24 69.1464 1149.9 69.1464 1149.66 69.3366C1149.54 69.4561 1149.46 69.5996 1149.4 69.757L1149.19 70.2175C1149.18 70.2589 1149.15 70.2965 1149.12 70.3276C1149.07 70.3459 1149.01 70.3459 1148.96 70.3276H1148.12C1147.96 70.3027 1147.79 70.3027 1147.63 70.3276C1147.52 70.3506 1147.41 70.3876 1147.3 70.4377C1146.93 70.6013 1146.56 70.7417 1146.17 70.8581C1145.76 70.9312 1145.35 70.9547 1144.93 70.9281C1144.87 70.938 1144.81 70.938 1144.75 70.9281C1144.69 70.9012 1144.62 70.864 1144.57 70.818L1143.46 69.8872C1143.4 69.8322 1143.34 69.7911 1143.26 69.7671C1143.21 69.7573 1143.15 69.7573 1143.1 69.7671H1141.51C1141.47 69.7624 1141.43 69.7693 1141.39 69.787C1141.35 69.8047 1141.32 69.8325 1141.3 69.8671C1140.97 70.1639 1140.77 70.5765 1140.74 71.0182C1140.46 71.0115 1140.19 71.0998 1139.97 71.2685C1139.75 71.4409 1139.53 71.6013 1139.29 71.7489C1139.13 71.8135 1138.99 71.905 1138.86 72.0192C1138.73 72.1793 1138.65 72.5096 1138.4 72.4796H1138.26C1138.16 72.4796 1138.09 72.5797 1138.02 72.6498C1137.89 72.8043 1137.74 72.9421 1137.58 73.0602C1137.03 73.3218 1136.54 73.693 1136.13 74.1512C1136.07 74.2559 1135.99 74.3451 1135.89 74.4114C1135.76 74.4564 1135.61 74.4564 1135.48 74.4114C1135.43 74.3916 1135.37 74.3916 1135.31 74.4114C1135.27 74.4251 1135.23 74.4492 1135.2 74.4815C1134.91 74.7318 1134.56 75.1722 1134.2 75.2723C1133.84 75.3724 1133.7 75.2723 1133.47 75.2723C1133.31 75.3416 1133.16 75.4438 1133.04 75.5725C1132.81 75.7815 1132.55 75.9659 1132.28 76.1231C1132.09 76.202 1131.91 76.2992 1131.74 76.4133C1131.66 76.5252 1131.6 76.6558 1131.58 76.7937C1131.56 76.9316 1131.57 77.0725 1131.62 77.2041H1131.37C1131.19 77.1787 1131 77.1787 1130.82 77.2041C1130.53 77.2842 1130.42 77.5144 1130.23 77.7346C1130.17 77.7746 1129.71 78.3552 1129.73 78.3552Z" fill="#040707"/>
<path d="M430 50.092L432.09 48L434.17 50.092L432.09 52.174L430 50.092Z" fill="black"/>
<path d="M343.47 18.9628L342 17.4714L343.46 16L344.93 17.4714L343.47 18.9628Z" fill="#FFAE00"/>
<path d="M433.502 48L433 47.4966L433.498 47L434 47.4966L433.502 48Z" fill="#FFAE00"/>
<path fill-rule="evenodd" clip-rule="evenodd" d="M385 24.6965C380.685 24.6965 377.183 28.1984 377.183 32.5131C377.183 40.2829 370.883 46.5831 363.113 46.5831C361.253 46.5831 359.487 46.2235 357.876 45.5669L352.358 51.0855C350.529 52.9146 347.558 52.9146 345.729 51.0855L345.463 50.8197C344.854 50.21 344.854 49.2095 345.463 48.5998L355.688 38.3756C358.377 38.9228 361.628 38.6883 363.113 37.2031C362.882 37.2031 362.649 37.2066 362.414 37.2101L362.414 37.2101C360.489 37.2389 358.489 37.2689 356.594 35.374L353.733 32.5131L356.86 29.3865H350.607L345.463 24.2431C344.479 23.2583 345.166 21.5699 346.558 21.5699H351.514L349.044 19.0998C348.152 18.1931 347.887 16.8486 348.371 15.6761C348.856 14.5036 349.982 13.7532 351.248 13.7532H360.518C362.582 13.7532 364.599 14.5818 366.052 16.0357L372.04 22.0232L372.493 21.5699C374.416 19.8346 377.074 19.1623 379.591 19.7877C382.092 20.413 384.125 22.2577 385 24.6965ZM385 24.6965C385.875 22.2577 387.908 20.413 390.409 19.7877C392.926 19.1623 395.584 19.8346 397.507 21.5699L397.96 22.0232L403.948 16.0357C405.401 14.5818 407.418 13.7532 409.482 13.7532H418.752C420.018 13.7532 421.144 14.5036 421.629 15.6761C422.113 16.8486 421.848 18.1931 420.956 19.0998L418.486 21.5699H423.442C424.834 21.5699 425.521 23.2583 424.537 24.2431L419.393 29.3865H413.14L416.267 32.5131L413.406 35.374C411.511 37.2693 409.511 37.2391 407.587 37.2102C407.352 37.2066 407.119 37.2031 406.887 37.2031C408.372 38.6883 411.623 38.9228 414.312 38.3756L424.537 48.5998C425.146 49.2095 425.146 50.21 424.537 50.8197L424.271 51.0855C422.442 52.9146 419.471 52.9146 417.642 51.0855L412.124 45.5669C410.513 46.2235 408.747 46.5831 406.887 46.5831C399.117 46.5831 392.817 40.2829 392.817 32.5131C392.817 28.1984 389.315 24.6965 385 24.6965ZM369.82 24.2431L363.833 18.2556C362.973 17.3801 361.753 16.8799 360.518 16.8799H351.248L355.938 21.5699H357.392C359.049 21.5699 360.643 22.2265 361.816 23.399L366.24 27.8232L369.82 24.2431ZM408.184 23.399C409.357 22.2265 410.951 21.5699 412.608 21.5699H414.062L418.752 16.8799H409.482C408.247 16.8799 407.027 17.3801 406.167 18.2556L400.18 24.2431L403.76 27.8232L408.184 23.399Z" fill="#040707"/>
<path d="M384.857 7.22334C384.857 7.22334 381.545 3.75686 378.867 6.44513C376.189 9.1334 378.836 14.9997 385.243 17.3502C391.444 14.5349 393.652 8.49321 390.777 6.01067C387.903 3.52812 384.857 7.22334 384.857 7.22334Z" fill="black"/>
<path d="M372.6 2.1068C372.6 2.1068 370.715 1.83688 370.538 3.33623C370.362 4.83558 372.622 6.01893 375.208 5.19121C376.462 2.79111 375.677 0.358022 374.182 0.292731C372.687 0.22744 372.6 2.1068 372.6 2.1068Z" fill="#FFAE00"/>
</svg>
