<svg width="25" height="24" viewBox="0 0 25 24" fill="none" xmlns="http://www.w3.org/2000/svg">
<mask id="mask0_210_26582" style="mask-type:alpha" maskUnits="userSpaceOnUse" x="0" y="0" width="25" height="24">
<rect x="0.5" width="24" height="24" fill="#D9D9D9"/>
</mask>
<g mask="url(#mask0_210_26582)">
<path d="M12.5008 22C9.91745 22 7.67578 21.1417 5.77578 19.425C3.87578 17.7083 2.80078 15.5667 2.55078 13H4.57578C4.82578 15.0167 5.70495 16.6875 7.21328 18.0125C8.72161 19.3375 10.4841 20 12.5008 20C14.7341 20 16.6258 19.225 18.1758 17.675C19.7258 16.125 20.5008 14.2333 20.5008 12C20.5008 9.76667 19.7258 7.875 18.1758 6.325C16.6258 4.775 14.7341 4 12.5008 4C11.0674 4 9.73828 4.35417 8.51328 5.0625C7.28828 5.77083 6.31745 6.75 5.60078 8H8.50078V10H2.70078C3.18411 7.66667 4.34245 5.75 6.17578 4.25C8.00911 2.75 10.1174 2 12.5008 2C13.8841 2 15.1841 2.2625 16.4008 2.7875C17.6174 3.3125 18.6758 4.025 19.5758 4.925C20.4758 5.825 21.1883 6.88333 21.7133 8.1C22.2383 9.31667 22.5008 10.6167 22.5008 12C22.5008 13.3833 22.2383 14.6833 21.7133 15.9C21.1883 17.1167 20.4758 18.175 19.5758 19.075C18.6758 19.975 17.6174 20.6875 16.4008 21.2125C15.1841 21.7375 13.8841 22 12.5008 22ZM15.3008 16.2L11.5008 12.4V7H13.5008V11.6L16.7008 14.8L15.3008 16.2Z" fill="#FFAE00"/>
</g>
</svg>
