<svg width="17" height="16" viewBox="0 0 17 16" fill="none" xmlns="http://www.w3.org/2000/svg">
<mask id="mask0_2771_1623" style="mask-type:alpha" maskUnits="userSpaceOnUse" x="0" y="0" width="17" height="16">
<rect x="0.5" width="16" height="16" fill="#D9D9D9"/>
</mask>
<g mask="url(#mask0_2771_1623)">
<path d="M7.53411 9.99998H9.46745L9.10078 7.84998C9.28678 7.75064 9.43328 7.60659 9.54028 7.41781C9.64728 7.22903 9.70078 7.02036 9.70078 6.79181C9.70078 6.46392 9.58295 6.18331 9.34728 5.94998C9.11161 5.71664 8.82828 5.59998 8.49728 5.59998C8.16628 5.59998 7.88411 5.71748 7.65078 5.95248C7.41745 6.18748 7.30078 6.46998 7.30078 6.79998C7.30078 7.02675 7.35428 7.23381 7.46128 7.42114C7.56828 7.60848 7.71478 7.75142 7.90078 7.84998L7.53411 9.99998ZM8.50078 14.4C7.00078 14.0333 5.75911 13.1842 4.77578 11.8526C3.79245 10.521 3.30078 9.04231 3.30078 7.41664V3.59998L8.50078 1.59998L13.7008 3.59998V7.41664C13.7008 9.04231 13.2091 10.521 12.2258 11.8526C11.2424 13.1842 10.0008 14.0333 8.50078 14.4ZM8.50078 13.15C9.65634 12.7916 10.6119 12.075 11.3674 11C12.123 9.92498 12.5008 8.73053 12.5008 7.41664V4.41664L8.50078 2.88331L4.50078 4.41664V7.41664C4.50078 8.73053 4.87856 9.92498 5.63411 11C6.38967 12.075 7.34523 12.7916 8.50078 13.15Z" fill="#4A4C4C"/>
</g>
</svg>
