<svg width="21" height="20" viewBox="0 0 21 20" fill="none" xmlns="http://www.w3.org/2000/svg">
<path d="M2.2181 10.2908C2.14865 10.1037 2.14865 9.89788 2.2181 9.71079C2.89452 8.07067 4.0427 6.66832 5.51708 5.68154C6.99146 4.69475 8.72564 4.16797 10.4998 4.16797C12.2739 4.16797 14.0081 4.69475 15.4825 5.68154C16.9568 6.66832 18.105 8.07067 18.7814 9.71079C18.8509 9.89788 18.8509 10.1037 18.7814 10.2908C18.105 11.9309 16.9568 13.3333 15.4825 14.32C14.0081 15.3068 12.2739 15.8336 10.4998 15.8336C8.72564 15.8336 6.99146 15.3068 5.51708 14.32C4.0427 13.3333 2.89452 11.9309 2.2181 10.2908Z" stroke="#FFEFCC" stroke-width="1.66667" stroke-linecap="round" stroke-linejoin="round"/>
<path d="M10.4998 12.5008C11.8805 12.5008 12.9998 11.3815 12.9998 10.0008C12.9998 8.62008 11.8805 7.50079 10.4998 7.50079C9.11906 7.50079 7.99977 8.62008 7.99977 10.0008C7.99977 11.3815 9.11906 12.5008 10.4998 12.5008Z" stroke="#FFEFCC" stroke-width="1.66667" stroke-linecap="round" stroke-linejoin="round"/>
</svg>
