<svg width="27" height="32" viewBox="0 0 27 32" fill="none" xmlns="http://www.w3.org/2000/svg">
<path d="M12.9182 6.68127C11.3775 5.14008 10.323 2.44876 9.79971 0C9.27559 2.44926 8.22221 5.14114 6.68102 6.68233C5.14039 8.22246 2.44826 9.27696 0 9.80134C2.44926 10.3247 5.14089 11.3785 6.68152 12.9198C8.22215 14.4604 9.27665 17.1523 9.80078 19.6011C10.3241 17.1518 11.3783 14.4599 12.9187 12.9187C14.4593 11.3781 17.1514 10.3241 19.5997 9.79971C17.151 9.2764 14.4594 8.22196 12.9182 6.68127Z" fill="white"/>
<path d="M22.9244 19.0208C22.0048 18.1007 21.3738 16.4921 21.0612 15.0293C20.748 16.4921 20.1191 18.1007 19.1985 19.0213C18.2779 19.9409 16.6695 20.5714 15.207 20.8846C16.67 21.1977 18.2779 21.8271 19.1985 22.7478C20.1191 23.6679 20.7491 25.2765 21.0622 26.7393C21.3748 25.2759 22.0048 23.6679 22.9249 22.7473C23.845 21.8271 25.4536 21.1971 26.9159 20.8835C25.4537 20.5709 23.8451 19.9409 22.9244 19.0208Z" fill="white"/>
<path d="M6.60458 22.1689C6.34164 23.3969 5.81364 24.7479 5.04089 25.5206C4.26826 26.2927 2.91788 26.8218 1.69006 27.0848C2.91788 27.3483 4.26826 27.8758 5.04089 28.649C5.81364 29.4216 6.3427 30.7715 6.60564 32.0001C6.86833 30.7715 7.39658 29.4217 8.16958 28.6485C8.94171 27.8758 10.2923 27.3472 11.5199 27.0838C10.2924 26.8213 8.94171 26.2928 8.16908 25.5201C7.39658 24.748 6.86727 23.397 6.60458 22.1689Z" fill="white"/>
</svg>
