<svg width="18" height="18" viewBox="0 0 18 18" fill="none" xmlns="http://www.w3.org/2000/svg">
<path d="M8.61725 1.24739C8.65402 1.17312 8.71081 1.11059 8.78122 1.06688C8.85163 1.02316 8.93286 1 9.01574 1C9.09862 1 9.17985 1.02316 9.25026 1.06688C9.32067 1.11059 9.37747 1.17312 9.41423 1.24739L11.3521 5.17271C11.4798 5.43108 11.6683 5.6546 11.9013 5.8241C12.1344 5.9936 12.4051 6.10401 12.6902 6.14587L17.0241 6.78009C17.1062 6.79199 17.1834 6.82663 17.2468 6.88009C17.3103 6.93355 17.3575 7.00371 17.3832 7.08261C17.4088 7.16152 17.4119 7.24604 17.392 7.3266C17.3722 7.40716 17.3302 7.48055 17.2707 7.53848L14.1365 10.5905C13.9298 10.7919 13.7752 11.0405 13.6859 11.315C13.5966 11.5895 13.5753 11.8815 13.6239 12.166L14.3639 16.478C14.3784 16.5601 14.3695 16.6446 14.3383 16.7219C14.3071 16.7992 14.2548 16.8661 14.1873 16.9151C14.1199 16.9641 14.04 16.9931 13.9569 16.9989C13.8737 17.0047 13.7906 16.987 13.7171 16.9478L9.84292 14.9109C9.58765 14.7769 9.30364 14.7069 9.01532 14.7069C8.727 14.7069 8.44299 14.7769 8.18772 14.9109L4.31442 16.9478C4.24087 16.9868 4.15787 17.0043 4.07486 16.9984C3.99185 16.9925 3.91217 16.9634 3.84487 16.9145C3.77757 16.8655 3.72535 16.7987 3.69416 16.7215C3.66298 16.6444 3.65406 16.56 3.66845 16.478L4.40754 12.1668C4.45636 11.8822 4.43521 11.59 4.34591 11.3153C4.25661 11.0407 4.10184 10.792 3.89495 10.5905L0.760738 7.53932C0.700833 7.48146 0.658383 7.40794 0.638223 7.32713C0.618063 7.24633 0.621004 7.16148 0.64671 7.08226C0.672416 7.00305 0.719854 6.93264 0.783621 6.87907C0.847387 6.8255 0.924918 6.79091 1.00738 6.77925L5.34042 6.14587C5.62587 6.10434 5.89695 5.99407 6.13034 5.82455C6.36372 5.65503 6.55241 5.43133 6.68018 5.17271L8.61725 1.24739Z" fill="url(#paint0_linear_211_19303)"/>
<path d="M8.61725 1.24739C8.65402 1.17312 8.71081 1.11059 8.78122 1.06688C8.85163 1.02316 8.93286 1 9.01574 1C9.09862 1 9.17985 1.02316 9.25026 1.06688C9.32067 1.11059 9.37747 1.17312 9.41423 1.24739L11.3521 5.17271C11.4798 5.43108 11.6683 5.6546 11.9013 5.8241C12.1344 5.9936 12.4051 6.10401 12.6902 6.14587L17.0241 6.78009C17.1062 6.79199 17.1834 6.82663 17.2468 6.88009C17.3103 6.93355 17.3575 7.00371 17.3832 7.08261C17.4088 7.16152 17.4119 7.24604 17.392 7.3266C17.3722 7.40716 17.3302 7.48055 17.2707 7.53848L14.1365 10.5905C13.9298 10.7919 13.7752 11.0405 13.6859 11.315C13.5966 11.5895 13.5753 11.8815 13.6239 12.166L14.3639 16.478C14.3784 16.5601 14.3695 16.6446 14.3383 16.7219C14.3071 16.7992 14.2548 16.8661 14.1873 16.9151C14.1199 16.9641 14.04 16.9931 13.9569 16.9989C13.8737 17.0047 13.7906 16.987 13.7171 16.9478L9.84292 14.9109C9.58765 14.7769 9.30364 14.7069 9.01532 14.7069C8.727 14.7069 8.44299 14.7769 8.18772 14.9109L4.31442 16.9478C4.24087 16.9868 4.15787 17.0043 4.07486 16.9984C3.99185 16.9925 3.91217 16.9634 3.84487 16.9145C3.77757 16.8655 3.72535 16.7987 3.69416 16.7215C3.66298 16.6444 3.65406 16.56 3.66845 16.478L4.40754 12.1668C4.45636 11.8822 4.43521 11.59 4.34591 11.3153C4.25661 11.0407 4.10184 10.792 3.89495 10.5905L0.760738 7.53932C0.700833 7.48146 0.658383 7.40794 0.638223 7.32713C0.618063 7.24633 0.621004 7.16148 0.64671 7.08226C0.672416 7.00305 0.719854 6.93264 0.783621 6.87907C0.847387 6.8255 0.924918 6.79091 1.00738 6.77925L5.34042 6.14587C5.62587 6.10434 5.89695 5.99407 6.13034 5.82455C6.36372 5.65503 6.55241 5.43133 6.68018 5.17271L8.61725 1.24739Z" fill="url(#paint1_linear_211_19303)"/>
<path d="M8.61725 1.24739C8.65402 1.17312 8.71081 1.11059 8.78122 1.06688C8.85163 1.02316 8.93286 1 9.01574 1C9.09862 1 9.17985 1.02316 9.25026 1.06688C9.32067 1.11059 9.37747 1.17312 9.41423 1.24739L11.3521 5.17271C11.4798 5.43108 11.6683 5.6546 11.9013 5.8241C12.1344 5.9936 12.4051 6.10401 12.6902 6.14587L17.0241 6.78009C17.1062 6.79199 17.1834 6.82663 17.2468 6.88009C17.3103 6.93355 17.3575 7.00371 17.3832 7.08261C17.4088 7.16152 17.4119 7.24604 17.392 7.3266C17.3722 7.40716 17.3302 7.48055 17.2707 7.53848L14.1365 10.5905C13.9298 10.7919 13.7752 11.0405 13.6859 11.315C13.5966 11.5895 13.5753 11.8815 13.6239 12.166L14.3639 16.478C14.3784 16.5601 14.3695 16.6446 14.3383 16.7219C14.3071 16.7992 14.2548 16.8661 14.1873 16.9151C14.1199 16.9641 14.04 16.9931 13.9569 16.9989C13.8737 17.0047 13.7906 16.987 13.7171 16.9478L9.84292 14.9109C9.58765 14.7769 9.30364 14.7069 9.01532 14.7069C8.727 14.7069 8.44299 14.7769 8.18772 14.9109L4.31442 16.9478C4.24087 16.9868 4.15787 17.0043 4.07486 16.9984C3.99185 16.9925 3.91217 16.9634 3.84487 16.9145C3.77757 16.8655 3.72535 16.7987 3.69416 16.7215C3.66298 16.6444 3.65406 16.56 3.66845 16.478L4.40754 12.1668C4.45636 11.8822 4.43521 11.59 4.34591 11.3153C4.25661 11.0407 4.10184 10.792 3.89495 10.5905L0.760738 7.53932C0.700833 7.48146 0.658383 7.40794 0.638223 7.32713C0.618063 7.24633 0.621004 7.16148 0.64671 7.08226C0.672416 7.00305 0.719854 6.93264 0.783621 6.87907C0.847387 6.8255 0.924918 6.79091 1.00738 6.77925L5.34042 6.14587C5.62587 6.10434 5.89695 5.99407 6.13034 5.82455C6.36372 5.65503 6.55241 5.43133 6.68018 5.17271L8.61725 1.24739Z" stroke="url(#paint2_linear_211_19303)" stroke-width="1.17984" stroke-linecap="round" stroke-linejoin="round"/>
<path d="M8.61725 1.24739C8.65402 1.17312 8.71081 1.11059 8.78122 1.06688C8.85163 1.02316 8.93286 1 9.01574 1C9.09862 1 9.17985 1.02316 9.25026 1.06688C9.32067 1.11059 9.37747 1.17312 9.41423 1.24739L11.3521 5.17271C11.4798 5.43108 11.6683 5.6546 11.9013 5.8241C12.1344 5.9936 12.4051 6.10401 12.6902 6.14587L17.0241 6.78009C17.1062 6.79199 17.1834 6.82663 17.2468 6.88009C17.3103 6.93355 17.3575 7.00371 17.3832 7.08261C17.4088 7.16152 17.4119 7.24604 17.392 7.3266C17.3722 7.40716 17.3302 7.48055 17.2707 7.53848L14.1365 10.5905C13.9298 10.7919 13.7752 11.0405 13.6859 11.315C13.5966 11.5895 13.5753 11.8815 13.6239 12.166L14.3639 16.478C14.3784 16.5601 14.3695 16.6446 14.3383 16.7219C14.3071 16.7992 14.2548 16.8661 14.1873 16.9151C14.1199 16.9641 14.04 16.9931 13.9569 16.9989C13.8737 17.0047 13.7906 16.987 13.7171 16.9478L9.84292 14.9109C9.58765 14.7769 9.30364 14.7069 9.01532 14.7069C8.727 14.7069 8.44299 14.7769 8.18772 14.9109L4.31442 16.9478C4.24087 16.9868 4.15787 17.0043 4.07486 16.9984C3.99185 16.9925 3.91217 16.9634 3.84487 16.9145C3.77757 16.8655 3.72535 16.7987 3.69416 16.7215C3.66298 16.6444 3.65406 16.56 3.66845 16.478L4.40754 12.1668C4.45636 11.8822 4.43521 11.59 4.34591 11.3153C4.25661 11.0407 4.10184 10.792 3.89495 10.5905L0.760738 7.53932C0.700833 7.48146 0.658383 7.40794 0.638223 7.32713C0.618063 7.24633 0.621004 7.16148 0.64671 7.08226C0.672416 7.00305 0.719854 6.93264 0.783621 6.87907C0.847387 6.8255 0.924918 6.79091 1.00738 6.77925L5.34042 6.14587C5.62587 6.10434 5.89695 5.99407 6.13034 5.82455C6.36372 5.65503 6.55241 5.43133 6.68018 5.17271L8.61725 1.24739Z" stroke="url(#paint3_linear_211_19303)" stroke-width="1.17984" stroke-linecap="round" stroke-linejoin="round"/>
<defs>
<linearGradient id="paint0_linear_211_19303" x1="17.405" y1="1" x2="1.42308" y2="17.761" gradientUnits="userSpaceOnUse">
<stop stop-color="#FFAE00"/>
<stop offset="1" stop-color="#F87E00"/>
</linearGradient>
<linearGradient id="paint1_linear_211_19303" x1="9.01499" y1="1" x2="9.01499" y2="17" gradientUnits="userSpaceOnUse">
<stop stop-color="#F87E00"/>
<stop offset="0.6" stop-color="#FFAE00"/>
</linearGradient>
<linearGradient id="paint2_linear_211_19303" x1="17.405" y1="1" x2="1.42308" y2="17.761" gradientUnits="userSpaceOnUse">
<stop stop-color="#FFAE00"/>
<stop offset="1" stop-color="#F87E00"/>
</linearGradient>
<linearGradient id="paint3_linear_211_19303" x1="9.01499" y1="1" x2="9.01499" y2="17" gradientUnits="userSpaceOnUse">
<stop stop-color="#F87E00"/>
<stop offset="0.6" stop-color="#FFAE00"/>
</linearGradient>
</defs>
</svg>
