<svg width="42" height="43" viewBox="0 0 42 43" fill="none" xmlns="http://www.w3.org/2000/svg">
<path d="M38.1596 17.9203H36.75V17.8477H21V24.8477H30.8901C29.4473 28.9225 25.5701 31.8477 21 31.8477C15.2014 31.8477 10.5 27.1463 10.5 21.3477C10.5 15.549 15.2014 10.8477 21 10.8477C23.6766 10.8477 26.1117 11.8574 27.9659 13.5068L32.9158 8.55691C29.7903 5.64403 25.6095 3.84766 21 3.84766C11.3356 3.84766 3.5 11.6833 3.5 21.3477C3.5 31.012 11.3356 38.8477 21 38.8477C30.6644 38.8477 38.5 31.012 38.5 21.3477C38.5 20.1743 38.3792 19.0289 38.1596 17.9203Z" fill="#FFC107"/>
<path d="M5.51562 13.2023L11.2652 17.4189C12.821 13.5672 16.5887 10.8477 20.9979 10.8477C23.6745 10.8477 26.1096 11.8574 27.9637 13.5068L32.9136 8.55691C29.7881 5.64403 25.6074 3.84766 20.9979 3.84766C14.2761 3.84766 8.44687 7.64253 5.51562 13.2023Z" fill="#FF3D00"/>
<path d="M20.9993 38.8473C25.5195 38.8473 29.6268 37.1174 32.7322 34.3043L27.3159 29.721C25.5002 31.1027 23.2809 31.8497 20.9993 31.8473C16.4475 31.8473 12.5827 28.9449 11.1267 24.8945L5.41992 29.2914C8.31617 34.9588 14.1979 38.8473 20.9993 38.8473Z" fill="#4CAF50"/>
<path d="M38.1596 17.9203H36.75V17.8477H21V24.8477H30.8901C30.1999 26.787 28.9567 28.4817 27.314 29.7223L27.3166 29.7205L32.7329 34.3038C32.3496 34.652 38.5 30.0977 38.5 21.3477C38.5 20.1743 38.3792 19.0289 38.1596 17.9203Z" fill="#1976D2"/>
</svg>
