<svg width="56" height="56" viewBox="0 0 56 56" fill="none" xmlns="http://www.w3.org/2000/svg">
<path d="M28 0.52832C43.1722 0.52832 55.4717 12.8278 55.4717 28C55.4717 43.1722 43.1722 55.4717 28 55.4717C12.8278 55.4717 0.52832 43.1722 0.52832 28C0.52832 12.8278 12.8278 0.52832 28 0.52832Z" fill="#F3F4F4" fill-opacity="0.1"/>
<path d="M28 0.52832C43.1722 0.52832 55.4717 12.8278 55.4717 28C55.4717 43.1722 43.1722 55.4717 28 55.4717C12.8278 55.4717 0.52832 43.1722 0.52832 28C0.52832 12.8278 12.8278 0.52832 28 0.52832Z" stroke="url(#paint0_linear_839_26603)" stroke-width="1.05655"/>
<g clip-path="url(#clip0_839_26603)">
<path d="M39 22.0026V34.7525C39 35.5812 38.329 36.2522 37.5003 36.2522H33.9996V27.7529L28 32.2537L22.0004 27.7529V36.2531H18.4997C18.3027 36.2531 18.1076 36.2143 17.9256 36.1389C17.7435 36.0634 17.5782 35.9529 17.4389 35.8135C17.2996 35.6742 17.1892 35.5088 17.1139 35.3267C17.0386 35.1447 16.9999 34.9495 17 34.7525V22.0026C17 20.1482 19.1166 19.0895 20.5998 20.2023L22.0004 21.2537L28 25.7527L33.9996 21.2519L35.4002 20.2023C36.8825 19.0904 39 20.1482 39 22.0026Z" fill="#FFAE00"/>
</g>
<defs>
<linearGradient id="paint0_linear_839_26603" x1="37.8" y1="37.8" x2="56" y2="56" gradientUnits="userSpaceOnUse">
<stop stop-color="white" stop-opacity="0.5"/>
<stop offset="1" stop-color="#FFAE00"/>
</linearGradient>
<clipPath id="clip0_839_26603">
<rect width="22" height="22" fill="white" transform="translate(17 17)"/>
</clipPath>
</defs>
</svg>
