<svg xmlns="http://www.w3.org/2000/svg" width="32" height="32" fill="none" viewBox="0 0 32 32">
  <path fill="url(#a)" d="M15.446 2.433a.778.778 0 0 1 1.395 0l3.391 6.87a3.118 3.118 0 0 0 2.342 1.702l7.584 1.11a.777.777 0 0 1 .432 1.327l-5.485 5.341a3.118 3.118 0 0 0-.897 2.758l1.295 7.546a.779.779 0 0 1-1.132.822l-6.78-3.565a3.116 3.116 0 0 0-2.896 0L7.916 29.91a.778.778 0 0 1-1.13-.822l1.293-7.545a3.115 3.115 0 0 0-.897-2.759l-5.485-5.34a.778.778 0 0 1 .432-1.33l7.583-1.108a3.116 3.116 0 0 0 2.344-1.703l3.39-6.87Z"/>
  <path fill="url(#b)" d="M15.446 2.433a.778.778 0 0 1 1.395 0l3.391 6.87a3.118 3.118 0 0 0 2.342 1.702l7.584 1.11a.777.777 0 0 1 .432 1.327l-5.485 5.341a3.118 3.118 0 0 0-.897 2.758l1.295 7.546a.779.779 0 0 1-1.132.822l-6.78-3.565a3.116 3.116 0 0 0-2.896 0L7.916 29.91a.778.778 0 0 1-1.13-.822l1.293-7.545a3.115 3.115 0 0 0-.897-2.759l-5.485-5.34a.778.778 0 0 1 .432-1.33l7.583-1.108a3.116 3.116 0 0 0 2.344-1.703l3.39-6.87Z"/>
  <path stroke="url(#c)" stroke-linecap="round" stroke-linejoin="round" stroke-width="2.065" d="M15.446 2.433a.778.778 0 0 1 1.395 0l3.391 6.87a3.118 3.118 0 0 0 2.342 1.702l7.584 1.11a.777.777 0 0 1 .432 1.327l-5.485 5.341a3.118 3.118 0 0 0-.897 2.758l1.295 7.546a.779.779 0 0 1-1.132.822l-6.78-3.565a3.116 3.116 0 0 0-2.896 0L7.916 29.91a.778.778 0 0 1-1.13-.822l1.293-7.545a3.115 3.115 0 0 0-.897-2.759l-5.485-5.34a.778.778 0 0 1 .432-1.33l7.583-1.108a3.116 3.116 0 0 0 2.344-1.703l3.39-6.87Z"/>
  <path stroke="url(#d)" stroke-linecap="round" stroke-linejoin="round" stroke-width="2.065" d="M15.446 2.433a.778.778 0 0 1 1.395 0l3.391 6.87a3.118 3.118 0 0 0 2.342 1.702l7.584 1.11a.777.777 0 0 1 .432 1.327l-5.485 5.341a3.118 3.118 0 0 0-.897 2.758l1.295 7.546a.779.779 0 0 1-1.132.822l-6.78-3.565a3.116 3.116 0 0 0-2.896 0L7.916 29.91a.778.778 0 0 1-1.13-.822l1.293-7.545a3.115 3.115 0 0 0-.897-2.759l-5.485-5.34a.778.778 0 0 1 .432-1.33l7.583-1.108a3.116 3.116 0 0 0 2.344-1.703l3.39-6.87Z"/>
  <defs>
    <linearGradient id="a" x1="16.142" x2="16.142" y1="2" y2="30" gradientUnits="userSpaceOnUse">
      <stop stop-color="#F87E00"/>
      <stop offset=".6" stop-color="#FFAE00"/>
    </linearGradient>
    <linearGradient id="b" x1="1.46" x2="30.825" y1="16" y2="16" gradientUnits="userSpaceOnUse">
      <stop offset=".615" stop-opacity="0"/>
      <stop offset=".615"/>
    </linearGradient>
    <linearGradient id="c" x1="30.825" x2="2.856" y1="2" y2="31.332" gradientUnits="userSpaceOnUse">
      <stop stop-color="#FFAE00"/>
      <stop offset="1" stop-color="#F87E00"/>
    </linearGradient>
    <linearGradient id="d" x1="16.142" x2="16.142" y1="2" y2="30" gradientUnits="userSpaceOnUse">
      <stop stop-color="#F87E00"/>
      <stop offset=".6" stop-color="#FFAE00"/>
    </linearGradient>
  </defs>
</svg>
