<svg width="40" height="33" viewBox="0 0 40 33" fill="none" xmlns="http://www.w3.org/2000/svg">
<g clip-path="url(#clip0_122_15437)">
<path d="M20.7125 5.325L14.6625 10.225C13.6562 11.0375 13.4625 12.5 14.225 13.5437C15.0312 14.6562 16.6 14.875 17.6812 14.0312L23.8875 9.20625C24.325 8.86875 24.95 8.94375 25.2938 9.38125C25.6375 9.81875 25.5562 10.4438 25.1187 10.7875L23.8125 11.8L32.5 19.8V8H32.4562L32.2125 7.84375L27.675 4.9375C26.7188 4.325 25.6 4 24.4625 4C23.1 4 21.775 4.46875 20.7125 5.325ZM22.1375 13.1L18.9062 15.6125C16.9375 17.15 14.0813 16.75 12.6062 14.725C11.2188 12.8188 11.5687 10.1562 13.4 8.675L18.6 4.46875C17.875 4.1625 17.0938 4.00625 16.3 4.00625C15.125 4 13.9812 4.35 13 5L8.5 8V22H10.2625L15.975 27.2125C17.2 28.3312 19.0938 28.2437 20.2125 27.0187C20.5562 26.6375 20.7875 26.1938 20.9062 25.7313L21.9688 26.7062C23.1875 27.825 25.0875 27.7437 26.2062 26.525C26.4875 26.2188 26.6938 25.8625 26.825 25.4937C28.0375 26.3062 29.6875 26.1375 30.7062 25.025C31.825 23.8062 31.7437 21.9062 30.525 20.7875L22.1375 13.1ZM1.5 8C0.95 8 0.5 8.45 0.5 9V22C0.5 23.1063 1.39375 24 2.5 24H4.5C5.60625 24 6.5 23.1063 6.5 22V8H1.5ZM3.5 20C3.76522 20 4.01957 20.1054 4.20711 20.2929C4.39464 20.4804 4.5 20.7348 4.5 21C4.5 21.2652 4.39464 21.5196 4.20711 21.7071C4.01957 21.8946 3.76522 22 3.5 22C3.23478 22 2.98043 21.8946 2.79289 21.7071C2.60536 21.5196 2.5 21.2652 2.5 21C2.5 20.7348 2.60536 20.4804 2.79289 20.2929C2.98043 20.1054 3.23478 20 3.5 20ZM34.5 8V22C34.5 23.1063 35.3937 24 36.5 24H38.5C39.6063 24 40.5 23.1063 40.5 22V9C40.5 8.45 40.05 8 39.5 8H34.5ZM36.5 21C36.5 20.7348 36.6054 20.4804 36.7929 20.2929C36.9804 20.1054 37.2348 20 37.5 20C37.7652 20 38.0196 20.1054 38.2071 20.2929C38.3946 20.4804 38.5 20.7348 38.5 21C38.5 21.2652 38.3946 21.5196 38.2071 21.7071C38.0196 21.8946 37.7652 22 37.5 22C37.2348 22 36.9804 21.8946 36.7929 21.7071C36.6054 21.5196 36.5 21.2652 36.5 21Z" fill="#FFAE00"/>
</g>
<defs>
<clipPath id="clip0_122_15437">
<rect width="40" height="32" fill="white" transform="translate(0 0.5)"/>
</clipPath>
</defs>
</svg>
