<svg width="48" height="48" viewBox="0 0 48 48" fill="none" xmlns="http://www.w3.org/2000/svg">
<path d="M24.0002 9.00117C23.4161 9.00069 22.8445 9.17077 22.3556 9.49052C21.8668 9.81027 21.4819 10.2658 21.2482 10.8012C21.0257 11.2709 20.629 11.6356 20.1422 11.8178C19.6554 12.0001 19.1168 11.9857 18.6404 11.7777C18.1641 11.5697 17.7874 11.1844 17.5903 10.7035C17.3931 10.2225 17.3909 9.68369 17.5842 9.20117C17.8042 8.69984 18.0762 8.23317 18.4002 7.80117C19.0381 6.95153 19.861 6.25823 20.8066 5.77382C21.7522 5.28941 22.7957 5.0266 23.8579 5.00531C24.9201 4.98402 25.9733 5.2048 26.9375 5.65093C27.9018 6.09706 28.7518 6.75682 29.4232 7.58022C30.0946 8.40363 30.5698 9.36906 30.8127 10.4034C31.0557 11.4377 31.06 12.5137 30.8253 13.5499C30.5907 14.5861 30.1232 15.5553 29.4584 16.3841C28.7936 17.2128 27.9489 17.8793 26.9882 18.3332C26.6764 18.4722 26.3951 18.6714 26.1602 18.9192C26.0002 19.1032 26.0002 19.1932 26.0002 19.2032C26.0002 19.2772 26.0402 19.3472 26.1042 19.3832L41.1902 27.7632C42.2485 28.3504 43.0818 29.2725 43.5592 30.3847C44.0366 31.4969 44.1311 32.7361 43.8278 33.9078C43.5245 35.0795 42.8407 36.1173 41.8836 36.8582C40.9266 37.5991 39.7505 38.0011 38.5402 38.0012H9.48623C8.27787 38.0017 7.10316 37.6032 6.14449 36.8676C5.18582 36.132 4.49683 35.1005 4.18449 33.9332C3.87215 32.7659 3.95394 31.5282 4.41715 30.4121C4.88037 29.2961 5.6991 28.3642 6.74623 27.7612L18.0002 21.2712C18.4593 21.0101 19.0031 20.9413 19.5128 21.0797C20.0224 21.2181 20.4567 21.5524 20.7208 22.0098C20.9848 22.4672 21.0573 23.0104 20.9223 23.521C20.7873 24.0316 20.4558 24.4681 20.0002 24.7352L8.74423 31.2292C8.46146 31.3929 8.24053 31.6452 8.11564 31.9472C7.99075 32.2491 7.96885 32.5838 8.05334 32.8994C8.13783 33.215 8.32399 33.494 8.58301 33.6932C8.84204 33.8924 9.15948 34.0006 9.48623 34.0012H38.5402C38.8641 34.0012 39.1788 33.8936 39.435 33.6954C39.6911 33.4971 39.8742 33.2194 39.9554 32.9059C40.0367 32.5924 40.0115 32.2607 39.8839 31.963C39.7562 31.6653 39.5334 31.4185 39.2502 31.2612L24.1642 22.8792C23.5084 22.5157 22.9619 21.9833 22.5813 21.3372C22.2008 20.6911 22.0001 19.955 22.0002 19.2052C22.0002 16.7892 23.9682 15.3352 25.2802 14.7172C25.8983 14.4272 26.3991 13.9351 26.6997 13.3221C27.0003 12.7091 27.0828 12.0119 26.9336 11.3456C26.7844 10.6794 26.4124 10.0839 25.8791 9.65767C25.3458 9.23141 24.683 8.99983 24.0002 9.00117Z" fill="#FFAE00"/>
</svg>
