<svg width="41" height="41" viewBox="0 0 41 41" fill="none" xmlns="http://www.w3.org/2000/svg">
<path fill-rule="evenodd" clip-rule="evenodd" d="M20.4997 3.83301C29.7047 3.83301 37.1663 11.2947 37.1663 20.4997C37.1663 29.7047 29.7047 37.1663 20.4997 37.1663C11.2947 37.1663 3.83301 29.7047 3.83301 20.4997C3.83301 11.2947 11.2947 3.83301 20.4997 3.83301ZM23.8063 24.2497C22.923 25.0297 21.768 25.4997 20.4997 25.4997C19.282 25.4995 18.1063 25.0551 17.193 24.2497C16.8615 23.9571 16.4273 23.8081 15.986 23.8356C15.5446 23.8631 15.1323 24.0648 14.8397 24.3963C14.5471 24.7279 14.3981 25.162 14.4256 25.6034C14.4531 26.0447 14.6548 26.4571 14.9863 26.7497C16.509 28.0925 18.4695 28.8333 20.4997 28.833C22.5304 28.8364 24.492 28.0952 26.013 26.7497C26.3445 26.4571 26.5462 26.0447 26.5737 25.6034C26.6012 25.162 26.4523 24.7279 26.1597 24.3963C25.8671 24.0648 25.4547 23.8631 25.0134 23.8356C24.572 23.8081 24.1379 23.9571 23.8063 24.2497ZM14.6663 13.833C12.8547 13.833 11.403 14.9663 10.6763 16.4197C10.4853 16.7999 10.4469 17.2388 10.5691 17.6464C10.6913 18.054 10.9647 18.3995 11.3334 18.6119C11.7021 18.8244 12.1381 18.8878 12.552 18.7892C12.9659 18.6905 13.3265 18.4373 13.5597 18.0813L13.6563 17.913C13.9263 17.373 14.3397 17.1663 14.6663 17.1663C14.9497 17.1663 15.303 17.3247 15.568 17.7263L15.6763 17.913C15.8764 18.3047 16.2232 18.6013 16.6411 18.7384C17.0589 18.8755 17.5141 18.8419 17.9072 18.6448C18.3004 18.4478 18.5998 18.1034 18.7401 17.6866C18.8804 17.2697 18.8503 16.8144 18.6563 16.4197C17.928 14.9663 16.478 13.833 14.6663 13.833ZM26.333 13.833C24.5213 13.833 23.0713 14.9663 22.343 16.4197C22.152 16.7999 22.1136 17.2388 22.2358 17.6464C22.358 18.054 22.6314 18.3995 23.0001 18.6119C23.3688 18.8244 23.8048 18.8878 24.2187 18.7892C24.6326 18.6905 24.9931 18.4373 25.2263 18.0813L25.323 17.913C25.593 17.373 26.0063 17.1663 26.333 17.1663C26.6163 17.1663 26.9697 17.3247 27.2347 17.7263L27.343 17.913C27.44 18.1104 27.5752 18.2867 27.7406 18.4316C27.9061 18.5765 28.0986 18.6873 28.307 18.7574C28.5155 18.8276 28.7358 18.8558 28.9552 18.8405C29.1746 18.8251 29.3888 18.7665 29.5855 18.6679C29.7821 18.5694 29.9573 18.4329 30.101 18.2663C30.2446 18.0997 30.3539 17.9064 30.4224 17.6974C30.491 17.4884 30.5175 17.2679 30.5004 17.0486C30.4834 16.8293 30.4231 16.6156 30.323 16.4197C29.5963 14.9663 28.1447 13.833 26.333 13.833Z" fill="#FFAE00"/>
</svg>
