<svg width="141" height="140" viewBox="0 0 141 140" fill="none" xmlns="http://www.w3.org/2000/svg">
<path d="M105.014 85.458C105.288 85.6694 105.542 85.9067 105.772 86.1666C107.303 88.42 109.436 89.001 112.058 88.7459C114.528 88.5688 117.007 88.5688 119.478 88.7459C120.439 88.7995 121.355 89.1681 122.085 89.7947C125.865 93.4133 129.557 97.1051 133.162 100.87C133.796 101.594 134.165 102.51 134.211 103.471C134.301 108.644 134.301 113.819 134.211 118.996C134.161 119.959 133.787 120.876 133.148 121.597C129.524 125.376 125.832 129.068 122.071 132.673C121.387 133.288 120.318 133.738 119.399 133.778C114.084 133.778 109.123 133.778 103.808 133.778C102.848 133.724 102.05 133.246 101.343 132.595C97.615 129.009 94.0007 125.296 90.3157 121.661C89.9419 121.308 89.6495 120.878 89.4586 120.401C89.2677 119.923 89.1829 119.41 89.2101 118.897C89.2101 115.524 89.2526 112.144 89.2101 108.771C89.1873 108.166 88.9514 107.589 88.544 107.141C72.8587 91.415 57.1592 75.7241 41.4455 60.0686C41.2071 59.8693 40.9289 59.7233 40.6294 59.6402C40.33 59.5571 40.0163 59.5388 39.7093 59.5867C36.2452 60.3717 32.6603 60.4657 29.1598 59.8634C25.6593 59.2611 22.3121 57.9743 19.3097 56.0767C16.3072 54.179 13.7087 51.7079 11.6628 48.8046C9.61683 45.9014 8.16373 42.6231 7.38666 39.1576C6.35281 34.6165 6.52875 29.8837 7.8969 25.4319C8.60558 23.0935 10.4269 22.647 12.1489 24.3902C16.1742 28.3868 20.19 32.4022 24.1964 36.4365C24.4356 36.7227 24.7472 36.9394 25.0987 37.0641C25.4503 37.1887 25.8288 37.2167 26.1949 37.1451C29.5752 36.6845 32.9769 36.3444 36.4848 35.9759C36.91 32.2487 37.3565 28.5993 37.7108 24.9429C37.7108 24.5674 37.321 24.0784 37.0021 23.7525C33.0525 19.7843 29.1004 15.8279 25.146 11.8833C23.02 9.75746 23.5019 8.08515 26.4145 7.26317C30.1005 6.2075 33.9694 5.95102 37.7625 6.51091C41.5556 7.07079 45.1854 8.43412 48.4091 10.5097C51.6328 12.5853 54.376 15.3253 56.4554 18.5463C58.5347 21.7674 59.9022 25.3954 60.4663 29.1875C60.9433 32.3551 60.8328 35.5835 60.1403 38.7112C59.9797 39.2906 59.6635 39.815 59.2261 40.2276C58.5131 40.8844 57.9459 41.6836 57.5614 42.5734C57.1768 43.4633 56.9835 44.424 56.9938 45.3933C56.9938 49.2623 57.1072 53.1384 56.9938 57.0074C56.8592 60.6142 57.8867 63.4628 61.3876 65.0572C60.1049 68.4514 61.1325 71.1229 63.6341 73.4825C66.2845 75.9839 68.8712 78.5562 71.3657 81.2134C73.7469 83.7644 76.4398 84.8273 79.9123 83.566C81.5423 87.2153 84.5541 88.1507 88.2251 88.0161C91.5062 87.9027 94.7945 87.9452 98.0827 88.0161C100.712 88.094 103.157 87.7043 105.014 85.458ZM111.193 120.215C115.445 120.215 115.445 120.215 118.124 117.551C118.211 117.449 118.306 117.355 118.407 117.267C120.385 115.85 120.76 113.979 120.845 111.599C120.952 110.263 120.741 108.921 120.229 107.682C119.718 106.443 118.922 105.342 117.904 104.47C116.171 102.853 113.871 101.984 111.502 102.052C109.132 102.119 106.885 103.118 105.247 104.831C104.391 105.64 103.713 106.618 103.258 107.705C102.802 108.791 102.58 109.96 102.604 111.138C102.539 112.365 102.753 113.59 103.231 114.722C103.708 115.853 104.437 116.862 105.361 117.671C107.218 119.464 108.933 120.903 111.193 120.215Z" fill="#FFAE00"/>
<path d="M81.2609 27.622C84.0106 26.467 84.0106 26.467 84.0106 23.7672C84.0106 21.0674 84.5704 20.5005 87.2067 20.5005C91.2603 20.5005 95.3068 20.5005 99.3605 20.5005C101.231 20.5005 101.983 21.2091 102.025 23.0869C102.078 23.6715 102.078 24.2597 102.025 24.8443C101.827 26.1339 102.372 26.7363 103.584 27.1685C104.442 27.4732 104.945 27.4661 105.519 26.7575C106.048 26.1454 106.619 25.5701 107.227 25.0356C108.311 24.0223 109.544 23.9656 110.586 24.986C113.77 28.1133 116.921 31.2643 120.04 34.4388C121.06 35.4734 121.003 36.5646 120.04 37.6771C119.841 37.9216 119.618 38.1448 119.373 38.3432C117.751 39.5691 116.914 40.9367 118.757 42.9634C119.65 42.9634 120.883 42.9634 122.052 42.9634C123.689 42.9634 124.54 43.8349 124.547 45.4789C124.547 49.8014 124.547 54.1216 124.547 58.4393C124.547 60.0691 123.71 60.9124 122.059 60.9974C121.433 61.0612 120.801 61.0612 120.174 60.9974C118.913 60.8061 118.254 61.295 117.836 62.5138C117.545 63.3571 117.545 63.8885 118.261 64.4696C118.912 65.023 119.519 65.6272 120.075 66.2765C120.308 66.4797 120.494 66.7311 120.619 67.0133C120.745 67.2956 120.808 67.6018 120.803 67.9107C120.798 68.2197 120.726 68.5238 120.592 68.8021C120.458 69.0804 120.264 69.326 120.025 69.5219C116.893 72.687 113.742 75.8356 110.572 78.9677C110.372 79.2035 110.124 79.393 109.843 79.5229C109.563 79.6529 109.258 79.7202 108.949 79.7202C108.64 79.7202 108.335 79.6529 108.054 79.5229C107.774 79.393 107.526 79.2035 107.326 78.9677C106.675 78.4111 106.07 77.802 105.519 77.1466C104.938 76.438 104.392 76.438 103.556 76.7497C102.344 77.1678 101.99 77.8197 102.018 79.0881C102.103 83.2406 101.834 83.4602 97.7659 83.4602C94.1234 83.4602 90.4737 83.4602 86.8311 83.4602C84.8397 83.4602 84.0673 82.6666 84.0531 80.6754V79.3291C84.0531 77.1253 84.0531 77.104 81.9271 76.5442C81.7437 76.5259 81.5586 76.5453 81.383 76.6014C81.2075 76.6574 81.0453 76.7489 80.9066 76.8702C80.1979 77.4938 79.5743 78.2095 78.8869 78.8543C77.7814 79.896 76.5908 79.9668 75.5349 78.9323C72.308 75.8049 69.1332 72.6634 66.0103 69.5078C65.7845 69.3013 65.6042 69.0501 65.4808 68.7701C65.3574 68.4901 65.2937 68.1875 65.2937 67.8815C65.2937 67.5756 65.3574 67.2729 65.4808 66.993C65.6042 66.713 65.7845 66.4618 66.0103 66.2553C66.5731 65.6075 67.1843 65.0034 67.8387 64.4483C68.5473 63.8673 68.4836 63.3571 68.2213 62.5138C67.8174 61.2242 67.1087 60.962 65.8756 60.9832C61.7795 61.0612 61.5527 60.7919 61.5527 56.6678C61.5527 52.976 61.5527 49.2841 61.5527 45.5994C61.5527 43.7499 62.3252 42.9917 64.1677 42.9704C64.7052 42.9208 65.2461 42.9208 65.7835 42.9704C67.1087 43.1901 67.7749 42.7012 68.2213 41.4044C68.5261 40.5257 68.4906 40.0368 67.8103 39.4628C67.1605 38.9075 66.554 38.3035 65.9961 37.6559C65.7711 37.4482 65.5915 37.1962 65.4687 36.9157C65.3459 36.6352 65.2824 36.3323 65.2824 36.0261C65.2824 35.7199 65.3459 35.417 65.4687 35.1365C65.5915 34.856 65.7711 34.604 65.9961 34.3963C69.1379 31.2312 72.2939 28.0873 75.464 24.9647C75.6694 24.7359 75.9206 24.5528 76.2015 24.4275C76.4823 24.3021 76.7864 24.2374 77.0939 24.2374C77.4015 24.2374 77.7056 24.3021 77.9864 24.4275C78.2672 24.5528 78.5185 24.7359 78.7239 24.9647C79.6097 25.8009 80.4247 26.7221 81.2609 27.622ZM106.504 52.0194C106.514 49.3425 105.728 46.7231 104.247 44.4932C102.766 42.2634 100.656 40.5237 98.1842 39.4948C95.7127 38.4659 92.9913 38.1941 90.3652 38.7139C87.739 39.2338 85.3265 40.5218 83.4335 42.4146C81.5404 44.3074 80.2523 46.7198 79.7324 49.3457C79.2126 51.9716 79.4844 54.6927 80.5134 57.164C81.5424 59.6352 83.2823 61.7451 85.5123 63.2262C87.7423 64.7073 90.362 65.4927 93.0391 65.4829C96.6033 65.4606 100.015 64.035 102.535 61.5149C105.056 58.9948 106.482 55.5832 106.504 52.0194Z" fill="#FFAE00"/>
</svg>
