<svg width="140" height="140" viewBox="0 0 140 140" fill="none" xmlns="http://www.w3.org/2000/svg">
<g clip-path="url(#clip0_4301_2969)">
<path d="M45.6275 69.293C45.6177 76.643 47.8897 83.8148 52.1298 89.8185C52.4592 90.2871 52.6528 90.8375 52.6893 91.4091C52.7259 91.9807 52.6039 92.5513 52.3369 93.0581C52.0698 93.5648 51.6681 93.9879 51.1759 94.2809C50.6838 94.5739 50.1203 94.7253 49.5475 94.7185H20.6453C20.0416 94.7233 19.4495 94.5523 18.9413 94.2264C18.433 93.9004 18.0306 93.4336 17.7831 92.883C17.6275 92.5407 17.4798 92.183 17.332 91.7863C14.3963 83.8994 12.1301 75.7792 10.5575 67.5118C7.15866 49.9729 10.9309 29.183 20.7542 14.5763C26.432 6.12961 33.6342 0.560725 43.722 0.0240582C54.0275 -0.47372 65.6475 6.80628 69.692 16.9096C71.4498 21.3274 71.7064 30.4041 72.2276 34.7985C64.6068 36.8033 57.8641 41.2748 53.0521 47.5149C48.2401 53.7551 45.6294 61.4129 45.6275 69.293Z" fill="#FFAE00"/>
<path d="M59.4337 127.362C58.7649 133.203 55.2882 138.025 49.9837 139.425C47.5958 140.009 45.1244 140.173 42.6804 139.907C36.7926 139.324 31.8537 136.796 28.6804 131.624C24.7915 125.402 22.9171 114.466 23.7104 107.116C23.9437 104.931 24.7682 103.507 26.3004 102.784C26.7112 102.599 27.1566 102.504 27.6071 102.504H54.0515C54.7018 102.501 55.3367 102.702 55.8668 103.079C56.397 103.456 56.7957 103.989 57.0071 104.604C58.8737 110.702 60.1726 120.961 59.4337 127.362Z" fill="#FFAE00"/>
<path d="M127.816 104.528C123.503 100.107 119.063 95.7489 114.687 91.3528C111.607 88.2515 108.002 87.3672 103.841 88.7252C103.698 88.7712 103.547 88.7854 103.399 88.7669C103.25 88.7483 103.107 88.6974 102.981 88.6179C101.007 86.723 99.072 84.8281 97.1494 82.9332C106.193 70.3892 102.841 54.4343 91.8812 46.2232C81.8445 38.7069 66.394 39.6038 57.2174 49.5961C48.7237 58.8052 48.2557 73.9073 56.3889 83.748C60.7108 88.902 66.8548 92.1951 73.5443 92.9432C80.2339 93.6913 86.955 91.8369 92.3113 87.7652C94.1517 89.6095 95.9352 91.4349 97.7819 93.1908C97.9941 93.3596 98.1406 93.5972 98.1961 93.8625C98.2515 94.1278 98.2124 94.404 98.0854 94.6436C96.8648 98.2944 97.3834 101.73 100.04 104.51C104.682 109.379 109.463 114.123 114.32 118.791C115.454 119.902 116.862 120.694 118.403 121.083C119.943 121.473 121.559 121.447 123.086 121.008C124.788 120.608 126.353 119.762 127.619 118.557C128.885 117.352 129.807 115.832 130.289 114.153C130.771 112.474 130.796 110.697 130.361 109.006C129.927 107.314 129.048 105.768 127.816 104.528ZM76.5889 87.4178C72.5862 87.4178 68.6734 86.2324 65.3453 84.0114C62.0172 81.7905 59.4232 78.6338 57.8914 74.9406C56.3597 71.2473 55.9589 67.1834 56.7398 63.2626C57.5207 59.3419 59.4482 55.7404 62.2785 52.9137C65.1088 50.0871 68.7149 48.162 72.6407 47.3822C76.5665 46.6023 80.6356 47.0025 84.3336 48.5323C88.0317 50.0621 91.1924 52.6528 93.4162 55.9766C95.64 59.3004 96.8269 63.2082 96.8269 67.2058C96.8269 69.8622 96.3026 72.4925 95.284 74.9464C94.2653 77.4003 92.7723 79.6296 90.8904 81.5068C89.0084 83.3839 86.7744 84.8722 84.3161 85.8865C81.8578 86.9007 79.2234 87.4211 76.5636 87.4178H76.5889Z" fill="#FFAE00"/>
</g>
<defs>
<clipPath id="clip0_4301_2969">
<rect width="140" height="140" fill="white"/>
</clipPath>
</defs>
</svg>
