<svg width="140" height="140" viewBox="0 0 140 140" fill="none" xmlns="http://www.w3.org/2000/svg">
<path d="M54.76 139.213C53.9885 138.905 53.2393 138.546 52.5173 138.138C49.9009 136.457 48.9178 134.018 49.1778 130.967C49.9009 122.473 50.5835 109.987 51.3066 101.486C52.0786 92.3307 53.013 83.1597 53.598 74.0286C54.0124 67.4551 54.118 60.8498 54.0205 54.2604C54.0205 52.3083 52.9967 50.2764 52.0948 48.4518C50.3072 44.8264 48.3165 41.2808 46.3014 37.7988C45.8553 37.1111 45.2022 36.5765 44.4325 36.269C38.5659 33.9264 32.6669 31.6556 26.7759 29.3688C23.8101 28.2135 22.7132 25.7435 23.8995 22.8989C26.5159 16.8195 29.5386 10.9472 33.9426 5.89558C36.2746 3.22635 38.8828 0.899739 42.5637 0.182633C44.4676 -0.211102 46.4514 0.0359157 48.1946 0.883803C49.1832 1.37137 49.9615 2.18937 50.3891 3.1902C50.8168 4.19104 50.8655 5.30879 50.5266 6.34177C50.2106 7.41006 49.4958 8.32236 48.5244 8.89681C47.5531 9.47126 46.3967 9.66566 45.2857 9.44126C44.7991 9.27943 44.2723 9.27575 43.7834 9.43077C43.2945 9.58578 42.8696 9.89123 42.5718 10.3018C40.8004 12.4451 39.0535 14.6124 37.4609 16.8832C36.3558 18.4768 35.5351 20.2218 34.3976 22.2376C35.8381 22.4931 37.2921 22.6687 38.7528 22.7635C42.3946 22.7656 45.9613 23.7795 49.0396 25.6877C49.5577 25.9738 50.1562 26.0884 50.746 26.0144C53.9962 25.5443 56.8807 26.118 59.2696 28.4924C59.6725 28.8627 60.1968 29.0802 60.7484 29.1059C66.8046 29.1484 72.8607 29.1484 78.9169 29.1059C79.4673 29.0817 79.9912 28.8672 80.3957 28.5003C82.7846 26.11 85.6692 25.5443 88.9193 26.0144C89.4739 26.1139 90.0466 26.0269 90.5444 25.7674C93.866 23.6764 97.7759 22.667 101.717 22.883C102.886 22.7995 104.042 22.5857 105.162 22.2456C102.781 17.7358 100.514 13.3774 96.7116 10.0149C96.4308 9.73786 96.0765 9.54328 95.6889 9.45317C95.3012 9.36307 94.8956 9.38102 94.5178 9.50501C93.3906 9.75614 92.2081 9.57719 91.2106 9.00448C90.2131 8.43178 89.4752 7.50826 89.1468 6.42145C88.7859 5.37064 88.8354 4.22588 89.2857 3.20878C89.736 2.19169 90.5551 1.37459 91.5845 0.915674C92.9963 0.280457 94.5477 0.00164597 96.0974 0.104628C97.6471 0.20761 99.146 0.689115 100.457 1.50529C103.651 3.28212 105.934 5.99916 108.022 8.87555C111.129 13.279 113.724 18.0095 115.758 22.9786C116.952 25.7674 115.88 28.2772 113.011 29.4087C107.137 31.7193 101.229 33.9583 95.3709 36.3168C94.5068 36.6763 93.7633 37.2672 93.2258 38.0219C90.1235 42.5793 87.6635 47.5269 85.9129 52.7305C85.7034 53.4002 85.5859 54.0942 85.5635 54.7942C85.2466 64.8735 86.0267 74.905 86.9774 84.9366C87.6355 91.9323 88.1068 98.952 88.6918 105.956C89.2769 112.959 89.8375 123.875 90.4957 130.831C90.8776 134.911 89.0981 137.556 84.6453 139.182H81.9477C77.8281 137.947 76.1705 135.134 75.9755 130.999C75.6992 125.341 75.0898 115.708 74.6185 110.059C74.0985 103.844 73.4972 97.6293 73.091 91.4064C72.8553 87.7253 72.3759 84.1956 69.532 80.9765C68.6301 83.2314 67.3056 85.2871 67.0213 87.4703C66.2737 93.0478 65.9893 98.6731 65.5343 104.282C64.9574 111.286 64.4049 122.282 63.8361 129.294C63.7955 129.819 63.6492 130.337 63.6573 130.887C63.7142 135.07 61.9103 137.955 57.7176 139.206L54.76 139.213Z" fill="#FFAE00"/>
<path d="M113.718 117.186C114.211 114.745 114.672 112.404 115.203 109.748L95.2443 112.25C95.1289 111.099 94.9904 109.894 94.8904 108.696C94.0363 98.3641 93.0591 88.0396 92.3974 77.692C91.9434 70.5991 91.8203 63.4832 91.8203 56.375C91.8203 54.5787 92.7206 52.7057 93.5054 51.0016C94.7826 48.1767 96.4369 45.5284 97.7526 42.6729C98.676 40.7308 100.192 39.7789 102.369 39.326C103.985 41.982 105.678 44.6457 107.271 47.3784C114.965 60.5432 121.451 74.2453 126.029 88.7842C127.454 93.216 128.115 97.8569 127.984 102.509C127.73 110.592 122.221 116.495 114.134 117.186C113.995 117.193 113.857 117.193 113.718 117.186Z" fill="#FFAE00"/>
<path d="M45.039 111.551L25.2295 109.074L26.6975 116.405C20.8563 116.229 14.7935 112.816 13.0809 105.538C11.8576 100.364 12.538 95.2434 13.9525 90.2369C17.2734 78.9442 21.7758 68.0306 27.3856 57.6759C30.5355 51.7169 34.0907 45.9637 37.4394 40.1038C37.8905 39.3417 38.288 39.1588 39.2055 39.4713C39.8859 39.671 40.5163 40.0119 41.0552 40.4715C41.5941 40.9312 42.0294 41.4992 42.3325 42.1383C44.2592 46.1313 46.247 50.1091 48.1201 54.1173C48.4357 54.9358 48.5839 55.8089 48.5559 56.6853C48.8541 66.0733 48.1431 75.4157 47.2868 84.758C46.5222 93.4603 45.8724 102.178 45.1766 110.888C45.1456 111.111 45.0996 111.333 45.039 111.551Z" fill="#FFAE00"/>
<path d="M69.909 27.2331C67.4024 27.2362 64.9512 26.4957 62.8656 25.1051C60.78 23.7147 59.1538 21.7367 58.1927 19.4216C57.2317 17.1066 56.979 14.5584 57.4667 12.0997C57.9544 9.64098 59.1605 7.38218 60.9324 5.60918C62.7043 3.83618 64.9623 2.62867 67.4207 2.13946C69.8792 1.65025 72.4275 1.90133 74.7431 2.86093C77.0588 3.82053 79.0378 5.44552 80.4296 7.53024C81.8214 9.61496 82.5634 12.0657 82.5619 14.5723C82.5515 17.9256 81.2154 21.1387 78.8449 23.5106C76.4745 25.8825 73.2623 27.2206 69.909 27.2331Z" fill="#FFAE00"/>
<path d="M72.1527 114.118H67.5703C67.7042 111.756 67.8301 109.512 67.9719 107.253C68.3026 101.859 68.649 96.4659 68.9639 91.0725C68.9144 89.6356 69.2778 88.2148 70.0111 86.9782C70.3038 88.0435 70.5247 89.1272 70.6725 90.2221C71.0898 96.4737 71.4599 102.733 71.8142 108.985C71.9165 110.662 72.0346 112.331 72.1527 114.118Z" fill="#FFAE00"/>
</svg>
