<svg width="140" height="140" viewBox="0 0 140 140" fill="none" xmlns="http://www.w3.org/2000/svg">
<g clip-path="url(#clip0_4301_2900)">
<path d="M127.223 0.0389482C126.544 3.1548 125.834 6.27065 125.187 9.38651C123.213 18.8275 119.922 27.7467 114.428 35.7934C113.402 37.289 112.352 38.7768 111.199 40.1789C110.767 40.6328 110.179 40.9107 109.55 40.9579C107.766 41.0592 105.974 40.9579 103.977 40.9579C103.977 42.9131 103.977 44.8527 103.977 46.7845C104.007 47.177 103.938 47.5708 103.777 47.9309C103.616 48.291 103.368 48.6063 103.053 48.8488C93.4691 57.3456 81.7223 63.1082 69.0722 65.5186C67.4935 65.8224 65.9148 66.0249 64.1151 66.2976C63.2153 70.0574 62.2865 73.9132 61.3287 77.8652H52.5039C53.167 74.7104 53.68 71.5945 54.4852 68.5176C58.9952 50.7103 68.7452 34.6187 82.5068 22.2706C91.803 13.9156 102.854 7.68896 114.87 4.03503C118.446 2.92111 121.974 1.69814 125.55 0.553064C125.921 0.399889 126.277 0.214822 126.615 0L127.223 0.0389482Z" fill="#FFAE00"/>
<path d="M81.9888 79.5483V88.1213H73.4315V96.6865C75.7203 96.8123 78.0169 96.6865 80.1956 97.1033C82.322 97.4908 84.3162 98.4087 85.9935 99.7718C87.6708 101.135 88.977 102.899 89.791 104.902C90.6051 106.904 90.9007 109.079 90.6505 111.226C90.4003 113.373 89.6123 115.422 88.3596 117.183C82.9405 124.773 77.2147 132.127 71.5911 139.607C71.4442 139.775 71.2644 139.911 71.0629 140.007C70.8614 140.103 70.6423 140.157 70.4192 140.165C57.8978 140.197 45.3739 140.197 32.8473 140.165C32.5999 140.144 32.3592 140.074 32.1391 139.96C31.919 139.845 31.724 139.687 31.5653 139.497C26.0046 132.127 20.4046 124.773 14.9698 117.309C11.9023 113.093 11.6664 108.445 14.0653 103.836C16.4641 99.2269 20.3574 96.8753 25.6192 96.8123C27.0035 96.8123 28.3877 96.8123 29.8428 96.8123V88.1606H21.2776V79.5876L81.9888 79.5483ZM38.7304 114.218V122.783H64.5282V114.218H38.7304Z" fill="#FFAE00"/>
</g>
<defs>
<clipPath id="clip0_4301_2900">
<rect width="140" height="140" fill="white"/>
</clipPath>
</defs>
</svg>
