<svg width="1440" height="243" viewBox="0 0 1440 243" fill="none" xmlns="http://www.w3.org/2000/svg">
<path opacity="0.1" d="M1325.5 153C1325.42 153.375 1325.26 153.787 1325.02 154.023C1324.79 154.258 1324.37 154.42 1324 154.5C1324.37 154.58 1324.79 154.741 1325.02 154.977C1325.26 155.213 1325.42 155.625 1325.5 156C1325.58 155.625 1325.74 155.213 1325.98 154.977C1326.21 154.741 1326.63 154.58 1327 154.5C1326.63 154.42 1326.21 154.258 1325.98 154.023C1325.74 153.787 1325.58 153.375 1325.5 153Z" fill="white"/>
<path opacity="0.5" d="M310.5 79C310.42 79.3747 310.258 79.787 310.023 80.0228C309.787 80.2584 309.375 80.4198 309 80.5001C309.375 80.5805 309.787 80.7415 310.023 80.9774C310.258 81.2132 310.42 81.6251 310.5 82C310.58 81.6251 310.742 81.2132 310.978 80.9772C311.213 80.7415 311.625 80.5802 312 80.4998C311.625 80.4197 311.213 80.2584 310.977 80.0226C310.742 79.787 310.58 79.3747 310.5 79Z" fill="white"/>
<path opacity="0.1" d="M1372.5 182C1372.42 182.375 1372.26 182.787 1372.02 183.023C1371.79 183.258 1371.37 183.42 1371 183.5C1371.37 183.58 1371.79 183.741 1372.02 183.977C1372.26 184.213 1372.42 184.625 1372.5 185C1372.58 184.625 1372.74 184.213 1372.98 183.977C1373.21 183.741 1373.63 183.58 1374 183.5C1373.63 183.42 1373.21 183.258 1372.98 183.023C1372.74 182.787 1372.58 182.375 1372.5 182Z" fill="white"/>
<path opacity="0.1" d="M350.5 107C350.42 107.375 350.258 107.787 350.023 108.023C349.787 108.258 349.375 108.42 349 108.5C349.375 108.58 349.787 108.741 350.023 108.977C350.258 109.213 350.42 109.625 350.5 110C350.58 109.625 350.742 109.213 350.978 108.977C351.213 108.741 351.625 108.58 352 108.5C351.625 108.42 351.213 108.258 350.977 108.023C350.742 107.787 350.58 107.375 350.5 107Z" fill="white"/>
<path opacity="0.1" d="M393.5 135C393.42 135.375 393.258 135.787 393.023 136.023C392.787 136.258 392.375 136.42 392 136.5C392.375 136.58 392.787 136.741 393.023 136.977C393.258 137.213 393.42 137.625 393.5 138C393.58 137.625 393.742 137.213 393.978 136.977C394.213 136.741 394.625 136.58 395 136.5C394.625 136.42 394.213 136.258 393.977 136.023C393.742 135.787 393.58 135.375 393.5 135Z" fill="white"/>
<path opacity="0.5" d="M430.5 76C430.42 76.3747 430.258 76.787 430.023 77.0228C429.787 77.2584 429.375 77.4198 429 77.5001C429.375 77.5805 429.787 77.7415 430.023 77.9774C430.258 78.2132 430.42 78.6251 430.5 79C430.58 78.6251 430.742 78.2132 430.978 77.9772C431.213 77.7415 431.625 77.5802 432 77.4998C431.625 77.4197 431.213 77.2584 430.977 77.0226C430.742 76.787 430.58 76.3747 430.5 76Z" fill="white"/>
<path opacity="0.1" d="M1027.5 170C1027.42 170.375 1027.26 170.787 1027.02 171.023C1026.79 171.258 1026.37 171.42 1026 171.5C1026.37 171.58 1026.79 171.741 1027.02 171.977C1027.26 172.213 1027.42 172.625 1027.5 173C1027.58 172.625 1027.74 172.213 1027.98 171.977C1028.21 171.741 1028.63 171.58 1029 171.5C1028.63 171.42 1028.21 171.258 1027.98 171.023C1027.74 170.787 1027.58 170.375 1027.5 170Z" fill="white"/>
<path opacity="0.1" d="M1003.5 143C1003.42 143.375 1003.26 143.787 1003.02 144.023C1002.79 144.258 1002.37 144.42 1002 144.5C1002.37 144.58 1002.79 144.741 1003.02 144.977C1003.26 145.213 1003.42 145.625 1003.5 146C1003.58 145.625 1003.74 145.213 1003.98 144.977C1004.21 144.741 1004.63 144.58 1005 144.5C1004.63 144.42 1004.21 144.258 1003.98 144.023C1003.74 143.787 1003.58 143.375 1003.5 143Z" fill="white"/>
<path opacity="0.5" d="M745.5 145C745.42 145.375 745.258 145.787 745.023 146.023C744.787 146.258 744.375 146.42 744 146.5C744.375 146.58 744.787 146.741 745.023 146.977C745.258 147.213 745.42 147.625 745.5 148C745.58 147.625 745.742 147.213 745.978 146.977C746.213 146.741 746.625 146.58 747 146.5C746.625 146.42 746.213 146.258 745.977 146.023C745.742 145.787 745.58 145.375 745.5 145Z" fill="white"/>
<path opacity="0.1" d="M998.5 90C998.42 90.3747 998.258 90.787 998.023 91.0228C997.787 91.2584 997.375 91.4198 997 91.5001C997.375 91.5805 997.787 91.7415 998.023 91.9774C998.258 92.2132 998.42 92.6251 998.5 93C998.58 92.6251 998.742 92.2132 998.978 91.9772C999.213 91.7415 999.625 91.5802 1000 91.4998C999.625 91.4197 999.213 91.2584 998.977 91.0226C998.742 90.787 998.58 90.3747 998.5 90Z" fill="white"/>
<path opacity="0.1" d="M887.5 168C887.42 168.375 887.258 168.787 887.023 169.023C886.787 169.258 886.375 169.42 886 169.5C886.375 169.58 886.787 169.741 887.023 169.977C887.258 170.213 887.42 170.625 887.5 171C887.58 170.625 887.742 170.213 887.978 169.977C888.213 169.741 888.625 169.58 889 169.5C888.625 169.42 888.213 169.258 887.977 169.023C887.742 168.787 887.58 168.375 887.5 168Z" fill="white"/>
<path opacity="0.1" d="M833.5 146C833.42 146.375 833.258 146.787 833.023 147.023C832.787 147.258 832.375 147.42 832 147.5C832.375 147.58 832.787 147.741 833.023 147.977C833.258 148.213 833.42 148.625 833.5 149C833.58 148.625 833.742 148.213 833.978 147.977C834.213 147.741 834.625 147.58 835 147.5C834.625 147.42 834.213 147.258 833.977 147.023C833.742 146.787 833.58 146.375 833.5 146Z" fill="white"/>
<path opacity="0.1" d="M1200.5 104C1200.42 104.375 1200.26 104.787 1200.02 105.023C1199.79 105.258 1199.37 105.42 1199 105.5C1199.37 105.58 1199.79 105.741 1200.02 105.977C1200.26 106.213 1200.42 106.625 1200.5 107C1200.58 106.625 1200.74 106.213 1200.98 105.977C1201.21 105.741 1201.63 105.58 1202 105.5C1201.63 105.42 1201.21 105.258 1200.98 105.023C1200.74 104.787 1200.58 104.375 1200.5 104Z" fill="white"/>
<path opacity="0.1" d="M1168.5 145C1168.42 145.375 1168.26 145.787 1168.02 146.023C1167.79 146.258 1167.37 146.42 1167 146.5C1167.37 146.58 1167.79 146.741 1168.02 146.977C1168.26 147.213 1168.42 147.625 1168.5 148C1168.58 147.625 1168.74 147.213 1168.98 146.977C1169.21 146.741 1169.63 146.58 1170 146.5C1169.63 146.42 1169.21 146.258 1168.98 146.023C1168.74 145.787 1168.58 145.375 1168.5 145Z" fill="white"/>
<path opacity="0.1" d="M1114.5 164C1114.42 164.375 1114.26 164.787 1114.02 165.023C1113.79 165.258 1113.37 165.42 1113 165.5C1113.37 165.58 1113.79 165.741 1114.02 165.977C1114.26 166.213 1114.42 166.625 1114.5 167C1114.58 166.625 1114.74 166.213 1114.98 165.977C1115.21 165.741 1115.63 165.58 1116 165.5C1115.63 165.42 1115.21 165.258 1114.98 165.023C1114.74 164.787 1114.58 164.375 1114.5 164Z" fill="white"/>
<path opacity="0.5" d="M225.5 163C225.42 163.375 225.258 163.787 225.023 164.023C224.787 164.258 224.375 164.42 224 164.5C224.375 164.58 224.787 164.741 225.023 164.977C225.258 165.213 225.42 165.625 225.5 166C225.58 165.625 225.742 165.213 225.978 164.977C226.213 164.741 226.625 164.58 227 164.5C226.625 164.42 226.213 164.258 225.977 164.023C225.742 163.787 225.58 163.375 225.5 163Z" fill="white"/>
<path opacity="0.5" d="M1127.5 105C1127.42 105.375 1127.26 105.787 1127.02 106.023C1126.79 106.258 1126.37 106.42 1126 106.5C1126.37 106.58 1126.79 106.741 1127.02 106.977C1127.26 107.213 1127.42 107.625 1127.5 108C1127.58 107.625 1127.74 107.213 1127.98 106.977C1128.21 106.741 1128.63 106.58 1129 106.5C1128.63 106.42 1128.21 106.258 1127.98 106.023C1127.74 105.787 1127.58 105.375 1127.5 105Z" fill="white"/>
<path opacity="0.5" d="M984.5 177C984.42 177.375 984.258 177.787 984.023 178.023C983.787 178.258 983.375 178.42 983 178.5C983.375 178.58 983.787 178.741 984.023 178.977C984.258 179.213 984.42 179.625 984.5 180C984.58 179.625 984.742 179.213 984.978 178.977C985.213 178.741 985.625 178.58 986 178.5C985.625 178.42 985.213 178.258 984.977 178.023C984.742 177.787 984.58 177.375 984.5 177Z" fill="white"/>
<path opacity="0.5" d="M950.5 134C950.42 134.375 950.258 134.787 950.023 135.023C949.787 135.258 949.375 135.42 949 135.5C949.375 135.58 949.787 135.741 950.023 135.977C950.258 136.213 950.42 136.625 950.5 137C950.58 136.625 950.742 136.213 950.978 135.977C951.213 135.741 951.625 135.58 952 135.5C951.625 135.42 951.213 135.258 950.977 135.023C950.742 134.787 950.58 134.375 950.5 134Z" fill="white"/>
<path opacity="0.5" d="M891.5 123C891.42 123.375 891.258 123.787 891.023 124.023C890.787 124.258 890.375 124.42 890 124.5C890.375 124.58 890.787 124.741 891.023 124.977C891.258 125.213 891.42 125.625 891.5 126C891.58 125.625 891.742 125.213 891.978 124.977C892.213 124.741 892.625 124.58 893 124.5C892.625 124.42 892.213 124.258 891.977 124.023C891.742 123.787 891.58 123.375 891.5 123Z" fill="white"/>
<path opacity="0.5" d="M691 157C690.946 157.375 690.839 157.787 690.682 158.023C690.525 158.258 690.25 158.42 690 158.5C690.25 158.58 690.525 158.741 690.682 158.977C690.839 159.213 690.947 159.625 691 160C691.054 159.625 691.161 159.213 691.318 158.977C691.475 158.741 691.75 158.58 692 158.5C691.75 158.42 691.475 158.258 691.318 158.023C691.161 157.787 691.053 157.375 691 157Z" fill="white"/>
<path opacity="0.5" d="M630 173C629.946 173.375 629.839 173.787 629.682 174.023C629.525 174.258 629.25 174.42 629 174.5C629.25 174.58 629.525 174.741 629.682 174.977C629.839 175.213 629.947 175.625 630 176C630.054 175.625 630.161 175.213 630.318 174.977C630.475 174.741 630.75 174.58 631 174.5C630.75 174.42 630.475 174.258 630.318 174.023C630.161 173.787 630.053 173.375 630 173Z" fill="white"/>
<path opacity="0.5" d="M284 111C283.946 111.375 283.839 111.787 283.682 112.023C283.525 112.258 283.25 112.42 283 112.5C283.25 112.58 283.525 112.741 283.682 112.977C283.839 113.213 283.947 113.625 284 114C284.054 113.625 284.161 113.213 284.318 112.977C284.475 112.741 284.75 112.58 285 112.5C284.75 112.42 284.475 112.258 284.318 112.023C284.161 111.787 284.053 111.375 284 111Z" fill="white"/>
<path opacity="0.1" d="M568.5 142C568.42 142.375 568.258 142.787 568.023 143.023C567.787 143.258 567.375 143.42 567 143.5C567.375 143.58 567.787 143.741 568.023 143.977C568.258 144.213 568.42 144.625 568.5 145C568.58 144.625 568.742 144.213 568.978 143.977C569.213 143.741 569.625 143.58 570 143.5C569.625 143.42 569.213 143.258 568.977 143.023C568.742 142.787 568.58 142.375 568.5 142Z" fill="white"/>
<path opacity="0.2" d="M1254.5 179C1254.37 179.625 1254.1 180.312 1253.7 180.705C1253.31 181.097 1252.62 181.366 1252 181.5C1252.62 181.634 1253.31 181.902 1253.7 182.296C1254.1 182.689 1254.37 183.375 1254.5 184C1254.63 183.375 1254.9 182.689 1255.3 182.295C1255.69 181.902 1256.38 181.634 1257 181.5C1256.38 181.366 1255.69 181.097 1255.3 180.704C1254.9 180.312 1254.63 179.625 1254.5 179Z" fill="white"/>
<path opacity="0.2" d="M401.5 170C401.366 170.625 401.097 171.312 400.704 171.705C400.311 172.097 399.625 172.366 399 172.5C399.625 172.634 400.311 172.902 400.704 173.296C401.097 173.689 401.367 174.375 401.5 175C401.634 174.375 401.903 173.689 402.296 173.295C402.689 172.902 403.376 172.634 404 172.5C403.376 172.366 402.689 172.097 402.296 171.704C401.903 171.312 401.633 170.625 401.5 170Z" fill="white"/>
<path opacity="0.2" d="M285.5 146C285.366 146.625 285.097 147.312 284.704 147.705C284.311 148.097 283.625 148.366 283 148.5C283.625 148.634 284.311 148.902 284.704 149.296C285.097 149.689 285.367 150.375 285.5 151C285.634 150.375 285.903 149.689 286.296 149.295C286.689 148.902 287.376 148.634 288 148.5C287.376 148.366 286.689 148.097 286.296 147.704C285.903 147.312 285.633 146.625 285.5 146Z" fill="white"/>
<path opacity="0.1" d="M1088.5 133C1088.37 133.625 1088.1 134.312 1087.7 134.705C1087.31 135.097 1086.62 135.366 1086 135.5C1086.62 135.634 1087.31 135.902 1087.7 136.296C1088.1 136.689 1088.37 137.375 1088.5 138C1088.63 137.375 1088.9 136.689 1089.3 136.295C1089.69 135.902 1090.38 135.634 1091 135.5C1090.38 135.366 1089.69 135.097 1089.3 134.704C1088.9 134.312 1088.63 133.625 1088.5 133Z" fill="white"/>
<path opacity="0.1" d="M143.5 93C143.366 93.6245 143.097 94.3116 142.704 94.7046C142.311 95.0973 141.625 95.3664 141 95.5001C141.625 95.6341 142.311 95.9024 142.704 96.2957C143.097 96.6886 143.367 97.3751 143.5 98C143.634 97.3751 143.903 96.6886 144.296 96.2954C144.689 95.9025 145.376 95.6336 146 95.4996C145.376 95.3661 144.689 95.0973 144.296 94.7043C143.903 94.3117 143.633 93.6246 143.5 93Z" fill="white"/>
<path opacity="0.1" d="M175.5 143C175.366 143.625 175.097 144.312 174.704 144.705C174.311 145.097 173.625 145.366 173 145.5C173.625 145.634 174.311 145.902 174.704 146.296C175.097 146.689 175.367 147.375 175.5 148C175.634 147.375 175.903 146.689 176.296 146.295C176.689 145.902 177.376 145.634 178 145.5C177.376 145.366 176.689 145.097 176.296 144.704C175.903 144.312 175.633 143.625 175.5 143Z" fill="white"/>
<path opacity="0.2" d="M1040.5 104C1040.37 104.625 1040.1 105.312 1039.7 105.705C1039.31 106.097 1038.62 106.366 1038 106.5C1038.62 106.634 1039.31 106.902 1039.7 107.296C1040.1 107.689 1040.37 108.375 1040.5 109C1040.63 108.375 1040.9 107.689 1041.3 107.295C1041.69 106.902 1042.38 106.634 1043 106.5C1042.38 106.366 1041.69 106.097 1041.3 105.704C1040.9 105.312 1040.63 104.625 1040.5 104Z" fill="white"/>
<path opacity="0.2" d="M660.5 114C660.366 114.625 660.097 115.312 659.704 115.705C659.311 116.097 658.625 116.366 658 116.5C658.625 116.634 659.311 116.902 659.704 117.296C660.097 117.689 660.367 118.375 660.5 119C660.634 118.375 660.903 117.689 661.296 117.295C661.689 116.902 662.376 116.634 663 116.5C662.376 116.366 661.689 116.097 661.296 115.704C660.903 115.312 660.633 114.625 660.5 114Z" fill="white"/>
<path opacity="0.2" d="M491.5 122C491.366 122.625 491.097 123.312 490.704 123.705C490.311 124.097 489.625 124.366 489 124.5C489.625 124.634 490.311 124.902 490.704 125.296C491.097 125.689 491.367 126.375 491.5 127C491.634 126.375 491.903 125.689 492.296 125.295C492.689 124.902 493.376 124.634 494 124.5C493.376 124.366 492.689 124.097 492.296 123.704C491.903 123.312 491.633 122.625 491.5 122Z" fill="white"/>
<path opacity="0.2" d="M802.5 104C802.366 104.625 802.097 105.312 801.704 105.705C801.311 106.097 800.625 106.366 800 106.5C800.625 106.634 801.311 106.902 801.704 107.296C802.097 107.689 802.367 108.375 802.5 109C802.634 108.375 802.903 107.689 803.296 107.295C803.689 106.902 804.376 106.634 805 106.5C804.376 106.366 803.689 106.097 803.296 105.704C802.903 105.312 802.633 104.625 802.5 104Z" fill="white"/>
<path opacity="0.2" d="M578.5 107C578.366 107.625 578.097 108.312 577.704 108.705C577.311 109.097 576.625 109.366 576 109.5C576.625 109.634 577.311 109.902 577.704 110.296C578.097 110.689 578.367 111.375 578.5 112C578.634 111.375 578.903 110.689 579.296 110.295C579.689 109.902 580.376 109.634 581 109.5C580.376 109.366 579.689 109.097 579.296 108.704C578.903 108.312 578.633 107.625 578.5 107Z" fill="white"/>
<path opacity="0.1" d="M925.5 78C925.366 78.6245 925.097 79.3116 924.704 79.7046C924.311 80.0973 923.625 80.3664 923 80.5001C923.625 80.6341 924.311 80.9024 924.704 81.2957C925.097 81.6886 925.367 82.3751 925.5 83C925.634 82.3751 925.903 81.6886 926.296 81.2954C926.689 80.9025 927.376 80.6336 928 80.4996C927.376 80.3661 926.689 80.0973 926.296 79.7043C925.903 79.3117 925.633 78.6246 925.5 78Z" fill="white"/>
<path opacity="0.5" d="M722.5 107C722.366 107.625 722.097 108.312 721.704 108.705C721.311 109.097 720.625 109.366 720 109.5C720.625 109.634 721.311 109.902 721.704 110.296C722.097 110.689 722.367 111.375 722.5 112C722.634 111.375 722.903 110.689 723.296 110.295C723.689 109.902 724.376 109.634 725 109.5C724.376 109.366 723.689 109.097 723.296 108.704C722.903 108.312 722.633 107.625 722.5 107Z" fill="white"/>
<path opacity="0.5" d="M419.5 109C419.366 109.625 419.097 110.312 418.704 110.705C418.311 111.097 417.625 111.366 417 111.5C417.625 111.634 418.311 111.902 418.704 112.296C419.097 112.689 419.367 113.375 419.5 114C419.634 113.375 419.903 112.689 420.296 112.295C420.689 111.902 421.376 111.634 422 111.5C421.376 111.366 420.689 111.097 420.296 110.704C419.903 110.312 419.633 109.625 419.5 109Z" fill="white"/>
<path opacity="0.5" d="M102.5 34C102.366 34.6245 102.097 35.3116 101.704 35.7046C101.311 36.0973 100.625 36.3664 100 36.5001C100.625 36.6341 101.311 36.9024 101.704 37.2957C102.097 37.6886 102.367 38.3751 102.5 39C102.634 38.3751 102.903 37.6886 103.296 37.2954C103.689 36.9025 104.376 36.6336 105 36.4996C104.376 36.3661 103.689 36.0973 103.296 35.7043C102.903 35.3117 102.633 34.6246 102.5 34Z" fill="white"/>
<path opacity="0.5" d="M937.5 175C937.42 175.375 937.258 175.787 937.023 176.023C936.787 176.258 936.375 176.42 936 176.5C936.375 176.58 936.787 176.741 937.023 176.977C937.258 177.213 937.42 177.625 937.5 178C937.58 177.625 937.742 177.213 937.978 176.977C938.213 176.741 938.625 176.58 939 176.5C938.625 176.42 938.213 176.258 937.977 176.023C937.742 175.787 937.58 175.375 937.5 175Z" fill="white"/>
<path opacity="0.2" d="M1208.5 163C1208.37 163.625 1208.1 164.312 1207.7 164.705C1207.31 165.097 1206.62 165.366 1206 165.5C1206.62 165.634 1207.31 165.902 1207.7 166.296C1208.1 166.689 1208.37 167.375 1208.5 168C1208.63 167.375 1208.9 166.689 1209.3 166.295C1209.69 165.902 1210.38 165.634 1211 165.5C1210.38 165.366 1209.69 165.097 1209.3 164.704C1208.9 164.312 1208.63 163.625 1208.5 163Z" fill="white"/>
<path opacity="0.2" d="M199.5 111C199.366 111.625 199.097 112.312 198.704 112.705C198.311 113.097 197.625 113.366 197 113.5C197.625 113.634 198.311 113.902 198.704 114.296C199.097 114.689 199.367 115.375 199.5 116C199.634 115.375 199.903 114.689 200.296 114.295C200.689 113.902 201.376 113.634 202 113.5C201.376 113.366 200.689 113.097 200.296 112.704C199.903 112.312 199.633 111.625 199.5 111Z" fill="white"/>
<path opacity="0.2" d="M236 106C235.946 106.25 235.839 106.525 235.682 106.682C235.525 106.839 235.25 106.947 235 107C235.25 107.054 235.525 107.161 235.682 107.318C235.839 107.475 235.947 107.75 236 108C236.054 107.75 236.161 107.475 236.318 107.318C236.475 107.161 236.75 107.053 237 107C236.75 106.946 236.475 106.839 236.318 106.682C236.161 106.525 236.053 106.25 236 106Z" fill="white"/>
<path opacity="0.5" d="M124 146C123.946 146.25 123.839 146.525 123.682 146.682C123.525 146.839 123.25 146.947 123 147C123.25 147.054 123.525 147.161 123.682 147.318C123.839 147.475 123.947 147.75 124 148C124.054 147.75 124.161 147.475 124.318 147.318C124.475 147.161 124.75 147.053 125 147C124.75 146.946 124.475 146.839 124.318 146.682C124.161 146.525 124.053 146.25 124 146Z" fill="white"/>
<path opacity="0.2" d="M168 176C167.946 176.25 167.839 176.525 167.682 176.682C167.525 176.839 167.25 176.947 167 177C167.25 177.054 167.525 177.161 167.682 177.318C167.839 177.475 167.947 177.75 168 178C168.054 177.75 168.161 177.475 168.318 177.318C168.475 177.161 168.75 177.053 169 177C168.75 176.946 168.475 176.839 168.318 176.682C168.161 176.525 168.053 176.25 168 176Z" fill="white"/>
<path opacity="0.2" d="M66.9999 131C66.9464 131.25 66.839 131.525 66.6818 131.682C66.5246 131.839 66.2498 131.947 66 132C66.2498 132.054 66.5246 132.161 66.6818 132.318C66.839 132.475 66.9466 132.75 67.0001 133C67.0536 132.75 67.1611 132.475 67.3183 132.318C67.4754 132.161 67.7502 132.053 68 132C67.7502 131.946 67.4754 131.839 67.3182 131.682C67.1611 131.525 67.0534 131.25 66.9999 131Z" fill="white"/>
<path opacity="0.5" d="M85.4998 177C85.366 177.625 85.0975 178.312 84.7044 178.705C84.3114 179.097 83.6245 179.366 83 179.5C83.6245 179.634 84.3114 179.902 84.7044 180.296C85.0975 180.689 85.3666 181.375 85.5003 182C85.634 181.375 85.9026 180.689 86.2958 180.295C86.6886 179.902 87.3756 179.634 88 179.5C87.3756 179.366 86.6886 179.097 86.2956 178.704C85.9026 178.312 85.6334 177.625 85.4998 177Z" fill="white"/>
<path opacity="0.2" d="M105.5 101C105.366 101.625 105.097 102.312 104.704 102.705C104.311 103.097 103.625 103.366 103 103.5C103.625 103.634 104.311 103.902 104.704 104.296C105.097 104.689 105.367 105.375 105.5 106C105.634 105.375 105.903 104.689 106.296 104.295C106.689 103.902 107.376 103.634 108 103.5C107.376 103.366 106.689 103.097 106.296 102.704C105.903 102.312 105.633 101.625 105.5 101Z" fill="white"/>
<path opacity="0.5" d="M1247.5 123C1247.37 123.625 1247.1 124.312 1246.7 124.705C1246.31 125.097 1245.62 125.366 1245 125.5C1245.62 125.634 1246.31 125.902 1246.7 126.296C1247.1 126.689 1247.37 127.375 1247.5 128C1247.63 127.375 1247.9 126.689 1248.3 126.295C1248.69 125.902 1249.38 125.634 1250 125.5C1249.38 125.366 1248.69 125.097 1248.3 124.704C1247.9 124.312 1247.63 123.625 1247.5 123Z" fill="white"/>
<path opacity="0.1" d="M1368.5 0C1368.37 0.624547 1368.1 1.31162 1367.7 1.7046C1367.31 2.09729 1366.62 2.3664 1366 2.50013C1366.62 2.63414 1367.31 2.90242 1367.7 3.29566C1368.1 3.6886 1368.37 4.37513 1368.5 5C1368.63 4.37513 1368.9 3.68864 1369.3 3.2954C1369.69 2.90245 1370.38 2.6336 1371 2.49962C1370.38 2.36611 1369.69 2.09733 1369.3 1.70435C1368.9 1.31165 1368.63 0.624579 1368.5 0Z" fill="white"/>
<path opacity="0.5" d="M1279.5 73C1279.37 73.6245 1279.1 74.3116 1278.7 74.7046C1278.31 75.0973 1277.62 75.3664 1277 75.5001C1277.62 75.6341 1278.31 75.9024 1278.7 76.2957C1279.1 76.6886 1279.37 77.3751 1279.5 78C1279.63 77.3751 1279.9 76.6886 1280.3 76.2954C1280.69 75.9025 1281.38 75.6336 1282 75.4996C1281.38 75.3661 1280.69 75.0973 1280.3 74.7043C1279.9 74.3117 1279.63 73.6246 1279.5 73Z" fill="white"/>
<path d="M411.931 152.456H384.701V157.366H411.931V152.456Z" fill="#FFAE00"/>
<path d="M677.141 203.656C677.204 203.221 677.369 202.806 677.621 202.446C678.393 201.235 679.252 200.082 680.191 198.996C680.851 198.216 681.541 197.456 682.191 196.686L682.421 196.446C682.541 196.316 682.661 196.336 682.781 196.446C683.541 197.256 684.301 198.066 685.051 198.886C685.221 199.056 685.121 199.176 684.981 199.286C684.321 199.786 683.671 200.286 682.981 200.776C681.604 201.786 680.153 202.692 678.641 203.486C678.241 203.719 677.792 203.852 677.331 203.876L677.141 203.656Z" fill="#FFAE00"/>
<path d="M687.63 191.556C688.97 190.306 690.3 189.046 691.63 187.806C692.033 187.374 692.37 186.886 692.63 186.356C694.23 183.676 695.81 180.996 697.41 178.356C697.64 177.966 697.85 177.926 698.17 178.256C698.72 178.816 699.24 179.406 699.79 179.966C699.96 180.146 699.9 180.276 699.74 180.406C699.58 180.536 699.61 180.626 699.82 180.676C699.983 180.74 700.158 180.764 700.332 180.747C700.506 180.729 700.673 180.671 700.82 180.576C700.887 180.527 700.967 180.501 701.05 180.501C701.133 180.501 701.213 180.527 701.28 180.576C701.72 180.825 702.07 181.206 702.28 181.666C702.317 181.744 702.33 181.831 702.317 181.916C702.305 182.002 702.267 182.081 702.21 182.146C702.125 182.232 702.069 182.343 702.049 182.463C702.029 182.583 702.047 182.706 702.1 182.816C702.19 182.986 702.18 183.276 702.49 183.026C702.59 182.946 702.67 183.026 702.74 183.136C703.27 183.706 703.82 184.276 704.34 184.856C704.65 185.206 704.6 185.416 704.2 185.616L694.82 190.406C694.586 190.523 694.37 190.675 694.18 190.856L686.18 198.316C685.81 198.656 685.81 198.656 685.47 198.316C684.78 197.566 684.09 196.816 683.39 196.086C683.17 195.856 683.19 195.716 683.39 195.506C684.84 194.166 686.23 192.856 687.63 191.556Z" fill="#4A4C4C"/>
<path d="M705.611 191.486C705.646 191.241 705.738 191.008 705.881 190.806C706.312 190.121 706.797 189.472 707.331 188.866C707.701 188.426 708.081 187.996 708.461 187.566C708.502 187.52 708.546 187.477 708.591 187.436C708.602 187.419 708.617 187.406 708.635 187.396C708.652 187.387 708.672 187.382 708.691 187.382C708.711 187.382 708.731 187.387 708.748 187.396C708.765 187.406 708.78 187.419 708.791 187.436L710.071 188.816C710.161 188.906 710.071 188.976 710.071 189.036C709.701 189.316 709.331 189.606 708.951 189.876C708.177 190.446 707.362 190.958 706.511 191.406C706.283 191.53 706.031 191.605 705.771 191.626L705.611 191.486Z" fill="#4A4C4C"/>
<path d="M711.481 184.656C712.231 183.956 712.981 183.246 713.741 182.556C713.964 182.309 714.152 182.033 714.301 181.736L716.991 177.216C717.121 176.996 717.241 176.966 717.421 177.156C717.601 177.346 718.021 177.806 718.331 178.156C718.421 178.246 718.391 178.326 718.331 178.396C718.271 178.466 718.261 178.516 718.331 178.546C718.423 178.581 718.521 178.594 718.619 178.583C718.716 178.573 718.809 178.539 718.891 178.486C718.93 178.46 718.975 178.446 719.021 178.446C719.068 178.446 719.113 178.46 719.151 178.486C719.396 178.627 719.592 178.84 719.711 179.096C719.738 179.138 719.752 179.186 719.752 179.236C719.752 179.285 719.738 179.334 719.711 179.376C719.665 179.424 719.635 179.485 719.624 179.552C719.613 179.618 719.623 179.685 719.651 179.746C719.701 179.846 719.651 180.006 719.871 179.866C720.091 179.726 719.971 179.866 720.011 179.926L720.911 180.926C721.081 181.116 721.061 181.236 720.831 181.356L715.551 184.046C715.422 184.114 715.301 184.198 715.191 184.296L710.701 188.496C710.491 188.686 710.491 188.686 710.291 188.496C709.911 188.076 709.521 187.656 709.121 187.246C709.001 187.116 709.011 187.026 709.121 186.916L711.481 184.656Z" fill="#4A4C4C"/>
<path d="M451.69 213.946C450.596 214.04 449.519 214.282 448.49 214.666C447.124 215.185 445.695 215.521 444.24 215.666C443.24 215.666 439.32 215.196 435.24 214.666L432.96 214.366C428.96 213.846 425.5 213.366 425.5 213.366C425.5 213.366 413.42 193.186 404.2 183.496C404.25 181.416 405.31 177.076 406.61 175.856C407.61 174.916 409.78 175.166 411.29 175.186C411.87 176.766 414.82 184.576 415.67 184.836C416.52 185.096 418.44 184.736 418.15 183.586C418.119 183.371 418.044 183.164 417.931 182.979C417.817 182.794 417.666 182.634 417.488 182.509C417.31 182.385 417.108 182.298 416.895 182.254C416.682 182.211 416.463 182.211 416.25 182.256C415.49 182.346 413.32 176.356 412.82 174.926C413.63 174.316 413.3 172.926 413.76 171.926C413.83 171.776 413.88 171.666 413.92 171.596C413.92 171.596 413.92 171.596 413.92 171.546C414.08 171.196 413.83 171.096 414.1 170.916C414.279 170.798 414.431 170.643 414.547 170.462C414.662 170.281 414.738 170.078 414.77 169.866C414.77 169.486 414.3 168.156 415.06 167.956C415.287 167.894 415.49 167.765 415.643 167.587C415.796 167.409 415.893 167.189 415.92 166.956C414.35 165.386 413.41 161.236 411.84 157.326H410.9V155.256C410.632 154.699 410.331 154.158 410 153.636C407.14 149.056 398.93 146.576 392.25 148.866C389.8 149.706 387.82 152.136 386.18 155.216V157.366H384.94C380.26 164.436 372.73 175.576 371.51 176.096C372.839 176.868 374.118 177.723 375.34 178.656C372.18 180.996 368.26 182.486 365.34 184.176C362.42 185.866 361.86 186.516 361.93 186.726L361.14 186.846L359.04 186.656C346.04 188.566 323.35 183.796 323.35 183.796C320.594 184.181 317.937 185.087 315.52 186.466C310.75 188.946 316.29 192.196 315.14 192.956C313.99 193.716 306.36 208.036 302.14 213.756C297.92 219.476 304.82 222.346 304.82 222.346H460.66C460.909 220.96 461.037 219.554 461.04 218.146C461.04 215.856 453.6 213.946 451.69 213.946ZM407.69 152.456H409.07V157.366H407.69V152.456ZM404.42 152.456H405.8V157.366H404.48L404.42 152.456ZM397.9 152.456H399.28V157.366H397.9V152.456ZM394.64 152.456H396.02V157.366H394.64V152.456ZM391.37 152.456H392.76V157.366H391.37V152.456ZM388.11 152.456H389.48V157.366H388.1L388.11 152.456ZM402.54 157.366H401.16V152.456H402.54V157.366Z" fill="#4A4C4C"/>
<path d="M769.621 224.186C768.891 224.186 766.621 221.726 766.091 221.356C758.841 215.736 750.801 210.286 740.461 206.936C733.177 204.545 725.498 203.594 717.851 204.136C710.391 204.756 703.561 207.016 696.371 208.416C685.081 210.626 675.271 209.256 665.371 205.466C654.761 201.466 645.161 196.406 634.461 192.466C625.291 189.116 614.821 186.676 604.291 187.336C594.291 187.966 585.141 191.336 577.061 195.176C568.981 199.016 561.481 203.436 552.731 206.656C545.507 209.416 537.834 210.816 530.101 210.786C521.691 210.626 514.191 208.056 506.011 207.136C498.949 206.372 491.807 207.379 485.231 210.066C479.931 212.216 475.611 215.456 470.181 217.406C467.131 218.506 461.041 219.086 461.041 221.976V224.196L769.621 224.186Z" fill="#4A4C4C"/>
<path d="M1103.58 223.546C1103.2 223.546 1101.98 222.266 1101.73 222.066C1097.75 218.77 1093.2 216.213 1088.32 214.516C1084.51 213.265 1080.48 212.769 1076.48 213.056C1072.58 213.376 1069 214.556 1065.24 215.296C1059.78 216.38 1054.13 215.841 1048.98 213.746C1043.43 211.636 1038.41 209.006 1032.8 206.956C1028.01 204.925 1022.83 203.998 1017.64 204.242C1012.45 204.486 1007.37 205.895 1002.8 208.366C998.57 210.366 994.66 212.686 990.09 214.366C986.311 215.815 982.296 216.548 978.25 216.526C973.84 216.446 969.92 215.106 965.64 214.616C961.941 214.217 958.202 214.746 954.76 216.156C951.98 217.276 949.76 218.966 946.88 219.996C945.29 220.566 942.1 220.876 942.1 222.386V223.546H1103.58Z" fill="#4A4C4C"/>
<path d="M987.05 216.286C987.002 215.037 986.742 213.806 986.28 212.646C986.261 212.59 986.258 212.531 986.272 212.474C986.287 212.417 986.317 212.365 986.36 212.326C986.661 212.051 986.891 211.708 987.03 211.326C987.059 211.185 987.053 211.04 987.014 210.902C986.975 210.765 986.903 210.638 986.806 210.533C986.708 210.429 986.587 210.349 986.452 210.301C986.317 210.252 986.172 210.237 986.03 210.256C985.51 210.356 985.43 210.976 985.42 211.256C985.418 211.322 985.394 211.385 985.35 211.436C984.51 212.496 984.53 215.386 984.54 215.816C984.55 215.852 984.55 215.89 984.54 215.926C984.432 216.248 984.378 216.586 984.38 216.926C984.381 217.006 984.351 217.083 984.298 217.142C984.244 217.201 984.17 217.238 984.09 217.246C978.68 217.516 973.66 217.466 970.26 215.456C968.388 214.351 966.611 213.089 964.95 211.686C964.897 211.647 964.858 211.591 964.84 211.528C964.822 211.464 964.825 211.397 964.848 211.335C964.872 211.274 964.916 211.222 964.972 211.188C965.029 211.153 965.095 211.139 965.16 211.146C966.29 211.236 965.25 209.676 964.16 209.676C963.07 209.676 962.86 209.066 962.38 209.116C961.845 209.145 961.317 209.263 960.82 209.466C959.7 209.806 958.75 210.726 956.82 210.466C955.27 210.256 953.44 208.376 952.76 207.616C952.731 207.581 952.709 207.54 952.697 207.497C952.685 207.453 952.683 207.407 952.69 207.362C952.698 207.317 952.715 207.274 952.741 207.237C952.767 207.2 952.801 207.168 952.84 207.146C952.942 207.103 953.03 207.034 953.097 206.946C953.164 206.859 953.206 206.755 953.22 206.646C953.22 206.336 952.64 206.046 952.31 205.916C952.252 205.889 952.203 205.845 952.171 205.789C952.139 205.734 952.125 205.67 952.13 205.606C952.13 205.206 952.13 204.386 951.44 204.226C950.49 204.006 949.44 204.656 948.84 204.226C948.166 203.654 947.331 203.305 946.45 203.226C945.55 203.226 944.86 202.706 944.12 202.876C943.38 203.046 942.69 204.396 942.56 204.746C942.43 205.096 940.95 205.316 941.3 206.416C941.324 206.481 941.324 206.553 941.3 206.619C941.277 206.685 941.231 206.74 941.17 206.776C940.377 207.219 939.765 207.927 939.44 208.776C939.44 209.046 939.32 209.426 939.25 209.866C939.243 209.909 939.225 209.95 939.2 209.987C939.175 210.023 939.143 210.054 939.105 210.076C939.067 210.099 939.025 210.113 938.981 210.119C938.937 210.124 938.892 210.119 938.85 210.106C938.13 209.892 937.454 209.553 936.85 209.106C936.271 208.68 935.764 208.163 935.35 207.576C935.323 207.536 935.306 207.49 935.299 207.443C935.293 207.395 935.297 207.346 935.313 207.301C935.328 207.255 935.354 207.214 935.388 207.18C935.423 207.146 935.465 207.121 935.51 207.106C935.657 207.06 935.808 207.027 935.96 207.006C936.82 206.916 937.13 206.486 937.13 206.186C937.13 205.886 936.3 205.576 935.39 205.496C934.48 205.416 933.75 205.186 933.66 204.926C933.57 204.666 933.27 204.716 932.06 205.926C930.85 207.136 930.11 208.006 928.06 207.926C927.376 207.926 926.709 207.707 926.157 207.303C925.605 206.898 925.197 206.328 924.99 205.676C924.836 204.8 924.409 203.995 923.77 203.376C923.08 202.816 922.99 201.906 922 201.686C921.01 201.466 921.39 202.556 920.26 202.556C919.13 202.556 918.13 200.256 916.26 200.716C916.202 200.73 916.15 200.761 916.11 200.806C915.782 201.215 915.356 201.535 914.87 201.736C914.73 201.776 914.599 201.845 914.487 201.938C914.375 202.032 914.284 202.148 914.219 202.278C914.154 202.409 914.117 202.552 914.11 202.698C914.104 202.844 914.128 202.99 914.18 203.126C914.31 203.726 914.31 205.206 913.83 205.126C913.35 205.046 912.06 204.916 912.14 205.696C912.22 206.476 912.14 206.516 912.84 206.606C913.54 206.696 911.97 208.036 911.84 208.426C911.813 208.521 911.793 208.618 911.78 208.716C911.764 208.788 911.724 208.852 911.665 208.898C911.607 208.944 911.534 208.967 911.46 208.966C910.125 208.92 908.834 208.478 907.75 207.696C907.418 207.453 907.109 207.179 906.83 206.876C906.787 206.82 906.764 206.751 906.764 206.681C906.764 206.61 906.787 206.542 906.83 206.486C906.878 206.403 906.935 206.325 907 206.256C907.21 206.086 908 206.306 908.51 205.786C909.02 205.266 908.51 204.916 908.17 204.566C907.749 204.28 907.272 204.086 906.77 203.996C906.692 203.974 906.624 203.924 906.58 203.856L906.09 203.016C905.83 202.576 905.74 203.316 904.87 203.536C904 203.756 903.49 205.536 902.49 206.346C902.087 206.649 901.619 206.854 901.123 206.946C900.626 207.038 900.116 207.014 899.63 206.876C898.258 206.446 897.109 205.494 896.43 204.226C896.17 203.406 894.87 201.716 894.6 200.936C894.33 200.156 891.34 200.776 890.79 200.886C890.738 200.9 890.683 200.9 890.63 200.886C889.75 200.542 888.829 200.314 887.89 200.206C887.83 200.198 887.774 200.174 887.727 200.135C887.681 200.096 887.648 200.044 887.63 199.986C887.36 199.096 886.18 198.286 885.33 198.886C884.48 199.486 884.39 200.026 885.16 201.086C885.208 201.142 885.234 201.212 885.234 201.286C885.234 201.359 885.208 201.43 885.16 201.486C884.814 201.848 884.558 202.287 884.41 202.766C884.389 202.836 884.343 202.896 884.28 202.936C884.148 203.017 884.007 203.084 883.86 203.136C883.73 203.136 883.65 203.776 883.62 204.086C883.613 204.136 883.594 204.185 883.565 204.226C883.535 204.268 883.496 204.302 883.45 204.326C882.578 204.825 881.843 205.533 881.31 206.386C879.36 209.156 879.84 211.926 879.62 212.386C879.4 212.846 877.15 214.636 877.15 215.156C877.15 215.676 877.78 221.156 877.81 221.386V221.436C877.809 221.475 877.816 221.515 877.83 221.552C877.845 221.589 877.867 221.623 877.895 221.651C877.923 221.679 877.957 221.701 877.994 221.716C878.031 221.73 878.071 221.737 878.11 221.736H879.81C879.838 221.736 879.864 221.729 879.888 221.716C879.911 221.703 879.931 221.683 879.944 221.66C879.957 221.636 879.964 221.609 879.964 221.582C879.963 221.555 879.955 221.529 879.94 221.506C879.838 221.355 879.68 221.25 879.5 221.216C879.343 221.214 879.189 221.17 879.055 221.087C878.921 221.004 878.812 220.886 878.74 220.746C878.732 220.716 878.732 220.685 878.74 220.656C878.67 220.246 878.15 216.806 879.09 215.546C880.18 213.796 881.66 213.546 882.84 211.866C882.869 211.822 882.907 211.787 882.952 211.762C882.998 211.737 883.049 211.725 883.1 211.725C883.152 211.725 883.203 211.737 883.248 211.762C883.294 211.787 883.332 211.822 883.36 211.866C883.599 212.742 883.65 213.658 883.51 214.556C883.51 215.776 883.51 216.376 884.12 217.026C884.73 217.676 886.65 220.836 887.12 221.566C887.149 221.609 887.187 221.644 887.233 221.669C887.278 221.693 887.329 221.706 887.38 221.706H888.47C888.526 221.704 888.579 221.688 888.626 221.658C888.673 221.629 888.711 221.588 888.736 221.539C888.762 221.49 888.774 221.435 888.771 221.38C888.768 221.325 888.751 221.272 888.72 221.226C888.551 220.914 888.279 220.67 887.95 220.536C887.39 220.406 885.52 217.636 885.22 215.856C884.92 214.076 885.78 210.656 886.38 210.446C886.98 210.236 887.92 210.936 890.48 210.676C890.546 210.656 890.615 210.656 890.68 210.676C891.275 211.072 891.967 211.297 892.68 211.326C892.76 211.326 892.836 211.357 892.893 211.414C892.949 211.47 892.98 211.546 892.98 211.626V212.966C892.939 213.548 892.939 214.133 892.98 214.716C892.991 214.752 892.991 214.79 892.98 214.826C892.788 215.675 892.788 216.556 892.98 217.406C892.989 217.462 892.982 217.519 892.961 217.572C892.94 217.625 892.905 217.671 892.86 217.706C892.015 218.33 891.216 219.015 890.47 219.756C890.04 220.316 890.95 221.096 891.34 221.096C891.73 221.096 891.54 220.626 891.47 220.366C891.459 220.311 891.462 220.255 891.479 220.202C891.497 220.149 891.528 220.102 891.57 220.066L892.38 219.316C892.422 219.279 892.474 219.255 892.528 219.245C892.583 219.235 892.64 219.24 892.692 219.259C892.744 219.279 892.79 219.312 892.825 219.355C892.86 219.399 892.882 219.451 892.89 219.506L893.16 221.396C893.174 221.468 893.213 221.534 893.269 221.581C893.326 221.628 893.397 221.655 893.47 221.656H894.89C894.97 221.664 895.049 221.64 895.111 221.589C895.173 221.538 895.212 221.465 895.22 221.386C895.228 221.306 895.204 221.227 895.154 221.165C895.103 221.103 895.03 221.064 894.95 221.056C894.17 220.966 894.09 220.486 894.04 219.496C894.04 218.796 893.98 218.266 893.97 218.016C893.966 217.966 893.975 217.915 893.996 217.87C894.017 217.824 894.05 217.785 894.09 217.756C894.861 217.247 895.558 216.635 896.16 215.936C896.29 215.506 895.16 213.816 895.16 212.696C895.15 212.117 895.255 211.543 895.47 211.006C895.493 210.946 895.535 210.897 895.59 210.866C896.182 210.478 896.825 210.175 897.5 209.966C899.345 210.396 901.277 210.256 903.04 209.566C904.287 209.113 905.403 208.361 906.29 207.376C906.319 207.347 906.353 207.324 906.391 207.308C906.429 207.292 906.47 207.284 906.51 207.284C906.551 207.284 906.592 207.292 906.63 207.308C906.667 207.324 906.702 207.347 906.73 207.376C906.996 207.642 907.28 207.89 907.58 208.116C908.712 208.937 910.055 209.416 911.45 209.496C911.493 209.497 911.536 209.509 911.574 209.529C911.612 209.549 911.645 209.577 911.671 209.611C911.697 209.646 911.715 209.686 911.723 209.728C911.732 209.77 911.731 209.814 911.72 209.856C911.57 210.556 911.38 211.396 911.16 212.126C910.73 213.606 909 215.376 908.91 215.636C908.82 215.896 908.91 220.176 908.91 221.356C908.91 221.396 908.918 221.436 908.934 221.473C908.95 221.51 908.973 221.543 909.002 221.571C909.031 221.599 909.065 221.621 909.103 221.636C909.14 221.65 909.18 221.657 909.22 221.656H910.49C910.561 221.659 910.631 221.637 910.686 221.592C910.741 221.548 910.778 221.485 910.79 221.416C910.79 221.236 910.79 221.036 910.26 221.006C909.39 221.006 910 217.896 910.26 217.116C910.52 216.336 911.52 213.996 912.08 213.646C912.701 213.239 913.204 212.677 913.54 212.016C913.57 211.965 913.614 211.923 913.666 211.896C913.718 211.868 913.778 211.857 913.836 211.862C913.895 211.867 913.951 211.889 913.998 211.925C914.045 211.961 914.08 212.01 914.1 212.066C914.585 213.579 914.92 215.137 915.1 216.716C915.1 217.236 916.84 219.536 917.32 220.136C917.8 220.736 918.26 221.286 918.48 221.546C918.508 221.58 918.543 221.607 918.583 221.626C918.623 221.645 918.666 221.655 918.71 221.656H919.71C919.762 221.655 919.813 221.642 919.859 221.617C919.904 221.592 919.943 221.556 919.971 221.512C919.998 221.468 920.015 221.418 920.018 221.366C920.022 221.315 920.012 221.263 919.99 221.216C919.956 221.142 919.906 221.077 919.844 221.025C919.782 220.974 919.709 220.936 919.63 220.916C919.2 220.836 917.85 218.796 917.25 218.016C916.65 217.236 916.08 216.016 916.25 213.516C916.33 212.306 916.37 211.616 916.4 211.226C916.403 211.177 916.417 211.13 916.442 211.088C916.466 211.046 916.501 211.011 916.542 210.985C916.583 210.96 916.63 210.945 916.679 210.941C916.727 210.938 916.776 210.946 916.82 210.966C917.874 211.331 919.006 211.411 920.1 211.196C920.155 211.19 920.21 211.198 920.261 211.219C920.311 211.24 920.356 211.273 920.39 211.316C921.11 212.206 922.01 212.656 922.05 213.816C922.09 214.976 921.62 216.416 921.71 217.186C921.8 217.956 921.36 220.566 921.49 220.826L921.61 221.056C921.615 221.079 921.615 221.103 921.61 221.126L921.68 221.416C921.696 221.484 921.734 221.544 921.789 221.588C921.843 221.631 921.911 221.655 921.98 221.656H923.22C923.29 221.654 923.356 221.629 923.41 221.586C923.465 221.542 923.503 221.483 923.52 221.416C923.768 220.273 924.297 219.211 925.06 218.326C926 216.986 926.43 216.686 926.22 216.256C926.01 215.826 923.87 212.396 923.96 211.926C924.079 211.491 924.342 211.11 924.705 210.843C925.068 210.576 925.51 210.44 925.96 210.456C927.3 210.316 929.04 210.626 931.5 209.276C932.81 208.566 933.78 207.996 934.5 207.596C934.567 207.558 934.646 207.547 934.72 207.566C934.795 207.585 934.859 207.631 934.9 207.696C935.854 209.144 937.306 210.194 938.98 210.646C939.053 210.662 939.116 210.705 939.159 210.766C939.201 210.827 939.22 210.902 939.21 210.976C939.07 211.852 939.03 212.741 939.09 213.626C939.091 213.656 939.101 213.686 939.12 213.71C939.139 213.734 939.165 213.751 939.194 213.759C939.223 213.767 939.255 213.765 939.283 213.753C939.311 213.742 939.335 213.722 939.35 213.696C939.37 213.666 939.4 213.645 939.433 213.635C939.467 213.626 939.504 213.628 939.536 213.642C939.568 213.657 939.594 213.682 939.61 213.714C939.625 213.745 939.629 213.781 939.62 213.816C939.584 214.285 939.373 214.723 939.03 215.046C938.38 215.516 938.64 215.826 938.73 216.686C939.018 218.552 939.46 220.392 940.05 222.186C940.429 222.281 940.824 222.301 941.21 222.246C941.277 222.233 941.337 222.198 941.38 222.146C941.423 222.094 941.447 222.028 941.447 221.961C941.447 221.893 941.423 221.828 941.38 221.776C941.337 221.724 941.277 221.688 941.21 221.676C940.87 221.676 940.21 219.436 940.21 217.546C940.21 215.656 942.21 214.056 942.79 213.496C943.188 213.142 943.474 212.68 943.61 212.166C943.619 212.12 943.639 212.077 943.667 212.041C943.695 212.004 943.732 211.974 943.773 211.954C943.815 211.933 943.861 211.923 943.907 211.923C943.953 211.924 943.999 211.935 944.04 211.956C945.94 212.846 947.48 212.606 947.77 213.016C948.108 213.338 948.521 213.571 948.97 213.696C949.043 213.725 949.101 213.78 949.135 213.851C949.168 213.921 949.174 214.001 949.15 214.076C948.697 215.617 948.045 217.093 947.21 218.466C946.08 220.076 944.48 220.726 944.44 221.376C944.433 221.559 944.461 221.741 944.525 221.913C944.588 222.085 944.686 222.242 944.81 222.376C944.839 222.409 944.874 222.435 944.914 222.452C944.954 222.469 944.997 222.477 945.04 222.476H945.38C945.425 222.475 945.469 222.464 945.509 222.445C945.549 222.426 945.584 222.398 945.613 222.364C945.641 222.33 945.662 222.29 945.674 222.247C945.685 222.204 945.688 222.16 945.68 222.116C945.675 222.035 945.69 221.955 945.723 221.882C945.756 221.809 945.807 221.745 945.87 221.696C946.39 221.176 949.24 218.106 949.24 217.556C949.41 216.886 949.665 216.24 950 215.636C950.03 215.578 950.076 215.532 950.133 215.502C950.19 215.472 950.255 215.461 950.319 215.47C950.383 215.478 950.442 215.507 950.489 215.551C950.536 215.595 950.568 215.653 950.58 215.716C950.81 216.926 951.2 219.076 951.32 220.066C951.419 220.831 951.624 221.578 951.93 222.286C951.953 222.342 951.991 222.39 952.041 222.424C952.091 222.458 952.15 222.476 952.21 222.476H953.44C953.506 222.475 953.569 222.454 953.621 222.415C953.673 222.377 953.712 222.323 953.732 222.261C953.752 222.199 953.752 222.132 953.732 222.07C953.712 222.008 953.673 221.954 953.62 221.916C953.5 221.826 953.369 221.752 953.23 221.696C952.54 221.386 951.93 219.226 951.93 218.446C951.93 217.666 951.93 213.906 951.93 213.356C951.92 213.313 951.92 213.268 951.93 213.226C952.04 213.006 952.43 212.296 952.72 212.296C953.01 212.296 954.1 212.816 955.77 213.066C957.739 213.375 959.752 213.221 961.65 212.616C962.371 212.356 963.061 212.021 963.71 211.616C963.761 211.579 963.823 211.559 963.885 211.559C963.948 211.559 964.009 211.579 964.06 211.616C965.901 213.227 967.886 214.667 969.99 215.916C973.27 217.856 977.99 217.816 983.23 217.806H984.33C984.376 217.802 984.423 217.809 984.465 217.826C984.508 217.843 984.547 217.869 984.579 217.902C984.61 217.936 984.634 217.976 984.648 218.02C984.662 218.064 984.666 218.11 984.66 218.156C984.544 219.387 984.625 220.63 984.9 221.836C984.916 221.904 984.954 221.964 985.009 222.008C985.063 222.051 985.131 222.075 985.2 222.076H985.88C985.941 222.077 986.001 222.061 986.052 222.029C986.104 221.997 986.145 221.951 986.17 221.896L986.24 221.716V221.656C986.844 220.932 987.361 220.14 987.78 219.296C987.73 218.886 986.95 217.656 987.05 216.286ZM924.69 216.396C924.708 216.435 924.717 216.478 924.717 216.521C924.717 216.564 924.708 216.606 924.69 216.646C924.35 217.306 922.69 220.366 922.29 220.256C921.89 220.146 922.51 217.866 922.55 217.086C922.671 216.232 922.848 215.386 923.08 214.556C923.096 214.499 923.127 214.448 923.17 214.409C923.213 214.37 923.266 214.343 923.324 214.333C923.381 214.322 923.441 214.328 923.495 214.35C923.549 214.372 923.596 214.408 923.63 214.456C924.058 215.059 924.413 215.71 924.69 216.396Z" fill="#040707"/>
<path d="M644.391 217.706V227.656H384.701V225.166L386.701 222.396L387.061 221.886H400.681L401.161 222.396L402.951 224.306H406.301V225.556H416.911L421.161 221.306L422.361 222.396L425.931 225.626L428.271 222.396L433.001 215.856V214.426L435.281 214.726V215.436H439.761V217.316H445.891L448.481 214.656L451.961 211.166H459.401V207.896L462.471 204.826H463.251V201.966H467.251L466.621 202.596H465.621V203.946H466.621V208.106H469.121V207.166H471.481V205.506H474.181V207.066H475.851V213.766H478.241V210.906L482.611 192.816V184.496H483.481V179.406H484.411V184.496H485.481V192.496L489.731 210.896V213.496H492.481V212.146H496.641V222.026H499.141V216.826H513.801V217.826H515.671V223.126H520.971V220.736H524.481V225.006H527.181V221.466H530.821V224.276H537.481V226.036H539.031V222.656H541.531V219.436H543.091V221.936H544.481V218.656H545.321V216.576H547.601V215.226H551.351L563.721 212.416H572.721V210.336H580.621L586.131 215.116V217.506H587.271V219.386H591.851L594.141 216.156H599.541V210.616C600.161 210.286 600.771 209.986 601.411 209.706V212.206H602.251V216.366H608.251L610.181 218.286V220.106H611.481V216.576H614.701V212.516H615.701V216.656L616.901 217.856V221.976H619.901V219.656H620.451V218.916H632.721V220.156H634.831V218.406H637.021V216.296H643.021V217.706H644.391Z" fill="#4A4C4C"/>
<path d="M484.91 226.656H770.77L787.61 226.376C787.54 226.326 770.61 217.376 770.53 217.276C770.45 217.176 770.11 216.676 769.88 216.426L768.57 216.026L767.32 215.646L764.44 214.766C763.676 214.474 762.89 214.243 762.09 214.076C761.89 214.076 761.67 213.996 761.59 213.866C761.51 213.736 761.54 213.716 761.46 213.666C761.405 213.65 761.346 213.65 761.29 213.666L760.58 213.606L760.41 213.956C760.101 213.935 759.79 213.966 759.49 214.046C759.26 214.096 759.05 214.176 758.81 214.206C758.57 214.236 758.14 214.206 757.81 214.206C757.562 214.251 757.317 214.318 757.08 214.406C756.418 214.502 755.749 214.545 755.08 214.536C754.52 214.596 754 214.766 753.45 214.836C753.177 214.856 752.903 214.856 752.63 214.836C752.341 214.863 752.05 214.822 751.78 214.716C751.732 214.695 751.688 214.664 751.654 214.624C751.619 214.584 751.594 214.537 751.58 214.486H751.05C751.044 214.472 751.041 214.456 751.041 214.441C751.041 214.425 751.044 214.41 751.05 214.396C751.03 214.3 751.03 214.201 751.05 214.106C750.988 214.091 750.923 214.091 750.86 214.106H750.68C750.56 214.106 750.62 213.896 750.62 213.816C750.414 213.801 750.207 213.801 750 213.816C750 213.656 750 213.526 749.78 213.516H749.08C749.092 213.541 749.099 213.568 749.099 213.596C749.099 213.624 749.092 213.651 749.08 213.676C749.01 213.866 748.72 213.676 748.6 213.816C748.48 213.956 748.6 214.096 748.6 214.166C748.615 214.208 748.615 214.254 748.6 214.296C748.533 214.345 748.453 214.372 748.37 214.376C748.14 214.376 748.08 214.376 748.03 214.226C747.98 214.076 748.03 214.006 748.03 213.996C747.63 213.996 747.46 214.046 747.48 213.746C747.495 213.704 747.495 213.658 747.48 213.616C747.39 213.506 746.76 213.616 746.6 213.616C746.44 213.616 746.53 213.936 746.51 214.046C746.518 214.063 746.521 214.082 746.521 214.101C746.521 214.12 746.518 214.138 746.51 214.156C746.37 214.246 746.22 214.156 746.12 214.246C746.02 214.336 746.06 214.546 746.02 214.646C745.895 214.893 745.737 215.121 745.55 215.326C745.33 215.566 744.81 215.476 744.47 215.476C744.34 215.476 743.83 214.906 743.73 214.826C743.699 214.807 743.675 214.779 743.66 214.746C743.642 214.694 743.642 214.638 743.66 214.586C743.622 214.276 743.523 213.977 743.37 213.706C743.26 213.466 742.48 213.516 742.22 213.506H742.15C742.15 213.416 742.06 213.116 741.95 213.076C741.911 213.065 741.869 213.065 741.83 213.076C741.35 213.076 740.83 213.076 740.38 213.076C740.413 213.527 740.369 213.98 740.25 214.416C740.25 214.556 740.07 214.756 740 214.886C739.991 214.89 739.981 214.893 739.97 214.893C739.96 214.893 739.95 214.89 739.94 214.886C738.94 214.546 738.02 214.056 737.07 213.646L734.96 212.736C734.405 212.424 733.786 212.246 733.15 212.216C732.52 212.216 731.89 212.216 731.27 212.326C730.727 212.432 730.169 212.449 729.62 212.376C729.24 212.296 728.88 212.176 728.5 212.076C726.935 211.757 725.33 211.672 723.74 211.826C723.65 212.006 723.66 212.246 723.38 212.336C723.212 212.386 723.036 212.406 722.86 212.396H722.4C721.628 212.336 720.852 212.336 720.08 212.396L717.71 212.756C716.87 212.886 716.04 213.066 715.19 213.176H715.12C715.07 213.176 715.06 213.106 715.07 213.066C715.08 213.026 715.07 212.836 715.07 212.726C715.069 212.699 715.062 212.672 715.05 212.648C715.038 212.624 715.021 212.603 715 212.586C714.951 212.575 714.9 212.575 714.85 212.586C714.08 212.586 713.3 212.586 712.53 212.586H712.2C712.081 212.62 711.965 212.66 711.85 212.706L709.12 213.656L707.85 214.206C707.478 214.421 707.086 214.602 706.68 214.746C706.588 214.787 706.49 214.814 706.39 214.826C706.295 214.821 706.201 214.804 706.11 214.776C705.23 214.506 704.36 214.246 703.5 213.956C702.68 213.691 701.822 213.556 700.96 213.556H695.34C694.734 213.521 694.126 213.521 693.52 213.556C693.58 213.436 693.46 213.296 693.34 213.206C692.919 212.807 692.385 212.548 691.81 212.466C691.196 212.489 690.591 212.617 690.02 212.846L688.74 213.286C688.444 213.395 688.139 213.482 687.83 213.546C687.186 213.632 686.53 213.56 685.92 213.336C685.64 213.256 685.36 213.156 685.08 213.066C684.784 212.925 684.471 212.821 684.15 212.756C684.083 212.73 684.012 212.713 683.94 212.706H683.79C683.34 212.836 682.87 212.956 682.44 213.116C682.162 213.238 681.874 213.338 681.58 213.416C681.25 213.477 680.916 213.507 680.58 213.506C679.929 213.507 679.281 213.426 678.65 213.266C678.095 213.091 677.531 212.947 676.96 212.836C676.591 212.806 676.22 212.806 675.85 212.836H671.28C670.61 212.839 669.942 212.892 669.28 212.996L665.84 213.496C664.78 213.646 663.71 213.846 662.64 213.936C661.25 214.036 659.82 213.936 658.43 213.936H655.94H654.78C654.232 213.842 653.668 213.926 653.17 214.176C652.948 214.405 652.683 214.589 652.39 214.716C651.928 214.771 651.462 214.771 651 214.716C650.761 214.741 650.519 214.741 650.28 214.716C649.59 214.566 649.22 213.996 648.57 213.766C648.21 213.639 647.82 213.622 647.45 213.716C647.11 213.796 646.97 214.046 646.66 214.166C646.339 214.275 645.996 214.305 645.66 214.256C645.39 214.256 644.39 214.396 644.26 214.196C644.25 214.16 644.25 214.122 644.26 214.086V213.656C644.266 213.64 644.266 213.622 644.26 213.606H644.2C643.903 213.551 643.598 213.551 643.3 213.606C643.109 213.687 642.943 213.818 642.82 213.986C642.12 214.676 640.94 214.796 639.93 215.106C638.947 215.533 637.916 215.842 636.86 216.026L631.72 216.396L624.44 216.926C624.068 216.977 623.688 216.928 623.34 216.786C622.803 216.469 622.194 216.294 621.57 216.276C621.037 216.315 620.512 216.43 620.01 216.616C619.515 216.791 619.011 216.942 618.5 217.066C617.729 217.22 616.934 217.202 616.17 217.016L615.78 216.926C615.567 216.911 615.353 216.911 615.14 216.926C615.034 216.91 614.926 216.91 614.82 216.926L614.63 217.026C614.181 217.321 613.76 217.656 613.37 218.026C613.321 218.071 613.267 218.111 613.21 218.146C612.593 218.217 611.971 218.247 611.35 218.236V217.656H609.9V217.266L608.83 217.006L608.35 217.166L607.87 217.316V217.556H606.59C606.48 217.556 606.59 217.796 606.59 217.796H605.73V218.196H603.08V217.756H602.66V217.406H602.23V217.776H601.76L601.34 218.396H600.15C600.08 218.396 600.15 218.206 600.15 218.206H598.39C596.658 217.615 594.878 217.176 593.07 216.896C590.961 216.732 588.84 216.935 586.8 217.496C584.77 217.973 582.783 218.618 580.86 219.426C580.363 219.694 579.836 219.902 579.29 220.046C577.48 220.456 575.78 219.506 574.1 219.166C572.086 218.843 570.05 218.686 568.01 218.696C564.809 218.522 561.599 218.599 558.41 218.926C557.447 219.137 556.472 219.29 555.49 219.386C554.616 219.274 553.759 219.052 552.94 218.726C552.169 218.537 551.373 218.462 550.58 218.506H546.9L546.81 217.506H548.16L538.1 211.656L529.57 217.906H530.48V219.906H529.24C528.967 219.686 528.655 219.52 528.32 219.416H527.97L527.25 219.486C527.043 219.493 526.84 219.552 526.66 219.656C526.54 219.776 526.66 219.906 526.66 220.046C526.66 220.186 526.56 220.336 526.41 220.446C526.252 220.583 526.073 220.694 525.88 220.776C525.84 220.808 525.791 220.829 525.74 220.836C525.678 220.851 525.613 220.851 525.55 220.836C525.083 220.653 524.596 220.522 524.1 220.446C523.674 220.416 523.246 220.416 522.82 220.446C522.707 220.431 522.593 220.431 522.48 220.446C522.213 220.538 521.952 220.648 521.7 220.776C521.403 220.861 521.088 220.861 520.79 220.776C519.795 220.486 518.743 220.448 517.73 220.666C517.309 220.821 516.868 220.915 516.42 220.946C515.989 220.943 515.565 220.83 515.19 220.616C515.055 220.514 514.902 220.436 514.74 220.386C514.657 220.376 514.573 220.376 514.49 220.386C513.958 220.347 513.422 220.384 512.9 220.496C512.441 220.638 511.959 220.692 511.48 220.656C511.27 220.656 511.08 220.556 510.87 220.516C510.347 220.409 509.813 220.372 509.28 220.406C508.894 220.376 508.506 220.376 508.12 220.406L506.97 220.616C506.65 220.756 506.33 220.886 505.97 221.036C505.811 221.126 505.644 221.199 505.47 221.256C505.34 221.256 505.28 221.076 505.22 220.986C505.208 220.959 505.187 220.938 505.16 220.926H505.08C504.765 220.88 504.445 220.88 504.13 220.926C504.089 220.952 504.058 220.991 504.04 221.036L503.68 221.706C503.687 221.725 503.687 221.746 503.68 221.766C503.647 221.772 503.613 221.772 503.58 221.766C503.44 221.766 503.14 221.906 503 221.826C502.974 221.805 502.951 221.782 502.93 221.756C502.767 221.55 502.635 221.321 502.54 221.076C502.47 220.836 502.54 220.606 502.29 220.416C502.086 220.269 501.868 220.142 501.64 220.036C501.35 219.873 501.081 219.675 500.84 219.446C500.712 219.297 500.546 219.186 500.36 219.126C500.231 219.106 500.099 219.106 499.97 219.126C499.21 219.126 498.42 219.186 497.66 219.286C497.198 219.332 496.743 219.426 496.3 219.566C496.082 219.633 495.876 219.734 495.69 219.866C495.493 220.043 495.342 220.266 495.25 220.516C495.068 220.824 494.943 221.163 494.88 221.516L494.38 221.406C493.6 221.006 493.38 221.676 493.2 221.846C493.02 222.016 492.6 222.366 492.38 222.266C490.18 221.266 489.17 220.916 489.03 220.816L487.95 221.516H486.13L484.91 226.656Z" fill="#040707"/>
<path d="M693.661 224.496H531.121V222.876L533.581 222.586L534.871 221.776H536.211L538.341 220.966L540.131 220.616L541.701 220.266L542.541 220.586L545.681 220.266L546.571 218.786H549.321L551.561 218.076L555.031 218.346L556.211 217.346L559.951 216.936C559.951 216.936 561.131 217.106 561.131 216.936C561.253 216.64 561.418 216.364 561.621 216.116H564.281L565.051 215.596L566.681 214.736L568.921 215.076L569.651 214.736H571.651C572.214 214.893 572.802 214.937 573.381 214.866L574.671 214.986L575.901 214.496L576.901 214.636L577.901 214.816L579.461 214.296H580.701H580.821C582.391 214.006 583.901 213.586 585.411 213.236L588.801 212.456C589.744 212.182 590.719 212.034 591.701 212.016C592.708 212.016 593.708 212.046 594.701 212.106C595.579 212.186 596.463 212.186 597.341 212.106C597.951 212.046 598.531 211.936 599.131 211.856C601.661 211.576 604.209 211.503 606.751 211.636C606.901 211.796 606.891 211.996 607.331 212.086C607.611 212.107 607.891 212.107 608.171 212.086H608.901C610.096 212.196 611.284 212.366 612.461 212.596C613.731 212.686 615.151 212.296 616.461 212.406C617.771 212.516 616.731 211.796 618.091 211.896C618.091 211.896 618.861 212.286 618.891 212.276C619.2 212.205 619.501 212.104 619.791 211.976C620.371 211.816 620.681 212.096 620.691 211.976C620.701 211.856 620.841 212.126 620.921 212.096C621.001 212.066 620.921 212.226 621.031 212.226H624.741C624.911 212.211 625.081 212.211 625.251 212.226C625.446 212.248 625.64 212.281 625.831 212.326L629.931 213.326L631.201 214.406L633.581 214.956L635.821 214.606L639.931 215.146V215.806C639.931 215.806 641.051 216.036 641.281 216.066C641.511 216.096 647.171 216.066 647.171 216.066L648.171 216.776L650.701 216.966L653.021 217.966L655.111 217.656L657.721 218.356H660.041L662.131 218.746L662.731 219.636L665.421 219.436L668.781 220.526L669.231 221.026L671.541 220.756L674.381 221.456L674.901 221.996H678.781L679.161 222.926L682.671 223.346H684.981V222.846L686.851 222.996L687.851 223.546H690.251L693.661 224.496Z" fill="#040707"/>
<path d="M1074.73 223.846H983.82V222.946L985.19 222.776L985.91 222.326H986.66L987.85 221.876L988.85 221.676L989.72 221.486L990.19 221.656L991.95 221.486L992.45 220.656H993.99L995.24 220.256L997.18 220.406L997.84 219.836L999.93 219.616C999.93 219.616 1000.59 219.706 1000.59 219.616C1000.66 219.449 1000.75 219.294 1000.87 219.156H1002.35L1002.79 218.866L1003.69 218.376L1004.95 218.576L1005.36 218.376H1006.48C1006.81 218.468 1007.15 218.492 1007.48 218.446L1008.2 218.516L1008.89 218.236L1009.46 218.316L1009.99 218.416L1010.87 218.126H1011.56H1011.63C1012.5 217.956 1013.35 217.716 1014.19 217.526L1016.09 217.086C1016.62 216.934 1017.16 216.853 1017.71 216.846C1018.28 216.846 1018.84 216.846 1019.39 216.846C1019.88 216.891 1020.37 216.891 1020.86 216.846C1021.21 216.846 1021.53 216.746 1021.86 216.706C1023.28 216.55 1024.71 216.51 1026.13 216.586C1026.21 216.676 1026.21 216.786 1026.45 216.836C1026.61 216.846 1026.76 216.846 1026.92 216.836H1027.33C1028.01 216.836 1028.65 217.076 1029.33 217.126C1030.01 217.176 1030.84 216.956 1031.54 217.016C1032.24 217.076 1031.69 216.676 1032.45 216.736C1032.45 216.736 1032.88 216.956 1032.9 216.946C1033.07 216.906 1033.24 216.852 1033.4 216.786C1033.73 216.696 1033.9 216.846 1033.91 216.786C1033.92 216.726 1033.99 216.866 1034.04 216.846C1034.09 216.826 1034.04 216.916 1034.1 216.916C1034.79 216.916 1035.48 216.916 1036.17 216.916H1036.46C1036.57 216.925 1036.68 216.945 1036.78 216.976L1039.08 217.506L1039.78 218.116L1041.12 218.416L1042.37 218.226L1044.67 218.526V218.896L1045.42 219.046C1045.55 219.046 1048.72 219.046 1048.72 219.046L1049.27 219.436L1050.69 219.546L1051.98 220.126L1053.15 219.956L1054.61 220.346H1055.91L1057.08 220.556L1057.41 221.056L1058.92 220.946L1060.8 221.556L1061.05 221.836L1062.34 221.686L1063.93 222.076L1064.22 222.376H1066.39L1066.6 222.896L1068.6 223.136H1069.89V222.856L1070.89 222.946L1071.48 223.246H1072.82L1074.73 223.846Z" fill="#040707"/>
<path d="M1264.78 226.266H1173.87V224.896L1175.24 224.646L1175.96 223.956H1176.72L1177.91 223.266L1178.91 222.966L1179.79 222.676L1180.25 222.946L1182.01 222.676L1182.51 221.416H1184.05L1185.3 220.816L1187.24 221.046L1187.9 220.186L1190 219.836C1190 219.836 1190.65 219.986 1190.65 219.836C1190.72 219.593 1190.81 219.358 1190.93 219.136H1192.42L1192.85 218.706L1193.76 217.966L1195.01 218.256L1195.42 217.966H1196.52C1196.71 218.146 1197.17 218.076 1197.52 218.076L1198.25 218.186L1198.94 217.766L1199.5 217.886L1200.03 218.036L1200.91 217.596H1201.6H1201.67C1202.55 217.346 1203.39 216.986 1204.24 216.696L1206.13 216.036C1206.65 215.808 1207.2 215.679 1207.76 215.656C1208.32 215.656 1208.88 215.656 1209.43 215.736C1209.92 215.801 1210.42 215.801 1210.91 215.736C1211.25 215.676 1211.57 215.586 1211.91 215.516C1213.32 215.28 1214.75 215.22 1216.17 215.336C1216.26 215.466 1216.25 215.636 1216.5 215.706C1216.66 215.726 1216.82 215.726 1216.97 215.706H1217.38C1218.06 215.806 1218.72 215.949 1219.38 216.136C1220.09 216.226 1220.88 215.886 1221.59 215.976C1222.3 216.066 1221.74 215.456 1222.5 215.546C1222.5 215.546 1222.93 215.876 1222.95 215.876C1223.12 215.801 1223.29 215.715 1223.45 215.616C1223.77 215.486 1223.94 215.716 1223.95 215.616C1223.96 215.516 1224.03 215.736 1224.08 215.716C1224.13 215.696 1224.08 215.826 1224.14 215.826H1226.22H1226.5C1226.61 215.844 1226.72 215.874 1226.82 215.916L1229.12 216.726L1229.83 217.646L1231.16 218.106L1232.41 217.806L1234.71 218.266V218.836L1235.47 219.056C1235.59 219.056 1238.77 219.056 1238.77 219.056L1239.31 219.656L1240.73 219.816L1242.02 220.706L1243.19 220.446L1244.66 221.036H1245.95L1247.12 221.366L1247.45 222.116L1248.96 221.956L1250.84 222.876L1251.09 223.306L1252.38 223.076L1253.97 223.666L1254.26 224.126H1256.43L1256.65 224.916L1258.65 225.276H1259.94V224.846L1260.99 224.986L1261.57 225.446H1262.91L1264.78 226.266Z" fill="#040707"/>
<path d="M1057.92 196.526C1057.71 196.351 1057.45 196.259 1057.18 196.267C1056.91 196.274 1056.65 196.381 1056.46 196.566C1056.26 196.752 1056.14 197.003 1056.12 197.272C1056.09 197.541 1056.17 197.81 1056.33 198.026L1053.95 195.416L1051.28 197.846C1051.44 197.703 1051.55 197.518 1051.61 197.313C1051.66 197.107 1051.65 196.891 1051.59 196.689C1051.52 196.487 1051.4 196.308 1051.23 196.175C1051.07 196.042 1050.87 195.959 1050.66 195.937C1050.44 195.915 1050.23 195.954 1050.04 196.051C1049.85 196.147 1049.7 196.296 1049.59 196.48C1049.48 196.664 1049.43 196.875 1049.44 197.087C1049.45 197.299 1049.53 197.504 1049.65 197.676C1049.74 197.801 1049.86 197.906 1049.99 197.983C1050.13 198.061 1050.27 198.109 1050.43 198.125C1050.58 198.141 1050.74 198.124 1050.88 198.076C1051.03 198.028 1051.17 197.95 1051.28 197.846L1048.62 200.276L1050.56 202.406C1050.56 202.225 1050.6 202.046 1050.68 201.885C1050.76 201.724 1050.88 201.587 1051.03 201.486C1051.18 201.385 1051.35 201.322 1051.52 201.301C1051.7 201.279 1051.88 201.301 1052.04 201.364C1052.21 201.427 1052.36 201.529 1052.48 201.662C1052.59 201.794 1052.68 201.954 1052.72 202.126C1052.76 202.298 1052.76 202.478 1052.72 202.651C1052.68 202.823 1052.6 202.983 1052.48 203.117C1052.36 203.251 1052.22 203.354 1052.05 203.418C1051.89 203.482 1051.71 203.506 1051.53 203.486L1053.53 205.616L1058.86 200.756L1056.49 198.156C1056.71 198.328 1056.99 198.411 1057.27 198.386C1057.55 198.361 1057.81 198.231 1057.99 198.022C1058.18 197.813 1058.28 197.54 1058.27 197.261C1058.26 196.981 1058.15 196.715 1057.95 196.516L1057.92 196.526Z" fill="#FFAE00"/>
<path d="M290.37 210.786H290.2C290.08 210.786 290.05 210.786 290.04 210.626C290.04 210.086 289.95 209.546 289.9 209.006C289.81 207.906 289.71 206.806 289.62 205.706L289.56 204.896C289.56 204.806 289.56 204.746 289.68 204.756C289.69 204.759 289.7 204.759 289.711 204.758C289.721 204.756 289.731 204.753 289.739 204.747C289.748 204.741 289.755 204.734 289.76 204.725C289.766 204.716 289.769 204.706 289.77 204.696C289.77 204.636 289.71 204.636 289.66 204.636H289.34C289.27 204.636 289.24 204.636 289.24 204.536V203.486C289.246 203.424 289.274 203.367 289.32 203.326C289.341 203.307 289.358 203.284 289.37 203.258C289.382 203.232 289.388 203.204 289.388 203.176C289.388 203.147 289.382 203.119 289.37 203.093C289.358 203.068 289.341 203.044 289.32 203.026C289.282 202.994 289.234 202.977 289.185 202.977C289.136 202.977 289.088 202.994 289.05 203.026C289.029 203.044 289.012 203.068 289 203.093C288.988 203.119 288.982 203.147 288.982 203.176C288.982 203.204 288.988 203.232 289 203.258C289.012 203.284 289.029 203.307 289.05 203.326C289.079 203.354 289.101 203.388 289.115 203.427C289.129 203.465 289.134 203.505 289.13 203.546C289.13 203.856 289.13 204.176 289.13 204.496C289.13 204.636 289.07 204.656 288.95 204.656H288.66C288.61 204.656 288.58 204.656 288.58 204.726C288.58 204.796 288.58 204.776 288.65 204.776H288.83C288.845 204.915 288.845 205.056 288.83 205.196C288.74 206.576 288.64 207.956 288.55 209.336C288.55 209.766 288.48 210.206 288.46 210.646C288.46 210.776 288.4 210.806 288.28 210.806H287.67C287.5 210.806 287.5 210.806 287.5 210.986C287.49 211.139 287.49 211.293 287.5 211.446C287.5 211.566 287.5 211.606 287.34 211.596H286.07C286 211.596 285.97 211.596 285.97 211.706C285.975 211.762 285.975 211.819 285.97 211.876V216.186C285.97 216.266 285.97 216.286 285.87 216.286H282.55C282.46 216.286 282.42 216.286 282.42 216.166V192.716C282.42 192.316 282.48 192.416 282.11 192.306C281.74 192.196 281.11 192.026 280.65 191.896C280.52 191.896 280.49 191.806 280.49 191.676V190.166C280.49 189.946 280.49 189.946 280.29 189.876L277.48 188.876C277.22 188.786 277.25 188.826 277.25 188.556C277.25 187.616 277.25 186.686 277.25 185.746C277.256 185.679 277.24 185.613 277.206 185.555C277.172 185.498 277.121 185.453 277.06 185.426C276.01 184.806 274.96 184.186 273.92 183.556C273.863 183.518 273.798 183.494 273.731 183.486C273.663 183.477 273.594 183.484 273.53 183.506L272.17 183.866C271.98 183.916 271.98 183.916 271.98 184.106V187.106C271.98 187.386 271.98 187.346 271.75 187.416L270.75 187.666C270.56 187.666 270.56 187.666 270.56 187.906V189.126C270.56 189.346 270.56 189.346 270.34 189.396L269.54 189.576C269.36 189.576 269.36 189.576 269.36 189.816V191.206C269.36 191.456 269.36 191.416 269.14 191.476L268.31 191.666C268.21 191.666 268.15 191.666 268.16 191.836C268.165 191.892 268.165 191.949 268.16 192.006V201.436C268.155 201.509 268.155 201.582 268.16 201.656C268.16 201.746 268.16 201.776 268.04 201.766C267.92 201.756 267.94 201.716 267.94 201.656V200.776C267.94 200.686 267.94 200.646 267.81 200.646H267.67C265.48 200.646 263.3 200.646 261.11 200.646C260.81 200.646 260.84 200.596 260.84 200.916V201.866C260.84 202.056 260.84 202.056 260.65 202.056H259.65C259.531 202.056 259.414 202.087 259.31 202.146L258.16 202.786C258.143 202.803 258.123 202.816 258.1 202.825C258.078 202.833 258.054 202.837 258.03 202.836C258.03 202.916 257.92 202.926 257.86 202.956C257.634 203.102 257.401 203.236 257.16 203.356C257.074 203.389 257.002 203.451 256.957 203.531C256.911 203.611 256.895 203.705 256.91 203.796V213.586C256.915 213.609 256.915 213.633 256.91 213.656V221.656H293.54V210.786H290.37Z" fill="#4A4C4C"/>
<path d="M1440 221H0V243H1440V221Z" fill="#040707"/>
<path d="M374.281 221.176H452.281V220.596H450.071C450.071 220.596 449.981 220.506 449.951 220.466L449.841 220.336L449.581 220.056H448.901C448.711 220.066 448.521 220.066 448.331 220.056L448.061 220.006C447.991 220.006 447.941 219.916 447.881 219.906C447.842 219.896 447.801 219.896 447.761 219.906C447.573 219.928 447.386 219.962 447.201 220.006C446.969 220.072 446.723 220.072 446.491 220.006L446.161 219.866C446.006 219.81 445.845 219.77 445.681 219.746C445.521 219.746 445.491 219.746 445.251 219.746H444.641C444.389 219.73 444.138 219.693 443.891 219.636C443.6 219.591 443.303 219.591 443.011 219.636H442.841C442.419 219.676 441.994 219.676 441.571 219.636C441.211 219.636 440.881 219.546 440.571 219.516C440.193 219.476 439.812 219.456 439.431 219.456C439.097 219.443 438.762 219.459 438.431 219.506C438.1 219.55 437.765 219.567 437.431 219.556C437.171 219.556 436.911 219.556 436.651 219.556C436.391 219.556 436.171 219.556 435.931 219.556H435.881H435.821C435.638 219.485 435.447 219.438 435.251 219.416C435.018 219.366 434.78 219.345 434.541 219.356L433.961 219.406H433.531H433.011C432.678 219.387 432.344 219.387 432.011 219.406L431.421 219.476C431.071 219.476 430.711 219.526 430.361 219.546H430.031C429.915 219.556 429.798 219.556 429.681 219.546H429.501C429.227 219.499 428.95 219.472 428.671 219.466C428.111 219.466 427.571 219.536 427.021 219.566C426.876 219.581 426.732 219.608 426.591 219.646L426.121 219.756C425.909 219.792 425.699 219.838 425.491 219.896C425.271 219.946 425.131 220.056 424.891 220.096C424.58 220.146 424.266 220.179 423.951 220.196L422.951 220.296C422.835 220.306 422.718 220.306 422.601 220.296H422.371H422.291H422.171C422.039 220.271 421.903 220.271 421.771 220.296C421.771 220.296 421.701 220.296 421.661 220.296C421.618 220.306 421.574 220.306 421.531 220.296C421.448 220.263 421.355 220.263 421.271 220.296C421.158 220.307 421.044 220.307 420.931 220.296C420.888 220.301 420.844 220.301 420.801 220.296C420.736 220.28 420.667 220.28 420.601 220.296C420.528 220.301 420.455 220.301 420.381 220.296H420.161H419.941C419.841 220.296 419.721 220.296 419.631 220.296C419.572 220.307 419.511 220.307 419.451 220.296H419.211C418.961 220.296 418.721 220.366 418.481 220.396C418.129 220.436 417.773 220.436 417.421 220.396H417.311C417.216 220.396 417.121 220.413 417.031 220.446C416.905 220.435 416.778 220.435 416.651 220.446H416.451C416.378 220.456 416.304 220.456 416.231 220.446H415.981L415.421 220.506H415.361C415.312 220.513 415.261 220.513 415.211 220.506C415.141 220.477 415.067 220.461 414.991 220.456H414.671L414.341 220.386C414.226 220.361 414.107 220.361 413.991 220.386H413.911C413.869 220.396 413.824 220.396 413.781 220.386C413.593 220.33 413.397 220.306 413.201 220.316H413.111H413.031L412.611 220.186H412.541H412.461C412.325 220.196 412.188 220.196 412.051 220.186C411.922 220.169 411.791 220.169 411.661 220.186L411.521 220.116H411.471H411.091H411.041C410.912 220.138 410.78 220.138 410.651 220.116H410.161C410.161 220.116 410.161 220.116 410.111 220.116C410.036 220.134 409.957 220.134 409.881 220.116C409.798 220.131 409.719 220.165 409.651 220.216H409.601H409.391H409.341C409.341 220.216 409.341 220.266 409.341 220.276H408.951H408.881L408.751 220.216C408.739 220.21 408.725 220.207 408.711 220.207C408.698 220.207 408.684 220.21 408.671 220.216H408.581C408.425 220.226 408.268 220.226 408.111 220.216C408.027 220.201 407.949 220.159 407.891 220.096H407.821L407.171 220.026L407.021 220.096H406.761L406.171 220.146C406.164 220.168 406.152 220.188 406.137 220.205C406.121 220.222 406.102 220.236 406.081 220.246H406.001L405.721 220.326C405.662 220.355 405.605 220.388 405.551 220.426L405.181 220.326C405.049 220.304 404.914 220.304 404.781 220.326C404.638 220.341 404.494 220.341 404.351 220.326C404.259 220.299 404.166 220.279 404.071 220.266H403.331C403.181 220.266 402.951 220.266 402.861 220.216C402.771 220.166 402.811 220.156 402.761 220.126C402.661 220.068 402.547 220.037 402.431 220.036H402.031H401.831C401.768 220.017 401.707 219.99 401.651 219.956L401.411 219.806H401.361H401.271C401.131 219.806 400.991 219.806 400.861 219.806C400.763 219.796 400.665 219.776 400.571 219.746C400.388 219.684 400.201 219.634 400.011 219.596C399.851 219.596 399.681 219.596 399.511 219.596H399.421H399.341L398.821 219.406H398.681H398.111C397.777 219.408 397.443 219.388 397.111 219.346C396.818 219.326 396.524 219.326 396.231 219.346H396.051H395.941L395.651 219.236L395.441 219.166C395.318 219.156 395.194 219.156 395.071 219.166H393.381C393.291 219.168 393.203 219.188 393.121 219.226C393.053 219.264 392.978 219.291 392.901 219.306C392.69 219.305 392.48 219.288 392.271 219.256C392.071 219.256 391.901 219.166 391.721 219.136H391.611H391.481L390.661 219.246C390.671 219.285 390.671 219.326 390.661 219.366H390.041L389.601 219.486C389.498 219.497 389.394 219.497 389.291 219.486H388.991H388.731C388.672 219.494 388.615 219.51 388.561 219.536C388.561 219.536 388.561 219.606 388.441 219.616H388.361H387.881H387.681L387.351 219.666L387.091 219.716H386.781H386.081C386.038 219.65 385.991 219.587 385.941 219.526C385.941 219.466 385.791 219.446 385.681 219.426L385.391 219.346H385.241H385.131H384.641C384.499 219.325 384.354 219.325 384.211 219.346C384.162 219.362 384.118 219.389 384.081 219.426L383.981 219.506H383.251H383.091C382.901 219.506 382.721 219.566 382.531 219.576C382.341 219.586 382.121 219.576 381.921 219.576H381.831H381.741L381.201 219.406H381.101H380.101C379.961 219.466 379.831 219.536 379.821 219.626C379.699 219.605 379.574 219.605 379.451 219.626C379.331 219.626 379.231 219.696 379.111 219.716H378.901C378.831 219.716 378.801 219.806 378.671 219.796H378.481C378.445 219.79 378.408 219.79 378.371 219.796L378.151 219.876C377.907 219.91 377.668 219.977 377.441 220.076C377.401 220.081 377.361 220.081 377.321 220.076C377.255 220.081 377.188 220.081 377.121 220.076H377.031H376.981C376.819 220.136 376.651 220.182 376.481 220.216H376.121C376.048 220.224 375.977 220.244 375.911 220.276L375.531 220.376C375.445 220.371 375.358 220.371 375.271 220.376C375.254 220.377 375.238 220.383 375.225 220.393C375.211 220.403 375.201 220.416 375.195 220.432C375.188 220.448 375.187 220.465 375.19 220.481C375.192 220.498 375.2 220.513 375.211 220.526H374.811C374.712 220.534 374.617 220.565 374.531 220.616L374.281 221.176Z" fill="#040707"/>
<path d="M449.68 221.176H527.68V220.596H525.48C525.48 220.596 525.4 220.506 525.37 220.466C525.328 220.427 525.291 220.383 525.26 220.336L525 220.056C524.992 220.052 524.983 220.05 524.975 220.05C524.966 220.05 524.957 220.052 524.95 220.056H524.27C524.08 220.066 523.89 220.066 523.7 220.056L523.43 220.006C523.36 220.006 523.32 219.916 523.25 219.906C523.21 219.895 523.169 219.895 523.13 219.906C522.941 219.928 522.754 219.962 522.57 220.006C522.341 220.071 522.098 220.071 521.87 220.006L521.54 219.866C521.38 219.811 521.216 219.771 521.05 219.746C520.9 219.746 520.86 219.746 520.62 219.746H520.02C519.764 219.729 519.51 219.693 519.26 219.636C518.968 219.591 518.671 219.591 518.38 219.636H518.21C517.791 219.676 517.369 219.676 516.95 219.636C516.59 219.636 516.26 219.546 515.95 219.516C515.574 219.475 515.197 219.455 514.82 219.456C514.486 219.443 514.151 219.46 513.82 219.506C513.488 219.55 513.154 219.567 512.82 219.556C512.57 219.556 512.31 219.556 512.05 219.556C511.79 219.556 511.56 219.556 511.32 219.556H511.27H511.22C511.033 219.483 510.838 219.436 510.64 219.416C510.407 219.365 510.168 219.345 509.93 219.356L509.36 219.406H508.92H508.4C508.067 219.387 507.733 219.387 507.4 219.406L506.8 219.476C506.46 219.476 506.1 219.526 505.74 219.546H505.42C505.3 219.556 505.179 219.556 505.06 219.546H504.88C504.605 219.498 504.328 219.471 504.05 219.466C503.49 219.466 502.95 219.536 502.4 219.566C502.258 219.581 502.117 219.608 501.98 219.646L501.5 219.756C501.287 219.792 501.077 219.838 500.87 219.896C500.66 219.946 500.51 220.056 500.28 220.096C500.05 220.136 499.64 220.166 499.34 220.196L498.34 220.296C498.22 220.306 498.099 220.306 497.98 220.296H497.76H497.68H497.56C497.428 220.271 497.292 220.271 497.16 220.296C497.16 220.296 497.09 220.296 497.05 220.296C497.007 220.305 496.963 220.305 496.92 220.296C496.836 220.264 496.743 220.264 496.66 220.296C496.543 220.306 496.426 220.306 496.31 220.296C496.27 220.301 496.229 220.301 496.19 220.296C496.124 220.28 496.055 220.28 495.99 220.296C495.913 220.301 495.836 220.301 495.76 220.296H495.54H495.32C495.22 220.296 495.11 220.296 495.02 220.296C494.96 220.306 494.899 220.306 494.84 220.296H494.61C494.35 220.296 494.12 220.366 493.87 220.396C493.521 220.436 493.169 220.436 492.82 220.396H492.7C492.604 220.397 492.51 220.414 492.42 220.446C492.297 220.435 492.173 220.435 492.05 220.446H491.84C491.77 220.456 491.699 220.456 491.63 220.446C491.543 220.44 491.456 220.44 491.37 220.446L490.48 220.656C490.41 220.656 490.37 220.656 490.32 220.656C490.249 220.627 490.175 220.61 490.1 220.606H489.79L489.46 220.536C489.341 220.511 489.218 220.511 489.1 220.536H489.02C488.977 220.546 488.932 220.546 488.89 220.536C488.705 220.481 488.512 220.457 488.32 220.466H488.22H488.14L487.73 220.336H487.65H487.58C487.44 220.345 487.299 220.345 487.16 220.336C487.03 220.32 486.899 220.32 486.77 220.336L486.63 220.266H486.25H486.19C486.064 220.288 485.935 220.288 485.81 220.266H485.32C485.244 220.283 485.165 220.283 485.09 220.266C485.006 220.281 484.928 220.315 484.86 220.366H484.8H484.59C484.59 220.366 484.59 220.416 484.59 220.426H484.21H484.13L484.01 220.366C483.984 220.357 483.956 220.357 483.93 220.366H483.84C483.683 220.376 483.526 220.376 483.37 220.366C483.282 220.351 483.202 220.309 483.14 220.246H483.07L482.42 220.176L482.27 220.246H482.01L481.43 220.296C481.41 220.341 481.375 220.376 481.33 220.396H481.25L480.98 220.476C480.917 220.505 480.857 220.538 480.8 220.576L480.44 220.476C480.307 220.455 480.172 220.455 480.04 220.476C479.897 220.491 479.753 220.491 479.61 220.476C479.517 220.451 479.424 220.431 479.33 220.416H478.58C478.43 220.416 478.21 220.416 478.12 220.366C478.03 220.316 478.06 220.306 478.02 220.276C477.915 220.218 477.799 220.187 477.68 220.186H477.28H477.09C477.026 220.169 476.965 220.142 476.91 220.106L476.67 219.956H476.61H476.52C476.39 219.956 476.25 219.956 476.12 219.956C476.018 219.947 475.917 219.927 475.82 219.896C475.637 219.831 475.45 219.781 475.26 219.746C475.1 219.746 474.93 219.746 474.77 219.746H474.68H474.6L474.07 219.556H473.94H473.36C473.025 219.558 472.691 219.538 472.36 219.496C472.067 219.475 471.773 219.475 471.48 219.496H471.3H471.2L470.9 219.386L470.69 219.316C470.567 219.305 470.443 219.305 470.32 219.316H469.05C468.956 219.317 468.865 219.337 468.78 219.376C468.711 219.414 468.637 219.441 468.56 219.456C468.349 219.454 468.138 219.438 467.93 219.406C467.74 219.406 467.57 219.316 467.38 219.286H467.27H467.16L466.34 219.396C466.35 219.435 466.35 219.476 466.34 219.516H465.73L465.28 219.636C465.18 219.647 465.079 219.647 464.98 219.636H464.68H464.42L464.24 219.686C464.24 219.686 464.19 219.756 464.13 219.766H464.04H463.57H463.36L463.04 219.816L462.77 219.866H462.47H461.76C461.72 219.8 461.676 219.737 461.63 219.676C461.63 219.616 461.48 219.596 461.37 219.576L461.08 219.496H460.93H460.82H460.32C460.177 219.475 460.032 219.475 459.89 219.496C459.842 219.514 459.798 219.541 459.76 219.576L459.66 219.656H458.48H458.31C458.12 219.656 457.94 219.716 457.75 219.726C457.56 219.736 457.35 219.726 457.14 219.726H457.05H456.97L456.48 219.656H456.38H455.38C455.24 219.716 455.11 219.786 455.11 219.876C454.984 219.855 454.856 219.855 454.73 219.876L454.4 219.966H454.19C454.12 219.966 454.08 220.056 453.96 220.046H453.89C453.85 220.039 453.809 220.039 453.77 220.046L453.55 220.126C453.305 220.161 453.067 220.228 452.84 220.326C452.8 220.333 452.759 220.333 452.72 220.326C452.653 220.331 452.586 220.331 452.52 220.326H452.48H452.42C452.261 220.387 452.097 220.434 451.93 220.466H451.48C451.407 220.475 451.336 220.495 451.27 220.526L450.9 220.626C450.81 220.62 450.72 220.62 450.63 220.626C450.614 220.628 450.599 220.636 450.587 220.646C450.574 220.657 450.565 220.67 450.56 220.686C450.555 220.701 450.554 220.718 450.558 220.733C450.561 220.749 450.569 220.764 450.58 220.776H450.18C450.078 220.784 449.979 220.815 449.89 220.866L449.68 221.176Z" fill="#040707"/>
<path d="M527.66 221.176H605.66V220.596H603.45C603.45 220.596 603.36 220.506 603.33 220.466L603.22 220.336L602.96 220.056H602.28C602.087 220.066 601.893 220.066 601.7 220.056L601.43 220.006C601.36 220.006 601.32 219.916 601.25 219.906C601.214 219.895 601.176 219.895 601.14 219.906C600.952 219.928 600.765 219.961 600.58 220.006C600.348 220.072 600.102 220.072 599.87 220.006L599.54 219.866C599.384 219.811 599.223 219.771 599.06 219.746C598.9 219.746 598.87 219.746 598.63 219.746H598.02C597.768 219.73 597.517 219.693 597.27 219.636C596.975 219.591 596.675 219.591 596.38 219.636H596.22C595.798 219.676 595.373 219.676 594.95 219.636C594.59 219.636 594.26 219.546 593.95 219.516C593.575 219.475 593.198 219.455 592.82 219.456C592.486 219.443 592.151 219.46 591.82 219.506C591.489 219.551 591.154 219.567 590.82 219.556C590.56 219.556 590.3 219.556 590.04 219.556C589.78 219.556 589.55 219.556 589.32 219.556H589.26H589.21C589.027 219.484 588.835 219.437 588.64 219.416C588.407 219.365 588.168 219.345 587.93 219.356L587.35 219.406H586.92H586.4C586.067 219.387 585.733 219.387 585.4 219.406L584.81 219.476C584.46 219.476 584.1 219.526 583.74 219.546H583.42C583.304 219.556 583.187 219.556 583.07 219.546H582.89C582.616 219.499 582.338 219.472 582.06 219.466C581.5 219.466 580.95 219.536 580.4 219.566C580.258 219.581 580.118 219.608 579.98 219.646L579.51 219.756C579.298 219.791 579.087 219.837 578.88 219.896C578.66 219.946 578.51 220.056 578.28 220.096C577.969 220.145 577.655 220.179 577.34 220.196L576.34 220.296C576.224 220.306 576.107 220.306 575.99 220.296H575.48H575.4H575.28C575.148 220.271 575.012 220.271 574.88 220.296C574.88 220.296 574.81 220.296 574.77 220.296C574.727 220.305 574.683 220.305 574.64 220.296C574.556 220.263 574.464 220.263 574.38 220.296C574.264 220.307 574.147 220.307 574.03 220.296C573.99 220.301 573.95 220.301 573.91 220.296C573.844 220.28 573.776 220.28 573.71 220.296C573.634 220.301 573.557 220.301 573.48 220.296H573.27H573.05C572.94 220.296 572.83 220.296 572.74 220.296C572.681 220.306 572.62 220.306 572.56 220.296H572.33C572.07 220.296 571.84 220.366 571.59 220.396C571.258 220.432 570.922 220.432 570.59 220.396H570.48C570.381 220.396 570.283 220.413 570.19 220.446C570.067 220.435 569.943 220.435 569.82 220.446H569.61C569.541 220.456 569.47 220.456 569.4 220.446C569.317 220.44 569.233 220.44 569.15 220.446L568.48 220.656C568.41 220.656 568.37 220.656 568.33 220.656C568.256 220.629 568.179 220.612 568.1 220.606H567.79L567.46 220.536C567.345 220.511 567.226 220.511 567.11 220.536H567.03C566.987 220.546 566.943 220.546 566.9 220.536C566.712 220.48 566.516 220.456 566.32 220.466H566.22H566.14L565.73 220.336H565.66H565.58C565.444 220.346 565.307 220.346 565.17 220.336C565.041 220.319 564.91 220.319 564.78 220.336L564.64 220.266H564.59H564.21C564.081 220.287 563.949 220.287 563.82 220.266H563.33C563.255 220.284 563.176 220.284 563.1 220.266C563.017 220.281 562.938 220.315 562.87 220.366H562.81H562.61H562.56C562.56 220.366 562.56 220.416 562.56 220.426H562.18H562.1L561.98 220.366C561.954 220.356 561.926 220.356 561.9 220.366H561.81C561.654 220.376 561.497 220.376 561.34 220.366C561.255 220.354 561.176 220.311 561.12 220.246H561.06L560.41 220.176L560.25 220.246H560L559.41 220.296C559.392 220.338 559.36 220.373 559.32 220.396H559.24L558.96 220.476C558.901 220.505 558.844 220.538 558.79 220.576L558.43 220.476C558.298 220.455 558.163 220.455 558.03 220.476C557.887 220.491 557.743 220.491 557.6 220.476C557.508 220.451 557.414 220.431 557.32 220.416H556.58C556.42 220.416 556.2 220.416 556.11 220.366L556.01 220.276C555.909 220.22 555.796 220.189 555.68 220.186H555.28H555.08C555.016 220.169 554.955 220.142 554.9 220.106L554.66 219.956H554.6H554.52C554.38 219.956 554.24 219.956 554.11 219.956C554.011 219.948 553.914 219.928 553.82 219.896C553.637 219.834 553.45 219.784 553.26 219.746C553.1 219.746 552.93 219.746 552.76 219.746H552.67H552.59L552.06 219.556H551.93H551.35C551.033 219.556 550.715 219.536 550.4 219.496C550.107 219.475 549.813 219.475 549.52 219.496H549.33H549.23L548.94 219.386L548.73 219.316C548.604 219.305 548.477 219.305 548.35 219.316H547.08C546.987 219.319 546.896 219.339 546.81 219.376C546.743 219.418 546.668 219.445 546.59 219.456C546.379 219.454 546.169 219.438 545.96 219.406C545.77 219.406 545.6 219.316 545.41 219.286H545.31H545.19L544.37 219.396C544.375 219.435 544.375 219.476 544.37 219.516H543.75L543.31 219.636C543.207 219.647 543.103 219.647 543 219.636H542.7H542.44C542.381 219.642 542.323 219.659 542.27 219.686C542.27 219.686 542.27 219.756 542.15 219.766H542.07H541.59H541.39L541.06 219.816L540.79 219.866H540.49H539.79C539.75 219.8 539.707 219.737 539.66 219.676C539.66 219.616 539.51 219.596 539.4 219.576L539.11 219.496H538.96H538.85H538.36C538.218 219.475 538.073 219.475 537.93 219.496C537.881 219.511 537.836 219.539 537.8 219.576L537.69 219.656H536.48H536.31C536.13 219.656 535.95 219.716 535.76 219.726C535.57 219.736 535.35 219.726 535.15 219.726H535.06H534.97L534.42 219.556H534.33H533.33C533.19 219.616 533.05 219.686 533.05 219.776C532.928 219.755 532.803 219.755 532.68 219.776C532.56 219.776 532.46 219.846 532.34 219.866H532.13C532.06 219.866 532.02 219.956 531.9 219.946H531.83C531.794 219.939 531.756 219.939 531.72 219.946L531.5 220.026C531.253 220.061 531.011 220.128 530.78 220.226C530.744 220.233 530.706 220.233 530.67 220.226C530.6 220.231 530.53 220.231 530.46 220.226H530.38H530.32C530.161 220.287 529.997 220.334 529.83 220.366H529.48C529.407 220.374 529.336 220.394 529.27 220.426L528.89 220.526C528.804 220.521 528.717 220.521 528.63 220.526C528.613 220.527 528.597 220.533 528.584 220.543C528.57 220.553 528.56 220.566 528.553 220.582C528.547 220.598 528.545 220.615 528.548 220.631C528.551 220.648 528.559 220.663 528.57 220.676H528.17C528.068 220.686 527.97 220.716 527.88 220.766L527.66 221.176Z" fill="#040707"/>
<path d="M314.13 222.346C313.89 222.346 313.13 221.546 312.98 221.426C310.504 219.388 307.687 217.804 304.66 216.746C302.295 215.972 299.802 215.663 297.32 215.836C294.963 216.169 292.626 216.633 290.32 217.226C286.931 217.892 283.422 217.544 280.23 216.226C276.79 214.916 273.68 213.286 270.23 212.016C267.115 210.796 263.783 210.228 260.44 210.346C257.357 210.622 254.356 211.488 251.6 212.896C248.98 214.146 246.55 215.576 243.72 216.616C241.372 217.508 238.881 217.962 236.37 217.956C233.64 217.956 231.2 217.066 228.55 216.766C226.252 216.529 223.931 216.873 221.8 217.766C220.08 218.456 218.68 219.506 216.92 220.146C215.92 220.506 213.92 220.686 213.92 221.626V222.346H314.13Z" fill="#040707"/>
<path d="M444.651 222.346C444.311 222.346 443.211 221.186 442.981 221.006C439.372 218.02 435.257 215.707 430.831 214.176C427.379 213.034 423.737 212.582 420.111 212.846C416.581 213.136 413.341 214.206 409.931 214.846C404.993 215.822 399.877 215.335 395.211 213.446C390.211 211.526 385.631 209.146 380.561 207.286C376.011 205.503 371.144 204.676 366.261 204.856C361.752 205.274 357.367 206.564 353.351 208.656C349.521 210.476 345.981 212.556 341.841 214.086C338.417 215.406 334.78 216.084 331.111 216.086C327.111 216.006 323.571 214.786 319.691 214.346C316.343 213.986 312.958 214.464 309.841 215.736C307.331 216.736 305.281 218.296 302.711 219.216C301.261 219.736 298.381 220.016 298.381 221.386V222.436L444.651 222.346Z" fill="#040707"/>
<path d="M861.791 222.446C861.541 222.446 860.731 221.586 860.561 221.446C857.906 219.26 854.882 217.566 851.631 216.446C849.091 215.602 846.411 215.262 843.741 215.446C841.218 215.804 838.718 216.301 836.251 216.936C832.624 217.672 828.861 217.324 825.431 215.936C821.731 214.536 818.431 212.776 814.651 211.416C811.46 210.062 808.006 209.444 804.544 209.606C801.081 209.769 797.7 210.709 794.651 212.356C791.841 213.696 789.231 215.236 786.191 216.356C783.67 217.313 780.996 217.801 778.301 217.796C775.361 217.736 772.751 216.796 769.901 216.516C767.442 216.238 764.952 216.582 762.661 217.516C760.811 218.256 759.301 219.386 757.411 220.066C756.341 220.456 754.221 220.656 754.221 221.666V222.436L861.791 222.446Z" fill="#040707"/>
<path d="M573.27 222.446C573.01 222.446 572.2 221.586 572.03 221.446C569.377 219.258 566.352 217.564 563.1 216.446C560.563 215.602 557.886 215.262 555.22 215.446C552.697 215.803 550.197 216.3 547.73 216.936C544.1 217.673 540.333 217.325 536.9 215.936C533.2 214.536 529.9 212.776 526.12 211.416C522.93 210.06 519.475 209.44 516.012 209.603C512.55 209.766 509.169 210.707 506.12 212.356C503.3 213.696 500.69 215.236 497.65 216.356C495.129 217.313 492.455 217.801 489.76 217.796C486.83 217.736 484.21 216.796 481.36 216.516C478.901 216.239 476.411 216.582 474.12 217.516C472.27 218.256 470.76 219.386 468.87 220.066C467.81 220.456 465.68 220.656 465.68 221.666V222.436L573.27 222.446Z" fill="#040707"/>
<path d="M1185.48 189.566C1185.48 191.371 1185.11 193.156 1184.38 194.807C1183.65 196.457 1182.58 197.936 1181.24 199.146L1181.12 199.016L1164.48 179.436C1166.39 177.942 1168.69 177.014 1171.1 176.756C1173.51 176.498 1175.95 176.921 1178.13 177.976C1180.32 179.031 1182.17 180.677 1183.46 182.727C1184.76 184.777 1185.46 187.149 1185.48 189.576V189.566Z" fill="#FFAE00"/>
<path d="M1048.62 221.256H1081.67L1092.63 169.566L1048.62 221.256Z" fill="#040707"/>
<path d="M1113.53 191.846L1094.17 169.116L1083.11 221.256H1088.49H1132.95L1133.86 215.726L1143.55 156.596L1113.53 191.846Z" fill="#040707"/>
<path d="M1145.03 156.256L1135.06 217.136L1134.38 221.256H1200.39L1145.03 156.256Z" fill="#040707"/>
</svg>
