<svg width="1440" height="249" viewBox="0 0 1440 249" fill="none" xmlns="http://www.w3.org/2000/svg">
<path d="M962.328 230.017C962.328 229.678 962.468 229.141 962.248 228.843C962.028 228.544 961.328 228.515 961.578 228.007H960.638C960.569 228.022 960.498 228.022 960.428 228.007C960.351 227.957 960.292 227.884 960.258 227.798C960.008 227.341 959.968 226.953 959.398 227.191C959.128 227.311 958.078 227.709 957.848 227.4C957.816 227.341 957.806 227.272 957.821 227.206C957.836 227.141 957.874 227.082 957.928 227.042C956.928 226.714 955.928 227.331 954.868 227.301C954.537 227.249 954.2 227.249 953.868 227.301C953.458 227.447 953.107 227.723 952.868 228.087C952.439 228.742 951.86 229.287 951.178 229.678C950.458 229.92 949.696 230.015 948.938 229.957L946.368 230.027C946.28 230.047 946.187 230.047 946.098 230.027C945.948 229.947 945.908 229.748 945.878 229.579C945.87 229.419 945.825 229.264 945.747 229.125C945.669 228.985 945.56 228.865 945.428 228.773C945.138 228.624 944.718 228.713 944.528 228.455C944.338 228.196 944.528 227.848 944.388 227.579C944.178 227.132 943.388 227.281 943.138 226.843C942.888 226.406 943.268 225.849 942.628 225.849C942.147 225.906 941.663 225.939 941.178 225.948C940.938 225.952 940.701 225.886 940.498 225.757C940.295 225.627 940.135 225.441 940.038 225.222C939.868 224.685 940.278 224.147 940.398 223.6C940.413 223.566 940.421 223.529 940.421 223.491C940.421 223.453 940.413 223.416 940.398 223.382C940.347 223.307 940.274 223.252 940.188 223.222C939.472 222.934 938.819 222.508 938.268 221.969C938.156 221.887 938.066 221.779 938.006 221.654C937.947 221.529 937.92 221.391 937.928 221.253C937.988 220.914 938.368 220.775 938.648 220.586C939.868 219.771 939.338 217.652 937.758 217.851C937.358 217.9 936.868 218.109 936.598 217.851C936.476 217.643 936.414 217.405 936.418 217.164C936.148 215.384 933.918 216.478 932.948 215.632C932.798 215.493 932.668 215.304 932.468 215.244C932.333 215.219 932.194 215.219 932.058 215.244C930.339 215.515 928.599 215.631 926.858 215.592C926.773 215.574 926.684 215.574 926.598 215.592C926.526 215.63 926.462 215.681 926.408 215.742C926.118 216.03 925.408 216.488 925.408 216.916C925.402 217.026 925.419 217.137 925.456 217.241C925.494 217.345 925.553 217.441 925.628 217.522C925.958 217.88 926.258 217.97 926.258 218.517C926.258 218.885 926.448 219.96 926.058 220.178C925.906 220.244 925.744 220.284 925.578 220.298C925.109 220.387 925.398 220.646 925.228 220.875C924.945 221.177 924.569 221.376 924.158 221.442C924.09 221.461 924.017 221.461 923.948 221.442C923.808 221.392 923.768 221.233 923.728 221.094C923.488 220.099 923.208 219.87 922.218 220.019C922.109 220.023 922.003 220.054 921.908 220.109C921.779 220.215 921.69 220.363 921.658 220.527C921.457 221.401 920.941 222.172 920.208 222.695C919.789 222.924 919.378 222.755 919.208 223.232C919.039 223.71 919.448 224.227 918.938 224.466C918.428 224.705 916.598 223.988 916.938 225.242C917.068 225.689 917.548 225.65 917.728 225.968C917.908 226.286 917.548 226.813 918.158 227.062C918.232 227.076 918.299 227.115 918.348 227.172C918.363 227.224 918.363 227.279 918.348 227.331L918.268 228.156C918.279 228.192 918.279 228.23 918.268 228.266C918.268 228.345 918.108 228.326 918.018 228.335C917.928 228.345 917.698 228.684 917.738 228.922C917.778 229.161 918.078 230.096 917.548 230.096C917.018 230.096 915.678 230.424 915.408 229.967C915.328 229.818 915.288 229.639 915.148 229.539C915.008 229.44 914.488 229.639 914.148 229.539C914.028 229.065 913.977 228.576 913.998 228.087C913.741 228.141 913.476 228.141 913.218 228.087C913.088 228.059 912.971 227.989 912.884 227.889C912.798 227.788 912.746 227.662 912.738 227.53C912.738 227.281 912.978 227.042 912.868 226.823C912.815 226.735 912.729 226.671 912.628 226.644C912.373 226.58 912.105 226.578 911.849 226.641C911.592 226.703 911.355 226.828 911.158 227.002C910.763 227.354 910.331 227.661 909.868 227.918C909.766 227.969 909.653 227.996 909.538 227.996C909.424 227.996 909.311 227.969 909.208 227.918C909.039 227.767 908.926 227.564 908.888 227.341C908.568 226.346 907.338 225.57 908.348 224.605C908.466 224.517 908.567 224.409 908.648 224.287C908.692 224.182 908.715 224.071 908.718 223.958C908.735 223.695 908.698 223.431 908.61 223.181C908.523 222.932 908.386 222.702 908.208 222.506C907.839 222.189 907.397 221.965 906.922 221.856C906.446 221.747 905.95 221.755 905.478 221.879C905.373 221.904 905.264 221.904 905.158 221.879C905.079 221.844 905.01 221.789 904.958 221.72C904.711 221.446 904.569 221.094 904.558 220.725C904.578 220.497 904.578 220.267 904.558 220.039C904.388 219.194 903.118 219.711 902.808 218.995C902.783 218.907 902.753 218.821 902.718 218.736C902.548 218.447 902.128 218.507 901.798 218.487C901.486 218.46 901.181 218.375 900.898 218.239C900.204 217.873 899.469 217.589 898.708 217.393C897.898 217.284 897.008 217.343 896.188 217.313C896.097 217.302 896.005 217.323 895.928 217.373C895.885 217.431 895.861 217.5 895.858 217.572C895.799 217.761 895.696 217.934 895.557 218.076C895.418 218.217 895.247 218.324 895.058 218.388C894.487 218.536 893.905 218.646 893.318 218.716C893.016 218.778 892.723 218.882 892.448 219.024C892.198 219.154 891.988 219.432 891.738 219.542C891.488 219.651 891.168 219.412 890.868 219.422C890.568 219.432 890.418 219.81 890.348 220.129C890.26 220.532 890.086 220.912 889.839 221.243C889.626 221.431 889.488 221.689 889.448 221.969C889.448 222.228 889.659 222.427 889.818 222.625C889.978 222.824 890.099 223.123 889.958 223.332C889.897 223.41 889.814 223.469 889.721 223.502C889.627 223.536 889.526 223.542 889.428 223.521C889.228 223.521 889.039 223.421 888.839 223.401C888.638 223.382 888.678 223.401 888.638 223.471C888.598 223.541 888.638 223.62 888.638 223.69C888.798 224.038 889.638 225.361 889.028 225.679C888.928 225.714 888.824 225.734 888.718 225.739C888.568 225.786 888.439 225.883 888.352 226.013C888.264 226.143 888.224 226.299 888.238 226.455C888.284 226.765 888.436 227.05 888.668 227.261C888.868 227.46 889.128 227.679 889.078 227.957C889.029 228.236 888.628 228.375 888.308 228.385C887.248 228.445 887.598 229.111 887.018 229.688C886.878 229.795 886.713 229.865 886.538 229.891C886.363 229.917 886.184 229.898 886.018 229.838C884.428 229.44 884.718 228.057 884.678 226.774C884.583 225.9 884.357 225.045 884.008 224.237C883.852 223.654 883.584 223.107 883.218 222.625C882.896 222.308 882.512 222.061 882.089 221.899C879.936 221.132 877.664 220.752 875.378 220.775C875.138 220.742 874.892 220.759 874.658 220.825C874.305 221.004 874.008 221.276 873.798 221.611C873.379 222.157 872.888 222.646 872.339 223.063C871.912 223.358 871.514 223.691 871.148 224.058C870.738 224.526 870.818 225.053 870.688 225.669C870.532 226.266 870.293 226.839 869.978 227.371C869.95 227.434 869.909 227.492 869.858 227.54C869.598 227.729 869.058 227.45 868.798 227.39C868.736 227.384 868.677 227.36 868.628 227.321C868.593 227.278 868.562 227.231 868.538 227.182L867.888 225.52C867.851 225.417 867.794 225.322 867.718 225.242C867.438 225.003 866.348 225.192 865.988 225.192C865.942 225.182 865.894 225.182 865.848 225.192C865.793 225.227 865.751 225.28 865.728 225.341C865.618 225.56 865.508 225.968 865.278 225.998C865.048 226.028 864.538 225.56 864.368 225.461L862.608 224.466L860.528 223.949C859.82 223.879 859.107 223.879 858.398 223.949C857.42 223.868 856.435 223.959 855.488 224.217C855.129 224.369 854.758 224.493 854.378 224.585C853.481 224.642 852.584 224.475 851.768 224.098C850.83 223.83 849.85 223.739 848.878 223.829C848.723 223.829 848.568 223.849 848.418 223.889C848.108 224.018 847.828 224.211 847.598 224.456C846.963 224.972 846.169 225.256 845.348 225.262C844.516 225.2 843.705 224.966 842.968 224.575C841.132 224.034 839.166 224.126 837.388 224.834C836.868 225.075 836.274 225.11 835.728 224.933C835.271 224.623 834.794 224.344 834.298 224.098C834.092 224.046 833.881 224.019 833.668 224.018C832.896 223.95 832.118 223.967 831.348 224.068C830.424 224.254 829.531 224.572 828.698 225.013C828.598 225.079 828.479 225.11 828.358 225.102C828.264 225.078 828.178 225.03 828.108 224.963C827.918 224.963 827.258 224.277 827.108 224.138C826.969 224.011 826.859 223.858 826.783 223.686C826.707 223.515 826.668 223.33 826.668 223.143C826.668 222.805 826.898 222.486 826.668 222.148C826.367 221.896 825.992 221.746 825.598 221.72C825.158 221.641 824.718 221.601 824.278 221.551C824.073 221.521 823.864 221.521 823.658 221.551C823.068 221.651 822.428 222.397 821.968 222.755H819.698V217.861H821.298L805.738 202.382L787.398 216.667H789.858L789.698 219.213H782.998C781.539 219.115 780.074 219.304 778.688 219.771C777.268 220.308 775.618 221.382 774.058 221.402C772.498 221.422 770.388 220.536 768.728 220.248C762.968 219.253 757.058 219.462 751.218 219.691C747.548 219.83 743.648 219.89 740.088 220.855C737.088 221.69 733.938 224.048 730.638 223.043C729.618 222.66 728.653 222.145 727.768 221.511C724.361 219.54 720.75 217.939 716.998 216.736C713.359 215.352 709.443 214.841 705.568 215.244C702.198 215.672 699.028 217.313 695.858 218.487H692.658C692.658 218.487 692.788 218.965 692.658 218.965H690.488L689.718 217.423L688.858 217.473V216.538H687.998V217.423H687.218V218.507H682.468V217.512H680.888C680.888 217.512 681.108 216.906 680.888 216.906H678.568V216.319L677.688 215.951L676.798 215.553L674.798 216.189V217.184L672.158 217.124V218.507C671.025 218.534 669.89 218.464 668.768 218.298C668.659 218.211 668.562 218.111 668.478 218C667.789 217.107 667.019 216.278 666.178 215.523C666.076 215.421 665.958 215.337 665.828 215.274C665.639 215.208 665.439 215.18 665.238 215.195C664.846 215.183 664.453 215.216 664.068 215.294C663.838 215.344 663.608 215.443 663.368 215.513C662 215.978 660.523 216.023 659.128 215.642C658.18 215.341 657.257 214.965 656.368 214.518C655.475 214.079 654.51 213.799 653.518 213.692C652.158 213.623 651.378 214.289 650.288 214.936C649.684 215.283 648.977 215.41 648.288 215.294L635.008 213.981L625.628 213.066H625.578C623.578 212.867 621.798 211.564 619.978 210.788C618.158 210.012 615.978 209.723 614.718 208.012C614.478 207.694 614.218 207.217 613.818 207.077C613.287 206.943 612.73 206.943 612.198 207.077C612.198 207.077 612.098 207.077 612.078 207.127C612.064 207.165 612.064 207.208 612.078 207.246V208.241C612.098 208.333 612.098 208.428 612.078 208.52C611.838 209.017 610.028 208.649 609.528 208.669C608.927 208.768 608.31 208.695 607.748 208.46C607.188 208.142 606.928 207.525 606.308 207.316C605.634 207.094 604.899 207.14 604.258 207.445C603.068 208.022 602.388 209.435 601.128 209.793C600.708 209.902 600.272 209.943 599.838 209.912C598.991 210.006 598.134 209.97 597.298 209.803C596.688 209.574 596.298 208.898 595.868 208.46C595.078 207.654 593.978 207.873 592.918 207.853H590.818L586.268 207.953C583.716 208.133 581.154 208.15 578.598 208.002C576.598 207.793 574.688 207.286 572.748 206.908C570.808 206.53 568.568 206.082 566.478 205.665C565.281 205.418 564.062 205.288 562.838 205.277H560.048H554.488C553.819 205.254 553.15 205.294 552.488 205.396C551.432 205.669 550.398 206.025 549.398 206.46C548.271 206.854 547.084 207.052 545.888 207.047C545.278 207.049 544.67 206.976 544.078 206.829C543.534 206.623 543.008 206.37 542.508 206.073C541.718 205.685 540.858 205.406 540.048 205.078C539.961 205.042 539.871 205.015 539.778 204.998C539.645 205.005 539.515 205.043 539.398 205.108C538.795 205.273 538.221 205.532 537.698 205.874C537.188 206.102 536.698 206.341 536.158 206.56C535.086 207.106 533.863 207.285 532.678 207.067C532.104 206.9 531.545 206.684 531.008 206.421L528.678 205.336C527.681 204.773 526.564 204.453 525.418 204.401C524.318 204.401 523.348 205.466 522.628 206.232C522.502 206.334 522.405 206.468 522.347 206.62C522.289 206.772 522.272 206.937 522.298 207.097C521.194 207.003 520.083 207.003 518.978 207.097H508.708C507.111 207.097 505.533 207.436 504.078 208.092C502.508 208.798 500.918 209.445 499.318 210.081C499.161 210.164 498.986 210.208 498.808 210.211C498.617 210.186 498.435 210.114 498.278 210.002C497.517 209.65 496.799 209.213 496.138 208.699L493.818 207.316C492.258 206.401 490.688 205.486 489.138 204.56C488.938 204.429 488.719 204.329 488.488 204.262C488.293 204.233 488.094 204.233 487.898 204.262C486.488 204.262 485.068 204.332 483.658 204.312C483.564 204.302 483.469 204.323 483.388 204.371C483.344 204.413 483.31 204.464 483.289 204.521C483.268 204.578 483.261 204.64 483.268 204.7C483.268 204.988 481.548 205.426 481.268 204.929C480.548 204.843 479.822 204.824 479.098 204.869C479.098 204.869 477.588 205.585 477.548 205.585C476.008 205.297 477.318 204.59 475.778 204.222C474.238 203.854 475.598 204.173 474.158 203.904C472.753 203.745 471.334 203.745 469.928 203.904H469.098C468.76 203.941 468.416 203.897 468.098 203.775C467.598 203.546 467.608 202.959 467.448 202.501C464.548 202.322 461.538 202.133 458.758 203.118C458.078 203.367 457.418 203.675 456.758 203.864C455.762 204.05 454.735 204.006 453.758 203.735C452.625 203.576 451.483 203.486 450.338 203.466C448.998 203.466 448.138 204.113 447.018 204.769C445.488 205.655 444.018 206.59 442.468 207.505C441.108 208.502 439.626 209.324 438.058 209.952C437.952 209.992 437.835 209.992 437.728 209.952C437.655 209.886 437.602 209.799 437.578 209.703C437.179 208.513 437.019 207.255 437.108 206.003C437.108 205.824 437.108 205.615 436.958 205.535C436.896 205.521 436.831 205.521 436.768 205.535H434.628C434.529 205.515 434.427 205.515 434.328 205.535C433.848 205.695 434.078 206.739 433.668 206.749C433.258 206.759 431.758 206.64 431.548 207.236C431.272 207.938 431.097 208.675 431.028 209.425C431.029 209.557 431.009 209.687 430.968 209.813C430.93 209.89 430.879 209.961 430.818 210.022C430.658 210.221 429.718 211.623 429.478 211.623C428.848 211.623 427.908 211.862 427.478 211.255C427.11 210.735 426.817 210.166 426.608 209.564C426.577 209.228 426.517 208.895 426.428 208.569C426.248 208.291 425.968 208.569 425.728 208.351C425.656 208.272 425.617 208.169 425.618 208.062C425.618 207.784 425.858 207.018 425.468 207.008C425.078 206.998 424.738 206.928 424.368 206.948C423.698 206.948 423.958 207.276 423.808 207.774C423.777 207.864 423.72 207.944 423.643 208.002C423.567 208.061 423.475 208.095 423.378 208.102C423.186 208.122 422.992 208.101 422.808 208.042C422.88 208.2 422.891 208.378 422.839 208.543C422.788 208.708 422.677 208.848 422.528 208.937C422.452 208.974 422.368 208.993 422.283 208.994C422.198 208.995 422.114 208.977 422.037 208.942C421.96 208.907 421.891 208.855 421.836 208.791C421.781 208.727 421.741 208.651 421.718 208.569C421.709 208.37 421.74 208.17 421.808 207.982C421.808 207.784 421.808 207.535 421.598 207.465C421.388 207.396 421.218 207.535 421.048 207.465C420.878 207.396 420.858 207.097 420.908 206.878H420.178C419.927 206.845 419.672 206.88 419.438 206.978C419.382 207.007 419.333 207.047 419.293 207.096C419.253 207.145 419.224 207.201 419.207 207.262C419.19 207.323 419.186 207.386 419.195 207.449C419.203 207.511 419.225 207.571 419.258 207.624C418.879 207.605 418.498 207.605 418.118 207.624C418.178 207.903 418.168 208.291 417.888 208.351C417.758 208.351 417.478 208.241 417.368 208.351C417.258 208.46 417.368 208.937 417.368 209.077C417.37 209.117 417.363 209.158 417.347 209.196C417.332 209.233 417.308 209.268 417.278 209.296C417.23 209.31 417.177 209.31 417.128 209.296C416.882 209.31 416.635 209.31 416.388 209.296C416.363 209.286 416.334 209.286 416.308 209.296C416.308 209.296 416.308 209.345 416.308 209.375C416.293 209.488 416.252 209.597 416.19 209.693C416.128 209.789 416.046 209.871 415.948 209.932C415.328 210.235 414.637 210.366 413.948 210.31C413.11 210.228 412.283 210.061 411.478 209.813C410.515 209.576 409.53 209.433 408.538 209.385C407.833 209.399 407.128 209.333 406.438 209.186C405.898 209.037 405.438 208.768 404.848 208.649C404.339 208.576 403.824 208.543 403.308 208.55C402.601 208.434 401.902 208.268 401.218 208.052C400.838 207.982 400.218 208.052 400.128 207.575C400.128 207.445 400.128 207.286 399.988 207.197C399.934 207.172 399.874 207.159 399.813 207.159C399.753 207.159 399.693 207.172 399.638 207.197L396.288 207.793C396.136 207.815 395.988 207.859 395.848 207.923C395.667 208.036 395.507 208.181 395.378 208.351C394.864 208.945 394.248 209.443 393.558 209.823C392.883 210.139 392.237 210.516 391.628 210.947C390.488 211.882 389.628 213.155 388.208 213.792C386.058 214.787 383.568 214.021 381.408 214.926C380.683 215.36 380.012 215.878 379.408 216.468L376.638 218.597C376.427 218.771 376.199 218.924 375.958 219.054C375.131 219.277 374.265 219.322 373.418 219.184H372.168C371.708 219.184 371.098 218.985 370.708 219.323C370.318 219.661 370.268 220.546 370.108 221.064L369.348 223.461C369.314 223.607 369.253 223.745 369.168 223.869C369.041 224.003 368.888 224.111 368.718 224.187L366.718 225.182C365.718 225.669 365.718 226.903 365.488 227.868C365.408 228.216 365.488 228.813 365.178 229.072C364.868 229.33 362.978 228.853 362.488 228.773C361.838 228.684 361.558 229.042 361.038 229.34C360.518 229.639 360.088 229.907 359.618 230.216C358.888 230.693 358.178 231.21 357.498 231.728C357.118 232.016 356.928 232.086 356.888 232.533C356.848 232.981 357.038 233.439 357.038 233.886C357.038 234.334 357.348 235.239 357.108 235.448C356.868 235.657 355.658 235.528 355.318 235.548L353.528 235.657C353.279 235.654 353.032 235.698 352.798 235.786C352.428 235.945 352.198 236.473 351.958 236.781L351.068 237.975L349.898 239.537H962.328V230.017Z" fill="#4A4C4C"/>
<path d="M529.27 229.847H344V228.017L346.8 227.689L348.27 226.774H349.8L352.23 225.848L354.23 225.451L356.02 225.063L356.97 225.421L360.55 225.063L361.55 223.381H364.68L367.23 222.576L371.23 222.884L372.57 221.73L376.84 221.273C376.84 221.273 378.18 221.471 378.18 221.273C378.321 220.936 378.51 220.621 378.74 220.337H381.74L382.62 219.76L384.47 218.766L387.03 219.154L387.86 218.766H390.09C390.741 218.944 391.421 218.991 392.09 218.905L393.57 219.044L394.97 218.487L396.12 218.646L397.21 218.855L398.99 218.258L400.4 218.308H400.54C402.33 217.97 404.05 217.492 405.77 217.104L409.63 216.219C410.707 215.912 411.82 215.741 412.94 215.712C414.09 215.712 415.23 215.712 416.36 215.821C417.356 215.927 418.361 215.944 419.36 215.871C420.06 215.801 420.72 215.672 421.36 215.582C424.245 215.268 427.152 215.188 430.05 215.344C430.22 215.513 430.21 215.752 430.71 215.841C431.043 215.869 431.377 215.869 431.71 215.841H432.54C433.93 215.841 435.23 216.329 436.6 216.428C437.97 216.527 439.66 216.09 441.1 216.209C442.54 216.329 441.41 215.523 442.96 215.632C442.96 215.632 443.83 216.07 443.87 216.07C444.211 215.982 444.546 215.869 444.87 215.732C445.53 215.543 445.87 215.861 445.87 215.732C445.87 215.602 446.04 215.901 446.13 215.871C446.22 215.841 446.13 216.01 446.25 216.01H450.48C450.676 215.995 450.874 215.995 451.07 216.01C451.289 216.034 451.507 216.074 451.72 216.13L456.4 217.204L457.84 218.437L460.56 219.054L463.11 218.656L467.79 219.273V220.129L469.33 220.437C469.58 220.437 476.05 220.437 476.05 220.437L477.16 221.223L480.05 221.442L482.69 222.625L485.07 222.277L488.07 223.063H490.71L493.09 223.511L493.77 224.506L496.84 224.287L500.67 225.52L501.18 226.087L503.81 225.779L507.05 226.575L507.64 227.181H512.07L512.5 228.236L516.5 228.723H519.13V228.087L521.26 228.266L522.45 228.873H525.18L529.27 229.847Z" fill="#040707"/>
<path d="M799.341 222.208V232.573H475.891V228.594C475.891 228.445 475.811 228.216 475.891 228.097C475.971 227.978 476.401 227.948 476.271 227.739H476.791C476.827 227.749 476.865 227.749 476.901 227.739C476.922 227.733 476.942 227.723 476.959 227.709C476.977 227.696 476.991 227.679 477.001 227.659C477.141 227.47 477.161 227.311 477.481 227.411C477.631 227.411 478.211 227.629 478.341 227.49C478.352 227.481 478.36 227.469 478.366 227.457C478.372 227.444 478.375 227.43 478.375 227.416C478.375 227.401 478.372 227.388 478.366 227.375C478.36 227.362 478.352 227.35 478.341 227.341C478.91 227.314 479.48 227.351 480.041 227.45C480.234 227.43 480.428 227.43 480.621 227.45C480.826 227.506 481.01 227.62 481.151 227.779C481.41 228.071 481.731 228.302 482.091 228.455C482.5 228.555 482.921 228.595 483.341 228.574H484.771H484.921C484.953 228.553 484.98 228.525 485.001 228.492C485.022 228.46 485.035 228.424 485.041 228.385C485.049 228.312 485.076 228.242 485.12 228.183C485.164 228.123 485.223 228.077 485.291 228.047C485.451 227.978 485.691 228.047 485.791 227.908C485.891 227.769 485.791 227.659 485.871 227.53C485.951 227.401 486.441 227.421 486.571 227.232C486.701 227.043 486.491 226.814 486.851 226.814C487.211 226.814 487.391 226.873 487.661 226.814C487.785 226.816 487.908 226.787 488.018 226.73C488.128 226.672 488.222 226.588 488.291 226.485C488.381 226.277 488.161 226.048 488.091 225.819C488.084 225.805 488.08 225.79 488.08 225.774C488.08 225.759 488.084 225.743 488.091 225.729C488.104 225.71 488.122 225.693 488.143 225.681C488.164 225.669 488.187 225.662 488.211 225.66C488.593 225.547 488.951 225.369 489.271 225.133C489.381 225.053 489.491 224.944 489.461 224.834C489.431 224.725 489.221 224.625 489.061 224.556C488.381 224.197 488.681 223.322 489.551 223.402C489.781 223.402 490.051 223.501 490.201 223.402C490.351 223.302 490.281 223.203 490.301 223.113C490.461 222.367 491.691 222.825 492.231 222.457C492.312 222.392 492.403 222.341 492.501 222.307C492.576 222.287 492.656 222.287 492.731 222.307C493.691 222.414 494.656 222.46 495.621 222.447C495.671 222.437 495.721 222.437 495.771 222.447C495.771 222.447 495.841 222.447 495.871 222.496C495.901 222.546 496.431 222.825 496.451 222.994C496.458 223.045 496.451 223.098 496.43 223.145C496.408 223.193 496.374 223.233 496.331 223.262C496.151 223.412 495.981 223.441 495.981 223.67C495.981 223.899 495.871 224.277 496.091 224.377C496.181 224.387 496.271 224.387 496.361 224.377C496.621 224.377 496.461 224.526 496.561 224.625C496.733 224.756 496.936 224.838 497.151 224.864C497.19 224.874 497.232 224.874 497.271 224.864C497.302 224.851 497.329 224.831 497.35 224.805C497.371 224.779 497.385 224.748 497.391 224.715C497.531 224.287 497.681 224.198 498.231 224.267C498.287 224.257 498.345 224.257 498.401 224.267C498.469 224.307 498.519 224.371 498.541 224.446C498.682 224.841 498.973 225.166 499.351 225.351C499.591 225.451 499.811 225.351 499.921 225.58C500.031 225.809 499.791 225.988 500.071 226.098C500.351 226.207 501.371 225.889 501.161 226.426C501.081 226.615 500.821 226.595 500.721 226.734C500.621 226.873 500.821 227.072 500.481 227.192C500.448 227.184 500.414 227.184 500.381 227.192C500.374 227.202 500.37 227.214 500.37 227.227C500.37 227.239 500.374 227.251 500.381 227.261C500.375 227.374 500.375 227.487 500.381 227.6C500.381 227.6 500.381 227.6 500.381 227.659C500.381 227.719 500.481 227.659 500.521 227.659C500.561 227.659 500.701 227.789 500.681 227.898C500.661 228.007 500.491 228.395 500.781 228.395C501.071 228.395 501.781 228.535 501.981 228.336C502.009 228.264 502.058 228.202 502.121 228.157C502.271 228.067 502.491 228.157 502.671 228.157C502.71 227.963 502.71 227.763 502.671 227.57C502.817 227.594 502.965 227.594 503.111 227.57C503.251 227.57 503.381 227.45 503.371 227.341C503.361 227.232 503.241 227.132 503.301 227.033C503.334 226.994 503.381 226.97 503.431 226.963C503.571 226.932 503.715 226.929 503.856 226.955C503.997 226.98 504.131 227.034 504.251 227.112C504.477 227.263 504.718 227.39 504.971 227.49C505.09 227.535 505.222 227.535 505.341 227.49C505.451 227.49 505.481 227.351 505.521 227.261C505.691 226.844 506.381 226.515 505.821 226.107C505.758 226.069 505.701 226.022 505.651 225.968C505.647 225.925 505.647 225.882 505.651 225.839C505.647 225.721 505.672 225.603 505.722 225.496C505.773 225.389 505.848 225.295 505.941 225.222C506.395 224.942 506.94 224.85 507.461 224.963C507.517 224.973 507.575 224.973 507.631 224.963C507.674 224.95 507.714 224.93 507.751 224.904C507.877 224.799 507.956 224.649 507.971 224.486C507.961 224.393 507.961 224.3 507.971 224.207C508.061 223.849 508.771 224.058 508.971 223.75C508.971 223.75 508.971 223.69 509.031 223.65C509.091 223.611 509.351 223.561 509.541 223.541C509.712 223.533 509.88 223.499 510.041 223.441C510.433 223.28 510.843 223.164 511.261 223.093C511.711 223.093 512.201 223.093 512.661 223.093C512.706 223.077 512.756 223.077 512.801 223.093C512.808 223.123 512.808 223.153 512.801 223.183C512.842 223.27 512.904 223.346 512.98 223.405C513.057 223.464 513.146 223.503 513.241 223.521C513.571 223.593 513.905 223.643 514.241 223.67C514.405 223.694 514.566 223.734 514.721 223.79C514.861 223.839 514.981 223.969 515.121 224.008C515.261 224.048 515.441 224.008 515.601 224.008C515.761 224.008 515.851 224.178 515.891 224.307C515.949 224.483 516.049 224.644 516.181 224.774C516.271 224.874 516.401 224.963 516.391 225.083C516.381 225.202 516.281 225.272 516.191 225.351C516.101 225.431 516.031 225.56 516.111 225.66C516.152 225.694 516.2 225.719 516.252 225.732C516.304 225.746 516.358 225.749 516.411 225.739C516.521 225.739 516.621 225.739 516.731 225.739C516.748 225.731 516.767 225.727 516.786 225.727C516.805 225.727 516.824 225.731 516.841 225.739C516.841 225.739 516.841 225.809 516.841 225.839C516.841 225.869 516.281 226.535 516.631 226.655C516.687 226.665 516.745 226.665 516.801 226.655C516.874 226.662 516.942 226.697 516.99 226.753C517.039 226.808 517.064 226.88 517.061 226.953C517.048 227.023 517.019 227.09 516.978 227.148C516.937 227.207 516.883 227.255 516.821 227.291C516.711 227.361 516.571 227.47 516.601 227.58C516.631 227.689 516.851 227.759 517.021 227.769C517.621 227.769 517.421 228.057 517.751 228.306C517.918 228.4 518.116 228.425 518.301 228.376C519.191 228.206 519.031 227.629 519.051 227.082C519.105 226.706 519.234 226.344 519.431 226.018C519.522 225.761 519.673 225.529 519.871 225.341C520.058 225.204 520.268 225.099 520.491 225.033C521.711 224.712 522.969 224.552 524.231 224.556C524.364 224.541 524.498 224.541 524.631 224.556C524.819 224.623 524.984 224.74 525.111 224.894C525.358 225.128 525.629 225.335 525.921 225.511C526.153 225.623 526.373 225.756 526.581 225.909C526.811 226.098 526.771 226.336 526.841 226.585C526.931 226.84 527.063 227.079 527.231 227.291C527.231 227.291 527.231 227.361 527.301 227.371C527.371 227.381 527.751 227.371 527.901 227.311H527.991C527.991 227.311 527.991 227.311 528.041 227.261L528.401 226.565C528.422 226.519 528.452 226.478 528.491 226.446C528.651 226.336 529.251 226.446 529.491 226.446H529.571C529.598 226.458 529.619 226.479 529.631 226.505C529.691 226.595 529.751 226.774 529.881 226.784C530.011 226.794 530.291 226.595 530.391 226.555L531.391 226.117L532.551 225.889C532.944 225.864 533.338 225.864 533.731 225.889C534.274 225.857 534.82 225.9 535.351 226.018C535.561 226.018 535.761 226.137 535.971 226.167C536.463 226.192 536.955 226.124 537.421 225.968C537.949 225.849 538.491 225.809 539.031 225.849C539.117 225.839 539.205 225.839 539.291 225.849C539.455 225.91 539.61 225.993 539.751 226.098C540.131 226.316 540.562 226.433 541.001 226.436C541.456 226.407 541.905 226.31 542.331 226.147C543.357 225.92 544.424 225.958 545.431 226.257C545.732 226.341 546.05 226.341 546.351 226.257C546.609 226.122 546.877 226.006 547.151 225.909C547.267 225.898 547.385 225.898 547.501 225.909C547.93 225.874 548.362 225.874 548.791 225.909C549.297 225.988 549.793 226.122 550.271 226.306C550.334 226.317 550.398 226.317 550.461 226.306L550.601 226.247C550.8 226.157 550.985 226.04 551.151 225.899C551.223 225.854 551.282 225.793 551.324 225.72C551.366 225.647 551.389 225.565 551.391 225.481C551.391 225.322 551.261 225.202 551.391 225.063C551.595 225.035 551.803 225.048 552.001 225.103L552.741 225.023H553.081C553.42 225.14 553.738 225.311 554.021 225.53H555.291V223.471H554.401L563.061 216.975L573.271 222.944H571.901L572.001 224.108H575.741C576.548 224.06 577.357 224.134 578.141 224.327C578.966 224.671 579.834 224.902 580.721 225.013C581.732 224.928 582.734 224.769 583.721 224.536C586.96 224.201 590.22 224.124 593.471 224.307C595.544 224.295 597.614 224.455 599.661 224.784C601.361 225.143 603.091 226.137 604.921 225.71C605.477 225.55 606.014 225.33 606.521 225.053C608.465 224.232 610.471 223.567 612.521 223.063C614.587 222.484 616.741 222.275 618.881 222.447C620.723 222.732 622.535 223.188 624.291 223.81H626.071C626.071 223.81 626.001 224.008 626.071 224.008H627.281L627.711 223.352H628.191V222.964H628.621V223.322H629.001V223.78H631.651V223.382H632.521C632.521 223.382 632.401 223.123 632.521 223.123H633.821V222.874L634.311 222.715L634.801 222.556L635.881 222.825V223.233H637.361V223.8C637.989 223.82 638.617 223.793 639.241 223.72C639.304 223.691 639.359 223.646 639.401 223.591C639.802 223.228 640.23 222.896 640.681 222.596C640.742 222.553 640.81 222.519 640.881 222.496C640.99 222.476 641.102 222.476 641.211 222.496C641.427 222.476 641.645 222.476 641.861 222.496L642.251 222.596C643.027 222.775 643.835 222.775 644.611 222.596C645.135 222.48 645.649 222.327 646.151 222.138C646.66 221.941 647.196 221.823 647.741 221.79C648.373 221.802 648.991 221.98 649.531 222.307C649.884 222.457 650.271 222.509 650.651 222.457C653.121 222.278 655.581 222.079 658.051 221.91L663.271 221.522C664.349 221.322 665.397 220.988 666.391 220.527C667.391 220.199 668.621 220.069 669.321 219.353C669.451 219.224 669.601 219.015 669.821 218.965C670.121 218.906 670.431 218.906 670.731 218.965C670.731 218.965 670.781 218.965 670.791 218.965C670.801 218.965 670.791 218.965 670.791 219.015C670.791 219.064 670.791 219.293 670.791 219.452C670.781 219.492 670.781 219.533 670.791 219.572C670.931 219.781 671.941 219.572 672.221 219.632C672.558 219.676 672.9 219.641 673.221 219.532C673.531 219.413 673.671 219.154 674.021 219.064C674.397 218.966 674.795 218.983 675.161 219.114C675.821 219.363 676.161 219.95 676.901 220.109C677.139 220.151 677.38 220.167 677.621 220.159C678.095 220.192 678.571 220.176 679.041 220.109C679.339 219.969 679.607 219.773 679.831 219.532C680.338 219.279 680.912 219.192 681.471 219.283H682.641H685.171C686.597 219.358 688.025 219.358 689.451 219.283C690.541 219.194 691.621 218.985 692.701 218.826L696.191 218.299C696.853 218.198 697.521 218.144 698.191 218.139H702.841C703.218 218.126 703.596 218.143 703.971 218.189C704.555 218.293 705.131 218.442 705.691 218.637C706.344 218.805 707.017 218.885 707.691 218.875C708.027 218.881 708.362 218.851 708.691 218.786C708.995 218.706 709.29 218.596 709.571 218.458C710.011 218.308 710.491 218.189 710.941 218.05C710.988 218.024 711.038 218.008 711.091 218C711.164 218.006 711.236 218.026 711.301 218.06C711.63 218.127 711.949 218.234 712.251 218.378L713.101 218.667C713.72 218.894 714.387 218.966 715.041 218.875C715.357 218.807 715.667 218.717 715.971 218.607L717.271 218.149C717.846 217.9 718.464 217.765 719.091 217.751C719.678 217.838 720.221 218.11 720.641 218.527C720.761 218.627 720.881 218.756 720.821 218.895C721.437 218.856 722.055 218.856 722.671 218.895H728.371C729.248 218.891 730.12 219.032 730.951 219.313C731.831 219.612 732.711 219.88 733.601 220.159C733.697 220.179 733.795 220.179 733.891 220.159C733.991 220.156 734.09 220.132 734.181 220.089C734.595 219.936 734.997 219.749 735.381 219.532L736.671 218.955L739.271 217.791C739.386 217.737 739.506 217.696 739.631 217.672C739.741 217.662 739.851 217.662 739.961 217.672H742.321C742.37 217.661 742.422 217.661 742.471 217.672C742.495 217.688 742.515 217.71 742.527 217.737C742.539 217.763 742.544 217.792 742.541 217.821C742.556 217.937 742.556 218.054 742.541 218.169C742.541 218.169 742.541 218.279 742.601 218.299H742.671C743.531 218.169 744.371 217.99 745.221 217.851L747.631 217.483C748.416 217.413 749.206 217.413 749.991 217.483H750.451C750.63 217.513 750.812 217.513 750.991 217.483C751.271 217.383 751.261 217.135 751.351 216.946C752.968 216.784 754.6 216.867 756.191 217.194C756.571 217.304 756.941 217.433 757.321 217.513C757.88 217.596 758.448 217.579 759.001 217.463C759.632 217.391 760.266 217.355 760.901 217.353C761.553 217.383 762.188 217.571 762.751 217.901L764.891 218.895C765.891 219.303 766.811 219.821 767.811 220.189C767.811 220.189 767.811 220.189 767.861 220.189C767.911 220.189 768.111 219.83 768.111 219.691C768.229 219.237 768.273 218.767 768.241 218.299C768.731 218.299 769.241 218.299 769.711 218.299C769.75 218.288 769.792 218.288 769.831 218.299C769.951 218.348 770.001 218.667 770.031 218.756C770.031 218.756 770.031 218.756 770.091 218.756C770.361 218.756 771.151 218.706 771.271 218.965C771.426 219.249 771.524 219.56 771.561 219.88C771.546 219.929 771.546 219.981 771.561 220.029C771.58 220.071 771.611 220.106 771.651 220.129C771.741 220.208 772.261 220.805 772.391 220.805C772.741 220.805 773.271 220.905 773.491 220.656C773.685 220.442 773.847 220.2 773.971 219.94C773.971 219.83 773.971 219.612 774.071 219.522C774.171 219.433 774.331 219.522 774.461 219.433C774.48 219.419 774.496 219.401 774.506 219.38C774.517 219.36 774.522 219.336 774.521 219.313C774.521 219.194 774.381 218.875 774.601 218.875C774.821 218.875 775.411 218.786 775.501 218.875C775.51 218.894 775.514 218.915 775.514 218.935C775.514 218.956 775.51 218.976 775.501 218.995C775.501 219.323 775.661 219.313 776.061 219.273C776.061 219.273 776.061 219.482 776.061 219.512C776.061 219.542 776.171 219.661 776.401 219.661C776.444 219.665 776.488 219.66 776.529 219.646C776.571 219.632 776.609 219.611 776.641 219.582C776.65 219.56 776.655 219.536 776.655 219.512C776.655 219.488 776.65 219.465 776.641 219.443C776.641 219.373 776.581 219.124 776.641 219.074C776.701 219.025 777.061 219.134 777.131 218.925C777.15 218.874 777.15 218.817 777.131 218.766C777.371 218.766 777.611 218.766 777.841 218.766C778.071 218.766 778.111 218.905 778.061 219.074C778.061 219.074 778.621 219.074 778.691 219.074C778.761 219.074 778.631 219.333 778.751 219.373C778.814 219.378 778.878 219.378 778.941 219.373C779 219.358 779.062 219.358 779.121 219.373C779.106 219.472 779.106 219.572 779.121 219.671C779.109 219.7 779.109 219.732 779.121 219.761C779.15 219.77 779.182 219.77 779.211 219.761H779.621C779.621 219.86 779.721 219.93 779.821 220C780.093 220.111 780.39 220.149 780.681 220.109C780.971 220.109 780.591 219.97 780.891 219.92C781.451 219.86 781.221 219.313 781.791 219.253C782.333 219.182 782.868 219.066 783.391 218.905C783.641 218.836 784.391 218.816 784.661 218.776C784.931 218.736 785.351 218.338 785.661 218.299C785.971 218.259 786.111 217.304 786.341 217.234C786.755 217.079 787.184 216.965 787.621 216.896C787.331 215.901 787.941 215.593 788.731 215.085C788.871 214.996 789.021 214.906 789.171 214.797C789.581 214.518 789.951 213.663 790.371 213.205C790.455 213.103 790.552 213.013 790.661 212.937C791.301 212.591 792.024 212.426 792.751 212.459C792.991 212.459 789.181 218.866 789.421 218.866H789.591C789.671 218.925 789.681 219.015 789.721 219.074C789.786 219.145 789.864 219.202 789.952 219.242C790.04 219.281 790.135 219.302 790.231 219.303C791.046 219.476 791.846 219.715 792.621 220.019L795.541 220.935L799.341 222.208Z" fill="#040707"/>
<path d="M1058.3 211.335C1058.3 211.312 1058.3 211.288 1058.3 211.265C1058.31 211.182 1058.34 211.103 1058.39 211.036C1058.44 210.956 1058.5 210.888 1058.58 210.837C1058.72 210.744 1058.87 210.686 1059.04 210.668C1059.1 210.663 1059.16 210.663 1059.22 210.668H1066V214.08H1059.35C1059.21 214.092 1059.08 214.092 1058.94 214.08H1058.82C1058.76 214.063 1058.7 214.036 1058.64 214.001C1058.48 213.895 1058.36 213.732 1058.31 213.543C1058.3 213.477 1058.3 213.41 1058.31 213.344C1058.31 213.344 1058.29 211.593 1058.3 211.335Z" fill="#040707"/>
<path d="M1070.17 206.391C1070.4 206.381 1070.63 206.401 1070.85 206.451C1071.51 206.613 1072.09 207.013 1072.48 207.575C1072.83 208.126 1072.96 208.784 1072.85 209.425C1072.78 209.803 1072.78 209.803 1072.39 209.803H1070.68L1070.91 209.485C1071.05 209.326 1071.12 209.12 1071.11 208.911C1071.09 208.702 1071 208.505 1070.85 208.361C1070.78 208.283 1070.69 208.22 1070.6 208.175C1070.5 208.13 1070.4 208.104 1070.3 208.098C1070.19 208.093 1070.09 208.108 1069.99 208.142C1069.89 208.177 1069.8 208.231 1069.72 208.301C1069.25 208.739 1068.8 209.196 1068.35 209.654C1068.3 209.706 1068.24 209.748 1068.18 209.775C1068.11 209.803 1068.04 209.816 1067.97 209.813C1067.26 209.813 1066.56 209.813 1065.85 209.813C1065.74 209.82 1065.63 209.801 1065.53 209.76C1065.43 209.719 1065.34 209.655 1065.27 209.574C1064.88 209.157 1064.46 208.759 1064.05 208.351C1063.94 208.244 1063.81 208.168 1063.66 208.131C1063.51 208.095 1063.35 208.098 1063.21 208.142C1063.06 208.186 1062.93 208.268 1062.83 208.38C1062.72 208.492 1062.65 208.63 1062.62 208.779C1062.59 208.9 1062.6 209.025 1062.63 209.146C1062.66 209.266 1062.71 209.379 1062.79 209.475L1063.09 209.793H1061.21C1061.09 209.793 1061.04 209.793 1061 209.634C1060.9 209.283 1060.88 208.915 1060.94 208.555C1060.99 208.195 1061.12 207.851 1061.32 207.546C1061.52 207.24 1061.79 206.98 1062.09 206.783C1062.4 206.586 1062.75 206.456 1063.11 206.401C1063.23 206.388 1063.35 206.388 1063.47 206.401C1063.66 206.404 1063.85 206.424 1064.04 206.461C1064.26 206.506 1064.48 206.58 1064.68 206.68C1064.9 206.798 1065.1 206.946 1065.28 207.117C1065.68 207.475 1065.93 207.754 1066.46 208.291L1066.89 208.719L1066.98 208.639C1067.52 208.132 1068.06 207.645 1068.61 207.107C1068.81 206.915 1069.04 206.757 1069.29 206.64C1069.57 206.508 1069.86 206.424 1070.17 206.391Z" fill="#FFAE00"/>
<path d="M1066 223.491H1060.09C1059.95 223.511 1059.82 223.511 1059.68 223.491C1059.53 223.447 1059.4 223.36 1059.31 223.241C1059.21 223.122 1059.15 222.977 1059.14 222.825C1059.14 222.735 1059.14 222.646 1059.14 222.556V215.861H1066V223.491Z" fill="#040707"/>
<path d="M1067.77 215.812H1074.62C1074.63 215.868 1074.63 215.924 1074.62 215.981V222.546C1074.65 222.721 1074.62 222.9 1074.53 223.056C1074.45 223.212 1074.31 223.337 1074.15 223.412C1074.03 223.464 1073.9 223.491 1073.76 223.491H1067.76L1067.77 215.812Z" fill="#040707"/>
<path d="M1067.77 214.071V210.669H1074.53C1074.66 210.641 1074.8 210.646 1074.93 210.683C1075.06 210.721 1075.18 210.788 1075.28 210.881C1075.38 210.974 1075.45 211.089 1075.49 211.217C1075.54 211.344 1075.55 211.48 1075.53 211.614V213.165C1075.55 213.287 1075.54 213.411 1075.5 213.528C1075.46 213.645 1075.4 213.752 1075.31 213.84C1075.22 213.928 1075.12 213.996 1075 214.038C1074.89 214.079 1074.76 214.094 1074.64 214.081C1072.39 214.081 1070.14 214.081 1067.89 214.081L1067.77 214.071Z" fill="#040707"/>
<path d="M774.19 201.795C773.944 201.572 773.624 201.45 773.292 201.453C772.96 201.455 772.641 201.582 772.398 201.808C772.156 202.034 772.008 202.342 771.984 202.672C771.961 203.001 772.063 203.327 772.27 203.585L769.42 200.462L766.21 203.367C766.392 203.193 766.52 202.971 766.579 202.727C766.637 202.483 766.625 202.228 766.543 201.991C766.46 201.754 766.311 201.545 766.114 201.39C765.916 201.234 765.677 201.138 765.427 201.113C765.176 201.089 764.923 201.136 764.698 201.249C764.473 201.362 764.286 201.538 764.158 201.754C764.03 201.97 763.967 202.218 763.976 202.468C763.985 202.719 764.066 202.962 764.21 203.168C764.318 203.325 764.459 203.458 764.624 203.555C764.788 203.653 764.973 203.713 765.163 203.732C765.354 203.751 765.547 203.728 765.727 203.665C765.908 203.602 766.073 203.5 766.21 203.367L763 206.271L765.34 208.828C765.343 208.61 765.4 208.395 765.507 208.205C765.614 208.014 765.767 207.853 765.952 207.736C766.137 207.619 766.349 207.549 766.568 207.534C766.787 207.519 767.006 207.558 767.206 207.649C767.406 207.739 767.58 207.878 767.712 208.052C767.845 208.226 767.932 208.43 767.965 208.646C767.998 208.862 767.976 209.082 767.902 209.288C767.828 209.493 767.704 209.677 767.54 209.823C767.406 209.946 767.248 210.039 767.076 210.097C766.904 210.156 766.721 210.177 766.54 210.161L768.88 212.708L775.29 206.888L772.44 203.784C772.669 203.983 772.959 204.097 773.263 204.11C773.566 204.123 773.865 204.032 774.11 203.854C774.271 203.737 774.403 203.586 774.497 203.411C774.591 203.236 774.644 203.042 774.651 202.844C774.659 202.646 774.622 202.448 774.542 202.267C774.462 202.085 774.342 201.924 774.19 201.795Z" fill="#040707"/>
<path d="M776.552 197.876C776.652 197.749 776.706 197.593 776.706 197.433C776.706 197.272 776.652 197.116 776.552 196.99C776.495 196.916 776.424 196.853 776.342 196.807C776.261 196.76 776.171 196.73 776.077 196.719C775.984 196.708 775.889 196.716 775.799 196.742C775.709 196.768 775.625 196.812 775.552 196.871L777.202 195.329L775.612 193.648C775.744 193.78 775.924 193.854 776.112 193.854C776.299 193.854 776.479 193.78 776.612 193.648C776.744 193.516 776.819 193.337 776.819 193.15C776.819 192.964 776.744 192.785 776.612 192.653C776.487 192.557 776.334 192.505 776.177 192.505C776.019 192.505 775.866 192.557 775.742 192.653C775.669 192.712 775.609 192.784 775.565 192.866C775.521 192.949 775.494 193.039 775.486 193.131C775.477 193.224 775.488 193.318 775.516 193.406C775.545 193.495 775.591 193.577 775.652 193.648L774.002 191.977L772.692 193.27C772.811 193.264 772.93 193.289 773.037 193.341C773.144 193.393 773.236 193.472 773.305 193.569C773.374 193.666 773.417 193.779 773.43 193.897C773.443 194.015 773.426 194.134 773.381 194.244C773.335 194.354 773.263 194.451 773.17 194.525C773.077 194.6 772.967 194.65 772.849 194.671C772.732 194.691 772.611 194.683 772.498 194.645C772.384 194.607 772.283 194.541 772.202 194.454C772.069 194.303 772.001 194.106 772.012 193.906L770.672 195.17L773.852 198.522L775.492 196.98C775.389 197.103 775.333 197.258 775.333 197.418C775.333 197.578 775.389 197.733 775.492 197.856C775.557 197.931 775.638 197.992 775.728 198.035C775.819 198.077 775.917 198.1 776.017 198.102C776.117 198.104 776.217 198.085 776.309 198.046C776.401 198.007 776.484 197.949 776.552 197.876Z" fill="#040707"/>
<path d="M1168.58 181.233C1168.34 180.862 1167.96 180.594 1167.53 180.482C1167.1 180.37 1166.65 180.421 1166.25 180.627C1166.11 180.702 1165.98 180.785 1165.85 180.875C1165.81 180.725 1165.76 180.579 1165.69 180.438C1165.52 180.031 1165.19 179.703 1164.79 179.519C1164.38 179.335 1163.92 179.308 1163.5 179.443C1163.06 179.587 1162.68 179.87 1162.42 180.249C1162.15 180.628 1162.02 181.082 1162.04 181.542C1162.07 182.025 1162.18 182.499 1162.37 182.944C1162.79 183.909 1163.35 184.81 1164.02 185.62C1164.05 185.658 1164.09 185.686 1164.13 185.7C1164.17 185.71 1164.22 185.71 1164.26 185.7C1165.3 185.515 1166.31 185.18 1167.26 184.705C1167.69 184.477 1168.08 184.177 1168.41 183.82C1168.72 183.468 1168.91 183.024 1168.94 182.556C1168.97 182.087 1168.84 181.622 1168.58 181.233Z" fill="#FFAE00"/>
<path d="M278.812 215.602H278.632C278.512 215.602 278.472 215.602 278.462 215.433L278.312 213.672C278.202 212.489 278.102 211.305 278.002 210.111C278.002 209.823 278.002 209.534 277.932 209.246C277.932 209.146 277.932 209.077 278.072 209.096C278.212 209.116 278.162 209.096 278.162 209.027C278.162 208.957 278.102 208.957 278.042 208.957H277.702C277.687 208.959 277.672 208.957 277.658 208.952C277.644 208.947 277.631 208.939 277.621 208.929C277.61 208.918 277.602 208.905 277.597 208.891C277.592 208.877 277.59 208.862 277.592 208.848V207.714C277.592 207.634 277.642 207.594 277.682 207.535C277.704 207.513 277.721 207.488 277.733 207.46C277.745 207.431 277.752 207.401 277.752 207.371C277.752 207.34 277.745 207.31 277.733 207.281C277.721 207.253 277.704 207.228 277.682 207.206C277.639 207.172 277.586 207.154 277.532 207.154C277.477 207.154 277.424 207.172 277.382 207.206C277.36 207.228 277.342 207.253 277.33 207.281C277.318 207.31 277.312 207.34 277.312 207.371C277.312 207.401 277.318 207.431 277.33 207.46C277.342 207.488 277.36 207.513 277.382 207.535C277.413 207.564 277.437 207.599 277.453 207.639C277.468 207.679 277.475 207.721 277.472 207.763C277.472 208.102 277.472 208.45 277.472 208.758C277.472 208.907 277.402 208.937 277.282 208.927H277.002C276.952 208.927 276.922 208.927 276.922 209.007C276.922 209.086 276.922 209.067 276.992 209.067H277.182C277.202 209.215 277.202 209.366 277.182 209.514L276.882 213.981C276.882 214.448 276.802 214.976 276.782 215.393C276.782 215.533 276.722 215.572 276.592 215.572H275.932C275.742 215.572 275.742 215.572 275.742 215.761C275.732 215.93 275.732 216.1 275.742 216.269C275.742 216.398 275.692 216.428 275.572 216.428H274.192C274.177 216.426 274.162 216.428 274.148 216.433C274.134 216.438 274.121 216.446 274.111 216.456C274.1 216.467 274.092 216.48 274.087 216.494C274.082 216.508 274.08 216.523 274.082 216.537C274.087 216.6 274.087 216.663 274.082 216.726V221.382C274.082 221.461 274.082 221.491 273.972 221.481H273.812C272.712 221.481 271.612 221.481 270.502 221.481H270.372C270.282 221.481 270.222 221.481 270.232 221.342V196.105C270.232 195.667 270.302 195.776 269.892 195.647L268.312 195.219C268.284 195.216 268.257 195.207 268.233 195.193C268.209 195.179 268.188 195.16 268.171 195.138C268.155 195.115 268.143 195.09 268.136 195.063C268.129 195.036 268.128 195.008 268.132 194.981C268.132 194.434 268.132 193.896 268.132 193.349C268.132 193.11 268.132 193.11 267.922 193.031L264.862 191.927C264.592 191.827 264.622 191.867 264.622 191.569C264.622 190.574 264.622 189.579 264.622 188.584C264.629 188.513 264.613 188.441 264.577 188.379C264.541 188.316 264.487 188.267 264.422 188.236C263.272 187.57 262.142 186.903 261.012 186.247C260.95 186.208 260.88 186.183 260.807 186.174C260.735 186.166 260.661 186.173 260.592 186.197L259.112 186.585C258.912 186.585 258.902 186.585 258.902 186.843V190.076C258.902 190.385 258.902 190.345 258.652 190.415L257.652 190.683C257.452 190.683 257.452 190.743 257.452 190.942V192.265C257.452 192.494 257.452 192.494 257.212 192.543L256.342 192.742C256.142 192.742 256.142 192.742 256.142 193.011V194.513C256.142 194.782 256.142 194.732 255.912 194.802L255.012 195.001C254.892 195.001 254.832 195.06 254.852 195.18V205.784C254.852 205.873 254.852 205.913 254.722 205.903C254.592 205.893 254.622 205.903 254.622 205.784V205.048C254.617 204.978 254.617 204.908 254.622 204.839C254.622 204.739 254.622 204.69 254.482 204.7H247.202C246.882 204.7 246.912 204.7 246.912 204.998V205.993C246.912 206.192 246.912 206.202 246.712 206.202H245.572C245.442 206.196 245.314 206.227 245.202 206.291L243.952 206.988C243.91 207.023 243.856 207.041 243.802 207.037C243.802 207.117 243.692 207.137 243.622 207.177C243.372 207.316 243.122 207.475 242.862 207.594C242.769 207.631 242.692 207.699 242.642 207.786C242.593 207.873 242.576 207.974 242.592 208.072C242.592 211.524 242.592 214.976 242.592 218.427C242.587 218.497 242.587 218.567 242.592 218.636C242.598 218.662 242.598 218.69 242.592 218.716V227.34H282.332V215.602H278.812Z" fill="#4A4C4C"/>
<path d="M1440 226.449H0V248.449H1440V226.449Z" fill="#040707"/>
<path d="M137.051 226.485C137.14 226.495 137.231 226.495 137.321 226.485H313.001V223.382H308.201C308.142 223.401 308.079 223.401 308.021 223.382C307.982 223.348 307.958 223.302 307.951 223.252C307.893 223.003 307.803 222.762 307.681 222.536C307.601 222.317 307.511 222.088 307.431 221.86C307.241 221.342 307.041 220.865 306.851 220.318C306.83 220.255 306.796 220.198 306.751 220.149C306.675 220.107 306.587 220.089 306.501 220.099H305.211C304.777 220.119 304.343 220.079 303.921 219.98C303.702 219.926 303.495 219.831 303.311 219.701C303.151 219.582 303.061 219.233 302.901 219.174C302.817 219.144 302.725 219.144 302.641 219.174C302.203 219.316 301.781 219.503 301.381 219.731C300.891 219.94 300.161 220.069 299.781 219.592C299.631 219.403 299.121 218.935 299.041 218.816C298.717 218.538 298.348 218.316 297.951 218.159C297.601 218.04 297.521 218.159 296.951 218.159C296.381 218.159 295.711 218.109 295.591 218.109C295.001 218.109 294.441 217.662 293.891 217.503C293.231 217.314 292.526 217.353 291.891 217.612L291.521 217.781C290.596 218.071 289.614 218.129 288.661 217.95C287.851 217.831 287.101 217.463 286.301 217.284C285.459 217.102 284.602 216.998 283.741 216.975C282.967 216.929 282.192 217.02 281.451 217.244C280.695 217.482 279.902 217.583 279.111 217.542C278.531 217.542 277.941 217.542 277.351 217.542C276.8 217.574 276.254 217.661 275.721 217.801C275.685 217.81 275.647 217.81 275.611 217.801C275.56 217.784 275.515 217.753 275.481 217.711C275.114 217.36 274.674 217.095 274.191 216.936C273.691 216.705 273.141 216.603 272.591 216.637L271.291 216.886C270.962 216.982 270.628 217.058 270.291 217.115C269.902 217.151 269.511 217.168 269.121 217.164C268.337 217.128 267.552 217.181 266.781 217.323C266.331 217.423 265.891 217.602 265.441 217.731C264.651 217.907 263.848 218.023 263.041 218.08C262.801 218.08 262.551 218.08 262.311 218.139C262.05 218.213 261.781 218.253 261.511 218.259C261.37 218.229 261.233 218.186 261.101 218.129C260.506 217.888 259.873 217.753 259.231 217.731C257.973 217.788 256.724 217.965 255.501 218.259C255.158 218.34 254.835 218.489 254.551 218.696C254.201 218.895 253.841 219.094 253.481 219.273C252.991 219.493 252.514 219.738 252.051 220.009C251.571 220.318 251.241 220.875 250.711 221.114C250.023 221.359 249.313 221.539 248.591 221.651L246.321 222.168C246.055 222.233 245.777 222.233 245.511 222.168C245.347 222.126 245.175 222.126 245.011 222.168C244.941 222.168 244.891 222.267 244.821 222.267C244.751 222.267 244.631 222.208 244.551 222.188C244.404 222.134 244.247 222.114 244.092 222.128C243.936 222.141 243.786 222.189 243.651 222.267C243.651 222.158 243.491 222.138 243.401 222.188C243.311 222.238 243.191 222.297 243.111 222.188C243.031 222.078 243.051 222.088 243.021 222.039C242.955 221.95 242.859 221.887 242.751 221.862C242.643 221.836 242.53 221.85 242.431 221.899C242.211 221.979 241.901 222.267 241.651 222.178C241.401 222.088 241.471 222.019 241.371 221.929C241.312 221.874 241.24 221.834 241.161 221.813C241.082 221.792 241 221.791 240.921 221.81C240.741 221.81 240.591 221.979 240.411 221.979C240.231 221.979 240.081 221.88 239.921 221.88C239.761 221.88 239.591 221.989 239.421 221.999C239.251 222.009 238.931 221.87 238.731 221.999C238.696 222.023 238.659 222.043 238.621 222.059C238.471 222.128 238.351 222.059 238.221 221.959C238.047 221.914 237.865 221.914 237.691 221.959C237.125 222.077 236.57 222.24 236.031 222.447C235.251 222.656 234.43 222.656 233.651 222.447C233.566 222.42 233.479 222.403 233.391 222.397C233.162 222.408 232.943 222.488 232.761 222.626V222.934C232.466 222.944 232.177 223.015 231.911 223.143C231.761 223.222 231.611 223.312 231.451 223.382C231.292 223.406 231.13 223.406 230.971 223.382C230.773 223.409 230.579 223.456 230.391 223.521L229.131 223.849H229.011C228.861 223.849 228.761 223.64 228.661 223.551C228.516 223.432 228.344 223.35 228.161 223.312C227.921 223.312 227.681 223.252 227.451 223.183C227.193 223.083 226.943 222.967 226.701 222.834C226.579 222.773 226.447 222.737 226.311 222.729C226.175 222.72 226.039 222.739 225.911 222.785C225.855 222.819 225.794 222.846 225.731 222.864C225.621 222.864 225.521 222.785 225.431 222.715C225.251 222.571 225.045 222.463 224.824 222.398C224.602 222.333 224.37 222.312 224.141 222.337C224.065 222.352 223.987 222.352 223.911 222.337C223.849 222.314 223.791 222.28 223.741 222.238L222.801 221.492C222.754 221.447 222.695 221.415 222.631 221.402C222.578 221.392 222.524 221.392 222.471 221.402C222.164 221.481 221.848 221.521 221.531 221.521C221.222 221.488 220.911 221.562 220.651 221.73L220.341 221.322C220.309 221.281 220.272 221.244 220.231 221.213C220.168 221.199 220.103 221.199 220.041 221.213H219.511C219.465 221.203 219.417 221.203 219.371 221.213C219.371 221.213 219.291 221.283 219.251 221.322C219.007 221.52 218.694 221.613 218.381 221.581H217.471C217.405 221.567 217.337 221.567 217.271 221.581C217.219 221.642 217.181 221.713 217.161 221.79C217.041 222.019 216.851 222.009 216.641 222.098C216.418 222.206 216.239 222.384 216.131 222.606C216.107 222.659 216.077 222.709 216.041 222.755C216.002 222.788 215.958 222.815 215.911 222.834L215.441 223.033C215.398 223.051 215.36 223.078 215.331 223.113V223.203C215.331 223.272 215.331 223.471 215.261 223.511C215.191 223.551 214.961 223.511 214.851 223.511C214.696 223.539 214.536 223.522 214.391 223.461C214.325 223.415 214.267 223.358 214.221 223.292L213.941 222.964C213.899 222.894 213.836 222.838 213.761 222.805C213.695 222.789 213.627 222.789 213.561 222.805C213.209 222.844 212.853 222.844 212.501 222.805C212.251 222.745 212.101 222.347 211.991 222.128C211.973 222.088 211.95 222.051 211.921 222.019C211.872 221.986 211.818 221.962 211.761 221.949L210.301 221.621C210.301 221.621 210.011 221.939 209.951 221.969C209.763 222.033 209.568 222.076 209.371 222.098L208.061 222.377C208.025 222.557 207.95 222.726 207.841 222.874C207.785 222.929 207.725 222.979 207.661 223.024C207.431 223.136 207.219 223.28 207.031 223.451C206.884 223.612 206.757 223.789 206.651 223.978C206.366 223.828 206.092 223.659 205.831 223.471C205.562 223.293 205.244 223.203 204.921 223.213C204.584 223.266 204.238 223.228 203.921 223.103C203.728 222.961 203.52 222.841 203.301 222.745C203.185 222.725 203.067 222.725 202.951 222.745H201.621C201.271 222.745 200.761 222.864 200.561 222.516C200.471 222.347 200.441 222.158 200.341 221.989C200.255 221.865 200.144 221.76 200.015 221.681C199.886 221.602 199.741 221.551 199.591 221.531C199.291 221.462 198.981 221.462 198.691 221.392C198.531 221.367 198.377 221.31 198.241 221.223C198.079 221.091 197.94 220.933 197.831 220.755L197.301 219.97C197.266 219.913 197.222 219.863 197.171 219.82C197.105 219.805 197.037 219.805 196.971 219.82C196.665 219.845 196.357 219.845 196.051 219.82C195.812 219.759 195.587 219.651 195.391 219.502C195.003 219.179 194.576 218.905 194.121 218.686C193.759 218.59 193.385 218.543 193.011 218.547C192.941 218.557 192.87 218.557 192.801 218.547C192.736 218.511 192.676 218.467 192.621 218.418L191.441 217.423C191.396 217.39 191.35 217.36 191.301 217.333C191.245 217.324 191.187 217.324 191.131 217.333L189.831 217.413C189.097 217.419 188.367 217.305 187.671 217.075C187.017 216.918 186.342 216.861 185.671 216.906C185.535 216.93 185.396 216.93 185.261 216.906C185.181 216.858 185.107 216.801 185.041 216.737L184.371 216.15C184.228 216.014 184.067 215.9 183.891 215.811C183.623 215.712 183.336 215.672 183.051 215.692H180.181C179.952 215.703 179.736 215.803 179.581 215.971C179.451 216.09 179.271 216.418 179.081 216.398C178.598 216.388 178.12 216.308 177.661 216.16C177.231 215.981 176.841 215.692 176.421 215.493C176.348 215.449 176.266 215.422 176.181 215.414C176.092 215.395 176 215.395 175.911 215.414L174.071 216.02C174.051 216.022 174.031 216.028 174.014 216.038C173.996 216.049 173.982 216.063 173.971 216.08C173.959 216.122 173.959 216.167 173.971 216.209C173.996 216.434 173.996 216.661 173.971 216.886C173.974 216.92 173.97 216.954 173.96 216.986C173.949 217.019 173.933 217.049 173.911 217.075C173.855 217.09 173.796 217.09 173.741 217.075C173.331 217.075 172.931 217.075 172.521 217.075L171.521 217.692C171.321 217.834 171.086 217.92 170.841 217.94C170.611 217.94 170.381 217.94 170.161 218.02C169.941 218.099 169.761 218.02 169.571 218.02C169.413 218.049 169.274 218.139 169.181 218.269C169.081 218.418 169.071 218.637 168.911 218.726C168.852 218.741 168.79 218.741 168.731 218.726L167.651 218.855C167.496 218.864 167.342 218.887 167.191 218.925C166.938 218.981 166.693 219.068 166.461 219.184C166.269 219.299 166.068 219.399 165.861 219.482C165.632 219.517 165.399 219.517 165.171 219.482L163.591 219.373C163.565 219.383 163.536 219.383 163.511 219.373C163.492 219.36 163.476 219.344 163.464 219.325C163.452 219.307 163.444 219.285 163.441 219.263C163.341 218.915 163.261 218.557 163.141 218.269C163.085 218.143 163.004 218.031 162.902 217.939C162.801 217.846 162.681 217.776 162.551 217.731C162.321 217.613 162.103 217.473 161.901 217.314C161.801 217.234 161.69 217.17 161.571 217.125H161.321L160.201 217.244C159.881 217.244 159.501 217.244 159.201 217.433C159.073 217.55 158.97 217.692 158.901 217.851L158.671 218.318C158.654 218.361 158.626 218.398 158.591 218.428C158.535 218.443 158.476 218.443 158.421 218.428H157.481C157.305 218.408 157.127 218.408 156.951 218.428C156.822 218.455 156.695 218.491 156.571 218.537C156.163 218.705 155.746 218.848 155.321 218.965C154.864 219.035 154.402 219.055 153.941 219.025C153.875 219.035 153.807 219.035 153.741 219.025C153.672 218.998 153.608 218.961 153.551 218.915L152.311 218C152.246 217.944 152.171 217.9 152.091 217.871C152.028 217.86 151.964 217.86 151.901 217.871H150.141C150.095 217.861 150.047 217.861 150.001 217.871C149.963 217.891 149.929 217.918 149.901 217.95C149.725 218.089 149.579 218.262 149.473 218.459C149.366 218.656 149.301 218.872 149.281 219.094C148.979 219.092 148.683 219.178 148.431 219.343C148.187 219.517 147.934 219.676 147.671 219.82C147.501 219.884 147.342 219.975 147.201 220.089C147.051 220.258 146.961 220.576 146.681 220.547C146.631 220.537 146.58 220.537 146.531 220.547C146.426 220.563 146.333 220.621 146.271 220.706C146.123 220.863 145.955 221 145.771 221.114C145.17 221.365 144.626 221.734 144.171 222.198C144.102 222.303 144.009 222.392 143.901 222.456C143.752 222.507 143.59 222.507 143.441 222.456C143.379 222.437 143.313 222.437 143.251 222.456C143.205 222.467 143.163 222.492 143.131 222.526C142.811 222.857 142.431 223.123 142.011 223.312C141.741 223.372 141.451 223.312 141.191 223.312C141.018 223.384 140.859 223.485 140.721 223.61C140.455 223.819 140.171 224.002 139.871 224.158C139.665 224.233 139.467 224.33 139.281 224.446C139.051 224.615 139.071 224.993 139.141 225.232H138.861C138.658 225.207 138.453 225.207 138.251 225.232C137.931 225.311 137.811 225.55 137.601 225.759C137.404 225.991 137.221 226.233 137.051 226.485Z" fill="#040707"/>
<path d="M276.79 176.985C276.79 174.449 275.23 172.39 273.31 172.39C271.39 172.39 269.82 174.449 269.82 176.985C269.82 179.522 271.21 181.333 272.97 181.561L272.61 182.188H273.2C273.461 182.442 273.633 182.772 273.691 183.13C273.748 183.489 273.689 183.856 273.52 184.178C273.311 184.523 273.04 184.826 272.72 185.073C272.515 185.249 272.321 185.439 272.14 185.64C271.841 186.008 271.644 186.448 271.566 186.915C271.489 187.382 271.535 187.862 271.7 188.306C271.992 189.031 272.472 189.666 273.09 190.146L273.58 190.614C273.78 190.813 274.39 191.509 274.08 192.176H274.18C274.53 191.439 273.87 190.693 273.66 190.485C273.45 190.276 273.33 190.166 273.17 190.017C272.569 189.543 272.1 188.923 271.81 188.216C271.65 187.791 271.605 187.331 271.678 186.883C271.752 186.434 271.942 186.013 272.23 185.66C272.405 185.463 272.596 185.28 272.8 185.113C273.125 184.853 273.402 184.54 273.62 184.188C273.792 183.86 273.859 183.489 273.813 183.123C273.766 182.756 273.608 182.413 273.36 182.138H274L273.63 181.512C275.41 181.333 276.79 179.343 276.79 176.985Z" fill="#FFAE00"/>
<path d="M323.699 111.142L321.699 110.505C320.99 112.694 320.628 114.979 320.629 117.279H322.749C322.744 115.197 323.065 113.126 323.699 111.142Z" fill="#040707"/>
<path d="M326.59 129.048C325.347 127.357 324.381 125.48 323.73 123.487L321.73 124.144C322.45 126.347 323.517 128.422 324.89 130.292L326.59 129.048Z" fill="#040707"/>
<path d="M364.999 117.28V117.2L362.879 117.28C362.878 119.379 362.54 121.464 361.879 123.457L363.879 124.104C364.611 121.902 364.989 119.599 364.999 117.28Z" fill="#040707"/>
<path d="M336.641 136.299C334.636 135.653 332.746 134.697 331.041 133.464L329.801 135.165C331.688 136.529 333.781 137.587 336.001 138.298L336.641 136.299Z" fill="#040707"/>
<path d="M342.84 137.265V139.374C345.166 139.368 347.477 139.002 349.69 138.289L349.04 136.3C347.037 136.942 344.945 137.268 342.84 137.265Z" fill="#040707"/>
<path d="M360.791 130.261L359.081 129.018C357.845 130.717 356.347 132.212 354.641 133.444L355.891 135.145C357.772 133.783 359.425 132.135 360.791 130.261Z" fill="#040707"/>
<path d="M346.26 111.301L342.83 104.029L339.4 111.301L331.73 112.465L337.28 118.125L335.97 126.113L342.83 122.343L349.69 126.113L348.38 118.125L353.93 112.465L346.26 111.301Z" fill="#FFAE00"/>
<path d="M398.041 182.228L397.801 179.442L395.801 181.402L393.161 180.875L394.291 183.382L392.891 185.829L395.591 185.421L397.371 187.47L397.911 184.705L400.401 183.521L398.041 182.228Z" fill="#040707"/>
<path d="M406.21 165.466L401.16 162.063L401.76 168.102L397.23 171.802L403.03 173.344L405.28 179.044L408.27 173.951L414.19 173.772L410.24 169.087L411.65 163.277L406.21 165.466Z" fill="#040707"/>
<path d="M380.571 203.417L373.911 187.958H365.001L349.461 152.624H336.171L322.841 187.958H314.001L313.811 188.406L299.401 165.874L297.531 167.058L305.891 180.139L304.441 183.034H298.441V181.333C299.281 180.847 299.938 180.1 300.308 179.206C300.678 178.312 300.742 177.321 300.489 176.387C300.236 175.454 299.681 174.629 298.909 174.041C298.138 173.453 297.193 173.134 296.221 173.134C295.249 173.134 294.304 173.453 293.533 174.041C292.761 174.629 292.206 175.454 291.953 176.387C291.7 177.321 291.764 178.312 292.134 179.206C292.504 180.1 293.16 180.847 294.001 181.333V197.13L292.421 203.437H291.781L278.461 227.729H407.211L393.891 203.417H380.571ZM307.301 203.417H297.001L298.391 197.926C298.431 197.749 298.451 197.569 298.451 197.389H301.971L307.541 202.929L307.301 203.417ZM309.401 198.553L304.401 193.579C304.196 193.372 303.951 193.209 303.682 193.098C303.412 192.987 303.123 192.93 302.831 192.932H298.391V185.203H305.051C305.259 185.202 305.462 185.144 305.639 185.035C305.816 184.927 305.958 184.771 306.051 184.586L307.211 182.268L312.681 190.823L309.401 198.553Z" fill="#040707"/>
<path d="M1152.62 174.37V160.562H1150.43V155.827H1148.79V151.191H1143.49V155.827H1141.85V160.562H1139.67V181.184C1130.48 194.116 1106.6 187.62 1104.53 187.033V172.201H1091.26V196.354H1078.63V230.017H1104.53V197.906C1105.06 198.503 1105.63 199.065 1106.23 199.587V207.137L1112.93 203.287C1114.6 203.833 1116.32 204.226 1118.06 204.461L1121.54 211.007L1125.54 204.75C1127.17 204.67 1128.75 204.521 1130.23 204.322L1135.23 210.062L1137.71 202.86C1138.59 202.631 1139.25 202.432 1139.71 202.313V230.435H1151.98V231.937H1161.29V188.913L1152.62 174.37ZM1104.53 196.424V188.107C1104.95 188.227 1105.63 188.406 1106.53 188.625L1108.78 195.459L1113.78 189.898C1115.4 190.087 1117.13 190.216 1118.93 190.256L1123.15 196.533L1126.5 189.749C1128.37 189.446 1130.2 188.949 1131.97 188.266L1138.67 191.927L1138.5 184.108C1138.91 183.7 1139.29 183.273 1139.67 182.835V201.328C1137.72 201.875 1114.14 208.798 1104.53 196.374V196.424Z" fill="#4A4C4C"/>
<path d="M1083.56 179.344C1083.33 179.2 1083.06 179.124 1082.79 179.125C1081.44 179.125 1080.88 178.13 1081.55 176.996C1081.69 176.76 1081.76 176.485 1081.74 176.21L1078.55 174.39H1078.38C1078.23 174.491 1078.11 174.624 1078.02 174.778L1077.93 174.917C1077.85 175.176 1077.68 175.401 1077.46 175.561C1077.24 175.72 1076.97 175.806 1076.7 175.806C1076.42 175.806 1076.15 175.72 1075.93 175.561C1075.71 175.401 1075.55 175.176 1075.46 174.917L1075.38 174.778C1075.29 174.624 1075.17 174.492 1075.03 174.39H1074.87L1071.69 176.21C1071.68 176.47 1071.74 176.728 1071.87 176.956C1072.56 178.13 1072 179.085 1070.64 179.085C1070.37 179.086 1070.11 179.162 1069.89 179.304V182.965C1070.11 183.107 1070.37 183.183 1070.64 183.183C1072 183.183 1072.56 184.178 1071.87 185.312C1071.74 185.54 1071.68 185.798 1071.69 186.058L1074.87 187.889H1075.03C1075.18 187.787 1075.3 187.655 1075.39 187.501L1075.48 187.351C1075.57 187.093 1075.73 186.867 1075.95 186.708C1076.18 186.548 1076.44 186.462 1076.72 186.462C1076.99 186.462 1077.26 186.548 1077.48 186.708C1077.7 186.867 1077.87 187.093 1077.95 187.351L1078.03 187.501C1078.12 187.652 1078.25 187.784 1078.39 187.889H1078.55L1081.74 186.058C1081.75 185.797 1081.69 185.537 1081.55 185.312C1080.87 184.138 1081.42 183.183 1082.78 183.183C1083.05 183.184 1083.31 183.108 1083.53 182.965V179.344H1083.56ZM1076.71 183.631C1076.23 183.631 1075.76 183.489 1075.35 183.222C1074.95 182.955 1074.64 182.576 1074.46 182.133C1074.27 181.689 1074.22 181.201 1074.32 180.73C1074.41 180.259 1074.64 179.827 1074.99 179.487C1075.33 179.148 1075.76 178.917 1076.23 178.823C1076.71 178.73 1077.2 178.778 1077.64 178.961C1078.09 179.145 1078.47 179.456 1078.74 179.855C1079.01 180.254 1079.15 180.724 1079.15 181.204C1079.14 181.841 1078.88 182.448 1078.42 182.894C1077.97 183.341 1077.35 183.591 1076.71 183.591V183.631Z" fill="#040707"/>
<path d="M1069.66 165.694C1069.52 165.604 1069.35 165.556 1069.18 165.555C1068.33 165.555 1067.98 164.958 1068.4 164.222C1068.49 164.075 1068.53 163.905 1068.52 163.735L1066.52 162.591H1066.41C1066.32 162.655 1066.25 162.736 1066.19 162.83L1066.13 162.919C1066.08 163.081 1065.97 163.221 1065.84 163.321C1065.7 163.421 1065.53 163.475 1065.36 163.475C1065.19 163.475 1065.02 163.421 1064.88 163.321C1064.75 163.221 1064.64 163.081 1064.59 162.919L1064.53 162.83C1064.48 162.734 1064.4 162.653 1064.31 162.591H1064.22L1062.22 163.735C1062.21 163.899 1062.25 164.062 1062.34 164.202C1062.76 164.938 1062.42 165.535 1061.57 165.535C1061.4 165.538 1061.24 165.582 1061.09 165.665V168.002C1061.23 168.095 1061.4 168.143 1061.57 168.142C1062.42 168.142 1062.76 168.738 1062.34 169.475C1062.25 169.614 1062.21 169.778 1062.22 169.942L1064.22 171.086H1064.32C1064.41 171.024 1064.49 170.942 1064.54 170.847L1064.6 170.758C1065.02 170.022 1065.71 170.022 1066.14 170.758V170.847C1066.2 170.943 1066.28 171.024 1066.37 171.086H1066.47L1068.47 169.942C1068.48 169.778 1068.43 169.616 1068.35 169.475C1067.92 168.738 1068.27 168.142 1069.12 168.142C1069.29 168.143 1069.45 168.094 1069.59 168.002V165.694H1069.66ZM1065.37 168.38C1065.07 168.38 1064.77 168.291 1064.52 168.124C1064.27 167.957 1064.07 167.719 1063.96 167.441C1063.84 167.163 1063.81 166.857 1063.87 166.561C1063.93 166.266 1064.07 165.995 1064.29 165.782C1064.5 165.569 1064.77 165.424 1065.07 165.366C1065.37 165.307 1065.68 165.337 1065.96 165.452C1066.24 165.567 1066.47 165.763 1066.64 166.013C1066.81 166.263 1066.9 166.557 1066.9 166.858C1066.9 167.06 1066.86 167.26 1066.79 167.447C1066.71 167.634 1066.6 167.804 1066.46 167.947C1066.32 168.091 1066.15 168.205 1065.96 168.283C1065.77 168.36 1065.57 168.4 1065.37 168.4V168.38Z" fill="#040707"/>
<path d="M1177.5 205.397C1177.36 205.304 1177.19 205.256 1177.02 205.257C1176.17 205.257 1175.82 204.661 1176.25 203.924C1176.34 203.777 1176.37 203.607 1176.36 203.437L1174.36 202.293H1174.25C1174.16 202.361 1174.08 202.445 1174.02 202.542V202.631C1173.96 202.792 1173.86 202.931 1173.72 203.029C1173.58 203.127 1173.42 203.18 1173.24 203.18C1173.07 203.18 1172.91 203.127 1172.77 203.029C1172.63 202.931 1172.53 202.792 1172.47 202.631V202.542C1172.41 202.446 1172.34 202.361 1172.25 202.293H1172.15L1170.15 203.437C1170.14 203.6 1170.18 203.762 1170.26 203.904C1170.69 204.641 1170.34 205.237 1169.49 205.237C1169.32 205.238 1169.16 205.286 1169.02 205.377V207.704C1169.16 207.795 1169.32 207.844 1169.49 207.844C1170.34 207.844 1170.69 208.441 1170.26 209.177C1170.18 209.32 1170.14 209.481 1170.14 209.644L1172.14 210.798H1172.24C1172.33 210.73 1172.41 210.646 1172.47 210.55V210.46C1172.53 210.3 1172.63 210.161 1172.77 210.062C1172.91 209.964 1173.07 209.911 1173.24 209.911C1173.42 209.911 1173.58 209.964 1173.72 210.062C1173.86 210.161 1173.96 210.3 1174.02 210.46V210.55C1174.08 210.646 1174.16 210.73 1174.25 210.798H1174.35L1176.35 209.644C1176.35 209.481 1176.31 209.32 1176.23 209.177C1175.8 208.441 1176.15 207.844 1177 207.844C1177.17 207.844 1177.33 207.795 1177.47 207.704V205.377L1177.5 205.397ZM1173.21 208.083C1172.91 208.083 1172.61 207.993 1172.36 207.826C1172.11 207.659 1171.91 207.421 1171.8 207.143C1171.68 206.865 1171.65 206.559 1171.71 206.264C1171.77 205.968 1171.91 205.697 1172.13 205.484C1172.34 205.271 1172.61 205.127 1172.91 205.068C1173.21 205.009 1173.52 205.039 1173.8 205.154C1174.07 205.27 1174.31 205.465 1174.48 205.715C1174.65 205.965 1174.74 206.259 1174.74 206.561C1174.74 206.963 1174.57 207.349 1174.29 207.634C1174 207.919 1173.61 208.08 1173.21 208.083Z" fill="#040707"/>
<path d="M1290.13 238.731H768.648V221.482C768.788 221.392 768.938 221.303 769.088 221.193C769.498 220.915 769.868 220.069 770.288 219.602L772.668 218.856L774.998 218.139L780.248 216.498C781.645 215.955 783.083 215.523 784.548 215.205C784.718 215.203 784.885 215.166 785.039 215.098C785.194 215.029 785.333 214.93 785.448 214.807C785.528 214.678 785.538 214.528 785.688 214.439C785.785 214.393 785.892 214.372 785.998 214.379L787.288 214.28L787.608 214.916C788.17 214.892 788.733 214.949 789.278 215.086C789.685 215.21 790.099 215.309 790.518 215.384C791.118 215.454 791.738 215.384 792.328 215.384C792.783 215.48 793.231 215.606 793.668 215.762C794.853 215.941 796.05 216.024 797.248 216.011C798.248 216.12 799.248 216.438 800.248 216.568C800.748 216.608 801.249 216.608 801.748 216.568C802.272 216.618 802.8 216.543 803.288 216.349C803.379 216.311 803.46 216.252 803.524 216.178C803.588 216.104 803.634 216.016 803.658 215.921C803.654 215.912 803.652 215.902 803.652 215.891C803.652 215.881 803.654 215.871 803.658 215.861H803.738C803.978 215.861 804.228 215.861 804.478 215.861C804.528 215.867 804.579 215.867 804.628 215.861C804.655 215.842 804.676 215.816 804.69 215.787C804.704 215.757 804.71 215.725 804.708 215.692C804.738 215.518 804.738 215.34 804.708 215.165C804.816 215.135 804.93 215.135 805.038 215.165C805.151 215.184 805.266 215.184 805.378 215.165C805.598 215.095 805.488 214.767 805.488 214.628C805.865 214.608 806.242 214.608 806.618 214.628C806.538 214.33 806.618 214.091 807.008 214.071C807.398 214.051 807.868 214.071 808.288 214.071C808.253 214.171 808.253 214.279 808.288 214.379C808.418 214.737 808.958 214.379 809.168 214.628C809.248 214.717 809.168 215.165 809.168 215.294C809.155 215.377 809.172 215.463 809.218 215.533C809.334 215.634 809.485 215.687 809.638 215.682C810.048 215.682 810.158 215.682 810.248 215.404C810.248 215.404 810.308 214.986 810.248 214.976C810.968 215.056 811.248 215.066 811.248 214.499C811.225 214.424 811.225 214.344 811.248 214.27C811.408 214.051 812.568 214.19 812.858 214.19C813.148 214.19 812.988 214.777 813.018 214.996C813.018 215.036 813.026 215.076 813.044 215.112C813.061 215.148 813.087 215.18 813.118 215.205C813.358 215.374 813.648 215.205 813.828 215.374C814.008 215.543 813.928 215.921 814.008 216.11C814.23 216.578 814.52 217.01 814.868 217.393C815.268 217.841 816.208 217.662 816.868 217.662C817.108 217.662 818.038 216.608 818.208 216.458C818.263 216.413 818.31 216.359 818.348 216.299C818.398 216.208 818.419 216.104 818.408 216.001C818.484 215.423 818.664 214.864 818.938 214.349C819.148 213.902 820.558 213.991 821.048 213.981C821.088 213.992 821.129 213.992 821.168 213.981C821.184 213.973 821.197 213.962 821.207 213.948C821.218 213.934 821.225 213.919 821.228 213.902C821.298 213.733 821.388 213.186 821.588 213.096C821.658 213.081 821.729 213.081 821.798 213.096C822.688 213.096 823.568 213.096 824.448 213.096C824.398 213.939 824.479 214.785 824.688 215.603C824.688 215.871 825.008 216.239 825.138 216.488C825.143 216.507 825.153 216.525 825.167 216.539C825.181 216.553 825.199 216.563 825.218 216.568C825.234 216.575 825.251 216.579 825.268 216.579C825.286 216.579 825.303 216.575 825.318 216.568C827.108 215.921 828.828 215.006 830.558 214.25L834.408 212.549C835.416 211.96 836.551 211.619 837.718 211.554C838.868 211.554 840.008 211.634 841.148 211.753C842.135 211.96 843.15 211.994 844.148 211.853C844.848 211.703 845.498 211.475 846.148 211.286C849.004 210.689 851.935 210.535 854.838 210.828C854.998 211.166 854.988 211.614 855.488 211.823C855.813 211.915 856.152 211.949 856.488 211.922H857.328C858.733 211.808 860.144 211.808 861.548 211.922C862.998 212.131 864.438 212.35 865.878 212.589C867.318 212.827 868.878 213.166 870.468 213.384C870.512 213.389 870.555 213.389 870.598 213.384C870.698 213.384 870.708 213.255 870.698 213.176C870.679 212.96 870.679 212.744 870.698 212.529C870.697 212.48 870.708 212.431 870.731 212.388C870.754 212.344 870.787 212.307 870.828 212.28C870.916 212.254 871.01 212.254 871.098 212.28C872.508 212.28 873.918 212.231 875.328 212.231C875.528 212.216 875.729 212.216 875.928 212.231C876.149 212.284 876.364 212.361 876.568 212.459L881.258 214.548L883.568 215.543C884.253 215.94 884.972 216.273 885.718 216.538C885.882 216.624 886.063 216.675 886.248 216.687C886.422 216.687 886.595 216.657 886.758 216.598C888.358 216.1 889.948 215.603 891.508 215.076C893.003 214.573 894.571 214.317 896.148 214.32H906.398C907.504 214.25 908.613 214.25 909.718 214.32C909.608 214.091 909.818 213.842 910.038 213.663C910.798 212.922 911.775 212.441 912.828 212.29C913.953 212.325 915.061 212.564 916.098 212.997L918.428 213.812C918.972 214.016 919.53 214.179 920.098 214.3C921.273 214.466 922.47 214.332 923.578 213.912C924.098 213.753 924.578 213.573 925.108 213.394C925.654 213.136 926.228 212.942 926.818 212.817C926.937 212.771 927.062 212.744 927.188 212.738C927.281 212.746 927.371 212.766 927.458 212.798C928.278 213.056 929.138 213.275 929.928 213.564C930.437 213.793 930.962 213.986 931.498 214.141C932.096 214.249 932.701 214.302 933.308 214.3C934.493 214.307 935.674 214.156 936.818 213.852C937.832 213.523 938.863 213.254 939.908 213.046C940.572 212.971 941.241 212.945 941.908 212.967H950.258C951.478 212.971 952.695 213.071 953.898 213.265C955.988 213.573 958.078 213.902 960.178 214.2C962.118 214.479 964.058 214.867 966.018 215.026C968.558 215.225 971.158 215.026 973.698 215.026L978.248 214.956H980.348C981.408 214.956 982.498 214.797 983.348 215.414C983.75 215.837 984.233 216.175 984.768 216.409C985.609 216.538 986.461 216.568 987.308 216.498C987.744 216.519 988.18 216.488 988.608 216.409C989.868 216.13 990.548 215.066 991.728 214.638C992.371 214.411 993.066 214.377 993.728 214.538C994.348 214.698 994.608 215.165 995.168 215.394C995.743 215.576 996.35 215.634 996.948 215.563C997.458 215.563 999.268 215.822 999.508 215.444C999.528 215.375 999.528 215.303 999.508 215.235C999.508 214.966 999.508 214.708 999.508 214.449C999.508 214.449 999.508 214.379 999.508 214.359C999.547 214.345 999.59 214.345 999.628 214.359C1000.17 214.255 1000.72 214.255 1001.26 214.359C1001.62 214.504 1001.93 214.749 1002.15 215.066C1003.42 216.359 1005.58 216.578 1007.41 217.165C1009.24 217.752 1011 218.726 1013.02 218.876L1022.39 219.562L1035.68 220.557C1036.36 220.652 1037.05 220.563 1037.68 220.298C1038.65 219.704 1039.76 219.377 1040.9 219.353C1041.87 219.427 1042.83 219.638 1043.75 219.98C1044.65 220.318 1045.57 220.601 1046.51 220.825C1047.91 221.115 1049.37 221.084 1050.76 220.736C1050.99 220.676 1051.22 220.606 1051.46 220.557C1051.85 220.504 1052.24 220.48 1052.63 220.487C1052.83 220.476 1053.03 220.496 1053.22 220.547C1053.34 220.598 1053.46 220.661 1053.57 220.736C1054.39 221.289 1055.16 221.915 1055.87 222.606C1055.95 222.695 1056.05 222.772 1056.16 222.835C1057.28 222.962 1058.42 223.015 1059.55 222.994V221.949H1062.19V221.124L1064.19 220.636L1065.07 220.935L1065.95 221.213V221.661H1068.28C1068.49 221.661 1068.28 222.119 1068.28 222.119H1069.85V222.865H1074.61V222.308C1074.61 222.238 1074.61 222.079 1074.61 222.039C1074.72 222.024 1074.84 222.024 1074.95 222.039C1075.07 222.039 1077.77 223.193 1077.77 223.193H1079.93C1080.07 223.193 1079.93 222.835 1079.93 222.835H1083.14C1086.3 221.949 1089.48 220.706 1092.85 220.388C1096.7 220.084 1100.57 220.464 1104.28 221.512C1107.99 222.398 1111.62 223.607 1115.13 225.123C1116.04 225.616 1116.99 226.006 1117.99 226.287C1121.29 227.043 1124.4 225.292 1127.45 224.635C1131.12 224.025 1134.84 223.729 1138.57 223.75C1144.41 223.424 1150.26 223.567 1156.08 224.178C1157.75 224.397 1159.74 225.063 1161.41 225.043C1163.08 225.023 1164.62 224.218 1166.05 223.81C1167.46 223.456 1168.91 223.315 1170.36 223.392H1177L1177.16 221.472H1174.71L1193.05 210.679L1208.61 222.367H1207.01V226.098H1209.28C1209.78 225.689 1210.35 225.379 1210.96 225.182C1211.17 225.163 1211.38 225.163 1211.59 225.182C1212.03 225.182 1212.47 225.242 1212.9 225.302C1213.28 225.321 1213.65 225.434 1213.98 225.63C1214.2 225.849 1213.98 226.088 1213.98 226.346C1213.98 226.499 1214.02 226.65 1214.1 226.782C1214.18 226.915 1214.29 227.025 1214.42 227.102C1214.72 227.363 1215.05 227.575 1215.42 227.729C1215.49 227.784 1215.58 227.821 1215.67 227.838C1215.79 227.841 1215.9 227.817 1216.01 227.769C1216.87 227.433 1217.76 227.193 1218.67 227.053C1219.44 226.993 1220.22 226.993 1220.99 227.053C1221.2 227.048 1221.41 227.068 1221.62 227.112C1222.11 227.295 1222.58 227.504 1223.05 227.739C1223.59 227.87 1224.17 227.846 1224.7 227.669C1226.51 227.133 1228.43 227.064 1230.28 227.47C1231.04 227.765 1231.85 227.94 1232.67 227.988C1233.46 227.988 1234.24 227.778 1234.92 227.381C1235.16 227.188 1235.44 227.043 1235.74 226.953C1235.89 226.938 1236.04 226.938 1236.19 226.953C1237.16 226.887 1238.14 226.957 1239.09 227.162C1239.93 227.45 1240.81 227.572 1241.7 227.52C1242.07 227.451 1242.44 227.361 1242.81 227.252C1243.76 227.053 1244.74 226.982 1245.72 227.043C1246.42 226.993 1247.13 226.993 1247.84 227.043L1249.93 227.441L1251.68 228.226C1251.97 228.397 1252.28 228.534 1252.6 228.634C1252.83 228.634 1252.94 228.306 1253.05 228.137C1253.07 228.089 1253.11 228.05 1253.16 228.027C1253.21 228.018 1253.26 228.018 1253.31 228.027C1253.88 227.937 1254.47 227.937 1255.04 228.027C1255.11 228.08 1255.17 228.153 1255.2 228.236L1255.86 229.49C1255.88 229.532 1255.9 229.57 1255.94 229.599C1255.99 229.626 1256.05 229.643 1256.11 229.649C1256.37 229.649 1256.92 229.908 1257.17 229.758C1257.22 229.728 1257.27 229.684 1257.3 229.629C1257.6 229.243 1257.84 228.814 1258.01 228.356C1258.13 227.918 1258.01 227.48 1258.47 227.132C1258.84 226.853 1259.24 226.61 1259.66 226.406C1260.19 226.1 1260.68 225.729 1261.12 225.302C1261.35 225.034 1261.64 224.831 1261.98 224.715C1262.22 224.68 1262.46 224.68 1262.7 224.715C1264.08 224.775 1265.53 224.824 1266.93 225.023C1267.77 225.123 1268.6 225.303 1269.41 225.56C1269.81 225.679 1270.19 225.868 1270.53 226.118C1270.88 226.456 1271.15 226.871 1271.32 227.331C1271.66 227.923 1271.9 228.574 1272 229.251L1272.92 229.062C1274.34 228.316 1274.69 229.559 1275.07 229.878C1275.27 230.057 1276.16 230.873 1276.55 230.664C1280.55 228.754 1282.42 228.137 1282.67 227.948L1284.67 229.251H1288L1290.13 238.731Z" fill="#040707"/>
<path opacity="0.1" d="M1327.5 154.873C1327.42 155.252 1327.26 155.67 1327.02 155.908C1326.79 156.147 1326.37 156.31 1326 156.391C1326.37 156.473 1326.79 156.636 1327.02 156.875C1327.26 157.113 1327.42 157.53 1327.5 157.91C1327.58 157.53 1327.74 157.113 1327.98 156.874C1328.21 156.636 1328.63 156.473 1329 156.391C1328.63 156.31 1328.21 156.147 1327.98 155.908C1327.74 155.67 1327.58 155.252 1327.5 154.873Z" fill="white"/>
<path opacity="0.5" d="M321.5 68.833C321.42 69.2123 321.258 69.6296 321.023 69.8683C320.787 70.1068 320.375 70.2702 320 70.3515C320.375 70.4328 320.787 70.5958 321.023 70.8346C321.258 71.0733 321.42 71.4902 321.5 71.8697C321.58 71.4902 321.742 71.0733 321.978 70.8345C322.213 70.5958 322.625 70.4325 323 70.3511C322.625 70.2701 322.213 70.1068 321.977 69.8681C321.742 69.6296 321.58 69.2123 321.5 68.833Z" fill="white"/>
<path opacity="0.1" d="M1374.5 184.229C1374.42 184.608 1374.26 185.025 1374.02 185.264C1373.79 185.502 1373.37 185.666 1373 185.747C1373.37 185.828 1373.79 185.991 1374.02 186.23C1374.26 186.469 1374.42 186.886 1374.5 187.265C1374.58 186.886 1374.74 186.469 1374.98 186.23C1375.21 185.991 1375.63 185.828 1376 185.747C1375.63 185.666 1375.21 185.502 1374.98 185.264C1374.74 185.025 1374.58 184.608 1374.5 184.229Z" fill="white"/>
<path opacity="0.1" d="M352.5 108.311C352.42 108.69 352.258 109.107 352.023 109.346C351.787 109.584 351.375 109.748 351 109.829C351.375 109.91 351.787 110.073 352.023 110.312C352.258 110.551 352.42 110.968 352.5 111.347C352.58 110.968 352.742 110.551 352.978 110.312C353.213 110.073 353.625 109.91 354 109.829C353.625 109.748 353.213 109.584 352.977 109.346C352.742 109.107 352.58 108.69 352.5 108.311Z" fill="white"/>
<path opacity="0.1" d="M395.5 136.653C395.42 137.033 395.258 137.45 395.023 137.689C394.787 137.927 394.375 138.091 394 138.172C394.375 138.253 394.787 138.416 395.023 138.655C395.258 138.894 395.42 139.311 395.5 139.69C395.58 139.311 395.742 138.894 395.978 138.655C396.213 138.416 396.625 138.253 397 138.171C396.625 138.09 396.213 137.927 395.977 137.688C395.742 137.45 395.58 137.033 395.5 136.653Z" fill="white"/>
<path opacity="0.5" d="M432.5 76.9307C432.42 77.31 432.258 77.7273 432.023 77.9659C431.787 78.2044 431.375 78.3679 431 78.4491C431.375 78.5305 431.787 78.6934 432.023 78.9323C432.258 79.1709 432.42 79.5879 432.5 79.9674C432.58 79.5879 432.742 79.1709 432.978 78.9321C433.213 78.6935 433.625 78.5302 434 78.4488C433.625 78.3677 433.213 78.2045 432.977 77.9658C432.742 77.7273 432.58 77.31 432.5 76.9307Z" fill="white"/>
<path opacity="0.1" d="M1029.5 172.082C1029.42 172.461 1029.26 172.879 1029.02 173.117C1028.79 173.356 1028.37 173.519 1028 173.6C1028.37 173.682 1028.79 173.845 1029.02 174.084C1029.26 174.322 1029.42 174.739 1029.5 175.119C1029.58 174.739 1029.74 174.322 1029.98 174.083C1030.21 173.845 1030.63 173.682 1031 173.6C1030.63 173.519 1030.21 173.356 1029.98 173.117C1029.74 172.879 1029.58 172.461 1029.5 172.082Z" fill="white"/>
<path opacity="0.1" d="M1005.5 144.751C1005.42 145.13 1005.26 145.548 1005.02 145.786C1004.79 146.025 1004.37 146.188 1004 146.269C1004.37 146.351 1004.79 146.514 1005.02 146.753C1005.26 146.991 1005.42 147.408 1005.5 147.788C1005.58 147.408 1005.74 146.991 1005.98 146.752C1006.21 146.514 1006.63 146.35 1007 146.269C1006.63 146.188 1006.21 146.025 1005.98 145.786C1005.74 145.548 1005.58 145.13 1005.5 144.751Z" fill="white"/>
<path opacity="0.5" d="M747.5 146.775C747.42 147.155 747.258 147.572 747.023 147.811C746.787 148.049 746.375 148.213 746 148.294C746.375 148.375 746.787 148.538 747.023 148.777C747.258 149.016 747.42 149.433 747.5 149.812C747.58 149.433 747.742 149.016 747.978 148.777C748.213 148.538 748.625 148.375 749 148.294C748.625 148.212 748.213 148.049 747.977 147.811C747.742 147.572 747.58 147.155 747.5 146.775Z" fill="white"/>
<path opacity="0.1" d="M1000.5 91.1016C1000.42 91.4809 1000.26 91.8982 1000.02 92.1368C999.787 92.3753 999.375 92.5388 999 92.62C999.375 92.7014 999.787 92.8643 1000.02 93.1032C1000.26 93.3418 1000.42 93.7588 1000.5 94.1383C1000.58 93.7588 1000.74 93.3418 1000.98 93.103C1001.21 92.8644 1001.63 92.7011 1002 92.6197C1001.63 92.5386 1001.21 92.3754 1000.98 92.1367C1000.74 91.8982 1000.58 91.4809 1000.5 91.1016Z" fill="white"/>
<path opacity="0.1" d="M889.5 170.058C889.42 170.437 889.258 170.854 889.023 171.093C888.787 171.331 888.375 171.495 888 171.576C888.375 171.657 888.787 171.82 889.023 172.059C889.258 172.298 889.42 172.715 889.5 173.094C889.58 172.715 889.742 172.298 889.978 172.059C890.213 171.82 890.625 171.657 891 171.576C890.625 171.495 890.213 171.331 889.977 171.093C889.742 170.854 889.58 170.437 889.5 170.058Z" fill="white"/>
<path opacity="0.1" d="M835.5 147.788C835.42 148.167 835.258 148.585 835.023 148.823C834.787 149.062 834.375 149.225 834 149.307C834.375 149.388 834.787 149.551 835.023 149.79C835.258 150.028 835.42 150.445 835.5 150.825C835.58 150.445 835.742 150.028 835.978 149.79C836.213 149.551 836.625 149.388 837 149.306C836.625 149.225 836.213 149.062 835.977 148.823C835.742 148.585 835.58 148.167 835.5 147.788Z" fill="white"/>
<path opacity="0.1" d="M1202.5 105.273C1202.42 105.653 1202.26 106.07 1202.02 106.309C1201.79 106.547 1201.37 106.711 1201 106.792C1201.37 106.873 1201.79 107.036 1202.02 107.275C1202.26 107.514 1202.42 107.931 1202.5 108.31C1202.58 107.931 1202.74 107.514 1202.98 107.275C1203.21 107.036 1203.63 106.873 1204 106.792C1203.63 106.71 1203.21 106.547 1202.98 106.309C1202.74 106.07 1202.58 105.653 1202.5 105.273Z" fill="white"/>
<path opacity="0.5" d="M227.5 164.996C227.42 165.375 227.258 165.793 227.023 166.031C226.787 166.27 226.375 166.433 226 166.515C226.375 166.596 226.787 166.759 227.023 166.998C227.258 167.236 227.42 167.653 227.5 168.033C227.58 167.653 227.742 167.236 227.978 166.998C228.213 166.759 228.625 166.596 229 166.514C228.625 166.433 228.213 166.27 227.977 166.031C227.742 165.793 227.58 165.375 227.5 164.996Z" fill="white"/>
<path opacity="0.5" d="M1129.5 106.286C1129.42 106.665 1129.26 107.083 1129.02 107.321C1128.79 107.56 1128.37 107.723 1128 107.805C1128.37 107.886 1128.79 108.049 1129.02 108.288C1129.26 108.526 1129.42 108.943 1129.5 109.323C1129.58 108.943 1129.74 108.526 1129.98 108.288C1130.21 108.049 1130.63 107.886 1131 107.804C1130.63 107.723 1130.21 107.56 1129.98 107.321C1129.74 107.083 1129.58 106.665 1129.5 106.286Z" fill="white"/>
<path opacity="0.5" d="M986.5 179.167C986.42 179.546 986.258 179.964 986.023 180.202C985.787 180.441 985.375 180.604 985 180.685C985.375 180.767 985.787 180.93 986.023 181.169C986.258 181.407 986.42 181.824 986.5 182.204C986.58 181.824 986.742 181.407 986.978 181.168C987.213 180.93 987.625 180.767 988 180.685C987.625 180.604 987.213 180.441 986.977 180.202C986.742 179.964 986.58 179.546 986.5 179.167Z" fill="white"/>
<path opacity="0.5" d="M952.5 135.641C952.42 136.02 952.258 136.437 952.023 136.676C951.787 136.914 951.375 137.078 951 137.159C951.375 137.24 951.787 137.403 952.023 137.642C952.258 137.881 952.42 138.298 952.5 138.677C952.58 138.298 952.742 137.881 952.978 137.642C953.213 137.403 953.625 137.24 954 137.159C953.625 137.078 953.213 136.914 952.977 136.676C952.742 136.437 952.58 136.02 952.5 135.641Z" fill="white"/>
<path opacity="0.5" d="M893.5 124.506C893.42 124.885 893.258 125.302 893.023 125.541C892.787 125.78 892.375 125.943 892 126.024C892.375 126.106 892.787 126.269 893.023 126.507C893.258 126.746 893.42 127.163 893.5 127.543C893.58 127.163 893.742 126.746 893.978 126.507C894.213 126.269 894.625 126.105 895 126.024C894.625 125.943 894.213 125.78 893.977 125.541C893.742 125.302 893.58 124.885 893.5 124.506Z" fill="white"/>
<path opacity="0.5" d="M693 158.923C692.946 159.302 692.839 159.719 692.682 159.958C692.525 160.197 692.25 160.36 692 160.441C692.25 160.523 692.525 160.686 692.682 160.924C692.839 161.163 692.947 161.58 693 161.96C693.054 161.58 693.161 161.163 693.318 160.924C693.475 160.686 693.75 160.522 694 160.441C693.75 160.36 693.475 160.197 693.318 159.958C693.161 159.719 693.053 159.302 693 158.923Z" fill="white"/>
<path opacity="0.5" d="M632 175.118C631.946 175.497 631.839 175.915 631.682 176.153C631.525 176.392 631.25 176.555 631 176.637C631.25 176.718 631.525 176.881 631.682 177.12C631.839 177.358 631.947 177.775 632 178.155C632.054 177.775 632.161 177.358 632.318 177.12C632.475 176.881 632.75 176.718 633 176.636C632.75 176.555 632.475 176.392 632.318 176.153C632.161 175.915 632.053 175.498 632 175.118Z" fill="white"/>
<path opacity="0.5" d="M296 105.273C295.946 105.653 295.839 106.07 295.682 106.309C295.525 106.547 295.25 106.711 295 106.792C295.25 106.873 295.525 107.036 295.682 107.275C295.839 107.514 295.947 107.931 296 108.31C296.054 107.931 296.161 107.514 296.318 107.275C296.475 107.036 296.75 106.873 297 106.792C296.75 106.71 296.475 106.547 296.318 106.309C296.161 106.07 296.053 105.653 296 105.273Z" fill="white"/>
<path opacity="0.1" d="M570.5 143.738C570.42 144.118 570.258 144.535 570.023 144.774C569.787 145.012 569.375 145.176 569 145.257C569.375 145.338 569.787 145.501 570.023 145.74C570.258 145.979 570.42 146.396 570.5 146.775C570.58 146.396 570.742 145.979 570.978 145.74C571.213 145.501 571.625 145.338 572 145.256C571.625 145.175 571.213 145.012 570.977 144.773C570.742 144.535 570.58 144.118 570.5 143.738Z" fill="white"/>
<path opacity="0.2" d="M1256.5 181.191C1256.37 181.824 1256.1 182.519 1255.7 182.917C1255.31 183.314 1254.62 183.587 1254 183.722C1254.62 183.858 1255.31 184.129 1255.7 184.527C1256.1 184.925 1256.37 185.62 1256.5 186.253C1256.63 185.62 1256.9 184.925 1257.3 184.527C1257.69 184.129 1258.38 183.857 1259 183.722C1258.38 183.586 1257.69 183.314 1257.3 182.917C1256.9 182.519 1256.63 181.824 1256.5 181.191Z" fill="white"/>
<path opacity="0.2" d="M403.5 172.082C403.366 172.714 403.097 173.41 402.704 173.808C402.311 174.205 401.625 174.477 401 174.613C401.625 174.748 402.311 175.02 402.704 175.418C403.097 175.816 403.367 176.511 403.5 177.143C403.634 176.511 403.903 175.816 404.296 175.418C404.689 175.02 405.376 174.748 406 174.612C405.376 174.477 404.689 174.205 404.296 173.807C403.903 173.41 403.633 172.714 403.5 172.082Z" fill="white"/>
<path opacity="0.2" d="M251.5 49.5996C251.366 50.2318 251.097 50.9273 250.704 51.3251C250.311 51.7226 249.625 51.995 249 52.1304C249.625 52.266 250.311 52.5376 250.704 52.9356C251.097 53.3334 251.367 54.0283 251.5 54.6608C251.634 54.0283 251.903 53.3334 252.296 52.9354C252.689 52.5376 253.376 52.2655 254 52.1298C253.376 51.9947 252.689 51.7226 252.296 51.3248C251.903 50.9273 251.633 50.2318 251.5 49.5996Z" fill="white"/>
<path opacity="0.1" d="M1090.5 134.629C1090.37 135.261 1090.1 135.957 1089.7 136.354C1089.31 136.752 1088.62 137.024 1088 137.16C1088.62 137.295 1089.31 137.567 1089.7 137.965C1090.1 138.363 1090.37 139.058 1090.5 139.69C1090.63 139.058 1090.9 138.363 1091.3 137.965C1091.69 137.567 1092.38 137.295 1093 137.159C1092.38 137.024 1091.69 136.752 1091.3 136.354C1090.9 135.957 1090.63 135.261 1090.5 134.629Z" fill="white"/>
<path opacity="0.1" d="M161.5 71.8691C161.366 72.5013 161.097 73.1968 160.704 73.5946C160.311 73.9921 159.625 74.2645 159 74.3999C159.625 74.5355 160.311 74.8071 160.704 75.2052C161.097 75.6029 161.367 76.2978 161.5 76.9304C161.634 76.2978 161.903 75.6029 162.296 75.2049C162.689 74.8071 163.376 74.535 164 74.3994C163.376 74.2642 162.689 73.9921 162.296 73.5944C161.903 73.1969 161.633 72.5014 161.5 71.8691Z" fill="white"/>
<path opacity="0.1" d="M158.5 127.543C158.366 128.175 158.097 128.871 157.704 129.268C157.311 129.666 156.625 129.938 156 130.074C156.625 130.209 157.311 130.481 157.704 130.879C158.097 131.277 158.367 131.972 158.5 132.604C158.634 131.972 158.903 131.277 159.296 130.879C159.689 130.481 160.376 130.209 161 130.073C160.376 129.938 159.689 129.666 159.296 129.268C158.903 128.871 158.633 128.175 158.5 127.543Z" fill="white"/>
<path opacity="0.2" d="M1042.5 105.273C1042.37 105.906 1042.1 106.601 1041.7 106.999C1041.31 107.396 1040.62 107.669 1040 107.804C1040.62 107.94 1041.31 108.211 1041.7 108.609C1042.1 109.007 1042.37 109.702 1042.5 110.335C1042.63 109.702 1042.9 109.007 1043.3 108.609C1043.69 108.211 1044.38 107.939 1045 107.804C1044.38 107.669 1043.69 107.396 1043.3 106.999C1042.9 106.601 1042.63 105.906 1042.5 105.273Z" fill="white"/>
<path opacity="0.2" d="M662.5 115.396C662.366 116.028 662.097 116.723 661.704 117.121C661.311 117.518 660.625 117.791 660 117.926C660.625 118.062 661.311 118.333 661.704 118.732C662.097 119.129 662.367 119.824 662.5 120.457C662.634 119.824 662.903 119.129 663.296 118.731C663.689 118.334 664.376 118.061 665 117.926C664.376 117.791 663.689 117.519 663.296 117.121C662.903 116.723 662.633 116.028 662.5 115.396Z" fill="white"/>
<path opacity="0.2" d="M493.5 123.494C493.366 124.126 493.097 124.822 492.704 125.22C492.311 125.617 491.625 125.89 491 126.025C491.625 126.161 492.311 126.432 492.704 126.83C493.097 127.228 493.367 127.923 493.5 128.555C493.634 127.923 493.903 127.228 494.296 126.83C494.689 126.432 495.376 126.16 496 126.024C495.376 125.889 494.689 125.617 494.296 125.219C493.903 124.822 493.633 124.126 493.5 123.494Z" fill="white"/>
<path opacity="0.2" d="M804.5 105.273C804.366 105.906 804.097 106.601 803.704 106.999C803.311 107.396 802.625 107.669 802 107.804C802.625 107.94 803.311 108.211 803.704 108.609C804.097 109.007 804.367 109.702 804.5 110.335C804.634 109.702 804.903 109.007 805.296 108.609C805.689 108.211 806.376 107.939 807 107.804C806.376 107.669 805.689 107.396 805.296 106.999C804.903 106.601 804.633 105.906 804.5 105.273Z" fill="white"/>
<path opacity="0.2" d="M580.5 108.311C580.366 108.943 580.097 109.638 579.704 110.036C579.311 110.434 578.625 110.706 578 110.841C578.625 110.977 579.311 111.249 579.704 111.647C580.097 112.044 580.367 112.739 580.5 113.372C580.634 112.739 580.903 112.044 581.296 111.646C581.689 111.249 582.376 110.976 583 110.841C582.376 110.706 581.689 110.434 581.296 110.036C580.903 109.638 580.633 108.943 580.5 108.311Z" fill="white"/>
<path opacity="0.1" d="M927.5 78.9551C927.366 79.5873 927.097 80.2828 926.704 80.6805C926.311 81.0781 925.625 81.3505 925 81.4858C925.625 81.6215 926.311 81.893 926.704 82.2911C927.097 82.6888 927.367 83.3838 927.5 84.0163C927.634 83.3838 927.903 82.6889 928.296 82.2908C928.689 81.8931 929.376 81.6209 930 81.4853C929.376 81.3502 928.689 81.0781 928.296 80.6803C927.903 80.2828 927.633 79.5873 927.5 78.9551Z" fill="white"/>
<path opacity="0.5" d="M724.5 108.311C724.366 108.943 724.097 109.638 723.704 110.036C723.311 110.434 722.625 110.706 722 110.841C722.625 110.977 723.311 111.249 723.704 111.647C724.097 112.044 724.367 112.739 724.5 113.372C724.634 112.739 724.903 112.044 725.296 111.646C725.689 111.249 726.376 110.976 727 110.841C726.376 110.706 725.689 110.434 725.296 110.036C724.903 109.638 724.633 108.943 724.5 108.311Z" fill="white"/>
<path opacity="0.5" d="M421.5 110.335C421.366 110.967 421.097 111.663 420.704 112.06C420.311 112.458 419.625 112.73 419 112.866C419.625 113.001 420.311 113.273 420.704 113.671C421.097 114.069 421.367 114.764 421.5 115.396C421.634 114.764 421.903 114.069 422.296 113.671C422.689 113.273 423.376 113.001 424 112.865C423.376 112.73 422.689 112.458 422.296 112.06C421.903 111.663 421.633 110.967 421.5 110.335Z" fill="white"/>
<path opacity="0.5" d="M104.5 34.416C104.366 35.0482 104.097 35.7437 103.704 36.1415C103.311 36.539 102.625 36.8114 102 36.9468C102.625 37.0824 103.311 37.354 103.704 37.752C104.097 38.1498 104.367 38.8447 104.5 39.4772C104.634 38.8447 104.903 38.1498 105.296 37.7518C105.689 37.354 106.376 37.0819 107 36.9462C106.376 36.8111 105.689 36.539 105.296 36.1412C104.903 35.7437 104.633 35.0482 104.5 34.416Z" fill="white"/>
<path opacity="0.5" d="M939.5 177.143C939.42 177.522 939.258 177.939 939.023 178.178C938.787 178.416 938.375 178.58 938 178.661C938.375 178.742 938.787 178.905 939.023 179.144C939.258 179.383 939.42 179.8 939.5 180.179C939.58 179.8 939.742 179.383 939.978 179.144C940.213 178.905 940.625 178.742 941 178.661C940.625 178.58 940.213 178.416 939.977 178.178C939.742 177.939 939.58 177.522 939.5 177.143Z" fill="white"/>
<path opacity="0.2" d="M1193.5 181.191C1193.37 181.824 1193.1 182.519 1192.7 182.917C1192.31 183.314 1191.62 183.587 1191 183.722C1191.62 183.858 1192.31 184.129 1192.7 184.527C1193.1 184.925 1193.37 185.62 1193.5 186.253C1193.63 185.62 1193.9 184.925 1194.3 184.527C1194.69 184.129 1195.38 183.857 1196 183.722C1195.38 183.586 1194.69 183.314 1194.3 182.917C1193.9 182.519 1193.63 181.824 1193.5 181.191Z" fill="white"/>
<path opacity="0.2" d="M201.5 112.359C201.366 112.992 201.097 113.687 200.704 114.085C200.311 114.482 199.625 114.755 199 114.89C199.625 115.026 200.311 115.297 200.704 115.695C201.097 116.093 201.367 116.788 201.5 117.421C201.634 116.788 201.903 116.093 202.296 115.695C202.689 115.297 203.376 115.025 204 114.89C203.376 114.754 202.689 114.482 202.296 114.085C201.903 113.687 201.633 112.992 201.5 112.359Z" fill="white"/>
<path opacity="0.2" d="M238 107.298C237.946 107.551 237.839 107.829 237.682 107.988C237.525 108.147 237.25 108.256 237 108.31C237.25 108.364 237.525 108.473 237.682 108.632C237.839 108.791 237.947 109.069 238 109.322C238.054 109.069 238.161 108.791 238.318 108.632C238.475 108.473 238.75 108.364 239 108.31C238.75 108.256 238.475 108.147 238.318 107.988C238.161 107.829 238.053 107.551 238 107.298Z" fill="white"/>
<path opacity="0.5" d="M126 147.788C125.946 148.041 125.839 148.319 125.682 148.478C125.525 148.637 125.25 148.746 125 148.8C125.25 148.855 125.525 148.963 125.682 149.122C125.839 149.282 125.947 149.56 126 149.813C126.054 149.56 126.161 149.282 126.318 149.122C126.475 148.963 126.75 148.854 127 148.8C126.75 148.746 126.475 148.637 126.318 148.478C126.161 148.319 126.053 148.041 126 147.788Z" fill="white"/>
<path opacity="0.2" d="M183 155.886C182.946 156.139 182.839 156.417 182.682 156.576C182.525 156.735 182.25 156.844 182 156.898C182.25 156.952 182.525 157.061 182.682 157.22C182.839 157.379 182.947 157.657 183 157.91C183.054 157.657 183.161 157.379 183.318 157.22C183.475 157.061 183.75 156.952 184 156.898C183.75 156.844 183.475 156.735 183.318 156.576C183.161 156.417 183.053 156.139 183 155.886Z" fill="white"/>
<path opacity="0.2" d="M68.9999 132.604C68.9464 132.857 68.839 133.136 68.6818 133.295C68.5246 133.454 68.2498 133.563 68 133.617C68.2498 133.671 68.5246 133.78 68.6818 133.939C68.839 134.098 68.9466 134.376 69.0001 134.629C69.0536 134.376 69.1611 134.098 69.3183 133.939C69.4754 133.78 69.7502 133.671 70 133.617C69.7502 133.563 69.4754 133.454 69.3182 133.295C69.1611 133.136 69.0534 132.857 68.9999 132.604Z" fill="white"/>
<path opacity="0.5" d="M87.4998 179.167C87.366 179.799 87.0975 180.495 86.7044 180.892C86.3114 181.29 85.6245 181.562 85 181.698C85.6245 181.833 86.3114 182.105 86.7044 182.503C87.0975 182.901 87.3666 183.596 87.5003 184.228C87.634 183.596 87.9026 182.901 88.2958 182.503C88.6886 182.105 89.3756 181.833 90 181.697C89.3756 181.562 88.6886 181.29 88.2956 180.892C87.9026 180.495 87.6334 179.799 87.4998 179.167Z" fill="white"/>
<path opacity="0.2" d="M107.5 102.236C107.366 102.869 107.097 103.564 106.704 103.962C106.311 104.359 105.625 104.632 105 104.767C105.625 104.903 106.311 105.174 106.704 105.572C107.097 105.97 107.367 106.665 107.5 107.298C107.634 106.665 107.903 105.97 108.296 105.572C108.689 105.174 109.376 104.902 110 104.767C109.376 104.631 108.689 104.359 108.296 103.962C107.903 103.564 107.633 102.869 107.5 102.236Z" fill="white"/>
<path opacity="0.5" d="M1265.5 130.58C1265.37 131.212 1265.1 131.908 1264.7 132.306C1264.31 132.703 1263.62 132.975 1263 133.111C1263.62 133.246 1264.31 133.518 1264.7 133.916C1265.1 134.314 1265.37 135.009 1265.5 135.641C1265.63 135.009 1265.9 134.314 1266.3 133.916C1266.69 133.518 1267.38 133.246 1268 133.11C1267.38 132.975 1266.69 132.703 1266.3 132.305C1265.9 131.908 1265.63 131.212 1265.5 130.58Z" fill="white"/>
<path opacity="0.1" d="M1370.5 0C1370.37 0.632195 1370.1 1.32768 1369.7 1.72547C1369.31 2.12297 1368.62 2.39538 1368 2.53074C1368.62 2.6664 1369.31 2.93796 1369.7 3.33601C1370.1 3.73377 1370.37 4.42871 1370.5 5.06122C1370.63 4.42871 1370.9 3.7338 1371.3 3.33575C1371.69 2.93799 1372.38 2.66585 1373 2.53023C1372.38 2.39509 1371.69 2.12301 1371.3 1.72521C1370.9 1.32771 1370.63 0.632227 1370.5 0Z" fill="white"/>
<path opacity="0.5" d="M1227.5 63.7715C1227.37 64.4037 1227.1 65.0992 1226.7 65.497C1226.31 65.8945 1225.62 66.1669 1225 66.3022C1225.62 66.4379 1226.31 66.7094 1226.7 67.1075C1227.1 67.5053 1227.37 68.2002 1227.5 68.8327C1227.63 68.2002 1227.9 67.5053 1228.3 67.1072C1228.69 66.7095 1229.38 66.4373 1230 66.3017C1229.38 66.1666 1228.69 65.8945 1228.3 65.4967C1227.9 65.0992 1227.63 64.4037 1227.5 63.7715Z" fill="white"/>
</svg>
