<svg width="1440" height="250" viewBox="0 0 1440 250" fill="none" xmlns="http://www.w3.org/2000/svg">
<path d="M570.299 222.62V232.52H310.609V230.03L312.949 226.75H326.589L328.859 229.17H332.209V230.42H342.819L347.069 226.17L351.839 230.49L358.909 220.72V218.12H361.189V220.3H365.669V222.18H371.799L377.879 216.09H385.319V212.82L388.389 209.75H389.169V206.89H393.119L392.489 207.52H391.489V208.87H392.489V213.03H394.999V212.09H397.389V210.43H400.089V211.99H401.759V218.69H404.149V215.83L408.519 197.74V189.42H409.349V184.33H410.279V189.42H411.429V197.42L415.689 215.82V218.42H418.389V217.07H422.549V226.95H424.999V221.75H439.699V222.75H441.569V228.05H446.869V225.66H450.409V229.93H453.109V226.39H456.749V229.2H463.409V230.96H464.999V227.62H467.489V224.4H468.999V226.9H470.349V223.57H471.189V221.49H473.469V220.14H477.219L489.589 217.33H498.639V215.25H506.539L512.049 220.03V222.42H513.189V224.3H517.769L520.059 221.07H525.459V215.53C526.079 215.2 526.699 214.9 527.329 214.62V217.12H528.169V221.28H534.169L536.089 223.2V225.02H537.389V221.49H540.609V217.43H541.609V221.59L542.809 222.79V226.91H545.809V224.62H546.359V223.88H558.639V225.12H560.739V223.32H562.999V221.21H568.999V222.62H570.299Z" fill="#4A4C4C"/>
<path d="M322.299 179.12C322.479 178.661 322.573 178.174 322.579 177.68C322.575 176.809 322.287 175.963 321.759 175.27L330.199 166.62L326.999 163.48L318.519 172.14C317.725 170.795 316.589 169.684 315.226 168.92C313.863 168.157 312.323 167.768 310.761 167.793C309.199 167.818 307.672 168.257 306.335 169.065C304.997 169.872 303.898 171.02 303.149 172.39H302.999C302.352 172.39 301.713 172.518 301.116 172.765C300.519 173.012 299.976 173.375 299.52 173.832C299.063 174.288 298.7 174.831 298.453 175.428C298.206 176.025 298.079 176.664 298.079 177.31C298.086 178.079 298.271 178.835 298.619 179.52C297.256 180.633 296.354 182.211 296.089 183.95H295.809V185.45C295.809 192.61 301.219 213.33 309.359 215.67V221.85H303.549V224.85H318.199V221.85H312.379V215.62C320.519 213.28 325.929 192.56 325.929 185.4V183.9H325.439C325.302 182.921 324.949 181.984 324.406 181.157C323.863 180.331 323.143 179.635 322.299 179.12ZM310.879 212.87C305.459 212.87 299.559 195.76 298.879 186.95H322.879C322.209 195.76 316.299 212.87 310.879 212.87Z" fill="#4A4C4C"/>
<path d="M1093 210.023C1093 210.288 1093.11 210.542 1093.29 210.73C1093.48 210.917 1093.73 211.023 1094 211.023H1118C1118.27 211.023 1118.52 210.917 1118.71 210.73C1118.89 210.542 1119 210.288 1119 210.023V209.023C1119 208.757 1118.89 208.503 1118.71 208.315C1118.52 208.128 1118.27 208.023 1118 208.023H1116.62C1116.54 205.266 1115.38 202.651 1113.4 200.732C1111.42 198.812 1108.77 197.738 1106.02 197.738C1103.26 197.738 1100.61 198.812 1098.63 200.732C1096.65 202.651 1095.49 205.266 1095.41 208.023H1094.02C1093.75 208.023 1093.5 208.128 1093.31 208.315C1093.13 208.503 1093.02 208.757 1093.02 209.023L1093 210.023Z" fill="#FFAE00"/>
<path d="M1106.54 196.192C1106.85 196.075 1107.11 195.853 1107.28 195.563C1107.44 195.274 1107.5 194.936 1107.44 194.609C1107.38 194.282 1107.21 193.986 1106.95 193.773C1106.7 193.56 1106.37 193.443 1106.04 193.443C1105.71 193.443 1105.39 193.56 1105.13 193.773C1104.88 193.986 1104.7 194.282 1104.64 194.609C1104.58 194.936 1104.64 195.274 1104.81 195.563C1104.97 195.853 1105.23 196.075 1105.54 196.192V197.332H1106.54V196.192Z" fill="#FFAE00"/>
<path d="M1096.92 189.942C1097.03 189.854 1097.1 189.729 1097.11 189.593C1097.13 189.457 1097.09 189.32 1097 189.212C1096.92 189.104 1096.79 189.036 1096.65 189.021C1096.52 189.006 1096.38 189.046 1096.27 189.132C1096.05 189.324 1095.87 189.56 1095.75 189.826C1095.62 190.091 1095.55 190.38 1095.54 190.674C1095.54 190.968 1095.59 191.26 1095.7 191.531C1095.81 191.803 1095.98 192.048 1096.19 192.252C1097.07 193.362 1095.7 194.982 1095.68 194.992C1095.59 195.097 1095.55 195.232 1095.56 195.369C1095.57 195.506 1095.64 195.632 1095.74 195.722C1095.79 195.764 1095.84 195.797 1095.9 195.82C1095.95 195.842 1096.01 195.853 1096.07 195.852C1096.15 195.852 1096.22 195.836 1096.29 195.805C1096.36 195.774 1096.42 195.728 1096.47 195.672C1096.55 195.582 1098.41 193.392 1097 191.602C1096.23 190.622 1096.81 190.042 1096.92 189.942Z" fill="#040707"/>
<path d="M1101.46 189.943C1101.57 189.856 1101.64 189.731 1101.65 189.594C1101.67 189.457 1101.63 189.32 1101.54 189.213C1101.5 189.16 1101.45 189.116 1101.39 189.083C1101.33 189.051 1101.27 189.03 1101.2 189.023C1101.13 189.015 1101.06 189.021 1101 189.04C1100.93 189.059 1100.87 189.09 1100.82 189.133C1100.6 189.324 1100.42 189.56 1100.29 189.825C1100.17 190.09 1100.1 190.379 1100.09 190.673C1100.08 190.967 1100.13 191.259 1100.24 191.531C1100.35 191.803 1100.52 192.049 1100.73 192.253C1101.61 193.363 1100.24 194.983 1100.23 194.993C1100.14 195.09 1100.08 195.221 1100.08 195.358C1100.08 195.494 1100.14 195.625 1100.23 195.723C1100.28 195.771 1100.34 195.81 1100.4 195.836C1100.46 195.863 1100.53 195.876 1100.6 195.876C1100.66 195.876 1100.73 195.863 1100.79 195.836C1100.86 195.81 1100.91 195.771 1100.96 195.723C1101.04 195.633 1102.96 193.443 1101.49 191.653C1100.76 190.623 1101.34 190.043 1101.46 189.943Z" fill="#040707"/>
<path d="M1110.31 195.722C1110.41 195.806 1110.53 195.852 1110.65 195.852C1110.73 195.852 1110.8 195.836 1110.87 195.805C1110.93 195.774 1110.99 195.728 1111.04 195.672C1111.12 195.582 1113.04 193.392 1111.57 191.602C1110.79 190.602 1111.37 190.042 1111.49 189.932C1111.55 189.89 1111.59 189.838 1111.62 189.779C1111.65 189.72 1111.68 189.655 1111.68 189.588C1111.69 189.521 1111.68 189.454 1111.67 189.389C1111.65 189.324 1111.62 189.264 1111.57 189.212C1111.49 189.104 1111.36 189.036 1111.22 189.021C1111.09 189.006 1110.95 189.046 1110.84 189.132C1110.62 189.325 1110.44 189.561 1110.32 189.827C1110.19 190.092 1110.13 190.381 1110.12 190.674C1110.11 190.967 1110.16 191.259 1110.27 191.53C1110.39 191.802 1110.55 192.048 1110.76 192.252C1111.64 193.362 1110.27 194.982 1110.26 194.992C1110.22 195.042 1110.18 195.102 1110.16 195.166C1110.14 195.231 1110.13 195.299 1110.13 195.367C1110.14 195.435 1110.16 195.502 1110.19 195.563C1110.22 195.623 1110.26 195.678 1110.31 195.722Z" fill="#040707"/>
<path d="M1116.02 189.942C1116.08 189.901 1116.13 189.848 1116.16 189.788C1116.2 189.727 1116.22 189.66 1116.23 189.59C1116.24 189.52 1116.24 189.449 1116.22 189.381C1116.2 189.313 1116.17 189.25 1116.12 189.195C1116.08 189.14 1116.02 189.094 1115.96 189.061C1115.9 189.028 1115.83 189.008 1115.76 189.002C1115.69 188.996 1115.62 189.004 1115.55 189.027C1115.49 189.049 1115.42 189.085 1115.37 189.132C1115.15 189.324 1114.97 189.561 1114.84 189.826C1114.72 190.092 1114.65 190.381 1114.64 190.674C1114.63 190.968 1114.69 191.26 1114.8 191.532C1114.91 191.804 1115.08 192.049 1115.29 192.252C1116.17 193.362 1114.8 194.982 1114.78 194.992C1114.69 195.097 1114.65 195.233 1114.66 195.37C1114.67 195.506 1114.74 195.633 1114.84 195.722C1114.93 195.807 1115.06 195.853 1115.18 195.852C1115.25 195.851 1115.33 195.834 1115.39 195.803C1115.46 195.772 1115.52 195.728 1115.57 195.672C1115.65 195.582 1117.51 193.392 1116.1 191.602C1115.31 190.622 1115.92 190.042 1116.02 189.942Z" fill="#040707"/>
<path d="M762.748 228.779C761.318 230.499 758.748 230.639 756.538 230.639C748.538 230.639 740.538 230.639 732.538 230.639L512.538 230.269C509.968 230.269 506.288 228.509 507.648 226.269C508.071 225.721 508.65 225.313 509.308 225.099C509.738 224.909 510.158 224.749 510.598 224.599C516.768 222.399 523.688 222.599 529.868 220.389C532.181 219.5 534.399 218.381 536.488 217.049C539.738 215.049 542.858 212.799 546.228 211.049C546.728 210.779 547.228 210.549 547.718 210.319C547.928 210.229 548.128 210.129 548.338 210.049C553.528 207.829 559.228 207.209 564.838 206.609L604.698 202.359C610.505 201.908 616.267 200.992 621.928 199.619C629.698 197.509 637.278 193.619 645.308 194.189C654.548 194.809 662.828 201.239 672.078 200.989C676.338 200.869 680.458 199.319 684.718 199.179C693.718 198.869 701.718 204.689 710.448 206.639C713.628 207.349 716.898 207.539 720.078 208.179C734.258 211.029 746.078 224.379 760.558 224.379C762.648 223.559 764.168 227.059 762.748 228.779Z" fill="#4A4C4C"/>
<path d="M1028.74 235.981C1020.18 239.981 1010.04 240.121 1000.43 240.121H732.79C730.79 240.121 728.43 240.011 727.05 238.501C725.31 236.591 726.05 233.331 727.99 231.591C729.93 229.851 732.53 229.201 735.05 228.591C754.31 224.036 773.264 218.275 791.8 211.341C795.26 210.041 798.93 208.681 802.57 209.341C805.57 209.911 808.92 211.811 811.57 210.191C812.68 209.511 813.42 208.291 814.57 207.751C816.09 207.061 817.86 207.671 819.41 208.281L842 217.171C845.5 218.541 849.13 219.931 852.87 219.681C857.64 219.371 861.87 216.461 866.45 215.291C875.67 212.971 885.36 217.771 894.77 216.471C897.63 216.071 900.39 215.121 903.25 214.781C908.05 214.201 912.86 215.331 917.6 216.311C933.028 219.464 948.758 220.889 964.5 220.561C969.778 220.293 975.066 220.319 980.34 220.641C989.34 221.481 998.01 224.641 1006.53 227.791L1028.74 235.981Z" fill="#4A4C4C"/>
<path d="M1260.59 239.62H1125.26C1123.54 239.62 1121.6 239.48 1120.43 237.48C1119.74 236.116 1119.47 234.577 1119.66 233.06C1119.67 232.912 1119.69 232.765 1119.72 232.62C1119.81 231.86 1119.98 231.112 1120.24 230.39C1120.36 230.023 1120.51 229.666 1120.69 229.32C1120.69 229.21 1120.8 229.1 1120.86 228.99C1120.97 228.775 1121.1 228.568 1121.24 228.37C1121.5 228.015 1121.79 227.68 1122.1 227.37C1123.53 226.02 1125.27 225.032 1127.16 224.49C1128.76 223.89 1130.37 223.28 1131.96 222.65H1142.5V221.52H1145.21V217.08C1146.55 216.48 1147.89 215.86 1149.21 215.23C1150.38 214.68 1151.55 214.13 1152.72 213.56C1160.18 209.96 1167.57 206.014 1174.88 201.72C1177.8 200.01 1180.88 198.21 1183.94 199.09C1186.51 199.82 1189.29 202.34 1191.5 200.21C1192.44 199.32 1193.06 197.7 1194.05 196.99C1195.33 196.08 1196.81 196.88 1198.12 197.68C1203.29 200.88 1208.46 204.064 1213.63 207.23L1225.15 215.23L1232.15 220.1L1237.01 223.46L1237.75 223.97L1238.52 224.49L1240.93 226.17L1242.72 227.4L1245.02 228.98L1245.59 229.38L1247.14 230.45L1256.98 237.25L1260.59 239.62Z" fill="#4A4C4C"/>
<path d="M1264.08 228.03H1220.26C1219.92 228.074 1219.58 227.998 1219.29 227.815C1219.01 227.632 1218.79 227.354 1218.69 227.03C1218.28 225.643 1218.37 224.155 1218.95 222.83C1219.35 222.015 1220.03 221.373 1220.87 221.02C1226.38 218.073 1231.56 214.553 1236.33 210.52C1237.33 209.74 1238.33 208.91 1239.26 209.32C1240.19 209.73 1240.99 210.82 1241.71 209.83C1242.02 209.42 1242.22 208.68 1242.54 208.35C1242.86 208.02 1243.43 208.35 1243.86 208.67L1248.86 213.07L1264.08 228.03Z" fill="#4A4C4C"/>
<path d="M465.002 203.16C464.691 202.885 464.296 202.723 463.881 202.703C463.467 202.683 463.057 202.806 462.722 203.05C462.526 203.193 462.362 203.374 462.238 203.582C462.114 203.79 462.033 204.021 462 204.261C461.967 204.501 461.984 204.745 462.047 204.978C462.111 205.212 462.222 205.43 462.372 205.62L458.462 201.32L454.062 205.32C454.321 205.086 454.507 204.781 454.597 204.443C454.687 204.105 454.677 203.749 454.568 203.416C454.459 203.084 454.257 202.79 453.985 202.57C453.713 202.351 453.383 202.214 453.036 202.178C452.688 202.142 452.337 202.207 452.025 202.366C451.714 202.524 451.455 202.77 451.28 203.073C451.105 203.375 451.022 203.722 451.04 204.072C451.058 204.421 451.177 204.757 451.382 205.04C451.532 205.245 451.723 205.416 451.943 205.542C452.163 205.668 452.408 205.747 452.66 205.773C452.912 205.8 453.167 205.773 453.409 205.695C453.65 205.617 453.873 205.489 454.062 205.32L449.672 209.32L452.872 212.83C452.863 212.525 452.931 212.223 453.07 211.952C453.209 211.68 453.415 211.448 453.668 211.277C453.92 211.107 454.212 211.002 454.516 210.975C454.82 210.947 455.126 210.996 455.405 211.118C455.685 211.24 455.929 211.431 456.115 211.673C456.301 211.915 456.423 212.2 456.47 212.501C456.516 212.803 456.486 213.111 456.381 213.398C456.277 213.684 456.102 213.94 455.872 214.14C455.68 214.312 455.455 214.442 455.211 214.521C454.966 214.6 454.708 214.627 454.452 214.6L457.652 218.11L466.442 210.11L462.542 205.83C462.715 206.008 462.923 206.148 463.152 206.242C463.382 206.336 463.628 206.382 463.876 206.377C464.124 206.372 464.368 206.316 464.594 206.212C464.819 206.108 465.021 205.96 465.186 205.775C465.352 205.59 465.478 205.373 465.556 205.138C465.634 204.903 465.663 204.654 465.641 204.407C465.619 204.16 465.547 203.92 465.428 203.702C465.309 203.484 465.147 203.293 464.952 203.14L465.002 203.16Z" fill="#040707"/>
<path d="M468.26 197.761C468.366 197.573 468.409 197.356 468.382 197.143C468.355 196.929 468.259 196.73 468.11 196.575C467.96 196.42 467.765 196.317 467.552 196.282C467.34 196.247 467.122 196.282 466.93 196.381L469.18 194.251L467 191.941C467.13 192.089 467.299 192.196 467.489 192.248C467.678 192.3 467.879 192.295 468.066 192.234C468.252 192.173 468.417 192.058 468.539 191.904C468.661 191.75 468.735 191.563 468.751 191.367C468.768 191.172 468.726 190.975 468.631 190.803C468.537 190.631 468.394 190.49 468.22 190.399C468.046 190.307 467.849 190.269 467.653 190.289C467.458 190.309 467.272 190.386 467.12 190.511C467.017 190.596 466.932 190.7 466.869 190.819C466.807 190.937 466.769 191.067 466.758 191.2C466.747 191.334 466.763 191.468 466.804 191.595C466.846 191.722 466.913 191.84 467 191.941L464.82 189.641L463 191.381C463.18 191.389 463.355 191.445 463.505 191.544C463.656 191.642 463.777 191.78 463.855 191.942C463.934 192.103 463.968 192.283 463.953 192.463C463.938 192.642 463.875 192.814 463.77 192.961C463.681 193.061 463.571 193.142 463.45 193.199C463.328 193.256 463.196 193.287 463.061 193.292C462.927 193.297 462.793 193.274 462.667 193.226C462.542 193.177 462.427 193.104 462.33 193.011C462.237 192.909 462.166 192.789 462.121 192.658C462.076 192.527 462.059 192.388 462.07 192.251L460.23 194.001L464.59 198.611L466.84 196.481C466.706 196.655 466.633 196.87 466.633 197.091C466.633 197.311 466.706 197.526 466.84 197.701C466.929 197.798 467.037 197.878 467.157 197.934C467.276 197.99 467.406 198.021 467.538 198.027C467.67 198.032 467.802 198.012 467.926 197.966C468.05 197.92 468.164 197.851 468.26 197.761Z" fill="#040707"/>
<path d="M290.388 217.329H290.218C290.108 217.329 290.068 217.329 290.058 217.179C290.058 216.629 289.968 216.089 289.928 215.549C289.828 214.449 289.738 213.349 289.648 212.249C289.648 211.979 289.648 211.709 289.578 211.449C289.578 211.349 289.578 211.289 289.698 211.299C289.818 211.309 289.788 211.299 289.788 211.239C289.788 211.179 289.728 211.179 289.678 211.179H289.368C289.298 211.179 289.268 211.179 289.268 211.079C289.268 210.729 289.268 210.389 289.268 210.029C289.268 209.959 289.318 209.919 289.358 209.869C289.379 209.85 289.396 209.827 289.408 209.801C289.42 209.775 289.426 209.747 289.426 209.719C289.426 209.691 289.42 209.663 289.408 209.637C289.396 209.611 289.379 209.588 289.358 209.569C289.323 209.536 289.276 209.518 289.228 209.518C289.18 209.518 289.133 209.536 289.098 209.569C289.077 209.588 289.06 209.611 289.048 209.637C289.036 209.663 289.03 209.691 289.03 209.719C289.03 209.747 289.036 209.775 289.048 209.801C289.06 209.827 289.077 209.85 289.098 209.869C289.128 209.895 289.151 209.928 289.166 209.964C289.182 210 289.189 210.04 289.188 210.079C289.188 210.389 289.188 210.709 289.188 211.029C289.188 211.169 289.128 211.189 289.018 211.189H288.728C288.678 211.189 288.648 211.189 288.648 211.259C288.648 211.329 288.648 211.259 288.708 211.259H288.888C288.908 211.398 288.908 211.54 288.888 211.679C288.788 213.059 288.698 214.439 288.598 215.819C288.598 216.249 288.528 216.689 288.508 217.129C288.508 217.259 288.448 217.299 288.338 217.289H287.728C287.558 217.289 287.548 217.289 287.548 217.469C287.548 217.649 287.548 217.779 287.548 217.929C287.548 218.079 287.548 218.089 287.398 218.089H286.128C286.058 218.089 286.028 218.089 286.028 218.189V222.679C286.028 222.749 286.028 222.769 285.918 222.769H282.608C282.518 222.769 282.468 222.769 282.468 222.649C282.473 222.576 282.473 222.502 282.468 222.429V199.259C282.468 198.869 282.538 198.959 282.158 198.849L280.708 198.439C280.683 198.438 280.658 198.431 280.635 198.42C280.612 198.408 280.592 198.392 280.576 198.372C280.56 198.353 280.548 198.329 280.541 198.305C280.535 198.28 280.534 198.254 280.538 198.229C280.538 197.719 280.538 197.229 280.538 196.709C280.538 196.499 280.538 196.489 280.338 196.419L277.528 195.419C277.278 195.319 277.308 195.359 277.308 195.089C277.308 194.149 277.308 193.219 277.308 192.289C277.314 192.222 277.3 192.156 277.268 192.097C277.236 192.038 277.187 191.99 277.128 191.959L273.978 190.089C273.923 190.052 273.86 190.028 273.794 190.019C273.728 190.011 273.661 190.017 273.598 190.039L272.228 190.399C272.048 190.449 272.048 190.449 272.048 190.639V193.639C272.048 193.919 272.048 193.879 271.818 193.949L270.818 194.199C270.638 194.249 270.638 194.249 270.638 194.439V195.619C270.638 195.839 270.638 195.839 270.418 195.889L269.608 196.069C269.428 196.069 269.428 196.069 269.428 196.309V197.699C269.428 197.949 269.428 197.909 269.218 197.969L268.388 198.159C268.278 198.159 268.228 198.209 268.238 198.329C268.243 198.386 268.243 198.442 268.238 198.499V208.149C268.238 208.239 268.238 208.269 268.118 208.269C267.998 208.269 268.028 208.209 268.028 208.149V207.269C268.028 207.179 268.028 207.139 267.898 207.149H261.198C260.898 207.149 260.918 207.149 260.918 207.419V208.369C260.918 208.559 260.918 208.559 260.738 208.559H259.688C259.566 208.558 259.445 208.589 259.338 208.649L258.198 209.299C258.148 209.299 258.108 209.299 258.058 209.299C258.008 209.299 257.948 209.389 257.888 209.429C257.662 209.571 257.428 209.701 257.188 209.819C257.103 209.854 257.032 209.916 256.987 209.996C256.942 210.076 256.925 210.168 256.938 210.259C256.938 213.459 256.938 216.659 256.938 219.859C256.933 219.922 256.933 219.986 256.938 220.049C256.944 220.072 256.944 220.096 256.938 220.119V228.119H293.568V217.329H290.388Z" fill="#4A4C4C"/>
<path d="M1439.99 227.359H0V249.859H1439.99V227.359Z" fill="#040707"/>
<path d="M537.539 239.669H1059V222.329C1058.86 222.229 1058.71 222.149 1058.55 222.029C1058.15 221.749 1057.78 220.899 1057.36 220.439L1054.98 219.689L1052.69 218.959L1047.44 217.319C1046.05 216.766 1044.61 216.327 1043.15 216.009C1042.98 216.009 1042.81 215.974 1042.66 215.907C1042.5 215.84 1042.36 215.742 1042.25 215.619C1042.17 215.479 1042.15 215.339 1042.01 215.239C1041.9 215.214 1041.79 215.214 1041.69 215.239L1040.4 215.139C1040.3 215.359 1040.19 215.559 1040.09 215.769C1039.53 215.742 1038.96 215.802 1038.42 215.949C1038.01 216.072 1037.59 216.169 1037.17 216.239C1036.58 216.309 1035.96 216.239 1035.36 216.239C1034.91 216.34 1034.46 216.47 1034.03 216.629C1032.84 216.8 1031.64 216.883 1030.44 216.879C1029.44 216.979 1028.44 217.309 1027.44 217.429C1026.94 217.469 1026.44 217.469 1025.94 217.429C1025.41 217.484 1024.88 217.409 1024.39 217.209C1024.3 217.168 1024.22 217.109 1024.16 217.035C1024.09 216.96 1024.05 216.873 1024.02 216.779C1024.02 216.779 1024.02 216.779 1024.02 216.719H1024C1023.77 216.719 1023.52 216.719 1023.27 216.719C1023.22 216.726 1023.16 216.726 1023.11 216.719C1023.08 216.699 1023.06 216.673 1023.05 216.643C1023.04 216.614 1023.04 216.581 1023.04 216.549C1023.01 216.374 1023.01 216.195 1023.04 216.019C1022.93 215.989 1022.81 215.989 1022.7 216.019C1022.59 216.039 1022.48 216.039 1022.37 216.019C1022.14 215.949 1022.26 215.629 1022.26 215.489C1021.88 215.47 1021.5 215.47 1021.12 215.489C1021.2 215.199 1021.12 214.949 1020.74 214.939C1020.36 214.929 1019.87 214.939 1019.45 214.939C1019.47 214.986 1019.48 215.037 1019.48 215.089C1019.48 215.141 1019.47 215.192 1019.45 215.239C1019.33 215.599 1018.79 215.239 1018.58 215.489C1018.5 215.579 1018.58 216.029 1018.58 216.169C1018.59 216.254 1018.57 216.338 1018.52 216.409C1018.46 216.459 1018.4 216.498 1018.32 216.522C1018.25 216.546 1018.17 216.555 1018.1 216.549C1017.7 216.549 1017.58 216.549 1017.5 216.269C1017.5 216.269 1017.44 215.849 1017.5 215.839C1016.79 215.929 1016.5 215.939 1016.5 215.369C1016.52 215.295 1016.52 215.214 1016.5 215.139C1016.34 214.919 1015.18 215.049 1014.89 215.049C1014.6 215.049 1014.76 215.649 1014.73 215.869C1014.73 215.909 1014.72 215.949 1014.7 215.984C1014.68 216.019 1014.65 216.048 1014.62 216.069C1014.39 216.239 1014.1 216.069 1013.91 216.239C1013.72 216.409 1013.81 216.789 1013.74 216.989C1013.52 217.46 1013.23 217.892 1012.87 218.269C1012.48 218.719 1011.54 218.539 1010.87 218.539C1010.62 218.539 1009.7 217.489 1009.52 217.329C1009.34 217.169 1009.41 217.239 1009.39 217.179C1009.34 217.087 1009.32 216.983 1009.33 216.879C1009.25 216.298 1009.08 215.736 1008.8 215.219C1008.58 214.759 1007.18 214.849 1006.69 214.839C1006.65 214.85 1006.6 214.85 1006.56 214.839C1006.56 214.839 1006.56 214.839 1006.56 214.759C1006.56 214.679 1006.4 214.039 1006.19 213.959C1006.12 213.944 1006.05 213.944 1005.99 213.959C1005.1 213.959 1004.21 213.959 1003.34 213.959C1003.39 214.807 1003.31 215.656 1003.1 216.479C1003.1 216.739 1002.78 217.109 1002.65 217.359C1002.65 217.359 1002.65 217.439 1002.57 217.449C1002.53 217.463 1002.49 217.463 1002.46 217.449C1000.67 216.799 998.959 215.869 997.229 215.109C995.939 214.549 994.649 213.979 993.379 213.399C992.373 212.802 991.237 212.459 990.069 212.399C988.919 212.399 987.779 212.479 986.629 212.589C985.644 212.806 984.628 212.843 983.629 212.699C982.939 212.539 982.279 212.309 981.629 212.119C978.77 211.518 975.835 211.366 972.929 211.669C972.779 211.999 972.789 212.459 972.289 212.619C971.965 212.715 971.626 212.752 971.289 212.729H970.449C969.045 212.614 967.633 212.614 966.229 212.729C964.769 212.949 963.339 213.169 961.889 213.409C960.439 213.649 958.889 213.979 957.309 214.209H957.179C957.139 214.193 957.106 214.163 957.088 214.124C957.069 214.085 957.066 214.04 957.079 213.999C957.079 213.769 957.079 213.549 957.079 213.339C957.077 213.29 957.065 213.243 957.042 213.2C957.02 213.156 956.988 213.119 956.949 213.089C956.861 213.063 956.767 213.063 956.679 213.089C955.269 213.089 953.849 213.039 952.449 213.039C952.25 213.019 952.049 213.019 951.849 213.039C951.627 213.089 951.412 213.166 951.209 213.269L946.519 215.359L944.209 216.409C943.52 216.798 942.801 217.132 942.059 217.409C941.894 217.492 941.714 217.54 941.529 217.549C941.356 217.553 941.183 217.526 941.019 217.469C939.409 216.969 937.829 216.469 936.269 215.939C934.771 215.433 933.2 215.176 931.619 215.179H921.409C920.307 215.109 919.201 215.109 918.099 215.179C918.199 214.949 917.999 214.699 917.779 214.519C917.021 213.77 916.043 213.283 914.989 213.129C913.865 213.163 912.756 213.404 911.719 213.839C910.929 214.109 910.159 214.379 909.389 214.669C908.842 214.864 908.285 215.028 907.719 215.159C906.545 215.318 905.349 215.184 904.239 214.769L902.699 214.249C902.162 213.966 901.591 213.755 900.999 213.619C900.88 213.565 900.75 213.534 900.619 213.529C900.529 213.536 900.44 213.559 900.359 213.599C899.539 213.859 898.679 214.069 897.889 214.369C897.376 214.589 896.852 214.783 896.319 214.949C895.721 215.053 895.116 215.106 894.509 215.109C893.323 215.099 892.143 214.934 890.999 214.619C889.987 214.285 888.955 214.014 887.909 213.809C887.246 213.726 886.577 213.696 885.909 213.719H877.569C876.35 213.729 875.133 213.829 873.929 214.019C871.829 214.339 869.739 214.659 867.649 214.959C865.559 215.259 863.759 215.639 861.809 215.799C859.259 215.989 856.659 215.799 854.119 215.749L849.579 215.679H847.469C846.409 215.679 845.329 215.529 844.529 216.149C844.126 216.572 843.643 216.912 843.109 217.149C842.269 217.28 841.416 217.31 840.569 217.239C840.13 217.265 839.69 217.235 839.259 217.149C838.009 216.879 837.329 215.809 836.149 215.379C835.492 215.137 834.777 215.102 834.099 215.279C833.469 215.429 833.219 215.899 832.659 216.129C832.082 216.315 831.472 216.377 830.869 216.309C830.369 216.309 828.559 216.569 828.319 216.179C828.298 216.111 828.298 216.038 828.319 215.969C828.319 215.699 828.319 215.439 828.319 215.179C828.319 215.179 828.319 215.109 828.319 215.089C828.283 215.079 828.245 215.079 828.209 215.089C827.668 214.979 827.11 214.979 826.569 215.089C826.215 215.238 825.908 215.48 825.679 215.789C824.419 217.099 822.259 217.319 820.429 217.899C818.599 218.479 816.839 219.469 814.819 219.629H814.759L805.389 220.319C800.969 220.639 796.529 220.969 792.109 221.319C791.43 221.417 790.738 221.323 790.109 221.049C789.138 220.456 788.027 220.132 786.889 220.109C785.914 220.175 784.954 220.384 784.039 220.729C783.134 221.073 782.209 221.36 781.269 221.589C779.863 221.881 778.41 221.847 777.019 221.489L776.329 221.319C775.939 221.258 775.544 221.231 775.149 221.239C774.951 221.23 774.752 221.25 774.559 221.299L774.219 221.489C773.397 222.048 772.627 222.681 771.919 223.379C771.831 223.466 771.734 223.543 771.629 223.609C770.5 223.729 769.364 223.779 768.229 223.759V222.759H765.599V222.019L763.599 221.529L762.719 221.839L761.839 222.119V222.559H759.509C759.299 222.559 759.509 223.019 759.509 223.019H757.929V223.769H753.179V222.949H752.409V222.279H751.629V222.979H750.779L749.989 224.149H747.839C747.699 224.149 747.839 223.779 747.839 223.779H744.629C741.469 222.899 738.279 221.649 734.919 221.319C731.072 221.021 727.202 221.407 723.489 222.459C719.773 223.346 716.143 224.557 712.639 226.079C711.732 226.575 710.773 226.967 709.779 227.249C706.469 228.009 703.369 226.249 700.319 225.589C696.644 224.98 692.924 224.685 689.199 224.709C683.357 224.377 677.498 224.52 671.679 225.139C670.009 225.359 668.029 226.019 666.349 225.999C664.669 225.979 663.139 225.179 661.719 224.759C660.312 224.403 658.859 224.262 657.409 224.339H650.699L650.529 222.419H652.989L634.639 211.559L618.999 223.249H620.589V226.969H618.329C617.834 226.558 617.263 226.249 616.649 226.059C616.437 226.034 616.222 226.034 616.009 226.059C615.579 226.059 615.129 226.119 614.709 226.179C614.328 226.194 613.957 226.304 613.629 226.499C613.399 226.719 613.629 226.959 613.629 227.219C613.632 227.374 613.592 227.526 613.515 227.66C613.437 227.794 613.325 227.905 613.189 227.979C612.895 228.248 612.557 228.465 612.189 228.619C612.111 228.664 612.027 228.697 611.939 228.719C611.823 228.721 611.707 228.701 611.599 228.659C610.741 228.323 609.849 228.078 608.939 227.929C608.167 227.869 607.391 227.869 606.619 227.929C606.405 227.921 606.19 227.938 605.979 227.979C605.449 228.109 605.059 228.449 604.559 228.619C604.012 228.747 603.441 228.72 602.909 228.539C601.095 228.008 599.176 227.943 597.329 228.349C596.564 228.644 595.758 228.819 594.939 228.869C594.147 228.869 593.37 228.655 592.689 228.249C592.445 228.059 592.167 227.916 591.869 227.829C591.719 227.789 591.564 227.769 591.409 227.769C590.441 227.703 589.468 227.774 588.519 227.979C587.682 228.272 586.795 228.398 585.909 228.349C585.519 228.289 585.159 228.159 584.799 228.079C583.843 227.879 582.864 227.808 581.889 227.869C581.184 227.814 580.475 227.814 579.769 227.869L577.679 228.259C577.099 228.519 576.509 228.779 575.929 229.059C575.639 229.228 575.33 229.362 575.009 229.459C574.769 229.459 574.659 229.139 574.559 228.959C574.532 228.916 574.494 228.882 574.449 228.859C574.4 228.85 574.349 228.85 574.299 228.859C573.723 228.768 573.136 228.768 572.559 228.859C572.488 228.911 572.435 228.985 572.409 229.069L571.749 230.329C571.733 230.373 571.701 230.409 571.659 230.429C571.606 230.441 571.552 230.441 571.499 230.429C571.229 230.429 570.689 230.689 570.439 230.549C570.379 230.522 570.332 230.471 570.309 230.409C570 230.027 569.76 229.594 569.599 229.129C569.479 228.689 569.599 228.259 569.139 227.899C568.766 227.619 568.368 227.375 567.949 227.169C567.415 226.866 566.921 226.496 566.479 226.069C566.255 225.792 565.957 225.584 565.619 225.469C565.384 225.434 565.144 225.434 564.909 225.469C563.519 225.539 562.079 225.589 560.689 225.779C559.847 225.878 559.016 226.059 558.209 226.319C557.804 226.429 557.424 226.615 557.089 226.869C556.726 227.206 556.454 227.629 556.299 228.099C555.951 228.694 555.717 229.348 555.609 230.029L554.699 229.829C553.279 229.079 552.919 230.339 552.539 230.659C552.339 230.839 551.449 231.659 551.059 231.439C547.059 229.529 545.199 228.899 544.949 228.709L542.949 230.029H539.699L537.539 239.669Z" fill="#040707"/>
<path d="M741.679 230.739H556.449V228.899L559.249 228.559L560.719 227.639H562.249L564.679 226.709L566.679 226.309L568.469 225.919L569.469 226.279L573.049 225.919L574.049 224.229H577.179L579.729 223.419L583.729 223.729L584.999 222.619L589.269 222.149C589.269 222.149 590.609 222.349 590.609 222.149C590.75 221.813 590.939 221.5 591.169 221.219H594.169L595.049 220.629L596.899 219.629L599.459 220.019L600.289 219.629H602.519C603.17 219.808 603.85 219.856 604.519 219.769L605.999 219.919L607.399 219.349L608.549 219.519L609.639 219.719L611.419 219.119H612.829H612.999C614.789 218.789 616.509 218.309 618.229 217.909L622.089 217.019C623.166 216.708 624.279 216.54 625.399 216.519C626.549 216.519 627.689 216.519 628.819 216.619C629.816 216.725 630.82 216.742 631.819 216.669C632.519 216.599 633.179 216.479 633.819 216.379C636.705 216.068 639.611 215.987 642.509 216.139C642.679 216.309 642.669 216.549 643.169 216.639C643.501 216.683 643.835 216.7 644.169 216.689H644.999C646.389 216.689 647.679 217.169 648.999 217.269C650.319 217.369 652.069 216.929 653.509 217.049C654.949 217.169 653.809 216.359 655.359 216.469C655.359 216.469 656.239 216.909 656.279 216.909C656.621 216.82 656.955 216.707 657.279 216.569C657.939 216.389 658.279 216.699 658.279 216.569C658.279 216.439 658.439 216.739 658.529 216.709C658.619 216.679 658.529 216.849 658.659 216.849H662.889C663.086 216.834 663.283 216.834 663.479 216.849C663.699 216.872 663.916 216.912 664.129 216.969L668.809 218.059L670.249 219.289L672.969 219.909L675.519 219.509L680.199 220.129V220.879C680.199 220.879 681.479 221.149 681.739 221.189C681.999 221.229 688.459 221.189 688.459 221.189L689.569 221.989L692.459 222.199L695.099 223.389L697.479 223.039L700.479 223.839H703.119L705.499 224.279L706.179 225.279L709.249 225.059L713.079 226.299L713.589 226.869L716.219 226.559L719.459 227.359L720.049 227.969H724.479L724.909 229.029L728.909 229.519H731.539V228.939L733.669 229.119L734.859 229.739H737.589L741.679 230.739Z" fill="#040707"/>
<path d="M201.539 227.35C201.629 227.36 201.719 227.36 201.809 227.35H377.479V224.23H372.679C372.621 224.25 372.557 224.25 372.499 224.23C372.461 224.194 372.434 224.149 372.419 224.1C372.364 223.85 372.276 223.608 372.159 223.38C372.069 223.16 371.989 222.93 371.909 222.71L371.319 221.15C371.302 221.085 371.267 221.026 371.219 220.98C371.147 220.938 371.062 220.92 370.979 220.93H369.689C369.256 220.95 368.821 220.91 368.399 220.81C368.177 220.764 367.968 220.669 367.789 220.53C367.629 220.41 367.539 220.06 367.379 220C367.294 219.975 367.204 219.975 367.119 220C366.681 220.143 366.259 220.33 365.859 220.56C365.369 220.78 364.639 220.9 364.259 220.42C364.099 220.23 363.599 219.76 363.519 219.64C363.193 219.364 362.825 219.141 362.429 218.98C362.069 218.86 361.999 218.98 361.429 218.98C360.859 218.98 360.179 218.93 360.069 218.98C359.479 218.98 358.919 218.52 358.359 218.36C357.698 218.169 356.992 218.212 356.359 218.48L355.999 218.62C355.079 218.916 354.098 218.974 353.149 218.79C352.339 218.68 351.589 218.31 350.789 218.12C349.947 217.937 349.09 217.833 348.229 217.81C347.452 217.763 346.672 217.857 345.929 218.09C345.176 218.326 344.387 218.424 343.599 218.38C343.009 218.38 342.429 218.33 341.839 218.38C341.289 218.408 340.743 218.491 340.209 218.63C340.17 218.64 340.128 218.64 340.089 218.63C340.039 218.63 340.009 218.58 339.969 218.55C339.603 218.194 339.162 217.924 338.679 217.76C338.178 217.531 337.628 217.431 337.079 217.47C336.639 217.54 336.209 217.62 335.769 217.71C335.329 217.8 335.139 217.91 334.769 217.95C334.399 217.99 333.989 217.95 333.589 217.95C332.809 217.913 332.027 217.966 331.259 218.11C330.799 218.22 330.369 218.39 329.919 218.52C329.13 218.701 328.327 218.818 327.519 218.87C327.269 218.87 327.019 218.87 326.779 218.93C326.523 219.009 326.257 219.05 325.989 219.05C325.848 219.021 325.711 218.978 325.579 218.92C324.984 218.678 324.351 218.543 323.709 218.52C322.452 218.581 321.203 218.759 319.979 219.05C319.62 219.129 319.28 219.278 318.979 219.49C318.629 219.69 318.279 219.89 317.919 220.07C317.429 220.29 316.952 220.537 316.489 220.81C315.999 221.13 315.679 221.68 315.149 221.92C314.459 222.171 313.745 222.352 313.019 222.46L310.749 222.99C310.486 223.05 310.212 223.05 309.949 222.99C309.782 222.946 309.606 222.946 309.439 222.99C309.379 222.99 309.319 223.08 309.259 223.09C309.199 223.1 309.069 223.03 308.989 223C308.843 222.945 308.686 222.924 308.53 222.938C308.374 222.952 308.224 223 308.089 223.08C308.089 222.97 307.929 222.95 307.839 223C307.749 223.05 307.629 223.12 307.539 223.05C307.449 222.98 307.479 222.95 307.449 222.9C307.385 222.811 307.291 222.749 307.185 222.723C307.079 222.697 306.967 222.71 306.869 222.76C306.649 222.85 306.339 223.14 306.089 223.04C305.839 222.94 305.899 222.88 305.809 222.79C305.748 222.734 305.674 222.694 305.594 222.673C305.514 222.652 305.43 222.651 305.349 222.67C305.179 222.67 305.029 222.84 304.839 222.85C304.649 222.86 304.519 222.75 304.349 222.74C304.179 222.73 304.029 222.85 303.859 222.86C303.689 222.87 303.369 222.73 303.159 222.86L303.059 222.93C302.909 222.99 302.789 222.88 302.659 222.83C302.486 222.768 302.3 222.751 302.119 222.78C301.558 222.903 301.007 223.067 300.469 223.27C299.69 223.48 298.868 223.48 298.089 223.27C298.005 223.244 297.917 223.227 297.829 223.22C297.596 223.232 297.373 223.316 297.189 223.46V223.77C296.895 223.779 296.606 223.847 296.339 223.97C296.19 224.058 296.036 224.138 295.879 224.21C295.717 224.239 295.551 224.239 295.389 224.21C295.195 224.238 295.004 224.285 294.819 224.35L293.559 224.68H293.429C293.279 224.68 293.189 224.48 293.089 224.38C292.94 224.263 292.765 224.184 292.579 224.15C292.34 224.118 292.103 224.071 291.869 224.01C291.616 223.907 291.369 223.791 291.129 223.66C291.003 223.605 290.867 223.576 290.729 223.576C290.591 223.576 290.455 223.605 290.329 223.66C290.274 223.697 290.213 223.724 290.149 223.74C290.093 223.736 290.038 223.721 289.988 223.695C289.939 223.669 289.895 223.633 289.859 223.59C289.492 223.298 289.025 223.161 288.559 223.21C288.487 223.225 288.412 223.225 288.339 223.21C288.274 223.186 288.213 223.153 288.159 223.11L287.229 222.36C287.181 222.316 287.122 222.286 287.059 222.27C287.003 222.26 286.945 222.26 286.889 222.27C286.583 222.355 286.267 222.395 285.949 222.39C285.641 222.368 285.334 222.441 285.069 222.6L284.759 222.19C284.731 222.149 284.698 222.112 284.659 222.08C284.593 222.064 284.525 222.064 284.459 222.08H283.939C283.893 222.069 283.845 222.069 283.799 222.08C283.754 222.111 283.714 222.148 283.679 222.19C283.435 222.388 283.122 222.482 282.809 222.45H281.889C281.827 222.43 281.761 222.43 281.699 222.45C281.648 222.513 281.607 222.584 281.579 222.66C281.469 222.89 281.269 222.88 281.069 222.98C280.844 223.083 280.661 223.259 280.549 223.48C280.533 223.533 280.505 223.581 280.467 223.621C280.428 223.661 280.381 223.692 280.329 223.71L279.859 223.92C279.838 223.923 279.818 223.931 279.801 223.943C279.784 223.955 279.769 223.971 279.759 223.99C279.759 223.99 279.759 224.05 279.759 224.08C279.759 224.11 279.759 224.35 279.679 224.4C279.599 224.45 279.389 224.4 279.279 224.4C279.13 224.449 278.968 224.449 278.819 224.4C278.75 224.354 278.689 224.296 278.639 224.23L278.369 223.9C278.322 223.834 278.26 223.779 278.189 223.74C278.124 223.72 278.054 223.72 277.989 223.74C277.634 223.78 277.275 223.78 276.919 223.74C276.669 223.68 276.529 223.28 276.419 223.06C276.401 223.013 276.369 222.972 276.328 222.942C276.288 222.912 276.239 222.894 276.189 222.89L274.729 222.55C274.729 222.55 274.439 222.87 274.379 222.9C274.191 222.963 273.996 223.007 273.799 223.03L272.479 223.31C272.453 223.492 272.381 223.664 272.269 223.81C272.214 223.866 272.154 223.916 272.089 223.96C271.86 224.073 271.648 224.217 271.459 224.39C271.307 224.553 271.176 224.734 271.069 224.93C270.783 224.781 270.509 224.611 270.249 224.42C269.978 224.245 269.661 224.155 269.339 224.16C269.002 224.214 268.656 224.176 268.339 224.05C268.141 223.911 267.93 223.79 267.709 223.69C267.596 223.675 267.482 223.675 267.369 223.69H266.039C265.689 223.69 265.179 223.81 264.979 223.45C264.889 223.29 264.849 223.09 264.759 222.93C264.673 222.804 264.563 222.697 264.433 222.616C264.304 222.535 264.16 222.482 264.009 222.46C263.709 222.39 263.399 222.39 263.099 222.33C262.943 222.295 262.794 222.234 262.659 222.15C262.497 222.017 262.358 221.859 262.249 221.68L261.709 220.89C261.683 220.83 261.637 220.78 261.579 220.75C261.514 220.729 261.444 220.729 261.379 220.75C261.076 220.775 260.772 220.775 260.469 220.75C260.227 220.688 259.999 220.58 259.799 220.43C259.416 220.103 258.993 219.827 258.539 219.61C258.174 219.513 257.797 219.466 257.419 219.47H257.219C257.151 219.438 257.09 219.394 257.039 219.34L255.849 218.34C255.811 218.296 255.763 218.261 255.709 218.24C255.656 218.23 255.602 218.23 255.549 218.24L254.249 218.32C253.515 218.327 252.785 218.212 252.089 217.98C251.435 217.822 250.76 217.765 250.089 217.81C249.954 217.835 249.815 217.835 249.679 217.81C249.592 217.768 249.514 217.711 249.449 217.64L248.789 217.05C248.621 216.874 248.414 216.74 248.185 216.66C247.955 216.58 247.71 216.556 247.469 216.59H244.599C244.371 216.602 244.156 216.703 243.999 216.87C243.869 216.99 243.689 217.32 243.499 217.3C243.017 217.294 242.538 217.217 242.079 217.07C241.639 216.88 241.259 216.6 240.839 216.39C240.764 216.35 240.683 216.323 240.599 216.31C240.51 216.29 240.418 216.29 240.329 216.31L238.489 216.92C238.45 216.927 238.414 216.949 238.389 216.98C238.389 216.98 238.389 217.06 238.389 217.11C238.409 217.336 238.409 217.564 238.389 217.79C238.393 217.825 238.388 217.86 238.376 217.893C238.364 217.926 238.344 217.956 238.319 217.98C238.264 218.001 238.204 218.001 238.149 217.98H236.939L235.939 218.6C235.735 218.743 235.497 218.829 235.249 218.85C235.029 218.85 234.799 218.85 234.579 218.93C234.359 219.01 234.179 218.93 233.989 218.93C233.83 218.955 233.686 219.041 233.589 219.17C233.499 219.32 233.489 219.54 233.329 219.63C233.269 219.639 233.209 219.639 233.149 219.63L232.069 219.75L231.609 219.82C231.357 219.879 231.112 219.966 230.879 220.08C230.688 220.204 230.484 220.304 230.269 220.38C230.044 220.415 229.814 220.415 229.589 220.38L227.999 220.27C227.973 220.279 227.945 220.279 227.919 220.27C227.919 220.27 227.919 220.21 227.859 220.16C227.759 219.82 227.679 219.45 227.559 219.16C227.507 219.037 227.43 218.926 227.334 218.833C227.238 218.74 227.124 218.668 226.999 218.62C226.768 218.499 226.547 218.358 226.339 218.2C226.244 218.115 226.132 218.053 226.009 218.02C225.926 218.009 225.842 218.009 225.759 218.02L224.649 218.14C224.319 218.14 223.939 218.14 223.649 218.33C223.524 218.452 223.426 218.598 223.359 218.76L223.129 219.22C223.112 219.262 223.084 219.3 223.049 219.33C222.993 219.345 222.935 219.345 222.879 219.33H221.999C221.819 219.315 221.639 219.315 221.459 219.33L221.089 219.44C220.678 219.608 220.257 219.752 219.829 219.87C219.376 219.938 218.917 219.961 218.459 219.94C218.393 219.95 218.325 219.95 218.259 219.94C218.186 219.912 218.118 219.871 218.059 219.82L216.829 218.9C216.762 218.841 216.684 218.797 216.599 218.77H214.659C214.613 218.759 214.565 218.759 214.519 218.77C214.48 218.784 214.445 218.808 214.419 218.84C214.244 218.982 214.099 219.158 213.992 219.357C213.886 219.557 213.82 219.775 213.799 220C213.496 219.988 213.198 220.076 212.949 220.25C212.689 220.4 212.459 220.59 212.189 220.72C212.014 220.779 211.854 220.874 211.719 221C211.559 221.16 211.479 221.48 211.199 221.45H211.039C210.939 221.45 210.859 221.54 210.779 221.62C210.634 221.774 210.469 221.909 210.289 222.02C209.689 222.28 209.143 222.65 208.679 223.11C208.613 223.215 208.525 223.304 208.419 223.37C208.271 223.425 208.107 223.425 207.959 223.37C207.897 223.355 207.832 223.355 207.769 223.37C207.723 223.387 207.679 223.411 207.639 223.44C207.321 223.77 206.945 224.037 206.529 224.23C206.259 224.29 205.969 224.23 205.709 224.28C205.531 224.347 205.367 224.449 205.229 224.58C204.967 224.786 204.686 224.967 204.389 225.12C204.182 225.202 203.982 225.299 203.789 225.41C203.569 225.58 203.589 225.96 203.659 226.21H203.369C203.167 226.175 202.961 226.175 202.759 226.21C202.449 226.28 202.329 226.52 202.109 226.73C201.908 226.926 201.718 227.133 201.539 227.35Z" fill="#040707"/>
<path d="M374.301 227.72H452.301V227.14H450.091C450.091 227.14 450.001 227.05 449.971 227.01L449.861 226.89L449.601 226.6H449.551H448.871C448.681 226.61 448.491 226.61 448.301 226.6H448.031C447.961 226.6 447.921 226.51 447.851 226.5H447.731C447.531 226.5 447.361 226.57 447.171 226.6C446.941 226.66 446.7 226.66 446.471 226.6L446.141 226.45C445.981 226.396 445.817 226.355 445.651 226.33C445.501 226.33 445.461 226.33 445.221 226.33H444.621C444.365 226.313 444.111 226.277 443.861 226.22C443.569 226.175 443.272 226.175 442.981 226.22H442.811C442.392 226.265 441.97 226.265 441.551 226.22C441.191 226.22 440.861 226.13 440.501 226.1C440.141 226.07 439.751 226.1 439.371 226.04C439.038 226.015 438.704 226.015 438.371 226.04C438.039 226.084 437.705 226.104 437.371 226.1H436.591C436.347 226.101 436.103 226.118 435.861 226.15H435.811C435.623 226.082 435.429 226.035 435.231 226.01C434.997 225.964 434.759 225.944 434.521 225.95H433.951C433.801 225.95 433.671 225.95 433.521 225.95H432.991C432.651 225.95 432.301 225.95 431.991 225.95L431.391 226.03C431.051 226.03 430.691 226.03 430.331 226.09H430.011C429.891 226.1 429.771 226.1 429.651 226.09H429.471C429.197 226.04 428.919 226.017 428.641 226.02C428.081 226.02 427.541 226.08 426.991 226.11C426.849 226.125 426.708 226.152 426.571 226.19L426.091 226.3C425.881 226.3 425.661 226.38 425.461 226.44C425.268 226.518 425.071 226.585 424.871 226.64C424.581 226.7 424.231 226.71 423.931 226.74L422.931 226.84C422.811 226.855 422.69 226.855 422.571 226.84H422.351H422.271H422.151C422.019 226.815 421.883 226.815 421.751 226.84C421.751 226.84 421.681 226.84 421.641 226.84C421.598 226.849 421.554 226.849 421.511 226.84C421.426 226.813 421.335 226.813 421.251 226.84C421.135 226.855 421.017 226.855 420.901 226.84C420.861 226.845 420.821 226.845 420.781 226.84C420.715 226.824 420.647 226.824 420.581 226.84C420.504 226.845 420.427 226.845 420.351 226.84H420.131H419.911C419.811 226.83 419.711 226.83 419.611 226.84H419.561C419.491 226.84 419.441 226.84 419.381 226.84C419.305 226.825 419.227 226.825 419.151 226.84C418.891 226.84 418.661 226.9 418.411 226.93C418.062 226.97 417.71 226.97 417.361 226.93H417.001C416.908 226.915 416.814 226.915 416.721 226.93H416.351H416.141H416.001H415.741L415.181 226.99H415.131C415.074 226.985 415.02 226.968 414.971 226.94C414.898 226.928 414.824 226.928 414.751 226.94H414.441C414.33 226.925 414.22 226.905 414.111 226.88C413.992 226.855 413.87 226.855 413.751 226.88H413.671C413.628 226.889 413.584 226.889 413.541 226.88C413.356 226.824 413.163 226.8 412.971 226.81H412.871H412.791L412.381 226.68H412.301H412.231C412.091 226.69 411.951 226.69 411.811 226.68C411.682 226.654 411.55 226.654 411.421 226.68L411.291 226.6H411.241H410.861H410.801C410.677 226.634 410.549 226.651 410.421 226.65H409.931C409.915 226.644 409.897 226.644 409.881 226.65C409.805 226.667 409.726 226.667 409.651 226.65C409.567 226.665 409.489 226.699 409.421 226.75H409.361H409.151C409.151 226.75 409.151 226.75 409.151 226.81C409.091 226.815 409.031 226.815 408.971 226.81C408.905 226.82 408.837 226.82 408.771 226.81H408.691L408.571 226.75C408.544 226.744 408.517 226.744 408.491 226.75H408.401C408.261 226.75 408.061 226.75 407.931 226.75C407.844 226.728 407.764 226.683 407.701 226.62H407.631L406.981 226.55L406.831 226.62H406.571L405.991 226.68C405.968 226.719 405.933 226.751 405.891 226.77H405.811L405.541 226.84C405.482 226.869 405.425 226.902 405.371 226.94L405.011 226.84C404.878 226.819 404.743 226.819 404.611 226.84C404.468 226.85 404.324 226.85 404.181 226.84C404.089 226.812 403.995 226.788 403.901 226.77H403.151C402.999 226.802 402.842 226.802 402.691 226.77C402.691 226.77 402.631 226.7 402.591 226.67C402.49 226.614 402.376 226.583 402.261 226.58H401.861H401.661C401.598 226.556 401.538 226.526 401.481 226.49L401.241 226.34H401.181H400.691C400.589 226.331 400.488 226.311 400.391 226.28C400.208 226.215 400.021 226.165 399.831 226.13C399.668 226.12 399.504 226.12 399.341 226.13H399.001H398.921L398.391 225.94H398.331H397.681C397.347 225.941 397.012 225.921 396.681 225.88C396.388 225.86 396.094 225.86 395.801 225.88H395.621H395.521L395.221 225.77C395.155 225.738 395.084 225.718 395.011 225.71C394.888 225.694 394.764 225.694 394.641 225.71H393.371C393.278 225.717 393.188 225.737 393.101 225.77C393.033 225.81 392.958 225.837 392.881 225.85C392.67 225.848 392.459 225.832 392.251 225.8C392.061 225.8 391.891 225.72 391.701 225.68H391.591H391.481L390.661 225.8C390.671 225.842 390.671 225.887 390.661 225.93H390.001L389.551 226.05C389.451 226.065 389.35 226.065 389.251 226.05H388.951H388.691C388.631 226.037 388.57 226.037 388.511 226.05C388.511 226.05 388.511 226.12 388.401 226.14H388.311H387.841H387.631H387.311H387.041H386.741H386.031C385.991 226.074 385.947 226.011 385.901 225.95C385.826 225.892 385.735 225.857 385.641 225.85C385.542 225.83 385.445 225.804 385.351 225.77C385.301 225.764 385.251 225.764 385.201 225.77H385.001H384.501C384.358 225.749 384.213 225.749 384.071 225.77C384.023 225.788 383.979 225.815 383.941 225.85L383.841 225.94H383.111H382.941L382.381 226.02H381.681H381.601L381.051 225.85H380.951H379.951C379.811 225.91 379.681 225.98 379.681 226.07C379.555 226.05 379.427 226.05 379.301 226.07L378.971 226.16H378.761C378.691 226.16 378.651 226.25 378.531 226.25H378.461C378.421 226.243 378.38 226.243 378.341 226.25L378.121 226.33C377.877 226.37 377.639 226.437 377.411 226.53C377.375 226.554 377.334 226.571 377.291 226.58H377.011H376.951C376.794 226.645 376.629 226.692 376.461 226.72C376.341 226.72 376.211 226.72 376.091 226.72C376.019 226.734 375.949 226.754 375.881 226.78C375.76 226.82 375.636 226.854 375.511 226.88L375.251 226.93C375.151 226.93 375.151 227.03 375.191 227.08H374.791C374.69 227.095 374.592 227.125 374.501 227.17L374.301 227.72Z" fill="#040707"/>
<path d="M449.711 227.72H527.711V227.14H525.501C525.501 227.14 525.411 227.05 525.381 227.01L525.271 226.89C525.181 226.79 525.101 226.69 525.011 226.6H524.331C524.138 226.61 523.944 226.61 523.751 226.6H523.491C523.421 226.6 523.371 226.51 523.301 226.5H523.191C522.991 226.5 522.821 226.57 522.631 226.6C522.398 226.66 522.154 226.66 521.921 226.6L521.591 226.45C521.435 226.395 521.274 226.355 521.111 226.33C520.951 226.33 520.921 226.33 520.681 226.33H520.001C519.748 226.314 519.497 226.277 519.251 226.22C518.956 226.175 518.656 226.175 518.361 226.22H518.201C517.779 226.265 517.353 226.265 516.931 226.22C516.571 226.22 516.241 226.13 515.931 226.1C515.621 226.07 515.171 226.1 514.791 226.04C514.458 226.015 514.124 226.015 513.791 226.04C513.459 226.084 513.125 226.104 512.791 226.1H512.011C511.77 226.101 511.53 226.118 511.291 226.15H511.241H511.181C510.996 226.083 510.805 226.036 510.611 226.01C510.377 225.965 510.139 225.944 509.901 225.95H509.321C509.171 225.95 509.041 225.95 508.891 225.95H508.371C508.021 225.95 507.671 225.95 507.371 225.95L506.781 226.03C506.431 226.03 506.071 226.03 505.721 226.09H505.391C505.275 226.1 505.157 226.1 505.041 226.09H504.861C504.587 226.041 504.309 226.018 504.031 226.02C503.471 226.02 502.931 226.08 502.381 226.11C502.236 226.125 502.092 226.152 501.951 226.19L501.481 226.3C501.271 226.3 501.051 226.38 500.851 226.44C500.655 226.518 500.455 226.585 500.251 226.64C499.94 226.689 499.626 226.723 499.311 226.74L498.311 226.84C498.195 226.855 498.077 226.855 497.961 226.84H497.731H497.651H497.531C497.399 226.815 497.263 226.815 497.131 226.84C497.131 226.84 497.061 226.84 497.021 226.84C496.978 226.849 496.934 226.849 496.891 226.84C496.806 226.813 496.716 226.813 496.631 226.84C496.518 226.856 496.404 226.856 496.291 226.84C496.248 226.847 496.204 226.847 496.161 226.84C496.095 226.824 496.027 226.824 495.961 226.84C495.888 226.845 495.814 226.845 495.741 226.84H495.521C495.448 226.834 495.374 226.834 495.301 226.84C495.198 226.83 495.094 226.83 494.991 226.84C494.931 226.85 494.87 226.85 494.811 226.84C494.732 226.825 494.65 226.825 494.571 226.84C494.321 226.84 494.081 226.9 493.841 226.93C493.489 226.97 493.133 226.97 492.781 226.93H492.671C492.575 226.914 492.477 226.914 492.381 226.93H492.011H491.801H491.591H491.341L490.781 226.99H490.721C490.668 226.985 490.616 226.968 490.571 226.94C490.498 226.928 490.424 226.928 490.351 226.94H490.031C489.92 226.925 489.81 226.905 489.701 226.88C489.586 226.855 489.466 226.855 489.351 226.88H489.001C488.958 226.89 488.914 226.89 488.871 226.88C488.683 226.824 488.487 226.8 488.291 226.81H488.191H488.121L487.701 226.68H487.631H487.551C487.414 226.69 487.277 226.69 487.141 226.68C487.012 226.654 486.88 226.654 486.751 226.68L486.611 226.6H486.561H486.181C486.054 226.634 485.923 226.651 485.791 226.65H485.301C485.225 226.668 485.147 226.668 485.071 226.65C484.988 226.665 484.909 226.699 484.841 226.75H484.791H484.581H484.531C484.531 226.75 484.531 226.75 484.531 226.81C484.471 226.815 484.411 226.815 484.351 226.81C484.281 226.82 484.211 226.82 484.141 226.81H484.061L483.941 226.75C483.915 226.742 483.887 226.742 483.861 226.75H483.771C483.631 226.75 483.441 226.75 483.301 226.75C483.217 226.728 483.141 226.683 483.081 226.62H483.021L482.371 226.55L482.211 226.62H481.961L481.371 226.68C481.349 226.717 481.318 226.748 481.281 226.77H481.201L480.921 226.84C480.862 226.869 480.805 226.902 480.751 226.94L480.381 226.84C480.248 226.818 480.113 226.818 479.981 226.84C479.838 226.85 479.694 226.85 479.551 226.84C479.459 226.81 479.366 226.787 479.271 226.77H478.531C478.376 226.802 478.216 226.802 478.061 226.77C478.061 226.77 478.061 226.7 477.961 226.67C477.86 226.614 477.747 226.583 477.631 226.58H477.231H477.031L476.851 226.49L476.611 226.34H476.561H476.061C475.962 226.332 475.865 226.312 475.771 226.28C475.588 226.218 475.401 226.168 475.211 226.13C475.044 226.12 474.877 226.12 474.711 226.13H474.621H474.541L474.021 225.94H473.951H473.311C472.977 225.942 472.643 225.922 472.311 225.88C472.018 225.86 471.724 225.86 471.431 225.88H471.251H471.141L470.851 225.77C470.784 225.739 470.714 225.719 470.641 225.71C470.515 225.694 470.387 225.694 470.261 225.71H468.991C468.902 225.717 468.814 225.737 468.731 225.77C468.662 225.808 468.588 225.835 468.511 225.85C468.3 225.849 468.089 225.832 467.881 225.8C467.681 225.8 467.511 225.72 467.331 225.68H467.221H467.101L466.281 225.8C466.286 225.843 466.286 225.887 466.281 225.93H465.661L465.221 226.05C465.118 226.066 465.014 226.066 464.911 226.05H464.611H464.351C464.295 226.036 464.237 226.036 464.181 226.05C464.181 226.05 464.131 226.12 464.061 226.14H463.981H463.501H463.301H462.971H462.711H462.401H461.701C461.661 226.074 461.618 226.011 461.571 225.95C461.496 225.892 461.405 225.857 461.311 225.85L461.021 225.77C460.971 225.763 460.921 225.763 460.871 225.77H460.761H460.271C460.128 225.749 459.984 225.749 459.841 225.77C459.792 225.786 459.747 225.813 459.711 225.85L459.611 225.94H458.881H458.711L458.161 226.02H457.461H457.371L456.831 225.85H456.731H455.731C455.591 225.91 455.451 225.98 455.451 226.07C455.328 226.049 455.203 226.049 455.081 226.07C454.961 226.07 454.861 226.14 454.741 226.16H454.531C454.461 226.16 454.421 226.25 454.301 226.25H454.231C454.195 226.243 454.157 226.243 454.121 226.25L453.901 226.33C453.657 226.368 453.419 226.436 453.191 226.53C453.154 226.552 453.113 226.569 453.071 226.58H452.781H452.731C452.57 226.644 452.402 226.691 452.231 226.72C452.111 226.72 451.981 226.72 451.871 226.72C451.799 226.732 451.729 226.752 451.661 226.78L451.281 226.88L451.021 226.93C451.004 226.931 450.988 226.937 450.975 226.947C450.961 226.957 450.95 226.97 450.944 226.986C450.938 227.002 450.936 227.019 450.939 227.035C450.942 227.052 450.95 227.067 450.961 227.08H450.561C450.463 227.093 450.368 227.123 450.281 227.17L449.711 227.72Z" fill="#040707"/>
<path d="M527.68 227.72H605.68V227.14H603.48C603.48 227.14 603.4 227.05 603.36 227.01L603.25 226.89L603 226.6H602.32C602.13 226.61 601.94 226.61 601.75 226.6H601.48C601.41 226.6 601.37 226.51 601.3 226.5H601.18C600.98 226.5 600.81 226.57 600.62 226.6C600.387 226.66 600.142 226.66 599.91 226.6C599.85 226.6 599.62 226.47 599.59 226.45C599.43 226.396 599.266 226.355 599.1 226.33C598.95 226.33 598.91 226.33 598.67 226.33H598C597.744 226.313 597.49 226.277 597.24 226.22C596.948 226.174 596.651 226.174 596.36 226.22H596.19C595.771 226.265 595.348 226.265 594.93 226.22C594.57 226.22 594.23 226.13 593.93 226.1C593.63 226.07 593.18 226.1 592.79 226.04C592.457 226.015 592.123 226.015 591.79 226.04C591.458 226.083 591.124 226.103 590.79 226.1H590.01C589.769 226.101 589.528 226.118 589.29 226.15H589.24C589.051 226.084 588.857 226.037 588.66 226.01C588.426 225.964 588.188 225.944 587.95 225.95H587.37C587.23 225.95 587.09 225.95 586.94 225.95H586.42C586.08 225.95 585.73 225.95 585.42 225.95L584.82 226.03C584.48 226.03 584.11 226.03 583.76 226.09H583.43C583.313 226.1 583.196 226.1 583.08 226.09H582.9C582.626 226.04 582.348 226.017 582.07 226.02C581.51 226.02 580.97 226.08 580.42 226.11C580.278 226.124 580.137 226.151 580 226.19L579.52 226.3C579.31 226.3 579.09 226.38 578.89 226.44C578.697 226.517 578.5 226.584 578.3 226.64C577.968 226.691 577.635 226.724 577.3 226.74L576.3 226.84C576.18 226.855 576.059 226.855 575.94 226.84H575.72H575.64H575.52C575.388 226.815 575.252 226.815 575.12 226.84C575.12 226.84 575.05 226.84 575.01 226.84C574.967 226.849 574.923 226.849 574.88 226.84C574.795 226.813 574.704 226.813 574.62 226.84C574.504 226.855 574.386 226.855 574.27 226.84C574.23 226.845 574.19 226.845 574.15 226.84C574.084 226.824 574.015 226.824 573.95 226.84C573.873 226.845 573.796 226.845 573.72 226.84H573.5H573.28C573.177 226.83 573.073 226.83 572.97 226.84C572.9 226.84 572.85 226.84 572.79 226.84C572.71 226.825 572.629 226.825 572.55 226.84C572.3 226.84 572.07 226.9 571.82 226.93C571.487 226.966 571.152 226.966 570.82 226.93H570.7C570.607 226.914 570.512 226.914 570.42 226.93H570.04H569.84H569.62H569.37L568.81 226.99H568.75C568.697 226.984 568.646 226.967 568.6 226.94C568.527 226.928 568.453 226.928 568.38 226.94H568.06L567.73 226.88C567.614 226.855 567.495 226.855 567.38 226.88H567C566.957 226.89 566.912 226.89 566.87 226.88C566.685 226.825 566.492 226.801 566.3 226.81H566.2H566.12L565.7 226.68H565.63H565.56H565.14C565.011 226.654 564.878 226.654 564.75 226.68L564.61 226.6H564.22C564.096 226.634 563.968 226.651 563.84 226.65H563.35H563.29C563.217 226.668 563.142 226.668 563.07 226.65C562.986 226.663 562.906 226.697 562.84 226.75H562.78H562.57C562.57 226.75 562.57 226.75 562.57 226.81C562.51 226.815 562.45 226.815 562.39 226.81C562.323 226.82 562.256 226.82 562.19 226.81H562.11L561.99 226.75C561.99 226.75 561.99 226.75 561.91 226.75H561.82C561.67 226.75 561.48 226.75 561.34 226.75C561.257 226.726 561.181 226.681 561.12 226.62H561.05L560.4 226.55L560.25 226.62H559.99L559.41 226.68C559.387 226.719 559.352 226.751 559.31 226.77H559.23L558.95 226.84C558.88 226.84 558.84 226.91 558.78 226.94L558.42 226.84C558.284 226.819 558.146 226.819 558.01 226.84C557.867 226.85 557.723 226.85 557.58 226.84C557.491 226.81 557.401 226.787 557.31 226.77H556.56C556.405 226.802 556.245 226.802 556.09 226.77C556.09 226.77 556.09 226.7 556 226.67C555.895 226.614 555.778 226.583 555.66 226.58H555.26H555.06L554.88 226.49L554.65 226.34H554.59H554.09C553.991 226.33 553.894 226.31 553.8 226.28C553.617 226.217 553.43 226.167 553.24 226.13C553.077 226.12 552.913 226.12 552.75 226.13H552.66H552.57L552.05 225.94H551.99H551.34C551.005 225.942 550.671 225.922 550.34 225.88C550.047 225.86 549.753 225.86 549.46 225.88H549H548.9L548.6 225.77C548.534 225.738 548.463 225.718 548.39 225.71C548.267 225.694 548.143 225.694 548.02 225.71H546.75C546.657 225.716 546.566 225.736 546.48 225.77C546.411 225.808 546.337 225.835 546.26 225.85C546.049 225.848 545.838 225.832 545.63 225.8C545.44 225.8 545.27 225.72 545.08 225.68H544.97H544.85L544.04 225.8H544C544.01 225.842 544.01 225.887 544 225.93H543.39L542.94 226.05C542.84 226.065 542.739 226.065 542.64 226.05H542.34H542.07C542.014 226.038 541.956 226.038 541.9 226.05C541.9 226.05 541.9 226.12 541.78 226.14H541.7H541.23H541H540.68H540.41H540.11H539.4C539.4 226.14 539.32 226.01 539.27 225.95C539.191 225.892 539.097 225.857 539 225.85L538.71 225.77C538.663 225.764 538.616 225.764 538.57 225.77H538.46H537.96C537.817 225.749 537.672 225.749 537.53 225.77C537.482 225.788 537.438 225.815 537.4 225.85L537.3 225.94H536.57H536.41L535.85 226.02H535.15H535.07L534.52 225.85H534.42H533.42C533.28 225.91 533.15 225.98 533.15 226.07C533.024 226.048 532.895 226.048 532.77 226.07C532.658 226.106 532.545 226.136 532.43 226.16H532.22C532.155 226.214 532.074 226.246 531.99 226.25H531.92C531.883 226.244 531.846 226.244 531.81 226.25L531.59 226.33C531.346 226.368 531.108 226.436 530.88 226.53C530.842 226.552 530.802 226.569 530.76 226.58H530.47C530.309 226.645 530.141 226.692 529.97 226.72C529.86 226.72 529.73 226.72 529.61 226.72C529.538 226.734 529.468 226.754 529.4 226.78C529.278 226.82 529.155 226.854 529.03 226.88L528.76 226.93C528.743 226.931 528.727 226.937 528.713 226.947C528.7 226.957 528.689 226.97 528.683 226.986C528.677 227.002 528.675 227.019 528.678 227.035C528.681 227.052 528.688 227.067 528.7 227.08H528.31C528.209 227.093 528.111 227.123 528.02 227.17L527.68 227.72Z" fill="#040707"/>
<path d="M1260.59 226.23V229.35H1102.51C1102.43 229.36 1102.34 229.36 1102.26 229.35C1102.33 229.238 1102.41 229.131 1102.49 229.03C1102.57 228.911 1102.66 228.798 1102.75 228.69C1102.94 228.47 1103.04 228.24 1103.33 228.16C1103.51 228.134 1103.7 228.134 1103.88 228.16H1104.14C1104.09 228.029 1104.08 227.887 1104.1 227.749C1104.12 227.611 1104.18 227.48 1104.26 227.37C1104.43 227.261 1104.6 227.167 1104.78 227.09C1105.05 226.933 1105.31 226.748 1105.54 226.54C1105.66 226.413 1105.81 226.311 1105.97 226.24C1106.2 226.16 1106.47 226.24 1106.71 226.24C1106.95 226.24 1107.42 225.7 1107.71 225.45C1107.74 225.417 1107.78 225.393 1107.82 225.38C1107.88 225.36 1107.94 225.36 1107.99 225.38C1108.13 225.429 1108.28 225.429 1108.41 225.38C1108.51 225.315 1108.59 225.226 1108.64 225.12C1109.05 224.664 1109.54 224.294 1110.09 224.03C1110.26 223.909 1110.41 223.772 1110.54 223.62C1110.6 223.55 1110.67 223.46 1110.77 223.45C1110.82 223.445 1110.87 223.445 1110.91 223.45C1111.16 223.45 1111.24 223.15 1111.38 222.99C1111.5 222.874 1111.65 222.782 1111.8 222.72C1112.04 222.59 1112.25 222.4 1112.49 222.24C1112.71 222.072 1112.98 221.984 1113.25 221.99C1113.25 221.829 1113.28 221.669 1113.34 221.52H1116.74L1117.09 221.81C1117.14 221.855 1117.2 221.893 1117.26 221.92C1117.32 221.93 1117.38 221.93 1117.44 221.92C1117.86 221.945 1118.27 221.925 1118.68 221.86C1119.02 221.768 1119.36 221.647 1119.68 221.5H1125.85C1125.91 221.72 1125.95 221.94 1126.01 222.16C1126.02 222.202 1126.04 222.24 1126.07 222.27H1126.14C1126.62 222.27 1127.14 222.35 1127.57 222.37C1127.78 222.415 1127.99 222.415 1128.19 222.37C1128.38 222.291 1128.56 222.194 1128.73 222.08C1128.94 221.964 1129.16 221.877 1129.39 221.82C1129.53 221.783 1129.66 221.759 1129.8 221.75L1130.8 221.62C1130.86 221.634 1130.92 221.634 1130.97 221.62C1131.01 221.601 1131.03 221.573 1131.05 221.54H1145.28V219.22L1145.49 219.43C1145.55 219.495 1145.62 219.549 1145.7 219.59C1145.82 219.625 1145.95 219.625 1146.07 219.59C1146.67 219.554 1147.28 219.615 1147.86 219.77C1148.48 220.001 1149.14 220.116 1149.8 220.11L1150.97 220.03C1151.02 220.015 1151.07 220.015 1151.12 220.03C1151.17 220.05 1151.22 220.081 1151.25 220.12L1152.31 221.12C1152.36 221.174 1152.42 221.215 1152.48 221.24C1152.54 221.25 1152.6 221.25 1152.66 221.24H1152.8C1153.08 221.239 1153.36 221.28 1153.63 221.36C1154.05 221.579 1154.43 221.855 1154.77 222.18C1154.95 222.325 1155.15 222.433 1155.37 222.5C1155.64 222.525 1155.92 222.525 1156.19 222.5C1156.25 222.485 1156.31 222.485 1156.37 222.5C1156.42 222.539 1156.46 222.586 1156.49 222.64L1156.97 223.44C1157.06 223.616 1157.19 223.772 1157.34 223.9C1157.46 223.992 1157.6 224.054 1157.74 224.08C1158.01 224.15 1158.28 224.15 1158.55 224.21C1158.69 224.235 1158.83 224.29 1158.94 224.371C1159.06 224.452 1159.16 224.557 1159.23 224.68C1159.32 224.85 1159.34 225.04 1159.43 225.21C1159.61 225.56 1160.07 225.44 1160.38 225.44H1161.58C1161.68 225.425 1161.79 225.425 1161.89 225.44H1161.96C1162.13 225.544 1162.29 225.657 1162.45 225.78C1162.73 225.901 1163.03 225.939 1163.33 225.89C1163.62 225.881 1163.91 225.973 1164.14 226.15C1164.38 226.338 1164.62 226.508 1164.88 226.66C1164.98 226.47 1165.09 226.292 1165.23 226.13C1165.39 225.954 1165.58 225.809 1165.79 225.7C1165.85 225.655 1165.9 225.605 1165.95 225.55C1166.05 225.4 1166.12 225.229 1166.15 225.05L1167.33 224.77C1167.51 224.746 1167.68 224.703 1167.85 224.64C1167.85 224.64 1168.16 224.28 1168.17 224.28L1169.48 224.62C1169.53 224.633 1169.58 224.657 1169.62 224.69C1169.65 224.722 1169.67 224.759 1169.69 224.8C1169.78 225.02 1169.92 225.42 1170.14 225.48C1170.47 225.523 1170.81 225.523 1171.14 225.48C1171.2 225.465 1171.26 225.465 1171.32 225.48C1171.39 225.514 1171.45 225.57 1171.48 225.64L1171.73 225.97C1171.78 226.033 1171.83 226.09 1171.89 226.14C1172.02 226.185 1172.17 226.185 1172.3 226.14C1172.4 226.14 1172.58 226.14 1172.67 226.14C1172.76 226.14 1172.67 225.9 1172.74 225.82C1172.74 225.79 1172.74 225.759 1172.74 225.73C1172.77 225.701 1172.8 225.677 1172.83 225.66L1173.26 225.46C1173.3 225.442 1173.34 225.415 1173.37 225.38C1173.41 225.333 1173.44 225.283 1173.46 225.23C1173.55 225.011 1173.71 224.83 1173.92 224.72C1174.1 224.62 1174.28 224.64 1174.38 224.41C1174.4 224.332 1174.44 224.26 1174.49 224.2C1174.54 224.163 1174.6 224.145 1174.66 224.15H1175.48C1175.62 224.166 1175.77 224.151 1175.91 224.106C1176.04 224.061 1176.17 223.987 1176.27 223.89C1176.3 223.846 1176.33 223.809 1176.37 223.78C1176.41 223.77 1176.46 223.77 1176.5 223.78H1176.97C1177.03 223.764 1177.09 223.764 1177.15 223.78C1177.19 223.809 1177.22 223.847 1177.24 223.89L1177.52 224.3C1177.75 224.135 1178.03 224.057 1178.31 224.08C1178.6 224.088 1178.89 224.051 1179.16 223.97C1179.21 223.955 1179.26 223.955 1179.31 223.97C1179.37 223.986 1179.42 224.017 1179.46 224.06L1180.3 224.8C1180.35 224.848 1180.4 224.886 1180.46 224.91C1180.53 224.925 1180.6 224.925 1180.66 224.91C1180.87 224.886 1181.09 224.908 1181.29 224.973C1181.49 225.039 1181.67 225.147 1181.83 225.29C1181.91 225.36 1181.99 225.45 1182.09 225.43C1182.15 225.419 1182.21 225.396 1182.26 225.36C1182.37 225.303 1182.49 225.274 1182.62 225.274C1182.74 225.274 1182.86 225.303 1182.97 225.36C1183.19 225.488 1183.41 225.605 1183.64 225.71C1183.85 225.78 1184.07 225.79 1184.28 225.84C1184.45 225.875 1184.61 225.958 1184.73 226.08C1184.82 226.17 1184.91 226.36 1185.04 226.37C1185.08 226.379 1185.12 226.379 1185.16 226.37L1186.29 226.03C1186.46 225.972 1186.64 225.929 1186.81 225.9C1186.95 225.924 1187.1 225.924 1187.24 225.9C1187.39 225.83 1187.52 225.74 1187.66 225.66C1187.9 225.532 1188.16 225.461 1188.42 225.45C1188.42 225.35 1188.42 225.25 1188.42 225.14C1188.58 225.005 1188.78 224.925 1188.99 224.91C1189.07 224.916 1189.15 224.933 1189.23 224.96C1189.93 225.17 1190.67 225.17 1191.37 224.96C1191.85 224.753 1192.35 224.589 1192.86 224.47C1193.02 224.425 1193.18 224.425 1193.34 224.47C1193.46 224.47 1193.57 224.64 1193.7 224.57L1193.79 224.51C1193.98 224.4 1194.21 224.51 1194.42 224.51C1194.63 224.51 1194.71 224.39 1194.86 224.39C1195.01 224.39 1195.16 224.5 1195.31 224.49C1195.46 224.48 1195.61 224.35 1195.77 224.32C1195.84 224.302 1195.92 224.304 1195.99 224.325C1196.06 224.346 1196.13 224.386 1196.18 224.44C1196.26 224.52 1196.32 224.65 1196.42 224.69C1196.52 224.73 1196.93 224.49 1197.13 224.41C1197.22 224.361 1197.33 224.349 1197.42 224.375C1197.52 224.401 1197.61 224.463 1197.66 224.55C1197.67 224.604 1197.7 224.655 1197.73 224.7C1197.81 224.76 1197.91 224.7 1198 224.65C1198.09 224.6 1198.23 224.65 1198.22 224.72C1198.34 224.649 1198.48 224.605 1198.62 224.591C1198.76 224.577 1198.91 224.594 1199.04 224.64C1199.11 224.64 1199.2 224.74 1199.28 224.73C1199.36 224.72 1199.39 224.65 1199.44 224.63C1199.59 224.58 1199.75 224.58 1199.9 224.63C1200.14 224.69 1200.39 224.69 1200.62 224.63L1202.67 224.11C1203.33 223.996 1203.97 223.815 1204.58 223.57C1205.05 223.33 1205.35 222.77 1205.79 222.46C1206.2 222.188 1206.63 221.941 1207.07 221.72C1207.4 221.54 1207.71 221.34 1208.07 221.14C1208.33 220.936 1208.62 220.783 1208.93 220.69C1210.03 220.398 1211.16 220.224 1212.29 220.17C1212.87 220.196 1213.44 220.328 1213.97 220.56C1214.09 220.625 1214.21 220.672 1214.34 220.7C1214.58 220.694 1214.82 220.653 1215.05 220.58L1215.71 220.52C1216.44 220.463 1217.16 220.346 1217.87 220.17C1218.28 220.04 1218.67 219.86 1219.08 219.76C1219.77 219.617 1220.48 219.563 1221.18 219.6C1221.53 219.62 1221.89 219.62 1222.24 219.6C1222.54 219.542 1222.83 219.465 1223.12 219.37C1223.5 219.28 1223.9 219.19 1224.29 219.12C1224.79 219.085 1225.29 219.189 1225.73 219.42C1226.17 219.585 1226.57 219.852 1226.89 220.2C1226.92 220.241 1226.96 220.272 1227 220.29C1227.04 220.299 1227.08 220.299 1227.11 220.29C1227.39 220.211 1227.68 220.147 1227.96 220.1C1228.17 220.061 1228.37 220.038 1228.58 220.03C1229.1 220.03 1229.58 220.03 1230.16 220.03C1230.87 220.07 1231.59 219.968 1232.26 219.73C1232.92 219.507 1233.62 219.412 1234.32 219.45C1235.1 219.481 1235.87 219.588 1236.63 219.77C1237.35 219.95 1238.02 220.32 1238.75 220.44C1239.61 220.619 1240.5 220.56 1241.32 220.27L1241.66 220.1C1242.22 219.839 1242.86 219.8 1243.45 219.99C1243.95 220.15 1244.45 220.63 1244.98 220.6C1245.09 220.6 1245.72 220.6 1246.21 220.65C1246.7 220.7 1246.77 220.53 1247.09 220.65C1247.46 220.803 1247.8 221.027 1248.09 221.31C1248.16 221.43 1248.62 221.89 1248.76 222.09C1249.1 222.57 1249.76 222.44 1250.2 222.22C1250.49 222.08 1250.76 221.89 1251.05 221.77C1251.14 221.726 1251.23 221.692 1251.33 221.67C1251.41 221.644 1251.49 221.644 1251.57 221.67C1251.69 221.73 1251.77 222 1251.88 222.15C1252.04 222.28 1252.22 222.375 1252.42 222.43C1252.51 222.459 1252.6 222.479 1252.69 222.49C1252.99 222.544 1253.29 222.565 1253.59 222.55H1254.74C1254.78 222.54 1254.82 222.54 1254.86 222.548C1254.9 222.557 1254.94 222.574 1254.97 222.6C1255.01 222.649 1255.04 222.707 1255.06 222.77L1255.39 223.77C1255.46 223.95 1255.52 224.14 1255.58 224.32L1255.81 225C1255.92 225.229 1256 225.471 1256.05 225.72C1256.06 225.77 1256.08 225.816 1256.12 225.85C1256.17 225.87 1256.23 225.87 1256.28 225.85H1260.6L1260.59 226.23Z" fill="#040707"/>
<path d="M1252.75 226.089V227.709H1293.75L1293.05 226.709H1291.93L1291.41 226.129H1291.35C1291.26 226.096 1291.17 226.073 1291.08 226.059C1291 226.069 1290.93 226.069 1290.85 226.059C1290.78 226.023 1290.71 225.979 1290.64 225.929C1290.52 225.868 1290.38 225.834 1290.24 225.829C1290.24 225.776 1290.24 225.722 1290.24 225.669C1290.16 225.596 1290.06 225.55 1289.95 225.539C1289.91 225.533 1289.86 225.533 1289.82 225.539C1289.46 225.649 1289.07 225.649 1288.71 225.539C1288.46 225.44 1288.19 225.357 1287.93 225.289C1287.85 225.265 1287.76 225.265 1287.68 225.289C1287.68 225.289 1287.57 225.369 1287.5 225.289C1287.4 225.229 1287.28 225.289 1287.17 225.289C1287.06 225.289 1287.02 225.229 1286.94 225.229C1286.86 225.229 1286.79 225.289 1286.72 225.289C1286.65 225.289 1286.56 225.209 1286.48 225.189C1286.44 225.181 1286.4 225.182 1286.36 225.192C1286.32 225.203 1286.29 225.222 1286.26 225.249C1286.26 225.299 1286.19 225.359 1286.13 225.379C1286.07 225.399 1285.87 225.289 1285.76 225.239C1285.71 225.215 1285.66 225.21 1285.61 225.222C1285.56 225.235 1285.52 225.266 1285.49 225.309C1285.5 225.335 1285.5 225.362 1285.49 225.389C1285.49 225.389 1285.4 225.389 1285.35 225.389C1285.3 225.389 1285.23 225.389 1285.24 225.439C1285.18 225.397 1285.11 225.37 1285.04 225.361C1284.96 225.353 1284.89 225.362 1284.82 225.389C1284.82 225.389 1284.73 225.449 1284.69 225.439C1284.65 225.429 1284.63 225.439 1284.6 225.389C1284.52 225.369 1284.44 225.369 1284.36 225.389C1284.24 225.424 1284.11 225.424 1283.99 225.389L1282.92 225.109C1282.58 225.056 1282.24 224.962 1281.92 224.829C1281.68 224.709 1281.53 224.419 1281.3 224.259C1281.08 224.121 1280.86 223.994 1280.63 223.879L1280.13 223.569C1280 223.465 1279.84 223.387 1279.68 223.339C1279.11 223.19 1278.53 223.099 1277.94 223.069C1277.64 223.08 1277.34 223.148 1277.06 223.269C1277 223.302 1276.94 223.326 1276.87 223.339C1276.74 223.339 1276.62 223.319 1276.5 223.279C1276.39 223.279 1276.27 223.279 1276.16 223.279C1275.78 223.249 1275.4 223.189 1275.03 223.099C1274.83 223.029 1274.62 222.939 1274.41 222.879C1274.05 222.807 1273.68 222.78 1273.31 222.799C1273.13 222.809 1272.94 222.809 1272.76 222.799C1272.61 222.763 1272.46 222.72 1272.31 222.669L1271.7 222.549C1271.44 222.53 1271.18 222.582 1270.95 222.699C1270.72 222.785 1270.51 222.926 1270.35 223.109C1270.35 223.109 1270.35 223.109 1270.29 223.109C1270.04 223.036 1269.78 222.993 1269.52 222.979C1269.25 222.979 1268.97 222.979 1268.7 222.979C1268.33 223.004 1267.95 222.953 1267.6 222.829C1267.26 222.707 1266.89 222.659 1266.53 222.689C1266.13 222.697 1265.73 222.751 1265.34 222.849C1264.96 222.949 1264.61 223.139 1264.23 223.199C1263.78 223.29 1263.32 223.258 1262.89 223.109L1262.72 223.019C1262.43 222.88 1262.1 222.858 1261.79 222.959C1261.53 223.049 1261.27 223.299 1260.99 223.279C1260.78 223.268 1260.56 223.268 1260.35 223.279C1260.1 223.279 1260.06 223.209 1259.89 223.279C1259.7 223.36 1259.53 223.476 1259.39 223.619C1259.39 223.679 1259.11 223.929 1259.04 224.019C1258.94 224.118 1258.82 224.18 1258.68 224.194C1258.54 224.209 1258.4 224.175 1258.29 224.099C1258.11 223.978 1257.91 223.881 1257.7 223.809C1257.66 223.794 1257.62 223.794 1257.58 223.809C1257.5 223.809 1257.46 224.019 1257.39 224.089C1257.31 224.159 1257.21 224.207 1257.1 224.229C1256.91 224.284 1256.7 224.304 1256.5 224.289H1255.9C1255.86 224.274 1255.82 224.274 1255.78 224.289C1255.77 224.319 1255.77 224.349 1255.78 224.379C1255.68 224.649 1255.59 224.919 1255.5 225.189C1255.46 225.303 1255.42 225.42 1255.39 225.539C1255.33 225.655 1255.29 225.78 1255.26 225.909V225.979C1255.23 225.988 1255.2 225.988 1255.17 225.979L1252.75 226.089Z" fill="#040707"/>
<path d="M1056.55 131.685C1055.77 124.685 1050.85 119.455 1045.55 120.045C1040.25 120.635 1036.55 126.795 1037.38 133.815C1038.11 140.415 1042.51 145.425 1047.38 145.505L1046.58 147.345L1048.2 147.165C1048.99 147.79 1049.57 148.654 1049.84 149.629C1050.11 150.604 1050.06 151.64 1049.7 152.585C1049.21 153.594 1048.56 154.513 1047.77 155.305C1047.26 155.842 1046.78 156.417 1046.36 157.025C1045.64 158.136 1045.23 159.413 1045.16 160.731C1045.09 162.05 1045.36 163.364 1045.95 164.545C1046.95 166.695 1048.61 167.915 1050.35 169.215C1050.84 169.575 1051.35 169.955 1051.85 170.355C1052.35 170.755 1054.36 172.575 1053.69 174.535L1053.99 174.635C1054.73 172.485 1052.69 170.635 1052.05 170.105C1051.41 169.575 1051.05 169.315 1050.54 168.955C1048.73 167.838 1047.25 166.27 1046.24 164.405C1045.67 163.275 1045.41 162.016 1045.48 160.754C1045.55 159.491 1045.94 158.268 1046.63 157.205C1047.05 156.611 1047.51 156.046 1048.01 155.515C1048.83 154.703 1049.51 153.752 1050.01 152.705C1050.38 151.747 1050.46 150.696 1050.21 149.695C1049.97 148.695 1049.42 147.794 1048.65 147.115L1050.44 146.915L1049.3 145.345C1054.09 144.135 1057.28 138.345 1056.55 131.685Z" fill="#040707"/>
<path d="M1168.58 179.22C1168.58 176.84 1167.13 174.91 1165.33 174.91C1163.53 174.91 1162.08 176.84 1162.08 179.22C1162.08 181.6 1163.37 183.3 1165.02 183.51L1164.68 184.09H1165.23C1165.47 184.331 1165.63 184.643 1165.69 184.981C1165.74 185.319 1165.68 185.666 1165.53 185.97C1165.33 186.29 1165.08 186.571 1164.78 186.8C1164.59 186.967 1164.41 187.144 1164.25 187.33C1163.97 187.674 1163.78 188.085 1163.7 188.524C1163.63 188.963 1163.67 189.413 1163.83 189.83C1164.1 190.511 1164.55 191.108 1165.13 191.56L1165.59 192C1165.77 192.18 1166.35 192.84 1166.05 193.47H1166.15C1166.48 192.78 1165.86 192.08 1165.67 191.88L1165.2 191.44C1164.64 190.998 1164.2 190.42 1163.93 189.76C1163.78 189.36 1163.74 188.928 1163.81 188.507C1163.88 188.087 1164.06 187.692 1164.33 187.36C1164.49 187.178 1164.66 187.007 1164.85 186.85C1165.16 186.607 1165.42 186.313 1165.63 185.98C1165.79 185.671 1165.85 185.321 1165.8 184.976C1165.76 184.632 1165.61 184.309 1165.38 184.05H1165.99L1165.65 183.47C1167.29 183.3 1168.58 181.46 1168.58 179.22Z" fill="#FFAE00"/>
<path d="M329.468 202.679C329.237 202.912 329.107 203.226 329.107 203.554C329.107 203.882 329.237 204.197 329.468 204.429L332.968 207.919C333.201 208.151 333.515 208.281 333.843 208.281C334.171 208.281 334.486 208.151 334.718 207.919L335.068 207.559L335.908 210.779C336.338 210.359 336.118 210.139 336.538 209.709C336.958 209.279 337.188 209.499 337.618 209.079C338.048 208.659 337.828 208.429 338.258 207.999C338.688 207.569 338.898 207.789 339.328 207.369L336.048 206.579L336.378 206.249C336.495 206.136 336.588 206.001 336.651 205.852C336.715 205.702 336.747 205.542 336.747 205.379C336.747 205.217 336.715 205.056 336.651 204.907C336.588 204.757 336.495 204.622 336.378 204.509L332.998 200.939C332.766 200.708 332.451 200.578 332.123 200.578C331.795 200.578 331.481 200.708 331.248 200.939L330.898 201.289L330.078 198.029C329.648 198.449 329.868 198.669 329.438 199.099C329.008 199.529 328.788 199.309 328.358 199.729C327.928 200.149 328.148 200.379 327.728 200.809C327.308 201.239 327.078 201.019 326.648 201.439L329.908 202.249L329.468 202.679ZM334.658 204.369L335.028 204.009L335.428 204.409L335.068 204.779L334.658 204.369ZM332.258 201.969L332.618 201.599L334.538 203.519L334.178 203.879L332.258 201.969Z" fill="black"/>
<path d="M341.059 197.449L342.729 197.029C342.509 196.819 342.399 196.929 342.179 196.709C341.959 196.489 342.069 196.379 341.849 196.159C341.629 195.939 341.519 196.049 341.309 195.839C341.099 195.629 341.199 195.509 340.979 195.289L340.559 196.959L340.389 196.779C340.331 196.719 340.261 196.672 340.183 196.639C340.106 196.607 340.023 196.59 339.939 196.59C339.855 196.59 339.772 196.607 339.695 196.639C339.618 196.672 339.548 196.719 339.489 196.779L337.709 198.559C337.65 198.617 337.602 198.686 337.57 198.762C337.538 198.839 337.521 198.921 337.521 199.004C337.521 199.087 337.538 199.169 337.57 199.246C337.602 199.322 337.65 199.391 337.709 199.449L337.879 199.619L336.199 200.019C336.419 200.239 336.529 200.129 336.749 200.349C336.969 200.569 336.859 200.679 337.069 200.889C337.279 201.099 337.409 200.999 337.619 201.219C337.829 201.439 337.729 201.549 337.949 201.769L338.379 200.129L338.559 200.309C338.617 200.369 338.686 200.416 338.763 200.448C338.839 200.481 338.921 200.497 339.004 200.497C339.087 200.497 339.169 200.481 339.246 200.448C339.322 200.416 339.391 200.369 339.449 200.309L341.239 198.529C341.299 198.471 341.346 198.402 341.378 198.326C341.411 198.249 341.427 198.167 341.427 198.084C341.427 198.001 341.411 197.919 341.378 197.842C341.346 197.766 341.299 197.697 341.239 197.639L341.059 197.449ZM338.379 198.699L338.189 198.509L338.399 198.299L338.579 198.489L338.379 198.699ZM338.829 198.239L338.649 198.049L339.649 197.049L339.829 197.229L338.829 198.239Z" fill="#FFAE00"/>
<path d="M1120.72 222.119C1120.78 222.322 1120.82 222.524 1120.87 222.727C1120.88 222.765 1120.9 222.801 1120.93 222.828H1120.99C1121.43 222.828 1121.91 222.901 1122.31 222.92C1122.5 222.961 1122.69 222.961 1122.88 222.92C1123.05 222.847 1123.22 222.758 1123.38 222.653C1123.57 222.547 1123.77 222.466 1123.99 222.414C1124.11 222.38 1124.24 222.358 1124.36 222.349L1125.29 222.23C1125.34 222.243 1125.39 222.243 1125.44 222.23C1125.47 222.213 1125.5 222.187 1125.52 222.156L1120.72 222.119ZM1112.7 222.386C1112.74 222.428 1112.8 222.463 1112.85 222.487C1112.91 222.497 1112.96 222.497 1113.02 222.487C1113.4 222.511 1113.78 222.492 1114.16 222.432C1114.48 222.348 1114.79 222.237 1115.08 222.101H1112.42L1112.7 222.386ZM1145.53 170.46C1147.97 169.722 1150.11 168.221 1151.64 166.178C1153.16 164.134 1153.99 161.657 1154 159.109V156H1057V159.072C1057.07 161.606 1057.92 164.057 1059.43 166.09C1060.95 168.123 1063.06 169.64 1065.47 170.433V222.083H1057V229H1154V222.083H1145.53V170.46ZM1072.4 170.46C1074.97 169.776 1077.23 168.266 1078.85 166.164C1080.47 164.062 1081.35 161.485 1081.36 158.833C1081.36 161.326 1083.96 170.929 1093.58 170.929C1101.92 170.929 1105.56 163.396 1105.56 158.833C1105.56 163.083 1108.4 170.92 1117.66 170.92C1126.03 170.92 1129.74 162.853 1129.74 158.833C1129.74 161.463 1130.61 164.019 1132.2 166.112C1133.8 168.205 1136.04 169.719 1138.57 170.423V222.101H1072.37L1072.4 170.46ZM1112.37 222.101L1112.7 222.368C1112.74 222.41 1112.8 222.444 1112.85 222.469C1112.91 222.478 1112.96 222.478 1113.02 222.469C1113.4 222.492 1113.78 222.474 1114.16 222.414C1114.48 222.329 1114.79 222.218 1115.08 222.083L1112.37 222.101ZM1120.72 222.101C1120.78 222.303 1120.82 222.506 1120.87 222.708C1120.88 222.747 1120.9 222.782 1120.93 222.809H1120.99C1121.43 222.809 1121.91 222.883 1122.31 222.901C1122.5 222.943 1122.69 222.943 1122.88 222.901C1123.05 222.829 1123.22 222.739 1123.38 222.635C1123.57 222.528 1123.77 222.448 1123.99 222.395C1124.11 222.361 1124.24 222.34 1124.36 222.331L1125.29 222.211C1125.34 222.225 1125.39 222.225 1125.44 222.211C1125.47 222.195 1125.5 222.169 1125.52 222.138L1120.72 222.101Z" fill="black"/>
<path d="M1154 153H1057L1069.32 140.694V133H1142.07V140.694H1142L1154 153Z" fill="black"/>
<path d="M301.551 170.779C302.241 170.779 302.801 170.22 302.801 169.529C302.801 168.839 302.241 168.279 301.551 168.279C300.86 168.279 300.301 168.839 300.301 169.529C300.301 170.22 300.86 170.779 301.551 170.779Z" fill="#FFAE00"/>
<path d="M303.391 168.27C303.717 168.27 303.981 168.006 303.981 167.68C303.981 167.354 303.717 167.09 303.391 167.09C303.065 167.09 302.801 167.354 302.801 167.68C302.801 168.006 303.065 168.27 303.391 168.27Z" fill="#FFAE00"/>
<path opacity="0.1" d="M1272.5 169C1272.42 169.375 1272.26 169.787 1272.02 170.023C1271.79 170.258 1271.37 170.42 1271 170.5C1271.37 170.58 1271.79 170.741 1272.02 170.977C1272.26 171.213 1272.42 171.625 1272.5 172C1272.58 171.625 1272.74 171.213 1272.98 170.977C1273.21 170.741 1273.63 170.58 1274 170.5C1273.63 170.42 1273.21 170.258 1272.98 170.023C1272.74 169.787 1272.58 169.375 1272.5 169Z" fill="white"/>
<path opacity="0.5" d="M289.5 114C289.42 114.375 289.258 114.787 289.023 115.023C288.787 115.258 288.375 115.42 288 115.5C288.375 115.58 288.787 115.741 289.023 115.977C289.258 116.213 289.42 116.625 289.5 117C289.58 116.625 289.742 116.213 289.978 115.977C290.213 115.741 290.625 115.58 291 115.5C290.625 115.42 290.213 115.258 289.977 115.023C289.742 114.787 289.58 114.375 289.5 114Z" fill="white"/>
<path opacity="0.1" d="M1363.5 182C1363.42 182.375 1363.26 182.787 1363.02 183.023C1362.79 183.258 1362.37 183.42 1362 183.5C1362.37 183.58 1362.79 183.741 1363.02 183.977C1363.26 184.213 1363.42 184.625 1363.5 185C1363.58 184.625 1363.74 184.213 1363.98 183.977C1364.21 183.741 1364.63 183.58 1365 183.5C1364.63 183.42 1364.21 183.258 1363.98 183.023C1363.74 182.787 1363.58 182.375 1363.5 182Z" fill="white"/>
<path opacity="0.1" d="M336.5 87C336.42 87.3747 336.258 87.787 336.023 88.0228C335.787 88.2584 335.375 88.4198 335 88.5001C335.375 88.5805 335.787 88.7415 336.023 88.9774C336.258 89.2132 336.42 89.6251 336.5 90C336.58 89.6251 336.742 89.2132 336.978 88.9772C337.213 88.7415 337.625 88.5802 338 88.4998C337.625 88.4197 337.213 88.2584 336.977 88.0226C336.742 87.787 336.58 87.3747 336.5 87Z" fill="white"/>
<path opacity="0.5" d="M421.5 76C421.42 76.3747 421.258 76.787 421.023 77.0228C420.787 77.2584 420.375 77.4198 420 77.5001C420.375 77.5805 420.787 77.7415 421.023 77.9774C421.258 78.2132 421.42 78.6251 421.5 79C421.58 78.6251 421.742 78.2132 421.978 77.9772C422.213 77.7415 422.625 77.5802 423 77.4998C422.625 77.4197 422.213 77.2584 421.977 77.0226C421.742 76.787 421.58 76.3747 421.5 76Z" fill="white"/>
<path opacity="0.1" d="M1011.5 153C1011.42 153.375 1011.26 153.787 1011.02 154.023C1010.79 154.258 1010.37 154.42 1010 154.5C1010.37 154.58 1010.79 154.741 1011.02 154.977C1011.26 155.213 1011.42 155.625 1011.5 156C1011.58 155.625 1011.74 155.213 1011.98 154.977C1012.21 154.741 1012.63 154.58 1013 154.5C1012.63 154.42 1012.21 154.258 1011.98 154.023C1011.74 153.787 1011.58 153.375 1011.5 153Z" fill="white"/>
<path opacity="0.5" d="M714.5 126C714.42 126.375 714.258 126.787 714.023 127.023C713.787 127.258 713.375 127.42 713 127.5C713.375 127.58 713.787 127.741 714.023 127.977C714.258 128.213 714.42 128.625 714.5 129C714.58 128.625 714.742 128.213 714.978 127.977C715.213 127.741 715.625 127.58 716 127.5C715.625 127.42 715.213 127.258 714.977 127.023C714.742 126.787 714.58 126.375 714.5 126Z" fill="white"/>
<path opacity="0.1" d="M989.5 90C989.42 90.3747 989.258 90.787 989.023 91.0228C988.787 91.2584 988.375 91.4198 988 91.5001C988.375 91.5805 988.787 91.7415 989.023 91.9774C989.258 92.2132 989.42 92.6251 989.5 93C989.58 92.6251 989.742 92.2132 989.978 91.9772C990.213 91.7415 990.625 91.5802 991 91.4998C990.625 91.4197 990.213 91.2584 989.977 91.0226C989.742 90.787 989.58 90.3747 989.5 90Z" fill="white"/>
<path opacity="0.1" d="M1181.5 115C1181.42 115.375 1181.26 115.787 1181.02 116.023C1180.79 116.258 1180.37 116.42 1180 116.5C1180.37 116.58 1180.79 116.741 1181.02 116.977C1181.26 117.213 1181.42 117.625 1181.5 118C1181.58 117.625 1181.74 117.213 1181.98 116.977C1182.21 116.741 1182.63 116.58 1183 116.5C1182.63 116.42 1182.21 116.258 1181.98 116.023C1181.74 115.787 1181.58 115.375 1181.5 115Z" fill="white"/>
<path opacity="0.5" d="M1122.5 87C1122.42 87.3747 1122.26 87.787 1122.02 88.0228C1121.79 88.2584 1121.37 88.4198 1121 88.5001C1121.37 88.5805 1121.79 88.7415 1122.02 88.9774C1122.26 89.2132 1122.42 89.6251 1122.5 90C1122.58 89.6251 1122.74 89.2132 1122.98 88.9772C1123.21 88.7415 1123.63 88.5802 1124 88.4998C1123.63 88.4197 1123.21 88.2584 1122.98 88.0226C1122.74 87.787 1122.58 87.3747 1122.5 87Z" fill="white"/>
<path opacity="0.5" d="M941.5 134C941.42 134.375 941.258 134.787 941.023 135.023C940.787 135.258 940.375 135.42 940 135.5C940.375 135.58 940.787 135.741 941.023 135.977C941.258 136.213 941.42 136.625 941.5 137C941.58 136.625 941.742 136.213 941.978 135.977C942.213 135.741 942.625 135.58 943 135.5C942.625 135.42 942.213 135.258 941.977 135.023C941.742 134.787 941.58 134.375 941.5 134Z" fill="white"/>
<path opacity="0.5" d="M882.5 123C882.42 123.375 882.258 123.787 882.023 124.023C881.787 124.258 881.375 124.42 881 124.5C881.375 124.58 881.787 124.741 882.023 124.977C882.258 125.213 882.42 125.625 882.5 126C882.58 125.625 882.742 125.213 882.978 124.977C883.213 124.741 883.625 124.58 884 124.5C883.625 124.42 883.213 124.258 882.977 124.023C882.742 123.787 882.58 123.375 882.5 123Z" fill="white"/>
<path opacity="0.5" d="M682 157C681.946 157.375 681.839 157.787 681.682 158.023C681.525 158.258 681.25 158.42 681 158.5C681.25 158.58 681.525 158.741 681.682 158.977C681.839 159.213 681.947 159.625 682 160C682.054 159.625 682.161 159.213 682.318 158.977C682.475 158.741 682.75 158.58 683 158.5C682.75 158.42 682.475 158.258 682.318 158.023C682.161 157.787 682.053 157.375 682 157Z" fill="white"/>
<path opacity="0.5" d="M502 158C501.946 158.375 501.839 158.787 501.682 159.023C501.525 159.258 501.25 159.42 501 159.5C501.25 159.58 501.525 159.741 501.682 159.977C501.839 160.213 501.947 160.625 502 161C502.054 160.625 502.161 160.213 502.318 159.977C502.475 159.741 502.75 159.58 503 159.5C502.75 159.42 502.475 159.258 502.318 159.023C502.161 158.787 502.053 158.375 502 158Z" fill="white"/>
<path opacity="0.1" d="M552.5 158C552.42 158.375 552.258 158.787 552.023 159.023C551.787 159.258 551.375 159.42 551 159.5C551.375 159.58 551.787 159.741 552.023 159.977C552.258 160.213 552.42 160.625 552.5 161C552.58 160.625 552.742 160.213 552.978 159.977C553.213 159.741 553.625 159.58 554 159.5C553.625 159.42 553.213 159.258 552.977 159.023C552.742 158.787 552.58 158.375 552.5 158Z" fill="white"/>
<path opacity="0.2" d="M1227.5 139C1227.37 139.625 1227.1 140.312 1226.7 140.705C1226.31 141.097 1225.62 141.366 1225 141.5C1225.62 141.634 1226.31 141.902 1226.7 142.296C1227.1 142.689 1227.37 143.375 1227.5 144C1227.63 143.375 1227.9 142.689 1228.3 142.295C1228.69 141.902 1229.38 141.634 1230 141.5C1229.38 141.366 1228.69 141.097 1228.3 140.704C1227.9 140.312 1227.63 139.625 1227.5 139Z" fill="white"/>
<path opacity="0.2" d="M436.5 166C436.366 166.625 436.097 167.312 435.704 167.705C435.311 168.097 434.625 168.366 434 168.5C434.625 168.634 435.311 168.902 435.704 169.296C436.097 169.689 436.367 170.375 436.5 171C436.634 170.375 436.903 169.689 437.296 169.295C437.689 168.902 438.376 168.634 439 168.5C438.376 168.366 437.689 168.097 437.296 167.704C436.903 167.312 436.633 166.625 436.5 166Z" fill="white"/>
<path opacity="0.2" d="M241.5 55C241.366 55.6245 241.097 56.3116 240.704 56.7046C240.311 57.0973 239.625 57.3664 239 57.5001C239.625 57.6341 240.311 57.9024 240.704 58.2957C241.097 58.6886 241.367 59.3751 241.5 60C241.634 59.3751 241.903 58.6886 242.296 58.2954C242.689 57.9025 243.376 57.6336 244 57.4996C243.376 57.3661 242.689 57.0973 242.296 56.7043C241.903 56.3117 241.633 55.6246 241.5 55Z" fill="white"/>
<path opacity="0.1" d="M1155.5 145C1155.37 145.625 1155.1 146.312 1154.7 146.705C1154.31 147.097 1153.62 147.366 1153 147.5C1153.62 147.634 1154.31 147.902 1154.7 148.296C1155.1 148.689 1155.37 149.375 1155.5 150C1155.63 149.375 1155.9 148.689 1156.3 148.295C1156.69 147.902 1157.38 147.634 1158 147.5C1157.38 147.366 1156.69 147.097 1156.3 146.704C1155.9 146.312 1155.63 145.625 1155.5 145Z" fill="white"/>
<path opacity="0.1" d="M150.5 71C150.366 71.6245 150.097 72.3116 149.704 72.7046C149.311 73.0973 148.625 73.3664 148 73.5001C148.625 73.6341 149.311 73.9024 149.704 74.2957C150.097 74.6886 150.367 75.3751 150.5 76C150.634 75.3751 150.903 74.6886 151.296 74.2954C151.689 73.9025 152.376 73.6336 153 73.4996C152.376 73.3661 151.689 73.0973 151.296 72.7043C150.903 72.3117 150.633 71.6246 150.5 71Z" fill="white"/>
<path opacity="0.1" d="M163.5 131C163.366 131.625 163.097 132.312 162.704 132.705C162.311 133.097 161.625 133.366 161 133.5C161.625 133.634 162.311 133.902 162.704 134.296C163.097 134.689 163.367 135.375 163.5 136C163.634 135.375 163.903 134.689 164.296 134.295C164.689 133.902 165.376 133.634 166 133.5C165.376 133.366 164.689 133.097 164.296 132.704C163.903 132.312 163.633 131.625 163.5 131Z" fill="white"/>
<path opacity="0.2" d="M1055.5 98C1055.37 98.6245 1055.1 99.3116 1054.7 99.7046C1054.31 100.097 1053.62 100.366 1053 100.5C1053.62 100.634 1054.31 100.902 1054.7 101.296C1055.1 101.689 1055.37 102.375 1055.5 103C1055.63 102.375 1055.9 101.689 1056.3 101.295C1056.69 100.902 1057.38 100.634 1058 100.5C1057.38 100.366 1056.69 100.097 1056.3 99.7043C1055.9 99.3117 1055.63 98.6246 1055.5 98Z" fill="white"/>
<path opacity="0.2" d="M651.5 114C651.366 114.625 651.097 115.312 650.704 115.705C650.311 116.097 649.625 116.366 649 116.5C649.625 116.634 650.311 116.902 650.704 117.296C651.097 117.689 651.367 118.375 651.5 119C651.634 118.375 651.903 117.689 652.296 117.295C652.689 116.902 653.376 116.634 654 116.5C653.376 116.366 652.689 116.097 652.296 115.704C651.903 115.312 651.633 114.625 651.5 114Z" fill="white"/>
<path opacity="0.2" d="M482.5 122C482.366 122.625 482.097 123.312 481.704 123.705C481.311 124.097 480.625 124.366 480 124.5C480.625 124.634 481.311 124.902 481.704 125.296C482.097 125.689 482.367 126.375 482.5 127C482.634 126.375 482.903 125.689 483.296 125.295C483.689 124.902 484.376 124.634 485 124.5C484.376 124.366 483.689 124.097 483.296 123.704C482.903 123.312 482.633 122.625 482.5 122Z" fill="white"/>
<path opacity="0.2" d="M775.5 114C775.366 114.625 775.097 115.312 774.704 115.705C774.311 116.097 773.625 116.366 773 116.5C773.625 116.634 774.311 116.902 774.704 117.296C775.097 117.689 775.367 118.375 775.5 119C775.634 118.375 775.903 117.689 776.296 117.295C776.689 116.902 777.376 116.634 778 116.5C777.376 116.366 776.689 116.097 776.296 115.704C775.903 115.312 775.633 114.625 775.5 114Z" fill="white"/>
<path opacity="0.2" d="M569.5 107C569.366 107.625 569.097 108.312 568.704 108.705C568.311 109.097 567.625 109.366 567 109.5C567.625 109.634 568.311 109.902 568.704 110.296C569.097 110.689 569.367 111.375 569.5 112C569.634 111.375 569.903 110.689 570.296 110.295C570.689 109.902 571.376 109.634 572 109.5C571.376 109.366 570.689 109.097 570.296 108.704C569.903 108.312 569.633 107.625 569.5 107Z" fill="white"/>
<path opacity="0.1" d="M1060.5 54C1060.37 54.6245 1060.1 55.3116 1059.7 55.7046C1059.31 56.0973 1058.62 56.3664 1058 56.5001C1058.62 56.6341 1059.31 56.9024 1059.7 57.2957C1060.1 57.6886 1060.37 58.3751 1060.5 59C1060.63 58.3751 1060.9 57.6886 1061.3 57.2954C1061.69 56.9025 1062.38 56.6336 1063 56.4996C1062.38 56.3661 1061.69 56.0973 1061.3 55.7043C1060.9 55.3117 1060.63 54.6246 1060.5 54Z" fill="white"/>
<path opacity="0.5" d="M732.5 80C732.366 80.6245 732.097 81.3116 731.704 81.7046C731.311 82.0973 730.625 82.3664 730 82.5001C730.625 82.6341 731.311 82.9024 731.704 83.2957C732.097 83.6886 732.367 84.3751 732.5 85C732.634 84.3751 732.903 83.6886 733.296 83.2954C733.689 82.9025 734.376 82.6336 735 82.4996C734.376 82.3661 733.689 82.0973 733.296 81.7043C732.903 81.3117 732.633 80.6246 732.5 80Z" fill="white"/>
<path opacity="0.5" d="M366.5 124C366.366 124.625 366.097 125.312 365.704 125.705C365.311 126.097 364.625 126.366 364 126.5C364.625 126.634 365.311 126.902 365.704 127.296C366.097 127.689 366.367 128.375 366.5 129C366.634 128.375 366.903 127.689 367.296 127.295C367.689 126.902 368.376 126.634 369 126.5C368.376 126.366 367.689 126.097 367.296 125.704C366.903 125.312 366.633 124.625 366.5 124Z" fill="white"/>
<path opacity="0.5" d="M93.4998 34C93.366 34.6245 93.0975 35.3116 92.7044 35.7046C92.3114 36.0973 91.6245 36.3664 91 36.5001C91.6245 36.6341 92.3114 36.9024 92.7044 37.2957C93.0975 37.6886 93.3666 38.3751 93.5003 39C93.634 38.3751 93.9026 37.6886 94.2958 37.2954C94.6886 36.9025 95.3756 36.6336 96 36.4996C95.3756 36.3661 94.6886 36.0973 94.2956 35.7043C93.9026 35.3117 93.6334 34.6246 93.4998 34Z" fill="white"/>
<path opacity="0.5" d="M923.5 171C923.42 171.375 923.258 171.787 923.023 172.023C922.787 172.258 922.375 172.42 922 172.5C922.375 172.58 922.787 172.741 923.023 172.977C923.258 173.213 923.42 173.625 923.5 174C923.58 173.625 923.742 173.213 923.978 172.977C924.213 172.741 924.625 172.58 925 172.5C924.625 172.42 924.213 172.258 923.977 172.023C923.742 171.787 923.58 171.375 923.5 171Z" fill="white"/>
<path opacity="0.2" d="M1208.5 183C1208.37 183.625 1208.1 184.312 1207.7 184.705C1207.31 185.097 1206.62 185.366 1206 185.5C1206.62 185.634 1207.31 185.902 1207.7 186.296C1208.1 186.689 1208.37 187.375 1208.5 188C1208.63 187.375 1208.9 186.689 1209.3 186.295C1209.69 185.902 1210.38 185.634 1211 185.5C1210.38 185.366 1209.69 185.097 1209.3 184.704C1208.9 184.312 1208.63 183.625 1208.5 183Z" fill="white"/>
<path opacity="0.2" d="M204.5 96C204.366 96.6245 204.097 97.3116 203.704 97.7046C203.311 98.0973 202.625 98.3664 202 98.5001C202.625 98.6341 203.311 98.9024 203.704 99.2957C204.097 99.6886 204.367 100.375 204.5 101C204.634 100.375 204.903 99.6886 205.296 99.2954C205.689 98.9025 206.376 98.6336 207 98.4996C206.376 98.3661 205.689 98.0973 205.296 97.7043C204.903 97.3117 204.633 96.6246 204.5 96Z" fill="white"/>
<path opacity="0.2" d="M242 131C241.946 131.25 241.839 131.525 241.682 131.682C241.525 131.839 241.25 131.947 241 132C241.25 132.054 241.525 132.161 241.682 132.318C241.839 132.475 241.947 132.75 242 133C242.054 132.75 242.161 132.475 242.318 132.318C242.475 132.161 242.75 132.053 243 132C242.75 131.946 242.475 131.839 242.318 131.682C242.161 131.525 242.053 131.25 242 131Z" fill="white"/>
<path opacity="0.5" d="M143 189C142.946 189.25 142.839 189.525 142.682 189.682C142.525 189.839 142.25 189.947 142 190C142.25 190.054 142.525 190.161 142.682 190.318C142.839 190.475 142.947 190.75 143 191C143.054 190.75 143.161 190.475 143.318 190.318C143.475 190.161 143.75 190.053 144 190C143.75 189.946 143.475 189.839 143.318 189.682C143.161 189.525 143.053 189.25 143 189Z" fill="white"/>
<path opacity="0.2" d="M186 162C185.946 162.25 185.839 162.525 185.682 162.682C185.525 162.839 185.25 162.947 185 163C185.25 163.054 185.525 163.161 185.682 163.318C185.839 163.475 185.947 163.75 186 164C186.054 163.75 186.161 163.475 186.318 163.318C186.475 163.161 186.75 163.053 187 163C186.75 162.946 186.475 162.839 186.318 162.682C186.161 162.525 186.053 162.25 186 162Z" fill="white"/>
<path opacity="0.2" d="M75.9999 133C75.9464 133.25 75.839 133.525 75.6818 133.682C75.5246 133.839 75.2498 133.947 75 134C75.2498 134.054 75.5246 134.161 75.6818 134.318C75.839 134.475 75.9466 134.75 76.0001 135C76.0536 134.75 76.1611 134.475 76.3183 134.318C76.4754 134.161 76.7502 134.053 77 134C76.7502 133.946 76.4754 133.839 76.3182 133.682C76.1611 133.525 76.0534 133.25 75.9999 133Z" fill="white"/>
<path opacity="0.5" d="M109.5 160C109.366 160.625 109.097 161.312 108.704 161.705C108.311 162.097 107.625 162.366 107 162.5C107.625 162.634 108.311 162.902 108.704 163.296C109.097 163.689 109.367 164.375 109.5 165C109.634 164.375 109.903 163.689 110.296 163.295C110.689 162.902 111.376 162.634 112 162.5C111.376 162.366 110.689 162.097 110.296 161.704C109.903 161.312 109.633 160.625 109.5 160Z" fill="white"/>
<path opacity="0.2" d="M114.5 96C114.366 96.6245 114.097 97.3116 113.704 97.7046C113.311 98.0973 112.625 98.3664 112 98.5001C112.625 98.6341 113.311 98.9024 113.704 99.2957C114.097 99.6886 114.367 100.375 114.5 101C114.634 100.375 114.903 99.6886 115.296 99.2954C115.689 98.9025 116.376 98.6336 117 98.4996C116.376 98.3661 115.689 98.0973 115.296 97.7043C114.903 97.3117 114.633 96.6246 114.5 96Z" fill="white"/>
<path opacity="0.5" d="M1276.5 107C1276.37 107.625 1276.1 108.312 1275.7 108.705C1275.31 109.097 1274.62 109.366 1274 109.5C1274.62 109.634 1275.31 109.902 1275.7 110.296C1276.1 110.689 1276.37 111.375 1276.5 112C1276.63 111.375 1276.9 110.689 1277.3 110.295C1277.69 109.902 1278.38 109.634 1279 109.5C1278.38 109.366 1277.69 109.097 1277.3 108.704C1276.9 108.312 1276.63 107.625 1276.5 107Z" fill="white"/>
<path opacity="0.1" d="M1359.5 0C1359.37 0.624547 1359.1 1.31162 1358.7 1.7046C1358.31 2.09729 1357.62 2.3664 1357 2.50013C1357.62 2.63414 1358.31 2.90242 1358.7 3.29566C1359.1 3.6886 1359.37 4.37513 1359.5 5C1359.63 4.37513 1359.9 3.68864 1360.3 3.2954C1360.69 2.90245 1361.38 2.6336 1362 2.49962C1361.38 2.36611 1360.69 2.09733 1360.3 1.70435C1359.9 1.31165 1359.63 0.624579 1359.5 0Z" fill="white"/>
<path opacity="0.5" d="M1203.5 72C1203.37 72.6245 1203.1 73.3116 1202.7 73.7046C1202.31 74.0973 1201.62 74.3664 1201 74.5001C1201.62 74.6341 1202.31 74.9024 1202.7 75.2957C1203.1 75.6886 1203.37 76.3751 1203.5 77C1203.63 76.3751 1203.9 75.6886 1204.3 75.2954C1204.69 74.9025 1205.38 74.6336 1206 74.4996C1205.38 74.3661 1204.69 74.0973 1204.3 73.7043C1203.9 73.3117 1203.63 72.6246 1203.5 72Z" fill="white"/>
</svg>
