<svg width="25" height="24" viewBox="0 0 25 24" fill="none" xmlns="http://www.w3.org/2000/svg">
<path d="M3.55414 0.859375C2.70969 2.33594 2.22266 4.04303 2.22266 5.86469C2.22266 9.62842 4.28389 12.9192 7.33784 14.6655C7.35673 14.3418 7.38097 14.017 7.41401 13.6928C4.82042 12.0538 3.09852 9.16113 3.09852 5.86469C3.09852 4.01659 3.64367 2.30387 4.57803 0.859375H3.55414ZM6.78992 0.859375C5.58945 2.18467 4.85052 3.93602 4.85052 5.86469C4.85052 8.25906 5.97795 10.3954 7.73052 11.7695L7.73333 11.7578C7.80889 11.448 7.89612 11.1481 8.00005 10.8613C6.60645 9.64745 5.72661 7.86011 5.72661 5.86469C5.72661 3.85619 6.62914 2.07545 8.04392 0.859375H6.79002H6.78992ZM16.6586 0.859375C18.0707 2.07578 18.976 3.85952 18.976 5.86469C18.976 7.79369 18.1535 9.5283 16.8402 10.7383C16.9462 11.0328 17.0332 11.3418 17.1054 11.6611C18.7811 10.2846 19.8519 8.19784 19.8519 5.86478C19.8519 3.93714 19.1108 2.18509 17.911 0.859469H16.6585L16.6586 0.859375ZM20.0996 0.859375C21.0399 2.30627 21.604 4.01814 21.604 5.86469C21.604 9.12048 19.9249 11.9821 17.3852 13.6314C17.4108 13.9613 17.429 14.2927 17.4409 14.6215C20.4534 12.8645 22.4813 9.59748 22.4813 5.86473C22.4813 4.04012 21.9777 2.33373 21.1279 0.859422L20.0996 0.859375ZM12.3505 0.96625C9.64934 0.96625 7.45067 3.16497 7.45067 5.86619C7.45067 7.20709 7.99255 8.4243 8.86864 9.31009C9.06223 9.08922 9.28302 8.8968 9.5293 8.73869C8.78661 8.00931 8.32667 6.9932 8.32667 5.86619C8.32667 3.63836 10.1227 1.84225 12.3506 1.84225C14.5784 1.84225 16.3745 3.63836 16.3745 5.86619C16.3745 6.95181 15.9476 7.93403 15.2525 8.65666C15.5097 8.80384 15.7397 8.98633 15.941 9.19727C16.7532 8.3223 17.2505 7.15084 17.2505 5.86614C17.2505 3.16492 15.0519 0.966297 12.3506 0.966297L12.3505 0.96625ZM12.1543 3.57081C11.1408 3.70206 10.2338 4.87909 10.2338 6.39644C10.2338 7.23297 10.5232 7.97392 10.9502 8.48683L11.4277 9.05955L10.6939 9.19736C10.1368 9.3017 9.7273 9.59636 9.37986 10.0718C9.03252 10.5473 8.76941 11.2069 8.58439 11.9658C8.24745 13.3487 8.17489 15.0361 8.16406 16.5186H9.99214L10.0228 16.9244L10.4872 23.1353H14.4102L14.8203 16.9273L14.8481 16.5186H16.5883C16.5874 15.0186 16.57 13.3081 16.2646 11.9147C16.0972 11.1507 15.8431 10.4925 15.4911 10.0221C15.1393 9.55169 14.7105 9.25858 14.0864 9.1622L13.3393 9.04638L13.8125 8.45458C14.2209 7.94411 14.4965 7.21262 14.4965 6.39648C14.4965 4.77859 13.4812 3.57367 12.3651 3.57367C12.2399 3.57367 12.1647 3.56936 12.1542 3.57072L12.1543 3.57081Z" fill="#FFAE00"/>
</svg>
