<svg width="32" height="32" viewBox="0 0 32 32" fill="none" xmlns="http://www.w3.org/2000/svg">
<path fill-rule="evenodd" clip-rule="evenodd" d="M16.0117 22C19.3254 22 22.0117 19.3137 22.0117 16C22.0117 12.6863 19.3254 10 16.0117 10C12.698 10 10.0117 12.6863 10.0117 16C10.0117 19.3137 12.698 22 16.0117 22ZM16.0117 20C18.2208 20 20.0117 18.2091 20.0117 16C20.0117 13.7909 18.2208 12 16.0117 12C13.8026 12 12.0117 13.7909 12.0117 16C12.0117 18.2091 13.8026 20 16.0117 20Z" fill="white"/>
<path d="M22.0117 9C21.4594 9 21.0117 9.44772 21.0117 10C21.0117 10.5523 21.4594 11 22.0117 11C22.564 11 23.0117 10.5523 23.0117 10C23.0117 9.44772 22.564 9 22.0117 9Z" fill="white"/>
<path fill-rule="evenodd" clip-rule="evenodd" d="M5.65396 8.27606C5 9.55953 5 11.2397 5 14.6V17.4C5 20.7603 5 22.4405 5.65396 23.7239C6.2292 24.8529 7.14708 25.7708 8.27606 26.346C9.55953 27 11.2397 27 14.6 27H17.4C20.7603 27 22.4405 27 23.7239 26.346C24.8529 25.7708 25.7708 24.8529 26.346 23.7239C27 22.4405 27 20.7603 27 17.4V14.6C27 11.2397 27 9.55953 26.346 8.27606C25.7708 7.14708 24.8529 6.2292 23.7239 5.65396C22.4405 5 20.7603 5 17.4 5H14.6C11.2397 5 9.55953 5 8.27606 5.65396C7.14708 6.2292 6.2292 7.14708 5.65396 8.27606ZM17.4 7H14.6C12.8868 7 11.7222 7.00156 10.8221 7.0751C9.94524 7.14674 9.49684 7.27659 9.18404 7.43597C8.43139 7.81947 7.81947 8.43139 7.43597 9.18404C7.27659 9.49684 7.14674 9.94524 7.0751 10.8221C7.00156 11.7222 7 12.8868 7 14.6V17.4C7 19.1132 7.00156 20.2777 7.0751 21.1779C7.14674 22.0548 7.27659 22.5032 7.43597 22.816C7.81947 23.5686 8.43139 24.1805 9.18404 24.564C9.49684 24.7234 9.94524 24.8533 10.8221 24.9249C11.7222 24.9984 12.8868 25 14.6 25H17.4C19.1132 25 20.2777 24.9984 21.1779 24.9249C22.0548 24.8533 22.5032 24.7234 22.816 24.564C23.5686 24.1805 24.1805 23.5686 24.564 22.816C24.7234 22.5032 24.8533 22.0548 24.9249 21.1779C24.9984 20.2777 25 19.1132 25 17.4V14.6C25 12.8868 24.9984 11.7222 24.9249 10.8221C24.8533 9.94524 24.7234 9.49684 24.564 9.18404C24.1805 8.43139 23.5686 7.81947 22.816 7.43597C22.5032 7.27659 22.0548 7.14674 21.1779 7.0751C20.2777 7.00156 19.1132 7 17.4 7Z" fill="white"/>
</svg>
