<svg width="56" height="56" viewBox="0 0 56 56" fill="none" xmlns="http://www.w3.org/2000/svg">
<path d="M28 0.52832C43.1722 0.52832 55.4717 12.8278 55.4717 28C55.4717 43.1722 43.1722 55.4717 28 55.4717C12.8278 55.4717 0.52832 43.1722 0.52832 28C0.52832 12.8278 12.8278 0.52832 28 0.52832Z" fill="#F3F4F4" fill-opacity="0.1"/>
<path d="M28 0.52832C43.1722 0.52832 55.4717 12.8278 55.4717 28C55.4717 43.1722 43.1722 55.4717 28 55.4717C12.8278 55.4717 0.52832 43.1722 0.52832 28C0.52832 12.8278 12.8278 0.52832 28 0.52832Z" stroke="url(#paint0_linear_843_26363)" stroke-width="1.05655"/>
<path fill-rule="evenodd" clip-rule="evenodd" d="M28.4375 33.6191C31.7512 33.6191 34.4375 30.9328 34.4375 27.6191C34.4375 24.3054 31.7512 21.6191 28.4375 21.6191C25.1238 21.6191 22.4375 24.3054 22.4375 27.6191C22.4375 30.9328 25.1238 33.6191 28.4375 33.6191ZM28.4375 31.6191C30.6466 31.6191 32.4375 29.8282 32.4375 27.6191C32.4375 25.41 30.6466 23.6191 28.4375 23.6191C26.2284 23.6191 24.4375 25.41 24.4375 27.6191C24.4375 29.8282 26.2284 31.6191 28.4375 31.6191Z" fill="#FFAE00"/>
<path d="M34.4375 20.6191C33.8852 20.6191 33.4375 21.0669 33.4375 21.6191C33.4375 22.1714 33.8852 22.6191 34.4375 22.6191C34.9898 22.6191 35.4375 22.1714 35.4375 21.6191C35.4375 21.0669 34.9898 20.6191 34.4375 20.6191Z" fill="#FFAE00"/>
<path fill-rule="evenodd" clip-rule="evenodd" d="M18.0836 19.8952C17.4297 21.1787 17.4297 22.8588 17.4297 26.2191V29.0191C17.4297 32.3794 17.4297 34.0596 18.0836 35.343C18.6589 36.472 19.5768 37.3899 20.7057 37.9651C21.9892 38.6191 23.6694 38.6191 27.0297 38.6191H29.8297C33.19 38.6191 34.8702 38.6191 36.1536 37.9651C37.2826 37.3899 38.2005 36.472 38.7757 35.343C39.4297 34.0596 39.4297 32.3794 39.4297 29.0191V26.2191C39.4297 22.8588 39.4297 21.1787 38.7757 19.8952C38.2005 18.7662 37.2826 17.8483 36.1536 17.2731C34.8702 16.6191 33.19 16.6191 29.8297 16.6191H27.0297C23.6694 16.6191 21.9892 16.6191 20.7057 17.2731C19.5768 17.8483 18.6589 18.7662 18.0836 19.8952ZM29.8297 18.6191H27.0297C25.3165 18.6191 24.1519 18.6207 23.2518 18.6942C22.3749 18.7659 21.9265 18.8957 21.6137 19.0551C20.8611 19.4386 20.2492 20.0505 19.8657 20.8032C19.7063 21.116 19.5764 21.5644 19.5048 22.4412C19.4312 23.3414 19.4297 24.506 19.4297 26.2191V29.0191C19.4297 30.7323 19.4312 31.8968 19.5048 32.797C19.5764 33.6739 19.7063 34.1223 19.8657 34.4351C20.2492 35.1877 20.8611 35.7996 21.6137 36.1831C21.9265 36.3425 22.3749 36.4724 23.2518 36.544C24.1519 36.6175 25.3165 36.6191 27.0297 36.6191H29.8297C31.5429 36.6191 32.7074 36.6175 33.6076 36.544C34.4845 36.4724 34.9329 36.3425 35.2457 36.1831C35.9983 35.7996 36.6102 35.1877 36.9937 34.4351C37.1531 34.1223 37.283 33.6739 37.3546 32.797C37.4281 31.8968 37.4297 30.7323 37.4297 29.0191V26.2191C37.4297 24.506 37.4281 23.3414 37.3546 22.4412C37.283 21.5644 37.1531 21.116 36.9937 20.8032C36.6102 20.0505 35.9983 19.4386 35.2457 19.0551C34.9329 18.8957 34.4845 18.7659 33.6076 18.6942C32.7074 18.6207 31.5429 18.6191 29.8297 18.6191Z" fill="#FFAE00"/>
<defs>
<linearGradient id="paint0_linear_843_26363" x1="37.8" y1="37.8" x2="56" y2="56" gradientUnits="userSpaceOnUse">
<stop stop-color="white" stop-opacity="0.5"/>
<stop offset="1" stop-color="#FFAE00"/>
</linearGradient>
</defs>
</svg>
