<svg width="24" height="24" viewBox="0 0 24 24" fill="none" xmlns="http://www.w3.org/2000/svg">
<rect x="0.642857" y="0.642857" width="22.7143" height="22.7143" rx="2.35714" stroke="white" stroke-width="1.28571"/>
<path d="M14.8419 9.51316C15.9726 9.51316 17.0569 9.96231 17.8564 10.7618C18.6559 11.5613 19.1051 12.6457 19.1051 13.7763V18.75H16.263V13.7763C16.263 13.3994 16.1132 13.038 15.8467 12.7715C15.5802 12.505 15.2188 12.3553 14.8419 12.3553C14.465 12.3553 14.1036 12.505 13.8371 12.7715C13.5706 13.038 13.4208 13.3994 13.4208 13.7763V18.75H10.5787V13.7763C10.5787 12.6457 11.0279 11.5613 11.8274 10.7618C12.6269 9.96231 13.7112 9.51316 14.8419 9.51316Z" fill="white"/>
<path d="M7.73664 10.2237H4.89453V18.75H7.73664V10.2237Z" fill="white"/>
<path d="M6.31558 8.09211C7.10041 8.09211 7.73664 7.45588 7.73664 6.67105C7.73664 5.88623 7.10041 5.25 6.31558 5.25C5.53076 5.25 4.89453 5.88623 4.89453 6.67105C4.89453 7.45588 5.53076 8.09211 6.31558 8.09211Z" fill="white"/>
</svg>
