<svg width="56" height="56" viewBox="0 0 56 56" fill="none" xmlns="http://www.w3.org/2000/svg">
<path d="M28 0.52832C43.1722 0.52832 55.4717 12.8278 55.4717 28C55.4717 43.1722 43.1722 55.4717 28 55.4717C12.8278 55.4717 0.52832 43.1722 0.52832 28C0.52832 12.8278 12.8278 0.52832 28 0.52832Z" fill="#F3F4F4" fill-opacity="0.1"/>
<path d="M28 0.52832C43.1722 0.52832 55.4717 12.8278 55.4717 28C55.4717 43.1722 43.1722 55.4717 28 55.4717C12.8278 55.4717 0.52832 43.1722 0.52832 28C0.52832 12.8278 12.8278 0.52832 28 0.52832Z" stroke="url(#paint0_linear_839_26598)" stroke-width="1.05655"/>
<path fill-rule="evenodd" clip-rule="evenodd" d="M28.5756 24.0106V26.344C29.0642 25.5997 29.7378 24.995 30.5303 24.5891C31.3228 24.1832 32.2071 23.99 33.0966 24.0285C37.8473 24.0285 38.8745 26.9985 38.8745 30.8623V38.7288H34.4744V31.7547C34.4744 30.0909 34.1389 27.9514 31.5484 27.9514C29.0362 27.9514 28.6072 29.7623 28.6072 31.631V38.7288H24.2209V24.0106H28.5756ZM21.2742 20.3118C21.2737 20.7477 21.1445 21.1737 20.9028 21.5365C20.6611 21.8992 20.3177 22.1826 19.9157 22.351C19.5138 22.518 19.0713 22.5617 18.6445 22.4765C18.2177 22.3913 17.826 22.181 17.519 21.8724C17.2115 21.5637 17.0022 21.1709 16.9173 20.7435C16.8324 20.3161 16.8758 19.8731 17.0421 19.4703C17.2083 19.0675 17.4899 18.7228 17.8514 18.4796C18.213 18.2364 18.6384 18.1056 19.0742 18.1035C19.3638 18.1035 19.6505 18.1607 19.918 18.2718C20.1855 18.3828 20.4284 18.5456 20.6328 18.7508C20.8372 18.956 20.999 19.1995 21.1091 19.4673C21.2192 19.7352 21.2753 20.0222 21.2742 20.3118Z" fill="#FFAE00"/>
<path d="M21.2751 24.0293H16.875V38.7296H21.2751V24.0293Z" fill="#FFAE00"/>
<defs>
<linearGradient id="paint0_linear_839_26598" x1="37.8" y1="37.8" x2="56" y2="56" gradientUnits="userSpaceOnUse">
<stop stop-color="white" stop-opacity="0.5"/>
<stop offset="1" stop-color="#FFAE00"/>
</linearGradient>
</defs>
</svg>
