<svg width="56" height="56" viewBox="0 0 56 56" fill="none" xmlns="http://www.w3.org/2000/svg">
<path d="M28 0.52832C43.1722 0.52832 55.4717 12.8278 55.4717 28C55.4717 43.1722 43.1722 55.4717 28 55.4717C12.8278 55.4717 0.52832 43.1722 0.52832 28C0.52832 12.8278 12.8278 0.52832 28 0.52832Z" fill="#F3F4F4" fill-opacity="0.1"/>
<path d="M28 0.52832C43.1722 0.52832 55.4717 12.8278 55.4717 28C55.4717 43.1722 43.1722 55.4717 28 55.4717C12.8278 55.4717 0.52832 43.1722 0.52832 28C0.52832 12.8278 12.8278 0.52832 28 0.52832Z" stroke="url(#paint0_linear_843_26354)" stroke-width="1.05655"/>
<path d="M18.5526 28.0003C18.5526 26.0053 20.1743 24.3837 22.1693 24.3837H26.8359V22.167H22.1693C18.9493 22.167 16.3359 24.7803 16.3359 28.0003C16.3359 31.2203 18.9493 33.8337 22.1693 33.8337H26.8359V31.617H22.1693C20.1743 31.617 18.5526 29.9953 18.5526 28.0003ZM23.3359 29.167H32.6693V26.8337H23.3359V29.167ZM33.8359 22.167H29.1693V24.3837H33.8359C35.8309 24.3837 37.4526 26.0053 37.4526 28.0003C37.4526 29.9953 35.8309 31.617 33.8359 31.617H29.1693V33.8337H33.8359C37.0559 33.8337 39.6693 31.2203 39.6693 28.0003C39.6693 24.7803 37.0559 22.167 33.8359 22.167Z" fill="#FFAE00"/>
<defs>
<linearGradient id="paint0_linear_843_26354" x1="37.8" y1="37.8" x2="56" y2="56" gradientUnits="userSpaceOnUse">
<stop stop-color="white" stop-opacity="0.5"/>
<stop offset="1" stop-color="#FFAE00"/>
</linearGradient>
</defs>
</svg>
