<svg width="83" height="50" viewBox="0 0 83 50" fill="none" xmlns="http://www.w3.org/2000/svg">
<ellipse cx="41.5" cy="43.5" rx="41.5" ry="6.5" fill="#4CAF50"/>
<mask id="mask0_9355_2258" style="mask-type:alpha" maskUnits="userSpaceOnUse" x="18" y="0" width="48" height="48">
<rect x="18" width="48" height="48" fill="#D9D9D9"/>
</mask>
<g mask="url(#mask0_9355_2258)">
<path d="M42.0045 22.9538C42.9682 22.9538 43.7917 22.6202 44.475 21.9531C45.1583 21.286 45.5 20.4841 45.5 19.5474C45.5 18.6108 45.1568 17.8103 44.4705 17.1461C43.7842 16.482 42.9592 16.1499 41.9955 16.1499C41.0318 16.1499 40.2083 16.4834 39.525 17.1505C38.8417 17.8176 38.5 18.6195 38.5 19.5562C38.5 20.4929 38.8432 21.2933 39.5295 21.9575C40.2158 22.6217 41.0408 22.9538 42.0045 22.9538ZM42 39.0402C46.4333 35.1198 49.7083 31.564 51.825 28.3726C53.9417 25.1813 55 22.3706 55 19.9406C55 16.1243 53.7452 12.9993 51.2355 10.5658C48.7258 8.13257 45.6473 6.91597 42 6.91597C38.3527 6.91597 35.2742 8.13257 32.7645 10.5658C30.2548 12.9993 29 16.1243 29 19.9406C29 22.3706 30.0833 25.1813 32.25 28.3726C34.4167 31.564 37.6667 35.1198 42 39.0402ZM42 42.8796C36.6333 38.4408 32.625 34.318 29.975 30.511C27.325 26.704 26 23.1806 26 19.9406C26 15.0807 27.6083 11.2089 30.825 8.32535C34.0417 5.44178 37.7667 4 42 4C46.2333 4 49.9583 5.44178 53.175 8.32535C56.3917 11.2089 58 15.0807 58 19.9406C58 23.1806 56.675 26.704 54.025 30.511C51.375 34.318 47.3667 38.4408 42 42.8796Z" fill="#1C1B1F"/>
</g>
</svg>
