<svg width="20" height="21" viewBox="0 0 20 21" fill="none" xmlns="http://www.w3.org/2000/svg">
<mask id="mask0_5022_12366" style="mask-type:alpha" maskUnits="userSpaceOnUse" x="0" y="0" width="20" height="21">
<rect y="0.764648" width="20" height="20" fill="#D9D9D9"/>
</mask>
<g mask="url(#mask0_5022_12366)">
<path d="M10.0044 10.7646C10.4181 10.7646 10.7708 10.6174 11.0625 10.3228C11.3542 10.0282 11.5 9.67402 11.5 9.26027C11.5 8.84652 11.3527 8.49381 11.0581 8.20215C10.7635 7.91048 10.4094 7.76465 9.99563 7.76465C9.58188 7.76465 9.22917 7.91194 8.9375 8.20652C8.64583 8.50111 8.5 8.85527 8.5 9.26902C8.5 9.68277 8.64729 10.0355 8.94187 10.3271C9.23646 10.6188 9.59062 10.7646 10.0044 10.7646ZM10 16.7855C11.6528 15.2994 12.8993 13.9313 13.7396 12.6813C14.5799 11.4313 15 10.3133 15 9.32715C15 7.86881 14.5243 6.66048 13.5729 5.70215C12.6215 4.74382 11.4306 4.26465 10 4.26465C8.56944 4.26465 7.37847 4.74382 6.42708 5.70215C5.47569 6.66048 5 7.86881 5 9.32715C5 10.3133 5.42014 11.4313 6.26042 12.6813C7.10069 13.9313 8.34722 15.2994 10 16.7855ZM10 18.7646C7.81986 16.9437 6.19146 15.2524 5.11479 13.6907C4.03826 12.1289 3.5 10.6744 3.5 9.32715C3.5 7.46604 4.11806 5.90701 5.35417 4.65007C6.59028 3.39312 8.13542 2.76465 9.98958 2.76465C11.8438 2.76465 13.3924 3.39312 14.6354 4.65007C15.8785 5.90701 16.5 7.46604 16.5 9.32715C16.5 10.6744 15.9653 12.1258 14.8958 13.6813C13.8264 15.2369 12.1944 16.9313 10 18.7646Z" fill="white"/>
</g>
</svg>
