<svg width="1440" height="280" viewBox="0 0 1440 280" fill="none" xmlns="http://www.w3.org/2000/svg">
<path d="M330.83 215.27L328.24 215.839L328.59 213.761L336.15 207.644L334.22 205.256L326.22 211.742C325.927 211.976 325.731 212.311 325.67 212.681L325.03 216.549L306.83 220.546C306.445 220.625 306.081 220.785 305.762 221.014C305.443 221.244 305.176 221.538 304.979 221.878C304.781 222.217 304.658 222.595 304.617 222.985C304.576 223.376 304.618 223.771 304.74 224.144L313.85 253.616C314.11 254.408 314.651 255.077 315.372 255.497C316.092 255.917 316.942 256.058 317.76 255.895L335.76 251.897C336.571 251.704 337.284 251.22 337.761 250.536C338.239 249.853 338.448 249.017 338.35 248.189L334.25 217.618C334.199 217.23 334.067 216.858 333.863 216.524C333.658 216.191 333.386 215.904 333.063 215.682C332.741 215.461 332.375 215.31 331.99 215.239C331.606 215.167 331.21 215.178 330.83 215.27ZM331.23 218.328L332.46 227.492L326.08 228.901L327.7 219.107L331.23 218.328ZM324.47 219.817L322.85 229.611L310.47 232.329L307.73 223.495L324.47 219.817Z" fill="#4A4C4C"/>
<path d="M358.592 225.184L357.372 224.634L358.142 223.895L363.052 223.705L362.992 222.156L357.782 222.356C357.591 222.358 357.409 222.433 357.272 222.565L355.842 223.935L347.272 220.047C347.091 219.962 346.895 219.916 346.696 219.912C346.496 219.909 346.298 219.947 346.115 220.026C345.932 220.104 345.767 220.22 345.632 220.367C345.497 220.514 345.395 220.687 345.332 220.877L340.092 235.557C339.956 235.955 339.971 236.39 340.136 236.777C340.3 237.164 340.601 237.477 340.982 237.656L349.472 241.504C349.857 241.673 350.292 241.695 350.693 241.564C351.093 241.433 351.431 241.159 351.642 240.794L359.242 227.183C359.342 227.011 359.404 226.821 359.425 226.623C359.447 226.426 359.426 226.227 359.364 226.038C359.303 225.849 359.202 225.676 359.069 225.528C358.936 225.381 358.773 225.264 358.592 225.184ZM357.822 226.543L355.542 230.62L352.542 229.261L356.162 225.783L357.822 226.543ZM354.642 225.094L351.002 228.522L345.172 225.873L346.742 221.476L354.642 225.094Z" fill="#4A4C4C"/>
<path d="M570.299 253.286V263.16H310.609V260.672L312.949 257.394H326.589L328.859 259.812H332.209V261.062H342.819L347.069 256.814L351.839 261.132L358.909 251.368V248.769H361.189V250.948H365.669V252.827H371.799L377.879 246.74H385.319V243.472L388.389 240.404H389.169V237.546H393.119L392.489 238.176H391.489V239.525H392.489V243.682H394.999V242.743H397.389V241.084H400.089V242.643H401.759V249.339H404.149V246.481L408.519 228.402V220.087H409.349V215H410.279V220.087H411.429V228.082L415.689 246.471V249.069H418.389V247.72H422.549V257.594H424.999V252.397H439.699V253.396H441.569V258.693H446.869V256.305H450.409V260.572H453.109V257.034H456.749V259.842H463.409V261.601H464.999V258.173H467.489V254.955H468.999V257.454H470.349V254.166H471.189V252.167H473.469V250.768H477.219L489.589 247.96H498.639V245.881H506.539L512.049 250.658V253.047H513.189V254.925H517.769L520.059 251.697H525.459V246.171C526.079 245.841 526.699 245.541 527.329 245.261V247.76H528.169V251.917H534.169L536.089 253.836V255.655H537.389V252.167H540.609V248.11H541.609V252.267L542.809 253.466V257.584H545.809V255.285H546.359V254.546H558.639V255.785H560.739V254.036H562.999V251.927H568.999V253.336L570.299 253.286Z" fill="#4A4C4C"/>
<path d="M1096.08 246.111C1096.08 246.376 1096.18 246.631 1096.37 246.818C1096.56 247.005 1096.81 247.111 1097.08 247.111H1121.08C1121.34 247.111 1121.6 247.005 1121.79 246.818C1121.97 246.631 1122.08 246.376 1122.08 246.111V245.112C1122.08 244.847 1121.97 244.593 1121.79 244.405C1121.6 244.218 1121.34 244.113 1121.08 244.113H1119.7C1119.74 242.693 1119.5 241.28 1118.99 239.956C1118.47 238.632 1117.7 237.425 1116.71 236.405C1115.72 235.386 1114.54 234.576 1113.23 234.022C1111.92 233.469 1110.51 233.184 1109.09 233.184C1107.67 233.184 1106.27 233.469 1104.96 234.022C1103.65 234.576 1102.47 235.386 1101.48 236.405C1100.49 237.425 1099.71 238.632 1099.2 239.956C1098.69 241.28 1098.44 242.693 1098.49 244.113H1097.1C1096.83 244.113 1096.58 244.218 1096.39 244.405C1096.2 244.593 1096.1 244.847 1096.1 245.112L1096.08 246.111Z" fill="#040707"/>
<path d="M1109.62 232.309C1109.89 232.207 1110.12 232.026 1110.28 231.79C1110.44 231.554 1110.52 231.275 1110.52 230.989C1110.52 230.613 1110.37 230.252 1110.1 229.986C1109.84 229.72 1109.48 229.57 1109.1 229.57C1108.72 229.57 1108.36 229.72 1108.1 229.986C1107.83 230.252 1107.68 230.613 1107.68 230.989C1107.68 231.275 1107.76 231.554 1107.92 231.79C1108.08 232.026 1108.31 232.207 1108.58 232.309V233.448H1109.58L1109.62 232.309Z" fill="#040707"/>
<path d="M1100 226.043C1100.11 225.955 1100.17 225.83 1100.19 225.694C1100.2 225.558 1100.16 225.421 1100.08 225.313C1100 225.206 1099.87 225.137 1099.73 225.122C1099.6 225.107 1099.46 225.147 1099.35 225.233C1099.13 225.425 1098.95 225.661 1098.82 225.927C1098.7 226.192 1098.63 226.481 1098.62 226.774C1098.61 227.068 1098.67 227.36 1098.78 227.631C1098.89 227.903 1099.06 228.148 1099.27 228.351C1100.15 229.46 1098.78 231.079 1098.76 231.099C1098.67 231.204 1098.63 231.34 1098.64 231.477C1098.65 231.613 1098.72 231.74 1098.82 231.829C1098.91 231.908 1099.03 231.95 1099.15 231.949C1099.23 231.949 1099.3 231.933 1099.37 231.902C1099.44 231.871 1099.5 231.826 1099.55 231.769C1099.63 231.679 1101.49 229.49 1100.08 227.712C1099.31 226.722 1099.89 226.182 1100 226.043Z" fill="#040707"/>
<path d="M1104.54 226.044C1104.65 225.957 1104.72 225.832 1104.73 225.695C1104.75 225.559 1104.71 225.422 1104.62 225.314C1104.58 225.261 1104.53 225.217 1104.47 225.185C1104.41 225.152 1104.34 225.132 1104.28 225.124C1104.21 225.117 1104.14 225.123 1104.08 225.142C1104.01 225.16 1103.95 225.192 1103.9 225.234C1103.68 225.425 1103.5 225.661 1103.37 225.926C1103.24 226.191 1103.17 226.48 1103.17 226.773C1103.16 227.067 1103.21 227.359 1103.32 227.631C1103.43 227.903 1103.6 228.148 1103.81 228.352C1104.69 229.462 1103.32 231.081 1103.31 231.101C1103.21 231.198 1103.16 231.329 1103.16 231.465C1103.16 231.602 1103.21 231.733 1103.31 231.83C1103.41 231.908 1103.53 231.95 1103.65 231.95C1103.72 231.951 1103.8 231.935 1103.87 231.904C1103.93 231.873 1103.99 231.827 1104.04 231.77C1104.12 231.68 1106.04 229.492 1104.57 227.713C1103.84 226.723 1104.42 226.184 1104.54 226.044Z" fill="#040707"/>
<path d="M1113.39 231.83C1113.49 231.907 1113.61 231.95 1113.73 231.949C1113.8 231.95 1113.88 231.934 1113.95 231.903C1114.01 231.871 1114.07 231.826 1114.12 231.77C1114.2 231.68 1116.12 229.491 1114.65 227.712C1113.87 226.713 1114.45 226.143 1114.57 226.043C1114.63 226.002 1114.68 225.949 1114.71 225.889C1114.75 225.829 1114.77 225.761 1114.78 225.691C1114.79 225.622 1114.79 225.55 1114.77 225.482C1114.75 225.414 1114.72 225.351 1114.67 225.296C1114.63 225.241 1114.57 225.196 1114.51 225.162C1114.45 225.129 1114.38 225.109 1114.31 225.103C1114.24 225.098 1114.17 225.106 1114.1 225.128C1114.04 225.151 1113.97 225.187 1113.92 225.234C1113.7 225.426 1113.52 225.663 1113.4 225.928C1113.27 226.194 1113.2 226.482 1113.2 226.775C1113.19 227.068 1113.24 227.36 1113.35 227.631C1113.46 227.902 1113.63 228.148 1113.84 228.352C1114.72 229.461 1113.35 231.08 1113.34 231.09C1113.29 231.142 1113.26 231.202 1113.24 231.267C1113.22 231.332 1113.21 231.401 1113.21 231.47C1113.22 231.539 1113.23 231.606 1113.26 231.668C1113.3 231.73 1113.34 231.785 1113.39 231.83Z" fill="#040707"/>
<path d="M1119.1 226.043C1119.16 226.002 1119.2 225.949 1119.24 225.889C1119.28 225.829 1119.3 225.761 1119.31 225.691C1119.32 225.622 1119.32 225.55 1119.3 225.482C1119.28 225.414 1119.25 225.351 1119.2 225.296C1119.16 225.241 1119.1 225.196 1119.04 225.162C1118.98 225.129 1118.91 225.109 1118.84 225.103C1118.77 225.098 1118.7 225.106 1118.63 225.128C1118.56 225.151 1118.5 225.187 1118.45 225.234C1118.23 225.426 1118.05 225.662 1117.92 225.927C1117.8 226.193 1117.73 226.481 1117.72 226.775C1117.71 227.069 1117.77 227.36 1117.88 227.632C1117.99 227.903 1118.16 228.149 1118.37 228.352C1119.25 229.461 1117.88 231.08 1117.86 231.1C1117.77 231.205 1117.73 231.34 1117.74 231.477C1117.75 231.614 1117.81 231.74 1117.92 231.83C1118.02 231.907 1118.14 231.95 1118.26 231.949C1118.33 231.948 1118.41 231.932 1118.47 231.901C1118.54 231.87 1118.6 231.825 1118.65 231.77C1118.73 231.68 1120.59 229.491 1119.18 227.712C1118.39 226.723 1119 226.183 1119.1 226.043Z" fill="#040707"/>
<path d="M762.748 259.443C761.318 261.151 758.748 261.291 756.538 261.291H732.538L512.538 260.922C509.968 260.922 506.288 259.163 507.648 256.924C508.07 256.373 508.649 255.963 509.308 255.745C509.738 255.565 510.158 255.395 510.598 255.245C516.768 253.056 523.688 253.296 529.868 251.038C532.181 250.149 534.399 249.031 536.488 247.7C539.738 245.701 542.858 243.452 546.228 241.703C546.728 241.444 547.228 241.204 547.718 240.984L548.338 240.704C553.528 238.485 559.228 237.866 564.838 237.276C578.125 235.85 591.411 234.435 604.698 233.029C610.51 232.566 616.275 231.637 621.938 230.251C629.708 228.142 637.288 224.254 645.318 224.824C654.558 225.454 662.838 231.87 672.088 231.62C676.348 231.5 680.468 229.951 684.728 229.811C693.728 229.501 701.728 235.317 710.458 237.276C713.638 237.976 716.908 238.166 720.088 238.815C734.268 241.654 746.088 255.005 760.568 255.005C762.648 254.216 764.168 257.714 762.748 259.443Z" fill="#4A4C4C"/>
<path d="M1028.74 266.638C1020.18 270.636 1010.04 270.766 1000.43 270.766H732.79C730.79 270.766 728.43 270.666 727.05 269.147C725.31 267.238 726.05 263.99 727.99 262.241C729.93 260.492 732.53 259.853 735.05 259.243C754.31 254.691 773.264 248.933 791.8 242.004C795.26 240.704 798.93 239.345 802.57 240.005C805.57 240.564 808.92 242.473 811.57 240.844C812.68 240.165 813.42 238.955 814.57 238.416C816.09 237.716 817.86 238.326 819.41 238.936L842 247.83C845.5 249.199 849.13 250.588 852.87 250.348C857.64 250.029 861.87 247.12 866.45 245.951C875.67 243.633 885.36 248.43 894.77 247.13C897.63 246.731 900.39 245.781 903.25 245.441C908.05 244.862 912.86 246.001 917.6 246.971C933.027 250.129 948.757 251.557 964.5 251.228C969.777 250.951 975.066 250.975 980.34 251.298C989.34 252.137 998.01 255.295 1006.53 258.453C1013.94 261.172 1021.35 263.9 1028.74 266.638Z" fill="#4A4C4C"/>
<path d="M1260.59 270.306H1125.26C1123.54 270.306 1121.6 270.166 1120.43 268.167C1119.74 266.803 1119.47 265.266 1119.66 263.75C1119.67 263.602 1119.69 263.455 1119.72 263.31C1119.81 262.55 1119.98 261.803 1120.24 261.082C1120.36 260.715 1120.51 260.357 1120.69 260.012C1120.69 259.902 1120.8 259.792 1120.86 259.682C1120.97 259.468 1121.1 259.261 1121.24 259.063C1121.5 258.707 1121.79 258.373 1122.1 258.063C1123.53 256.714 1125.27 255.727 1127.16 255.185C1128.76 254.586 1130.37 253.976 1131.96 253.346H1142.5V252.167H1145.21V247.73C1146.55 247.13 1147.89 246.511 1149.21 245.881C1150.38 245.331 1151.55 244.782 1152.72 244.212C1160.18 240.614 1167.57 236.67 1174.88 232.379C1177.8 230.67 1180.88 228.871 1183.94 229.751C1186.51 230.48 1189.29 232.999 1191.5 230.87C1192.44 229.981 1193.06 228.362 1194.05 227.652C1195.33 226.743 1196.81 227.542 1198.12 228.342C1203.29 231.54 1208.46 234.721 1213.63 237.886L1225.15 245.881L1232.15 250.748L1237.01 254.106L1237.75 254.616L1238.52 255.135L1240.93 256.814L1242.72 258.043L1245.02 259.622L1245.59 260.022L1247.14 261.092L1256.98 267.887L1260.59 270.306Z" fill="#4A4C4C"/>
<path d="M1264.08 258.694H1220.26C1219.92 258.738 1219.58 258.662 1219.29 258.479C1219.01 258.296 1218.79 258.019 1218.69 257.694C1218.28 256.309 1218.37 254.822 1218.95 253.497C1219.36 252.686 1220.04 252.045 1220.87 251.688C1226.38 248.737 1231.56 245.213 1236.33 241.175C1237.33 240.385 1238.33 239.556 1239.26 239.965C1240.19 240.375 1240.99 241.465 1241.71 240.475C1242.02 240.065 1242.22 239.326 1242.54 238.996C1242.86 238.666 1243.43 238.946 1243.86 239.316L1248.86 243.713L1264.08 258.694Z" fill="#4A4C4C"/>
<path d="M537.539 270.316H1059V252.987L1058.55 252.697C1058.15 252.417 1057.78 251.568 1057.36 251.098L1054.98 250.349L1052.69 249.629L1047.44 247.98C1046.05 247.435 1044.61 247 1043.15 246.681C1042.98 246.679 1042.81 246.642 1042.66 246.573C1042.5 246.505 1042.36 246.405 1042.25 246.281C1042.17 246.151 1042.15 246.001 1042.01 245.911C1041.91 245.866 1041.8 245.845 1041.69 245.851L1040.4 245.751C1040.3 245.971 1040.19 246.181 1040.09 246.391C1039.53 246.365 1038.96 246.422 1038.42 246.561C1038.01 246.687 1037.59 246.787 1037.17 246.861C1036.58 246.931 1035.96 246.811 1035.36 246.861C1034.91 246.958 1034.46 247.085 1034.03 247.241C1032.84 247.421 1031.64 247.505 1030.44 247.49C1029.44 247.6 1028.44 247.92 1027.44 248.05C1026.94 248.09 1026.44 248.09 1025.94 248.05C1025.41 248.1 1024.88 248.025 1024.39 247.83C1024.3 247.788 1024.22 247.728 1024.16 247.654C1024.09 247.58 1024.05 247.494 1024.02 247.4C1024.02 247.4 1024.02 247.4 1024.02 247.34H1024C1023.77 247.34 1023.52 247.34 1023.27 247.34C1023.22 247.347 1023.16 247.347 1023.11 247.34C1023.09 247.319 1023.07 247.292 1023.06 247.263C1023.04 247.234 1023.04 247.202 1023.04 247.171C1023.01 246.995 1023.01 246.816 1023.04 246.641C1022.93 246.611 1022.81 246.611 1022.7 246.641C1022.59 246.661 1022.48 246.661 1022.37 246.641C1022.14 246.571 1022.26 246.241 1022.26 246.101C1021.88 246.082 1021.5 246.082 1021.12 246.101C1021.2 245.801 1021.12 245.562 1020.74 245.542C1020.36 245.522 1019.87 245.542 1019.45 245.542C1019.47 245.59 1019.48 245.643 1019.48 245.696C1019.48 245.75 1019.47 245.803 1019.45 245.851C1019.33 246.211 1018.79 245.851 1018.58 246.101C1018.5 246.191 1018.58 246.641 1018.58 246.771C1018.59 246.855 1018.57 246.941 1018.52 247.011C1018.46 247.062 1018.4 247.102 1018.32 247.128C1018.25 247.153 1018.18 247.165 1018.1 247.161C1017.7 247.161 1017.58 247.161 1017.5 246.881C1017.5 246.881 1017.44 246.461 1017.5 246.451C1016.79 246.531 1016.5 246.541 1016.5 245.971C1016.52 245.897 1016.52 245.816 1016.5 245.741C1016.34 245.522 1015.18 245.661 1014.89 245.661C1014.6 245.661 1014.76 246.251 1014.73 246.471C1014.73 246.512 1014.72 246.553 1014.7 246.59C1014.68 246.626 1014.65 246.658 1014.62 246.681C1014.39 246.851 1014.1 246.631 1013.91 246.851C1013.72 247.071 1013.81 247.4 1013.74 247.59C1013.52 248.062 1013.22 248.497 1012.87 248.88C1012.48 249.329 1011.54 249.149 1010.87 249.149C1010.62 249.149 1009.7 248.09 1009.52 247.94C1009.34 247.79 1009.41 247.84 1009.39 247.78C1009.34 247.689 1009.32 247.584 1009.33 247.48C1009.25 246.9 1009.07 246.338 1008.8 245.821C1008.58 245.372 1007.18 245.462 1006.69 245.452C1006.65 245.462 1006.6 245.462 1006.56 245.452C1006.56 245.452 1006.56 245.402 1006.56 245.372C1006.56 245.342 1006.4 244.652 1006.19 244.562C1006.12 244.547 1006.05 244.547 1005.99 244.562C1005.1 244.562 1004.21 244.562 1003.34 244.562C1003.39 245.409 1003.31 246.259 1003.1 247.081C1003.1 247.35 1002.78 247.72 1002.65 247.97C1002.65 247.97 1002.65 248.04 1002.57 248.05C1002.53 248.064 1002.49 248.064 1002.46 248.05C1000.67 247.4 998.959 246.481 997.229 245.721L993.379 244.013C992.371 243.421 991.236 243.078 990.069 243.013C988.919 243.013 987.779 243.093 986.629 243.213C985.643 243.421 984.627 243.455 983.629 243.313C982.939 243.163 982.279 242.933 981.629 242.743C978.77 242.144 975.835 241.989 972.929 242.284C972.779 242.623 972.789 243.073 972.289 243.283C971.964 243.376 971.626 243.409 971.289 243.383H970.449C969.045 243.268 967.633 243.268 966.229 243.383C964.769 243.593 963.339 243.813 961.889 244.053C960.439 244.292 958.889 244.632 957.309 244.852H957.179C957.158 244.845 957.139 244.834 957.123 244.82C957.106 244.806 957.093 244.788 957.084 244.769C957.074 244.749 957.069 244.728 957.068 244.706C957.068 244.684 957.071 244.662 957.079 244.642C957.079 244.422 957.079 244.202 957.079 243.993C957.079 243.944 957.067 243.895 957.044 243.852C957.022 243.809 956.989 243.771 956.949 243.743C956.861 243.717 956.767 243.717 956.679 243.743C955.269 243.743 953.849 243.693 952.449 243.693C952.249 243.678 952.049 243.678 951.849 243.693C951.628 243.747 951.414 243.824 951.209 243.923L946.519 246.021L944.209 247.021C943.524 247.417 942.804 247.752 942.059 248.02C941.895 248.106 941.714 248.157 941.529 248.17C941.355 248.171 941.182 248.141 941.019 248.08C939.409 247.58 937.829 247.081 936.269 246.551C934.771 246.045 933.2 245.788 931.619 245.791H921.409C920.307 245.721 919.201 245.721 918.099 245.791C918.199 245.562 917.999 245.312 917.779 245.132C917.02 244.387 916.042 243.904 914.989 243.753C913.865 243.787 912.756 244.027 911.719 244.462L909.389 245.282C908.845 245.486 908.287 245.649 907.719 245.771C906.545 245.938 905.347 245.804 904.239 245.382C903.719 245.222 903.239 245.042 902.699 244.862C902.158 244.601 901.587 244.406 900.999 244.282C900.877 244.236 900.749 244.209 900.619 244.202C900.53 244.211 900.443 244.231 900.359 244.262C899.539 244.522 898.679 244.742 897.889 245.032C897.38 245.261 896.855 245.454 896.319 245.612C895.722 245.72 895.116 245.774 894.509 245.771C893.324 245.779 892.144 245.628 890.999 245.322C889.986 244.992 888.954 244.722 887.909 244.512C887.245 244.437 886.577 244.411 885.909 244.432H877.569C876.35 244.437 875.133 244.537 873.929 244.732C871.829 245.042 869.739 245.372 867.649 245.671C865.559 245.971 863.759 246.341 861.809 246.501C859.259 246.701 856.659 246.501 854.119 246.501L849.579 246.431H847.469C846.409 246.431 845.329 246.271 844.529 246.891C844.128 247.316 843.645 247.656 843.109 247.89C842.269 248.021 841.416 248.051 840.569 247.98C840.13 248.001 839.691 247.971 839.259 247.89C838.009 247.61 837.329 246.541 836.149 246.111C835.491 245.874 834.777 245.839 834.099 246.011C833.469 246.171 833.219 246.641 832.659 246.871C832.081 247.053 831.471 247.111 830.869 247.041C830.369 247.041 828.559 247.3 828.319 246.921C828.299 246.852 828.299 246.779 828.319 246.711C828.319 246.441 828.319 246.181 828.319 245.921C828.319 245.921 828.319 245.851 828.319 245.831C828.284 245.817 828.244 245.817 828.209 245.831C827.667 245.727 827.111 245.727 826.569 245.831C826.179 245.931 825.919 246.301 825.679 246.541C824.419 247.84 822.259 248.06 820.429 248.65C818.599 249.239 816.839 250.219 814.819 250.369H814.759L805.389 251.058L792.109 252.058C791.431 252.154 790.74 252.064 790.109 251.798C789.139 251.202 788.028 250.874 786.889 250.848C785.914 250.923 784.955 251.135 784.039 251.478C783.134 251.818 782.209 252.102 781.269 252.327C779.864 252.618 778.411 252.587 777.019 252.237C776.789 252.177 776.559 252.108 776.329 252.058C775.938 252.004 775.544 251.981 775.149 251.988C774.951 251.978 774.752 251.998 774.559 252.048C774.441 252.101 774.327 252.165 774.219 252.237C773.397 252.793 772.627 253.422 771.919 254.116C771.834 254.206 771.736 254.283 771.629 254.346C770.5 254.474 769.365 254.527 768.229 254.506V253.457H765.599V252.717L763.599 252.227L762.719 252.527L761.839 252.807V253.167H759.509C759.299 253.167 759.509 253.627 759.509 253.627H757.929V254.376H753.179V253.547H752.409V252.887H751.629V253.587H750.779L749.989 254.756H747.839C747.699 254.756 747.839 254.396 747.839 254.396H744.629C741.469 253.507 738.279 252.257 734.919 251.938C731.072 251.632 727.202 252.014 723.489 253.067C719.773 253.956 716.142 255.17 712.639 256.695C711.732 257.19 710.773 257.582 709.779 257.864C706.469 258.624 703.369 256.865 700.319 256.205C696.645 255.593 692.924 255.295 689.199 255.316C683.357 254.988 677.498 255.132 671.679 255.745C670.009 255.965 668.029 256.635 666.349 256.615C664.669 256.595 663.139 255.785 661.719 255.375C660.312 255.02 658.859 254.878 657.409 254.956H650.699L650.529 253.027H652.989L634.579 242.174L618.999 253.916H620.589V257.634H618.329C617.833 257.224 617.262 256.912 616.649 256.715C616.436 256.695 616.222 256.695 616.009 256.715C615.579 256.715 615.129 256.775 614.709 256.835C614.327 256.853 613.956 256.966 613.629 257.164C613.399 257.384 613.629 257.624 613.629 257.884C613.631 258.038 613.591 258.19 613.513 258.324C613.436 258.458 613.324 258.568 613.189 258.643C612.892 258.906 612.554 259.119 612.189 259.273C612.113 259.324 612.028 259.362 611.939 259.383C611.822 259.387 611.705 259.363 611.599 259.313C610.742 258.975 609.85 258.734 608.939 258.594C608.167 258.534 607.391 258.534 606.619 258.594C606.404 258.589 606.189 258.609 605.979 258.653C605.494 258.837 605.02 259.047 604.559 259.283C604.038 259.382 603.499 259.34 602.999 259.163C601.186 258.624 599.266 258.555 597.419 258.963C596.654 259.258 595.848 259.433 595.029 259.483C594.238 259.486 593.461 259.275 592.779 258.873C592.535 258.68 592.257 258.534 591.959 258.444C591.808 258.412 591.654 258.395 591.499 258.394C590.531 258.328 589.558 258.398 588.609 258.604C587.771 258.893 586.884 259.015 585.999 258.963C585.624 258.896 585.253 258.806 584.889 258.693C583.933 258.493 582.954 258.423 581.979 258.484C581.273 258.434 580.565 258.434 579.859 258.484L577.769 258.883L576.019 259.673C575.729 259.844 575.42 259.982 575.099 260.083C574.859 260.083 574.749 259.753 574.649 259.583C574.626 259.535 574.587 259.496 574.539 259.473C574.489 259.464 574.439 259.464 574.389 259.473C573.813 259.382 573.226 259.382 572.649 259.473C572.58 259.527 572.528 259.6 572.499 259.683L571.839 260.942C571.821 260.987 571.79 261.026 571.749 261.052C571.7 261.08 571.646 261.097 571.589 261.102C571.319 261.102 570.779 261.362 570.529 261.212C570.5 261.2 570.473 261.182 570.451 261.16C570.429 261.138 570.411 261.111 570.399 261.082C570.094 260.697 569.854 260.265 569.689 259.803C569.569 259.363 569.689 258.923 569.229 258.574C568.856 258.294 568.458 258.049 568.039 257.844C567.507 257.534 567.013 257.161 566.569 256.735C566.344 256.461 566.046 256.256 565.709 256.145C565.474 256.11 565.234 256.11 564.999 256.145C563.609 256.205 562.169 256.255 560.779 256.445C559.937 256.543 559.106 256.724 558.299 256.985C557.895 257.101 557.515 257.291 557.179 257.544C556.82 257.88 556.548 258.298 556.389 258.763C556.044 259.359 555.81 260.013 555.699 260.692L554.789 260.492C553.369 259.743 553.009 261.002 552.629 261.322C552.429 261.502 551.539 262.321 551.149 262.111C547.149 260.193 545.289 259.563 545.039 259.373L543.039 260.692H539.699L537.539 270.316Z" fill="#040707"/>
<path d="M741.679 261.393H556.449V259.554L559.249 259.224L560.719 258.295H562.249L564.679 257.375L566.679 256.975L568.469 256.576L569.469 256.945L573.049 256.576L574.049 254.887H577.179L579.729 254.077L583.729 254.387L585.069 253.238L589.339 252.778C589.339 252.778 590.679 252.968 590.679 252.778C590.82 252.44 591.009 252.124 591.239 251.839H594.239L595.119 251.249L596.969 250.249L599.529 250.649L600.359 250.249H602.589C603.24 250.429 603.92 250.476 604.589 250.389L606.069 250.539L607.469 249.97L608.619 250.14L609.709 250.339L611.489 249.75H612.899C612.936 249.755 612.973 249.755 613.009 249.75C614.799 249.41 616.519 248.93 618.239 248.531L622.099 247.651C623.174 247.333 624.288 247.161 625.409 247.141C626.559 247.141 627.699 247.141 628.829 247.241C629.825 247.353 630.83 247.37 631.829 247.291C632.529 247.221 633.189 247.101 633.829 247.002C636.715 246.691 639.621 246.61 642.519 246.762C642.689 246.942 642.679 247.171 643.179 247.261C643.511 247.3 643.847 247.3 644.179 247.261H644.999C646.389 247.261 647.679 247.741 648.999 247.841C650.319 247.941 652.069 247.501 653.509 247.621C654.949 247.741 653.809 246.932 655.359 247.041C655.359 247.041 656.239 247.491 656.279 247.481C656.622 247.397 656.956 247.283 657.279 247.141C657.939 246.962 658.279 247.281 658.279 247.141C658.279 247.002 658.439 247.311 658.529 247.281C658.619 247.251 658.529 247.421 658.659 247.421C660.069 247.421 661.479 247.421 662.889 247.421C663.086 247.411 663.283 247.411 663.479 247.421C663.698 247.442 663.916 247.478 664.129 247.531L668.809 248.621L670.249 249.85L672.969 250.469L675.519 250.08L680.199 250.689V251.439C680.199 251.439 681.479 251.709 681.739 251.749C681.999 251.789 688.459 251.749 688.459 251.749L689.569 252.548L692.459 252.768L695.099 253.947L697.479 253.607L700.479 254.397H703.119L705.499 254.837L706.179 255.836L709.249 255.606L713.079 256.845L713.589 257.415L716.219 257.115L719.459 257.905L720.049 258.524H724.479L724.909 259.574L728.909 260.063H731.539V259.494L733.669 259.664L734.859 260.283H737.589L741.679 261.393Z" fill="#040707"/>
<path d="M290.388 247.991H290.218C290.108 247.991 290.068 247.991 290.058 247.841C290.058 247.301 289.968 246.752 289.928 246.212C289.828 245.113 289.738 244.013 289.648 242.914C289.648 242.644 289.648 242.384 289.578 242.114C289.578 242.014 289.578 241.955 289.698 241.965C289.818 241.975 289.788 241.964 289.788 241.915C289.788 241.865 289.728 241.845 289.678 241.845H289.368C289.298 241.845 289.268 241.845 289.268 241.745C289.268 241.395 289.268 241.045 289.268 240.695C289.268 240.615 289.318 240.575 289.358 240.525C289.379 240.507 289.396 240.484 289.408 240.458C289.42 240.432 289.426 240.404 289.426 240.375C289.426 240.347 289.42 240.319 289.408 240.293C289.396 240.267 289.379 240.244 289.358 240.226C289.323 240.193 289.276 240.174 289.228 240.174C289.18 240.174 289.133 240.193 289.098 240.226C289.077 240.244 289.06 240.267 289.048 240.293C289.036 240.319 289.03 240.347 289.03 240.375C289.03 240.404 289.036 240.432 289.048 240.458C289.06 240.484 289.077 240.507 289.098 240.525C289.155 240.581 289.187 240.656 289.188 240.735C289.188 241.055 289.188 241.365 289.188 241.685C289.188 241.825 289.128 241.855 289.018 241.845H288.728C288.678 241.845 288.648 241.845 288.648 241.915C288.648 241.984 288.648 241.965 288.708 241.965H288.888C288.908 242.104 288.908 242.245 288.888 242.384C288.788 243.753 288.698 245.133 288.598 246.512C288.598 246.951 288.528 247.381 288.508 247.821C288.508 247.951 288.448 247.991 288.338 247.981H287.728C287.558 247.981 287.548 247.981 287.548 248.171C287.548 248.361 287.548 248.47 287.548 248.63C287.548 248.79 287.548 248.78 287.398 248.78H286.128C286.058 248.78 286.028 248.78 286.028 248.88V253.367C286.028 253.437 286.028 253.467 285.918 253.467H282.608C282.518 253.467 282.468 253.467 282.468 253.337C282.473 253.264 282.473 253.191 282.468 253.118V229.932C282.468 229.532 282.538 229.622 282.158 229.512L280.708 229.112C280.657 229.105 280.61 229.078 280.579 229.037C280.547 228.996 280.532 228.944 280.538 228.893C280.538 228.383 280.538 227.893 280.538 227.384C280.538 227.164 280.538 227.164 280.338 227.084L277.528 226.084C277.278 225.984 277.308 226.024 277.308 225.755C277.308 224.825 277.308 223.886 277.308 222.956C277.314 222.89 277.3 222.823 277.268 222.764C277.236 222.706 277.187 222.658 277.128 222.626C276.068 222.017 275.028 221.387 273.978 220.768C273.924 220.729 273.861 220.703 273.795 220.693C273.729 220.682 273.662 220.687 273.598 220.708L272.228 221.067C272.048 221.117 272.048 221.117 272.048 221.307V224.305C272.048 224.585 272.048 224.555 271.818 224.615L270.818 224.865C270.638 224.915 270.638 224.915 270.638 225.115V226.334C270.638 226.544 270.638 226.544 270.418 226.594L269.608 226.774C269.428 226.824 269.428 226.824 269.428 227.024V228.413C269.428 228.663 269.428 228.613 269.218 228.673C268.945 228.75 268.668 228.814 268.388 228.863C268.278 228.863 268.228 228.923 268.238 229.032C268.243 229.089 268.243 229.146 268.238 229.202V238.856C268.238 238.936 268.238 238.966 268.118 238.966C267.998 238.966 268.028 238.906 268.028 238.856V237.977C268.028 237.877 268.028 237.837 267.898 237.847H261.198C260.898 237.847 260.918 237.847 260.918 238.117V239.116C260.918 239.296 260.918 239.306 260.738 239.306H259.688C259.565 239.295 259.441 239.327 259.338 239.396L258.198 240.036C258.148 240.036 258.108 240.086 258.058 240.036C258.008 239.986 257.948 240.126 257.888 240.166C257.662 240.307 257.428 240.437 257.188 240.555C257.103 240.59 257.032 240.652 256.987 240.732C256.942 240.812 256.925 240.904 256.938 240.995C256.938 244.193 256.938 247.391 256.938 250.589C256.933 250.652 256.933 250.716 256.938 250.779C256.944 250.805 256.944 250.833 256.938 250.859V258.854H293.568V247.991H290.388Z" fill="#4A4C4C"/>
<path d="M1440 258.014H0V280H1440V258.014Z" fill="#040707"/>
<path d="M201.54 258.004C201.63 258.014 201.721 258.014 201.81 258.004H377.48V254.886H372.68C372.622 254.906 372.559 254.906 372.5 254.886C372.465 254.852 372.438 254.811 372.42 254.766C372.368 254.515 372.281 254.273 372.16 254.046C372.07 253.816 371.99 253.586 371.91 253.367L371.32 251.808C371.304 251.734 371.259 251.67 371.195 251.629C371.132 251.587 371.055 251.573 370.98 251.588H369.69C369.257 251.604 368.823 251.563 368.4 251.468C368.18 251.418 367.972 251.323 367.79 251.188C367.63 251.058 367.54 250.708 367.38 250.648C367.296 250.623 367.205 250.623 367.12 250.648C366.681 250.783 366.258 250.968 365.86 251.198C365.37 251.418 364.64 251.538 364.26 251.068C364.1 250.868 363.6 250.398 363.52 250.289C363.197 250.006 362.829 249.779 362.43 249.619C362.07 249.509 362 249.619 361.43 249.619C360.86 249.619 360.18 249.569 360.07 249.619C359.48 249.619 358.92 249.159 358.36 248.999C357.7 248.809 356.994 248.851 356.36 249.119L355.98 249.289C355.058 249.574 354.08 249.632 353.13 249.459C352.32 249.339 351.57 248.969 350.77 248.789C349.929 248.603 349.072 248.496 348.21 248.47C347.433 248.427 346.655 248.522 345.91 248.749C345.158 248.989 344.369 249.09 343.58 249.049C342.99 249.049 342.41 248.989 341.82 249.049C341.27 249.081 340.724 249.168 340.19 249.309H340.07C340.031 249.272 340.007 249.223 340 249.169C339.634 248.816 339.193 248.55 338.71 248.39C338.212 248.154 337.661 248.05 337.11 248.09C336.67 248.16 336.24 248.24 335.8 248.33C335.472 248.431 335.138 248.511 334.8 248.57C334.407 248.59 334.013 248.59 333.62 248.57C332.84 248.532 332.058 248.586 331.29 248.729C330.83 248.839 330.4 249.019 329.95 249.139C329.161 249.321 328.359 249.438 327.55 249.489C327.3 249.489 327.05 249.489 326.81 249.559C326.553 249.631 326.287 249.668 326.02 249.669C325.879 249.64 325.742 249.597 325.61 249.539C325.014 249.302 324.382 249.167 323.74 249.139C322.483 249.201 321.235 249.378 320.01 249.669C319.653 249.753 319.314 249.902 319.01 250.109C318.66 250.319 318.31 250.518 317.95 250.698C317.461 250.915 316.983 251.159 316.52 251.428C316.03 251.748 315.71 252.297 315.18 252.537C314.49 252.788 313.777 252.969 313.05 253.077L310.78 253.606C310.516 253.66 310.244 253.66 309.98 253.606C309.814 253.557 309.637 253.557 309.47 253.606C309.41 253.606 309.35 253.696 309.29 253.706C309.23 253.716 309.1 253.646 309.02 253.616C308.873 253.567 308.717 253.549 308.562 253.563C308.407 253.576 308.257 253.622 308.12 253.696C308.12 253.596 307.96 253.577 307.87 253.616C307.78 253.656 307.66 253.736 307.57 253.676C307.532 253.628 307.502 253.574 307.48 253.517C307.414 253.431 307.319 253.372 307.214 253.348C307.108 253.325 306.997 253.338 306.9 253.387C306.68 253.467 306.37 253.756 306.12 253.666C305.87 253.576 305.93 253.497 305.84 253.417C305.78 253.36 305.706 253.318 305.626 253.296C305.546 253.273 305.462 253.27 305.38 253.287C305.21 253.287 305.06 253.457 304.87 253.467C304.68 253.477 304.55 253.367 304.38 253.367C304.215 253.397 304.051 253.437 303.89 253.487C303.65 253.487 303.4 253.347 303.19 253.487L303.09 253.547C302.94 253.606 302.82 253.497 302.69 253.447C302.517 253.385 302.332 253.368 302.15 253.397C301.588 253.519 301.036 253.686 300.5 253.896C299.722 254.111 298.899 254.111 298.12 253.896L297.86 253.846C297.628 253.863 297.406 253.946 297.22 254.086V254.396C296.925 254.404 296.635 254.476 296.37 254.606C296.21 254.676 296.07 254.776 295.91 254.836C295.751 254.882 295.585 254.899 295.42 254.886C295.227 254.91 295.036 254.953 294.85 255.016L293.59 255.345C293.548 255.355 293.503 255.355 293.46 255.345C293.31 255.345 293.22 255.146 293.12 255.056C292.974 254.932 292.798 254.85 292.61 254.816C292.38 254.766 292.13 254.756 291.9 254.686C291.67 254.616 291.41 254.446 291.16 254.336C291.034 254.281 290.898 254.253 290.76 254.253C290.623 254.253 290.487 254.281 290.36 254.336C290.305 254.37 290.244 254.393 290.18 254.406C290.094 254.35 290.03 254.265 290 254.166C289.635 253.872 289.168 253.732 288.7 253.776C288.628 253.791 288.553 253.791 288.48 253.776C288.415 253.749 288.354 253.712 288.3 253.666L287.37 252.917C287.319 252.877 287.262 252.847 287.2 252.827C287.144 252.818 287.087 252.818 287.03 252.827C286.724 252.912 286.408 252.952 286.09 252.947C285.781 252.923 285.472 253 285.21 253.167L284.9 252.757C284.878 252.712 284.843 252.674 284.8 252.647C284.735 252.632 284.666 252.632 284.6 252.647H284.08C284.035 252.632 283.986 252.632 283.94 252.647C283.89 252.647 283.86 252.717 283.82 252.747C283.701 252.847 283.562 252.922 283.412 252.966C283.263 253.011 283.105 253.025 282.95 253.007H282.03C281.963 252.998 281.895 253.016 281.84 253.057C281.787 253.118 281.746 253.189 281.72 253.267C281.61 253.497 281.41 253.477 281.21 253.576C280.985 253.684 280.802 253.863 280.69 254.086C280.677 254.139 280.65 254.188 280.611 254.227C280.572 254.266 280.524 254.293 280.47 254.306L280 254.516C279.962 254.531 279.928 254.555 279.9 254.586C279.896 254.616 279.896 254.646 279.9 254.676C279.9 254.746 279.9 254.956 279.82 254.996C279.74 255.036 279.53 254.996 279.42 254.996C279.27 255.041 279.11 255.041 278.96 254.996C278.896 254.944 278.835 254.887 278.78 254.826L278.51 254.486C278.46 254.423 278.399 254.368 278.33 254.326C278.264 254.316 278.197 254.316 278.13 254.326C277.775 254.361 277.416 254.361 277.06 254.326C276.81 254.266 276.67 253.866 276.56 253.646C276.543 253.601 276.516 253.56 276.48 253.527C276.435 253.496 276.384 253.476 276.33 253.467L274.87 253.127C274.761 253.251 274.644 253.368 274.52 253.477C274.332 253.54 274.138 253.583 273.94 253.606L272.62 253.886C272.594 254.068 272.522 254.24 272.41 254.386L272.23 254.536C272.003 254.652 271.791 254.796 271.6 254.966C271.451 255.13 271.32 255.311 271.21 255.505C270.922 255.364 270.648 255.197 270.39 255.006C270.123 254.822 269.804 254.731 269.48 254.746C269.142 254.792 268.798 254.75 268.48 254.626C268.28 254.49 268.069 254.37 267.85 254.266C267.738 254.251 267.623 254.251 267.51 254.266H266.18C265.83 254.266 265.32 254.386 265.12 254.026C265.03 253.866 264.99 253.666 264.9 253.507C264.721 253.259 264.452 253.09 264.15 253.037C263.85 252.977 263.54 252.967 263.24 252.907C263.083 252.877 262.934 252.815 262.8 252.727C262.638 252.598 262.5 252.443 262.39 252.267L261.85 251.468C261.821 251.41 261.776 251.362 261.72 251.328C261.655 251.307 261.585 251.307 261.52 251.328C261.218 251.358 260.913 251.358 260.61 251.328C260.367 251.271 260.138 251.162 259.94 251.008C259.56 250.681 259.136 250.409 258.68 250.199C258.317 250.094 257.939 250.043 257.56 250.049C257.494 250.062 257.426 250.062 257.36 250.049C257.293 250.017 257.232 249.973 257.18 249.919L255.99 248.919C255.952 248.875 255.904 248.841 255.85 248.819H255.69L254.39 248.909C253.657 248.906 252.929 248.792 252.23 248.57C251.578 248.403 250.902 248.343 250.23 248.39C250.096 248.425 249.955 248.425 249.82 248.39C249.736 248.348 249.659 248.294 249.59 248.23L248.93 247.64C248.789 247.5 248.627 247.382 248.45 247.29C248.182 247.191 247.896 247.15 247.61 247.17H244.74C244.626 247.176 244.514 247.205 244.411 247.255C244.308 247.305 244.216 247.375 244.14 247.46C244.01 247.57 243.83 247.9 243.64 247.89C243.158 247.881 242.679 247.8 242.22 247.65C241.78 247.46 241.4 247.18 240.98 246.971C240.905 246.931 240.824 246.903 240.74 246.891C240.651 246.88 240.56 246.88 240.47 246.891L238.63 247.5C238.63 247.5 238.55 247.5 238.53 247.56C238.516 247.602 238.516 247.648 238.53 247.69C238.55 247.916 238.55 248.144 238.53 248.37C238.535 248.405 238.531 248.44 238.519 248.473C238.506 248.506 238.486 248.536 238.46 248.56C238.406 248.58 238.345 248.58 238.29 248.56C237.89 248.56 237.48 248.56 237.08 248.56L236.08 249.179C235.874 249.318 235.637 249.404 235.39 249.429L234.72 249.499C234.52 249.499 234.32 249.499 234.13 249.549C233.971 249.574 233.827 249.66 233.73 249.789C233.64 249.949 233.63 250.159 233.47 250.249C233.413 250.274 233.353 250.291 233.29 250.299L232.21 250.418L231.75 250.488C231.496 250.546 231.251 250.637 231.02 250.758C230.827 250.875 230.623 250.972 230.41 251.048C230.185 251.083 229.956 251.083 229.73 251.048L228.14 250.948H228.06C228.027 250.92 228.006 250.881 228 250.838C227.9 250.488 227.82 250.129 227.7 249.789C227.646 249.661 227.565 249.547 227.463 249.452C227.362 249.357 227.242 249.285 227.11 249.239C226.881 249.118 226.661 248.981 226.45 248.829C226.356 248.742 226.243 248.677 226.12 248.64C226.038 248.625 225.953 248.625 225.87 248.64C225.5 248.64 225.13 248.729 224.76 248.759C224.415 248.715 224.065 248.782 223.76 248.949C223.638 249.07 223.54 249.212 223.47 249.369L223.24 249.829C223.225 249.873 223.198 249.911 223.16 249.939C223.105 249.959 223.045 249.959 222.99 249.939H222.05C221.871 249.924 221.69 249.924 221.51 249.939L221.14 250.049C220.731 250.222 220.31 250.365 219.88 250.478C219.428 250.551 218.968 250.575 218.51 250.548C218.444 250.559 218.377 250.559 218.31 250.548C218.235 250.524 218.167 250.483 218.11 250.428L216.88 249.509C216.811 249.454 216.733 249.41 216.65 249.379H214.71C214.664 249.369 214.616 249.369 214.57 249.379C214.57 249.379 214.5 249.429 214.47 249.459C214.295 249.599 214.149 249.773 214.043 249.97C213.936 250.168 213.871 250.385 213.85 250.608C213.547 250.597 213.249 250.684 213 250.858C212.74 251.008 212.51 251.198 212.24 251.338C212.068 251.398 211.909 251.489 211.77 251.608C211.61 251.768 211.53 252.097 211.25 252.057H211.09C210.987 252.083 210.895 252.143 210.83 252.227C210.688 252.385 210.523 252.519 210.34 252.627C209.738 252.887 209.192 253.26 208.73 253.726C208.662 253.83 208.574 253.918 208.47 253.986C208.321 254.036 208.16 254.036 208.01 253.986C207.947 253.976 207.883 253.976 207.82 253.986C207.774 254.007 207.73 254.034 207.69 254.066C207.375 254.396 206.998 254.661 206.58 254.846C206.31 254.916 206.02 254.846 205.76 254.896C205.582 254.963 205.419 255.065 205.28 255.195C205.021 255.405 204.739 255.586 204.44 255.735C204.236 255.822 204.035 255.918 203.84 256.025C203.749 256.135 203.689 256.266 203.667 256.407C203.644 256.548 203.659 256.692 203.71 256.824H203.42C203.218 256.795 203.013 256.795 202.81 256.824C202.5 256.894 202.38 257.134 202.16 257.344C202 257.384 201.51 258.004 201.54 258.004Z" fill="#040707"/>
<path d="M374.301 258.373H452.301V257.803H450.091C450.091 257.803 450.001 257.703 449.971 257.663L449.861 257.544C449.771 257.444 449.681 257.354 449.601 257.254H449.551H448.871C448.681 257.269 448.49 257.269 448.301 257.254C448.197 257.237 448.096 257.207 448.001 257.164C447.931 257.164 447.891 257.074 447.821 257.064H447.701C447.501 257.064 447.331 257.134 447.141 257.164C446.912 257.229 446.67 257.229 446.441 257.164C446.371 257.164 446.141 257.044 446.111 257.014C445.951 256.96 445.787 256.92 445.621 256.894C445.471 256.894 445.431 256.894 445.191 256.894H444.591C444.335 256.878 444.081 256.841 443.831 256.784C443.539 256.744 443.243 256.744 442.951 256.784H442.781C442.362 256.834 441.939 256.834 441.521 256.784C441.161 256.784 440.831 256.694 440.471 256.664C440.111 256.634 439.721 256.614 439.341 256.604C439.007 256.601 438.673 256.618 438.341 256.654C438.009 256.698 437.675 256.718 437.341 256.714H436.561C436.311 256.714 436.071 256.714 435.831 256.714H435.731C435.545 256.638 435.35 256.588 435.151 256.564C434.917 256.522 434.679 256.505 434.441 256.514H433.871C433.721 256.514 433.591 256.514 433.441 256.514H432.911C432.571 256.514 432.221 256.514 431.911 256.514L431.311 256.594C430.971 256.594 430.611 256.594 430.251 256.654H429.931C429.811 256.654 429.701 256.654 429.571 256.654H429.391C429.116 256.61 428.839 256.586 428.561 256.584C428.001 256.584 427.461 256.644 426.911 256.684C426.768 256.694 426.627 256.721 426.491 256.764L426.011 256.864L425.381 257.004C425.171 257.064 425.021 257.164 424.791 257.214C424.561 257.264 424.151 257.284 423.851 257.304L422.851 257.404C422.731 257.414 422.611 257.414 422.491 257.404C422.418 257.394 422.344 257.394 422.271 257.404H422.191H422.071C421.939 257.379 421.803 257.379 421.671 257.404C421.671 257.404 421.601 257.404 421.561 257.404C421.518 257.413 421.474 257.413 421.431 257.404C421.346 257.377 421.255 257.377 421.171 257.404C421.055 257.419 420.937 257.419 420.821 257.404H420.701C420.635 257.388 420.566 257.388 420.501 257.404C420.424 257.409 420.347 257.409 420.271 257.404C420.198 257.408 420.124 257.408 420.051 257.404H419.831C419.731 257.394 419.631 257.394 419.531 257.404H419.481C419.421 257.414 419.36 257.414 419.301 257.404C419.224 257.393 419.147 257.393 419.071 257.404C418.811 257.404 418.581 257.464 418.331 257.494C417.982 257.529 417.63 257.529 417.281 257.494H417.001C416.908 257.478 416.813 257.478 416.721 257.494V257.554C416.598 257.538 416.474 257.538 416.351 257.554H416.141H416.001H415.741L415.181 257.614H415.131C415.075 257.601 415.021 257.581 414.971 257.554H414.751C414.651 257.554 414.541 257.554 414.441 257.554C414.33 257.539 414.22 257.519 414.111 257.494C413.992 257.474 413.87 257.474 413.751 257.494H413.671C413.628 257.503 413.584 257.503 413.541 257.494C413.357 257.433 413.164 257.409 412.971 257.424H412.871H412.791L412.381 257.284H412.301H412.231H411.811C411.682 257.263 411.55 257.263 411.421 257.284L411.291 257.204H411.241H410.861H410.801C410.678 257.243 410.549 257.26 410.421 257.254H409.931C409.914 257.25 409.897 257.25 409.881 257.254C409.808 257.287 409.73 257.307 409.651 257.314C409.568 257.326 409.49 257.357 409.421 257.404H409.361H409.151C409.151 257.404 409.151 257.454 409.151 257.464H408.971C408.905 257.474 408.837 257.474 408.771 257.464C408.744 257.469 408.717 257.469 408.691 257.464L408.571 257.404H408.491H407.931C407.842 257.386 407.761 257.341 407.701 257.274H407.631L406.981 257.214C406.933 257.239 406.883 257.259 406.831 257.274C406.744 257.279 406.657 257.279 406.571 257.274H405.991C405.97 257.315 405.935 257.348 405.891 257.364H405.811L405.541 257.444C405.48 257.469 405.422 257.502 405.371 257.544C405.241 257.544 405.131 257.484 405.011 257.454C404.881 257.416 404.746 257.399 404.611 257.404C404.468 257.419 404.324 257.419 404.181 257.404C404.089 257.376 403.995 257.352 403.901 257.334H403.151C402.999 257.366 402.842 257.366 402.691 257.334L402.591 257.234C402.489 257.182 402.376 257.154 402.261 257.154H401.861H401.661C401.596 257.134 401.535 257.104 401.481 257.064L401.001 257.164H400.941H400.451C400.349 257.159 400.249 257.142 400.151 257.114C399.969 257.046 399.781 256.993 399.591 256.954C399.428 256.944 399.264 256.944 399.101 256.954H399.001H398.921L398.391 256.764H398.331H397.681C397.346 256.771 397.012 256.751 396.681 256.704C396.388 256.684 396.094 256.684 395.801 256.704H395.621H395.521L395.221 256.594C395.153 256.567 395.083 256.547 395.011 256.534C394.888 256.524 394.764 256.524 394.641 256.534H393.371C393.278 256.533 393.187 256.55 393.101 256.584C393.033 256.624 392.958 256.651 392.881 256.664C392.671 256.664 392.451 256.664 392.251 256.664L391.701 256.534H391.481L390.661 256.644C390.671 256.687 390.671 256.731 390.661 256.774H390.001L389.551 256.884C389.453 256.912 389.352 256.929 389.251 256.934H388.691C388.631 256.922 388.57 256.922 388.511 256.934C388.511 256.934 388.511 257.004 388.401 257.024H388.311H387.841H387.631L387.311 257.074L387.041 257.134H386.741H386.031C385.991 257.068 385.947 257.005 385.901 256.944C385.826 256.886 385.735 256.851 385.641 256.844C385.542 256.825 385.445 256.798 385.351 256.764C385.301 256.758 385.251 256.758 385.201 256.764H385.001H384.501C384.358 256.749 384.214 256.749 384.071 256.764C384.025 256.783 383.982 256.807 383.941 256.834L383.841 256.924H383.111H382.941L382.381 257.004C382.181 257.004 381.981 257.004 381.771 257.004H381.681H381.601L381.051 256.834H380.951H380.001H379.951C379.811 256.894 379.681 256.954 379.681 257.044C379.555 257.024 379.427 257.024 379.301 257.044L379.001 257.164H378.791C378.721 257.164 378.681 257.254 378.561 257.254H378.491H378.371L378.151 257.324C377.908 257.368 377.671 257.435 377.441 257.524C377.405 257.548 377.364 257.565 377.321 257.574H377.121C377.121 257.574 377.061 257.574 377.041 257.574H377.001C376.844 257.643 376.679 257.693 376.511 257.723H376.141C376.069 257.737 375.999 257.758 375.931 257.783C375.81 257.824 375.686 257.857 375.561 257.883H375.301C375.201 257.883 375.201 257.993 375.241 258.033H374.841C374.738 258.047 374.64 258.081 374.551 258.133L374.301 258.373Z" fill="#040707"/>
<path d="M449.711 258.373H527.711V257.803H525.501C525.501 257.803 525.411 257.703 525.381 257.663L525.271 257.543L525.011 257.253H524.331C524.138 257.268 523.944 257.268 523.751 257.253C523.662 257.248 523.575 257.231 523.491 257.203C523.421 257.203 523.371 257.113 523.301 257.103H523.191C522.991 257.103 522.821 257.173 522.631 257.203C522.399 257.269 522.153 257.269 521.921 257.203C521.851 257.203 521.631 257.083 521.591 257.053C521.435 256.999 521.274 256.959 521.111 256.933C520.951 256.933 520.921 256.933 520.681 256.933H520.001C519.748 256.918 519.497 256.881 519.251 256.824C518.956 256.783 518.656 256.783 518.361 256.824H518.201C517.779 256.874 517.353 256.874 516.931 256.824C516.571 256.824 516.241 256.734 515.931 256.704L514.791 256.644C514.457 256.641 514.123 256.658 513.791 256.694C513.459 256.737 513.125 256.757 512.791 256.754H512.011C511.761 256.754 511.531 256.754 511.291 256.754H511.181C510.998 256.679 510.807 256.629 510.611 256.604C510.377 256.562 510.139 256.545 509.901 256.554H509.321C509.171 256.554 509.041 256.554 508.891 256.554H508.371C508.021 256.554 507.671 256.554 507.371 256.554L506.781 256.634C506.431 256.634 506.071 256.634 505.721 256.694H505.391C505.271 256.694 505.161 256.694 505.041 256.694H504.861C504.586 256.65 504.309 256.627 504.031 256.624C503.471 256.624 502.931 256.684 502.381 256.724C502.235 256.734 502.091 256.761 501.951 256.804L501.481 256.903L500.851 257.043C500.631 257.103 500.491 257.203 500.251 257.253C499.939 257.299 499.626 257.329 499.311 257.343L498.311 257.443C498.194 257.453 498.077 257.453 497.961 257.443C497.885 257.433 497.807 257.433 497.731 257.443H497.651H497.531C497.399 257.418 497.263 257.418 497.131 257.443C497.131 257.443 497.061 257.443 497.021 257.443C496.978 257.453 496.934 257.453 496.891 257.443C496.806 257.416 496.716 257.416 496.631 257.443C496.518 257.459 496.404 257.459 496.291 257.443H496.161C496.095 257.427 496.027 257.427 495.961 257.443C495.888 257.448 495.814 257.448 495.741 257.443C495.668 257.448 495.594 257.448 495.521 257.443H495.301C495.198 257.433 495.094 257.433 494.991 257.443C494.931 257.454 494.87 257.454 494.811 257.443C494.731 257.433 494.651 257.433 494.571 257.443C494.321 257.443 494.081 257.503 493.841 257.533C493.488 257.568 493.133 257.568 492.781 257.533H492.671C492.575 257.517 492.477 257.517 492.381 257.533V257.593C492.258 257.578 492.134 257.578 492.011 257.593H491.801H491.591H491.341L490.781 257.653H490.721C490.668 257.641 490.618 257.621 490.571 257.593H490.351C490.244 257.598 490.138 257.598 490.031 257.593C489.92 257.579 489.81 257.559 489.701 257.533C489.585 257.513 489.467 257.513 489.351 257.533H489.001C488.958 257.544 488.914 257.544 488.871 257.533C488.684 257.472 488.487 257.449 488.291 257.463H488.191H488.121L487.701 257.323H487.631H487.551H487.141C487.012 257.302 486.88 257.302 486.751 257.323L486.611 257.243H486.561H486.181C486.055 257.283 485.923 257.3 485.791 257.293H485.301C485.229 257.327 485.151 257.348 485.071 257.353C484.988 257.365 484.91 257.396 484.841 257.443H484.791H484.581H484.531C484.531 257.443 484.531 257.493 484.531 257.503H484.351C484.281 257.513 484.211 257.513 484.141 257.503C484.141 257.503 484.091 257.503 484.061 257.503L483.941 257.443H483.861H483.301C483.215 257.426 483.138 257.38 483.081 257.313H483.021L482.371 257.253C482.32 257.278 482.266 257.298 482.211 257.313C482.128 257.319 482.044 257.319 481.961 257.313H481.371C481.352 257.353 481.32 257.384 481.281 257.403H481.201L480.921 257.483C480.86 257.508 480.803 257.542 480.751 257.583C480.626 257.56 480.502 257.53 480.381 257.493C480.251 257.455 480.116 257.438 479.981 257.443C479.838 257.459 479.694 257.459 479.551 257.443C479.459 257.414 479.366 257.391 479.271 257.373H478.531C478.376 257.406 478.216 257.406 478.061 257.373C478.061 257.373 478.061 257.303 477.961 257.273C477.859 257.221 477.746 257.194 477.631 257.193C477.501 257.193 477.361 257.193 477.231 257.193H477.031C476.967 257.171 476.907 257.141 476.851 257.103L476.611 256.963H476.561H476.061C475.963 256.959 475.865 256.942 475.771 256.913C475.588 256.848 475.401 256.795 475.211 256.754C475.044 256.743 474.877 256.743 474.711 256.754H474.621H474.541L474.021 256.564H473.951H473.311C472.977 256.572 472.642 256.552 472.311 256.504C472.018 256.484 471.724 256.484 471.431 256.504H471.251H471.141L470.851 256.394C470.783 256.368 470.713 256.348 470.641 256.334C470.514 256.324 470.387 256.324 470.261 256.334H468.991C468.902 256.333 468.813 256.35 468.731 256.384C468.662 256.422 468.588 256.449 468.511 256.464C468.301 256.475 468.091 256.475 467.881 256.464L467.331 256.334H467.101L466.281 256.444C466.285 256.487 466.285 256.53 466.281 256.574H465.661L465.221 256.684C465.12 256.711 465.016 256.728 464.911 256.734H464.351C464.295 256.72 464.237 256.72 464.181 256.734C464.181 256.734 464.131 256.804 464.061 256.824H463.981H463.501H463.301L462.971 256.873L462.711 256.933H462.401H461.701C461.661 256.868 461.618 256.804 461.571 256.744C461.496 256.686 461.405 256.651 461.311 256.644L461.021 256.564C460.971 256.557 460.921 256.557 460.871 256.564H460.761H460.271C460.128 256.547 459.984 256.547 459.841 256.564C459.794 256.58 459.751 256.604 459.711 256.634L459.611 256.724H458.881H458.711L458.161 256.804C457.961 256.804 457.751 256.804 457.551 256.804H457.461H457.371L456.831 256.634H456.731H455.801C455.661 256.694 455.521 256.754 455.521 256.843C455.398 256.823 455.273 256.823 455.151 256.843L454.811 256.923H454.601C454.531 256.923 454.491 257.013 454.371 257.013H454.301H454.191L453.971 257.083C453.728 257.127 453.491 257.194 453.261 257.283C453.224 257.306 453.183 257.323 453.141 257.333H452.941C452.911 257.328 452.881 257.328 452.851 257.333H452.801C452.64 257.401 452.472 257.451 452.301 257.483H451.941C451.869 257.496 451.799 257.516 451.731 257.543L451.351 257.643H451.091C450.991 257.643 451.001 257.753 451.031 257.793H450.631C450.531 257.805 450.435 257.839 450.351 257.893L449.711 258.373Z" fill="#040707"/>
<path d="M527.68 258.373H605.68V257.803H603.48C603.48 257.803 603.4 257.703 603.36 257.663L603.25 257.543L603 257.253H602.32C602.13 257.268 601.939 257.268 601.75 257.253C601.658 257.248 601.567 257.231 601.48 257.203C601.41 257.203 601.37 257.113 601.3 257.103H601.18C600.98 257.103 600.81 257.173 600.62 257.203C600.388 257.269 600.142 257.269 599.91 257.203C599.85 257.203 599.62 257.083 599.59 257.053C599.43 256.999 599.266 256.959 599.1 256.933C598.95 256.933 598.91 256.933 598.67 256.933H598C597.744 256.917 597.49 256.88 597.24 256.824C596.948 256.783 596.652 256.783 596.36 256.824H596.19C595.771 256.874 595.348 256.874 594.93 256.824C594.57 256.824 594.23 256.734 593.93 256.704C593.63 256.674 593.18 256.654 592.79 256.644C592.456 256.641 592.122 256.657 591.79 256.694C591.458 256.737 591.124 256.757 590.79 256.754H590.01C589.77 256.754 589.53 256.754 589.29 256.754H589C588.813 256.68 588.618 256.63 588.42 256.604C588.186 256.561 587.947 256.545 587.71 256.554H587.13C586.99 256.554 586.85 256.554 586.7 256.554H586.18C585.84 256.554 585.49 256.554 585.18 256.554L584.58 256.634C584.24 256.634 583.87 256.634 583.52 256.694H583.19C583.08 256.694 582.96 256.694 582.84 256.694H582.66C582.385 256.649 582.108 256.626 581.83 256.624C581.27 256.624 580.73 256.684 580.18 256.724C580.037 256.733 579.896 256.76 579.76 256.804L579.28 256.903L578.65 257.043C578.43 257.103 578.29 257.203 578.06 257.253C577.83 257.303 577.42 257.323 577.06 257.343L576.06 257.443C575.94 257.453 575.819 257.453 575.7 257.443C575.627 257.433 575.553 257.433 575.48 257.443H575.4H575.28C575.148 257.418 575.012 257.418 574.88 257.443C574.88 257.443 574.81 257.443 574.77 257.443C574.727 257.452 574.683 257.452 574.64 257.443C574.555 257.416 574.464 257.416 574.38 257.443C574.264 257.458 574.146 257.458 574.03 257.443H573.91C573.844 257.428 573.776 257.428 573.71 257.443C573.633 257.448 573.556 257.448 573.48 257.443C573.406 257.448 573.333 257.448 573.26 257.443H573.04C572.937 257.433 572.833 257.433 572.73 257.443C572.67 257.454 572.609 257.454 572.55 257.443C572.47 257.434 572.389 257.434 572.31 257.443C572.06 257.443 571.83 257.503 571.58 257.533C571.247 257.565 570.912 257.565 570.58 257.533H570.46C570.367 257.517 570.272 257.517 570.18 257.533V257.593C570.053 257.578 569.926 257.578 569.8 257.593H569.6H569.38H569.13L568.57 257.653H568.51C568.457 257.639 568.407 257.619 568.36 257.593H568.14H567.82L567.49 257.533C567.374 257.513 567.255 257.513 567.14 257.533H567C566.957 257.544 566.912 257.544 566.87 257.533C566.686 257.473 566.492 257.449 566.3 257.463H566.2H566.12L565.7 257.323H565.63H565.56H565.14C565.011 257.303 564.879 257.303 564.75 257.323L564.61 257.243H564.22C564.097 257.282 563.968 257.299 563.84 257.293H563.35C563.35 257.293 563.35 257.293 563.29 257.293C563.221 257.328 563.146 257.348 563.07 257.353C562.987 257.364 562.908 257.394 562.84 257.443H562.78H562.57C562.57 257.443 562.57 257.493 562.57 257.503H562.39C562.323 257.513 562.256 257.513 562.19 257.503C562.164 257.51 562.136 257.51 562.11 257.503L561.99 257.443H561.91H561.34C561.255 257.423 561.178 257.378 561.12 257.313H561.05L560.4 257.253L560.25 257.313C560.163 257.318 560.076 257.318 559.99 257.313H559.41C559.389 257.355 559.353 257.387 559.31 257.403H559.23L558.95 257.483C558.89 257.511 558.833 257.544 558.78 257.583C558.65 257.583 558.54 257.523 558.42 257.493C558.286 257.456 558.148 257.439 558.01 257.443C557.867 257.458 557.723 257.458 557.58 257.443C557.491 257.414 557.401 257.391 557.31 257.373H556.56C556.405 257.406 556.245 257.406 556.09 257.373C556.09 257.373 556.09 257.303 556 257.273C555.894 257.221 555.778 257.194 555.66 257.193C555.53 257.193 555.39 257.193 555.26 257.193H555.06C554.997 257.169 554.937 257.139 554.88 257.103L554.65 256.963H554.59H554.09C553.992 256.957 553.894 256.941 553.8 256.913C553.617 256.847 553.43 256.794 553.24 256.754C553.077 256.744 552.913 256.744 552.75 256.754H552.66H552.57L552.05 256.564H551.99H551.34C551.005 256.572 550.671 256.552 550.34 256.504C550.047 256.484 549.753 256.484 549.46 256.504H549H548.9L548.6 256.394C548.532 256.367 548.462 256.346 548.39 256.334C548.267 256.324 548.143 256.324 548.02 256.334H546.75C546.657 256.332 546.565 256.349 546.48 256.384C546.411 256.422 546.337 256.449 546.26 256.464C546.05 256.464 545.83 256.464 545.63 256.464L545.08 256.334H544.85L544.04 256.444H544C544.01 256.486 544.01 256.531 544 256.574H543.39L542.94 256.684C542.842 256.712 542.741 256.728 542.64 256.734H542.07C542.014 256.722 541.956 256.722 541.9 256.734C541.9 256.734 541.9 256.804 541.78 256.824H541.7H541.23H541L540.68 256.873L540.41 256.933H540.11H539.4C539.4 256.933 539.32 256.804 539.27 256.744C539.191 256.686 539.097 256.651 539 256.644L538.71 256.564C538.663 256.558 538.616 256.558 538.57 256.564H538.46H537.96C537.817 256.548 537.673 256.548 537.53 256.564C537.484 256.583 537.441 256.606 537.4 256.634L537.3 256.724H536.57H536.41L535.85 256.804C535.65 256.804 535.44 256.804 535.24 256.804H535.15H535.07L534.52 256.634H534.42H533.5C533.36 256.694 533.23 256.754 533.23 256.844C533.104 256.822 532.975 256.822 532.85 256.844L532.51 256.923H532.3C532.235 256.978 532.154 257.01 532.07 257.013H532H531.89L531.67 257.083C531.427 257.127 531.189 257.194 530.96 257.283C530.922 257.306 530.882 257.323 530.84 257.333H530.64C530.61 257.328 530.579 257.328 530.55 257.333C530.389 257.402 530.222 257.453 530.05 257.483H529.69C529.618 257.497 529.548 257.517 529.48 257.543C529.358 257.584 529.235 257.617 529.11 257.643H528.84C528.74 257.643 528.75 257.753 528.78 257.793H528.39C528.287 257.804 528.188 257.839 528.1 257.893L527.68 258.373Z" fill="#040707"/>
<path d="M1260.59 256.893V260.012H1102.51C1102.43 260.022 1102.34 260.022 1102.26 260.012C1102.33 259.9 1102.41 259.793 1102.49 259.692C1102.57 259.574 1102.66 259.46 1102.75 259.352C1102.94 259.132 1103.04 258.902 1103.33 258.822C1103.51 258.797 1103.7 258.797 1103.88 258.822H1104.14C1104.09 258.691 1104.08 258.55 1104.1 258.412C1104.12 258.274 1104.18 258.143 1104.26 258.033C1104.43 257.924 1104.6 257.83 1104.78 257.753C1105.05 257.596 1105.31 257.412 1105.54 257.203C1105.66 257.077 1105.81 256.975 1105.97 256.903C1106.2 256.823 1106.47 256.903 1106.71 256.903C1106.95 256.903 1107.42 256.364 1107.71 256.114C1107.74 256.082 1107.78 256.058 1107.82 256.044C1107.88 256.024 1107.94 256.024 1107.99 256.044C1108.13 256.094 1108.28 256.094 1108.41 256.044C1108.51 255.98 1108.59 255.89 1108.64 255.784C1109.05 255.329 1109.54 254.959 1110.09 254.695C1110.26 254.575 1110.41 254.437 1110.54 254.285C1110.6 254.215 1110.67 254.125 1110.77 254.115C1110.82 254.111 1110.87 254.111 1110.91 254.115C1111.16 254.115 1111.24 253.815 1111.38 253.655C1111.5 253.54 1111.65 253.448 1111.8 253.386C1112.04 253.256 1112.25 253.066 1112.49 252.906C1112.71 252.738 1112.98 252.65 1113.25 252.656C1113.25 252.495 1113.28 252.336 1113.34 252.186H1116.74L1117.09 252.476C1117.14 252.522 1117.2 252.559 1117.26 252.586C1117.32 252.596 1117.38 252.596 1117.44 252.586C1117.86 252.611 1118.27 252.591 1118.68 252.526C1119.02 252.434 1119.36 252.314 1119.68 252.166H1125.85C1125.91 252.386 1125.95 252.606 1126.01 252.826C1126.02 252.868 1126.04 252.907 1126.07 252.936H1126.14C1126.62 252.936 1127.14 253.016 1127.57 253.036C1127.78 253.081 1127.99 253.081 1128.19 253.036C1128.38 252.957 1128.56 252.86 1128.73 252.746C1128.94 252.63 1129.16 252.543 1129.39 252.486C1129.53 252.449 1129.66 252.426 1129.8 252.416L1130.8 252.286C1130.86 252.285 1130.92 252.268 1130.97 252.236C1131.01 252.218 1131.03 252.19 1131.05 252.156H1145.28V249.878L1145.49 250.088C1145.55 250.153 1145.62 250.207 1145.7 250.248C1145.82 250.283 1145.95 250.283 1146.07 250.248C1146.67 250.212 1147.28 250.273 1147.86 250.427C1148.48 250.659 1149.14 250.774 1149.8 250.767L1150.97 250.687C1151.02 250.673 1151.07 250.673 1151.12 250.687C1151.17 250.708 1151.22 250.738 1151.25 250.777L1152.31 251.777C1152.36 251.831 1152.42 251.872 1152.48 251.897C1152.54 251.907 1152.6 251.907 1152.66 251.897H1152.8C1153.08 251.896 1153.36 251.937 1153.63 252.016C1154.05 252.235 1154.43 252.511 1154.77 252.836C1154.95 252.981 1155.15 253.09 1155.37 253.156C1155.64 253.181 1155.92 253.181 1156.19 253.156C1156.25 253.141 1156.31 253.141 1156.37 253.156C1156.42 253.195 1156.46 253.242 1156.49 253.296L1156.97 254.095C1157.06 254.271 1157.19 254.427 1157.34 254.555C1157.46 254.647 1157.6 254.709 1157.74 254.735C1158.01 254.805 1158.28 254.805 1158.55 254.865C1158.69 254.89 1158.83 254.945 1158.94 255.026C1159.06 255.107 1159.16 255.212 1159.23 255.334C1159.32 255.504 1159.34 255.694 1159.43 255.864C1159.61 256.214 1160.07 256.094 1160.38 256.094H1161.58C1161.68 256.079 1161.79 256.079 1161.89 256.094H1161.96C1162.13 256.198 1162.29 256.311 1162.45 256.434C1162.73 256.555 1163.03 256.593 1163.33 256.544C1163.62 256.535 1163.91 256.627 1164.14 256.804C1164.38 256.991 1164.62 257.162 1164.88 257.313C1164.98 257.123 1165.09 256.946 1165.23 256.784C1165.39 256.608 1165.58 256.463 1165.79 256.354C1165.85 256.309 1165.9 256.259 1165.95 256.204C1166.05 256.054 1166.12 255.883 1166.15 255.704L1167.33 255.424C1167.51 255.401 1167.68 255.358 1167.85 255.294C1167.85 255.294 1168.16 254.935 1168.17 254.935L1169.48 255.274C1169.53 255.288 1169.58 255.311 1169.62 255.344C1169.65 255.377 1169.67 255.414 1169.69 255.454C1169.78 255.674 1169.92 256.074 1170.14 256.134C1170.47 256.177 1170.81 256.177 1171.14 256.134C1171.2 256.12 1171.26 256.12 1171.32 256.134C1171.39 256.168 1171.45 256.224 1171.48 256.294L1171.73 256.624C1171.78 256.687 1171.83 256.744 1171.89 256.794C1172.02 256.855 1172.16 256.873 1172.3 256.843C1172.4 256.843 1172.58 256.843 1172.67 256.843C1172.76 256.843 1172.67 256.604 1172.74 256.524C1172.74 256.494 1172.74 256.464 1172.74 256.434C1172.77 256.405 1172.8 256.381 1172.83 256.364L1173.26 256.164C1173.3 256.147 1173.34 256.119 1173.37 256.084C1173.41 256.038 1173.44 255.987 1173.46 255.934C1173.55 255.715 1173.71 255.535 1173.92 255.424C1174.1 255.324 1174.28 255.344 1174.38 255.115C1174.4 255.037 1174.44 254.965 1174.49 254.905C1174.54 254.868 1174.6 254.85 1174.66 254.855H1175.48C1175.62 254.871 1175.77 254.856 1175.91 254.811C1176.04 254.766 1176.17 254.692 1176.27 254.595C1176.3 254.552 1176.33 254.514 1176.37 254.485C1176.41 254.475 1176.46 254.475 1176.5 254.485H1176.97C1177.03 254.47 1177.09 254.47 1177.15 254.485C1177.19 254.514 1177.22 254.552 1177.24 254.595L1177.52 255.005C1177.75 254.84 1178.03 254.762 1178.31 254.785C1178.6 254.793 1178.89 254.756 1179.16 254.675C1179.21 254.66 1179.26 254.66 1179.31 254.675C1179.37 254.691 1179.42 254.722 1179.46 254.765L1180.3 255.504C1180.35 255.553 1180.4 255.591 1180.46 255.614C1180.53 255.629 1180.6 255.629 1180.66 255.614C1180.87 255.591 1181.09 255.612 1181.29 255.678C1181.49 255.743 1181.67 255.851 1181.83 255.994C1181.91 256.064 1181.99 256.154 1182.09 256.134C1182.15 256.124 1182.21 256.1 1182.26 256.064C1182.37 256.008 1182.49 255.979 1182.62 255.979C1182.74 255.979 1182.86 256.008 1182.97 256.064C1183.19 256.192 1183.41 256.309 1183.64 256.414C1183.85 256.484 1184.07 256.494 1184.28 256.544C1184.45 256.579 1184.61 256.662 1184.73 256.784C1184.82 256.873 1184.91 257.063 1185.04 257.073C1185.08 257.083 1185.12 257.083 1185.16 257.073L1186.29 256.734C1186.46 256.676 1186.64 256.633 1186.81 256.604C1186.95 256.628 1187.1 256.628 1187.24 256.604C1187.39 256.534 1187.52 256.444 1187.66 256.364C1187.9 256.237 1188.16 256.165 1188.42 256.154C1188.42 256.054 1188.42 255.954 1188.42 255.844C1188.58 255.71 1188.78 255.629 1188.99 255.614C1189.07 255.621 1189.15 255.638 1189.23 255.664C1189.93 255.874 1190.67 255.874 1191.37 255.664C1191.85 255.458 1192.35 255.294 1192.86 255.175C1193.02 255.13 1193.18 255.13 1193.34 255.175C1193.46 255.175 1193.57 255.344 1193.7 255.274L1193.79 255.214C1193.98 255.105 1194.21 255.214 1194.42 255.214C1194.63 255.214 1194.71 255.095 1194.86 255.095C1195.01 255.095 1195.16 255.205 1195.31 255.195C1195.46 255.185 1195.61 255.055 1195.77 255.025C1195.84 255.007 1195.92 255.009 1195.99 255.03C1196.06 255.051 1196.13 255.091 1196.18 255.145C1196.26 255.225 1196.32 255.354 1196.42 255.394C1196.52 255.434 1196.93 255.195 1197.13 255.115C1197.22 255.066 1197.33 255.054 1197.42 255.08C1197.52 255.106 1197.61 255.168 1197.66 255.254C1197.67 255.309 1197.7 255.36 1197.73 255.404C1197.81 255.464 1197.91 255.404 1198 255.354C1198.09 255.304 1198.23 255.354 1198.22 255.424C1198.34 255.354 1198.48 255.31 1198.62 255.296C1198.76 255.282 1198.91 255.299 1199.04 255.344C1199.11 255.344 1199.2 255.444 1199.28 255.434C1199.36 255.424 1199.39 255.354 1199.44 255.334C1199.59 255.285 1199.75 255.285 1199.9 255.334C1200.14 255.395 1200.39 255.395 1200.62 255.334L1202.67 254.815C1203.33 254.701 1203.97 254.52 1204.58 254.275C1205.05 254.035 1205.35 253.476 1205.79 253.166C1206.2 252.894 1206.63 252.647 1207.07 252.426C1207.4 252.246 1207.71 252.046 1208.07 251.847C1208.33 251.643 1208.62 251.49 1208.93 251.397C1210.03 251.105 1211.16 250.931 1212.29 250.877C1212.87 250.903 1213.44 251.035 1213.97 251.267C1214.09 251.332 1214.21 251.38 1214.34 251.407C1214.58 251.401 1214.82 251.361 1215.05 251.287C1215.27 251.287 1215.49 251.287 1215.71 251.227C1216.44 251.171 1217.16 251.054 1217.87 250.877C1218.28 250.747 1218.67 250.567 1219.08 250.467C1219.77 250.325 1220.48 250.271 1221.18 250.308C1221.54 250.311 1221.89 250.294 1222.24 250.258C1222.54 250.2 1222.83 250.123 1223.12 250.028C1223.5 249.938 1223.9 249.848 1224.29 249.778C1224.79 249.744 1225.29 249.847 1225.73 250.078C1226.17 250.243 1226.57 250.51 1226.89 250.857C1226.92 250.898 1226.96 250.93 1227 250.947C1227.04 250.957 1227.08 250.957 1227.11 250.947C1227.39 250.868 1227.68 250.805 1227.96 250.757C1228.17 250.719 1228.37 250.695 1228.58 250.687C1229.1 250.687 1229.58 250.687 1230.16 250.687C1230.87 250.728 1231.59 250.626 1232.26 250.387C1232.92 250.165 1233.62 250.07 1234.32 250.108C1235.1 250.139 1235.87 250.246 1236.63 250.427C1237.35 250.607 1238.02 250.977 1238.75 251.097C1239.61 251.276 1240.5 251.218 1241.32 250.927L1241.66 250.757C1242.22 250.497 1242.86 250.458 1243.45 250.647C1243.95 250.807 1244.45 251.287 1244.98 251.257C1245.09 251.257 1245.72 251.257 1246.21 251.257C1246.7 251.257 1246.77 251.137 1247.09 251.257C1247.46 251.41 1247.8 251.634 1248.09 251.917C1248.16 252.036 1248.62 252.496 1248.76 252.696C1249.1 253.176 1249.76 253.046 1250.2 252.826C1250.49 252.686 1250.76 252.496 1251.05 252.376C1251.14 252.333 1251.23 252.299 1251.33 252.276C1251.41 252.251 1251.49 252.251 1251.57 252.276C1251.69 252.336 1251.77 252.606 1251.88 252.756C1252.04 252.886 1252.22 252.981 1252.42 253.036C1252.51 253.065 1252.6 253.085 1252.69 253.096C1252.99 253.151 1253.29 253.171 1253.59 253.156H1254.74C1254.78 253.146 1254.82 253.146 1254.86 253.154C1254.9 253.163 1254.94 253.181 1254.97 253.206C1255.01 253.255 1255.04 253.313 1255.06 253.376L1255.39 254.375C1255.46 254.555 1255.52 254.745 1255.58 254.925L1255.81 255.604C1255.92 255.834 1256 256.075 1256.05 256.324C1256.06 256.374 1256.08 256.42 1256.12 256.454C1256.17 256.474 1256.23 256.474 1256.28 256.454H1260.6L1260.59 256.893Z" fill="#040707"/>
<path d="M1252.75 256.743V258.362H1293.75L1293.05 257.363H1291.93L1291.41 256.783H1291.35C1291.26 256.755 1291.17 256.732 1291.08 256.713C1291 256.733 1290.93 256.733 1290.85 256.713L1290.64 256.593C1290.52 256.529 1290.38 256.492 1290.24 256.483C1290.24 256.43 1290.24 256.377 1290.24 256.324C1290.16 256.249 1290.06 256.207 1289.95 256.204H1289.82C1289.46 256.313 1289.07 256.313 1288.71 256.204C1288.46 256.098 1288.2 256.011 1287.93 255.944C1287.85 255.92 1287.76 255.92 1287.68 255.944C1287.68 255.944 1287.57 256.024 1287.5 255.994C1287.4 255.944 1287.28 255.994 1287.17 255.994C1287.06 255.994 1287.02 255.934 1286.94 255.934C1286.87 255.958 1286.79 255.978 1286.72 255.994C1286.64 255.97 1286.56 255.94 1286.48 255.904C1286.44 255.892 1286.4 255.891 1286.36 255.901C1286.32 255.912 1286.29 255.934 1286.26 255.964C1286.26 255.964 1286.19 256.074 1286.13 256.094C1286.07 256.114 1285.87 255.994 1285.76 255.944C1285.71 255.92 1285.66 255.915 1285.61 255.927C1285.56 255.94 1285.52 255.971 1285.49 256.014C1285.49 256.014 1285.49 256.084 1285.49 256.094C1285.49 256.104 1285.4 256.094 1285.35 256.094C1285.3 256.094 1285.23 256.094 1285.24 256.094C1285.18 256.06 1285.1 256.042 1285.03 256.042C1284.96 256.042 1284.88 256.06 1284.82 256.094C1284.82 256.094 1284.73 256.144 1284.69 256.094C1284.65 256.044 1284.63 256.094 1284.6 256.044C1284.52 256.019 1284.44 256.019 1284.36 256.044C1284.24 256.074 1284.11 256.074 1283.99 256.044L1282.92 255.774C1282.58 255.712 1282.24 255.618 1281.92 255.494C1281.68 255.364 1281.53 255.084 1281.3 254.914C1281.08 254.777 1280.86 254.65 1280.63 254.535C1280.46 254.435 1280.29 254.335 1280.13 254.225C1280 254.121 1279.84 254.043 1279.68 253.995C1279.11 253.851 1278.53 253.76 1277.94 253.725C1277.64 253.735 1277.34 253.807 1277.06 253.935C1277 253.961 1276.94 253.981 1276.87 253.995C1276.74 254 1276.62 253.98 1276.5 253.935C1276.39 253.935 1276.27 253.935 1276.16 253.935C1275.78 253.905 1275.4 253.845 1275.03 253.755C1274.83 253.675 1274.62 253.605 1274.41 253.545C1274.05 253.465 1273.68 253.435 1273.31 253.455C1273.13 253.465 1272.94 253.465 1272.76 253.455C1272.61 253.455 1272.47 253.365 1272.31 253.335L1271.7 253.205C1271.44 253.191 1271.18 253.243 1270.95 253.355C1270.72 253.446 1270.52 253.586 1270.35 253.765L1270.29 253.815C1270.04 253.748 1269.78 253.704 1269.52 253.685C1269.25 253.685 1268.97 253.685 1268.7 253.685C1268.33 253.706 1267.95 253.655 1267.6 253.535C1267.26 253.41 1266.89 253.359 1266.53 253.385C1266.13 253.399 1265.73 253.452 1265.34 253.545C1264.96 253.645 1264.61 253.835 1264.23 253.895C1263.78 253.991 1263.32 253.96 1262.89 253.805L1262.72 253.725C1262.43 253.586 1262.1 253.565 1261.79 253.665C1261.53 253.745 1261.27 253.995 1260.99 253.985C1260.78 253.972 1260.56 253.972 1260.35 253.985C1260.1 253.985 1260.06 253.925 1259.89 253.985C1259.7 254.066 1259.53 254.182 1259.39 254.325C1259.39 254.385 1259.11 254.635 1259.04 254.735C1258.86 254.984 1258.52 254.914 1258.29 254.804C1258.11 254.684 1257.91 254.587 1257.7 254.515C1257.66 254.5 1257.62 254.5 1257.58 254.515C1257.5 254.515 1257.46 254.735 1257.39 254.794C1257.31 254.865 1257.21 254.913 1257.1 254.934C1256.9 254.988 1256.7 255.012 1256.5 255.004H1255.9C1255.86 254.994 1255.82 254.994 1255.78 255.004C1255.77 255.034 1255.77 255.065 1255.78 255.094C1255.68 255.364 1255.59 255.634 1255.5 255.904C1255.41 256.174 1255.42 256.144 1255.39 256.254C1255.33 256.37 1255.29 256.494 1255.26 256.623C1255.26 256.647 1255.26 256.67 1255.26 256.693C1255.23 256.703 1255.2 256.703 1255.17 256.693L1252.75 256.743Z" fill="#040707"/>
<path d="M1056.55 155.687C1055.77 148.691 1050.85 143.464 1045.55 144.044C1040.25 144.624 1036.55 150.8 1037.38 157.805C1038.11 164.411 1042.51 169.408 1047.38 169.488L1046.58 171.327L1048.2 171.147C1048.99 171.772 1049.57 172.635 1049.84 173.609C1050.11 174.584 1050.06 175.619 1049.7 176.564C1049.22 177.575 1048.56 178.494 1047.77 179.282C1047.26 179.819 1046.78 180.393 1046.36 181.001C1045.64 182.111 1045.23 183.387 1045.16 184.705C1045.09 186.022 1045.36 187.336 1045.95 188.516C1046.95 190.665 1048.61 191.884 1050.35 193.184C1050.84 193.543 1051.35 193.923 1051.85 194.323C1052.35 194.723 1054.36 196.541 1053.69 198.5L1053.99 198.6C1054.73 196.452 1052.69 194.603 1052.05 194.073C1051.41 193.543 1051.05 193.294 1050.54 192.924C1048.73 191.807 1047.25 190.24 1046.24 188.377C1045.67 187.247 1045.41 185.989 1045.48 184.727C1045.55 183.465 1045.94 182.243 1046.63 181.181C1047.05 180.587 1047.51 180.023 1048.01 179.492C1048.83 178.682 1049.51 177.735 1050.01 176.694C1050.38 175.733 1050.45 174.683 1050.2 173.683C1049.96 172.683 1049.42 171.781 1048.65 171.097L1050.44 170.897L1049.25 169.278C1054.09 168.129 1057.28 162.283 1056.55 155.687Z" fill="#040707"/>
<path d="M1171.5 198.307C1171.5 195.929 1170.05 194 1168.25 194C1166.45 194 1165 195.929 1165 198.307C1165 200.686 1166.29 202.385 1167.94 202.595L1167.6 203.184H1168.15C1168.39 203.423 1168.55 203.733 1168.61 204.07C1168.66 204.406 1168.61 204.75 1168.45 205.053C1168.25 205.374 1168 205.657 1167.7 205.893C1167.51 206.053 1167.33 206.227 1167.17 206.412C1166.89 206.756 1166.7 207.167 1166.63 207.605C1166.55 208.044 1166.59 208.494 1166.75 208.911C1167.02 209.591 1167.47 210.187 1168.05 210.64L1168.51 211.079C1168.69 211.269 1169.27 211.919 1168.97 212.549L1169.07 212.599C1169.4 211.899 1168.78 211.199 1168.59 211.01L1168.12 210.56C1167.56 210.118 1167.12 209.54 1166.85 208.881C1166.7 208.481 1166.66 208.049 1166.73 207.629C1166.8 207.209 1166.98 206.814 1167.25 206.482C1167.41 206.302 1167.59 206.132 1167.77 205.973C1168.08 205.73 1168.34 205.436 1168.55 205.103C1168.71 204.796 1168.77 204.448 1168.73 204.105C1168.68 203.762 1168.53 203.441 1168.3 203.184H1168.91L1168.57 202.595C1170.21 202.385 1171.5 200.596 1171.5 198.307Z" fill="#FFAE00"/>
<path d="M1125.81 252.167C1125.87 252.387 1125.91 252.606 1125.97 252.826C1125.98 252.868 1126 252.907 1126.03 252.936H1126.1C1126.58 252.936 1127.1 253.016 1127.53 253.036C1127.73 253.081 1127.95 253.081 1128.15 253.036C1128.34 252.957 1128.52 252.86 1128.69 252.746C1128.9 252.631 1129.12 252.543 1129.35 252.487C1129.48 252.45 1129.62 252.426 1129.76 252.417L1130.76 252.287C1130.82 252.285 1130.88 252.268 1130.93 252.237C1130.96 252.218 1130.99 252.191 1131.01 252.157L1125.81 252.167ZM1117.1 252.457C1117.15 252.502 1117.21 252.539 1117.27 252.566C1117.33 252.576 1117.39 252.576 1117.45 252.566C1117.86 252.592 1118.28 252.572 1118.69 252.507C1119.03 252.415 1119.37 252.294 1119.69 252.147H1116.8L1117.1 252.457ZM1152.73 196.041C1155.38 195.239 1157.7 193.608 1159.36 191.389C1161.01 189.169 1161.91 186.477 1161.92 183.709V180.371H1056.66V183.709C1056.73 186.462 1057.66 189.124 1059.3 191.333C1060.95 193.542 1063.23 195.19 1065.85 196.051V252.167H1056.66V259.682H1161.92V252.167H1152.73V196.041ZM1073.37 196.041C1076.16 195.298 1078.62 193.657 1080.37 191.373C1082.13 189.09 1083.09 186.29 1083.09 183.409C1083.09 186.118 1085.92 196.551 1096.35 196.551C1105.41 196.551 1109.35 188.366 1109.35 183.409C1109.35 188.026 1112.44 196.541 1122.49 196.541C1131.57 196.541 1135.59 187.777 1135.59 183.409C1135.59 186.266 1136.53 189.044 1138.27 191.317C1140 193.591 1142.43 195.236 1145.18 196.001V252.167H1073.34L1073.37 196.041ZM1116.75 252.167L1117.1 252.457C1117.15 252.502 1117.21 252.539 1117.27 252.566C1117.33 252.576 1117.39 252.576 1117.45 252.566C1117.86 252.592 1118.28 252.572 1118.69 252.507C1119.03 252.415 1119.37 252.294 1119.69 252.147L1116.75 252.167ZM1125.81 252.167C1125.87 252.387 1125.91 252.606 1125.97 252.826C1125.98 252.868 1126 252.907 1126.03 252.936H1126.1C1126.58 252.936 1127.1 253.016 1127.53 253.036C1127.73 253.081 1127.95 253.081 1128.15 253.036C1128.34 252.957 1128.52 252.86 1128.69 252.746C1128.9 252.631 1129.12 252.543 1129.35 252.487C1129.48 252.45 1129.62 252.426 1129.76 252.417L1130.76 252.287C1130.82 252.285 1130.88 252.268 1130.93 252.237C1130.96 252.218 1130.99 252.191 1131.01 252.157L1125.81 252.167Z" fill="black"/>
<path d="M299.122 244.112C298.947 244.297 298.85 244.542 298.85 244.796C298.85 245.051 298.947 245.295 299.122 245.481L301.872 248.229C302.058 248.406 302.305 248.505 302.562 248.505C302.818 248.505 303.066 248.406 303.252 248.229L303.522 247.949L304.192 250.478C304.532 250.138 304.362 249.968 304.692 249.638C305.022 249.308 305.202 249.468 305.542 249.139C305.882 248.809 305.702 248.629 306.042 248.289C306.382 247.949 306.552 248.129 306.892 247.789L304.322 247.17L304.582 246.9C304.756 246.715 304.853 246.47 304.853 246.215C304.853 245.961 304.756 245.716 304.582 245.531L301.832 242.793C301.646 242.618 301.401 242.521 301.147 242.521C300.892 242.521 300.647 242.618 300.462 242.793L300.182 243.072L299.542 240.504C299.202 240.844 299.382 241.014 299.042 241.353C298.702 241.693 298.532 241.513 298.192 241.843C297.852 242.173 298.032 242.353 297.692 242.693C297.352 243.032 297.182 242.852 296.852 243.192L299.422 243.822L299.122 244.112ZM303.202 245.441L303.492 245.151L303.812 245.471L303.522 245.761L303.202 245.441ZM301.312 243.552L301.602 243.262L303.112 244.771L302.822 245.061L301.312 243.552Z" fill="black"/>
<path d="M365.801 229.182L367.471 228.772C367.251 228.552 367.141 228.662 366.921 228.443C366.701 228.223 366.811 228.113 366.591 227.903C366.371 227.693 366.261 227.793 366.041 227.573C365.821 227.353 365.941 227.243 365.721 227.023L365.301 228.682L365.131 228.503C365.01 228.386 364.849 228.322 364.681 228.322C364.514 228.322 364.352 228.386 364.231 228.503L362.441 230.281C362.326 230.401 362.261 230.56 362.261 230.726C362.261 230.892 362.326 231.052 362.441 231.171L362.621 231.341L360.941 231.751C361.161 231.97 361.271 231.86 361.491 232.08C361.711 232.3 361.601 232.41 361.811 232.63C362.021 232.85 362.141 232.73 362.361 232.95C362.581 233.17 362.471 233.28 362.691 233.499L363.121 231.85L363.301 232.04C363.421 232.156 363.58 232.22 363.746 232.22C363.912 232.22 364.072 232.156 364.191 232.04L365.981 230.251C366.097 230.132 366.161 229.973 366.161 229.807C366.161 229.641 366.097 229.481 365.981 229.362L365.801 229.182ZM363.121 230.431L362.931 230.241L363.141 230.042L363.321 230.221L363.121 230.431ZM363.571 229.982L363.391 229.792L364.391 228.792L364.571 228.982L363.571 229.982Z" fill="#FFAE00"/>
<path d="M1161.91 177.443H1056.65L1070.02 164.081V155.736H1148.96V164.081H1148.89L1161.91 177.443Z" fill="black"/>
<path d="M319.049 211.802C320.673 211.802 321.989 210.487 321.989 208.864C321.989 207.241 320.673 205.926 319.049 205.926C317.426 205.926 316.109 207.241 316.109 208.864C316.109 210.487 317.426 211.802 319.049 211.802Z" fill="#FFAE00"/>
<path d="M323.378 205.925C324.146 205.925 324.768 205.303 324.768 204.536C324.768 203.768 324.146 203.146 323.378 203.146C322.611 203.146 321.988 203.768 321.988 204.536C321.988 205.303 322.611 205.925 323.378 205.925Z" fill="#FFAE00"/>
<path d="M356.12 221.816C356.639 221.816 357.06 221.396 357.06 220.877C357.06 220.358 356.639 219.938 356.12 219.938C355.601 219.938 355.18 220.358 355.18 220.877C355.18 221.396 355.601 221.816 356.12 221.816Z" fill="#4A4C4C"/>
<path d="M357.51 219.927C357.753 219.927 357.95 219.73 357.95 219.487C357.95 219.244 357.753 219.047 357.51 219.047C357.267 219.047 357.07 219.244 357.07 219.487C357.07 219.73 357.267 219.927 357.51 219.927Z" fill="#4A4C4C"/>
<path d="M1045.48 247.683L1055.93 219.94C1057.96 219.499 1059.93 218.8 1061.79 217.862C1062.83 217.342 1063.77 216.645 1064.57 215.803C1065.32 214.989 1065.78 213.956 1065.88 212.858C1065.99 211.76 1065.74 210.658 1065.16 209.717C1064.59 208.813 1063.71 208.154 1062.68 207.868C1061.65 207.581 1060.55 207.688 1059.6 208.168C1059.28 208.327 1058.97 208.527 1058.6 208.717C1058.48 208.357 1058.39 208.008 1058.25 207.668C1057.85 206.682 1057.09 205.88 1056.13 205.42C1055.17 204.96 1054.07 204.875 1053.05 205.179C1051.99 205.505 1051.06 206.171 1050.42 207.073C1049.77 207.976 1049.44 209.066 1049.47 210.176C1049.52 211.336 1049.76 212.479 1050.2 213.554C1050.97 215.482 1051.98 217.305 1053.2 218.981L1046.85 235.83L1043.53 234.581L1042.68 236.84L1046 238.089L1045.33 239.878L1042 238.629L1040 243.806L1043.32 245.065L1042.7 246.724L1045.48 247.683Z" fill="#FFAE00"/>
<path opacity="0.1" d="M1325.51 156.148C1325.43 156.531 1325.27 156.952 1325.03 157.192C1324.79 157.433 1324.38 157.597 1324.01 157.679C1324.38 157.761 1324.79 157.926 1325.03 158.167C1325.27 158.407 1325.43 158.828 1325.51 159.21C1325.59 158.828 1325.75 158.407 1325.99 158.166C1326.22 157.926 1326.63 157.761 1327.01 157.679C1326.63 157.597 1326.22 157.433 1325.99 157.192C1325.75 156.952 1325.59 156.531 1325.51 156.148Z" fill="white"/>
<path opacity="0.5" d="M310.5 80.625C310.42 81.0074 310.258 81.4282 310.023 81.6688C309.787 81.9093 309.375 82.0741 309 82.1559C309.375 82.238 309.787 82.4023 310.023 82.6431C310.258 82.8837 310.42 83.3041 310.5 83.6867C310.58 83.3041 310.742 82.8837 310.978 82.6429C311.213 82.4023 311.625 82.2377 312 82.1556C311.625 82.0739 311.213 81.9093 310.977 81.6686C310.742 81.4282 310.58 81.0075 310.5 80.625Z" fill="white"/>
<path opacity="0.1" d="M1372.51 185.746C1372.43 186.129 1372.27 186.549 1372.03 186.79C1371.79 187.03 1371.38 187.195 1371.01 187.277C1371.38 187.359 1371.79 187.523 1372.03 187.764C1372.27 188.005 1372.43 188.425 1372.51 188.808C1372.59 188.425 1372.75 188.005 1372.99 187.764C1373.22 187.523 1373.63 187.359 1374.01 187.277C1373.63 187.195 1373.22 187.03 1372.99 186.79C1372.75 186.549 1372.59 186.129 1372.51 185.746Z" fill="white"/>
<path opacity="0.1" d="M350.5 109.201C350.42 109.584 350.258 110.004 350.023 110.245C349.787 110.485 349.375 110.65 349 110.732C349.375 110.814 349.787 110.978 350.023 111.219C350.258 111.46 350.42 111.88 350.5 112.263C350.58 111.88 350.742 111.46 350.978 111.219C351.213 110.978 351.625 110.814 352 110.732C351.625 110.65 351.213 110.485 350.977 110.245C350.742 110.004 350.58 109.584 350.5 109.201Z" fill="white"/>
<path opacity="0.1" d="M393.5 137.777C393.42 138.16 393.258 138.581 393.023 138.821C392.787 139.062 392.375 139.226 392 139.308C392.375 139.39 392.787 139.555 393.023 139.795C393.258 140.036 393.42 140.456 393.5 140.839C393.58 140.456 393.742 140.036 393.978 139.795C394.213 139.555 394.625 139.39 395 139.308C394.625 139.226 394.213 139.062 393.977 138.821C393.742 138.581 393.58 138.16 393.5 137.777Z" fill="white"/>
<path opacity="0.5" d="M430.504 77.5645C430.424 77.9469 430.262 78.3676 430.027 78.6083C429.791 78.8487 429.379 79.0135 429.004 79.0954C429.379 79.1775 429.791 79.3417 430.027 79.5825C430.262 79.8232 430.424 80.2435 430.504 80.6262C430.584 80.2435 430.745 79.8232 430.981 79.5824C431.217 79.3418 431.629 79.1771 432.004 79.0951C431.629 79.0133 431.217 78.8487 430.981 78.6081C430.745 78.3676 430.584 77.9469 430.504 77.5645Z" fill="white"/>
<path opacity="0.1" d="M1027.51 173.498C1027.43 173.88 1027.27 174.301 1027.03 174.542C1026.79 174.782 1026.38 174.947 1026.01 175.029C1026.38 175.111 1026.79 175.275 1027.03 175.516C1027.27 175.757 1027.43 176.177 1027.51 176.56C1027.59 176.177 1027.75 175.757 1027.99 175.516C1028.22 175.275 1028.63 175.111 1029.01 175.029C1028.63 174.947 1028.22 174.782 1027.99 174.542C1027.75 174.301 1027.59 173.881 1027.51 173.498Z" fill="white"/>
<path opacity="0.1" d="M1003.51 145.941C1003.43 146.324 1003.27 146.745 1003.03 146.985C1002.79 147.226 1002.38 147.39 1002.01 147.472C1002.38 147.554 1002.79 147.719 1003.03 147.959C1003.27 148.2 1003.43 148.621 1003.51 149.003C1003.59 148.621 1003.75 148.2 1003.99 147.959C1004.22 147.719 1004.63 147.554 1005.01 147.472C1004.63 147.39 1004.22 147.226 1003.99 146.985C1003.75 146.745 1003.59 146.324 1003.51 145.941Z" fill="white"/>
<path opacity="0.5" d="M745.504 147.984C745.424 148.367 745.262 148.788 745.027 149.028C744.791 149.269 744.379 149.433 744.004 149.515C744.379 149.597 744.791 149.762 745.027 150.002C745.262 150.243 745.424 150.663 745.504 151.046C745.584 150.663 745.745 150.243 745.981 150.002C746.217 149.762 746.629 149.597 747.004 149.515C746.629 149.433 746.217 149.269 745.981 149.028C745.745 148.788 745.584 148.367 745.504 147.984Z" fill="white"/>
<path opacity="0.1" d="M998.508 91.8516C998.427 92.234 998.266 92.6547 998.03 92.8954C997.795 93.1358 997.383 93.3006 997.008 93.3825C997.383 93.4646 997.795 93.6288 998.03 93.8696C998.266 94.1103 998.428 94.5307 998.508 94.9133C998.588 94.5307 998.749 94.1103 998.985 93.8695C999.221 93.6289 999.633 93.4642 1000.01 93.3822C999.633 93.3004 999.221 93.1359 998.985 92.8952C998.749 92.6547 998.588 92.234 998.508 91.8516Z" fill="white"/>
<path opacity="0.1" d="M887.508 171.457C887.427 171.839 887.266 172.26 887.03 172.501C886.795 172.741 886.383 172.906 886.008 172.988C886.383 173.07 886.795 173.234 887.03 173.475C887.266 173.716 887.428 174.136 887.508 174.519C887.588 174.136 887.749 173.716 887.985 173.475C888.221 173.234 888.633 173.07 889.008 172.988C888.633 172.906 888.221 172.741 887.985 172.501C887.749 172.26 887.588 171.839 887.508 171.457Z" fill="white"/>
<path opacity="0.1" d="M833.504 149.004C833.424 149.386 833.262 149.807 833.027 150.048C832.791 150.288 832.379 150.453 832.004 150.535C832.379 150.617 832.791 150.781 833.027 151.022C833.262 151.263 833.424 151.683 833.504 152.066C833.584 151.683 833.745 151.263 833.981 151.022C834.217 150.781 834.629 150.617 835.004 150.535C834.629 150.453 834.217 150.288 833.981 150.048C833.745 149.807 833.584 149.386 833.504 149.004Z" fill="white"/>
<path opacity="0.1" d="M1200.51 106.141C1200.43 106.523 1200.27 106.944 1200.03 107.184C1199.79 107.425 1199.38 107.59 1199.01 107.672C1199.38 107.754 1199.79 107.918 1200.03 108.159C1200.27 108.399 1200.43 108.82 1200.51 109.202C1200.59 108.82 1200.75 108.399 1200.99 108.159C1201.22 107.918 1201.63 107.753 1202.01 107.671C1201.63 107.59 1201.22 107.425 1200.99 107.184C1200.75 106.944 1200.59 106.523 1200.51 106.141Z" fill="white"/>
<path opacity="0.1" d="M1168.51 147.984C1168.43 148.367 1168.27 148.788 1168.03 149.028C1167.79 149.269 1167.38 149.433 1167.01 149.515C1167.38 149.597 1167.79 149.762 1168.03 150.002C1168.27 150.243 1168.43 150.663 1168.51 151.046C1168.59 150.663 1168.75 150.243 1168.99 150.002C1169.22 149.762 1169.63 149.597 1170.01 149.515C1169.63 149.433 1169.22 149.269 1168.99 149.028C1168.75 148.788 1168.59 148.367 1168.51 147.984Z" fill="white"/>
<path opacity="0.1" d="M1114.51 167.375C1114.43 167.757 1114.27 168.178 1114.03 168.419C1113.79 168.659 1113.38 168.824 1113.01 168.906C1113.38 168.988 1113.79 169.152 1114.03 169.393C1114.27 169.634 1114.43 170.054 1114.51 170.437C1114.59 170.054 1114.75 169.634 1114.99 169.393C1115.22 169.152 1115.63 168.988 1116.01 168.906C1115.63 168.824 1115.22 168.659 1114.99 168.419C1114.75 168.178 1114.59 167.757 1114.51 167.375Z" fill="white"/>
<path opacity="0.5" d="M225.5 166.354C225.42 166.736 225.258 167.157 225.023 167.397C224.787 167.638 224.375 167.803 224 167.884C224.375 167.967 224.787 168.131 225.023 168.372C225.258 168.612 225.42 169.033 225.5 169.415C225.58 169.033 225.742 168.612 225.978 168.371C226.213 168.131 226.625 167.966 227 167.884C226.625 167.802 226.213 167.638 225.977 167.397C225.742 167.157 225.58 166.736 225.5 166.354Z" fill="white"/>
<path opacity="0.5" d="M1127.51 107.16C1127.43 107.543 1127.27 107.963 1127.03 108.204C1126.79 108.444 1126.38 108.609 1126.01 108.691C1126.38 108.773 1126.79 108.937 1127.03 109.178C1127.27 109.419 1127.43 109.839 1127.51 110.222C1127.59 109.839 1127.75 109.419 1127.99 109.178C1128.22 108.937 1128.63 108.773 1129.01 108.691C1128.63 108.609 1128.22 108.444 1127.99 108.204C1127.75 107.963 1127.59 107.543 1127.51 107.16Z" fill="white"/>
<path opacity="0.5" d="M984.508 180.643C984.427 181.025 984.266 181.446 984.03 181.686C983.795 181.927 983.383 182.092 983.008 182.174C983.383 182.256 983.795 182.42 984.03 182.661C984.266 182.901 984.428 183.322 984.508 183.704C984.588 183.322 984.749 182.901 984.985 182.661C985.221 182.42 985.633 182.255 986.008 182.173C985.633 182.091 985.221 181.927 984.985 181.686C984.749 181.446 984.588 181.025 984.508 180.643Z" fill="white"/>
<path opacity="0.5" d="M950.508 136.758C950.427 137.14 950.266 137.561 950.03 137.802C949.795 138.042 949.383 138.207 949.008 138.289C949.383 138.371 949.795 138.535 950.03 138.776C950.266 139.017 950.428 139.437 950.508 139.82C950.588 139.437 950.749 139.017 950.985 138.776C951.221 138.535 951.633 138.37 952.008 138.288C951.633 138.207 951.221 138.042 950.985 137.801C950.749 137.561 950.588 137.14 950.508 136.758Z" fill="white"/>
<path opacity="0.5" d="M891.504 125.531C891.424 125.914 891.262 126.334 891.027 126.575C890.791 126.816 890.379 126.98 890.004 127.062C890.379 127.144 890.791 127.309 891.027 127.549C891.262 127.79 891.424 128.21 891.504 128.593C891.584 128.21 891.745 127.79 891.981 127.549C892.217 127.309 892.629 127.144 893.004 127.062C892.629 126.98 892.217 126.816 891.981 126.575C891.745 126.334 891.584 125.914 891.504 125.531Z" fill="white"/>
<path opacity="0.5" d="M691.004 160.23C690.95 160.613 690.843 161.034 690.686 161.274C690.528 161.515 690.254 161.68 690.004 161.761C690.254 161.843 690.528 162.008 690.686 162.249C690.843 162.489 690.951 162.91 691.004 163.292C691.057 162.91 691.165 162.489 691.322 162.248C691.479 162.008 691.754 161.843 692.004 161.761C691.754 161.679 691.479 161.515 691.322 161.274C691.165 161.034 691.057 160.613 691.004 160.23Z" fill="white"/>
<path opacity="0.5" d="M630.004 176.561C629.95 176.943 629.843 177.364 629.686 177.604C629.528 177.845 629.254 178.01 629.004 178.091C629.254 178.174 629.528 178.338 629.686 178.579C629.843 178.819 629.951 179.24 630.004 179.622C630.057 179.24 630.165 178.819 630.322 178.578C630.479 178.338 630.754 178.173 631.004 178.091C630.754 178.009 630.479 177.845 630.322 177.604C630.165 177.364 630.057 176.943 630.004 176.561Z" fill="white"/>
<path opacity="0.5" d="M284 113.285C283.946 113.668 283.839 114.088 283.682 114.329C283.525 114.569 283.25 114.734 283 114.816C283.25 114.898 283.525 115.062 283.682 115.303C283.839 115.544 283.947 115.964 284 116.347C284.054 115.964 284.161 115.544 284.318 115.303C284.475 115.062 284.75 114.898 285 114.816C284.75 114.734 284.475 114.569 284.318 114.329C284.161 114.088 284.053 113.668 284 113.285Z" fill="white"/>
<path opacity="0.1" d="M568.504 144.922C568.424 145.304 568.262 145.725 568.027 145.966C567.791 146.206 567.379 146.371 567.004 146.453C567.379 146.535 567.791 146.699 568.027 146.94C568.262 147.181 568.424 147.601 568.504 147.984C568.584 147.601 568.745 147.181 568.981 146.94C569.217 146.699 569.629 146.535 570.004 146.453C569.629 146.371 569.217 146.206 568.981 145.966C568.745 145.725 568.584 145.304 568.504 144.922Z" fill="white"/>
<path opacity="0.2" d="M1254.51 182.684C1254.37 183.321 1254.11 184.022 1253.71 184.423C1253.32 184.824 1252.63 185.099 1252.01 185.235C1252.63 185.372 1253.32 185.646 1253.71 186.047C1254.11 186.448 1254.37 187.149 1254.51 187.786C1254.64 187.149 1254.91 186.448 1255.3 186.047C1255.7 185.646 1256.38 185.371 1257.01 185.235C1256.38 185.098 1255.7 184.824 1255.3 184.423C1254.91 184.022 1254.64 183.321 1254.51 182.684Z" fill="white"/>
<path opacity="0.2" d="M401.5 173.498C401.366 174.135 401.097 174.837 400.704 175.238C400.311 175.638 399.625 175.913 399 176.05C399.625 176.186 400.311 176.46 400.704 176.862C401.097 177.263 401.367 177.963 401.5 178.601C401.634 177.963 401.903 177.263 402.296 176.861C402.689 176.46 403.376 176.186 404 176.049C403.376 175.913 402.689 175.639 402.296 175.237C401.903 174.837 401.633 174.135 401.5 173.498Z" fill="white"/>
<path opacity="0.2" d="M285.5 149.004C285.366 149.641 285.097 150.343 284.704 150.744C284.311 151.144 283.625 151.419 283 151.555C283.625 151.692 284.311 151.966 284.704 152.367C285.097 152.768 285.367 153.469 285.5 154.107C285.634 153.469 285.903 152.768 286.296 152.367C286.689 151.966 287.376 151.692 288 151.555C287.376 151.419 286.689 151.144 286.296 150.743C285.903 150.343 285.633 149.641 285.5 149.004Z" fill="white"/>
<path opacity="0.1" d="M1088.51 135.736C1088.37 136.374 1088.11 137.075 1087.71 137.476C1087.32 137.877 1086.63 138.151 1086.01 138.288C1086.63 138.425 1087.32 138.698 1087.71 139.1C1088.11 139.501 1088.37 140.201 1088.51 140.839C1088.64 140.201 1088.91 139.501 1089.3 139.1C1089.7 138.699 1090.38 138.424 1091.01 138.287C1090.38 138.151 1089.7 137.877 1089.3 137.476C1088.91 137.075 1088.64 136.374 1088.51 135.736Z" fill="white"/>
<path opacity="0.1" d="M143.5 94.9141C143.366 95.5515 143.097 96.2527 142.704 96.6537C142.311 97.0545 141.625 97.3292 141 97.4656C141.625 97.6024 142.311 97.8762 142.704 98.2775C143.097 98.6786 143.367 99.3792 143.5 100.017C143.634 99.3792 143.903 98.6786 144.296 98.2773C144.689 97.8762 145.376 97.6019 146 97.4651C145.376 97.3289 144.689 97.0545 144.296 96.6535C143.903 96.2527 143.633 95.5515 143.5 94.9141Z" fill="white"/>
<path opacity="0.1" d="M175.5 145.941C175.366 146.579 175.097 147.28 174.704 147.681C174.311 148.082 173.625 148.356 173 148.493C173.625 148.63 174.311 148.904 174.704 149.305C175.097 149.706 175.367 150.407 175.5 151.044C175.634 150.407 175.903 149.706 176.296 149.305C176.689 148.904 177.376 148.629 178 148.492C177.376 148.356 176.689 148.082 176.296 147.681C175.903 147.28 175.633 146.579 175.5 145.941Z" fill="white"/>
<path opacity="0.2" d="M1040.51 106.141C1040.37 106.778 1040.11 107.479 1039.71 107.88C1039.32 108.281 1038.63 108.556 1038.01 108.692C1038.63 108.829 1039.32 109.103 1039.71 109.504C1040.11 109.905 1040.37 110.606 1040.51 111.244C1040.64 110.606 1040.91 109.905 1041.3 109.504C1041.7 109.103 1042.38 108.828 1043.01 108.692C1042.38 108.555 1041.7 108.281 1041.3 107.88C1040.91 107.479 1040.64 106.778 1040.51 106.141Z" fill="white"/>
<path opacity="0.2" d="M660.504 116.346C660.37 116.983 660.101 117.684 659.708 118.085C659.315 118.486 658.628 118.761 658.004 118.897C658.628 119.034 659.315 119.308 659.708 119.709C660.101 120.11 660.37 120.811 660.504 121.449C660.638 120.811 660.907 120.11 661.3 119.709C661.692 119.308 662.379 119.033 663.004 118.897C662.38 118.761 661.692 118.486 661.299 118.085C660.907 117.684 660.637 116.983 660.504 116.346Z" fill="white"/>
<path opacity="0.2" d="M491.504 124.51C491.37 125.147 491.101 125.848 490.708 126.249C490.315 126.65 489.628 126.925 489.004 127.061C489.628 127.198 490.315 127.472 490.708 127.873C491.101 128.274 491.37 128.975 491.504 129.613C491.638 128.975 491.907 128.274 492.3 127.873C492.692 127.472 493.379 127.198 494.004 127.061C493.38 126.925 492.692 126.65 492.299 126.249C491.907 125.848 491.637 125.147 491.504 124.51Z" fill="white"/>
<path opacity="0.2" d="M802.504 106.141C802.37 106.778 802.101 107.479 801.708 107.88C801.315 108.281 800.628 108.556 800.004 108.692C800.628 108.829 801.315 109.103 801.708 109.504C802.101 109.905 802.37 110.606 802.504 111.244C802.638 110.606 802.907 109.905 803.3 109.504C803.692 109.103 804.379 108.828 805.004 108.692C804.38 108.555 803.692 108.281 803.299 107.88C802.907 107.479 802.637 106.778 802.504 106.141Z" fill="white"/>
<path opacity="0.2" d="M578.504 109.201C578.37 109.839 578.101 110.54 577.708 110.941C577.315 111.342 576.628 111.616 576.004 111.753C576.628 111.89 577.315 112.163 577.708 112.565C578.101 112.966 578.37 113.666 578.504 114.304C578.638 113.666 578.907 112.966 579.3 112.564C579.692 112.163 580.379 111.889 581.004 111.752C580.38 111.616 579.692 111.342 579.299 110.941C578.907 110.54 578.637 109.839 578.504 109.201Z" fill="white"/>
<path opacity="0.1" d="M925.508 79.6055C925.374 80.2429 925.105 80.9441 924.712 81.3451C924.319 81.7459 923.632 82.0206 923.008 82.157C923.632 82.2938 924.319 82.5676 924.712 82.9689C925.105 83.37 925.374 84.0706 925.508 84.7083C925.642 84.0706 925.91 83.37 926.304 82.9687C926.696 82.5676 927.383 82.2933 928.008 82.1565C927.383 82.0203 926.696 81.7459 926.303 81.3449C925.91 80.9441 925.641 80.2429 925.508 79.6055Z" fill="white"/>
<path opacity="0.5" d="M722.504 109.201C722.37 109.839 722.101 110.54 721.708 110.941C721.315 111.342 720.628 111.616 720.004 111.753C720.628 111.89 721.315 112.163 721.708 112.565C722.101 112.966 722.37 113.666 722.504 114.304C722.638 113.666 722.907 112.966 723.3 112.564C723.692 112.163 724.379 111.889 725.004 111.752C724.38 111.616 723.692 111.342 723.299 110.941C722.907 110.54 722.637 109.839 722.504 109.201Z" fill="white"/>
<path opacity="0.5" d="M419.5 111.242C419.366 111.88 419.097 112.581 418.704 112.982C418.311 113.383 417.625 113.657 417 113.794C417.625 113.931 418.311 114.204 418.704 114.606C419.097 115.007 419.367 115.707 419.5 116.345C419.634 115.707 419.903 115.007 420.296 114.605C420.689 114.204 421.376 113.93 422 113.793C421.376 113.657 420.689 113.383 420.296 112.982C419.903 112.581 419.633 111.88 419.5 111.242Z" fill="white"/>
<path opacity="0.5" d="M102.5 34.6992C102.366 35.3366 102.097 36.0378 101.704 36.4389C101.311 36.8397 100.625 37.1143 100 37.2508C100.625 37.3876 101.311 37.6614 101.704 38.0627C102.097 38.4637 102.367 39.1644 102.5 39.8021C102.634 39.1644 102.903 38.4638 103.296 38.0624C103.689 37.6614 104.376 37.387 105 37.2503C104.376 37.114 103.689 36.8397 103.296 36.4386C102.903 36.0379 102.633 35.3366 102.5 34.6992Z" fill="white"/>
<path opacity="0.5" d="M937.508 178.602C937.427 178.984 937.266 179.405 937.03 179.645C936.795 179.886 936.383 180.051 936.008 180.133C936.383 180.215 936.795 180.379 937.03 180.62C937.266 180.86 937.428 181.281 937.508 181.663C937.588 181.281 937.749 180.86 937.985 180.619C938.221 180.379 938.633 180.214 939.008 180.132C938.633 180.05 938.221 179.886 937.985 179.645C937.749 179.405 937.588 178.984 937.508 178.602Z" fill="white"/>
<path opacity="0.2" d="M1208.51 166.354C1208.37 166.991 1208.11 167.692 1207.71 168.093C1207.32 168.494 1206.63 168.769 1206.01 168.905C1206.63 169.042 1207.32 169.316 1207.71 169.717C1208.11 170.118 1208.37 170.819 1208.51 171.456C1208.64 170.819 1208.91 170.118 1209.3 169.717C1209.7 169.316 1210.38 169.041 1211.01 168.905C1210.38 168.768 1209.7 168.494 1209.3 168.093C1208.91 167.692 1208.64 166.991 1208.51 166.354Z" fill="white"/>
<path opacity="0.2" d="M199.5 113.285C199.366 113.923 199.097 114.624 198.704 115.025C198.311 115.426 197.625 115.7 197 115.837C197.625 115.973 198.311 116.247 198.704 116.649C199.097 117.05 199.367 117.75 199.5 118.388C199.634 117.75 199.903 117.05 200.296 116.648C200.689 116.247 201.376 115.973 202 115.836C201.376 115.7 200.689 115.426 200.296 115.025C199.903 114.624 199.633 113.923 199.5 113.285Z" fill="white"/>
<path opacity="0.2" d="M236 108.182C235.946 108.437 235.839 108.717 235.682 108.878C235.525 109.038 235.25 109.148 235 109.202C235.25 109.257 235.525 109.366 235.682 109.527C235.839 109.687 235.947 109.968 236 110.223C236.054 109.968 236.161 109.687 236.318 109.527C236.475 109.367 236.75 109.257 237 109.202C236.75 109.148 236.475 109.038 236.318 108.877C236.161 108.717 236.053 108.437 236 108.182Z" fill="white"/>
<path opacity="0.5" d="M124 149.004C123.946 149.259 123.839 149.539 123.682 149.7C123.525 149.86 123.25 149.97 123 150.025C123.25 150.079 123.525 150.189 123.682 150.349C123.839 150.51 123.947 150.79 124 151.045C124.054 150.79 124.161 150.51 124.318 150.349C124.475 150.189 124.75 150.079 125 150.024C124.75 149.97 124.475 149.86 124.318 149.7C124.161 149.539 124.053 149.259 124 149.004Z" fill="white"/>
<path opacity="0.2" d="M168 179.621C167.946 179.876 167.839 180.157 167.682 180.317C167.525 180.477 167.25 180.587 167 180.642C167.25 180.696 167.525 180.806 167.682 180.966C167.839 181.127 167.947 181.407 168 181.662C168.054 181.407 168.161 181.127 168.318 180.966C168.475 180.806 168.75 180.696 169 180.642C168.75 180.587 168.475 180.477 168.318 180.317C168.161 180.157 168.053 179.876 168 179.621Z" fill="white"/>
<path opacity="0.2" d="M66.9999 133.695C66.9464 133.95 66.839 134.231 66.6818 134.391C66.5246 134.551 66.2498 134.661 66 134.716C66.2498 134.771 66.5246 134.88 66.6818 135.041C66.839 135.201 66.9466 135.481 67.0001 135.736C67.0536 135.481 67.1611 135.201 67.3183 135.041C67.4754 134.88 67.7502 134.77 68 134.716C67.7502 134.661 67.4754 134.552 67.3182 134.391C67.1611 134.231 67.0534 133.95 66.9999 133.695Z" fill="white"/>
<path opacity="0.5" d="M85.4998 180.643C85.366 181.28 85.0975 181.981 84.7044 182.382C84.3114 182.783 83.6245 183.058 83 183.194C83.6245 183.331 84.3114 183.605 84.7044 184.006C85.0975 184.407 85.3666 185.108 85.5003 185.745C85.634 185.108 85.9026 184.407 86.2958 184.006C86.6886 183.605 87.3756 183.33 88 183.194C87.3756 183.057 86.6886 182.783 86.2956 182.382C85.9026 181.981 85.6334 181.28 85.4998 180.643Z" fill="white"/>
<path opacity="0.2" d="M105.5 103.078C105.366 103.716 105.097 104.417 104.704 104.818C104.311 105.219 103.625 105.493 103 105.63C103.625 105.766 104.311 106.04 104.704 106.442C105.097 106.843 105.367 107.543 105.5 108.181C105.634 107.543 105.903 106.843 106.296 106.441C106.689 106.04 107.376 105.766 108 105.629C107.376 105.493 106.689 105.219 106.296 104.818C105.903 104.417 105.633 103.716 105.5 103.078Z" fill="white"/>
<path opacity="0.5" d="M1247.51 125.531C1247.37 126.169 1247.11 126.87 1246.71 127.271C1246.32 127.672 1245.63 127.946 1245.01 128.083C1245.63 128.22 1246.32 128.493 1246.71 128.895C1247.11 129.296 1247.37 129.996 1247.51 130.634C1247.64 129.996 1247.91 129.296 1248.3 128.894C1248.7 128.493 1249.38 128.219 1250.01 128.082C1249.38 127.946 1248.7 127.672 1248.3 127.271C1247.91 126.87 1247.64 126.169 1247.51 125.531Z" fill="white"/>
<path opacity="0.1" d="M1368.51 0C1368.37 0.637398 1368.11 1.33861 1367.71 1.73967C1367.32 2.14045 1366.63 2.41509 1366.01 2.55157C1366.63 2.68834 1367.32 2.96214 1367.71 3.36347C1368.11 3.7645 1368.37 4.46516 1368.51 5.10288C1368.64 4.46516 1368.91 3.76453 1369.3 3.36321C1369.7 2.96217 1370.38 2.68779 1371.01 2.55105C1370.38 2.4148 1369.7 2.14048 1369.3 1.73941C1368.91 1.33864 1368.64 0.63743 1368.51 0Z" fill="white"/>
<path opacity="0.5" d="M1279.51 74.502C1279.37 75.1394 1279.11 75.8406 1278.71 76.2416C1278.32 76.6424 1277.63 76.917 1277.01 77.0535C1277.63 77.1903 1278.32 77.4641 1278.71 77.8654C1279.11 78.2665 1279.37 78.9671 1279.51 79.6048C1279.64 78.9671 1279.91 78.2665 1280.3 77.8652C1280.7 77.4641 1281.38 77.1897 1282.01 77.053C1281.38 76.9168 1280.7 76.6424 1280.3 76.2414C1279.91 75.8406 1279.64 75.1394 1279.51 74.502Z" fill="white"/>
</svg>
