<svg width="1440" height="136" viewBox="0 0 1440 136" fill="none" xmlns="http://www.w3.org/2000/svg">
<path d="M330.83 71.2702L328.24 71.8398L328.59 69.7611L336.15 63.6449L334.22 61.2563L326.22 67.7423C325.927 67.9768 325.731 68.3115 325.67 68.6818L325.03 72.5494L306.83 76.5469C306.445 76.626 306.081 76.7855 305.762 77.0149C305.443 77.2443 305.176 77.5385 304.979 77.8781C304.781 78.2178 304.658 78.5953 304.617 78.9859C304.576 79.3765 304.618 79.7714 304.74 80.1447L313.85 109.616C314.11 110.408 314.651 111.078 315.372 111.498C316.092 111.917 316.942 112.059 317.76 111.895L335.76 107.898C336.571 107.705 337.284 107.22 337.761 106.537C338.239 105.853 338.448 105.018 338.35 104.19L334.25 73.6187C334.199 73.2309 334.067 72.8582 333.863 72.5246C333.658 72.1911 333.386 71.9043 333.063 71.6828C332.741 71.4613 332.375 71.3101 331.99 71.239C331.606 71.1679 331.21 71.1785 330.83 71.2702ZM331.23 74.3283L332.46 83.4926L326.08 84.9018L327.7 75.1078L331.23 74.3283ZM324.47 75.8174L322.85 85.6113L310.47 88.3296L307.73 79.4951L324.47 75.8174Z" fill="#4A4C4C"/>
<path d="M358.592 81.1838L357.372 80.6342L358.142 79.8946L363.052 79.7047L362.992 78.1557L357.782 78.3556C357.591 78.3583 357.409 78.4333 357.272 78.5655L355.842 79.9346L347.272 76.047C347.091 75.9619 346.895 75.916 346.696 75.9123C346.496 75.9087 346.298 75.9473 346.115 76.0257C345.932 76.1041 345.767 76.2205 345.632 76.3671C345.497 76.5138 345.395 76.6874 345.332 76.8765L340.092 91.5574C339.956 91.9554 339.971 92.3895 340.136 92.7768C340.3 93.164 340.601 93.4771 340.982 93.6562L349.472 97.5038C349.857 97.6734 350.292 97.6949 350.693 97.564C351.093 97.433 351.431 97.1589 351.642 96.7942L359.242 83.1826C359.342 83.0112 359.404 82.8206 359.425 82.6233C359.447 82.4261 359.426 82.2265 359.364 82.0379C359.303 81.8492 359.202 81.6756 359.069 81.5284C358.936 81.3812 358.773 81.2638 358.592 81.1838ZM357.822 82.543L355.542 86.6205L352.542 85.2613L356.162 81.7835L357.822 82.543ZM354.642 81.0939L351.002 84.5218L345.172 81.8734L346.742 77.4761L354.642 81.0939Z" fill="#4A4C4C"/>
<path d="M570.299 109.286V119.16H310.609V116.672L312.949 113.394H326.589L328.859 115.812H332.209V117.062H342.819L347.069 112.814L351.839 117.132L358.909 107.368V104.769H361.189V106.948H365.669V108.827H371.799L377.879 102.74H385.319V99.4724L388.389 96.4043H389.169V93.5461H393.119L392.489 94.1757H391.489V95.5249H392.489V99.6823H394.999V98.7429H397.389V97.0839H400.089V98.6429H401.759V105.339H404.149V102.481L408.519 84.4017V76.0869H409.349V71H410.279V76.0869H411.429V84.0819L415.689 102.471V105.069H418.389V103.72H422.549V113.594H424.999V108.397H439.699V109.396H441.569V114.693H446.869V112.305H450.409V116.572H453.109V113.034H456.749V115.842H463.409V117.601H464.999V114.173H467.489V110.955H468.999V113.454H470.349V110.166H471.189V108.167H473.469V106.768H477.219L489.589 103.96H498.639V101.881H506.539L512.049 106.658V109.047H513.189V110.925H517.769L520.059 107.697H525.459V102.171C526.079 101.841 526.699 101.541 527.329 101.261V103.76H528.169V107.917H534.169L536.089 109.836V111.655H537.389V108.167H540.609V104.11H541.609V108.267L542.809 109.466V113.584H545.809V111.285H546.359V110.546H558.639V111.785H560.739V110.036H562.999V107.927H568.999V109.336L570.299 109.286Z" fill="#4A4C4C"/>
<path d="M1096.08 102.111C1096.08 102.376 1096.18 102.63 1096.37 102.817C1096.56 103.005 1096.81 103.11 1097.08 103.11H1121.08C1121.34 103.11 1121.6 103.005 1121.79 102.817C1121.97 102.63 1122.08 102.376 1122.08 102.111V101.111C1122.08 100.846 1121.97 100.592 1121.79 100.405C1121.6 100.217 1121.34 100.112 1121.08 100.112H1119.7C1119.74 98.6929 1119.5 97.2794 1118.99 95.9554C1118.47 94.6315 1117.7 93.4241 1116.71 92.4048C1115.72 91.3855 1114.54 90.5751 1113.23 90.0217C1111.92 89.4683 1110.51 89.1831 1109.09 89.1831C1107.67 89.1831 1106.27 89.4683 1104.96 90.0217C1103.65 90.5751 1102.47 91.3855 1101.48 92.4048C1100.49 93.4241 1099.71 94.6315 1099.2 95.9554C1098.69 97.2794 1098.44 98.6929 1098.49 100.112H1097.1C1096.83 100.112 1096.58 100.217 1096.39 100.405C1096.2 100.592 1096.1 100.846 1096.1 101.111L1096.08 102.111Z" fill="#040707"/>
<path d="M1109.62 88.3096C1109.89 88.2077 1110.12 88.0267 1110.28 87.7909C1110.44 87.5551 1110.52 87.2758 1110.52 86.9904C1110.52 86.614 1110.37 86.2531 1110.1 85.9869C1109.84 85.7208 1109.48 85.5713 1109.1 85.5713C1108.72 85.5713 1108.36 85.7208 1108.1 85.9869C1107.83 86.2531 1107.68 86.614 1107.68 86.9904C1107.68 87.2758 1107.76 87.5551 1107.92 87.7909C1108.08 88.0267 1108.31 88.2077 1108.58 88.3096V89.4489H1109.58L1109.62 88.3096Z" fill="#040707"/>
<path d="M1100 82.043C1100.11 81.9553 1100.17 81.8304 1100.19 81.6944C1100.2 81.5584 1100.16 81.4219 1100.08 81.3135C1100 81.2063 1099.87 81.1377 1099.73 81.1227C1099.6 81.1077 1099.46 81.1476 1099.35 81.2335C1099.13 81.4255 1098.95 81.6618 1098.82 81.9272C1098.7 82.1926 1098.63 82.4814 1098.62 82.7749C1098.61 83.0684 1098.67 83.3603 1098.78 83.6318C1098.89 83.9033 1099.06 84.1485 1099.27 84.3516C1100.15 85.4609 1098.78 87.0799 1098.76 87.0999C1098.67 87.2048 1098.63 87.3404 1098.64 87.477C1098.65 87.6137 1098.72 87.7404 1098.82 87.8295C1098.91 87.908 1099.03 87.9506 1099.15 87.9494C1099.23 87.9497 1099.3 87.9338 1099.37 87.9027C1099.44 87.8717 1099.5 87.8263 1099.55 87.7695C1099.63 87.6796 1101.49 85.4909 1100.08 83.712C1099.31 82.7226 1099.89 82.1829 1100 82.043Z" fill="#040707"/>
<path d="M1104.54 82.0432C1104.65 81.9569 1104.72 81.8317 1104.73 81.695C1104.75 81.5582 1104.71 81.4211 1104.62 81.3137C1104.58 81.2609 1104.53 81.217 1104.47 81.1844C1104.41 81.1518 1104.34 81.1312 1104.28 81.1237C1104.21 81.1163 1104.14 81.1222 1104.08 81.1411C1104.01 81.16 1103.95 81.1914 1103.9 81.2337C1103.68 81.425 1103.5 81.6607 1103.37 81.9257C1103.24 82.1908 1103.17 82.4793 1103.17 82.7729C1103.16 83.0664 1103.21 83.3585 1103.32 83.6304C1103.43 83.9022 1103.6 84.148 1103.81 84.3518C1104.69 85.4611 1103.32 87.0801 1103.31 87.1001C1103.21 87.1973 1103.16 87.3284 1103.16 87.4649C1103.16 87.6014 1103.21 87.7324 1103.31 87.8296C1103.41 87.9074 1103.53 87.9497 1103.65 87.9496C1103.72 87.9504 1103.8 87.9347 1103.87 87.9036C1103.93 87.8725 1103.99 87.8267 1104.04 87.7697C1104.12 87.6797 1106.04 85.4911 1104.57 83.7122C1103.84 82.7228 1104.42 82.1831 1104.54 82.0432Z" fill="#040707"/>
<path d="M1113.39 87.8295C1113.49 87.9073 1113.61 87.9496 1113.73 87.9495C1113.8 87.9496 1113.88 87.9336 1113.95 87.9026C1114.01 87.8715 1114.07 87.8261 1114.12 87.7696C1114.2 87.6796 1116.12 85.491 1114.65 83.7121C1113.87 82.7127 1114.45 82.143 1114.57 82.0431C1114.63 82.0019 1114.68 81.9495 1114.71 81.889C1114.75 81.8286 1114.77 81.7614 1114.78 81.6915C1114.79 81.6215 1114.79 81.5504 1114.77 81.4824C1114.75 81.4145 1114.72 81.351 1114.67 81.296C1114.63 81.2409 1114.57 81.1955 1114.51 81.1624C1114.45 81.1293 1114.38 81.1092 1114.31 81.1033C1114.24 81.0975 1114.17 81.106 1114.1 81.1284C1114.04 81.1508 1113.97 81.1866 1113.92 81.2336C1113.7 81.4264 1113.52 81.663 1113.4 81.9284C1113.27 82.1937 1113.2 82.482 1113.2 82.7751C1113.19 83.0682 1113.24 83.3596 1113.35 83.631C1113.46 83.9024 1113.63 84.1478 1113.84 84.3517C1114.72 85.461 1113.35 87.08 1113.34 87.09C1113.29 87.1416 1113.26 87.2018 1113.24 87.267C1113.22 87.3323 1113.21 87.4014 1113.21 87.4702C1113.22 87.5391 1113.23 87.6063 1113.26 87.668C1113.3 87.7297 1113.34 87.7846 1113.39 87.8295Z" fill="#040707"/>
<path d="M1119.1 82.0431C1119.16 82.0019 1119.2 81.9495 1119.24 81.889C1119.28 81.8286 1119.3 81.7614 1119.31 81.6915C1119.32 81.6215 1119.32 81.5504 1119.3 81.4824C1119.28 81.4145 1119.25 81.351 1119.2 81.296C1119.16 81.2409 1119.1 81.1955 1119.04 81.1624C1118.98 81.1293 1118.91 81.1092 1118.84 81.1033C1118.77 81.0975 1118.7 81.106 1118.63 81.1284C1118.56 81.1508 1118.5 81.1866 1118.45 81.2336C1118.23 81.4256 1118.05 81.6619 1117.92 81.9273C1117.8 82.1927 1117.73 82.4815 1117.72 82.775C1117.71 83.0685 1117.77 83.3604 1117.88 83.6319C1117.99 83.9034 1118.16 84.1486 1118.37 84.3517C1119.25 85.461 1117.88 87.08 1117.86 87.1C1117.77 87.2049 1117.73 87.3405 1117.74 87.4771C1117.75 87.6138 1117.81 87.7404 1117.92 87.8295C1118.02 87.9073 1118.14 87.9496 1118.26 87.9495C1118.33 87.9483 1118.41 87.9318 1118.47 87.9008C1118.54 87.8698 1118.6 87.8251 1118.65 87.7696C1118.73 87.6796 1120.59 85.491 1119.18 83.7121C1118.39 82.7227 1119 82.183 1119.1 82.0431Z" fill="#040707"/>
<path d="M762.748 115.443C761.318 117.151 758.748 117.291 756.538 117.291H732.538L512.538 116.922C509.968 116.922 506.288 115.163 507.648 112.924C508.07 112.373 508.649 111.963 509.308 111.745C509.738 111.565 510.158 111.395 510.598 111.245C516.768 109.056 523.688 109.296 529.868 107.038C532.181 106.149 534.399 105.031 536.488 103.7C539.738 101.701 542.858 99.4524 546.228 97.7035C546.728 97.4436 547.228 97.2038 547.718 96.9839L548.338 96.7041C553.528 94.4855 559.228 93.8659 564.838 93.2762C578.125 91.8504 591.411 90.4347 604.698 89.0289C610.51 88.5657 616.275 87.6366 621.938 86.2506C629.708 84.1419 637.288 80.2543 645.318 80.8239C654.558 81.4535 662.838 87.8696 672.088 87.6197C676.348 87.4998 680.468 85.9508 684.728 85.8108C693.728 85.501 701.728 91.3174 710.458 93.2762C713.638 93.9758 716.908 94.1657 720.088 94.8153C734.268 97.6535 746.088 111.005 760.568 111.005C762.648 110.216 764.168 113.714 762.748 115.443Z" fill="#4A4C4C"/>
<path d="M1028.74 122.638C1020.18 126.635 1010.04 126.765 1000.43 126.765H732.79C730.79 126.765 728.43 126.665 727.05 125.146C725.31 123.238 726.05 119.99 727.99 118.241C729.93 116.492 732.53 115.852 735.05 115.242C754.31 110.69 773.264 104.933 791.8 98.0031C795.26 96.7039 798.93 95.3448 802.57 96.0044C805.57 96.564 808.92 98.4729 811.57 96.8439C812.68 96.1643 813.42 94.955 814.57 94.4153C816.09 93.7158 817.86 94.3254 819.41 94.935L842 103.83C845.5 105.199 849.13 106.588 852.87 106.348C857.64 106.028 861.87 103.12 866.45 101.951C875.67 99.6321 885.36 104.429 894.77 103.13C897.63 102.73 900.39 101.781 903.25 101.441C908.05 100.861 912.86 102.001 917.6 102.97C933.027 106.129 948.757 107.557 964.5 107.227C969.777 106.951 975.066 106.974 980.34 107.297C989.34 108.137 998.01 111.295 1006.53 114.453C1013.94 117.171 1021.35 119.9 1028.74 122.638Z" fill="#4A4C4C"/>
<path d="M1260.59 126.306H1125.26C1123.54 126.306 1121.6 126.166 1120.43 124.168C1119.74 122.804 1119.47 121.267 1119.66 119.75C1119.67 119.603 1119.69 119.456 1119.72 119.311C1119.81 118.551 1119.98 117.803 1120.24 117.082C1120.36 116.715 1120.51 116.358 1120.69 116.013C1120.69 115.903 1120.8 115.793 1120.86 115.683C1120.97 115.468 1121.1 115.261 1121.24 115.063C1121.5 114.708 1121.79 114.374 1122.1 114.064C1123.53 112.714 1125.27 111.727 1127.16 111.186C1128.76 110.586 1130.37 109.976 1131.96 109.347H1142.5V108.168H1145.21V103.73C1146.55 103.131 1147.89 102.511 1149.21 101.881C1150.38 101.332 1151.55 100.782 1152.72 100.212C1160.18 96.6147 1167.57 92.6704 1174.88 88.3798C1177.8 86.6708 1180.88 84.8719 1183.94 85.7514C1186.51 86.4809 1189.29 88.9994 1191.5 86.8707C1192.44 85.9812 1193.06 84.3622 1194.05 83.6527C1195.33 82.7432 1196.81 83.5427 1198.12 84.3422C1203.29 87.5403 1208.46 90.7216 1213.63 93.8863L1225.15 101.881L1232.15 106.748L1237.01 110.106L1237.75 110.616L1238.52 111.136L1240.93 112.815L1242.72 114.044L1245.02 115.623L1245.59 116.023L1247.14 117.092L1256.98 123.888L1260.59 126.306Z" fill="#4A4C4C"/>
<path d="M1264.08 114.693H1220.26C1219.92 114.737 1219.58 114.661 1219.29 114.478C1219.01 114.296 1218.79 114.018 1218.69 113.694C1218.28 112.308 1218.37 110.821 1218.95 109.496C1219.36 108.685 1220.04 108.044 1220.87 107.687C1226.38 104.736 1231.56 101.212 1236.33 97.1737C1237.33 96.3842 1238.33 95.5547 1239.26 95.9645C1240.19 96.3742 1240.99 97.4635 1241.71 96.4741C1242.02 96.0644 1242.22 95.3249 1242.54 94.9951C1242.86 94.6653 1243.43 94.9451 1243.86 95.3149L1248.86 99.7122L1264.08 114.693Z" fill="#4A4C4C"/>
<path d="M537.539 126.316H1059V108.987L1058.55 108.697C1058.15 108.417 1057.78 107.568 1057.36 107.098L1054.98 106.349L1052.69 105.629L1047.44 103.98C1046.05 103.435 1044.61 103 1043.15 102.681C1042.98 102.679 1042.81 102.642 1042.66 102.573C1042.5 102.505 1042.36 102.405 1042.25 102.281C1042.17 102.151 1042.15 102.001 1042.01 101.911C1041.91 101.866 1041.8 101.845 1041.69 101.851L1040.4 101.751C1040.3 101.971 1040.19 102.181 1040.09 102.391C1039.53 102.365 1038.96 102.422 1038.42 102.561C1038.01 102.687 1037.59 102.787 1037.17 102.861C1036.58 102.931 1035.96 102.811 1035.36 102.861C1034.91 102.958 1034.46 103.085 1034.03 103.241C1032.84 103.421 1031.64 103.505 1030.44 103.49C1029.44 103.6 1028.44 103.92 1027.44 104.05C1026.94 104.09 1026.44 104.09 1025.94 104.05C1025.41 104.1 1024.88 104.025 1024.39 103.83C1024.3 103.788 1024.22 103.728 1024.16 103.654C1024.09 103.58 1024.05 103.494 1024.02 103.4C1024.02 103.4 1024.02 103.4 1024.02 103.34H1024C1023.77 103.34 1023.52 103.34 1023.27 103.34C1023.22 103.347 1023.16 103.347 1023.11 103.34C1023.09 103.319 1023.07 103.292 1023.06 103.263C1023.04 103.234 1023.04 103.202 1023.04 103.171C1023.01 102.995 1023.01 102.816 1023.04 102.641C1022.93 102.611 1022.81 102.611 1022.7 102.641C1022.59 102.661 1022.48 102.661 1022.37 102.641C1022.14 102.571 1022.26 102.241 1022.26 102.101C1021.88 102.082 1021.5 102.082 1021.12 102.101C1021.2 101.801 1021.12 101.562 1020.74 101.542C1020.36 101.522 1019.87 101.542 1019.45 101.542C1019.47 101.59 1019.48 101.643 1019.48 101.696C1019.48 101.75 1019.47 101.803 1019.45 101.851C1019.33 102.211 1018.79 101.851 1018.58 102.101C1018.5 102.191 1018.58 102.641 1018.58 102.771C1018.59 102.855 1018.57 102.941 1018.52 103.011C1018.46 103.062 1018.4 103.102 1018.32 103.128C1018.25 103.153 1018.18 103.165 1018.1 103.161C1017.7 103.161 1017.58 103.161 1017.5 102.881C1017.5 102.881 1017.44 102.461 1017.5 102.451C1016.79 102.531 1016.5 102.541 1016.5 101.971C1016.52 101.897 1016.52 101.816 1016.5 101.741C1016.34 101.522 1015.18 101.661 1014.89 101.661C1014.6 101.661 1014.76 102.251 1014.73 102.471C1014.73 102.512 1014.72 102.553 1014.7 102.59C1014.68 102.626 1014.65 102.658 1014.62 102.681C1014.39 102.851 1014.1 102.631 1013.91 102.851C1013.72 103.071 1013.81 103.4 1013.74 103.59C1013.52 104.062 1013.22 104.497 1012.87 104.88C1012.48 105.329 1011.54 105.149 1010.87 105.149C1010.62 105.149 1009.7 104.09 1009.52 103.94C1009.34 103.79 1009.41 103.84 1009.39 103.78C1009.34 103.689 1009.32 103.584 1009.33 103.48C1009.25 102.9 1009.07 102.338 1008.8 101.821C1008.58 101.372 1007.18 101.462 1006.69 101.452C1006.65 101.462 1006.6 101.462 1006.56 101.452C1006.56 101.452 1006.56 101.402 1006.56 101.372C1006.56 101.342 1006.4 100.652 1006.19 100.562C1006.12 100.547 1006.05 100.547 1005.99 100.562C1005.1 100.562 1004.21 100.562 1003.34 100.562C1003.39 101.409 1003.31 102.259 1003.1 103.081C1003.1 103.35 1002.78 103.72 1002.65 103.97C1002.65 103.97 1002.65 104.04 1002.57 104.05C1002.53 104.064 1002.49 104.064 1002.46 104.05C1000.67 103.4 998.959 102.481 997.229 101.721L993.379 100.013C992.371 99.4207 991.236 99.0781 990.069 99.0131C988.919 99.0131 987.779 99.0931 986.629 99.213C985.643 99.4214 984.627 99.4553 983.629 99.313C982.939 99.1631 982.279 98.9332 981.629 98.7433C978.77 98.1441 975.835 97.989 972.929 98.2836C972.779 98.6234 972.789 99.0731 972.289 99.283C971.964 99.3756 971.626 99.4095 971.289 99.3829H970.449C969.045 99.2679 967.633 99.2679 966.229 99.3829C964.769 99.5928 963.339 99.8126 961.889 100.053C960.439 100.292 958.889 100.632 957.309 100.852H957.179C957.158 100.845 957.139 100.834 957.123 100.82C957.106 100.806 957.093 100.788 957.084 100.769C957.074 100.749 957.069 100.728 957.068 100.706C957.068 100.684 957.071 100.662 957.079 100.642C957.079 100.422 957.079 100.202 957.079 99.9925C957.079 99.9436 957.067 99.8954 957.044 99.852C957.022 99.8086 956.989 99.7711 956.949 99.7427C956.861 99.7169 956.767 99.7169 956.679 99.7427C955.269 99.7427 953.849 99.6927 952.449 99.6927C952.249 99.6777 952.049 99.6777 951.849 99.6927C951.628 99.7466 951.414 99.8237 951.209 99.9226L946.519 102.021L944.209 103.021C943.524 103.417 942.804 103.752 942.059 104.02C941.895 104.106 941.714 104.157 941.529 104.17C941.355 104.171 941.182 104.141 941.019 104.08C939.409 103.58 937.829 103.081 936.269 102.551C934.771 102.045 933.2 101.788 931.619 101.791H921.409C920.307 101.721 919.201 101.721 918.099 101.791C918.199 101.562 917.999 101.312 917.779 101.132C917.02 100.387 916.042 99.904 914.989 99.7527C913.865 99.7865 912.756 100.027 911.719 100.462L909.389 101.282C908.845 101.486 908.287 101.649 907.719 101.771C906.545 101.938 905.347 101.804 904.239 101.382C903.719 101.222 903.239 101.042 902.699 100.862C902.158 100.601 901.587 100.406 900.999 100.282C900.877 100.236 900.749 100.209 900.619 100.202C900.53 100.211 900.443 100.231 900.359 100.262C899.539 100.522 898.679 100.742 897.889 101.032C897.38 101.261 896.855 101.454 896.319 101.612C895.722 101.72 895.116 101.774 894.509 101.771C893.324 101.779 892.144 101.628 890.999 101.322C889.986 100.992 888.954 100.722 887.909 100.512C887.245 100.437 886.577 100.411 885.909 100.432H877.569C876.35 100.437 875.133 100.537 873.929 100.732C871.829 101.042 869.739 101.372 867.649 101.671C865.559 101.971 863.759 102.341 861.809 102.501C859.259 102.701 856.659 102.501 854.119 102.501L849.579 102.431H847.469C846.409 102.431 845.329 102.271 844.529 102.891C844.128 103.316 843.645 103.656 843.109 103.89C842.269 104.021 841.416 104.051 840.569 103.98C840.13 104.001 839.691 103.971 839.259 103.89C838.009 103.61 837.329 102.541 836.149 102.111C835.491 101.874 834.777 101.839 834.099 102.011C833.469 102.171 833.219 102.641 832.659 102.871C832.081 103.053 831.471 103.111 830.869 103.041C830.369 103.041 828.559 103.3 828.319 102.921C828.299 102.852 828.299 102.779 828.319 102.711C828.319 102.441 828.319 102.181 828.319 101.921C828.319 101.921 828.319 101.851 828.319 101.831C828.284 101.817 828.244 101.817 828.209 101.831C827.667 101.727 827.111 101.727 826.569 101.831C826.179 101.931 825.919 102.301 825.679 102.541C824.419 103.84 822.259 104.06 820.429 104.65C818.599 105.239 816.839 106.219 814.819 106.369H814.759L805.389 107.058L792.109 108.058C791.431 108.154 790.74 108.064 790.109 107.798C789.139 107.202 788.028 106.874 786.889 106.848C785.914 106.923 784.955 107.135 784.039 107.478C783.134 107.818 782.209 108.102 781.269 108.327C779.864 108.618 778.411 108.587 777.019 108.237C776.789 108.177 776.559 108.108 776.329 108.058C775.938 108.004 775.544 107.981 775.149 107.988C774.951 107.978 774.752 107.998 774.559 108.048C774.441 108.101 774.327 108.165 774.219 108.237C773.397 108.793 772.627 109.422 771.919 110.116C771.834 110.206 771.736 110.283 771.629 110.346C770.5 110.474 769.365 110.527 768.229 110.506V109.457H765.599V108.717L763.599 108.227L762.719 108.527L761.839 108.807V109.167H759.509C759.299 109.167 759.509 109.627 759.509 109.627H757.929V110.376H753.179V109.547H752.409V108.887H751.629V109.587H750.779L749.989 110.756H747.839C747.699 110.756 747.839 110.396 747.839 110.396H744.629C741.469 109.507 738.279 108.257 734.919 107.938C731.072 107.632 727.202 108.014 723.489 109.067C719.773 109.956 716.142 111.17 712.639 112.695C711.732 113.19 710.773 113.582 709.779 113.864C706.469 114.624 703.369 112.865 700.319 112.205C696.645 111.593 692.924 111.295 689.199 111.316C683.357 110.988 677.498 111.132 671.679 111.745C670.009 111.965 668.029 112.635 666.349 112.615C664.669 112.595 663.139 111.785 661.719 111.375C660.312 111.02 658.859 110.878 657.409 110.956H650.699L650.529 109.027H652.989L634.579 98.1737L618.999 109.916H620.589V113.634H618.329C617.833 113.224 617.262 112.912 616.649 112.715C616.436 112.695 616.222 112.695 616.009 112.715C615.579 112.715 615.129 112.775 614.709 112.835C614.327 112.853 613.956 112.966 613.629 113.164C613.399 113.384 613.629 113.624 613.629 113.884C613.631 114.038 613.591 114.19 613.513 114.324C613.436 114.458 613.324 114.568 613.189 114.643C612.892 114.906 612.554 115.119 612.189 115.273C612.113 115.324 612.028 115.362 611.939 115.383C611.822 115.387 611.705 115.363 611.599 115.313C610.742 114.975 609.85 114.734 608.939 114.594C608.167 114.534 607.391 114.534 606.619 114.594C606.404 114.589 606.189 114.609 605.979 114.653C605.494 114.837 605.02 115.047 604.559 115.283C604.038 115.382 603.499 115.34 602.999 115.163C601.186 114.624 599.266 114.555 597.419 114.963C596.654 115.258 595.848 115.433 595.029 115.483C594.238 115.486 593.461 115.275 592.779 114.873C592.535 114.68 592.257 114.534 591.959 114.444C591.808 114.412 591.654 114.395 591.499 114.394C590.531 114.328 589.558 114.398 588.609 114.604C587.771 114.893 586.884 115.015 585.999 114.963C585.624 114.896 585.253 114.806 584.889 114.693C583.933 114.493 582.954 114.423 581.979 114.484C581.273 114.434 580.565 114.434 579.859 114.484L577.769 114.883L576.019 115.673C575.729 115.844 575.42 115.982 575.099 116.083C574.859 116.083 574.749 115.753 574.649 115.583C574.626 115.535 574.587 115.496 574.539 115.473C574.489 115.464 574.439 115.464 574.389 115.473C573.813 115.382 573.226 115.382 572.649 115.473C572.58 115.527 572.528 115.6 572.499 115.683L571.839 116.942C571.821 116.987 571.79 117.026 571.749 117.052C571.7 117.08 571.646 117.097 571.589 117.102C571.319 117.102 570.779 117.362 570.529 117.212C570.5 117.2 570.473 117.182 570.451 117.16C570.429 117.138 570.411 117.111 570.399 117.082C570.094 116.697 569.854 116.265 569.689 115.803C569.569 115.363 569.689 114.923 569.229 114.574C568.856 114.294 568.458 114.049 568.039 113.844C567.507 113.534 567.013 113.161 566.569 112.735C566.344 112.461 566.046 112.256 565.709 112.145C565.474 112.11 565.234 112.11 564.999 112.145C563.609 112.205 562.169 112.255 560.779 112.445C559.937 112.543 559.106 112.724 558.299 112.985C557.895 113.101 557.515 113.291 557.179 113.544C556.82 113.88 556.548 114.298 556.389 114.763C556.044 115.359 555.81 116.013 555.699 116.692L554.789 116.492C553.369 115.743 553.009 117.002 552.629 117.322C552.429 117.502 551.539 118.321 551.149 118.111C547.149 116.193 545.289 115.563 545.039 115.373L543.039 116.692H539.699L537.539 126.316Z" fill="#040707"/>
<path d="M741.679 117.392H556.449V115.553L559.249 115.223L560.719 114.294H562.249L564.679 113.374L566.679 112.974L568.469 112.575L569.469 112.944L573.049 112.575L574.049 110.886H577.179L579.729 110.076L583.729 110.386L585.069 109.237L589.339 108.777C589.339 108.777 590.679 108.967 590.679 108.777C590.82 108.439 591.009 108.123 591.239 107.838H594.239L595.119 107.248L596.969 106.249L599.529 106.648L600.359 106.249H602.589C603.24 106.428 603.92 106.475 604.589 106.388L606.069 106.538L607.469 105.969L608.619 106.139L609.709 106.338L611.489 105.749H612.899C612.936 105.754 612.973 105.754 613.009 105.749C614.799 105.409 616.519 104.929 618.239 104.53L622.099 103.65C623.174 103.332 624.288 103.16 625.409 103.14C626.559 103.14 627.699 103.14 628.829 103.24C629.825 103.352 630.83 103.369 631.829 103.29C632.529 103.22 633.189 103.1 633.829 103.001C636.715 102.69 639.621 102.609 642.519 102.761C642.689 102.941 642.679 103.17 643.179 103.26C643.511 103.299 643.847 103.299 644.179 103.26H644.999C646.389 103.26 647.679 103.74 648.999 103.84C650.319 103.94 652.069 103.5 653.509 103.62C654.949 103.74 653.809 102.931 655.359 103.041C655.359 103.041 656.239 103.49 656.279 103.48C656.622 103.396 656.956 103.282 657.279 103.14C657.939 102.961 658.279 103.28 658.279 103.14C658.279 103.001 658.439 103.31 658.529 103.28C658.619 103.25 658.529 103.42 658.659 103.42C660.069 103.42 661.479 103.42 662.889 103.42C663.086 103.41 663.283 103.41 663.479 103.42C663.698 103.441 663.916 103.477 664.129 103.53L668.809 104.62L670.249 105.849L672.969 106.468L675.519 106.079L680.199 106.688V107.438C680.199 107.438 681.479 107.708 681.739 107.748C681.999 107.788 688.459 107.748 688.459 107.748L689.569 108.547L692.459 108.767L695.099 109.946L697.479 109.606L700.479 110.396H703.119L705.499 110.836L706.179 111.835L709.249 111.605L713.079 112.844L713.589 113.414L716.219 113.114L719.459 113.904L720.049 114.523H724.479L724.909 115.573L728.909 116.062H731.539V115.493L733.669 115.663L734.859 116.282H737.589L741.679 117.392Z" fill="#040707"/>
<path d="M290.388 103.99H290.218C290.108 103.99 290.068 103.99 290.058 103.84C290.058 103.3 289.968 102.751 289.928 102.211C289.828 101.112 289.738 100.012 289.648 98.9129C289.648 98.6431 289.648 98.3833 289.578 98.1134C289.578 98.0135 289.578 97.9535 289.698 97.9635C289.818 97.9735 289.788 97.9635 289.788 97.9135C289.788 97.8636 289.728 97.8436 289.678 97.8436H289.368C289.298 97.8436 289.268 97.8436 289.268 97.7437C289.268 97.3939 289.268 97.0441 289.268 96.6943C289.268 96.6143 289.318 96.5744 289.358 96.5244C289.379 96.5057 289.396 96.4826 289.408 96.4567C289.42 96.4309 289.426 96.4029 289.426 96.3745C289.426 96.3462 289.42 96.3181 289.408 96.2923C289.396 96.2664 289.379 96.2433 289.358 96.2246C289.323 96.1916 289.276 96.1732 289.228 96.1732C289.18 96.1732 289.133 96.1916 289.098 96.2246C289.077 96.2433 289.06 96.2664 289.048 96.2923C289.036 96.3181 289.03 96.3462 289.03 96.3745C289.03 96.4029 289.036 96.4309 289.048 96.4567C289.06 96.4826 289.077 96.5057 289.098 96.5244C289.155 96.5798 289.187 96.6552 289.188 96.7343C289.188 97.0541 289.188 97.3639 289.188 97.6837C289.188 97.8236 289.128 97.8536 289.018 97.8436H288.728C288.678 97.8436 288.648 97.8436 288.648 97.9135C288.648 97.9835 288.648 97.9635 288.708 97.9635H288.888C288.908 98.1027 288.908 98.2441 288.888 98.3833C288.788 99.7524 288.698 101.132 288.598 102.511C288.598 102.95 288.528 103.38 288.508 103.82C288.508 103.95 288.448 103.99 288.338 103.98H287.728C287.558 103.98 287.548 103.98 287.548 104.17C287.548 104.36 287.548 104.469 287.548 104.629C287.548 104.789 287.548 104.779 287.398 104.779H286.128C286.058 104.779 286.028 104.779 286.028 104.879V109.366C286.028 109.436 286.028 109.466 285.918 109.466H282.608C282.518 109.466 282.468 109.466 282.468 109.337C282.473 109.263 282.473 109.19 282.468 109.117V85.931C282.468 85.5312 282.538 85.6211 282.158 85.5112L280.708 85.1115C280.657 85.104 280.61 85.0769 280.579 85.0359C280.547 84.9949 280.532 84.9431 280.538 84.8916C280.538 84.3819 280.538 83.8922 280.538 83.3825C280.538 83.1627 280.538 83.1627 280.338 83.0827L277.528 82.0833C277.278 81.9834 277.308 82.0234 277.308 81.7535C277.308 80.8241 277.308 79.8847 277.308 78.9552C277.314 78.8887 277.3 78.8219 277.268 78.7632C277.236 78.7046 277.187 78.6567 277.128 78.6255C276.068 78.0158 275.028 77.3862 273.978 76.7666C273.924 76.7278 273.861 76.7022 273.795 76.6918C273.729 76.6814 273.662 76.6865 273.598 76.7066L272.228 77.0664C272.048 77.1164 272.048 77.1164 272.048 77.3063V80.3044C272.048 80.5842 272.048 80.5543 271.818 80.6142L270.818 80.8641C270.638 80.914 270.638 80.914 270.638 81.1139V82.3332C270.638 82.543 270.638 82.543 270.418 82.593L269.608 82.7729C269.428 82.8229 269.428 82.8229 269.428 83.0227V84.4119C269.428 84.6617 269.428 84.6118 269.218 84.6717C268.945 84.7492 268.668 84.8126 268.388 84.8616C268.278 84.8616 268.228 84.9216 268.238 85.0315C268.243 85.088 268.243 85.1449 268.238 85.2014V94.8554C268.238 94.9354 268.238 94.9654 268.118 94.9654C267.998 94.9654 268.028 94.9054 268.028 94.8554V93.976C268.028 93.876 268.028 93.8361 267.898 93.8461H261.198C260.898 93.8461 260.918 93.8461 260.918 94.1159V95.1153C260.918 95.2952 260.918 95.3052 260.738 95.3052H259.688C259.565 95.2941 259.441 95.3258 259.338 95.3951L258.198 96.0347C258.148 96.0347 258.108 96.0847 258.058 96.0347C258.008 95.9847 257.948 96.1246 257.888 96.1646C257.662 96.3063 257.428 96.4364 257.188 96.5544C257.103 96.5892 257.032 96.6514 256.987 96.7311C256.942 96.8108 256.925 96.9034 256.938 96.9941C256.938 100.192 256.938 103.39 256.938 106.588C256.933 106.651 256.933 106.715 256.938 106.778C256.944 106.804 256.944 106.832 256.938 106.858V114.853H293.568V103.99H290.388Z" fill="#4A4C4C"/>
<path d="M1440 114.014H0V136H1440V114.014Z" fill="#040707"/>
<path d="M201.54 114.004C201.63 114.014 201.721 114.014 201.81 114.004H377.48V110.886H372.68C372.622 110.906 372.559 110.906 372.5 110.886C372.465 110.852 372.438 110.811 372.42 110.766C372.368 110.515 372.281 110.273 372.16 110.046C372.07 109.816 371.99 109.586 371.91 109.367L371.32 107.808C371.304 107.734 371.259 107.67 371.195 107.629C371.132 107.587 371.055 107.573 370.98 107.588H369.69C369.257 107.604 368.823 107.563 368.4 107.468C368.18 107.418 367.972 107.323 367.79 107.188C367.63 107.058 367.54 106.708 367.38 106.648C367.296 106.623 367.205 106.623 367.12 106.648C366.681 106.783 366.258 106.968 365.86 107.198C365.37 107.418 364.64 107.538 364.26 107.068C364.1 106.868 363.6 106.398 363.52 106.289C363.197 106.006 362.829 105.779 362.43 105.619C362.07 105.509 362 105.619 361.43 105.619C360.86 105.619 360.18 105.569 360.07 105.619C359.48 105.619 358.92 105.159 358.36 104.999C357.7 104.809 356.994 104.851 356.36 105.119L355.98 105.289C355.058 105.574 354.08 105.632 353.13 105.459C352.32 105.339 351.57 104.969 350.77 104.789C349.929 104.603 349.072 104.496 348.21 104.47C347.433 104.427 346.655 104.522 345.91 104.749C345.158 104.989 344.369 105.09 343.58 105.049C342.99 105.049 342.41 104.989 341.82 105.049C341.27 105.081 340.724 105.168 340.19 105.309H340.07C340.031 105.272 340.007 105.223 340 105.169C339.634 104.816 339.193 104.55 338.71 104.39C338.212 104.154 337.661 104.05 337.11 104.09C336.67 104.16 336.24 104.24 335.8 104.33C335.472 104.431 335.138 104.511 334.8 104.57C334.407 104.59 334.013 104.59 333.62 104.57C332.84 104.532 332.058 104.586 331.29 104.729C330.83 104.839 330.4 105.019 329.95 105.139C329.161 105.321 328.359 105.438 327.55 105.489C327.3 105.489 327.05 105.489 326.81 105.559C326.553 105.631 326.287 105.668 326.02 105.669C325.879 105.64 325.742 105.597 325.61 105.539C325.014 105.302 324.382 105.167 323.74 105.139C322.483 105.201 321.235 105.378 320.01 105.669C319.653 105.753 319.314 105.902 319.01 106.109C318.66 106.319 318.31 106.518 317.95 106.698C317.461 106.915 316.983 107.159 316.52 107.428C316.03 107.748 315.71 108.297 315.18 108.537C314.49 108.788 313.777 108.969 313.05 109.077L310.78 109.606C310.516 109.66 310.244 109.66 309.98 109.606C309.814 109.557 309.637 109.557 309.47 109.606C309.41 109.606 309.35 109.696 309.29 109.706C309.23 109.716 309.1 109.646 309.02 109.616C308.873 109.567 308.717 109.549 308.562 109.563C308.407 109.576 308.257 109.622 308.12 109.696C308.12 109.596 307.96 109.577 307.87 109.616C307.78 109.656 307.66 109.736 307.57 109.676C307.532 109.628 307.502 109.574 307.48 109.517C307.414 109.431 307.319 109.372 307.214 109.348C307.108 109.325 306.997 109.338 306.9 109.387C306.68 109.467 306.37 109.756 306.12 109.666C305.87 109.576 305.93 109.497 305.84 109.417C305.78 109.36 305.706 109.318 305.626 109.296C305.546 109.273 305.462 109.27 305.38 109.287C305.21 109.287 305.06 109.457 304.87 109.467C304.68 109.477 304.55 109.367 304.38 109.367C304.215 109.397 304.051 109.437 303.89 109.487C303.65 109.487 303.4 109.347 303.19 109.487L303.09 109.547C302.94 109.606 302.82 109.497 302.69 109.447C302.517 109.385 302.332 109.368 302.15 109.397C301.588 109.519 301.036 109.686 300.5 109.896C299.722 110.111 298.899 110.111 298.12 109.896L297.86 109.846C297.628 109.863 297.406 109.946 297.22 110.086V110.396C296.925 110.404 296.635 110.476 296.37 110.606C296.21 110.676 296.07 110.776 295.91 110.836C295.751 110.882 295.585 110.899 295.42 110.886C295.227 110.91 295.036 110.953 294.85 111.016L293.59 111.345C293.548 111.355 293.503 111.355 293.46 111.345C293.31 111.345 293.22 111.146 293.12 111.056C292.974 110.932 292.798 110.85 292.61 110.816C292.38 110.766 292.13 110.756 291.9 110.686C291.67 110.616 291.41 110.446 291.16 110.336C291.034 110.281 290.898 110.253 290.76 110.253C290.623 110.253 290.487 110.281 290.36 110.336C290.305 110.37 290.244 110.393 290.18 110.406C290.094 110.35 290.03 110.265 290 110.166C289.635 109.872 289.168 109.732 288.7 109.776C288.628 109.791 288.553 109.791 288.48 109.776C288.415 109.749 288.354 109.712 288.3 109.666L287.37 108.917C287.319 108.877 287.262 108.847 287.2 108.827C287.144 108.818 287.087 108.818 287.03 108.827C286.724 108.912 286.408 108.952 286.09 108.947C285.781 108.923 285.472 109 285.21 109.167L284.9 108.757C284.878 108.712 284.843 108.674 284.8 108.647C284.735 108.632 284.666 108.632 284.6 108.647H284.08C284.035 108.632 283.986 108.632 283.94 108.647C283.89 108.647 283.86 108.717 283.82 108.747C283.701 108.847 283.562 108.922 283.412 108.966C283.263 109.011 283.105 109.025 282.95 109.007H282.03C281.963 108.998 281.895 109.016 281.84 109.057C281.787 109.118 281.746 109.189 281.72 109.267C281.61 109.497 281.41 109.477 281.21 109.576C280.985 109.684 280.802 109.863 280.69 110.086C280.677 110.139 280.65 110.188 280.611 110.227C280.572 110.266 280.524 110.293 280.47 110.306L280 110.516C279.962 110.531 279.928 110.555 279.9 110.586C279.896 110.616 279.896 110.646 279.9 110.676C279.9 110.746 279.9 110.956 279.82 110.996C279.74 111.036 279.53 110.996 279.42 110.996C279.27 111.041 279.11 111.041 278.96 110.996C278.896 110.944 278.835 110.887 278.78 110.826L278.51 110.486C278.46 110.423 278.399 110.368 278.33 110.326C278.264 110.316 278.197 110.316 278.13 110.326C277.775 110.361 277.416 110.361 277.06 110.326C276.81 110.266 276.67 109.866 276.56 109.646C276.543 109.601 276.516 109.56 276.48 109.527C276.435 109.496 276.384 109.476 276.33 109.467L274.87 109.127C274.761 109.251 274.644 109.368 274.52 109.477C274.332 109.54 274.138 109.583 273.94 109.606L272.62 109.886C272.594 110.068 272.522 110.24 272.41 110.386L272.23 110.536C272.003 110.652 271.791 110.796 271.6 110.966C271.451 111.13 271.32 111.311 271.21 111.505C270.922 111.364 270.648 111.197 270.39 111.006C270.123 110.822 269.804 110.731 269.48 110.746C269.142 110.792 268.798 110.75 268.48 110.626C268.28 110.49 268.069 110.37 267.85 110.266C267.738 110.251 267.623 110.251 267.51 110.266H266.18C265.83 110.266 265.32 110.386 265.12 110.026C265.03 109.866 264.99 109.666 264.9 109.507C264.721 109.259 264.452 109.09 264.15 109.037C263.85 108.977 263.54 108.967 263.24 108.907C263.083 108.877 262.934 108.815 262.8 108.727C262.638 108.598 262.5 108.443 262.39 108.267L261.85 107.468C261.821 107.41 261.776 107.362 261.72 107.328C261.655 107.307 261.585 107.307 261.52 107.328C261.218 107.358 260.913 107.358 260.61 107.328C260.367 107.271 260.138 107.162 259.94 107.008C259.56 106.681 259.136 106.409 258.68 106.199C258.317 106.094 257.939 106.043 257.56 106.049C257.494 106.062 257.426 106.062 257.36 106.049C257.293 106.017 257.232 105.973 257.18 105.919L255.99 104.919C255.952 104.875 255.904 104.841 255.85 104.819H255.69L254.39 104.909C253.657 104.906 252.929 104.792 252.23 104.57C251.578 104.403 250.902 104.343 250.23 104.39C250.096 104.425 249.955 104.425 249.82 104.39C249.736 104.348 249.659 104.294 249.59 104.23L248.93 103.64C248.789 103.5 248.627 103.382 248.45 103.29C248.182 103.191 247.896 103.15 247.61 103.17H244.74C244.626 103.176 244.514 103.205 244.411 103.255C244.308 103.305 244.216 103.375 244.14 103.46C244.01 103.57 243.83 103.9 243.64 103.89C243.158 103.881 242.679 103.8 242.22 103.65C241.78 103.46 241.4 103.18 240.98 102.971C240.905 102.931 240.824 102.903 240.74 102.891C240.651 102.88 240.56 102.88 240.47 102.891L238.63 103.5C238.63 103.5 238.55 103.5 238.53 103.56C238.516 103.602 238.516 103.648 238.53 103.69C238.55 103.916 238.55 104.144 238.53 104.37C238.535 104.405 238.531 104.44 238.519 104.473C238.506 104.506 238.486 104.536 238.46 104.56C238.406 104.58 238.345 104.58 238.29 104.56C237.89 104.56 237.48 104.56 237.08 104.56L236.08 105.179C235.874 105.318 235.637 105.404 235.39 105.429L234.72 105.499C234.52 105.499 234.32 105.499 234.13 105.549C233.971 105.574 233.827 105.66 233.73 105.789C233.64 105.949 233.63 106.159 233.47 106.249C233.413 106.274 233.353 106.291 233.29 106.299L232.21 106.418L231.75 106.488C231.496 106.546 231.251 106.637 231.02 106.758C230.827 106.875 230.623 106.972 230.41 107.048C230.185 107.083 229.956 107.083 229.73 107.048L228.14 106.948H228.06C228.027 106.92 228.006 106.881 228 106.838C227.9 106.488 227.82 106.129 227.7 105.789C227.646 105.661 227.565 105.547 227.463 105.452C227.362 105.357 227.242 105.285 227.11 105.239C226.881 105.118 226.661 104.981 226.45 104.829C226.356 104.742 226.243 104.677 226.12 104.64C226.038 104.625 225.953 104.625 225.87 104.64C225.5 104.64 225.13 104.729 224.76 104.759C224.415 104.715 224.065 104.782 223.76 104.949C223.638 105.07 223.54 105.212 223.47 105.369L223.24 105.829C223.225 105.873 223.198 105.911 223.16 105.939C223.105 105.959 223.045 105.959 222.99 105.939H222.05C221.871 105.924 221.69 105.924 221.51 105.939L221.14 106.049C220.731 106.222 220.31 106.365 219.88 106.478C219.428 106.551 218.968 106.575 218.51 106.548C218.444 106.559 218.377 106.559 218.31 106.548C218.235 106.524 218.167 106.483 218.11 106.428L216.88 105.509C216.811 105.454 216.733 105.41 216.65 105.379H214.71C214.664 105.369 214.616 105.369 214.57 105.379C214.57 105.379 214.5 105.429 214.47 105.459C214.295 105.599 214.149 105.773 214.043 105.97C213.936 106.168 213.871 106.385 213.85 106.608C213.547 106.597 213.249 106.684 213 106.858C212.74 107.008 212.51 107.198 212.24 107.338C212.068 107.398 211.909 107.489 211.77 107.608C211.61 107.768 211.53 108.097 211.25 108.057H211.09C210.987 108.083 210.895 108.143 210.83 108.227C210.688 108.385 210.523 108.519 210.34 108.627C209.738 108.887 209.192 109.26 208.73 109.726C208.662 109.83 208.574 109.918 208.47 109.986C208.321 110.036 208.16 110.036 208.01 109.986C207.947 109.976 207.883 109.976 207.82 109.986C207.774 110.007 207.73 110.034 207.69 110.066C207.375 110.396 206.998 110.661 206.58 110.846C206.31 110.916 206.02 110.846 205.76 110.896C205.582 110.963 205.419 111.065 205.28 111.195C205.021 111.405 204.739 111.586 204.44 111.735C204.236 111.822 204.035 111.918 203.84 112.025C203.749 112.135 203.689 112.266 203.667 112.407C203.644 112.548 203.659 112.692 203.71 112.824H203.42C203.218 112.795 203.013 112.795 202.81 112.824C202.5 112.894 202.38 113.134 202.16 113.344C202 113.384 201.51 114.004 201.54 114.004Z" fill="#040707"/>
<path d="M374.301 114.373H452.301V113.803H450.091C450.091 113.803 450.001 113.703 449.971 113.663L449.861 113.544C449.771 113.444 449.681 113.354 449.601 113.254H449.551H448.871C448.681 113.269 448.49 113.269 448.301 113.254C448.197 113.237 448.096 113.207 448.001 113.164C447.931 113.164 447.891 113.074 447.821 113.064H447.701C447.501 113.064 447.331 113.134 447.141 113.164C446.912 113.229 446.67 113.229 446.441 113.164C446.371 113.164 446.141 113.044 446.111 113.014C445.951 112.96 445.787 112.92 445.621 112.894C445.471 112.894 445.431 112.894 445.191 112.894H444.591C444.335 112.878 444.081 112.841 443.831 112.784C443.539 112.744 443.243 112.744 442.951 112.784H442.781C442.362 112.834 441.939 112.834 441.521 112.784C441.161 112.784 440.831 112.694 440.471 112.664C440.111 112.634 439.721 112.614 439.341 112.604C439.007 112.601 438.673 112.618 438.341 112.654C438.009 112.698 437.675 112.718 437.341 112.714H436.561C436.311 112.714 436.071 112.714 435.831 112.714H435.731C435.545 112.638 435.35 112.588 435.151 112.564C434.917 112.522 434.679 112.505 434.441 112.514H433.871C433.721 112.514 433.591 112.514 433.441 112.514H432.911C432.571 112.514 432.221 112.514 431.911 112.514L431.311 112.594C430.971 112.594 430.611 112.594 430.251 112.654H429.931C429.811 112.654 429.701 112.654 429.571 112.654H429.391C429.116 112.61 428.839 112.586 428.561 112.584C428.001 112.584 427.461 112.644 426.911 112.684C426.768 112.694 426.627 112.721 426.491 112.764L426.011 112.864L425.381 113.004C425.171 113.064 425.021 113.164 424.791 113.214C424.561 113.264 424.151 113.284 423.851 113.304L422.851 113.404C422.731 113.414 422.611 113.414 422.491 113.404C422.418 113.394 422.344 113.394 422.271 113.404H422.191H422.071C421.939 113.379 421.803 113.379 421.671 113.404C421.671 113.404 421.601 113.404 421.561 113.404C421.518 113.413 421.474 113.413 421.431 113.404C421.346 113.377 421.255 113.377 421.171 113.404C421.055 113.419 420.937 113.419 420.821 113.404H420.701C420.635 113.388 420.566 113.388 420.501 113.404C420.424 113.409 420.347 113.409 420.271 113.404C420.198 113.408 420.124 113.408 420.051 113.404H419.831C419.731 113.394 419.631 113.394 419.531 113.404H419.481C419.421 113.414 419.36 113.414 419.301 113.404C419.224 113.393 419.147 113.393 419.071 113.404C418.811 113.404 418.581 113.464 418.331 113.494C417.982 113.529 417.63 113.529 417.281 113.494H417.001C416.908 113.478 416.813 113.478 416.721 113.494V113.554C416.598 113.538 416.474 113.538 416.351 113.554H416.141H416.001H415.741L415.181 113.614H415.131C415.075 113.601 415.021 113.581 414.971 113.554H414.751C414.651 113.554 414.541 113.554 414.441 113.554C414.33 113.539 414.22 113.519 414.111 113.494C413.992 113.474 413.87 113.474 413.751 113.494H413.671C413.628 113.503 413.584 113.503 413.541 113.494C413.357 113.433 413.164 113.409 412.971 113.424H412.871H412.791L412.381 113.284H412.301H412.231H411.811C411.682 113.263 411.55 113.263 411.421 113.284L411.291 113.204H411.241H410.861H410.801C410.678 113.243 410.549 113.26 410.421 113.254H409.931C409.914 113.25 409.897 113.25 409.881 113.254C409.808 113.287 409.73 113.307 409.651 113.314C409.568 113.326 409.49 113.357 409.421 113.404H409.361H409.151C409.151 113.404 409.151 113.454 409.151 113.464H408.971C408.905 113.474 408.837 113.474 408.771 113.464C408.744 113.469 408.717 113.469 408.691 113.464L408.571 113.404H408.491H407.931C407.842 113.386 407.761 113.341 407.701 113.274H407.631L406.981 113.214C406.933 113.239 406.883 113.259 406.831 113.274C406.744 113.279 406.657 113.279 406.571 113.274H405.991C405.97 113.315 405.935 113.348 405.891 113.364H405.811L405.541 113.444C405.48 113.469 405.422 113.502 405.371 113.544C405.241 113.544 405.131 113.484 405.011 113.454C404.881 113.416 404.746 113.399 404.611 113.404C404.468 113.419 404.324 113.419 404.181 113.404C404.089 113.376 403.995 113.352 403.901 113.334H403.151C402.999 113.366 402.842 113.366 402.691 113.334L402.591 113.234C402.489 113.182 402.376 113.154 402.261 113.154H401.861H401.661C401.596 113.134 401.535 113.104 401.481 113.064L401.001 113.164H400.941H400.451C400.349 113.159 400.249 113.142 400.151 113.114C399.969 113.046 399.781 112.993 399.591 112.954C399.428 112.944 399.264 112.944 399.101 112.954H399.001H398.921L398.391 112.764H398.331H397.681C397.346 112.771 397.012 112.751 396.681 112.704C396.388 112.684 396.094 112.684 395.801 112.704H395.621H395.521L395.221 112.594C395.153 112.567 395.083 112.547 395.011 112.534C394.888 112.524 394.764 112.524 394.641 112.534H393.371C393.278 112.533 393.187 112.55 393.101 112.584C393.033 112.624 392.958 112.651 392.881 112.664C392.671 112.664 392.451 112.664 392.251 112.664L391.701 112.534H391.481L390.661 112.644C390.671 112.687 390.671 112.731 390.661 112.774H390.001L389.551 112.884C389.453 112.912 389.352 112.929 389.251 112.934H388.691C388.631 112.922 388.57 112.922 388.511 112.934C388.511 112.934 388.511 113.004 388.401 113.024H388.311H387.841H387.631L387.311 113.074L387.041 113.134H386.741H386.031C385.991 113.068 385.947 113.005 385.901 112.944C385.826 112.886 385.735 112.851 385.641 112.844C385.542 112.825 385.445 112.798 385.351 112.764C385.301 112.758 385.251 112.758 385.201 112.764H385.001H384.501C384.358 112.749 384.214 112.749 384.071 112.764C384.025 112.783 383.982 112.807 383.941 112.834L383.841 112.924H383.111H382.941L382.381 113.004C382.181 113.004 381.981 113.004 381.771 113.004H381.681H381.601L381.051 112.834H380.951H380.001H379.951C379.811 112.894 379.681 112.954 379.681 113.044C379.555 113.024 379.427 113.024 379.301 113.044L379.001 113.164H378.791C378.721 113.164 378.681 113.254 378.561 113.254H378.491H378.371L378.151 113.324C377.908 113.368 377.671 113.435 377.441 113.524C377.405 113.548 377.364 113.565 377.321 113.574H377.121C377.121 113.574 377.061 113.574 377.041 113.574H377.001C376.844 113.643 376.679 113.693 376.511 113.723H376.141C376.069 113.737 375.999 113.758 375.931 113.783C375.81 113.824 375.686 113.857 375.561 113.883H375.301C375.201 113.883 375.201 113.993 375.241 114.033H374.841C374.738 114.047 374.64 114.081 374.551 114.133L374.301 114.373Z" fill="#040707"/>
<path d="M449.711 114.374H527.711V113.804H525.501C525.501 113.804 525.411 113.704 525.381 113.664L525.271 113.544L525.011 113.254H524.331C524.138 113.269 523.944 113.269 523.751 113.254C523.662 113.249 523.575 113.232 523.491 113.204C523.421 113.204 523.371 113.114 523.301 113.104H523.191C522.991 113.104 522.821 113.174 522.631 113.204C522.399 113.27 522.153 113.27 521.921 113.204C521.851 113.204 521.631 113.084 521.591 113.054C521.435 113 521.274 112.96 521.111 112.934C520.951 112.934 520.921 112.934 520.681 112.934H520.001C519.748 112.919 519.497 112.882 519.251 112.824C518.956 112.784 518.656 112.784 518.361 112.824H518.201C517.779 112.875 517.353 112.875 516.931 112.824C516.571 112.824 516.241 112.735 515.931 112.705L514.791 112.645C514.457 112.642 514.123 112.659 513.791 112.695C513.459 112.738 513.125 112.758 512.791 112.755H512.011C511.761 112.755 511.531 112.755 511.291 112.755H511.181C510.998 112.68 510.807 112.63 510.611 112.605C510.377 112.563 510.139 112.546 509.901 112.555H509.321C509.171 112.555 509.041 112.555 508.891 112.555H508.371C508.021 112.555 507.671 112.555 507.371 112.555L506.781 112.635C506.431 112.635 506.071 112.635 505.721 112.695H505.391C505.271 112.695 505.161 112.695 505.041 112.695H504.861C504.586 112.651 504.309 112.628 504.031 112.625C503.471 112.625 502.931 112.685 502.381 112.725C502.235 112.735 502.091 112.762 501.951 112.805L501.481 112.904L500.851 113.044C500.631 113.104 500.491 113.204 500.251 113.254C499.939 113.3 499.626 113.33 499.311 113.344L498.311 113.444C498.194 113.454 498.077 113.454 497.961 113.444C497.885 113.434 497.807 113.434 497.731 113.444H497.651H497.531C497.399 113.419 497.263 113.419 497.131 113.444C497.131 113.444 497.061 113.444 497.021 113.444C496.978 113.454 496.934 113.454 496.891 113.444C496.806 113.417 496.716 113.417 496.631 113.444C496.518 113.46 496.404 113.46 496.291 113.444H496.161C496.095 113.428 496.027 113.428 495.961 113.444C495.888 113.449 495.814 113.449 495.741 113.444C495.668 113.449 495.594 113.449 495.521 113.444H495.301C495.198 113.434 495.094 113.434 494.991 113.444C494.931 113.455 494.87 113.455 494.811 113.444C494.731 113.434 494.651 113.434 494.571 113.444C494.321 113.444 494.081 113.504 493.841 113.534C493.488 113.569 493.133 113.569 492.781 113.534H492.671C492.575 113.518 492.477 113.518 492.381 113.534V113.594C492.258 113.579 492.134 113.579 492.011 113.594H491.801H491.591H491.341L490.781 113.654H490.721C490.668 113.642 490.618 113.622 490.571 113.594H490.351C490.244 113.599 490.138 113.599 490.031 113.594C489.92 113.58 489.81 113.56 489.701 113.534C489.585 113.513 489.467 113.513 489.351 113.534H489.001C488.958 113.545 488.914 113.545 488.871 113.534C488.684 113.473 488.487 113.45 488.291 113.464H488.191H488.121L487.701 113.324H487.631H487.551H487.141C487.012 113.303 486.88 113.303 486.751 113.324L486.611 113.244H486.561H486.181C486.055 113.284 485.923 113.301 485.791 113.294H485.301C485.229 113.328 485.151 113.349 485.071 113.354C484.988 113.366 484.91 113.397 484.841 113.444H484.791H484.581H484.531C484.531 113.444 484.531 113.494 484.531 113.504H484.351C484.281 113.514 484.211 113.514 484.141 113.504C484.141 113.504 484.091 113.504 484.061 113.504L483.941 113.444H483.861H483.301C483.215 113.427 483.138 113.381 483.081 113.314H483.021L482.371 113.254C482.32 113.279 482.266 113.299 482.211 113.314C482.128 113.32 482.044 113.32 481.961 113.314H481.371C481.352 113.354 481.32 113.385 481.281 113.404H481.201L480.921 113.484C480.86 113.509 480.803 113.543 480.751 113.584C480.626 113.561 480.502 113.531 480.381 113.494C480.251 113.456 480.116 113.439 479.981 113.444C479.838 113.46 479.694 113.46 479.551 113.444C479.459 113.415 479.366 113.392 479.271 113.374H478.531C478.376 113.406 478.216 113.406 478.061 113.374C478.061 113.374 478.061 113.304 477.961 113.274C477.859 113.222 477.746 113.195 477.631 113.194C477.501 113.194 477.361 113.194 477.231 113.194H477.031C476.967 113.172 476.907 113.142 476.851 113.104L476.611 112.964H476.561H476.061C475.963 112.96 475.865 112.943 475.771 112.914C475.588 112.849 475.401 112.796 475.211 112.755C475.044 112.744 474.877 112.744 474.711 112.755H474.621H474.541L474.021 112.565H473.951H473.311C472.977 112.573 472.642 112.552 472.311 112.505C472.018 112.485 471.724 112.485 471.431 112.505H471.251H471.141L470.851 112.395C470.783 112.369 470.713 112.349 470.641 112.335C470.514 112.325 470.387 112.325 470.261 112.335H468.991C468.902 112.334 468.813 112.351 468.731 112.385C468.662 112.423 468.588 112.45 468.511 112.465C468.301 112.476 468.091 112.476 467.881 112.465L467.331 112.335H467.101L466.281 112.445C466.285 112.488 466.285 112.531 466.281 112.575H465.661L465.221 112.685C465.12 112.712 465.016 112.729 464.911 112.735H464.351C464.295 112.721 464.237 112.721 464.181 112.735C464.181 112.735 464.131 112.805 464.061 112.824H463.981H463.501H463.301L462.971 112.874L462.711 112.934H462.401H461.701C461.661 112.869 461.618 112.805 461.571 112.745C461.496 112.687 461.405 112.652 461.311 112.645L461.021 112.565C460.971 112.558 460.921 112.558 460.871 112.565H460.761H460.271C460.128 112.548 459.984 112.548 459.841 112.565C459.794 112.581 459.751 112.605 459.711 112.635L459.611 112.725H458.881H458.711L458.161 112.805C457.961 112.805 457.751 112.805 457.551 112.805H457.461H457.371L456.831 112.635H456.731H455.801C455.661 112.695 455.521 112.755 455.521 112.844C455.398 112.824 455.273 112.824 455.151 112.844L454.811 112.924H454.601C454.531 112.924 454.491 113.014 454.371 113.014H454.301H454.191L453.971 113.084C453.728 113.128 453.491 113.195 453.261 113.284C453.224 113.307 453.183 113.324 453.141 113.334H452.941C452.911 113.329 452.881 113.329 452.851 113.334H452.801C452.64 113.402 452.472 113.452 452.301 113.484H451.941C451.869 113.497 451.799 113.517 451.731 113.544L451.351 113.644H451.091C450.991 113.644 451.001 113.754 451.031 113.794H450.631C450.531 113.805 450.435 113.84 450.351 113.894L449.711 114.374Z" fill="#040707"/>
<path d="M527.68 114.374H605.68V113.804H603.48C603.48 113.804 603.4 113.704 603.36 113.664L603.25 113.544L603 113.254H602.32C602.13 113.269 601.939 113.269 601.75 113.254C601.658 113.249 601.567 113.232 601.48 113.204C601.41 113.204 601.37 113.114 601.3 113.104H601.18C600.98 113.104 600.81 113.174 600.62 113.204C600.388 113.27 600.142 113.27 599.91 113.204C599.85 113.204 599.62 113.084 599.59 113.054C599.43 113 599.266 112.96 599.1 112.934C598.95 112.934 598.91 112.934 598.67 112.934H598C597.744 112.918 597.49 112.881 597.24 112.825C596.948 112.784 596.652 112.784 596.36 112.825H596.19C595.771 112.875 595.348 112.875 594.93 112.825C594.57 112.825 594.23 112.735 593.93 112.705C593.63 112.675 593.18 112.655 592.79 112.645C592.456 112.642 592.122 112.658 591.79 112.695C591.458 112.738 591.124 112.758 590.79 112.755H590.01C589.77 112.755 589.53 112.755 589.29 112.755H589C588.813 112.681 588.618 112.631 588.42 112.605C588.186 112.562 587.947 112.546 587.71 112.555H587.13C586.99 112.555 586.85 112.555 586.7 112.555H586.18C585.84 112.555 585.49 112.555 585.18 112.555L584.58 112.635C584.24 112.635 583.87 112.635 583.52 112.695H583.19C583.08 112.695 582.96 112.695 582.84 112.695H582.66C582.385 112.65 582.108 112.627 581.83 112.625C581.27 112.625 580.73 112.685 580.18 112.725C580.037 112.734 579.896 112.761 579.76 112.805L579.28 112.904L578.65 113.044C578.43 113.104 578.29 113.204 578.06 113.254C577.83 113.304 577.42 113.324 577.06 113.344L576.06 113.444C575.94 113.454 575.819 113.454 575.7 113.444C575.627 113.434 575.553 113.434 575.48 113.444H575.4H575.28C575.148 113.419 575.012 113.419 574.88 113.444C574.88 113.444 574.81 113.444 574.77 113.444C574.727 113.453 574.683 113.453 574.64 113.444C574.555 113.417 574.464 113.417 574.38 113.444C574.264 113.459 574.146 113.459 574.03 113.444H573.91C573.844 113.429 573.776 113.429 573.71 113.444C573.633 113.449 573.556 113.449 573.48 113.444C573.406 113.449 573.333 113.449 573.26 113.444H573.04C572.937 113.434 572.833 113.434 572.73 113.444C572.67 113.455 572.609 113.455 572.55 113.444C572.47 113.435 572.389 113.435 572.31 113.444C572.06 113.444 571.83 113.504 571.58 113.534C571.247 113.566 570.912 113.566 570.58 113.534H570.46C570.367 113.518 570.272 113.518 570.18 113.534V113.594C570.053 113.579 569.926 113.579 569.8 113.594H569.6H569.38H569.13L568.57 113.654H568.51C568.457 113.64 568.407 113.62 568.36 113.594H568.14H567.82L567.49 113.534C567.374 113.514 567.255 113.514 567.14 113.534H567C566.957 113.545 566.912 113.545 566.87 113.534C566.686 113.474 566.492 113.45 566.3 113.464H566.2H566.12L565.7 113.324H565.63H565.56H565.14C565.011 113.303 564.879 113.303 564.75 113.324L564.61 113.244H564.22C564.097 113.283 563.968 113.3 563.84 113.294H563.35C563.35 113.294 563.35 113.294 563.29 113.294C563.221 113.329 563.146 113.349 563.07 113.354C562.987 113.364 562.908 113.395 562.84 113.444H562.78H562.57C562.57 113.444 562.57 113.494 562.57 113.504H562.39C562.323 113.514 562.256 113.514 562.19 113.504C562.164 113.511 562.136 113.511 562.11 113.504L561.99 113.444H561.91H561.34C561.255 113.424 561.178 113.379 561.12 113.314H561.05L560.4 113.254L560.25 113.314C560.163 113.319 560.076 113.319 559.99 113.314H559.41C559.389 113.356 559.353 113.388 559.31 113.404H559.23L558.95 113.484C558.89 113.512 558.833 113.545 558.78 113.584C558.65 113.584 558.54 113.524 558.42 113.494C558.286 113.457 558.148 113.44 558.01 113.444C557.867 113.459 557.723 113.459 557.58 113.444C557.491 113.415 557.401 113.392 557.31 113.374H556.56C556.405 113.407 556.245 113.407 556.09 113.374C556.09 113.374 556.09 113.304 556 113.274C555.894 113.222 555.778 113.195 555.66 113.194C555.53 113.194 555.39 113.194 555.26 113.194H555.06C554.997 113.17 554.937 113.14 554.88 113.104L554.65 112.964H554.59H554.09C553.992 112.958 553.894 112.942 553.8 112.914C553.617 112.848 553.43 112.795 553.24 112.755C553.077 112.745 552.913 112.745 552.75 112.755H552.66H552.57L552.05 112.565H551.99H551.34C551.005 112.573 550.671 112.553 550.34 112.505C550.047 112.485 549.753 112.485 549.46 112.505H549H548.9L548.6 112.395C548.532 112.368 548.462 112.347 548.39 112.335C548.267 112.325 548.143 112.325 548.02 112.335H546.75C546.657 112.333 546.565 112.35 546.48 112.385C546.411 112.423 546.337 112.45 546.26 112.465C546.05 112.465 545.83 112.465 545.63 112.465L545.08 112.335H544.85L544.04 112.445H544C544.01 112.487 544.01 112.532 544 112.575H543.39L542.94 112.685C542.842 112.713 542.741 112.729 542.64 112.735H542.07C542.014 112.723 541.956 112.723 541.9 112.735C541.9 112.735 541.9 112.805 541.78 112.825H541.7H541.23H541L540.68 112.874L540.41 112.934H540.11H539.4C539.4 112.934 539.32 112.805 539.27 112.745C539.191 112.687 539.097 112.652 539 112.645L538.71 112.565C538.663 112.559 538.616 112.559 538.57 112.565H538.46H537.96C537.817 112.549 537.673 112.549 537.53 112.565C537.484 112.584 537.441 112.607 537.4 112.635L537.3 112.725H536.57H536.41L535.85 112.805C535.65 112.805 535.44 112.805 535.24 112.805H535.15H535.07L534.52 112.635H534.42H533.5C533.36 112.695 533.23 112.755 533.23 112.844C533.104 112.823 532.975 112.823 532.85 112.844L532.51 112.924H532.3C532.235 112.979 532.154 113.011 532.07 113.014H532H531.89L531.67 113.084C531.427 113.128 531.189 113.195 530.96 113.284C530.922 113.307 530.882 113.324 530.84 113.334H530.64C530.61 113.329 530.579 113.329 530.55 113.334C530.389 113.403 530.222 113.454 530.05 113.484H529.69C529.618 113.498 529.548 113.518 529.48 113.544C529.358 113.585 529.235 113.618 529.11 113.644H528.84C528.74 113.644 528.75 113.754 528.78 113.794H528.39C528.287 113.805 528.188 113.84 528.1 113.894L527.68 114.374Z" fill="#040707"/>
<path d="M1260.59 112.894V116.012H1102.51C1102.43 116.022 1102.34 116.022 1102.26 116.012C1102.33 115.9 1102.41 115.793 1102.49 115.692C1102.57 115.574 1102.66 115.461 1102.75 115.352C1102.94 115.133 1103.04 114.903 1103.33 114.823C1103.51 114.797 1103.7 114.797 1103.88 114.823H1104.14C1104.09 114.692 1104.08 114.551 1104.1 114.412C1104.12 114.274 1104.18 114.144 1104.26 114.033C1104.43 113.924 1104.6 113.831 1104.78 113.753C1105.05 113.597 1105.31 113.412 1105.54 113.204C1105.66 113.077 1105.81 112.976 1105.97 112.904C1106.2 112.824 1106.47 112.904 1106.71 112.904C1106.95 112.904 1107.42 112.364 1107.71 112.114C1107.74 112.082 1107.78 112.058 1107.82 112.044C1107.88 112.025 1107.94 112.025 1107.99 112.044C1108.13 112.094 1108.28 112.094 1108.41 112.044C1108.51 111.98 1108.59 111.89 1108.64 111.785C1109.05 111.329 1109.54 110.959 1110.09 110.695C1110.26 110.575 1110.41 110.438 1110.54 110.286C1110.6 110.216 1110.67 110.126 1110.77 110.116C1110.82 110.111 1110.87 110.111 1110.91 110.116C1111.16 110.116 1111.24 109.816 1111.38 109.656C1111.5 109.54 1111.65 109.449 1111.8 109.386C1112.04 109.256 1112.25 109.066 1112.49 108.906C1112.71 108.739 1112.98 108.651 1113.25 108.657C1113.25 108.496 1113.28 108.336 1113.34 108.187H1116.74L1117.09 108.477C1117.14 108.522 1117.2 108.56 1117.26 108.587C1117.32 108.597 1117.38 108.597 1117.44 108.587C1117.86 108.612 1118.27 108.592 1118.68 108.527C1119.02 108.435 1119.36 108.314 1119.68 108.167H1125.85C1125.91 108.387 1125.95 108.607 1126.01 108.826C1126.02 108.869 1126.04 108.907 1126.07 108.936H1126.14C1126.62 108.936 1127.14 109.016 1127.57 109.036C1127.78 109.081 1127.99 109.081 1128.19 109.036C1128.38 108.958 1128.56 108.86 1128.73 108.746C1128.94 108.631 1129.16 108.544 1129.39 108.487C1129.53 108.45 1129.66 108.426 1129.8 108.417L1130.8 108.287C1130.86 108.285 1130.92 108.268 1130.97 108.237C1131.01 108.218 1131.03 108.191 1131.05 108.157H1145.28V105.878L1145.49 106.088C1145.55 106.153 1145.62 106.207 1145.7 106.248C1145.82 106.283 1145.95 106.283 1146.07 106.248C1146.67 106.213 1147.28 106.273 1147.86 106.428C1148.48 106.659 1149.14 106.774 1149.8 106.768L1150.97 106.688C1151.02 106.673 1151.07 106.673 1151.12 106.688C1151.17 106.708 1151.22 106.739 1151.25 106.778L1152.31 107.777C1152.36 107.831 1152.42 107.872 1152.48 107.897C1152.54 107.907 1152.6 107.907 1152.66 107.897H1152.8C1153.08 107.897 1153.36 107.937 1153.63 108.017C1154.05 108.236 1154.43 108.512 1154.77 108.836C1154.95 108.981 1155.15 109.09 1155.37 109.156C1155.64 109.181 1155.92 109.181 1156.19 109.156C1156.25 109.141 1156.31 109.141 1156.37 109.156C1156.42 109.196 1156.46 109.243 1156.49 109.296L1156.97 110.096C1157.06 110.271 1157.19 110.428 1157.34 110.555C1157.46 110.647 1157.6 110.709 1157.74 110.735C1158.01 110.805 1158.28 110.805 1158.55 110.865C1158.69 110.891 1158.83 110.946 1158.94 111.027C1159.06 111.108 1159.16 111.213 1159.23 111.335C1159.32 111.505 1159.34 111.695 1159.43 111.865C1159.61 112.214 1160.07 112.094 1160.38 112.094H1161.58C1161.68 112.08 1161.79 112.08 1161.89 112.094H1161.96C1162.13 112.199 1162.29 112.312 1162.45 112.434C1162.73 112.556 1163.03 112.594 1163.33 112.544C1163.62 112.536 1163.91 112.628 1164.14 112.804C1164.38 112.992 1164.62 113.162 1164.88 113.314C1164.98 113.124 1165.09 112.946 1165.23 112.784C1165.39 112.609 1165.58 112.463 1165.79 112.354C1165.85 112.31 1165.9 112.259 1165.95 112.204C1166.05 112.055 1166.12 111.884 1166.15 111.705L1167.33 111.425C1167.51 111.402 1167.68 111.358 1167.85 111.295C1167.85 111.295 1168.16 110.935 1168.17 110.935L1169.48 111.275C1169.53 111.288 1169.58 111.312 1169.62 111.345C1169.65 111.378 1169.67 111.415 1169.69 111.455C1169.78 111.675 1169.92 112.074 1170.14 112.134C1170.47 112.178 1170.81 112.178 1171.14 112.134C1171.2 112.12 1171.26 112.12 1171.32 112.134C1171.39 112.169 1171.45 112.225 1171.48 112.294L1171.73 112.624C1171.78 112.688 1171.83 112.745 1171.89 112.794C1172.02 112.855 1172.16 112.873 1172.3 112.844C1172.4 112.844 1172.58 112.844 1172.67 112.844C1172.76 112.844 1172.67 112.604 1172.74 112.524C1172.74 112.494 1172.74 112.464 1172.74 112.434C1172.77 112.406 1172.8 112.382 1172.83 112.364L1173.26 112.164C1173.3 112.147 1173.34 112.12 1173.37 112.084C1173.41 112.038 1173.44 111.988 1173.46 111.935C1173.55 111.716 1173.71 111.535 1173.92 111.425C1174.1 111.325 1174.28 111.345 1174.38 111.115C1174.4 111.038 1174.44 110.966 1174.49 110.905C1174.54 110.868 1174.6 110.851 1174.66 110.855H1175.48C1175.62 110.871 1175.77 110.856 1175.91 110.811C1176.04 110.766 1176.17 110.693 1176.27 110.595C1176.3 110.552 1176.33 110.515 1176.37 110.485C1176.41 110.476 1176.46 110.476 1176.5 110.485H1176.97C1177.03 110.47 1177.09 110.47 1177.15 110.485C1177.19 110.515 1177.22 110.552 1177.24 110.595L1177.52 111.005C1177.75 110.841 1178.03 110.763 1178.31 110.785C1178.6 110.794 1178.89 110.757 1179.16 110.675C1179.21 110.661 1179.26 110.661 1179.31 110.675C1179.37 110.692 1179.42 110.723 1179.46 110.765L1180.3 111.505C1180.35 111.553 1180.4 111.591 1180.46 111.615C1180.53 111.63 1180.6 111.63 1180.66 111.615C1180.87 111.591 1181.09 111.613 1181.29 111.678C1181.49 111.744 1181.67 111.852 1181.83 111.994C1181.91 112.064 1181.99 112.154 1182.09 112.134C1182.15 112.124 1182.21 112.1 1182.26 112.064C1182.37 112.008 1182.49 111.979 1182.62 111.979C1182.74 111.979 1182.86 112.008 1182.97 112.064C1183.19 112.193 1183.41 112.31 1183.64 112.414C1183.85 112.484 1184.07 112.494 1184.28 112.544C1184.45 112.579 1184.61 112.662 1184.73 112.784C1184.82 112.874 1184.91 113.064 1185.04 113.074C1185.08 113.084 1185.12 113.084 1185.16 113.074L1186.29 112.734C1186.46 112.677 1186.64 112.633 1186.81 112.604C1186.95 112.629 1187.1 112.629 1187.24 112.604C1187.39 112.534 1187.52 112.444 1187.66 112.364C1187.9 112.237 1188.16 112.165 1188.42 112.154C1188.42 112.054 1188.42 111.955 1188.42 111.845C1188.58 111.71 1188.78 111.63 1188.99 111.615C1189.07 111.622 1189.15 111.638 1189.23 111.665C1189.93 111.875 1190.67 111.875 1191.37 111.665C1191.85 111.458 1192.35 111.295 1192.86 111.175C1193.02 111.131 1193.18 111.131 1193.34 111.175C1193.46 111.175 1193.57 111.345 1193.7 111.275L1193.79 111.215C1193.98 111.105 1194.21 111.215 1194.42 111.215C1194.63 111.215 1194.71 111.095 1194.86 111.095C1195.01 111.095 1195.16 111.205 1195.31 111.195C1195.46 111.185 1195.61 111.055 1195.77 111.025C1195.84 111.008 1195.92 111.01 1195.99 111.031C1196.06 111.052 1196.13 111.091 1196.18 111.145C1196.26 111.225 1196.32 111.355 1196.42 111.395C1196.52 111.435 1196.93 111.195 1197.13 111.115C1197.22 111.067 1197.33 111.054 1197.42 111.08C1197.52 111.106 1197.61 111.169 1197.66 111.255C1197.67 111.309 1197.7 111.36 1197.73 111.405C1197.81 111.465 1197.91 111.405 1198 111.355C1198.09 111.305 1198.23 111.355 1198.22 111.425C1198.34 111.354 1198.48 111.31 1198.62 111.297C1198.76 111.283 1198.91 111.299 1199.04 111.345C1199.11 111.345 1199.2 111.445 1199.28 111.435C1199.36 111.425 1199.39 111.355 1199.44 111.335C1199.59 111.285 1199.75 111.285 1199.9 111.335C1200.14 111.395 1200.39 111.395 1200.62 111.335L1202.67 110.815C1203.33 110.701 1203.97 110.52 1204.58 110.276C1205.05 110.036 1205.35 109.476 1205.79 109.166C1206.2 108.895 1206.63 108.648 1207.07 108.427C1207.4 108.247 1207.71 108.047 1208.07 107.847C1208.33 107.643 1208.62 107.491 1208.93 107.397C1210.03 107.106 1211.16 106.932 1212.29 106.878C1212.87 106.904 1213.44 107.036 1213.97 107.267C1214.09 107.333 1214.21 107.38 1214.34 107.407C1214.58 107.402 1214.82 107.361 1215.05 107.287C1215.27 107.287 1215.49 107.287 1215.71 107.227C1216.44 107.171 1217.16 107.054 1217.87 106.878C1218.28 106.748 1218.67 106.568 1219.08 106.468C1219.77 106.325 1220.48 106.271 1221.18 106.308C1221.54 106.311 1221.89 106.295 1222.24 106.258C1222.54 106.2 1222.83 106.123 1223.12 106.028C1223.5 105.938 1223.9 105.848 1224.29 105.778C1224.79 105.744 1225.29 105.848 1225.73 106.078C1226.17 106.243 1226.57 106.51 1226.89 106.858C1226.92 106.899 1226.96 106.93 1227 106.948C1227.04 106.957 1227.08 106.957 1227.11 106.948C1227.39 106.869 1227.68 106.806 1227.96 106.758C1228.17 106.719 1228.37 106.696 1228.58 106.688C1229.1 106.688 1229.58 106.688 1230.16 106.688C1230.87 106.728 1231.59 106.626 1232.26 106.388C1232.92 106.166 1233.62 106.071 1234.32 106.108C1235.1 106.14 1235.87 106.247 1236.63 106.428C1237.35 106.608 1238.02 106.978 1238.75 107.098C1239.61 107.277 1240.5 107.218 1241.32 106.928L1241.66 106.758C1242.22 106.497 1242.86 106.458 1243.45 106.648C1243.95 106.808 1244.45 107.287 1244.98 107.257C1245.09 107.257 1245.72 107.257 1246.21 107.257C1246.7 107.257 1246.77 107.138 1247.09 107.257C1247.46 107.411 1247.8 107.635 1248.09 107.917C1248.16 108.037 1248.62 108.497 1248.76 108.697C1249.1 109.176 1249.76 109.046 1250.2 108.826C1250.49 108.687 1250.76 108.497 1251.05 108.377C1251.14 108.333 1251.23 108.3 1251.33 108.277C1251.41 108.252 1251.49 108.252 1251.57 108.277C1251.69 108.337 1251.77 108.607 1251.88 108.757C1252.04 108.886 1252.22 108.982 1252.42 109.036C1252.51 109.066 1252.6 109.086 1252.69 109.096C1252.99 109.151 1253.29 109.171 1253.59 109.156H1254.74C1254.78 109.147 1254.82 109.146 1254.86 109.155C1254.9 109.164 1254.94 109.181 1254.97 109.206C1255.01 109.256 1255.04 109.314 1255.06 109.376L1255.39 110.375C1255.46 110.555 1255.52 110.745 1255.58 110.925L1255.81 111.605C1255.92 111.834 1256 112.076 1256.05 112.324C1256.06 112.375 1256.08 112.421 1256.12 112.454C1256.17 112.474 1256.23 112.474 1256.28 112.454H1260.6L1260.59 112.894Z" fill="#040707"/>
<path d="M1252.75 112.744V114.363H1293.75L1293.05 113.364H1291.93L1291.41 112.784H1291.35C1291.26 112.756 1291.17 112.733 1291.08 112.714C1291 112.734 1290.93 112.734 1290.85 112.714L1290.64 112.594C1290.52 112.53 1290.38 112.493 1290.24 112.484C1290.24 112.431 1290.24 112.378 1290.24 112.325C1290.16 112.25 1290.06 112.208 1289.95 112.205H1289.82C1289.46 112.314 1289.07 112.314 1288.71 112.205C1288.46 112.099 1288.2 112.012 1287.93 111.945C1287.85 111.921 1287.76 111.921 1287.68 111.945C1287.68 111.945 1287.57 112.025 1287.5 111.995C1287.4 111.945 1287.28 111.995 1287.17 111.995C1287.06 111.995 1287.02 111.935 1286.94 111.935C1286.87 111.959 1286.79 111.979 1286.72 111.995C1286.64 111.971 1286.56 111.941 1286.48 111.905C1286.44 111.893 1286.4 111.892 1286.36 111.902C1286.32 111.913 1286.29 111.935 1286.26 111.965C1286.26 111.965 1286.19 112.075 1286.13 112.095C1286.07 112.115 1285.87 111.995 1285.76 111.945C1285.71 111.921 1285.66 111.916 1285.61 111.928C1285.56 111.941 1285.52 111.972 1285.49 112.015C1285.49 112.015 1285.49 112.085 1285.49 112.095C1285.49 112.105 1285.4 112.095 1285.35 112.095C1285.3 112.095 1285.23 112.095 1285.24 112.095C1285.18 112.061 1285.1 112.043 1285.03 112.043C1284.96 112.043 1284.88 112.061 1284.82 112.095C1284.82 112.095 1284.73 112.145 1284.69 112.095C1284.65 112.045 1284.63 112.095 1284.6 112.045C1284.52 112.02 1284.44 112.02 1284.36 112.045C1284.24 112.075 1284.11 112.075 1283.99 112.045L1282.92 111.775C1282.58 111.713 1282.24 111.619 1281.92 111.495C1281.68 111.365 1281.53 111.085 1281.3 110.915C1281.08 110.778 1280.86 110.651 1280.63 110.536C1280.46 110.436 1280.29 110.336 1280.13 110.226C1280 110.122 1279.84 110.044 1279.68 109.996C1279.11 109.852 1278.53 109.761 1277.94 109.726C1277.64 109.736 1277.34 109.808 1277.06 109.936C1277 109.962 1276.94 109.982 1276.87 109.996C1276.74 110.001 1276.62 109.981 1276.5 109.936C1276.39 109.936 1276.27 109.936 1276.16 109.936C1275.78 109.906 1275.4 109.846 1275.03 109.756C1274.83 109.676 1274.62 109.606 1274.41 109.546C1274.05 109.466 1273.68 109.436 1273.31 109.456C1273.13 109.466 1272.94 109.466 1272.76 109.456C1272.61 109.456 1272.47 109.366 1272.31 109.336L1271.7 109.206C1271.44 109.192 1271.18 109.244 1270.95 109.356C1270.72 109.447 1270.52 109.587 1270.35 109.766L1270.29 109.816C1270.04 109.749 1269.78 109.705 1269.52 109.686C1269.25 109.686 1268.97 109.686 1268.7 109.686C1268.33 109.707 1267.95 109.656 1267.6 109.536C1267.26 109.411 1266.89 109.36 1266.53 109.386C1266.13 109.4 1265.73 109.453 1265.34 109.546C1264.96 109.646 1264.61 109.836 1264.23 109.896C1263.78 109.992 1263.32 109.961 1262.89 109.806L1262.72 109.726C1262.43 109.587 1262.1 109.566 1261.79 109.666C1261.53 109.746 1261.27 109.996 1260.99 109.986C1260.78 109.973 1260.56 109.973 1260.35 109.986C1260.1 109.986 1260.06 109.926 1259.89 109.986C1259.7 110.067 1259.53 110.183 1259.39 110.326C1259.39 110.386 1259.11 110.636 1259.04 110.735C1258.86 110.985 1258.52 110.915 1258.29 110.805C1258.11 110.685 1257.91 110.588 1257.7 110.516C1257.66 110.501 1257.62 110.501 1257.58 110.516C1257.5 110.516 1257.46 110.735 1257.39 110.795C1257.31 110.866 1257.21 110.914 1257.1 110.935C1256.9 110.989 1256.7 111.012 1256.5 111.005H1255.9C1255.86 110.995 1255.82 110.995 1255.78 111.005C1255.77 111.035 1255.77 111.066 1255.78 111.095C1255.68 111.365 1255.59 111.635 1255.5 111.905C1255.41 112.175 1255.42 112.145 1255.39 112.255C1255.33 112.371 1255.29 112.495 1255.26 112.624C1255.26 112.648 1255.26 112.671 1255.26 112.694C1255.23 112.703 1255.2 112.703 1255.17 112.694L1252.75 112.744Z" fill="#040707"/>
<path d="M1056.55 11.6867C1055.77 4.69105 1050.85 -0.535728 1045.55 0.0439139C1040.25 0.623556 1036.55 6.79975 1037.38 13.8054C1038.11 20.4113 1042.51 25.4083 1047.38 25.4882L1046.58 27.3271L1048.2 27.1472C1048.99 27.7718 1049.57 28.6345 1049.84 29.6092C1050.11 30.5838 1050.06 31.6192 1049.7 32.5638C1049.22 33.5747 1048.56 34.4945 1047.77 35.2822C1047.26 35.8187 1046.78 36.3933 1046.36 37.0011C1045.64 38.1106 1045.23 39.3869 1045.16 40.7045C1045.09 42.0222 1045.36 43.3359 1045.95 44.5165C1046.95 46.6651 1048.61 47.8844 1050.35 49.1836C1050.84 49.5434 1051.35 49.9231 1051.85 50.3229C1052.35 50.7226 1054.36 52.5415 1053.69 54.5003L1053.99 54.6002C1054.73 52.4515 1052.69 50.6027 1052.05 50.073C1051.41 49.5433 1051.05 49.2935 1050.54 48.9237C1048.73 47.8069 1047.25 46.2397 1046.24 44.3766C1045.67 43.2466 1045.41 41.9888 1045.48 40.7271C1045.55 39.4654 1045.94 38.2433 1046.63 37.181C1047.05 36.5871 1047.51 36.0228 1048.01 35.492C1048.83 34.6818 1049.51 33.735 1050.01 32.6937C1050.38 31.7334 1050.45 30.6831 1050.2 29.6831C1049.96 28.6831 1049.42 27.781 1048.65 27.0972L1050.44 26.8973L1049.25 25.2783C1054.09 24.129 1057.28 18.2827 1056.55 11.6867Z" fill="#040707"/>
<path d="M1171.5 54.3073C1171.5 51.9288 1170.05 50 1168.25 50C1166.45 50 1165 51.9288 1165 54.3073C1165 56.6859 1166.29 58.3848 1167.94 58.5947L1167.6 59.1843H1168.15C1168.39 59.4234 1168.55 59.7335 1168.61 60.0696C1168.66 60.4057 1168.61 60.7503 1168.45 61.0532C1168.25 61.3735 1168 61.6574 1167.7 61.8926C1167.51 62.053 1167.33 62.2267 1167.17 62.4123C1166.89 62.7556 1166.7 63.167 1166.63 63.6055C1166.55 64.0439 1166.59 64.4941 1166.75 64.9108C1167.02 65.5912 1167.47 66.1874 1168.05 66.6397L1168.51 67.0794C1168.69 67.2693 1169.27 67.9189 1168.97 68.5485L1169.07 68.5985C1169.4 67.899 1168.78 67.1994 1168.59 67.0095L1168.12 66.5598C1167.56 66.1179 1167.12 65.5399 1166.85 64.8808C1166.7 64.4805 1166.66 64.0492 1166.73 63.6289C1166.8 63.2086 1166.98 62.8136 1167.25 62.4823C1167.41 62.3025 1167.59 62.1323 1167.77 61.9726C1168.08 61.7298 1168.34 61.4357 1168.55 61.1032C1168.71 60.7959 1168.77 60.4476 1168.73 60.1047C1168.68 59.7618 1168.53 59.4407 1168.3 59.1843H1168.91L1168.57 58.5947C1170.21 58.3848 1171.5 56.5959 1171.5 54.3073Z" fill="#FFAE00"/>
<path d="M1125.81 108.167C1125.87 108.387 1125.91 108.606 1125.97 108.826C1125.98 108.868 1126 108.907 1126.03 108.936H1126.1C1126.58 108.936 1127.1 109.016 1127.53 109.036C1127.73 109.081 1127.95 109.081 1128.15 109.036C1128.34 108.957 1128.52 108.86 1128.69 108.746C1128.9 108.631 1129.12 108.543 1129.35 108.487C1129.48 108.45 1129.62 108.426 1129.76 108.417L1130.76 108.287C1130.82 108.285 1130.88 108.268 1130.93 108.237C1130.96 108.218 1130.99 108.191 1131.01 108.157L1125.81 108.167ZM1117.1 108.457C1117.15 108.502 1117.21 108.539 1117.27 108.566C1117.33 108.576 1117.39 108.576 1117.45 108.566C1117.86 108.592 1118.28 108.572 1118.69 108.507C1119.03 108.415 1119.37 108.294 1119.69 108.147H1116.8L1117.1 108.457ZM1152.73 52.0414C1155.38 51.2393 1157.7 49.6084 1159.36 47.3885C1161.01 45.1686 1161.91 42.4769 1161.92 39.709V36.3711H1056.66V39.709C1056.73 42.4616 1057.66 45.1243 1059.3 47.3333C1060.95 49.5424 1063.23 51.1901 1065.85 52.0514V108.167H1056.66V115.682H1161.92V108.167H1152.73V52.0414ZM1073.37 52.0414C1076.16 51.2981 1078.62 49.6573 1080.37 47.3735C1082.13 45.0896 1083.09 42.2903 1083.09 39.4092C1083.09 42.1176 1085.92 52.5511 1096.35 52.5511C1105.41 52.5511 1109.35 44.3662 1109.35 39.4092C1109.35 44.0264 1112.44 52.5411 1122.49 52.5411C1131.57 52.5411 1135.59 43.7765 1135.59 39.4092C1135.59 42.2664 1136.53 45.0437 1138.27 47.3172C1140 49.5908 1142.43 51.2359 1145.18 52.0014V108.167H1073.34L1073.37 52.0414ZM1116.75 108.167L1117.1 108.457C1117.15 108.502 1117.21 108.539 1117.27 108.566C1117.33 108.576 1117.39 108.576 1117.45 108.566C1117.86 108.592 1118.28 108.572 1118.69 108.507C1119.03 108.415 1119.37 108.294 1119.69 108.147L1116.75 108.167ZM1125.81 108.167C1125.87 108.387 1125.91 108.606 1125.97 108.826C1125.98 108.868 1126 108.907 1126.03 108.936H1126.1C1126.58 108.936 1127.1 109.016 1127.53 109.036C1127.73 109.081 1127.95 109.081 1128.15 109.036C1128.34 108.957 1128.52 108.86 1128.69 108.746C1128.9 108.631 1129.12 108.543 1129.35 108.487C1129.48 108.45 1129.62 108.426 1129.76 108.417L1130.76 108.287C1130.82 108.285 1130.88 108.268 1130.93 108.237C1130.96 108.218 1130.99 108.191 1131.01 108.157L1125.81 108.167Z" fill="black"/>
<path d="M299.122 100.112C298.947 100.298 298.85 100.542 298.85 100.797C298.85 101.051 298.947 101.296 299.122 101.481L301.872 104.23C302.058 104.407 302.305 104.506 302.562 104.506C302.818 104.506 303.066 104.407 303.252 104.23L303.522 103.95L304.192 106.478C304.532 106.138 304.362 105.969 304.692 105.639C305.022 105.309 305.202 105.469 305.542 105.139C305.882 104.809 305.702 104.629 306.042 104.29C306.382 103.95 306.552 104.13 306.892 103.79L304.322 103.17L304.582 102.9C304.756 102.715 304.853 102.47 304.853 102.216C304.853 101.961 304.756 101.717 304.582 101.531L301.832 98.793C301.646 98.6187 301.401 98.5217 301.147 98.5217C300.892 98.5217 300.647 98.6187 300.462 98.793L300.182 99.0728L299.542 96.5044C299.202 96.8442 299.382 97.0141 299.042 97.3539C298.702 97.6937 298.532 97.5138 298.192 97.8436C297.852 98.1734 298.032 98.3533 297.692 98.693C297.352 99.0328 297.182 98.8529 296.852 99.1927L299.422 99.8224L299.122 100.112ZM303.202 101.441L303.492 101.152L303.812 101.471L303.522 101.761L303.202 101.441ZM301.312 99.5525L301.602 99.2627L303.112 100.772L302.822 101.062L301.312 99.5525Z" fill="black"/>
<path d="M365.801 85.1816L367.471 84.7719C367.251 84.552 367.141 84.662 366.921 84.4421C366.701 84.2222 366.811 84.1123 366.591 83.9024C366.371 83.6925 366.261 83.7925 366.041 83.5726C365.821 83.3528 365.941 83.2428 365.721 83.0229L365.301 84.6819L365.131 84.502C365.01 84.386 364.849 84.3212 364.681 84.3212C364.514 84.3212 364.352 84.386 364.231 84.502L362.441 86.2809C362.326 86.4002 362.261 86.5597 362.261 86.7257C362.261 86.8916 362.326 87.0511 362.441 87.1704L362.621 87.3403L360.941 87.75C361.161 87.9699 361.271 87.86 361.491 88.0798C361.711 88.2997 361.601 88.4096 361.811 88.6295C362.021 88.8494 362.141 88.7294 362.361 88.9493C362.581 89.1691 362.471 89.2791 362.691 89.499L363.121 87.85L363.301 88.0398C363.421 88.1552 363.58 88.2198 363.746 88.2198C363.912 88.2198 364.072 88.1552 364.191 88.0398L365.981 86.251C366.097 86.1317 366.161 85.9722 366.161 85.8062C366.161 85.6403 366.097 85.4808 365.981 85.3615L365.801 85.1816ZM363.121 86.4308L362.931 86.241L363.141 86.0411L363.321 86.221L363.121 86.4308ZM363.571 85.9811L363.391 85.7912L364.391 84.7918L364.571 84.9817L363.571 85.9811Z" fill="#FFAE00"/>
<path d="M1161.91 33.4434H1056.65L1070.02 20.0817V11.7368H1148.96V20.0817H1148.89L1161.91 33.4434Z" fill="black"/>
<path d="M319.049 67.8021C320.673 67.8021 321.989 66.4867 321.989 64.864C321.989 63.2413 320.673 61.9258 319.049 61.9258C317.426 61.9258 316.109 63.2413 316.109 64.864C316.109 66.4867 317.426 67.8021 319.049 67.8021Z" fill="#FFAE00"/>
<path d="M323.378 61.9253C324.146 61.9253 324.768 61.3033 324.768 60.5361C324.768 59.7689 324.146 59.147 323.378 59.147C322.611 59.147 321.988 59.7689 321.988 60.5361C321.988 61.3033 322.611 61.9253 323.378 61.9253Z" fill="#FFAE00"/>
<path d="M356.12 77.8159C356.639 77.8159 357.06 77.3953 357.06 76.8764C357.06 76.3576 356.639 75.937 356.12 75.937C355.601 75.937 355.18 76.3576 355.18 76.8764C355.18 77.3953 355.601 77.8159 356.12 77.8159Z" fill="#4A4C4C"/>
<path d="M357.51 75.9274C357.753 75.9274 357.95 75.7304 357.95 75.4874C357.95 75.2444 357.753 75.0474 357.51 75.0474C357.267 75.0474 357.07 75.2444 357.07 75.4874C357.07 75.7304 357.267 75.9274 357.51 75.9274Z" fill="#4A4C4C"/>
<path d="M1045.48 103.683L1055.93 75.9402C1057.96 75.4988 1059.93 74.8003 1061.79 73.8615C1062.83 73.3419 1063.77 72.6453 1064.57 71.8028C1065.32 70.9894 1065.78 69.9559 1065.88 68.8582C1065.99 67.7604 1065.74 66.6578 1065.16 65.7166C1064.59 64.8134 1063.71 64.1542 1062.68 63.8678C1061.65 63.5814 1060.55 63.6882 1059.6 64.1675C1059.28 64.3274 1058.97 64.5273 1058.6 64.7172C1058.48 64.3574 1058.39 64.0076 1058.25 63.6678C1057.85 62.6816 1057.09 61.8805 1056.13 61.4205C1055.17 60.9604 1054.07 60.8745 1053.05 61.1794C1051.99 61.5052 1051.06 62.1707 1050.42 63.0735C1049.77 63.9763 1049.44 65.0664 1049.47 66.1763C1049.52 67.3361 1049.76 68.4791 1050.2 69.5542C1050.97 71.482 1051.98 73.3053 1053.2 74.9808L1046.85 91.8304L1043.53 90.5812L1042.68 92.8398L1046 94.089L1045.33 95.8779L1042 94.6287L1040 99.8055L1043.32 101.065L1042.7 102.724L1045.48 103.683Z" fill="#FFAE00"/>
</svg>
