<svg width="28" height="28" viewBox="0 0 28 28" fill="none" xmlns="http://www.w3.org/2000/svg">
<mask id="mask0_5061_8024" style="mask-type:alpha" maskUnits="userSpaceOnUse" x="0" y="0" width="28" height="28">
<rect width="28" height="28" fill="#D9D9D9"/>
</mask>
<g mask="url(#mask0_5061_8024)">
<path d="M4.8998 22.3996C4.3223 22.3996 3.82793 22.1939 3.41668 21.7824C3.00543 21.371 2.7998 20.8763 2.7998 20.2984V7.69144C2.7998 7.11355 3.00543 6.62044 3.41668 6.21211C3.82793 5.80378 4.3223 5.59961 4.8998 5.59961H23.0998C23.6773 5.59961 24.1717 5.80533 24.5829 6.21678C24.9942 6.62822 25.1998 7.12289 25.1998 7.70078V20.3078C25.1998 20.8857 24.9942 21.3788 24.5829 21.7871C24.1717 22.1954 23.6773 22.3996 23.0998 22.3996H4.8998ZM13.9998 15.3996L4.8998 10.1788V20.2996H23.0998V10.1788L13.9998 15.3996ZM13.9998 12.9204L23.0998 7.69961H4.8998L13.9998 12.9204ZM4.8998 10.1788V7.69961V20.2996V10.1788Z" fill="white"/>
</g>
</svg>
