<svg width="1440" height="263" viewBox="0 0 1440 263" fill="none" xmlns="http://www.w3.org/2000/svg">
<path opacity="0.1" d="M1277.5 178C1277.42 178.375 1277.26 178.787 1277.02 179.023C1276.79 179.258 1276.37 179.42 1276 179.5C1276.37 179.58 1276.79 179.741 1277.02 179.977C1277.26 180.213 1277.42 180.625 1277.5 181C1277.58 180.625 1277.74 180.213 1277.98 179.977C1278.21 179.741 1278.63 179.58 1279 179.5C1278.63 179.42 1278.21 179.258 1277.98 179.023C1277.74 178.787 1277.58 178.375 1277.5 178Z" fill="white"/>
<path opacity="0.5" d="M295.5 118C295.42 118.375 295.258 118.787 295.023 119.023C294.787 119.258 294.375 119.42 294 119.5C294.375 119.58 294.787 119.741 295.023 119.977C295.258 120.213 295.42 120.625 295.5 121C295.58 120.625 295.742 120.213 295.978 119.977C296.213 119.741 296.625 119.58 297 119.5C296.625 119.42 296.213 119.258 295.977 119.023C295.742 118.787 295.58 118.375 295.5 118Z" fill="white"/>
<path opacity="0.1" d="M1363.5 182C1363.42 182.375 1363.26 182.787 1363.02 183.023C1362.79 183.258 1362.37 183.42 1362 183.5C1362.37 183.58 1362.79 183.741 1363.02 183.977C1363.26 184.213 1363.42 184.625 1363.5 185C1363.58 184.625 1363.74 184.213 1363.98 183.977C1364.21 183.741 1364.63 183.58 1365 183.5C1364.63 183.42 1364.21 183.258 1363.98 183.023C1363.74 182.787 1363.58 182.375 1363.5 182Z" fill="white"/>
<path opacity="0.1" d="M323.5 54C323.42 54.3747 323.258 54.787 323.023 55.0228C322.787 55.2584 322.375 55.4198 322 55.5001C322.375 55.5805 322.787 55.7415 323.023 55.9774C323.258 56.2132 323.42 56.6251 323.5 57C323.58 56.6251 323.742 56.2132 323.978 55.9772C324.213 55.7415 324.625 55.5802 325 55.4998C324.625 55.4197 324.213 55.2584 323.977 55.0226C323.742 54.787 323.58 54.3747 323.5 54Z" fill="white"/>
<path opacity="0.5" d="M421.5 76C421.42 76.3747 421.258 76.787 421.023 77.0228C420.787 77.2584 420.375 77.4198 420 77.5001C420.375 77.5805 420.787 77.7415 421.023 77.9774C421.258 78.2132 421.42 78.6251 421.5 79C421.58 78.6251 421.742 78.2132 421.978 77.9772C422.213 77.7415 422.625 77.5802 423 77.4998C422.625 77.4197 422.213 77.2584 421.977 77.0226C421.742 76.787 421.58 76.3747 421.5 76Z" fill="white"/>
<path opacity="0.1" d="M1005.5 163C1005.42 163.375 1005.26 163.787 1005.02 164.023C1004.79 164.258 1004.37 164.42 1004 164.5C1004.37 164.58 1004.79 164.741 1005.02 164.977C1005.26 165.213 1005.42 165.625 1005.5 166C1005.58 165.625 1005.74 165.213 1005.98 164.977C1006.21 164.741 1006.63 164.58 1007 164.5C1006.63 164.42 1006.21 164.258 1005.98 164.023C1005.74 163.787 1005.58 163.375 1005.5 163Z" fill="white"/>
<path opacity="0.5" d="M717.5 149C717.42 149.375 717.258 149.787 717.023 150.023C716.787 150.258 716.375 150.42 716 150.5C716.375 150.58 716.787 150.741 717.023 150.977C717.258 151.213 717.42 151.625 717.5 152C717.58 151.625 717.742 151.213 717.978 150.977C718.213 150.741 718.625 150.58 719 150.5C718.625 150.42 718.213 150.258 717.977 150.023C717.742 149.787 717.58 149.375 717.5 149Z" fill="white"/>
<path opacity="0.5" d="M778.5 185C778.42 185.375 778.258 185.787 778.023 186.023C777.787 186.258 777.375 186.42 777 186.5C777.375 186.58 777.787 186.741 778.023 186.977C778.258 187.213 778.42 187.625 778.5 188C778.58 187.625 778.742 187.213 778.978 186.977C779.213 186.741 779.625 186.58 780 186.5C779.625 186.42 779.213 186.258 778.977 186.023C778.742 185.787 778.58 185.375 778.5 185Z" fill="white"/>
<path opacity="0.1" d="M994.5 119C994.42 119.375 994.258 119.787 994.023 120.023C993.787 120.258 993.375 120.42 993 120.5C993.375 120.58 993.787 120.741 994.023 120.977C994.258 121.213 994.42 121.625 994.5 122C994.58 121.625 994.742 121.213 994.978 120.977C995.213 120.741 995.625 120.58 996 120.5C995.625 120.42 995.213 120.258 994.977 120.023C994.742 119.787 994.58 119.375 994.5 119Z" fill="white"/>
<path opacity="0.1" d="M1209.5 122C1209.42 122.375 1209.26 122.787 1209.02 123.023C1208.79 123.258 1208.37 123.42 1208 123.5C1208.37 123.58 1208.79 123.741 1209.02 123.977C1209.26 124.213 1209.42 124.625 1209.5 125C1209.58 124.625 1209.74 124.213 1209.98 123.977C1210.21 123.741 1210.63 123.58 1211 123.5C1210.63 123.42 1210.21 123.258 1209.98 123.023C1209.74 122.787 1209.58 122.375 1209.5 122Z" fill="white"/>
<path opacity="0.5" d="M1122.5 87C1122.42 87.3747 1122.26 87.787 1122.02 88.0228C1121.79 88.2584 1121.37 88.4198 1121 88.5001C1121.37 88.5805 1121.79 88.7415 1122.02 88.9774C1122.26 89.2132 1122.42 89.6251 1122.5 90C1122.58 89.6251 1122.74 89.2132 1122.98 88.9772C1123.21 88.7415 1123.63 88.5802 1124 88.4998C1123.63 88.4197 1123.21 88.2584 1122.98 88.0226C1122.74 87.787 1122.58 87.3747 1122.5 87Z" fill="white"/>
<path opacity="0.5" d="M941.5 146C941.42 146.375 941.258 146.787 941.023 147.023C940.787 147.258 940.375 147.42 940 147.5C940.375 147.58 940.787 147.741 941.023 147.977C941.258 148.213 941.42 148.625 941.5 149C941.58 148.625 941.742 148.213 941.978 147.977C942.213 147.741 942.625 147.58 943 147.5C942.625 147.42 942.213 147.258 941.977 147.023C941.742 146.787 941.58 146.375 941.5 146Z" fill="white"/>
<path opacity="0.5" d="M839.5 141C839.42 141.375 839.258 141.787 839.023 142.023C838.787 142.258 838.375 142.42 838 142.5C838.375 142.58 838.787 142.741 839.023 142.977C839.258 143.213 839.42 143.625 839.5 144C839.58 143.625 839.742 143.213 839.978 142.977C840.213 142.741 840.625 142.58 841 142.5C840.625 142.42 840.213 142.258 839.977 142.023C839.742 141.787 839.58 141.375 839.5 141Z" fill="white"/>
<path opacity="0.5" d="M667 167C666.946 167.375 666.839 167.787 666.682 168.023C666.525 168.258 666.25 168.42 666 168.5C666.25 168.58 666.525 168.741 666.682 168.977C666.839 169.213 666.947 169.625 667 170C667.054 169.625 667.161 169.213 667.318 168.977C667.475 168.741 667.75 168.58 668 168.5C667.75 168.42 667.475 168.258 667.318 168.023C667.161 167.787 667.053 167.375 667 167Z" fill="white"/>
<path opacity="0.5" d="M492 172C491.946 172.375 491.839 172.787 491.682 173.023C491.525 173.258 491.25 173.42 491 173.5C491.25 173.58 491.525 173.741 491.682 173.977C491.839 174.213 491.947 174.625 492 175C492.054 174.625 492.161 174.213 492.318 173.977C492.475 173.741 492.75 173.58 493 173.5C492.75 173.42 492.475 173.258 492.318 173.023C492.161 172.787 492.053 172.375 492 172Z" fill="white"/>
<path opacity="0.1" d="M538.5 145C538.42 145.375 538.258 145.787 538.023 146.023C537.787 146.258 537.375 146.42 537 146.5C537.375 146.58 537.787 146.741 538.023 146.977C538.258 147.213 538.42 147.625 538.5 148C538.58 147.625 538.742 147.213 538.978 146.977C539.213 146.741 539.625 146.58 540 146.5C539.625 146.42 539.213 146.258 538.977 146.023C538.742 145.787 538.58 145.375 538.5 145Z" fill="white"/>
<path opacity="0.2" d="M1236.5 154C1236.37 154.625 1236.1 155.312 1235.7 155.705C1235.31 156.097 1234.62 156.366 1234 156.5C1234.62 156.634 1235.31 156.902 1235.7 157.296C1236.1 157.689 1236.37 158.375 1236.5 159C1236.63 158.375 1236.9 157.689 1237.3 157.295C1237.69 156.902 1238.38 156.634 1239 156.5C1238.38 156.366 1237.69 156.097 1237.3 155.704C1236.9 155.312 1236.63 154.625 1236.5 154Z" fill="white"/>
<path opacity="0.2" d="M448.5 145C448.366 145.625 448.097 146.312 447.704 146.705C447.311 147.097 446.625 147.366 446 147.5C446.625 147.634 447.311 147.902 447.704 148.296C448.097 148.689 448.367 149.375 448.5 150C448.634 149.375 448.903 148.689 449.296 148.295C449.689 147.902 450.376 147.634 451 147.5C450.376 147.366 449.689 147.097 449.296 146.704C448.903 146.312 448.633 145.625 448.5 145Z" fill="white"/>
<path opacity="0.2" d="M186.5 71C186.366 71.6245 186.097 72.3116 185.704 72.7046C185.311 73.0973 184.625 73.3664 184 73.5001C184.625 73.6341 185.311 73.9024 185.704 74.2957C186.097 74.6886 186.367 75.3751 186.5 76C186.634 75.3751 186.903 74.6886 187.296 74.2954C187.689 73.9025 188.376 73.6336 189 73.4996C188.376 73.3661 187.689 73.0973 187.296 72.7043C186.903 72.3117 186.633 71.6246 186.5 71Z" fill="white"/>
<path opacity="0.1" d="M1165.5 139C1165.37 139.625 1165.1 140.312 1164.7 140.705C1164.31 141.097 1163.62 141.366 1163 141.5C1163.62 141.634 1164.31 141.902 1164.7 142.296C1165.1 142.689 1165.37 143.375 1165.5 144C1165.63 143.375 1165.9 142.689 1166.3 142.295C1166.69 141.902 1167.38 141.634 1168 141.5C1167.38 141.366 1166.69 141.097 1166.3 140.704C1165.9 140.312 1165.63 139.625 1165.5 139Z" fill="white"/>
<path opacity="0.1" d="M124.5 112C124.366 112.625 124.097 113.312 123.704 113.705C123.311 114.097 122.625 114.366 122 114.5C122.625 114.634 123.311 114.902 123.704 115.296C124.097 115.689 124.367 116.375 124.5 117C124.634 116.375 124.903 115.689 125.296 115.295C125.689 114.902 126.376 114.634 127 114.5C126.376 114.366 125.689 114.097 125.296 113.704C124.903 113.312 124.633 112.625 124.5 112Z" fill="white"/>
<path opacity="0.1" d="M257.5 91C257.366 91.6245 257.097 92.3116 256.704 92.7046C256.311 93.0973 255.625 93.3664 255 93.5001C255.625 93.6341 256.311 93.9024 256.704 94.2957C257.097 94.6886 257.367 95.3751 257.5 96C257.634 95.3751 257.903 94.6886 258.296 94.2954C258.689 93.9025 259.376 93.6336 260 93.4996C259.376 93.3661 258.689 93.0973 258.296 92.7043C257.903 92.3117 257.633 91.6246 257.5 91Z" fill="white"/>
<path opacity="0.2" d="M1056.5 116C1056.37 116.625 1056.1 117.312 1055.7 117.705C1055.31 118.097 1054.62 118.366 1054 118.5C1054.62 118.634 1055.31 118.902 1055.7 119.296C1056.1 119.689 1056.37 120.375 1056.5 121C1056.63 120.375 1056.9 119.689 1057.3 119.295C1057.69 118.902 1058.38 118.634 1059 118.5C1058.38 118.366 1057.69 118.097 1057.3 117.704C1056.9 117.312 1056.63 116.625 1056.5 116Z" fill="white"/>
<path opacity="0.2" d="M617.5 144C617.366 144.625 617.097 145.312 616.704 145.705C616.311 146.097 615.625 146.366 615 146.5C615.625 146.634 616.311 146.902 616.704 147.296C617.097 147.689 617.367 148.375 617.5 149C617.634 148.375 617.903 147.689 618.296 147.295C618.689 146.902 619.376 146.634 620 146.5C619.376 146.366 618.689 146.097 618.296 145.704C617.903 145.312 617.633 144.625 617.5 144Z" fill="white"/>
<path opacity="0.2" d="M482.5 122C482.366 122.625 482.097 123.312 481.704 123.705C481.311 124.097 480.625 124.366 480 124.5C480.625 124.634 481.311 124.902 481.704 125.296C482.097 125.689 482.367 126.375 482.5 127C482.634 126.375 482.903 125.689 483.296 125.295C483.689 124.902 484.376 124.634 485 124.5C484.376 124.366 483.689 124.097 483.296 123.704C482.903 123.312 482.633 122.625 482.5 122Z" fill="white"/>
<path opacity="0.2" d="M775.5 114C775.366 114.625 775.097 115.312 774.704 115.705C774.311 116.097 773.625 116.366 773 116.5C773.625 116.634 774.311 116.902 774.704 117.296C775.097 117.689 775.367 118.375 775.5 119C775.634 118.375 775.903 117.689 776.296 117.295C776.689 116.902 777.376 116.634 778 116.5C777.376 116.366 776.689 116.097 776.296 115.704C775.903 115.312 775.633 114.625 775.5 114Z" fill="white"/>
<path opacity="0.2" d="M569.5 107C569.366 107.625 569.097 108.312 568.704 108.705C568.311 109.097 567.625 109.366 567 109.5C567.625 109.634 568.311 109.902 568.704 110.296C569.097 110.689 569.367 111.375 569.5 112C569.634 111.375 569.903 110.689 570.296 110.295C570.689 109.902 571.376 109.634 572 109.5C571.376 109.366 570.689 109.097 570.296 108.704C569.903 108.312 569.633 107.625 569.5 107Z" fill="white"/>
<path opacity="0.1" d="M1060.5 57C1060.37 57.6245 1060.1 58.3116 1059.7 58.7046C1059.31 59.0973 1058.62 59.3664 1058 59.5001C1058.62 59.6341 1059.31 59.9024 1059.7 60.2957C1060.1 60.6886 1060.37 61.3751 1060.5 62C1060.63 61.3751 1060.9 60.6886 1061.3 60.2954C1061.69 59.9025 1062.38 59.6336 1063 59.4996C1062.38 59.3661 1061.69 59.0973 1061.3 58.7043C1060.9 58.3117 1060.63 57.6246 1060.5 57Z" fill="white"/>
<path opacity="0.5" d="M683.5 111C683.366 111.625 683.097 112.312 682.704 112.705C682.311 113.097 681.625 113.366 681 113.5C681.625 113.634 682.311 113.902 682.704 114.296C683.097 114.689 683.367 115.375 683.5 116C683.634 115.375 683.903 114.689 684.296 114.295C684.689 113.902 685.376 113.634 686 113.5C685.376 113.366 684.689 113.097 684.296 112.704C683.903 112.312 683.633 111.625 683.5 111Z" fill="white"/>
<path opacity="0.5" d="M400.5 120C400.366 120.625 400.097 121.312 399.704 121.705C399.311 122.097 398.625 122.366 398 122.5C398.625 122.634 399.311 122.902 399.704 123.296C400.097 123.689 400.367 124.375 400.5 125C400.634 124.375 400.903 123.689 401.296 123.295C401.689 122.902 402.376 122.634 403 122.5C402.376 122.366 401.689 122.097 401.296 121.704C400.903 121.312 400.633 120.625 400.5 120Z" fill="white"/>
<path opacity="0.5" d="M93.4998 34C93.366 34.6245 93.0975 35.3116 92.7044 35.7046C92.3114 36.0973 91.6245 36.3664 91 36.5001C91.6245 36.6341 92.3114 36.9024 92.7044 37.2957C93.0975 37.6886 93.3666 38.3751 93.5003 39C93.634 38.3751 93.9026 37.6886 94.2958 37.2954C94.6886 36.9025 95.3756 36.6336 96 36.4996C95.3756 36.3661 94.6886 36.0973 94.2956 35.7043C93.9026 35.3117 93.6334 34.6246 93.4998 34Z" fill="white"/>
<path opacity="0.5" d="M890.5 164C890.42 164.375 890.258 164.787 890.023 165.023C889.787 165.258 889.375 165.42 889 165.5C889.375 165.58 889.787 165.741 890.023 165.977C890.258 166.213 890.42 166.625 890.5 167C890.58 166.625 890.742 166.213 890.978 165.977C891.213 165.741 891.625 165.58 892 165.5C891.625 165.42 891.213 165.258 890.977 165.023C890.742 164.787 890.58 164.375 890.5 164Z" fill="white"/>
<path opacity="0.2" d="M1208.5 182C1208.37 182.625 1208.1 183.312 1207.7 183.705C1207.31 184.097 1206.62 184.366 1206 184.5C1206.62 184.634 1207.31 184.902 1207.7 185.296C1208.1 185.689 1208.37 186.375 1208.5 187C1208.63 186.375 1208.9 185.689 1209.3 185.295C1209.69 184.902 1210.38 184.634 1211 184.5C1210.38 184.366 1209.69 184.097 1209.3 183.704C1208.9 183.312 1208.63 182.625 1208.5 182Z" fill="white"/>
<path opacity="0.2" d="M259.5 181C259.366 181.625 259.097 182.312 258.704 182.705C258.311 183.097 257.625 183.366 257 183.5C257.625 183.634 258.311 183.902 258.704 184.296C259.097 184.689 259.367 185.375 259.5 186C259.634 185.375 259.903 184.689 260.296 184.295C260.689 183.902 261.376 183.634 262 183.5C261.376 183.366 260.689 183.097 260.296 182.704C259.903 182.312 259.633 181.625 259.5 181Z" fill="white"/>
<path opacity="0.2" d="M115.5 203C115.366 203.625 115.097 204.312 114.704 204.705C114.311 205.097 113.625 205.366 113 205.5C113.625 205.634 114.311 205.902 114.704 206.296C115.097 206.689 115.367 207.375 115.5 208C115.634 207.375 115.903 206.689 116.296 206.295C116.689 205.902 117.376 205.634 118 205.5C117.376 205.366 116.689 205.097 116.296 204.704C115.903 204.312 115.633 203.625 115.5 203Z" fill="white"/>
<path opacity="0.2" d="M290 162C289.946 162.25 289.839 162.525 289.682 162.682C289.525 162.839 289.25 162.947 289 163C289.25 163.054 289.525 163.161 289.682 163.318C289.839 163.475 289.947 163.75 290 164C290.054 163.75 290.161 163.475 290.318 163.318C290.475 163.161 290.75 163.053 291 163C290.75 162.946 290.475 162.839 290.318 162.682C290.161 162.525 290.053 162.25 290 162Z" fill="white"/>
<path opacity="0.5" d="M174 224C173.946 224.25 173.839 224.525 173.682 224.682C173.525 224.839 173.25 224.947 173 225C173.25 225.054 173.525 225.161 173.682 225.318C173.839 225.475 173.947 225.75 174 226C174.054 225.75 174.161 225.475 174.318 225.318C174.475 225.161 174.75 225.053 175 225C174.75 224.946 174.475 224.839 174.318 224.682C174.161 224.525 174.053 224.25 174 224Z" fill="white"/>
<path opacity="0.2" d="M292 223C291.946 223.25 291.839 223.525 291.682 223.682C291.525 223.839 291.25 223.947 291 224C291.25 224.054 291.525 224.161 291.682 224.318C291.839 224.475 291.947 224.75 292 225C292.054 224.75 292.161 224.475 292.318 224.318C292.475 224.161 292.75 224.053 293 224C292.75 223.946 292.475 223.839 292.318 223.682C292.161 223.525 292.053 223.25 292 223Z" fill="white"/>
<path opacity="0.2" d="M151 170C150.946 170.25 150.839 170.525 150.682 170.682C150.525 170.839 150.25 170.947 150 171C150.25 171.054 150.525 171.161 150.682 171.318C150.839 171.475 150.947 171.75 151 172C151.054 171.75 151.161 171.475 151.318 171.318C151.475 171.161 151.75 171.053 152 171C151.75 170.946 151.475 170.839 151.318 170.682C151.161 170.525 151.053 170.25 151 170Z" fill="white"/>
<path opacity="0.5" d="M217.5 208C217.366 208.625 217.097 209.312 216.704 209.705C216.311 210.097 215.625 210.366 215 210.5C215.625 210.634 216.311 210.902 216.704 211.296C217.097 211.689 217.367 212.375 217.5 213C217.634 212.375 217.903 211.689 218.296 211.295C218.689 210.902 219.376 210.634 220 210.5C219.376 210.366 218.689 210.097 218.296 209.704C217.903 209.312 217.633 208.625 217.5 208Z" fill="white"/>
<path opacity="0.2" d="M217.5 135C217.366 135.625 217.097 136.312 216.704 136.705C216.311 137.097 215.625 137.366 215 137.5C215.625 137.634 216.311 137.902 216.704 138.296C217.097 138.689 217.367 139.375 217.5 140C217.634 139.375 217.903 138.689 218.296 138.295C218.689 137.902 219.376 137.634 220 137.5C219.376 137.366 218.689 137.097 218.296 136.704C217.903 136.312 217.633 135.625 217.5 135Z" fill="white"/>
<path opacity="0.5" d="M1300.5 97C1300.37 97.6245 1300.1 98.3116 1299.7 98.7046C1299.31 99.0973 1298.62 99.3664 1298 99.5001C1298.62 99.6341 1299.31 99.9024 1299.7 100.296C1300.1 100.689 1300.37 101.375 1300.5 102C1300.63 101.375 1300.9 100.689 1301.3 100.295C1301.69 99.9025 1302.38 99.6336 1303 99.4996C1302.38 99.3661 1301.69 99.0973 1301.3 98.7043C1300.9 98.3117 1300.63 97.6246 1300.5 97Z" fill="white"/>
<path opacity="0.1" d="M1359.5 0C1359.37 0.624547 1359.1 1.31162 1358.7 1.7046C1358.31 2.09729 1357.62 2.3664 1357 2.50013C1357.62 2.63414 1358.31 2.90242 1358.7 3.29566C1359.1 3.6886 1359.37 4.37513 1359.5 5C1359.63 4.37513 1359.9 3.68864 1360.3 3.2954C1360.69 2.90245 1361.38 2.6336 1362 2.49962C1361.38 2.36611 1360.69 2.09733 1360.3 1.70435C1359.9 1.31165 1359.63 0.624579 1359.5 0Z" fill="white"/>
<path opacity="0.5" d="M1203.5 72C1203.37 72.6245 1203.1 73.3116 1202.7 73.7046C1202.31 74.0973 1201.62 74.3664 1201 74.5001C1201.62 74.6341 1202.31 74.9024 1202.7 75.2957C1203.1 75.6886 1203.37 76.3751 1203.5 77C1203.63 76.3751 1203.9 75.6886 1204.3 75.2954C1204.69 74.9025 1205.38 74.6336 1206 74.4996C1205.38 74.3661 1204.69 74.0973 1204.3 73.7043C1203.9 73.3117 1203.63 72.6246 1203.5 72Z" fill="white"/>
<path d="M1127.15 240.734C1126.93 241.031 1126.64 241.276 1126.31 241.454C1125.93 241.662 1125.5 241.772 1125.06 241.774C1124.62 241.777 1124.19 241.667 1123.81 241.454C1123.69 241.386 1123.57 241.309 1123.46 241.224L1115.88 235.444C1115.73 235.316 1115.58 235.176 1115.45 235.024C1111.38 238.275 1106.57 240.482 1101.45 241.454C1097.52 242.2 1093.48 242.2 1089.55 241.454C1084.43 240.482 1079.62 238.275 1075.55 235.024C1075.42 235.178 1075.27 235.319 1075.11 235.444L1067.54 241.224C1067.43 241.309 1067.31 241.386 1067.19 241.454C1066.81 241.667 1066.38 241.777 1065.94 241.774C1065.5 241.773 1065.07 241.663 1064.68 241.454C1064.35 241.279 1064.06 241.033 1063.84 240.734C1063.63 240.458 1063.48 240.143 1063.39 239.808C1063.3 239.473 1063.28 239.124 1063.32 238.78C1063.37 238.436 1063.48 238.105 1063.66 237.806C1063.83 237.506 1064.07 237.244 1064.34 237.034L1071.57 231.504L1071.7 231.404C1066.15 225.305 1063.16 217.305 1063.34 209.06C1063.53 200.816 1066.88 192.959 1072.7 187.116C1078.52 181.273 1086.36 177.893 1094.6 177.674C1102.85 177.456 1110.86 180.417 1116.98 185.944L1111.55 191.364C1108.18 188.445 1104.08 186.502 1099.69 185.743C1095.3 184.985 1090.78 185.44 1086.63 187.06C1082.47 188.679 1078.84 191.402 1076.12 194.934C1073.4 198.466 1071.7 202.674 1071.2 207.102C1070.7 211.531 1071.41 216.013 1073.27 220.065C1075.12 224.117 1078.05 227.586 1081.74 230.096C1085.42 232.606 1089.72 234.063 1094.17 234.309C1098.62 234.555 1103.05 233.582 1106.99 231.494C1107.16 231.404 1107.33 231.314 1107.49 231.214C1108.04 230.914 1108.58 230.584 1109.1 230.214L1109.49 229.944C1112.31 227.989 1114.69 225.461 1116.48 222.526C1118.26 219.59 1119.4 216.311 1119.83 212.904C1120.26 209.497 1119.96 206.038 1118.97 202.752C1117.97 199.466 1116.29 196.427 1114.04 193.834L1119.47 188.404C1124.25 193.722 1127.11 200.483 1127.6 207.613C1128.1 214.743 1126.2 221.835 1122.21 227.764C1121.35 229.035 1120.41 230.244 1119.38 231.384L1126.74 237.014C1127.01 237.23 1127.24 237.498 1127.41 237.802C1127.58 238.107 1127.68 238.442 1127.72 238.788C1127.76 239.134 1127.73 239.484 1127.63 239.818C1127.53 240.152 1127.37 240.463 1127.15 240.734Z" fill="#4A4C4C"/>
<path d="M1116.42 209.863C1116.43 214.648 1114.8 219.292 1111.81 223.027C1108.82 226.761 1104.64 229.362 1099.97 230.399C1095.3 231.436 1090.42 230.847 1086.13 228.729C1081.84 226.611 1078.4 223.092 1076.38 218.753C1074.36 214.414 1073.89 209.517 1075.03 204.871C1076.18 200.225 1078.88 196.11 1082.68 193.207C1086.48 190.303 1091.16 188.786 1095.95 188.905C1100.73 189.024 1105.33 190.774 1108.98 193.863L1104.56 198.283C1101.61 195.961 1097.87 194.856 1094.13 195.193C1090.39 195.53 1086.91 197.284 1084.42 200.096C1081.92 202.908 1080.6 206.567 1080.71 210.325C1080.82 214.082 1082.36 217.655 1085.02 220.313C1087.68 222.972 1091.25 224.514 1095.01 224.627C1098.77 224.739 1102.43 223.413 1105.24 220.918C1108.05 218.424 1109.81 214.95 1110.14 211.205C1110.48 207.461 1109.37 203.73 1107.05 200.773L1111.46 196.353C1114.67 200.126 1116.42 204.914 1116.42 209.863Z" fill="#4A4C4C"/>
<path d="M1106.68 209.864C1106.68 212.389 1105.84 214.843 1104.28 216.829C1102.72 218.815 1100.53 220.218 1098.08 220.811C1095.62 221.403 1093.04 221.152 1090.74 220.097C1088.45 219.042 1086.58 217.245 1085.43 214.995C1084.28 212.745 1083.92 210.174 1084.41 207.697C1084.91 205.219 1086.22 202.98 1088.14 201.339C1090.06 199.698 1092.48 198.752 1095 198.653C1097.52 198.554 1100.01 199.308 1102.05 200.794L1098.39 204.454C1097.2 203.814 1095.84 203.582 1094.51 203.791C1093.18 204 1091.96 204.641 1091.03 205.613C1090.1 206.586 1089.51 207.837 1089.36 209.175C1089.21 210.512 1089.5 211.863 1090.19 213.019C1090.88 214.175 1091.93 215.072 1093.18 215.574C1094.43 216.075 1095.81 216.153 1097.11 215.794C1098.4 215.436 1099.55 214.662 1100.36 213.591C1101.18 212.519 1101.62 211.21 1101.62 209.864C1101.62 208.842 1101.36 207.837 1100.87 206.944L1104.54 203.274C1105.93 205.188 1106.68 207.495 1106.68 209.864Z" fill="#4A4C4C"/>
<path d="M1137.36 175.773C1137.36 176.472 1137.08 177.142 1136.58 177.637C1136.09 178.131 1135.42 178.41 1134.72 178.413H1129.41L1129.13 178.693C1129.49 178.671 1129.85 178.722 1130.19 178.845C1130.53 178.967 1130.84 179.158 1131.1 179.405C1131.36 179.651 1131.57 179.949 1131.71 180.28C1131.86 180.611 1131.93 180.968 1131.93 181.328C1131.93 181.688 1131.86 182.045 1131.71 182.376C1131.57 182.706 1131.36 183.004 1131.1 183.251C1130.84 183.498 1130.53 183.689 1130.19 183.811C1129.85 183.933 1129.49 183.985 1129.13 183.963H1123.82L1119.35 188.433C1118.56 187.564 1117.73 186.736 1116.86 185.953L1121.34 181.473C1121.33 181.426 1121.33 181.379 1121.34 181.333V176.163C1121.34 175.463 1121.62 174.791 1122.11 174.296C1122.61 173.801 1123.28 173.523 1123.98 173.523C1124.68 173.523 1125.35 173.801 1125.85 174.296C1126.34 174.791 1126.62 175.463 1126.62 176.163L1126.9 175.883C1126.89 175.836 1126.89 175.789 1126.9 175.743V170.613C1126.88 170.253 1126.93 169.893 1127.05 169.554C1127.17 169.215 1127.36 168.905 1127.61 168.642C1127.86 168.38 1128.16 168.17 1128.49 168.027C1128.82 167.884 1129.17 167.811 1129.53 167.811C1129.89 167.811 1130.25 167.884 1130.58 168.027C1130.91 168.17 1131.21 168.38 1131.46 168.642C1131.7 168.905 1131.9 169.215 1132.02 169.554C1132.14 169.893 1132.19 170.253 1132.17 170.613V173.133H1134.7C1135.05 173.13 1135.39 173.197 1135.72 173.328C1136.04 173.46 1136.33 173.654 1136.58 173.899C1136.83 174.144 1137.02 174.436 1137.16 174.758C1137.29 175.08 1137.36 175.425 1137.36 175.773Z" fill="#4A4C4C"/>
<path d="M322.001 233.613C321.591 234.333 321.201 235.033 320.811 235.733L320.361 236.543C320.242 236.705 320.162 236.892 320.128 237.09C320.093 237.288 320.104 237.491 320.161 237.683H317.901C317.901 237.823 317.901 237.923 317.901 238.033V240.033C317.901 240.573 317.681 240.803 317.141 240.803H315.201C314.711 240.803 314.491 240.563 314.481 240.083V237.673H307.101C306.982 237.692 306.861 237.676 306.751 237.628C306.641 237.581 306.548 237.502 306.481 237.403C306.419 237.306 306.387 237.193 306.387 237.078C306.387 236.963 306.419 236.851 306.481 236.753L309.241 231.833C309.431 231.493 309.411 231.453 309.021 231.443H308.241C308.126 231.459 308.009 231.439 307.907 231.385C307.805 231.331 307.722 231.247 307.671 231.143C307.622 231.039 307.605 230.922 307.623 230.808C307.641 230.694 307.692 230.588 307.771 230.503C308.951 228.883 310.121 227.263 311.301 225.653L311.421 225.483C311.531 225.323 311.481 225.233 311.301 225.223H310.671C310.551 225.241 310.428 225.22 310.321 225.165C310.213 225.109 310.126 225.021 310.071 224.913C310.024 224.808 310.009 224.692 310.027 224.579C310.044 224.465 310.094 224.359 310.171 224.273C311.271 222.673 312.361 221.063 313.451 219.463C313.491 219.418 313.524 219.368 313.551 219.313C313.586 219.236 313.613 219.156 313.631 219.073C313.552 219.035 313.467 219.011 313.381 219.003C313.224 219.013 313.067 219.013 312.911 219.003C312.761 219.003 312.551 218.893 312.501 218.783C312.475 218.703 312.468 218.618 312.48 218.535C312.492 218.452 312.523 218.373 312.571 218.303C313.141 217.493 313.731 216.713 314.321 215.913L315.651 214.113C315.961 213.683 316.311 213.693 316.651 214.113C317.651 215.483 318.651 216.853 319.651 218.233C319.756 218.388 319.802 218.577 319.781 218.763C319.721 219.013 319.461 218.993 319.251 219.003C319.041 219.013 318.831 219.003 318.621 219.083C318.711 219.268 318.811 219.449 318.921 219.623L322.081 224.263C322.301 224.583 322.311 224.853 322.081 225.043C321.956 225.14 321.807 225.199 321.651 225.213C321.451 225.213 321.241 225.213 321.031 225.213C320.946 225.231 320.862 225.254 320.781 225.283C320.8 225.367 320.83 225.447 320.871 225.523L323.141 228.643C323.204 228.707 323.24 228.793 323.24 228.883C323.24 228.973 323.204 229.059 323.141 229.123C322.531 229.933 321.951 230.743 321.351 231.563C321.186 231.717 321.068 231.914 321.011 232.132C320.953 232.349 320.959 232.579 321.027 232.794C321.095 233.009 321.223 233.199 321.395 233.345C321.567 233.49 321.777 233.583 322.001 233.613Z" fill="#4A4C4C"/>
<path d="M327.09 237.733H321.32C320.87 237.733 320.7 237.413 320.92 237.023C321.61 235.773 322.31 234.533 323 233.293C323.06 233.193 323.11 233.093 323.2 232.913H322.37C322.266 232.936 322.158 232.924 322.062 232.879C321.966 232.833 321.888 232.758 321.84 232.663C321.73 232.453 321.84 232.283 321.96 232.123L324.63 228.443C324.69 228.363 324.74 228.273 324.85 228.093C324.634 228.114 324.416 228.114 324.2 228.093C324.021 228.07 323.854 227.993 323.72 227.873C323.57 227.703 323.72 227.503 323.8 227.333L326.31 223.653C326.38 223.537 326.443 223.417 326.5 223.293H325.88C325.55 223.293 325.42 223.033 325.61 222.763C326.42 221.653 327.24 220.543 328.06 219.443C328.092 219.383 328.141 219.332 328.2 219.297C328.259 219.261 328.326 219.243 328.395 219.243C328.464 219.243 328.531 219.261 328.59 219.297C328.649 219.332 328.697 219.383 328.73 219.443C329.55 220.533 330.36 221.633 331.16 222.733C331.37 223.013 331.24 223.263 330.88 223.283H330.29C330.36 223.413 330.4 223.523 330.46 223.613L332.89 227.173C332.94 227.253 333 227.333 333.05 227.423C333.095 227.486 333.122 227.56 333.127 227.637C333.132 227.713 333.115 227.79 333.079 227.858C333.042 227.926 332.987 227.982 332.92 228.02C332.853 228.058 332.777 228.077 332.7 228.073C332.47 228.073 332.25 228.073 331.94 228.073C332.006 228.198 332.08 228.318 332.16 228.433L334.77 232.033C334.91 232.213 335.07 232.393 334.94 232.653C334.81 232.913 334.58 232.893 334.35 232.893H333.61C333.656 233.016 333.71 233.137 333.77 233.253C334.45 234.483 335.14 235.703 335.82 236.923C336.1 237.423 335.93 237.713 335.36 237.713H329.72C329.72 237.843 329.72 237.953 329.72 238.053C329.72 238.773 329.72 239.493 329.72 240.213C329.72 240.663 329.53 240.843 329.08 240.843H327.79C327.28 240.843 327.11 240.673 327.11 240.173C327.11 239.473 327.11 238.773 327.11 238.073L327.09 237.733Z" fill="#4A4C4C"/>
<path d="M1198.53 232.303V241.453H958.422V239.153L960.582 236.153H973.202L975.292 238.383H978.392V239.543H988.202L992.132 235.613L996.542 239.613L1003.07 230.613V228.213H1005.19V230.213H1009.32V231.943H1015L1020.62 226.313H1027.49V223.313L1030.33 220.483H1031.05V217.833H1034.71L1034.13 218.413H1033.13V219.613H1034.13V223.463H1036.44V222.613H1038.65V221.073H1041.15V222.513H1042.68V228.723H1044.9V226.073L1048.9 209.343V201.613H1049.67V196.903H1050.54V201.613H1051.6V209.023L1055.54 226.023V228.433H1058.04V227.183H1061.88V236.313H1064.19V231.503H1077.75V232.503H1079.48V237.413H1084.38V235.203H1087.65V239.143H1090.15V235.873H1093.51V238.463H1099.67V240.103H1101.11V236.933H1103.42V233.933H1104.86V236.233H1106.11V233.163H1106.88V231.513C1107.05 231.423 1107.22 231.333 1107.38 231.233H1109V230.233L1109.39 229.963H1112.46L1122.11 227.783L1123.9 227.373H1132.27V225.453H1139.57L1144.67 229.873V232.083H1145.73V233.813H1150L1152.11 230.813H1157.11V224.663H1158.84V227.163H1159.61V231.003H1165.19L1166.97 232.783V234.463H1168.17V231.213H1171.17V227.463H1172.17V231.313L1173.28 232.423V236.223H1176V234.103H1176.5V233.413H1187.86V234.613H1189.86V232.983H1191.86V231.043H1197.37V232.343L1198.53 232.303Z" fill="#4A4C4C"/>
<path d="M677.07 250.323C657.92 250.323 642.23 233.513 623.45 229.933C619.23 229.123 614.89 228.883 610.68 227.993C599.06 225.533 588.5 218.203 576.6 218.593C570.96 218.773 565.5 220.723 559.86 220.873C547.6 221.193 536.64 213.103 524.4 212.313C513.76 211.623 503.72 216.493 493.4 219.163C485.96 221.083 478.24 221.873 470.57 222.643L424.64 227.293C417.22 228.043 409.64 230.523 402.78 233.293C394.17 236.783 377.44 226.543 368.65 229.593C359.86 232.643 352.79 247.773 344.19 251.223C343.328 251.491 342.565 252.009 342 252.713C340.19 255.473 345.07 257.713 348.48 257.713L639.93 258.173L671.72 258.223C674.72 258.223 678.05 258.053 679.95 255.893C681.85 253.733 679.81 249.313 677.05 250.343" fill="#4A4C4C"/>
<path d="M719.14 241.013C714.59 241.013 710.87 234.573 706.41 233.193C705.41 232.883 704.41 232.793 703.41 232.453C700.65 231.453 698.15 228.693 695.32 228.843C693.99 228.913 692.69 229.663 691.32 229.723C688.41 229.843 685.81 226.723 682.91 226.433C680.38 226.173 678 228.043 675.55 229.063C673.803 229.724 671.984 230.174 670.13 230.403L657.6 232.453C655.771 232.619 653.999 233.182 652.41 234.103C650.41 235.443 648.69 237.923 646.61 239.103C644.53 240.283 642.18 240.053 640.14 241.373C639.912 241.505 639.73 241.704 639.62 241.943C639.19 243.003 640.35 243.853 641.16 243.853L710.33 244.023H717.87C718.254 244.098 718.652 244.052 719.01 243.893C719.368 243.734 719.668 243.469 719.87 243.133C720.32 242.303 719.87 240.613 719.19 241.003" fill="#4A4C4C"/>
<path d="M979.688 241.063C972.828 241.063 967.208 234.733 960.478 233.373C958.958 233.073 957.408 232.983 955.898 232.643C951.738 231.723 947.958 228.953 943.688 229.103C941.688 229.173 939.688 229.903 937.688 229.963C933.298 230.083 929.368 227.033 924.988 226.733C921.178 226.473 917.578 228.313 913.888 229.313C911.201 229.969 908.466 230.411 905.708 230.633L886.788 232.633C884.112 232.79 881.474 233.339 878.958 234.263C875.878 235.583 873.348 238.013 870.198 239.163C867.048 240.313 863.518 240.103 860.438 241.403C860.122 241.502 859.845 241.698 859.648 241.963C858.998 242.963 860.748 243.833 861.968 243.833L966.388 244.013H977.778C978.311 244.097 978.856 244.062 979.375 243.911C979.893 243.761 980.372 243.499 980.778 243.143C981.448 242.323 980.728 240.653 979.778 241.043" fill="#4A4C4C"/>
<path d="M894.719 240.933C890.939 240.933 887.839 237.443 884.129 236.693C883.299 236.533 882.439 236.483 881.609 236.293C879.319 235.783 877.229 234.293 874.879 234.343C873.769 234.343 872.689 234.783 871.569 234.813C869.149 234.883 866.989 233.203 864.569 233.033C862.469 232.893 860.489 233.903 858.449 234.463C856.967 234.824 855.459 235.065 853.939 235.183L843.519 236.293C842.042 236.379 840.587 236.683 839.199 237.193C837.499 237.913 836.099 239.263 834.369 239.893C832.639 240.523 830.689 240.403 828.989 241.123C828.816 241.179 828.666 241.287 828.559 241.433C828.199 242.003 829.159 242.433 829.839 242.433L887.389 242.523H893.669C893.957 242.566 894.252 242.546 894.532 242.463C894.812 242.38 895.07 242.237 895.289 242.043C895.669 241.593 895.289 240.673 894.719 240.883" fill="#4A4C4C"/>
<path d="M364 244.613H168.75V241.933L171.7 241.453L173.25 240.113H174.86L177.42 238.763L179.57 238.173L181.46 237.603L182.46 238.133L186.24 237.603L187.31 235.143H190.61L193.3 233.963L197.48 234.423L198.89 232.733L203.39 232.063C203.39 232.063 204.8 232.353 204.8 232.063C204.942 231.588 205.14 231.132 205.39 230.703H208.59L209.52 229.843L211.47 228.403L214.17 228.983L215.04 228.403H217.39C217.8 228.743 218.8 228.603 219.47 228.603L221.03 228.813L222.51 227.993L223.72 228.233L224.87 228.533L226.75 227.663L228.23 227.733C228.269 227.744 228.311 227.744 228.35 227.733C230.24 227.243 232.05 226.543 233.86 225.973L237.93 224.683C239.04 224.232 240.222 223.982 241.42 223.943C242.64 223.943 243.84 224.003 245.03 224.093C246.076 224.251 247.138 224.275 248.19 224.163C248.93 224.063 249.63 223.883 250.34 223.743C253.374 223.286 256.45 223.168 259.51 223.393C259.69 223.643 259.68 223.983 260.2 224.123C260.53 224.182 260.865 224.205 261.2 224.193H262.08C263.55 224.193 264.91 224.903 266.36 225.043C267.81 225.183 269.59 224.553 271.11 224.723C272.63 224.893 271.43 223.723 273.11 223.883C273.11 223.883 274.03 224.523 274.11 224.513C274.487 224.39 274.849 224.225 275.19 224.023C275.89 223.753 276.26 224.213 276.28 224.023C276.3 223.833 276.45 224.273 276.55 224.223C276.65 224.173 276.55 224.433 276.68 224.433C278.16 224.433 279.68 224.433 281.14 224.433C281.346 224.413 281.554 224.413 281.76 224.433C281.993 224.471 282.224 224.525 282.45 224.593C284.09 225.133 285.73 225.653 287.38 226.183L288.9 227.973L291.77 228.883L294.45 228.303L299.39 229.203V230.293C299.39 230.293 300.74 230.683 301.01 230.743C301.28 230.803 308.1 230.743 308.1 230.743L309.27 231.903L312.27 232.223L315.05 233.943L317.56 233.443L320.7 234.613H323.48L325.99 235.253L326.71 236.733L329.95 236.413L333.95 238.213L334.49 239.043L337.27 238.603L340.68 239.753L341.3 240.653H346L346.46 242.193L350.68 242.903H353.45V242.063L355.69 242.323L356.95 243.223H359.83L364 244.613Z" fill="#040707"/>
<path d="M1440 241H0V263H1440V241Z" fill="#040707"/>
<path d="M1074.56 243.003C1074.64 243.013 1074.72 243.013 1074.8 243.003H1232.89V239.883H1228.56C1228.51 239.902 1228.45 239.902 1228.4 239.883C1228.37 239.846 1228.35 239.801 1228.34 239.753C1228.29 239.505 1228.21 239.263 1228.1 239.033C1228.02 238.813 1227.95 238.583 1227.87 238.363C1227.7 237.843 1227.52 237.363 1227.35 236.803C1227.33 236.741 1227.3 236.683 1227.26 236.633C1227.18 236.608 1227.1 236.608 1227.03 236.633H1225.88C1225.49 236.653 1225.09 236.613 1224.71 236.513C1224.51 236.461 1224.33 236.365 1224.17 236.233C1224.02 236.113 1223.94 235.763 1223.8 235.703C1223.72 235.678 1223.64 235.678 1223.56 235.703C1223.16 235.849 1222.78 236.037 1222.43 236.263C1221.99 236.483 1221.33 236.603 1220.99 236.123C1220.85 235.933 1220.39 235.463 1220.32 235.343C1220.03 235.067 1219.69 234.844 1219.32 234.683C1219 234.563 1218.93 234.683 1218.44 234.683C1217.95 234.683 1217.32 234.683 1217.21 234.683C1216.69 234.683 1216.21 234.223 1215.68 234.063C1215.09 233.873 1214.45 233.913 1213.89 234.173L1213.55 234.343C1212.72 234.634 1211.84 234.693 1210.98 234.513C1210.26 234.328 1209.55 234.104 1208.86 233.843C1208.1 233.66 1207.33 233.556 1206.55 233.533C1205.85 233.486 1205.15 233.581 1204.49 233.813C1203.81 234.043 1203.1 234.142 1202.39 234.103C1201.86 234.103 1201.33 234.103 1200.81 234.103C1200.31 234.126 1199.82 234.21 1199.34 234.353C1199.3 234.363 1199.27 234.363 1199.23 234.353C1199.19 234.336 1199.15 234.309 1199.12 234.273C1198.8 233.922 1198.4 233.651 1197.96 233.483C1197.51 233.256 1197.02 233.156 1196.52 233.193C1196.13 233.263 1195.73 233.343 1195.34 233.433C1195.05 233.53 1194.76 233.607 1194.47 233.663C1194.12 233.7 1193.76 233.717 1193.41 233.713C1192.71 233.677 1192 233.73 1191.31 233.873C1190.9 233.983 1190.51 234.153 1190.1 234.283C1189.39 234.465 1188.67 234.582 1187.94 234.633C1187.72 234.633 1187.5 234.633 1187.28 234.693C1187.05 234.767 1186.81 234.807 1186.57 234.813C1186.44 234.785 1186.32 234.741 1186.2 234.683C1185.67 234.444 1185.1 234.308 1184.52 234.283C1183.38 234.346 1182.26 234.523 1181.16 234.813C1180.85 234.899 1180.55 235.049 1180.3 235.253C1179.98 235.453 1179.67 235.653 1179.3 235.833C1178.86 236.054 1178.43 236.302 1178.02 236.573C1177.58 236.893 1177.28 237.443 1176.81 237.683C1176.19 237.933 1175.55 238.114 1174.9 238.223L1172.9 238.753C1172.66 238.813 1172.42 238.813 1172.18 238.753C1172.03 238.709 1171.87 238.709 1171.72 238.753C1171.72 238.753 1171.62 238.843 1171.56 238.853C1171.5 238.863 1171.39 238.793 1171.31 238.763C1171.18 238.71 1171.04 238.689 1170.89 238.703C1170.75 238.717 1170.62 238.765 1170.5 238.843C1170.5 238.733 1170.36 238.713 1170.28 238.763C1170.2 238.813 1170.09 238.883 1170.01 238.763C1169.93 238.643 1170.01 238.663 1169.94 238.613C1169.89 238.527 1169.8 238.464 1169.7 238.438C1169.6 238.412 1169.5 238.425 1169.41 238.473C1169.21 238.563 1168.93 238.843 1168.7 238.753C1168.47 238.663 1168.54 238.593 1168.46 238.503C1168.41 238.449 1168.34 238.41 1168.27 238.389C1168.2 238.368 1168.12 238.366 1168.05 238.383C1167.89 238.383 1167.75 238.553 1167.59 238.563C1167.43 238.573 1167.3 238.453 1167.14 238.453C1166.98 238.453 1166.85 238.563 1166.7 238.573C1166.55 238.583 1166.26 238.443 1166.07 238.573L1165.98 238.633C1165.85 238.703 1165.74 238.633 1165.62 238.543C1165.46 238.499 1165.3 238.499 1165.14 238.543C1164.63 238.667 1164.13 238.831 1163.65 239.033C1162.95 239.243 1162.21 239.243 1161.51 239.033C1161.43 239.024 1161.35 239.024 1161.27 239.033C1161.06 239.051 1160.86 239.135 1160.7 239.273V239.583C1160.43 239.59 1160.17 239.659 1159.94 239.783C1159.8 239.873 1159.66 239.953 1159.52 240.023C1159.38 240.048 1159.23 240.048 1159.09 240.023C1158.91 240.051 1158.74 240.098 1158.57 240.163L1157.44 240.493H1157.32C1157.19 240.493 1157.1 240.283 1157.01 240.193C1156.88 240.079 1156.73 240 1156.56 239.963C1156.35 239.963 1156.13 239.893 1155.92 239.823C1155.69 239.718 1155.47 239.602 1155.25 239.473C1155.14 239.409 1155.02 239.371 1154.9 239.362C1154.77 239.354 1154.64 239.375 1154.53 239.423C1154.48 239.46 1154.43 239.487 1154.37 239.503C1154.27 239.503 1154.19 239.423 1154.11 239.353C1153.95 239.21 1153.77 239.102 1153.57 239.037C1153.36 238.971 1153.15 238.95 1152.94 238.973C1152.87 238.988 1152.8 238.988 1152.74 238.973C1152.68 238.95 1152.63 238.916 1152.58 238.873L1151.74 238.123C1151.7 238.081 1151.65 238.05 1151.59 238.033C1151.54 238.024 1151.49 238.024 1151.44 238.033C1151.16 238.118 1150.88 238.158 1150.59 238.153C1150.31 238.122 1150.03 238.197 1149.8 238.363L1149.52 237.953C1149.49 237.912 1149.46 237.875 1149.43 237.843C1149.37 237.829 1149.31 237.829 1149.25 237.843H1148.78C1148.74 237.834 1148.69 237.834 1148.65 237.843C1148.61 237.875 1148.58 237.912 1148.55 237.953C1148.44 238.051 1148.32 238.124 1148.18 238.169C1148.05 238.214 1147.9 238.229 1147.76 238.213H1146.94C1146.88 238.192 1146.82 238.192 1146.77 238.213C1146.72 238.274 1146.68 238.346 1146.66 238.423C1146.56 238.653 1146.38 238.643 1146.2 238.743C1145.99 238.849 1145.82 239.026 1145.73 239.243C1145.71 239.299 1145.69 239.35 1145.65 239.393C1145.62 239.429 1145.58 239.456 1145.54 239.473L1145.11 239.683C1145.07 239.694 1145.04 239.719 1145.02 239.753C1145.02 239.753 1145.02 239.813 1145.02 239.843C1145.02 239.873 1145.02 240.113 1144.96 240.153C1144.9 240.193 1144.69 240.153 1144.59 240.153C1144.45 240.187 1144.31 240.17 1144.18 240.103C1144.11 240.059 1144.06 240.001 1144.02 239.933L1143.77 239.603C1143.73 239.536 1143.68 239.481 1143.61 239.443C1143.55 239.429 1143.49 239.429 1143.43 239.443C1143.1 239.492 1142.76 239.492 1142.43 239.443C1142.21 239.383 1142.07 238.983 1141.98 238.763C1141.96 238.723 1141.94 238.686 1141.91 238.653C1141.87 238.619 1141.82 238.598 1141.77 238.593L1140.46 238.253C1140.46 238.253 1140.19 238.573 1140.14 238.603C1139.97 238.666 1139.8 238.71 1139.62 238.733L1138.44 239.013C1138.41 239.193 1138.34 239.364 1138.24 239.513C1138.19 239.571 1138.14 239.621 1138.08 239.663C1137.87 239.775 1137.68 239.92 1137.52 240.093C1137.38 240.255 1137.26 240.437 1137.17 240.633C1136.91 240.482 1136.66 240.311 1136.43 240.123C1136.2 239.947 1135.91 239.855 1135.62 239.863C1135.32 239.913 1135.02 239.875 1134.74 239.753C1134.57 239.611 1134.38 239.491 1134.18 239.393C1134.08 239.379 1133.97 239.379 1133.87 239.393H1132.67C1132.36 239.393 1131.9 239.523 1131.67 239.163C1131.58 238.993 1131.55 238.803 1131.47 238.643C1131.4 238.521 1131.3 238.416 1131.18 238.335C1131.06 238.254 1130.93 238.199 1130.79 238.173C1130.52 238.103 1130.25 238.103 1129.98 238.043C1129.84 238.008 1129.7 237.947 1129.58 237.863C1129.43 237.73 1129.3 237.57 1129.21 237.393L1128.73 236.603C1128.7 236.546 1128.66 236.498 1128.61 236.463C1128.55 236.443 1128.49 236.443 1128.43 236.463C1128.16 236.483 1127.88 236.483 1127.61 236.463C1127.39 236.401 1127.18 236.292 1127.01 236.143C1126.67 235.818 1126.29 235.542 1125.87 235.323C1125.54 235.227 1125.21 235.179 1124.87 235.183C1124.81 235.194 1124.75 235.194 1124.69 235.183C1124.62 235.151 1124.57 235.107 1124.52 235.053L1123.45 234.053C1123.42 234.01 1123.38 233.975 1123.33 233.953C1123.28 233.943 1123.23 233.943 1123.18 233.953L1122.01 234.033C1121.35 234.04 1120.69 233.925 1120.07 233.693C1119.49 233.537 1118.88 233.479 1118.28 233.523C1118.16 233.549 1118.03 233.549 1117.91 233.523C1117.83 233.478 1117.76 233.421 1117.7 233.353L1117.1 232.763C1116.98 232.628 1116.84 232.513 1116.68 232.423C1116.44 232.324 1116.18 232.282 1115.92 232.303H1113.33C1113.12 232.322 1112.93 232.422 1112.79 232.583C1112.68 232.703 1112.52 233.033 1112.35 233.013C1111.91 233.007 1111.48 232.929 1111.07 232.783C1110.68 232.593 1110.33 232.303 1109.95 232.103C1109.88 232.058 1109.81 232.03 1109.73 232.023C1109.65 232.021 1109.56 232.038 1109.49 232.073L1107.83 232.683C1107.8 232.694 1107.77 232.715 1107.75 232.743C1107.75 232.743 1107.75 232.823 1107.75 232.873C1107.76 233.1 1107.76 233.327 1107.75 233.553C1107.75 233.587 1107.75 233.622 1107.74 233.654C1107.73 233.687 1107.71 233.717 1107.69 233.743C1107.64 233.763 1107.59 233.763 1107.54 233.743H1106.44L1105.54 234.363C1105.36 234.505 1105.15 234.592 1104.92 234.613C1104.72 234.613 1104.51 234.613 1104.31 234.693C1104.11 234.773 1103.95 234.693 1103.78 234.693C1103.71 234.706 1103.64 234.734 1103.58 234.775C1103.52 234.817 1103.47 234.87 1103.43 234.933C1103.34 235.083 1103.33 235.303 1103.19 235.393C1103.13 235.408 1103.07 235.408 1103.02 235.393L1102.02 235.523C1101.88 235.537 1101.74 235.56 1101.61 235.593C1101.38 235.655 1101.16 235.742 1100.95 235.853C1100.78 235.974 1100.6 236.075 1100.41 236.153C1100.2 236.188 1099.99 236.188 1099.79 236.153L1098.36 236.043C1098.34 236.052 1098.31 236.052 1098.29 236.043C1098.26 236.014 1098.24 235.975 1098.23 235.933C1098.14 235.593 1098.07 235.223 1097.97 234.883C1097.87 234.639 1097.67 234.445 1097.43 234.343C1097.22 234.219 1097.02 234.079 1096.84 233.923C1096.76 233.841 1096.66 233.78 1096.55 233.743C1096.47 233.733 1096.4 233.733 1096.32 233.743L1095.32 233.863C1095.02 233.863 1094.69 233.863 1094.44 234.053C1094.32 234.177 1094.24 234.324 1094.18 234.483L1093.97 234.943C1093.95 234.983 1093.93 235.021 1093.9 235.053C1093.85 235.068 1093.79 235.068 1093.74 235.053H1092.9C1092.74 235.038 1092.58 235.038 1092.42 235.053C1092.3 235.079 1092.19 235.116 1092.08 235.163C1091.71 235.33 1091.33 235.474 1090.95 235.593C1090.54 235.663 1090.12 235.683 1089.71 235.653C1089.65 235.663 1089.59 235.663 1089.53 235.653C1089.46 235.63 1089.41 235.592 1089.36 235.543L1088.25 234.623C1088.19 234.567 1088.12 234.523 1088.04 234.493H1086.17C1086.13 234.512 1086.1 234.539 1086.08 234.573C1085.75 234.875 1085.55 235.29 1085.52 235.733C1085.24 235.723 1084.97 235.812 1084.75 235.983C1084.52 236.133 1084.31 236.323 1084.07 236.453C1083.91 236.516 1083.77 236.611 1083.65 236.733C1083.51 236.893 1083.43 237.213 1083.18 237.183C1083.13 237.174 1083.09 237.174 1083.04 237.183C1082.94 237.183 1082.87 237.273 1082.81 237.353C1082.67 237.502 1082.52 237.636 1082.36 237.753C1081.81 238.018 1081.32 238.388 1080.91 238.843C1080.86 238.949 1080.78 239.039 1080.68 239.103C1080.54 239.158 1080.39 239.158 1080.26 239.103C1080.2 239.088 1080.14 239.088 1080.09 239.103C1080.05 239.117 1080.01 239.141 1079.98 239.173C1079.69 239.423 1079.34 239.863 1078.98 239.963C1078.62 240.063 1078.47 239.963 1078.24 239.963C1078.08 240.031 1077.93 240.134 1077.81 240.263C1077.58 240.469 1077.32 240.65 1077.05 240.803C1076.86 240.884 1076.69 240.981 1076.52 241.093C1076.43 241.205 1076.38 241.338 1076.36 241.478C1076.33 241.618 1076.35 241.761 1076.4 241.893H1076.14C1075.96 241.858 1075.77 241.858 1075.59 241.893C1075.3 241.963 1075.2 242.203 1075 242.413C1075 242.383 1074.54 242.993 1074.56 243.003Z" fill="#040707"/>
<path d="M549.699 242.003H707.999V240.493H703.699C703.646 240.504 703.592 240.504 703.539 240.493C703.539 240.493 703.539 240.493 703.469 240.433C703.399 240.373 703.299 240.183 703.229 240.083C703.159 239.983 703.079 239.863 702.999 239.763C702.829 239.503 702.659 239.253 702.479 239.003C702.459 238.967 702.428 238.939 702.389 238.923C702.317 238.903 702.241 238.903 702.169 238.923H700.999C700.612 238.929 700.224 238.909 699.839 238.863C699.651 238.84 699.466 238.793 699.289 238.723C699.149 238.663 699.059 238.493 698.919 238.463C698.843 238.453 698.766 238.453 698.689 238.463C698.304 238.531 697.924 238.621 697.549 238.733C697.077 238.885 696.567 238.864 696.109 238.673C695.969 238.573 695.519 238.343 695.449 238.293C695.131 238.144 694.795 238.036 694.449 237.973C694.16 237.953 693.869 237.953 693.579 237.973C693.089 237.973 692.449 237.973 692.349 237.973C691.831 237.92 691.319 237.819 690.819 237.673C690.225 237.558 689.614 237.558 689.019 237.673L688.679 237.753C687.834 237.899 686.973 237.929 686.119 237.843C685.379 237.783 684.709 237.603 683.989 237.513C683.222 237.423 682.451 237.373 681.679 237.363C680.99 237.346 680.301 237.389 679.619 237.493C678.926 237.614 678.223 237.665 677.519 237.643C676.989 237.643 676.519 237.643 675.939 237.643C675.447 237.658 674.957 237.698 674.469 237.763H674.369H674.259C673.891 237.577 673.496 237.449 673.089 237.383C672.618 237.268 672.134 237.217 671.649 237.233L670.479 237.353C670.179 237.353 669.909 237.453 669.599 237.473H668.539C667.838 237.455 667.137 237.481 666.439 237.553C666.029 237.603 665.639 237.683 665.229 237.743C664.529 237.853 663.799 237.873 663.079 237.913H662.419C662.181 237.953 661.94 237.974 661.699 237.973C661.569 237.973 661.449 237.973 661.329 237.913C660.777 237.794 660.214 237.728 659.649 237.713C658.509 237.713 657.409 237.883 656.289 237.973C655.996 238.015 655.708 238.085 655.429 238.183L654.429 238.473C653.999 238.583 653.549 238.683 653.149 238.823C652.757 239.027 652.353 239.208 651.939 239.363C651.307 239.483 650.67 239.569 650.029 239.623L648.029 239.883C647.787 239.913 647.542 239.913 647.299 239.883C647.15 239.863 646.999 239.863 646.849 239.883H646.679C646.599 239.893 646.519 239.893 646.439 239.883C646.173 239.823 645.896 239.823 645.629 239.883C645.629 239.883 645.489 239.823 645.399 239.883C645.315 239.912 645.223 239.912 645.139 239.883C645.105 239.865 645.078 239.837 645.059 239.803C644.979 239.759 644.891 239.73 644.8 239.72C644.709 239.71 644.617 239.718 644.529 239.743C644.307 239.831 644.069 239.876 643.829 239.873C643.74 239.848 643.655 239.807 643.579 239.753C643.449 239.702 643.309 239.681 643.169 239.693C643.018 239.733 642.864 239.763 642.709 239.783C642.559 239.783 642.419 239.783 642.269 239.783C642.119 239.783 641.979 239.783 641.819 239.843C641.613 239.818 641.405 239.818 641.199 239.843H641.109C640.984 239.853 640.858 239.836 640.739 239.793C640.58 239.773 640.419 239.773 640.259 239.793C639.759 239.848 639.262 239.928 638.769 240.033C638.059 240.133 637.339 240.133 636.629 240.033H636.399C636.204 240.04 636.011 240.081 635.829 240.153V240.303C635.569 240.305 635.311 240.339 635.059 240.403L634.649 240.513C634.503 240.533 634.355 240.533 634.209 240.513C634.039 240.513 633.859 240.513 633.699 240.583L632.559 240.743H632.449C632.337 240.719 632.231 240.671 632.139 240.603C631.993 240.54 631.838 240.499 631.679 240.483C631.469 240.483 631.249 240.483 631.039 240.423C630.829 240.363 630.599 240.303 630.369 240.253C630.135 240.203 629.893 240.203 629.659 240.253C629.606 240.264 629.552 240.264 629.499 240.253C629.404 240.256 629.311 240.232 629.229 240.183C628.862 240.034 628.465 239.973 628.069 240.003H627.859L627.709 239.953L626.859 239.583H626.709H626.559C626.281 239.623 626 239.644 625.719 239.643C625.452 239.623 625.183 239.657 624.929 239.743L624.649 239.543H624.549C624.493 239.533 624.435 239.533 624.379 239.543H623.779L623.669 239.603C623.422 239.704 623.155 239.745 622.889 239.723H622.069C622.01 239.712 621.949 239.712 621.889 239.723C621.829 239.723 621.819 239.783 621.779 239.823C621.739 239.863 621.509 239.923 621.319 239.973C621.144 240.008 620.984 240.095 620.859 240.223C620.837 240.251 620.81 240.275 620.779 240.293H620.659L620.239 240.393C620.207 240.383 620.172 240.383 620.139 240.393C620.139 240.393 620.139 240.533 620.069 240.553C619.949 240.563 619.829 240.563 619.709 240.553C619.57 240.573 619.428 240.573 619.289 240.553L619.129 240.473L618.889 240.313C618.837 240.279 618.779 240.252 618.719 240.233H618.539C618.206 240.255 617.872 240.255 617.539 240.233C617.354 240.182 617.194 240.064 617.089 239.903C617.066 239.899 617.042 239.899 617.019 239.903C616.976 239.894 616.932 239.894 616.889 239.903L615.569 239.733C615.569 239.733 615.309 239.893 615.259 239.903C615.084 239.937 614.907 239.96 614.729 239.973L613.549 240.103C613.514 240.207 613.443 240.296 613.349 240.353L613.189 240.423C612.995 240.47 612.807 240.541 612.629 240.633C612.504 240.704 612.387 240.788 612.279 240.883C612.019 240.823 611.789 240.713 611.549 240.633C611.285 240.547 611.007 240.506 610.729 240.513C610.438 240.529 610.146 240.509 609.859 240.453C609.672 240.386 609.482 240.329 609.289 240.283C609.186 240.273 609.082 240.273 608.979 240.283H607.779C607.469 240.283 607.009 240.343 606.829 240.173C606.649 240.003 606.719 239.993 606.629 239.913C606.449 239.76 606.232 239.657 605.999 239.613C605.729 239.613 605.449 239.613 605.179 239.543C604.893 239.537 604.62 239.426 604.409 239.233L603.929 238.853C603.901 238.819 603.862 238.794 603.819 238.783C603.76 238.773 603.699 238.773 603.639 238.783C603.363 238.798 603.086 238.798 602.809 238.783C602.603 238.762 602.401 238.711 602.209 238.633C601.846 238.464 601.468 238.33 601.079 238.233C600.748 238.188 600.414 238.168 600.079 238.173H599.899C599.841 238.158 599.784 238.138 599.729 238.113L598.669 237.613L598.539 237.563H598.389H597.229C596.575 237.563 595.923 237.506 595.279 237.393C594.686 237.316 594.087 237.29 593.489 237.313C593.366 237.323 593.242 237.323 593.119 237.313C593.05 237.294 592.983 237.268 592.919 237.233L592.319 236.943C592.182 236.873 592.038 236.816 591.889 236.773C591.637 236.747 591.382 236.747 591.129 236.773H588.549C588.36 236.773 588.174 236.821 588.009 236.913C587.889 236.973 587.729 237.133 587.559 237.123C587.13 237.114 586.702 237.074 586.279 237.003C585.889 236.913 585.549 236.773 585.159 236.673H584.949C584.87 236.664 584.789 236.664 584.709 236.673L583.049 236.973H582.959C582.951 236.996 582.951 237.021 582.959 237.043C582.979 237.152 582.979 237.264 582.959 237.373C582.966 237.387 582.97 237.403 582.97 237.418C582.97 237.434 582.966 237.449 582.959 237.463C582.906 237.474 582.852 237.474 582.799 237.463H581.699L580.799 237.763C580.6 237.836 580.391 237.876 580.179 237.883H579.569C579.399 237.883 579.219 237.883 579.039 237.883C578.914 237.891 578.793 237.932 578.689 238.003C578.599 238.073 578.589 238.183 578.449 238.223C578.396 238.233 578.342 238.233 578.289 238.223L577.289 238.283H576.869C576.646 238.306 576.425 238.35 576.209 238.413C576.039 238.413 575.869 238.523 575.669 238.553C575.466 238.573 575.262 238.573 575.059 238.553H573.629H573.549C573.538 238.549 573.527 238.543 573.518 238.534C573.51 238.525 573.503 238.515 573.499 238.503C573.409 238.333 573.329 238.163 573.229 237.993C573.086 237.851 572.9 237.759 572.699 237.733C572.489 237.673 572.289 237.603 572.109 237.533C572.015 237.488 571.913 237.457 571.809 237.443H571.589C571.249 237.443 570.919 237.443 570.589 237.503C570.293 237.491 569.997 237.522 569.709 237.593C569.609 237.644 569.52 237.716 569.449 237.803L569.239 238.023C569.223 238.051 569.199 238.072 569.169 238.083H568.169C568.009 238.073 567.849 238.073 567.689 238.083H567.349C566.977 238.174 566.599 238.244 566.219 238.293C565.81 238.318 565.399 238.318 564.989 238.293H564.799H564.629L563.519 237.843C563.454 237.817 563.388 237.797 563.319 237.783H561.439H561.349C561.059 237.933 560.789 238.113 560.789 238.343C560.53 238.331 560.272 238.372 560.029 238.463C559.799 238.533 559.589 238.633 559.339 238.693C559.195 238.723 559.055 238.767 558.919 238.823C558.779 238.903 558.699 239.063 558.449 239.043H558.309C558.227 239.051 558.148 239.079 558.079 239.123C557.937 239.206 557.786 239.273 557.629 239.323C557.127 239.434 556.643 239.612 556.189 239.853C556.119 239.911 556.037 239.952 555.949 239.973C555.814 240.002 555.674 240.002 555.539 239.973C555.479 239.968 555.419 239.968 555.359 239.973C555.323 239.969 555.286 239.969 555.249 239.973C554.935 240.146 554.599 240.274 554.249 240.353C554.009 240.353 553.749 240.353 553.509 240.353C553.363 240.377 553.221 240.424 553.089 240.493C552.849 240.593 552.589 240.683 552.329 240.763C552.069 240.843 551.949 240.833 551.789 240.893C551.753 240.907 551.72 240.93 551.693 240.959C551.666 240.987 551.646 241.022 551.635 241.059C551.623 241.097 551.62 241.136 551.626 241.175C551.632 241.214 551.647 241.251 551.669 241.283H551.409C551.226 241.268 551.042 241.268 550.859 241.283C550.65 241.324 550.452 241.409 550.279 241.533C550.071 241.671 549.877 241.828 549.699 242.003Z" fill="#040707"/>
<path d="M700.001 242.777H858V240.905H853.529C853.506 240.92 853.482 240.92 853.459 240.905C853.459 240.905 853.29 240.593 853.22 240.481L852.99 240.08L852.471 239.144C852.442 239.123 852.411 239.123 852.381 239.144C852.309 239.12 852.235 239.12 852.162 239.144H851.004C850.619 239.189 850.232 239.189 849.847 239.144C849.662 239.131 849.478 239.078 849.298 238.988C849.158 238.988 849.068 238.698 848.928 238.676H848.699C848.29 238.676 847.94 238.876 847.561 238.988C847.087 239.202 846.598 239.202 846.124 238.988L845.465 238.52C845.137 238.334 844.804 238.2 844.468 238.118C844.158 238.118 844.088 238.118 843.599 238.118H842.372C841.86 238.062 841.35 237.935 840.845 237.739C840.248 237.605 839.646 237.605 839.049 237.739H838.709C837.859 237.885 837.005 237.885 836.154 237.739C835.416 237.739 834.747 237.45 834.029 237.338C833.31 237.227 832.502 237.182 831.723 237.16C831.037 237.133 830.351 237.185 829.668 237.316C828.971 237.466 828.271 237.526 827.572 237.494H825.995C825.496 237.494 824.997 237.494 824.528 237.65H824.428H824.318C823.935 237.432 823.545 237.275 823.151 237.182C822.674 237.043 822.194 236.984 821.714 237.004L820.546 237.16C820.247 237.16 819.977 237.271 819.668 237.294H818.61C817.912 237.294 817.203 237.294 816.514 237.294L815.307 237.539C814.608 237.673 813.88 237.695 813.161 237.739H812.503C812.263 237.739 812.033 237.739 811.784 237.739H811.415C810.858 237.595 810.298 237.521 809.738 237.517C808.6 237.517 807.503 237.717 806.385 237.829C806.096 237.868 805.809 237.957 805.527 238.096C805.217 238.208 804.898 238.341 804.529 238.43C804.159 238.52 803.651 238.698 803.251 238.876C802.852 239.055 802.523 239.411 802.044 239.545C801.565 239.679 800.756 239.768 800.138 239.857L798.142 240.191C797.899 240.225 797.656 240.225 797.413 240.191C797.264 240.158 797.113 240.158 796.964 240.191H796.794H796.555C796.287 240.113 796.015 240.113 795.747 240.191C795.747 240.191 795.607 240.191 795.517 240.191C795.431 240.224 795.343 240.224 795.258 240.191H795.178C795.004 240.093 794.822 240.093 794.649 240.191C794.419 240.297 794.185 240.356 793.95 240.37C793.84 240.37 793.781 240.258 793.701 240.214C793.565 240.177 793.428 240.177 793.292 240.214C793.139 240.236 792.985 240.236 792.833 240.214C792.683 240.214 792.543 240.214 792.393 240.214C792.244 240.214 792.104 240.214 791.944 240.214C791.738 240.181 791.532 240.181 791.326 240.214H791.236C791.114 240.26 790.989 240.26 790.866 240.214C790.707 240.18 790.547 240.18 790.387 240.214C789.879 240.214 789.39 240.414 788.901 240.503C788.19 240.626 787.476 240.626 786.765 240.503H786.535C786.344 240.499 786.153 240.544 785.966 240.637V240.816C785.709 240.813 785.452 240.858 785.198 240.949L784.789 241.083C784.643 241.105 784.496 241.105 784.35 241.083H783.841L782.703 241.284H782.593C782.486 241.27 782.381 241.21 782.284 241.105C782.133 241.033 781.979 240.988 781.825 240.972H781.186C780.957 240.972 780.747 240.838 780.518 240.771C780.282 240.704 780.044 240.704 779.809 240.771H779.649C779.56 240.796 779.469 240.796 779.38 240.771C779 240.578 778.611 240.503 778.222 240.548H778.013H777.863L777.015 240.102H776.865H776.715C776.436 240.102 776.166 240.102 775.877 240.102C775.613 240.086 775.349 240.131 775.089 240.236L774.809 239.991H774.709H773.931H773.821C773.567 240.129 773.304 240.182 773.043 240.147H772.045C772.006 240.182 771.969 240.227 771.935 240.281C771.788 240.401 771.632 240.461 771.476 240.459C771.315 240.496 771.159 240.602 771.017 240.771H770.937H770.817L770.398 240.905H770.298C770.298 240.905 770.298 241.061 770.228 241.105H769.939C769.8 241.128 769.659 241.128 769.52 241.105L769.36 240.994L769.121 240.793H768.951H768.771C768.482 240.793 768.093 240.793 767.773 240.793C767.61 240.758 767.454 240.619 767.324 240.392H767.255H767.125L765.807 240.191L765.498 240.414C765.338 240.414 765.139 240.414 764.969 240.414L763.792 240.593C763.744 240.743 763.673 240.847 763.592 240.882C763.539 240.898 763.485 240.898 763.432 240.882C763.243 240.943 763.057 241.033 762.873 241.15C762.753 241.229 762.636 241.334 762.524 241.462H762.454L761.726 241.15C761.456 241.039 761.182 240.987 760.907 240.994C760.619 241.05 760.328 241.05 760.039 240.994C759.84 240.994 759.68 240.816 759.47 240.771H757.963C757.63 240.849 757.293 240.804 756.965 240.637C756.903 240.521 756.836 240.416 756.766 240.325C756.551 240.149 756.326 240.051 756.097 240.035C755.828 240.035 755.548 240.035 755.279 240.035H754.88C754.752 239.973 754.628 239.876 754.51 239.746L754.031 239.278H753.922H753.742C753.463 239.278 753.183 239.278 752.914 239.278C752.713 239.246 752.513 239.186 752.315 239.099C751.944 238.88 751.568 238.717 751.187 238.609C750.868 238.609 750.519 238.609 750.189 238.609H750.01H749.84L748.782 237.985H748.652H748.503H747.345C746.695 237.998 746.045 237.931 745.399 237.784C744.81 237.784 744.221 237.673 743.613 237.784C743.49 237.806 743.366 237.806 743.243 237.784H743.044L742.445 237.427C742.304 237.343 742.16 237.276 742.016 237.227C741.763 237.192 741.51 237.192 741.257 237.227H738.683C738.5 237.219 738.318 237.28 738.144 237.405C738.001 237.542 737.849 237.624 737.695 237.65C737.265 237.65 736.816 237.65 736.417 237.517C736.018 237.383 735.689 237.227 735.299 237.115H735.09H734.85L733.194 237.472H733.104C733.124 237.61 733.124 237.758 733.104 237.896C733.104 237.896 733.104 237.896 733.054 238.007H731.817L730.918 238.386C730.715 238.477 730.508 238.529 730.3 238.542H729.691H729.162C729.042 238.547 728.924 238.6 728.813 238.698C728.723 238.698 728.713 238.921 728.573 238.965H728.413H727.416H726.996L726.338 239.121C726.16 239.208 725.98 239.267 725.799 239.3C725.609 239.3 725.39 239.3 725.19 239.3H723.763H723.683C723.593 239.099 723.513 238.876 723.414 238.676C723.249 238.493 723.069 238.387 722.885 238.364C722.675 238.364 722.476 238.208 722.296 238.096H721.997H721.777C721.438 238.096 721.108 238.096 720.779 238.096C720.485 238.082 720.191 238.127 719.901 238.23C719.809 238.281 719.722 238.364 719.641 238.475L719.432 238.743C719.421 238.753 719.409 238.758 719.397 238.758C719.385 238.758 719.373 238.753 719.362 238.743H717.885H717.546C717.176 238.743 716.807 238.943 716.418 238.988C716.029 239.032 715.6 238.988 715.19 238.988H715.001C714.945 239.011 714.887 239.011 714.831 238.988L713.723 238.453H713.524H711.648H711.558C711.268 238.653 710.999 238.876 710.999 239.144C710.745 239.147 710.491 239.2 710.24 239.3L709.552 239.59C709.411 239.625 709.271 239.677 709.133 239.746C708.99 239.927 708.828 240.019 708.664 240.013H708.524C708.448 239.986 708.37 239.986 708.294 240.013C708.147 240.116 707.997 240.198 707.845 240.258C707.359 240.398 706.879 240.622 706.408 240.927C706.331 240.99 706.25 241.035 706.169 241.061C706.033 241.094 705.896 241.094 705.76 241.061H705.58H705.47C705.145 241.286 704.811 241.442 704.472 241.529C704.233 241.529 703.973 241.529 703.734 241.529C703.591 241.567 703.451 241.634 703.314 241.729L702.556 242.042C702.376 242.042 702.177 242.042 702.017 242.22C701.857 242.398 701.828 242.554 701.897 242.688H701.079C700.881 242.737 700.686 242.841 700.5 243C700.5 243 699.971 242.777 700.001 242.777Z" fill="#040707"/>
<path d="M917.301 241.383H1075.62V240.543H1071.14C1071.12 240.55 1071.1 240.55 1071.08 240.543C1071.08 240.543 1070.9 240.403 1070.83 240.353L1070.61 240.173L1070.08 239.753H1070C1069.92 239.743 1069.85 239.743 1069.77 239.753H1068.62C1068.23 239.773 1067.84 239.773 1067.45 239.753C1067.27 239.747 1067.08 239.723 1066.9 239.683C1066.76 239.683 1066.68 239.553 1066.54 239.543H1066.3C1065.9 239.543 1065.54 239.633 1065.17 239.683C1064.7 239.779 1064.21 239.779 1063.73 239.683L1063.06 239.473C1062.73 239.39 1062.4 239.33 1062.06 239.293C1061.74 239.293 1061.67 239.293 1061.18 239.293H1060C1059.49 239.267 1058.98 239.211 1058.47 239.123C1057.88 239.063 1057.28 239.063 1056.68 239.123H1056.34C1055.49 239.188 1054.63 239.188 1053.77 239.123C1053.04 239.123 1052.37 238.993 1051.64 238.943C1050.91 238.893 1050.11 238.873 1049.34 238.863C1048.65 238.851 1047.97 238.874 1047.28 238.933C1046.58 239 1045.88 239.027 1045.18 239.013H1043.59C1043.09 239.013 1042.59 239.013 1042.12 239.083H1042.02H1041.91C1041.53 238.985 1041.14 238.915 1040.75 238.873C1040.27 238.811 1039.79 238.784 1039.31 238.793L1038.13 238.863C1037.83 238.863 1037.56 238.913 1037.26 238.923H1036.2C1035.5 238.923 1034.79 238.923 1034.1 238.923L1032.89 239.033C1032.19 239.093 1031.45 239.103 1030.73 239.123H1030.07C1029.83 239.123 1029.6 239.123 1029.36 239.123H1028.99C1028.43 239.059 1027.87 239.025 1027.3 239.023C1026.17 239.023 1025.06 239.113 1023.95 239.163C1023.66 239.181 1023.37 239.221 1023.09 239.283L1022.09 239.433C1021.66 239.503 1021.21 239.553 1020.8 239.633C1020.39 239.713 1020.07 239.873 1019.6 239.933C1019.13 239.993 1018.31 240.033 1017.69 240.073L1015.64 240.223C1015.4 240.238 1015.16 240.238 1014.92 240.223C1014.77 240.208 1014.61 240.208 1014.46 240.223H1014.3H1014.05C1013.78 240.188 1013.51 240.188 1013.24 240.223C1013.24 240.223 1013.1 240.223 1013.02 240.223C1012.93 240.238 1012.84 240.238 1012.75 240.223H1012.67C1012.5 240.177 1012.32 240.177 1012.15 240.223C1011.92 240.271 1011.68 240.298 1011.44 240.303L1011.19 240.233C1011.05 240.216 1010.92 240.216 1010.78 240.233C1010.63 240.243 1010.47 240.243 1010.32 240.233C1010.17 240.233 1010.03 240.233 1009.88 240.233C1009.73 240.233 1009.59 240.233 1009.44 240.233C1009.23 240.218 1009.02 240.218 1008.81 240.233H1008.72C1008.6 240.255 1008.48 240.255 1008.36 240.233C1008.2 240.218 1008.04 240.218 1007.88 240.233C1007.36 240.233 1006.88 240.323 1006.38 240.363C1005.67 240.418 1004.96 240.418 1004.25 240.363H1004C1003.81 240.362 1003.62 240.382 1003.43 240.423V240.503C1003.18 240.502 1002.92 240.523 1002.67 240.563L1002.25 240.623C1002.11 240.633 1001.96 240.633 1001.82 240.623H1001.3L1000.16 240.713H1000.05C999.943 240.706 999.838 240.679 999.741 240.633C999.593 240.601 999.442 240.581 999.291 240.573H998.651C998.411 240.573 998.211 240.513 997.981 240.483C997.742 240.453 997.5 240.453 997.261 240.483H997.101C997.014 240.494 996.927 240.494 996.841 240.483C996.457 240.396 996.064 240.362 995.671 240.383H995.471H995.311L994.471 240.183H994.321H994.171C993.891 240.183 993.611 240.183 993.321 240.183C993.056 240.177 992.792 240.197 992.531 240.243L992.251 240.133H992.151H991.381H991.281C991.022 240.195 990.756 240.219 990.491 240.203H989.491L989.391 240.263C989.243 240.316 989.088 240.343 988.931 240.343C988.767 240.362 988.608 240.409 988.461 240.483H988.381H988.261L987.841 240.543H987.751C987.751 240.543 987.751 240.613 987.681 240.633H987.321C987.184 240.643 987.047 240.643 986.911 240.633C986.855 240.626 986.801 240.609 986.751 240.583L986.501 240.493H986.341H986.161C985.871 240.493 985.481 240.493 985.161 240.493C984.996 240.48 984.839 240.417 984.711 240.313H984.641H984.501L983.181 240.223L982.871 240.323C982.721 240.323 982.511 240.323 982.351 240.323L981.161 240.403C981.116 240.469 981.048 240.515 980.971 240.533H980.811C980.618 240.559 980.428 240.6 980.241 240.653C980.123 240.688 980.009 240.735 979.901 240.793H979.831C979.561 240.793 979.331 240.703 979.091 240.653C978.82 240.603 978.546 240.579 978.271 240.583C977.981 240.608 977.69 240.608 977.401 240.583C977.201 240.583 977.051 240.503 976.841 240.483H975.331C974.996 240.518 974.659 240.498 974.331 240.423C974.241 240.373 974.211 240.323 974.131 240.283C973.913 240.203 973.683 240.159 973.451 240.153C973.181 240.153 972.911 240.153 972.641 240.153H972.231C972.105 240.127 971.984 240.083 971.871 240.023L971.391 239.813H971.271H971.091C970.821 239.813 970.531 239.813 970.261 239.813C970.063 239.798 969.866 239.772 969.671 239.733C969.296 239.636 968.915 239.562 968.531 239.513C968.211 239.513 967.861 239.513 967.531 239.513H967.341H967.181L966.111 239.233H965.991H965.841H964.671C964.023 239.239 963.375 239.209 962.731 239.143C962.141 239.143 961.551 239.093 960.941 239.143C960.818 239.154 960.694 239.154 960.571 239.143H960.361L959.761 238.983C959.619 238.944 959.476 238.914 959.331 238.893C959.081 238.878 958.831 238.878 958.581 238.893H955.991C955.808 238.891 955.625 238.918 955.451 238.973C955.311 239.034 955.163 239.072 955.011 239.083C954.581 239.083 954.131 239.083 953.731 239.023C953.331 238.963 952.991 238.893 952.611 238.843H952.391H952.151L950.491 239.003H950.411C950.426 239.066 950.426 239.131 950.411 239.193C950.411 239.193 950.411 239.193 950.351 239.243H949.101L948.191 239.413C947.99 239.454 947.786 239.477 947.581 239.483H946.971H946.441C946.318 239.486 946.196 239.51 946.081 239.553C946.001 239.553 945.991 239.653 945.851 239.673H945.681H944.681H944.271L943.611 239.743C943.432 239.78 943.252 239.807 943.071 239.823C942.871 239.823 942.651 239.823 942.451 239.823H941.021H940.951C940.931 239.83 940.91 239.83 940.891 239.823C940.806 239.725 940.716 239.631 940.621 239.543C940.456 239.458 940.276 239.411 940.091 239.403C939.881 239.403 939.691 239.333 939.501 239.283H939.201H938.981H937.981C937.686 239.276 937.392 239.296 937.101 239.343C937.008 239.364 936.92 239.402 936.841 239.453L936.631 239.573C936.608 239.579 936.584 239.579 936.561 239.573H935.201C935.081 239.573 934.971 239.573 934.861 239.573C934.481 239.573 934.121 239.663 933.731 239.683C933.341 239.703 932.901 239.683 932.491 239.683H932.311C932.251 239.694 932.19 239.694 932.131 239.683L931.001 239.113H930.801H929.001H928.911C928.621 239.203 928.351 239.303 928.351 239.423C928.093 239.425 927.835 239.448 927.581 239.493L926.901 239.623C926.756 239.639 926.613 239.663 926.471 239.693C926.332 239.776 926.172 239.818 926.011 239.813H925.871C925.791 239.801 925.71 239.801 925.631 239.813L925.191 239.923C924.701 239.986 924.216 240.086 923.741 240.223C923.664 240.253 923.583 240.273 923.501 240.283C923.365 240.298 923.227 240.298 923.091 240.283H922.921H922.811C922.485 240.384 922.15 240.455 921.811 240.493C921.571 240.493 921.311 240.493 921.081 240.493C920.935 240.509 920.791 240.54 920.651 240.583L919.891 240.723C919.721 240.723 919.511 240.723 919.351 240.803C919.191 240.883 919.171 240.953 919.231 241.013H918.431C918.229 241.034 918.031 241.081 917.841 241.153L917.301 241.383Z" fill="#040707"/>
<path d="M369.852 242.523C369.945 242.533 370.038 242.533 370.132 242.523H552.842V239.213H547.842C547.808 239.218 547.774 239.216 547.741 239.208C547.709 239.199 547.678 239.184 547.652 239.163C547.614 239.128 547.586 239.083 547.572 239.033C547.515 238.766 547.424 238.507 547.302 238.263C547.212 238.033 547.122 237.793 547.042 237.553C546.842 236.993 546.632 236.443 546.432 235.893C546.414 235.829 546.38 235.77 546.332 235.723C546.255 235.673 546.163 235.652 546.072 235.663H544.732C544.281 235.689 543.83 235.648 543.392 235.543C543.161 235.485 542.944 235.383 542.752 235.243C542.592 235.113 542.492 234.743 542.332 234.673C542.243 234.648 542.15 234.648 542.062 234.673C541.602 234.819 541.159 235.013 540.742 235.253C540.488 235.416 540.188 235.49 539.888 235.464C539.588 235.439 539.304 235.316 539.082 235.113C538.922 234.913 538.392 234.413 538.312 234.283C537.977 233.988 537.595 233.752 537.182 233.583C536.812 233.463 536.732 233.583 536.182 233.583C535.632 233.583 534.882 233.583 534.762 233.583C534.152 233.583 533.572 233.103 532.992 232.933C532.309 232.732 531.577 232.774 530.922 233.053L530.532 233.233C529.563 233.547 528.531 233.609 527.532 233.413C526.682 233.293 525.912 232.893 525.072 232.703C524.197 232.51 523.307 232.396 522.412 232.363C521.603 232.318 520.794 232.419 520.022 232.663C519.237 232.915 518.414 233.023 517.592 232.983C516.992 232.983 516.382 232.923 515.772 232.983C515.196 233.008 514.626 233.098 514.072 233.253C514.032 233.263 513.991 233.263 513.952 233.253C513.902 233.253 513.862 233.193 513.822 233.163C513.441 232.79 512.984 232.503 512.482 232.323C511.961 232.078 511.386 231.971 510.812 232.013C510.362 232.093 509.912 232.173 509.462 232.273C509.012 232.373 508.802 232.483 508.462 232.523C508.122 232.563 507.652 232.523 507.242 232.523C506.428 232.481 505.613 232.535 504.812 232.683C504.342 232.803 503.882 232.993 503.412 233.123C502.593 233.312 501.76 233.436 500.922 233.493C500.672 233.493 500.412 233.493 500.162 233.563C499.892 233.642 499.612 233.682 499.332 233.683C499.182 233.656 499.038 233.609 498.902 233.543C498.283 233.294 497.627 233.152 496.962 233.123C495.653 233.185 494.354 233.372 493.082 233.683C492.721 233.775 492.382 233.934 492.082 234.153C491.712 234.373 491.342 234.583 490.972 234.773C490.46 235.003 489.962 235.264 489.482 235.553C488.982 235.893 488.642 236.483 488.092 236.733C487.377 237.002 486.636 237.197 485.882 237.313L483.522 237.863C483.245 237.928 482.958 237.928 482.682 237.863C482.508 237.815 482.325 237.815 482.152 237.863C482.092 237.863 482.032 237.963 481.962 237.973C481.892 237.983 481.762 237.903 481.682 237.873C481.528 237.818 481.364 237.798 481.202 237.813C481.039 237.829 480.882 237.88 480.742 237.963C480.742 237.853 480.582 237.833 480.482 237.883C480.382 237.933 480.262 238.003 480.182 237.883C480.139 237.838 480.108 237.783 480.092 237.723C480.024 237.631 479.925 237.565 479.814 237.538C479.702 237.51 479.585 237.523 479.482 237.573C479.252 237.663 478.922 237.973 478.662 237.873C478.402 237.773 478.472 237.703 478.372 237.603C478.308 237.547 478.233 237.507 478.151 237.484C478.07 237.462 477.985 237.458 477.902 237.473C477.722 237.473 477.562 237.663 477.372 237.663C477.182 237.663 477.032 237.553 476.862 237.553C476.689 237.586 476.519 237.629 476.352 237.683C476.102 237.683 475.842 237.543 475.622 237.683L475.522 237.743C475.362 237.813 475.232 237.693 475.102 237.643C474.918 237.598 474.726 237.598 474.542 237.643C473.956 237.777 473.381 237.954 472.822 238.173C472.014 238.398 471.16 238.398 470.352 238.173C470.259 238.163 470.165 238.163 470.072 238.173C469.832 238.19 469.602 238.277 469.412 238.423V238.753C469.105 238.758 468.804 238.833 468.532 238.973C468.362 239.053 468.212 239.153 468.042 239.223C467.876 239.253 467.707 239.253 467.542 239.223C467.341 239.25 467.143 239.297 466.952 239.363L465.632 239.713C465.589 239.724 465.544 239.724 465.502 239.713C465.352 239.713 465.252 239.503 465.142 239.403C464.997 239.271 464.816 239.184 464.622 239.153C464.382 239.093 464.122 239.083 463.882 239.013C463.618 238.901 463.361 238.774 463.112 238.633C462.985 238.566 462.845 238.526 462.702 238.518C462.559 238.509 462.415 238.531 462.282 238.583C462.223 238.62 462.159 238.647 462.092 238.663C461.982 238.663 461.882 238.583 461.792 238.513C461.605 238.359 461.389 238.243 461.158 238.173C460.926 238.102 460.683 238.079 460.442 238.103C460.366 238.118 460.287 238.118 460.212 238.103C460.141 238.08 460.076 238.043 460.022 237.993L459.022 237.203C458.974 237.157 458.915 237.123 458.852 237.103C458.792 237.093 458.731 237.093 458.672 237.103C458.346 237.194 458.009 237.237 457.672 237.233C457.351 237.203 457.029 237.284 456.762 237.463L456.442 237.023C456.442 237.023 456.372 236.933 456.322 236.913C456.26 236.893 456.193 236.893 456.132 236.913H455.582C455.532 236.903 455.481 236.903 455.432 236.913C455.387 236.948 455.346 236.988 455.312 237.033C455.186 237.138 455.041 237.216 454.884 237.262C454.728 237.308 454.564 237.322 454.402 237.303H453.452C453.381 237.299 453.312 237.317 453.252 237.353C453.182 237.353 453.172 237.503 453.132 237.573C453.012 237.823 452.812 237.803 452.592 237.913C452.36 238.025 452.173 238.212 452.062 238.443C452.04 238.503 452.006 238.558 451.962 238.603C451.924 238.641 451.88 238.671 451.832 238.693L451.342 238.913C451.298 238.923 451.259 238.948 451.232 238.983C451.226 239.016 451.226 239.05 451.232 239.083C451.232 239.153 451.232 239.373 451.152 239.413C451.072 239.453 450.852 239.413 450.732 239.413C450.575 239.463 450.408 239.463 450.252 239.413C450.184 239.361 450.124 239.301 450.072 239.233L449.782 238.873C449.734 238.807 449.673 238.753 449.602 238.713C449.532 238.699 449.461 238.699 449.392 238.713C449.023 238.753 448.65 238.753 448.282 238.713C448.022 238.643 447.872 238.223 447.762 237.993L447.682 237.863C447.635 237.829 447.579 237.808 447.522 237.803L446.002 237.443C445.886 237.574 445.762 237.698 445.632 237.813C445.438 237.886 445.237 237.933 445.032 237.953L443.662 238.253C443.635 238.446 443.559 238.628 443.442 238.783L443.252 238.943C443.014 239.06 442.795 239.212 442.602 239.393C442.445 239.566 442.311 239.757 442.202 239.963C441.905 239.804 441.621 239.624 441.352 239.423C441.072 239.234 440.74 239.136 440.402 239.143C440.063 239.192 439.719 239.15 439.402 239.023C439.197 238.877 438.979 238.75 438.752 238.643C438.632 238.628 438.511 238.628 438.392 238.643H437.012C436.652 238.643 436.122 238.773 435.912 238.393C435.812 238.223 435.782 238.013 435.682 237.843C435.592 237.711 435.477 237.599 435.343 237.513C435.209 237.427 435.059 237.37 434.902 237.343C434.592 237.273 434.272 237.273 433.962 237.203C433.794 237.172 433.634 237.107 433.492 237.013C433.321 236.879 433.178 236.712 433.072 236.523L432.512 235.673C432.474 235.619 432.43 235.568 432.382 235.523C432.313 235.504 432.24 235.504 432.172 235.523C431.839 235.556 431.504 235.556 431.172 235.523C430.922 235.459 430.688 235.347 430.482 235.193C430.088 234.843 429.647 234.55 429.172 234.323C428.795 234.213 428.404 234.163 428.012 234.173C427.942 234.184 427.871 234.184 427.802 234.173C427.732 234.139 427.668 234.095 427.612 234.043L426.382 232.943C426.336 232.903 426.286 232.869 426.232 232.843C426.176 232.828 426.117 232.828 426.062 232.843L424.712 232.923C423.947 232.929 423.186 232.807 422.462 232.563C421.786 232.393 421.087 232.332 420.392 232.383C420.25 232.397 420.106 232.38 419.972 232.333C419.882 232.292 419.801 232.234 419.732 232.163L419.042 231.533C418.893 231.387 418.725 231.263 418.542 231.163C418.26 231.063 417.96 231.022 417.662 231.043H414.662C414.42 231.057 414.194 231.164 414.032 231.343C413.902 231.473 413.712 231.823 413.522 231.803C413.019 231.792 412.52 231.707 412.042 231.553C411.592 231.353 411.192 231.053 410.752 230.823C410.672 230.786 410.588 230.759 410.502 230.743C410.406 230.748 410.311 230.768 410.222 230.803L408.302 231.453C408.263 231.457 408.228 231.475 408.202 231.503C408.187 231.549 408.187 231.598 408.202 231.643C408.227 231.886 408.227 232.13 408.202 232.373C408.205 232.41 408.201 232.446 408.189 232.481C408.177 232.516 408.157 232.547 408.132 232.573C408.077 232.594 408.016 232.594 407.962 232.573C407.532 232.573 407.112 232.573 406.692 232.573L405.692 233.223C405.485 233.378 405.239 233.472 404.982 233.493C404.752 233.493 404.512 233.493 404.282 233.573C404.052 233.653 403.862 233.573 403.662 233.573C403.579 233.587 403.501 233.617 403.431 233.662C403.36 233.707 403.299 233.765 403.252 233.833C403.162 233.993 403.142 234.223 402.982 234.323C402.921 234.349 402.857 234.366 402.792 234.373L401.672 234.503L401.192 234.573C400.928 234.635 400.672 234.729 400.432 234.853C400.232 234.98 400.021 235.087 399.802 235.173C399.566 235.208 399.327 235.208 399.092 235.173C398.545 235.173 397.995 235.133 397.442 235.053C397.412 235.062 397.381 235.062 397.352 235.053C397.32 235.024 397.299 234.985 397.292 234.943C397.182 234.573 397.102 234.183 396.982 233.823C396.923 233.689 396.838 233.569 396.732 233.469C396.625 233.369 396.499 233.292 396.362 233.243C396.12 233.121 395.892 232.974 395.682 232.803C395.583 232.715 395.467 232.647 395.342 232.603C395.256 232.588 395.168 232.588 395.082 232.603C394.692 232.603 394.302 232.703 393.922 232.733C393.576 232.701 393.228 232.771 392.922 232.933C392.793 233.062 392.691 233.215 392.622 233.383L392.382 233.873C392.364 233.919 392.337 233.96 392.302 233.993C392.243 234.013 392.18 234.013 392.122 233.993H391.122C390.939 233.978 390.755 233.978 390.572 233.993C390.438 234.021 390.308 234.061 390.182 234.113C389.755 234.291 389.318 234.442 388.872 234.563C388.399 234.641 387.919 234.665 387.442 234.633C387.372 234.643 387.301 234.643 387.232 234.633C387.157 234.609 387.088 234.568 387.032 234.513L385.742 233.513C385.675 233.455 385.596 233.41 385.512 233.383C385.449 233.373 385.385 233.373 385.322 233.383H383.492C383.445 233.375 383.397 233.381 383.353 233.398C383.309 233.416 383.27 233.445 383.242 233.483C382.871 233.792 382.638 234.234 382.592 234.713C382.278 234.705 381.97 234.796 381.712 234.973C381.442 235.143 381.202 235.343 380.922 235.483C380.741 235.548 380.575 235.646 380.432 235.773C380.272 235.943 380.182 236.293 379.892 236.253H379.732C379.622 236.253 379.532 236.353 379.462 236.433C379.305 236.596 379.131 236.74 378.942 236.863C378.314 237.137 377.747 237.531 377.272 238.023C377.203 238.132 377.11 238.224 377.002 238.293C376.846 238.348 376.677 238.348 376.522 238.293C376.456 238.278 376.387 238.278 376.322 238.293C376.275 238.314 376.231 238.341 376.192 238.373C375.862 238.722 375.468 239.003 375.032 239.203C374.752 239.273 374.452 239.203 374.182 239.253C374 239.329 373.834 239.437 373.692 239.573C373.413 239.788 373.119 239.982 372.812 240.153C372.595 240.236 372.388 240.34 372.192 240.463C372.094 240.577 372.029 240.715 372.004 240.864C371.979 241.012 371.996 241.164 372.052 241.303H371.752C371.539 241.273 371.324 241.273 371.112 241.303C370.782 241.383 370.662 241.633 370.442 241.863C370.234 242.073 370.037 242.294 369.852 242.523Z" fill="#040707"/>
<path d="M1129.71 247.423C1129.79 247.433 1129.87 247.433 1129.95 247.423H1288V244.313H1283.67C1283.62 244.327 1283.56 244.327 1283.51 244.313C1283.48 244.275 1283.46 244.231 1283.45 244.183C1283.4 243.933 1283.32 243.691 1283.2 243.463C1283.13 243.233 1283.06 243.013 1282.98 242.783C1282.81 242.263 1282.63 241.783 1282.46 241.233C1282.44 241.172 1282.41 241.114 1282.37 241.063C1282.34 241.039 1282.3 241.021 1282.26 241.01C1282.22 241 1282.18 240.998 1282.14 241.003H1280.99C1280.6 241.023 1280.2 240.983 1279.82 240.883C1279.62 240.831 1279.44 240.735 1279.28 240.603C1279.13 240.483 1279.05 240.133 1278.91 240.063C1278.83 240.038 1278.75 240.038 1278.67 240.063C1278.28 240.204 1277.9 240.388 1277.54 240.613C1277.1 240.833 1276.44 240.963 1276.1 240.483C1275.96 240.283 1275.5 239.823 1275.43 239.703C1275.14 239.423 1274.8 239.199 1274.43 239.043C1274.11 238.923 1274.04 239.043 1273.55 239.043C1273.06 239.043 1272.43 239.043 1272.32 239.043C1271.8 239.043 1271.32 238.593 1270.79 238.433C1270.2 238.239 1269.56 238.279 1269 238.543L1268.66 238.713C1267.84 239.004 1266.95 239.063 1266.09 238.883C1265.36 238.763 1264.69 238.393 1263.96 238.213C1263.21 238.027 1262.44 237.92 1261.66 237.893C1260.96 237.851 1260.26 237.946 1259.6 238.173C1258.93 238.412 1258.21 238.514 1257.5 238.473C1256.97 238.473 1256.44 238.473 1255.91 238.473C1255.41 238.505 1254.92 238.593 1254.44 238.733C1254.41 238.743 1254.37 238.743 1254.34 238.733C1254.3 238.716 1254.26 238.684 1254.23 238.643C1253.91 238.298 1253.51 238.031 1253.07 237.863C1252.63 237.629 1252.13 237.525 1251.63 237.563C1251.23 237.633 1250.84 237.723 1250.45 237.813C1250.17 237.908 1249.88 237.985 1249.58 238.043C1249.23 238.063 1248.87 238.063 1248.52 238.043C1247.82 238.01 1247.11 238.067 1246.42 238.213C1246.01 238.313 1245.62 238.493 1245.21 238.623C1244.5 238.796 1243.78 238.91 1243.05 238.963C1242.83 238.963 1242.61 238.963 1242.39 239.033C1242.16 239.109 1241.92 239.146 1241.68 239.143C1241.55 239.125 1241.43 239.081 1241.31 239.013C1240.78 238.776 1240.2 238.643 1239.62 238.623C1238.49 238.678 1237.37 238.852 1236.27 239.143C1235.96 239.237 1235.67 239.389 1235.41 239.593C1235.09 239.793 1234.78 239.993 1234.41 240.173C1233.97 240.393 1233.54 240.64 1233.12 240.913C1232.69 241.223 1232.39 241.783 1231.92 242.023C1231.31 242.268 1230.67 242.449 1230.01 242.563L1228.01 243.083C1227.77 243.138 1227.53 243.138 1227.29 243.083C1227.14 243.034 1226.98 243.034 1226.83 243.083C1226.78 243.083 1226.72 243.173 1226.67 243.183C1226.62 243.193 1226.49 243.123 1226.42 243.093C1226.29 243.044 1226.15 243.026 1226.01 243.04C1225.87 243.054 1225.73 243.099 1225.61 243.173C1225.61 243.073 1225.47 243.053 1225.39 243.103C1225.31 243.153 1225.2 243.213 1225.12 243.153C1225.09 243.107 1225.06 243.056 1225.04 243.003C1225.02 242.96 1224.98 242.922 1224.94 242.891C1224.9 242.861 1224.86 242.838 1224.81 242.825C1224.76 242.812 1224.71 242.809 1224.66 242.815C1224.61 242.822 1224.56 242.838 1224.52 242.863C1224.32 242.943 1224.04 243.233 1223.81 243.143C1223.58 243.053 1223.65 242.973 1223.56 242.893C1223.51 242.838 1223.45 242.797 1223.37 242.775C1223.3 242.752 1223.23 242.748 1223.15 242.763C1223 242.763 1222.86 242.943 1222.7 242.943C1222.54 242.943 1222.4 242.843 1222.25 242.843C1222.1 242.874 1221.96 242.914 1221.81 242.963C1221.6 242.963 1221.37 242.833 1221.18 242.963L1221.09 243.023C1220.96 243.093 1220.84 243.023 1220.73 242.923C1220.58 242.868 1220.41 242.85 1220.25 242.873C1219.74 243.001 1219.24 243.168 1218.76 243.373C1218.06 243.583 1217.32 243.583 1216.62 243.373L1216.38 243.313C1216.17 243.331 1215.97 243.415 1215.81 243.553V243.863C1215.55 243.874 1215.29 243.946 1215.05 244.073C1214.91 244.153 1214.78 244.243 1214.63 244.313C1214.49 244.338 1214.34 244.338 1214.2 244.313C1214.02 244.338 1213.85 244.381 1213.68 244.443L1212.54 244.783C1212.51 244.793 1212.47 244.793 1212.43 244.783C1212.3 244.783 1212.21 244.583 1212.12 244.493C1212 244.373 1211.84 244.29 1211.67 244.253C1211.46 244.203 1211.24 244.193 1211.03 244.123C1210.8 244.021 1210.58 243.904 1210.36 243.773C1210.25 243.717 1210.13 243.688 1210 243.688C1209.88 243.688 1209.75 243.717 1209.64 243.773C1209.6 243.81 1209.54 243.835 1209.48 243.843C1209.38 243.843 1209.3 243.773 1209.22 243.703C1209.06 243.56 1208.88 243.452 1208.68 243.387C1208.48 243.321 1208.26 243.3 1208.05 243.323C1207.99 243.333 1207.92 243.333 1207.85 243.323C1207.79 243.3 1207.74 243.262 1207.69 243.213L1206.85 242.473C1206.81 242.431 1206.76 242.4 1206.7 242.383C1206.65 242.369 1206.6 242.369 1206.55 242.383C1206.28 242.465 1205.99 242.502 1205.7 242.493C1205.42 242.471 1205.14 242.549 1204.91 242.713L1204.63 242.303C1204.6 242.262 1204.57 242.225 1204.53 242.193C1204.48 242.178 1204.42 242.178 1204.36 242.193H1204C1203.96 242.184 1203.91 242.184 1203.87 242.193C1203.83 242.223 1203.8 242.26 1203.77 242.303C1203.67 242.401 1203.54 242.474 1203.4 242.519C1203.27 242.564 1203.12 242.579 1202.98 242.563H1202.16C1202.1 242.559 1202.04 242.576 1201.99 242.613C1201.94 242.674 1201.9 242.746 1201.88 242.823C1201.78 243.053 1201.6 243.033 1201.42 243.133C1201.21 243.249 1201.05 243.427 1200.95 243.643C1200.93 243.698 1200.91 243.749 1200.87 243.793L1200.76 243.873L1200.33 244.073C1200.3 244.091 1200.27 244.115 1200.24 244.143C1200.24 244.173 1200.24 244.203 1200.24 244.233C1200.24 244.313 1200.24 244.513 1200.17 244.553C1200.1 244.593 1199.91 244.553 1199.81 244.553C1199.68 244.594 1199.54 244.594 1199.4 244.553C1199.34 244.507 1199.28 244.449 1199.24 244.383L1198.99 244.043C1198.95 243.981 1198.9 243.93 1198.83 243.893C1198.77 243.879 1198.71 243.879 1198.65 243.893C1198.32 243.931 1197.98 243.931 1197.65 243.893C1197.43 243.833 1197.29 243.433 1197.2 243.213C1197.18 243.17 1197.16 243.13 1197.13 243.093C1197.09 243.063 1197.04 243.043 1196.99 243.033L1195.68 242.693C1195.68 242.693 1195.41 243.023 1195.36 243.053C1195.19 243.113 1195.02 243.153 1194.84 243.173L1193.65 243.463C1193.62 243.641 1193.56 243.812 1193.46 243.963L1193.3 244.113C1193.09 244.224 1192.9 244.369 1192.73 244.543C1192.6 244.706 1192.48 244.884 1192.39 245.073C1192.13 244.922 1191.89 244.751 1191.65 244.563C1191.42 244.381 1191.13 244.289 1190.83 244.303C1190.54 244.342 1190.24 244.304 1189.96 244.193C1189.79 244.052 1189.6 243.928 1189.4 243.823C1189.3 243.808 1189.19 243.808 1189.08 243.823H1187.89C1187.58 243.823 1187.12 243.943 1186.89 243.593C1186.8 243.423 1186.77 243.223 1186.69 243.063C1186.62 242.941 1186.52 242.836 1186.4 242.755C1186.29 242.674 1186.15 242.619 1186.01 242.593C1185.74 242.533 1185.47 242.523 1185.2 242.463C1185.05 242.437 1184.91 242.375 1184.79 242.283C1184.64 242.155 1184.52 241.999 1184.43 241.823L1183.95 241.023C1183.92 240.968 1183.88 240.92 1183.83 240.883C1183.77 240.868 1183.71 240.868 1183.65 240.883C1183.38 240.913 1183.1 240.913 1182.82 240.883C1182.61 240.822 1182.4 240.717 1182.23 240.573C1181.87 240.193 1181.46 239.87 1181 239.613C1180.68 239.511 1180.34 239.464 1180 239.473C1179.94 239.483 1179.87 239.483 1179.81 239.473C1179.75 239.446 1179.7 239.405 1179.65 239.353L1178.58 238.353C1178.55 238.312 1178.51 238.281 1178.46 238.263C1178.41 238.249 1178.36 238.249 1178.31 238.263L1177.14 238.343C1176.48 238.35 1175.82 238.235 1175.2 238.003C1174.62 237.839 1174.01 237.778 1173.41 237.823C1173.29 237.859 1173.16 237.859 1173.04 237.823C1172.96 237.782 1172.89 237.728 1172.83 237.663L1172.23 237.073C1172.11 236.938 1171.97 236.82 1171.81 236.723C1171.57 236.625 1171.31 236.584 1171.05 236.603H1168.46C1168.36 236.612 1168.25 236.642 1168.16 236.692C1168.07 236.742 1167.99 236.811 1167.92 236.893C1167.81 237.013 1167.64 237.343 1167.48 237.323C1167.04 237.314 1166.61 237.233 1166.2 237.083C1165.8 236.903 1165.46 236.613 1165.08 236.403C1165.01 236.366 1164.94 236.339 1164.86 236.323C1164.78 236.329 1164.7 236.349 1164.62 236.383L1162.96 236.993C1162.94 236.985 1162.91 236.985 1162.88 236.993C1162.87 237.039 1162.87 237.088 1162.88 237.133C1162.9 237.36 1162.9 237.587 1162.88 237.813C1162.88 237.846 1162.88 237.879 1162.87 237.91C1162.86 237.941 1162.84 237.969 1162.82 237.993C1162.77 238.013 1162.72 238.013 1162.67 237.993C1162.3 237.993 1161.94 237.993 1161.57 237.993L1160.66 238.613C1160.49 238.753 1160.27 238.84 1160.05 238.863L1159.44 238.933C1159.26 238.933 1159.08 238.933 1158.91 238.983C1158.84 238.997 1158.77 239.027 1158.71 239.07C1158.64 239.113 1158.59 239.169 1158.55 239.233C1158.47 239.383 1158.46 239.603 1158.32 239.683C1158.27 239.71 1158.21 239.727 1158.15 239.733L1157.15 239.853L1156.74 239.923C1156.51 239.984 1156.29 240.074 1156.08 240.193C1155.91 240.307 1155.73 240.404 1155.54 240.483C1155.34 240.518 1155.13 240.518 1154.92 240.483C1154.44 240.483 1153.92 240.423 1153.49 240.383H1153.42C1153.39 240.354 1153.37 240.315 1153.36 240.273C1153.27 239.923 1153.2 239.563 1153.1 239.273C1153.05 239.15 1152.98 239.039 1152.89 238.944C1152.79 238.85 1152.68 238.775 1152.56 238.723C1152.35 238.605 1152.16 238.468 1151.97 238.313C1151.89 238.226 1151.79 238.161 1151.67 238.123C1151.6 238.108 1151.52 238.108 1151.45 238.123L1150.45 238.243C1150.15 238.243 1149.81 238.243 1149.57 238.433C1149.46 238.555 1149.37 238.698 1149.31 238.853L1149.1 239.313C1149.09 239.355 1149.06 239.392 1149.03 239.423C1148.98 239.442 1148.92 239.442 1148.87 239.423H1148.03C1147.87 239.398 1147.71 239.398 1147.55 239.423C1147.43 239.445 1147.32 239.482 1147.21 239.533C1146.84 239.697 1146.47 239.837 1146.08 239.953C1145.67 240.026 1145.26 240.05 1144.84 240.023C1144.78 240.033 1144.72 240.033 1144.66 240.023C1144.6 239.996 1144.54 239.959 1144.48 239.913L1143.37 238.983C1143.32 238.928 1143.25 238.887 1143.17 238.863C1143.12 238.853 1143.06 238.853 1143.01 238.863H1141.42C1141.38 238.853 1141.34 238.853 1141.3 238.863C1141.27 238.882 1141.23 238.909 1141.21 238.943C1140.88 239.24 1140.68 239.652 1140.65 240.093C1140.37 240.086 1140.1 240.175 1139.88 240.343C1139.66 240.515 1139.44 240.676 1139.2 240.823C1139.04 240.888 1138.9 240.979 1138.77 241.093C1138.64 241.253 1138.56 241.583 1138.31 241.553H1138.17C1138.07 241.553 1138 241.653 1137.93 241.723C1137.8 241.878 1137.65 242.015 1137.49 242.133C1136.94 242.395 1136.45 242.765 1136.04 243.223C1135.98 243.325 1135.91 243.414 1135.81 243.483C1135.68 243.528 1135.53 243.528 1135.39 243.483C1135.34 243.463 1135.28 243.463 1135.22 243.483C1135.18 243.497 1135.14 243.521 1135.11 243.553C1134.82 243.803 1134.47 244.243 1134.11 244.333C1133.75 244.423 1133.61 244.333 1133.38 244.383C1133.22 244.449 1133.07 244.552 1132.95 244.683C1132.72 244.892 1132.46 245.076 1132.19 245.233C1132 245.31 1131.83 245.407 1131.66 245.523C1131.57 245.632 1131.52 245.763 1131.49 245.902C1131.47 246.041 1131.49 246.183 1131.54 246.313H1131.28C1131.1 246.288 1130.91 246.288 1130.73 246.313C1130.44 246.393 1130.34 246.623 1130.14 246.843C1130.15 246.803 1129.69 247.423 1129.71 247.423Z" fill="#040707"/>
<path d="M381.43 195.083L384.43 192.083L387.43 195.083L384.43 198.083L381.43 195.083Z" fill="#FFAE00"/>
<path d="M386.578 189.993L388.668 187.903L390.748 189.993L388.668 192.073L386.578 189.993Z" fill="black"/>
<path d="M1095.46 211.783C1096.52 211.783 1097.38 210.924 1097.38 209.863C1097.38 208.803 1096.52 207.943 1095.46 207.943C1094.4 207.943 1093.54 208.803 1093.54 209.863C1093.54 210.924 1094.4 211.783 1095.46 211.783Z" fill="#FFAE00"/>
<path d="M369.639 215.333H342.399H336.949L342.399 244.583H369.639L375.089 215.333H369.639Z" fill="black"/>
<path d="M354.999 168.033C354.436 168.086 353.913 168.347 353.533 168.765C353.152 169.183 352.941 169.728 352.941 170.293C352.941 170.858 353.152 171.403 353.533 171.821C353.913 172.239 354.436 172.5 354.999 172.553V168.033Z" fill="black"/>
<path d="M359.101 177.133C359.048 176.586 358.821 176.07 358.451 175.663C358.082 175.255 357.59 174.978 357.051 174.873V179.393C357.59 179.288 358.082 179.011 358.451 178.603C358.821 178.196 359.048 177.68 359.101 177.133Z" fill="black"/>
<path d="M356.999 210.523V209.903C358.526 206.191 361.232 203.085 364.699 201.063L365.149 200.983C361.688 203.077 358.998 206.234 357.479 209.983C359.467 210.349 361.511 210.285 363.472 209.795C365.433 209.305 367.267 208.401 368.849 207.143C373.199 203.853 375.289 198.833 374.539 194.513C370.539 192.603 365.179 193.253 360.829 196.513C359.305 197.658 358.006 199.075 356.999 200.693V191.323V187.323C360.531 187.065 363.825 185.446 366.188 182.808C368.552 180.17 369.8 176.719 369.67 173.18C369.541 169.64 368.044 166.29 365.494 163.831C362.944 161.373 359.541 160 355.999 160C352.458 160 349.054 161.373 346.505 163.831C343.955 166.29 342.458 169.64 342.328 173.18C342.199 176.719 343.447 180.17 345.81 182.808C348.173 185.446 351.467 187.065 354.999 187.323V191.463V194.133C353.99 192.514 352.692 191.094 351.169 189.943C346.809 186.653 341.419 186.003 337.459 187.943C336.699 192.273 338.799 197.283 343.149 200.573C344.768 201.864 346.651 202.781 348.664 203.262C350.678 203.742 352.772 203.774 354.799 203.353C352.923 199.77 349.938 196.89 346.289 195.143H346.749C350.258 196.758 353.151 199.462 354.999 202.853V210.483H334.449V214.183H377.589V210.483L356.999 210.523ZM350.859 177.133C350.859 176.862 350.967 176.601 351.159 176.409C351.352 176.216 351.612 176.108 351.884 176.108C352.156 176.108 352.417 176.216 352.609 176.409C352.801 176.601 352.909 176.862 352.909 177.133C352.962 177.681 353.189 178.197 353.559 178.604C353.928 179.011 354.42 179.288 354.959 179.393V174.613C353.84 174.56 352.785 174.078 352.012 173.267C351.239 172.456 350.808 171.379 350.808 170.258C350.808 169.138 351.239 168.061 352.012 167.25C352.785 166.439 353.84 165.957 354.959 165.903V165.463C354.959 165.19 355.068 164.928 355.261 164.735C355.454 164.542 355.716 164.433 355.989 164.433C356.262 164.433 356.524 164.542 356.718 164.735C356.911 164.928 357.019 165.19 357.019 165.463V165.903C358.106 166.027 359.115 166.532 359.865 167.328C360.616 168.124 361.06 169.161 361.119 170.253C361.119 170.519 361.014 170.773 360.826 170.961C360.639 171.148 360.384 171.253 360.119 171.253C359.854 171.253 359.6 171.148 359.412 170.961C359.225 170.773 359.119 170.519 359.119 170.253C359.067 169.706 358.839 169.19 358.47 168.783C358.1 168.376 357.609 168.099 357.069 167.993V172.743C358.188 172.797 359.243 173.279 360.016 174.09C360.789 174.901 361.22 175.978 361.22 177.098C361.22 178.219 360.789 179.296 360.016 180.107C359.243 180.918 358.188 181.4 357.069 181.453V181.883C357.069 182.157 356.961 182.419 356.768 182.612C356.574 182.805 356.312 182.913 356.039 182.913C355.766 182.913 355.504 182.805 355.311 182.612C355.118 182.419 355.009 182.157 355.009 181.883V181.453C353.924 181.333 352.916 180.834 352.162 180.044C351.409 179.254 350.958 178.223 350.889 177.133H350.859Z" fill="black"/>
<path d="M335.181 180.193C335.102 180.243 335.044 180.319 335.015 180.408C334.987 180.496 334.99 180.592 335.024 180.678C335.059 180.764 335.122 180.836 335.203 180.881C335.285 180.926 335.379 180.941 335.471 180.923L335.181 180.193Z" fill="#FFAE00"/>
<path d="M336 181.163L336.29 181.883C336.368 181.832 336.428 181.756 336.461 181.668C336.493 181.58 336.496 181.483 336.47 181.393C336.428 181.309 336.359 181.24 336.274 181.199C336.189 181.157 336.093 181.145 336 181.163Z" fill="#FFAE00"/>
<path fill-rule="evenodd" clip-rule="evenodd" d="M337.901 180.163C338.075 180.596 338.117 181.071 338.021 181.528C337.925 181.985 337.696 182.403 337.362 182.73C337.029 183.056 336.606 183.276 336.147 183.363C335.689 183.449 335.215 183.397 334.785 183.214C334.356 183.031 333.991 182.724 333.735 182.333C333.48 181.943 333.347 181.485 333.352 181.018C333.357 180.551 333.5 180.097 333.763 179.711C334.027 179.326 334.398 179.027 334.831 178.853C335.119 178.738 335.427 178.68 335.737 178.683C336.046 178.687 336.353 178.751 336.638 178.872C336.923 178.994 337.181 179.171 337.398 179.392C337.615 179.614 337.786 179.876 337.901 180.163ZM335.121 179.563C335.165 179.547 335.214 179.548 335.257 179.567C335.3 179.585 335.334 179.62 335.351 179.663V179.733C335.532 179.683 335.725 179.698 335.896 179.777C336.066 179.856 336.203 179.993 336.281 180.163C336.29 180.205 336.284 180.248 336.263 180.285C336.243 180.323 336.211 180.352 336.171 180.367C336.132 180.383 336.088 180.384 336.048 180.37C336.008 180.357 335.974 180.33 335.951 180.293C335.908 180.21 335.839 180.142 335.754 180.101C335.67 180.059 335.574 180.046 335.481 180.063L335.791 180.823C335.977 180.75 336.184 180.754 336.367 180.834C336.55 180.914 336.694 181.063 336.766 181.248C336.839 181.434 336.836 181.641 336.756 181.824C336.676 182.007 336.527 182.15 336.341 182.223V182.283C336.351 182.305 336.356 182.328 336.356 182.352C336.356 182.375 336.351 182.399 336.342 182.42C336.333 182.442 336.319 182.461 336.302 182.477C336.284 182.493 336.264 182.506 336.241 182.513C336.221 182.523 336.198 182.529 336.175 182.529C336.152 182.53 336.129 182.526 336.107 182.518C336.086 182.509 336.066 182.497 336.05 182.48C336.033 182.464 336.02 182.445 336.011 182.423V182.353C335.828 182.404 335.633 182.387 335.46 182.306C335.288 182.226 335.15 182.086 335.071 181.913C335.055 181.87 335.056 181.821 335.075 181.778C335.093 181.735 335.128 181.701 335.171 181.683C335.215 181.669 335.263 181.672 335.305 181.69C335.348 181.708 335.382 181.742 335.401 181.783C335.444 181.868 335.512 181.936 335.597 181.978C335.682 182.02 335.779 182.032 335.871 182.013L335.571 181.253C335.389 181.318 335.189 181.309 335.013 181.23C334.837 181.15 334.698 181.006 334.626 180.826C334.554 180.647 334.554 180.447 334.625 180.268C334.697 180.088 334.836 179.943 335.011 179.863V179.793C335.009 179.756 335.018 179.718 335.037 179.686C335.057 179.653 335.086 179.628 335.121 179.613V179.563Z" fill="#FFAE00"/>
<path d="M386.631 218.073C386.427 217.99 386.198 217.991 385.995 218.076C385.791 218.161 385.63 218.324 385.546 218.528C385.463 218.732 385.464 218.961 385.549 219.165C385.634 219.368 385.797 219.53 386.001 219.613L386.631 218.073Z" fill="black"/>
<path d="M386.27 220.613L385.59 222.093C385.781 222.155 385.988 222.145 386.172 222.064C386.356 221.984 386.504 221.838 386.588 221.656C386.672 221.473 386.686 221.266 386.627 221.074C386.568 220.882 386.441 220.718 386.27 220.613Z" fill="black"/>
<path fill-rule="evenodd" clip-rule="evenodd" d="M390.6 222.153C390.193 223.042 389.532 223.789 388.701 224.302C387.869 224.815 386.905 225.069 385.928 225.034C384.952 224.998 384.008 224.674 383.216 224.103C382.424 223.531 381.82 222.737 381.479 221.822C381.138 220.906 381.076 219.91 381.301 218.96C381.526 218.009 382.027 217.147 382.742 216.481C383.457 215.816 384.354 215.377 385.318 215.221C386.282 215.065 387.271 215.198 388.16 215.603C389.35 216.15 390.276 217.146 390.733 218.374C391.191 219.602 391.143 220.961 390.6 222.153ZM387.5 217.063C387.588 217.105 387.657 217.179 387.691 217.271C387.725 217.363 387.721 217.465 387.68 217.553L387.61 217.693C387.938 217.896 388.187 218.205 388.315 218.569C388.442 218.933 388.44 219.33 388.31 219.693C388.29 219.738 388.262 219.779 388.227 219.812C388.191 219.846 388.149 219.872 388.103 219.889C388.058 219.906 388.009 219.913 387.96 219.91C387.911 219.908 387.863 219.895 387.82 219.873C387.775 219.854 387.734 219.826 387.701 219.79C387.667 219.755 387.64 219.714 387.623 219.668C387.605 219.622 387.596 219.574 387.598 219.525C387.599 219.476 387.61 219.428 387.63 219.383C387.695 219.196 387.699 218.993 387.639 218.804C387.58 218.614 387.461 218.449 387.3 218.333L386.59 219.893C386.915 220.099 387.161 220.409 387.286 220.772C387.412 221.136 387.409 221.531 387.28 221.893C387.098 222.245 386.796 222.519 386.429 222.668C386.063 222.816 385.655 222.829 385.28 222.703L385.21 222.843C385.19 222.888 385.162 222.929 385.127 222.963C385.091 222.996 385.05 223.023 385.004 223.041C384.959 223.058 384.91 223.067 384.861 223.065C384.812 223.064 384.764 223.053 384.72 223.033C384.675 223.014 384.634 222.986 384.601 222.95C384.567 222.915 384.541 222.873 384.525 222.827C384.508 222.781 384.5 222.732 384.503 222.684C384.506 222.635 384.518 222.587 384.54 222.543L384.6 222.393C384.271 222.191 384.023 221.881 383.898 221.517C383.772 221.152 383.776 220.755 383.91 220.393C383.929 220.349 383.957 220.308 383.993 220.274C384.028 220.241 384.07 220.214 384.115 220.196C384.161 220.179 384.209 220.17 384.258 220.171C384.307 220.173 384.355 220.184 384.4 220.203C384.445 220.223 384.485 220.251 384.519 220.287C384.552 220.322 384.578 220.364 384.595 220.41C384.612 220.456 384.619 220.504 384.616 220.553C384.614 220.602 384.601 220.65 384.58 220.693C384.514 220.883 384.512 221.089 384.574 221.28C384.635 221.471 384.756 221.637 384.92 221.753L385.63 220.193C385.289 219.997 385.035 219.68 384.916 219.305C384.796 218.931 384.821 218.525 384.985 218.168C385.148 217.811 385.439 217.527 385.801 217.373C386.162 217.218 386.568 217.204 386.94 217.333L387.01 217.183C387.061 217.105 387.14 217.049 387.231 217.027C387.322 217.005 387.418 217.018 387.5 217.063Z" fill="black"/>
</svg>
