<svg width="1440" height="250" viewBox="0 0 1440 250" fill="none" xmlns="http://www.w3.org/2000/svg">
<path d="M316.311 205.54L315.121 207.67L314.671 208.48C314.555 208.643 314.477 208.83 314.442 209.028C314.408 209.225 314.417 209.427 314.471 209.62H312.211C312.211 209.75 312.211 209.86 312.211 209.96C312.211 210.64 312.211 211.32 312.211 211.96C312.211 212.6 311.991 212.72 311.451 212.72H309.541C309.444 212.736 309.345 212.728 309.252 212.698C309.159 212.667 309.074 212.616 309.005 212.546C308.935 212.477 308.883 212.392 308.853 212.299C308.823 212.206 308.815 212.107 308.831 212.01C308.831 211.31 308.831 210.61 308.831 209.91V209.59H301.441C301.322 209.609 301.201 209.593 301.091 209.545C300.982 209.498 300.888 209.419 300.821 209.32C300.764 209.219 300.739 209.103 300.748 208.988C300.757 208.872 300.799 208.762 300.871 208.67L303.621 203.74C303.811 203.4 303.791 203.36 303.401 203.36H302.631C302.516 203.375 302.4 203.355 302.297 203.301C302.195 203.247 302.111 203.163 302.059 203.06C302.006 202.957 301.987 202.84 302.003 202.725C302.02 202.611 302.071 202.504 302.151 202.42L305.681 197.56L305.811 197.39C305.911 197.24 305.811 197.14 305.681 197.14H305.001C304.882 197.157 304.761 197.137 304.654 197.084C304.547 197.03 304.458 196.945 304.401 196.84C304.356 196.734 304.342 196.618 304.362 196.504C304.381 196.391 304.433 196.285 304.511 196.2L307.791 191.38C307.791 191.33 307.861 191.29 307.891 191.23C307.931 191.176 307.968 191.119 308.001 191.06C307.922 191.032 307.842 191.009 307.761 190.99C307.601 191.005 307.44 191.005 307.281 190.99C307.131 190.99 306.921 190.89 306.871 190.78C306.845 190.7 306.838 190.615 306.85 190.532C306.862 190.449 306.893 190.37 306.941 190.3C307.511 189.49 308.101 188.7 308.691 187.91C309.131 187.31 309.571 186.7 310.021 186.1C310.341 185.68 310.691 185.68 311.021 186.1C312.041 187.473 313.041 188.847 314.021 190.22C314.131 190.377 314.177 190.57 314.151 190.76C314.091 191 313.841 190.98 313.621 190.99C313.401 191 313.211 191.05 313.001 191.07C313.088 191.255 313.184 191.436 313.291 191.61L316.451 196.25C316.671 196.57 316.681 196.84 316.451 197.04C316.327 197.128 316.182 197.183 316.031 197.2C315.821 197.2 315.611 197.2 315.401 197.2C315.314 197.211 315.23 197.234 315.151 197.27C315.173 197.35 315.203 197.427 315.241 197.5C316.001 198.55 316.751 199.59 317.511 200.62C317.544 200.652 317.57 200.69 317.588 200.732C317.606 200.774 317.615 200.819 317.615 200.865C317.615 200.911 317.606 200.956 317.588 200.998C317.57 201.04 317.544 201.078 317.511 201.11C316.911 201.91 316.321 202.73 315.731 203.54C315.581 203.691 315.474 203.879 315.421 204.085C315.369 204.291 315.372 204.507 315.431 204.711C315.49 204.915 315.603 205.1 315.758 205.246C315.913 205.391 316.103 205.493 316.311 205.54Z" fill="#4A4C4C"/>
<path d="M321.408 209.63H315.648C315.198 209.63 315.018 209.32 315.238 208.92L317.328 205.2L317.518 204.81H316.688C316.585 204.828 316.479 204.813 316.384 204.769C316.289 204.724 316.21 204.651 316.158 204.56C316.048 204.34 316.158 204.18 316.278 204.01L318.948 200.34L319.178 199.98C318.959 200.001 318.738 200.001 318.518 199.98C318.341 199.96 318.173 199.887 318.038 199.77C317.888 199.59 318.038 199.4 318.118 199.22C318.958 198 319.795 196.773 320.628 195.54C320.688 195.45 320.738 195.35 320.828 195.18H320.208C319.868 195.18 319.738 194.91 319.928 194.65C320.738 193.53 321.558 192.43 322.378 191.33C322.412 191.269 322.461 191.219 322.521 191.184C322.581 191.149 322.649 191.131 322.718 191.131C322.787 191.131 322.855 191.149 322.915 191.184C322.975 191.219 323.024 191.269 323.058 191.33L325.488 194.62C325.688 194.91 325.558 195.15 325.208 195.17H324.938H324.618C324.667 195.284 324.723 195.394 324.788 195.5L327.208 199.05C327.267 199.129 327.321 199.213 327.368 199.3C327.416 199.362 327.446 199.437 327.452 199.516C327.459 199.594 327.443 199.673 327.406 199.743C327.369 199.812 327.313 199.87 327.244 199.908C327.175 199.947 327.097 199.965 327.018 199.96C326.788 199.96 326.568 199.96 326.258 199.96C326.324 200.084 326.398 200.204 326.478 200.32L329.098 203.92C329.228 204.11 329.398 204.29 329.268 204.54C329.138 204.79 328.898 204.79 328.668 204.79H327.928C327.998 204.95 328.038 205.06 328.088 205.15L330.138 208.83C330.418 209.33 330.258 209.61 329.678 209.61H323.998C323.998 209.75 323.998 209.85 323.998 209.96C323.998 210.68 323.998 211.39 323.998 212.11C323.998 212.56 323.808 212.74 323.358 212.74H322.098C321.578 212.74 321.408 212.58 321.408 212.07V209.61V209.63Z" fill="#4A4C4C"/>
<path d="M1058.73 217.56C1057.28 217.56 1056.9 217.11 1056.62 215.68C1056.31 213.91 1056.43 212.093 1056.98 210.38C1059.4 201.8 1061.74 193.19 1064.1 184.59C1064.15 184.353 1064.19 184.112 1064.21 183.87C1064.48 184.06 1064.61 184.14 1064.73 184.24C1066.67 185.76 1068.61 187.3 1070.56 188.8C1070.7 188.884 1070.81 189.018 1070.86 189.177C1070.91 189.335 1070.9 189.507 1070.84 189.66C1068.6 197.773 1066.36 205.883 1064.13 213.99C1064.13 214.18 1064.05 214.37 1064.01 214.57L1058.73 217.56Z" fill="#4A4C4C"/>
<path d="M1067.97 212.32C1069.9 205.32 1071.82 198.38 1073.77 191.32L1074.48 191.88L1084.48 199.75C1085.68 200.69 1085.8 201.25 1085.09 202.55L1067.97 212.32Z" fill="#4A4C4C"/>
<path d="M1049.87 171.301C1049.37 173.141 1048.87 174.911 1048.4 176.691C1048.33 177.022 1048.17 177.327 1047.93 177.563C1047.69 177.799 1047.38 177.955 1047.05 178.011C1046.78 178.055 1046.51 178.031 1046.26 177.943C1046 177.855 1045.77 177.705 1045.59 177.506C1045.41 177.307 1045.28 177.066 1045.22 176.805C1045.16 176.544 1045.16 176.271 1045.23 176.011C1045.45 175.111 1045.71 174.231 1045.96 173.341L1046.12 172.671L1044.78 173.441C1044.25 173.741 1043.72 174.051 1043.18 174.341C1042.99 174.457 1042.79 174.534 1042.57 174.568C1042.36 174.602 1042.14 174.592 1041.93 174.539C1041.72 174.486 1041.52 174.39 1041.35 174.258C1041.18 174.126 1041.03 173.96 1040.93 173.771C1040.82 173.583 1040.75 173.376 1040.72 173.16C1040.69 172.944 1040.7 172.725 1040.76 172.516C1040.82 172.307 1040.92 172.111 1041.06 171.942C1041.2 171.773 1041.37 171.633 1041.56 171.531C1042.42 171.021 1043.29 170.531 1044.15 170.051C1044.25 169.992 1044.35 169.926 1044.45 169.851L1043.91 169.671C1043.01 169.421 1042.1 169.191 1041.2 168.921C1040.78 168.806 1040.43 168.531 1040.21 168.156C1040 167.781 1039.94 167.337 1040.06 166.921C1040.11 166.713 1040.21 166.519 1040.34 166.349C1040.47 166.18 1040.63 166.038 1040.82 165.932C1041 165.827 1041.21 165.76 1041.42 165.736C1041.64 165.711 1041.85 165.73 1042.06 165.791C1042.98 166.021 1043.88 166.281 1044.78 166.531C1044.95 166.531 1045.12 166.611 1045.4 166.671L1044.02 164.251C1043.88 164.065 1043.78 163.851 1043.72 163.624C1043.67 163.397 1043.67 163.161 1043.71 162.932C1043.76 162.703 1043.85 162.487 1043.99 162.297C1044.13 162.108 1044.3 161.95 1044.5 161.834C1044.71 161.718 1044.93 161.646 1045.16 161.623C1045.4 161.601 1045.63 161.628 1045.85 161.704C1046.07 161.779 1046.27 161.901 1046.44 162.061C1046.61 162.221 1046.75 162.415 1046.84 162.631C1047.28 163.401 1047.71 164.171 1048.2 165.021C1048.27 164.831 1048.34 164.721 1048.37 164.601L1049.12 161.881C1049.16 161.659 1049.25 161.449 1049.37 161.263C1049.5 161.077 1049.67 160.919 1049.86 160.8C1050.05 160.681 1050.26 160.603 1050.49 160.571C1050.71 160.539 1050.94 160.554 1051.16 160.614C1051.37 160.675 1051.57 160.779 1051.75 160.922C1051.92 161.065 1052.07 161.242 1052.17 161.443C1052.27 161.644 1052.33 161.863 1052.35 162.089C1052.36 162.314 1052.33 162.539 1052.25 162.751C1051.98 163.751 1051.68 164.751 1051.37 165.881C1051.58 165.791 1051.71 165.751 1051.82 165.691L1054.27 164.301C1054.46 164.178 1054.67 164.096 1054.89 164.059C1055.12 164.022 1055.35 164.032 1055.57 164.087C1055.79 164.142 1055.99 164.242 1056.17 164.38C1056.35 164.519 1056.5 164.692 1056.61 164.891C1056.71 165.086 1056.78 165.301 1056.8 165.523C1056.81 165.744 1056.79 165.967 1056.72 166.177C1056.65 166.388 1056.53 166.582 1056.39 166.748C1056.24 166.913 1056.06 167.047 1055.86 167.141L1053.18 168.671C1053.18 168.671 1053.18 168.671 1053.1 168.761C1053.21 168.826 1053.34 168.88 1053.47 168.921C1054.35 169.171 1055.24 169.401 1056.13 169.661C1056.35 169.698 1056.57 169.784 1056.76 169.911C1056.96 170.038 1057.12 170.204 1057.24 170.398C1057.37 170.593 1057.45 170.811 1057.48 171.039C1057.51 171.266 1057.5 171.499 1057.44 171.721C1057.37 171.937 1057.26 172.138 1057.11 172.311C1056.97 172.484 1056.79 172.625 1056.58 172.725C1056.38 172.825 1056.16 172.883 1055.93 172.894C1055.71 172.905 1055.48 172.87 1055.27 172.791L1050.47 171.471L1049.87 171.301Z" fill="#4A4C4C"/>
<path d="M1055.17 204.3C1054.98 202.79 1054.78 201.3 1054.59 199.76C1053.63 192.467 1052.69 185.174 1051.76 177.88C1051.67 177.565 1051.68 177.233 1051.77 176.921C1051.87 176.608 1052.05 176.328 1052.29 176.11C1052.59 175.847 1052.98 175.708 1053.39 175.721C1053.79 175.734 1054.17 175.898 1054.46 176.18L1060.46 180.89C1061.52 181.72 1061.52 181.72 1061.16 183.02C1059.26 189.914 1057.37 196.807 1055.47 203.7C1055.43 203.915 1055.41 204.132 1055.4 204.35L1055.17 204.3Z" fill="#4A4C4C"/>
<path d="M1071.09 176.52C1070.92 176.12 1070.99 175.96 1071.35 175.71C1071.8 175.415 1072.31 175.234 1072.85 175.18L1080.77 174.05L1080.98 173.99V174.18C1080.8 174.89 1080.61 175.6 1080.43 176.32C1080.42 176.37 1080.4 176.416 1080.36 176.449C1080.33 176.482 1080.28 176.5 1080.23 176.5L1072.76 177.57H1072.58L1071.09 176.52Z" fill="#4A4C4C"/>
<path d="M1073.63 178.42L1080.07 177.5L1080.01 177.76L1079.01 181.451C1078.89 181.891 1078.75 181.991 1078.31 181.961L1073.63 178.42Z" fill="#4A4C4C"/>
<path d="M1082.71 168.561L1081.06 168.801C1080.96 168.821 1080.85 168.811 1080.76 168.772C1080.66 168.733 1080.58 168.666 1080.53 168.581C1080.48 168.512 1080.46 168.434 1080.45 168.354C1080.45 168.273 1080.46 168.193 1080.5 168.12C1080.53 168.047 1080.58 167.983 1080.65 167.934C1080.71 167.885 1080.79 167.853 1080.87 167.841L1081.69 167.721H1081.89L1081.52 167.441L1081.08 167.111C1081.02 167.074 1080.98 167.027 1080.94 166.972C1080.91 166.918 1080.89 166.857 1080.88 166.794C1080.87 166.73 1080.87 166.666 1080.88 166.603C1080.9 166.541 1080.93 166.482 1080.97 166.431C1081 166.377 1081.05 166.332 1081.11 166.298C1081.16 166.264 1081.22 166.241 1081.29 166.232C1081.35 166.223 1081.42 166.227 1081.48 166.244C1081.55 166.26 1081.6 166.29 1081.66 166.331L1082.38 166.871L1082.47 166.921C1082.47 166.851 1082.47 166.811 1082.47 166.761L1082.35 165.921C1082.33 165.793 1082.36 165.665 1082.44 165.562C1082.51 165.459 1082.63 165.39 1082.76 165.371C1082.82 165.361 1082.88 165.363 1082.95 165.379C1083.01 165.394 1083.07 165.422 1083.12 165.46C1083.17 165.498 1083.21 165.546 1083.24 165.601C1083.28 165.656 1083.3 165.717 1083.31 165.781C1083.36 166.061 1083.39 166.341 1083.43 166.621V166.801L1083.93 166.131C1083.96 166.07 1084.01 166.017 1084.06 165.976C1084.12 165.935 1084.18 165.906 1084.25 165.891C1084.32 165.877 1084.39 165.877 1084.46 165.892C1084.53 165.906 1084.59 165.936 1084.65 165.977C1084.7 166.019 1084.75 166.072 1084.78 166.133C1084.81 166.193 1084.84 166.261 1084.84 166.33C1084.85 166.4 1084.84 166.469 1084.81 166.535C1084.79 166.601 1084.75 166.66 1084.71 166.711L1084.22 167.371H1084.35L1085.19 167.251C1085.25 167.242 1085.32 167.246 1085.38 167.264C1085.45 167.281 1085.51 167.311 1085.56 167.351C1085.61 167.391 1085.65 167.442 1085.69 167.499C1085.72 167.557 1085.74 167.62 1085.75 167.686C1085.76 167.751 1085.75 167.818 1085.74 167.882C1085.72 167.946 1085.69 168.006 1085.65 168.058C1085.61 168.111 1085.56 168.155 1085.5 168.188C1085.44 168.221 1085.38 168.242 1085.32 168.251L1084.32 168.381L1084.42 168.481L1085.1 168.991C1085.15 169.028 1085.2 169.077 1085.23 169.134C1085.27 169.19 1085.3 169.254 1085.31 169.32C1085.32 169.386 1085.32 169.454 1085.3 169.52C1085.28 169.585 1085.26 169.647 1085.22 169.701C1085.17 169.753 1085.12 169.796 1085.06 169.827C1085 169.859 1084.94 169.878 1084.87 169.884C1084.81 169.889 1084.74 169.881 1084.68 169.86C1084.61 169.839 1084.56 169.805 1084.51 169.761L1083.77 169.211C1083.76 169.25 1083.76 169.291 1083.77 169.331C1083.77 169.601 1083.85 169.881 1083.88 170.151C1083.89 170.218 1083.9 170.288 1083.88 170.357C1083.87 170.425 1083.85 170.49 1083.81 170.548C1083.77 170.606 1083.72 170.655 1083.66 170.691C1083.6 170.728 1083.53 170.751 1083.47 170.761C1083.4 170.766 1083.33 170.758 1083.27 170.737C1083.2 170.717 1083.14 170.684 1083.09 170.64C1083.04 170.596 1083 170.543 1082.97 170.483C1082.94 170.423 1082.92 170.358 1082.92 170.291L1082.71 168.811C1082.71 168.811 1082.71 168.631 1082.71 168.561Z" fill="#FFAE00"/>
<path d="M1074.3 173.95L1075.47 173.25L1081.13 169.86C1081.2 169.801 1081.3 169.763 1081.39 169.751C1081.49 169.739 1081.59 169.752 1081.68 169.79C1081.79 169.844 1081.87 169.937 1081.91 170.049C1081.96 170.162 1081.96 170.287 1081.92 170.4L1081.35 172.61C1081.25 173 1081.25 173 1080.85 173.05L1074.5 173.97C1074.43 173.979 1074.37 173.996 1074.31 174.02L1074.3 173.95Z" fill="#4A4C4C"/>
<path d="M1096.76 219.21C1096.32 218.97 1096.29 218.63 1096.68 218.3C1097.58 217.575 1098.36 216.727 1099.02 215.78C1099.33 215.361 1099.54 214.88 1099.65 214.37C1099.71 214.15 1099.71 213.92 1099.65 213.7C1099.6 213.48 1099.49 213.277 1099.33 213.109C1099.18 212.941 1098.99 212.813 1098.78 212.737C1098.56 212.66 1098.33 212.637 1098.11 212.67C1097.65 212.71 1097.2 212.85 1096.8 213.08C1096.2 213.396 1095.63 213.782 1095.12 214.23C1094.42 214.902 1093.58 215.401 1092.65 215.69C1092.31 215.807 1091.94 215.829 1091.59 215.755C1091.24 215.681 1090.92 215.514 1090.65 215.27C1090.43 215.06 1090.27 214.797 1090.18 214.506C1090.1 214.214 1090.09 213.906 1090.16 213.61C1090.33 212.788 1090.71 212.024 1091.26 211.39C1091.58 210.979 1091.85 210.529 1092.06 210.05C1092.29 210.579 1092.7 211.01 1093.22 211.27L1092.43 211.55C1092.36 211.578 1092.3 211.619 1092.24 211.67C1091.82 212.167 1091.48 212.727 1091.24 213.33C1091.19 213.491 1091.14 213.654 1091.11 213.82C1091.09 213.968 1091.1 214.119 1091.15 214.261C1091.2 214.402 1091.28 214.528 1091.4 214.628C1091.51 214.727 1091.64 214.797 1091.79 214.831C1091.93 214.865 1092.09 214.861 1092.23 214.82C1092.75 214.717 1093.24 214.502 1093.67 214.19C1093.99 213.98 1094.29 213.73 1094.59 213.49C1095.42 212.733 1096.41 212.163 1097.48 211.82C1097.81 211.712 1098.15 211.669 1098.5 211.695C1098.84 211.72 1099.17 211.814 1099.48 211.97C1099.9 212.201 1100.25 212.555 1100.46 212.986C1100.67 213.417 1100.75 213.904 1100.68 214.38C1100.5 215.289 1100.08 216.136 1099.48 216.84C1098.84 217.65 1098.11 218.385 1097.31 219.03C1097.24 219.092 1097.16 219.145 1097.07 219.19L1096.76 219.21Z" fill="#4A4C4C"/>
<path d="M1099.87 205.42C1099.26 205.416 1098.67 205.231 1098.16 204.888C1097.66 204.545 1097.27 204.06 1097.04 203.494C1096.81 202.929 1096.76 202.309 1096.89 201.713C1097.01 201.117 1097.31 200.572 1097.75 200.148C1098.19 199.723 1098.74 199.438 1099.34 199.33C1099.94 199.221 1100.56 199.293 1101.12 199.537C1101.68 199.78 1102.15 200.185 1102.48 200.698C1102.81 201.212 1102.97 201.811 1102.96 202.42C1102.95 203.227 1102.61 203.996 1102.03 204.559C1101.46 205.121 1100.68 205.431 1099.87 205.42Z" fill="#4A4C4C"/>
<path d="M1096.73 203.931C1096.97 204.393 1097.3 204.799 1097.71 205.122C1098.11 205.444 1098.59 205.676 1099.09 205.801L1098.92 205.921L1093.85 210.591C1093.71 210.733 1093.52 210.821 1093.32 210.837C1093.12 210.854 1092.92 210.798 1092.76 210.681C1092.59 210.562 1092.48 210.387 1092.43 210.189C1092.38 209.991 1092.41 209.782 1092.5 209.601C1092.55 209.492 1092.62 209.388 1092.69 209.291L1096.61 204.081L1096.73 203.931Z" fill="#4A4C4C"/>
<path d="M682.999 236.8C663.839 236.8 648.149 219.99 629.379 216.41C625.149 215.6 620.809 215.36 616.599 214.47C604.999 212.06 594.389 204.68 582.499 205.06C576.849 205.24 571.389 207.19 565.749 207.34C553.489 207.66 542.529 199.56 530.289 198.77C519.649 198.08 509.609 202.96 499.289 205.62C491.839 207.55 484.119 208.33 476.449 209.11L430.529 213.76C423.099 214.51 415.529 216.98 408.659 219.76C400.049 223.25 383.329 213 374.529 216.05C365.729 219.1 358.679 234.24 350.069 237.69C349.208 237.954 348.445 238.469 347.879 239.17C346.079 241.92 350.949 244.17 354.359 244.17L645.809 244.63H677.599C680.599 244.63 683.939 244.47 685.829 242.3C687.719 240.13 685.689 235.73 682.939 236.76" fill="#4A4C4C"/>
<path d="M726.573 227.49C722.023 227.49 718.303 221.04 713.843 219.67C712.843 219.36 711.843 219.26 710.843 218.92C708.083 217.98 705.583 215.17 702.753 215.32C701.423 215.39 700.123 216.14 698.753 216.19C695.843 216.31 693.243 213.19 690.343 212.91C687.813 212.64 685.433 214.51 682.983 215.53C681.236 216.191 679.416 216.641 677.563 216.87L665.073 218.92C663.244 219.096 661.474 219.662 659.883 220.58C657.883 221.92 656.163 224.39 654.083 225.58C652.003 226.77 649.653 226.58 647.613 227.86C647.382 227.989 647.2 228.189 647.093 228.43C646.663 229.43 647.823 230.33 648.633 230.34L717.803 230.51H725.343C725.719 230.571 726.106 230.519 726.453 230.361C726.8 230.202 727.092 229.945 727.293 229.62C727.743 228.78 727.293 227.09 726.613 227.49" fill="#4A4C4C"/>
<path d="M1048.63 226.061H1052.38V230.151H927.539V227.831L929.699 224.811H942.319L944.409 227.051H947.509V228.191H957.319L961.249 224.271L965.659 228.281L972.199 219.231V216.831H974.309V218.841H978.449V220.571H984.119L989.739 214.951H996.619V211.931L999.449 209.091H1000.17V206.441H1003.83L1003.25 207.031H1002.29V208.281H1003.25V212.111H1005.56V211.261H1007.77V209.711H1010.27V211.161H1011.81V217.351H1014.02V214.711L1018.06 197.981V190.301H1018.83V185.581H1019.69V190.301H1020.75V197.691L1024.69 214.711V217.111H1027.19V215.861H1031.04V225.011H1033.34V220.191H1046.9V221.161H1048.63V226.061Z" fill="#4A4C4C"/>
<path d="M1185.88 218.721V227.881H1088.11V226.491H1088.5V223.311H1090.81V220.331H1092.25V222.641H1093.5V219.561H1094.27V217.641H1096.38V216.391H1099.85L1111.29 213.801H1119.64V211.871H1126.96L1132.05 216.301V218.511H1133.11V220.241H1137.34L1139.46 217.261H1144.44V211.101H1146.18V213.601H1146.94V217.451H1152.53L1154.31 219.231V220.911H1155.51V217.641H1158.48V213.891H1159.44V217.741L1160.56 218.841V222.651H1163.32V220.531H1163.83V219.841H1175.17V220.991H1177.13V219.371H1179.14V217.431H1184.66V218.721H1185.88Z" fill="#4A4C4C"/>
<path d="M979.712 227.541C972.852 227.541 967.232 221.201 960.502 219.851C958.982 219.551 957.432 219.461 955.922 219.121C951.762 218.191 947.982 215.431 943.712 215.571C941.712 215.641 939.712 216.381 937.712 216.431C933.322 216.551 929.392 213.501 925.012 213.211C921.202 212.951 917.602 214.781 913.912 215.791C911.224 216.442 908.489 216.88 905.732 217.101L886.812 219.101C884.135 219.252 881.496 219.801 878.982 220.731C875.902 222.041 873.372 224.481 870.222 225.631C867.072 226.781 863.542 226.561 860.462 227.861C860.146 227.959 859.869 228.155 859.672 228.421C859.022 229.421 860.772 230.301 861.992 230.301L966.412 230.471H977.802C978.862 230.471 980.072 230.411 980.742 229.591C981.412 228.771 980.742 227.111 979.742 227.501" fill="#4A4C4C"/>
<path d="M894.738 227.41C890.958 227.41 887.858 223.92 884.148 223.17C883.318 223 882.458 222.951 881.628 222.771C879.328 222.261 877.248 220.771 874.898 220.771C873.788 220.771 872.708 221.22 871.588 221.25C869.168 221.31 867.008 219.63 864.588 219.47C862.488 219.32 860.508 220.34 858.468 220.89C856.986 221.249 855.478 221.494 853.958 221.62L843.538 222.73C842.062 222.813 840.607 223.113 839.218 223.62C837.518 224.35 836.118 225.69 834.388 226.33C832.658 226.97 830.708 226.84 829.008 227.56C828.834 227.612 828.682 227.721 828.578 227.87C828.218 228.44 829.178 228.87 829.858 228.87L887.408 228.97H893.688C893.978 229.012 894.273 228.99 894.553 228.905C894.833 228.821 895.09 228.676 895.308 228.48C895.678 228.03 895.308 227.11 894.738 227.33" fill="#4A4C4C"/>
<path d="M1440 227.48H0V249.98H1440V227.48Z" fill="#040707"/>
<path d="M439.43 231.06H182V228.06L185.89 227.53L187.89 226.04H190.02L193.4 224.55L196.23 223.91L198.72 223.27L200.04 223.86L205.04 223.27L206.46 220.55H210.81L214.35 219.25L219.86 219.75L221.72 217.89L227.65 217.15C227.65 217.15 229.51 217.47 229.51 217.15C229.7 216.614 229.963 216.106 230.29 215.64H234.5L235.73 214.64L238.3 213.05L241.85 213.68L243.01 213.05H246.11C246.65 213.43 247.95 213.27 248.84 213.27L250.9 213.51L252.9 212.6L254.49 212.86L256.01 213.19L258.48 212.19L260.48 212.26C260.533 212.271 260.587 212.271 260.64 212.26C263.12 211.72 265.51 210.94 267.9 210.26L273.27 208.83C274.754 208.331 276.305 208.055 277.87 208.01C279.46 208.01 281.05 208.08 282.62 208.18C284.003 208.357 285.401 208.384 286.79 208.26C287.79 208.15 288.68 207.95 289.62 207.8C293.625 207.289 297.67 207.158 301.7 207.41C301.93 207.69 301.92 208.06 302.61 208.21C303.052 208.288 303.502 208.315 303.95 208.29H305.1C307.03 208.29 308.83 209.07 310.74 209.23C312.65 209.39 315 208.69 317 208.88C319 209.07 317.42 207.76 319.57 207.95C319.63 207.95 320.79 208.66 320.84 208.65C321.33 208.512 321.805 208.328 322.26 208.1C323.18 207.81 323.67 208.32 323.7 208.1C323.73 207.88 323.93 208.37 324.05 208.32C324.17 208.27 324.05 208.55 324.22 208.55C326.22 208.55 328.14 208.55 330.1 208.55C330.373 208.525 330.647 208.525 330.92 208.55C331.224 208.588 331.525 208.648 331.82 208.73L338.33 210.48L340.33 212.48L344.11 213.48L347.65 212.84L354.15 213.84V215.05C354.15 215.05 355.93 215.48 356.29 215.54C356.65 215.6 365.63 215.54 365.63 215.54L367.17 216.83L371.17 217.18L374.84 219.09L378.15 218.53L382.29 219.81H386L389.31 220.52L390.31 222.15L394.57 221.8L399.89 223.8L400.6 224.72L404.26 224.23L408.76 225.5L409.58 226.5H415.74L416.33 228.2L421.89 228.98H425.55V228.06L428.55 228.34L430.2 229.34H433.99L439.43 231.06Z" fill="#040707"/>
<path d="M1065 230.45C1065.08 230.46 1065.16 230.46 1065.24 230.45H1223.33V227.33H1219C1218.95 227.344 1218.89 227.344 1218.84 227.33C1218.81 227.292 1218.79 227.248 1218.78 227.2C1218.73 226.95 1218.65 226.708 1218.53 226.48C1218.46 226.25 1218.39 226.03 1218.31 225.8C1218.14 225.28 1217.96 224.8 1217.79 224.25C1217.77 224.189 1217.74 224.131 1217.7 224.08C1217.67 224.056 1217.63 224.038 1217.59 224.028C1217.55 224.017 1217.51 224.015 1217.47 224.02H1216.32C1215.93 224.041 1215.53 224 1215.15 223.9C1214.95 223.848 1214.77 223.752 1214.61 223.62C1214.46 223.5 1214.38 223.15 1214.24 223.08C1214.16 223.055 1214.08 223.055 1214 223.08C1213.6 223.221 1213.22 223.405 1212.87 223.63C1212.43 223.85 1211.77 223.98 1211.43 223.5C1211.29 223.3 1210.83 222.84 1210.76 222.72C1210.47 222.44 1210.13 222.217 1209.76 222.06C1209.44 221.94 1209.37 222.06 1208.88 222.06C1208.39 222.06 1207.76 222.06 1207.65 222.06C1207.13 222.06 1206.65 221.61 1206.12 221.45C1205.53 221.257 1204.89 221.296 1204.33 221.56L1203.99 221.73C1203.17 222.021 1202.28 222.08 1201.42 221.9C1200.69 221.78 1200.02 221.41 1199.29 221.23C1198.54 221.044 1197.77 220.937 1196.99 220.91C1196.29 220.868 1195.59 220.964 1194.93 221.19C1194.26 221.429 1193.54 221.531 1192.83 221.49C1192.3 221.49 1191.77 221.49 1191.24 221.49C1190.74 221.523 1190.25 221.61 1189.77 221.75C1189.74 221.76 1189.7 221.76 1189.67 221.75C1189.62 221.733 1189.59 221.701 1189.56 221.66C1189.24 221.315 1188.84 221.048 1188.4 220.88C1187.96 220.646 1187.46 220.542 1186.96 220.58C1186.56 220.65 1186.17 220.74 1185.78 220.83C1185.5 220.926 1185.2 221.002 1184.91 221.06C1184.56 221.06 1184.2 221.06 1183.85 221.11C1183.15 221.069 1182.44 221.123 1181.75 221.27C1181.34 221.37 1180.94 221.55 1180.54 221.68C1179.83 221.854 1179.11 221.967 1178.38 222.02C1178.16 222.02 1177.94 222.02 1177.72 222.09C1177.49 222.166 1177.25 222.203 1177.01 222.2C1176.88 222.182 1176.75 222.138 1176.64 222.07C1176.11 221.833 1175.53 221.7 1174.95 221.68C1173.82 221.735 1172.7 221.909 1171.6 222.2C1171.29 222.294 1171 222.447 1170.74 222.65C1170.42 222.85 1170.11 223.05 1169.74 223.23C1169.29 223.45 1168.86 223.697 1168.45 223.97C1168.02 224.28 1167.72 224.84 1167.25 225.08C1166.63 225.325 1165.99 225.506 1165.34 225.62L1163.29 226.14C1163.05 226.195 1162.81 226.195 1162.57 226.14C1162.42 226.091 1162.26 226.091 1162.11 226.14C1162.06 226.14 1162 226.23 1161.95 226.24C1161.9 226.25 1161.77 226.18 1161.7 226.15C1161.57 226.102 1161.43 226.083 1161.29 226.097C1161.15 226.111 1161.01 226.157 1160.89 226.23C1160.89 226.13 1160.75 226.11 1160.67 226.16C1160.59 226.21 1160.48 226.27 1160.4 226.16C1160.37 226.114 1160.34 226.063 1160.32 226.01C1160.3 225.967 1160.26 225.929 1160.22 225.898C1160.18 225.868 1160.14 225.845 1160.09 225.832C1160.04 225.819 1159.99 225.816 1159.94 225.823C1159.89 225.829 1159.84 225.845 1159.8 225.87C1159.6 225.95 1159.32 226.24 1159.09 226.15C1158.86 226.06 1158.93 225.98 1158.84 225.9C1158.79 225.846 1158.72 225.805 1158.65 225.782C1158.58 225.759 1158.5 225.755 1158.43 225.77C1158.28 225.77 1158.14 225.95 1157.98 225.95C1157.82 225.95 1157.68 225.85 1157.53 225.85C1157.38 225.881 1157.23 225.921 1157.09 225.97C1156.88 225.97 1156.65 225.84 1156.46 225.97L1156.37 226.03C1156.24 226.1 1156.12 226.03 1156.01 225.93C1155.85 225.891 1155.69 225.891 1155.53 225.93C1155.02 226.058 1154.52 226.225 1154.04 226.43C1153.34 226.641 1152.6 226.641 1151.9 226.43C1151.82 226.416 1151.74 226.416 1151.66 226.43C1151.45 226.441 1151.25 226.522 1151.09 226.66V226.97C1150.82 226.981 1150.56 227.053 1150.33 227.18C1150.19 227.26 1150.06 227.35 1149.91 227.42C1149.77 227.445 1149.62 227.445 1149.48 227.42C1149.3 227.445 1149.13 227.488 1148.96 227.55L1147.82 227.89C1147.78 227.901 1147.75 227.901 1147.71 227.89C1147.58 227.89 1147.49 227.69 1147.4 227.6C1147.28 227.48 1147.12 227.397 1146.95 227.36C1146.74 227.36 1146.52 227.3 1146.31 227.23C1146.08 227.128 1145.86 227.011 1145.64 226.88C1145.53 226.816 1145.41 226.778 1145.29 226.77C1145.16 226.761 1145.04 226.782 1144.92 226.83C1144.87 226.868 1144.82 226.892 1144.76 226.9C1144.66 226.9 1144.58 226.83 1144.5 226.76C1144.34 226.617 1144.16 226.51 1143.96 226.444C1143.75 226.378 1143.54 226.357 1143.33 226.38C1143.26 226.39 1143.2 226.39 1143.13 226.38C1143.07 226.357 1143.01 226.319 1142.97 226.27L1142.13 225.53C1142.09 225.488 1142.04 225.457 1141.98 225.44C1141.93 225.426 1141.88 225.426 1141.83 225.44C1141.55 225.522 1141.27 225.559 1140.98 225.55C1140.7 225.528 1140.42 225.606 1140.19 225.77L1139.91 225.36C1139.88 225.319 1139.85 225.282 1139.81 225.25C1139.75 225.235 1139.7 225.235 1139.64 225.25H1139.17C1139.13 225.241 1139.08 225.241 1139.04 225.25C1139 225.28 1138.97 225.317 1138.94 225.36C1138.83 225.458 1138.71 225.532 1138.57 225.576C1138.44 225.621 1138.29 225.636 1138.15 225.62H1137.33C1137.27 225.601 1137.21 225.601 1137.15 225.62C1137.1 225.684 1137.07 225.755 1137.05 225.83C1136.95 226.06 1136.77 226.04 1136.59 226.14C1136.38 226.256 1136.22 226.435 1136.12 226.65C1136.1 226.705 1136.08 226.756 1136.04 226.8L1135.93 226.88L1135.5 227.08C1135.47 227.098 1135.44 227.122 1135.41 227.15C1135.41 227.18 1135.41 227.211 1135.41 227.24C1135.41 227.32 1135.41 227.52 1135.34 227.56C1135.27 227.6 1135.08 227.56 1134.98 227.56C1134.84 227.585 1134.7 227.567 1134.57 227.51C1134.51 227.464 1134.45 227.406 1134.41 227.34L1134.16 227C1134.12 226.938 1134.06 226.887 1134 226.85C1133.94 226.836 1133.88 226.836 1133.82 226.85C1133.49 226.888 1133.15 226.888 1132.82 226.85C1132.6 226.79 1132.46 226.39 1132.37 226.17C1132.35 226.127 1132.33 226.087 1132.3 226.05C1132.26 226.02 1132.21 226 1132.16 225.99L1130.84 225.65C1130.74 225.776 1130.64 225.897 1130.53 226.01C1130.36 226.069 1130.19 226.113 1130.01 226.14L1128.82 226.42C1128.79 226.599 1128.73 226.77 1128.63 226.92L1128.47 227.07C1128.26 227.181 1128.06 227.326 1127.9 227.5C1127.77 227.663 1127.65 227.841 1127.56 228.03C1127.3 227.879 1127.05 227.708 1126.82 227.52C1126.59 227.339 1126.3 227.246 1126 227.26C1125.71 227.3 1125.41 227.262 1125.13 227.15C1124.96 227.009 1124.77 226.885 1124.57 226.78C1124.46 226.765 1124.36 226.765 1124.25 226.78H1123.06C1122.75 226.78 1122.29 226.9 1122.06 226.55C1121.97 226.38 1121.94 226.18 1121.86 226.02C1121.79 225.898 1121.69 225.793 1121.57 225.712C1121.45 225.631 1121.32 225.576 1121.18 225.55C1120.91 225.49 1120.64 225.48 1120.37 225.42C1120.22 225.394 1120.08 225.333 1119.96 225.24C1119.81 225.112 1119.69 224.956 1119.6 224.78L1119.12 223.98C1119.09 223.925 1119.05 223.877 1119 223.84C1118.94 223.826 1118.88 223.826 1118.82 223.84C1118.54 223.87 1118.27 223.87 1117.99 223.84C1117.77 223.78 1117.57 223.674 1117.4 223.53C1117.06 223.207 1116.68 222.931 1116.26 222.71C1115.94 222.609 1115.6 222.561 1115.26 222.57C1115.2 222.58 1115.13 222.58 1115.07 222.57C1115.01 222.543 1114.95 222.502 1114.91 222.45L1113.84 221.45C1113.81 221.412 1113.77 221.381 1113.72 221.36C1113.67 221.346 1113.62 221.346 1113.57 221.36L1112.4 221.44C1111.74 221.447 1111.08 221.332 1110.46 221.1C1109.88 220.936 1109.27 220.875 1108.67 220.92C1108.55 220.956 1108.42 220.956 1108.3 220.92C1108.22 220.879 1108.15 220.825 1108.09 220.76L1107.49 220.17C1107.37 220.033 1107.22 219.915 1107.06 219.82C1106.82 219.721 1106.57 219.68 1106.31 219.7H1103.72C1103.61 219.709 1103.51 219.739 1103.42 219.789C1103.33 219.839 1103.25 219.908 1103.18 219.99C1103.07 220.11 1102.9 220.44 1102.74 220.42C1102.3 220.411 1101.87 220.33 1101.46 220.18C1101.06 220 1100.72 219.71 1100.34 219.5C1100.27 219.464 1100.2 219.437 1100.12 219.42C1100.04 219.426 1099.96 219.447 1099.88 219.48L1098.22 220.09C1098.19 220.083 1098.17 220.083 1098.14 220.09C1098.12 220.136 1098.12 220.185 1098.14 220.23C1098.16 220.457 1098.16 220.684 1098.14 220.91C1098.14 220.943 1098.14 220.976 1098.13 221.007C1098.12 221.038 1098.1 221.066 1098.08 221.09C1098.03 221.11 1097.98 221.11 1097.93 221.09C1097.56 221.09 1097.2 221.09 1096.83 221.09L1095.92 221.71C1095.74 221.851 1095.53 221.937 1095.31 221.96L1094.7 222.03C1094.52 222.03 1094.34 222.03 1094.17 222.03C1094.1 222.045 1094.03 222.074 1093.96 222.117C1093.9 222.16 1093.85 222.216 1093.81 222.28C1093.73 222.43 1093.72 222.65 1093.58 222.73C1093.52 222.741 1093.47 222.741 1093.41 222.73L1092.41 222.85C1092.27 222.866 1092.13 222.893 1092 222.93C1091.77 222.981 1091.54 223.069 1091.34 223.19C1091.17 223.304 1090.99 223.402 1090.8 223.48C1090.59 223.515 1090.39 223.515 1090.18 223.48C1089.7 223.48 1089.18 223.42 1088.75 223.38H1088.68C1088.65 223.351 1088.63 223.313 1088.62 223.27C1088.53 222.92 1088.46 222.56 1088.35 222.22C1088.25 221.974 1088.06 221.776 1087.82 221.67C1087.61 221.552 1087.41 221.415 1087.23 221.26C1087.15 221.173 1087.04 221.108 1086.93 221.07C1086.86 221.055 1086.78 221.055 1086.71 221.07L1085.71 221.19C1085.41 221.19 1085.07 221.19 1084.83 221.38C1084.72 221.502 1084.63 221.645 1084.57 221.8L1084.36 222.26C1084.34 222.302 1084.32 222.339 1084.29 222.37C1084.24 222.39 1084.18 222.39 1084.13 222.37H1083.29C1083.13 222.345 1082.97 222.345 1082.81 222.37C1082.69 222.392 1082.58 222.429 1082.47 222.48C1082.1 222.644 1081.73 222.784 1081.34 222.9C1080.93 222.974 1080.51 222.997 1080.1 222.97C1080.04 222.98 1079.98 222.98 1079.92 222.97C1079.85 222.943 1079.79 222.906 1079.74 222.86L1078.63 221.93C1078.57 221.876 1078.51 221.834 1078.43 221.81C1078.38 221.801 1078.32 221.801 1078.27 221.81H1076.68C1076.64 221.801 1076.6 221.801 1076.56 221.81C1076.52 221.829 1076.49 221.857 1076.47 221.89C1076.17 222.206 1076 222.625 1076 223.06C1075.72 223.054 1075.45 223.142 1075.23 223.31C1075.01 223.483 1074.79 223.643 1074.55 223.79C1074.39 223.855 1074.25 223.946 1074.12 224.06C1073.99 224.22 1073.91 224.55 1073.66 224.52H1073.52C1073.42 224.52 1073.35 224.62 1073.28 224.69C1073.15 224.845 1073 224.982 1072.84 225.1C1072.29 225.362 1071.79 225.733 1071.39 226.19C1071.33 226.295 1071.25 226.384 1071.15 226.45C1071.02 226.495 1070.87 226.495 1070.74 226.45C1070.69 226.431 1070.62 226.431 1070.57 226.45C1070.53 226.464 1070.49 226.488 1070.46 226.52C1070.17 226.77 1069.82 227.21 1069.46 227.3C1069.1 227.39 1068.96 227.3 1068.73 227.3C1068.57 227.366 1068.42 227.469 1068.3 227.6C1068.07 227.809 1067.81 227.993 1067.54 228.15C1067.35 228.227 1067.18 228.324 1067.01 228.44C1066.92 228.55 1066.86 228.68 1066.84 228.819C1066.82 228.958 1066.84 229.1 1066.89 229.23H1066.63C1066.45 229.205 1066.26 229.205 1066.08 229.23C1065.79 229.31 1065.68 229.54 1065.49 229.76C1065.42 229.83 1065 230.45 1065 230.45Z" fill="#040707"/>
<path d="M549.711 228.471H708.001V226.961H703.681C703.628 226.972 703.574 226.972 703.521 226.961C703.494 226.946 703.47 226.925 703.451 226.901C703.451 226.801 703.271 226.641 703.211 226.551L702.981 226.221L702.461 225.471C702.441 225.434 702.409 225.406 702.371 225.391C702.298 225.375 702.223 225.375 702.151 225.391H701.001C700.613 225.406 700.225 225.386 699.841 225.331C699.652 225.316 699.466 225.272 699.291 225.201C699.151 225.141 699.061 224.971 698.921 224.941C698.845 224.926 698.767 224.926 698.691 224.941C698.304 224.999 697.923 225.089 697.551 225.211C697.077 225.355 696.568 225.331 696.111 225.141C695.971 225.051 695.521 224.821 695.451 224.761C695.129 224.621 694.794 224.513 694.451 224.441C694.161 224.425 693.871 224.425 693.581 224.441C693.081 224.441 692.451 224.441 692.351 224.441C691.833 224.388 691.321 224.288 690.821 224.141C690.222 224.05 689.612 224.07 689.021 224.201L688.681 224.281C687.835 224.423 686.974 224.45 686.121 224.361C685.381 224.361 684.711 224.131 683.991 224.041C683.271 223.951 682.461 223.901 681.681 223.881C680.991 223.861 680.302 223.908 679.621 224.021C678.927 224.133 678.224 224.18 677.521 224.161C676.991 224.161 676.521 224.161 675.941 224.161C675.449 224.17 674.958 224.21 674.471 224.281H674.361C674.328 224.29 674.294 224.29 674.261 224.281C673.889 224.104 673.496 223.976 673.091 223.901C672.62 223.788 672.135 223.741 671.651 223.761C671.258 223.761 670.868 223.801 670.481 223.881C670.181 223.881 669.911 223.981 669.601 223.991C669.291 224.001 668.901 223.991 668.541 223.991C667.84 223.972 667.138 223.999 666.441 224.071C666.031 224.121 665.641 224.211 665.231 224.271C664.531 224.381 663.791 224.391 663.081 224.441C662.861 224.441 662.631 224.441 662.411 224.441C662.176 224.476 661.939 224.496 661.701 224.501C661.576 224.488 661.452 224.464 661.331 224.431C660.778 224.316 660.216 224.252 659.651 224.241C658.527 224.267 657.405 224.354 656.291 224.501C655.996 224.533 655.707 224.603 655.431 224.711L654.431 224.991C654.001 225.111 653.551 225.211 653.151 225.351C652.751 225.491 652.421 225.771 651.941 225.891C651.309 226.009 650.672 226.096 650.031 226.151L648.031 226.401C647.789 226.43 647.543 226.43 647.301 226.401C647.152 226.376 647 226.376 646.851 226.401C646.791 226.401 646.741 226.401 646.681 226.401C646.601 226.41 646.521 226.41 646.441 226.401C646.175 226.335 645.897 226.335 645.631 226.401C645.631 226.401 645.491 226.341 645.401 226.401C645.311 226.461 645.211 226.461 645.141 226.401C645.071 226.341 645.081 226.401 645.061 226.331C644.899 226.242 644.71 226.217 644.531 226.261C644.307 226.347 644.071 226.395 643.831 226.401C643.741 226.375 643.657 226.334 643.581 226.281C643.453 226.22 643.31 226.199 643.171 226.221C643.019 226.257 642.866 226.284 642.711 226.301C642.561 226.301 642.421 226.301 642.271 226.301C642.121 226.301 641.981 226.351 641.821 226.351C641.615 226.331 641.407 226.331 641.201 226.351C641.168 226.356 641.134 226.356 641.101 226.351C640.983 226.381 640.859 226.381 640.741 226.351C640.582 226.325 640.42 226.325 640.261 226.351C639.751 226.351 639.261 226.521 638.771 226.591C638.061 226.691 637.341 226.691 636.631 226.591C636.555 226.581 636.477 226.581 636.401 226.591C636.203 226.6 636.008 226.637 635.821 226.701V226.851C635.564 226.856 635.309 226.893 635.061 226.961L634.651 227.071C634.505 227.086 634.357 227.086 634.211 227.071C634.04 227.083 633.869 227.107 633.701 227.141L632.561 227.301H632.451C632.334 227.275 632.225 227.224 632.131 227.151C631.988 227.089 631.836 227.052 631.681 227.041C631.471 227.041 631.251 227.041 631.041 226.971C630.831 226.901 630.601 226.861 630.371 226.801C630.137 226.746 629.894 226.746 629.661 226.801H629.501C629.407 226.794 629.316 226.77 629.231 226.731C628.863 226.583 628.467 226.518 628.071 226.541H627.861H627.711L626.861 226.181C626.812 226.169 626.76 226.169 626.711 226.181C626.661 226.171 626.61 226.171 626.561 226.181C626.281 226.201 626.001 226.201 625.721 226.181C625.45 226.169 625.179 226.207 624.921 226.291L624.651 226.091H624.551C624.495 226.08 624.437 226.08 624.381 226.091H623.781C623.745 226.083 623.707 226.083 623.671 226.091C623.423 226.19 623.157 226.234 622.891 226.221H622.061C622.005 226.21 621.947 226.21 621.891 226.221C621.831 226.221 621.821 226.291 621.781 226.331C621.741 226.371 621.501 226.431 621.321 226.481C621.147 226.512 620.986 226.596 620.861 226.721L620.781 226.791H620.661L620.241 226.891C620.208 226.883 620.174 226.883 620.141 226.891C620.141 226.891 620.141 227.021 620.071 227.041C619.948 227.056 619.824 227.056 619.701 227.041C619.565 227.061 619.427 227.061 619.291 227.041L619.131 226.961L618.881 226.791C618.835 226.754 618.779 226.73 618.721 226.721C618.661 226.71 618.6 226.71 618.541 226.721C618.208 226.748 617.874 226.748 617.541 226.721C617.356 226.669 617.196 226.552 617.091 226.391L617.021 226.331H616.891L615.571 226.171C615.468 226.234 615.361 226.29 615.251 226.341C615.079 226.372 614.905 226.392 614.731 226.401L613.551 226.541C613.518 226.643 613.446 226.729 613.351 226.781C613.301 226.812 613.247 226.835 613.191 226.851C612.999 226.905 612.812 226.975 612.631 227.061C612.505 227.134 612.388 227.221 612.281 227.321C612.021 227.261 611.791 227.161 611.541 227.081C611.282 226.985 611.007 226.941 610.731 226.951C610.437 226.974 610.141 226.957 609.851 226.901C609.668 226.829 609.481 226.769 609.291 226.721H608.981H607.781C607.471 226.721 607.011 226.721 606.831 226.601C606.651 226.481 606.721 226.431 606.631 226.351C606.452 226.197 606.234 226.097 606.001 226.061C605.741 226.061 605.461 226.061 605.191 226.001C605.054 225.987 604.92 225.957 604.791 225.911C604.658 225.854 604.534 225.78 604.421 225.691L603.941 225.301C603.905 225.271 603.865 225.247 603.821 225.231H603.651C603.374 225.246 603.097 225.246 602.821 225.231C602.616 225.204 602.414 225.154 602.221 225.081C601.858 224.912 601.48 224.778 601.091 224.681C600.76 224.632 600.426 224.609 600.091 224.611H599.911L599.741 224.541L598.681 224.041H598.551H598.401H597.231C596.581 224.043 595.932 223.99 595.291 223.881C594.698 223.8 594.099 223.77 593.501 223.791C593.378 223.811 593.253 223.811 593.131 223.791C593.061 223.772 592.994 223.745 592.931 223.711L592.331 223.431C592.195 223.357 592.05 223.3 591.901 223.261C591.651 223.21 591.396 223.19 591.141 223.201H588.561C588.372 223.201 588.186 223.249 588.021 223.341C587.901 223.341 587.741 223.551 587.571 223.541C587.142 223.54 586.714 223.503 586.291 223.431C585.901 223.341 585.551 223.201 585.171 223.101C585.101 223.09 585.031 223.09 584.961 223.101C584.881 223.09 584.801 223.09 584.721 223.101L583.061 223.391H582.971C582.966 223.4 582.964 223.41 582.964 223.421C582.964 223.431 582.966 223.441 582.971 223.451C582.991 223.56 582.991 223.671 582.971 223.781C582.974 223.8 582.97 223.821 582.958 223.837C582.947 223.854 582.93 223.866 582.911 223.871C582.861 223.881 582.81 223.881 582.761 223.871H581.661L580.761 224.171C580.561 224.239 580.352 224.28 580.141 224.291H579.531C579.361 224.291 579.181 224.291 579.001 224.291C578.874 224.291 578.751 224.333 578.651 224.411C578.561 224.481 578.551 224.581 578.411 224.631H578.241L577.241 224.691H576.821C576.601 224.691 576.371 224.771 576.161 224.821C575.792 224.962 575.394 225.013 575.001 224.971H573.581H573.501C573.501 224.971 573.501 224.971 573.451 224.911C573.401 224.851 573.281 224.571 573.181 224.411C573.033 224.267 572.844 224.173 572.641 224.141C572.442 224.091 572.248 224.024 572.061 223.941C571.966 223.895 571.865 223.865 571.761 223.851H571.531L570.531 223.911C570.235 223.889 569.937 223.919 569.651 224.001C569.551 224.048 569.462 224.116 569.391 224.201L569.181 224.431C569.158 224.439 569.133 224.439 569.111 224.431C569.061 224.441 569.01 224.441 568.961 224.431H568.111C567.951 224.421 567.791 224.421 567.631 224.431L567.291 224.481C566.921 224.551 566.551 224.641 566.161 224.691C565.751 224.716 565.341 224.716 564.931 224.691H564.741C564.681 224.681 564.623 224.661 564.571 224.631L563.461 224.191C563.398 224.16 563.33 224.14 563.261 224.131H561.381H561.291C561.001 224.281 560.731 224.461 560.731 224.681C560.473 224.678 560.216 224.719 559.971 224.801C559.741 224.881 559.531 224.971 559.281 225.041C559.135 225.061 558.993 225.105 558.861 225.171C558.721 225.251 558.641 225.401 558.391 225.391H558.251C558.168 225.394 558.088 225.422 558.021 225.471C557.878 225.549 557.727 225.613 557.571 225.661C557.07 225.776 556.587 225.954 556.131 226.191C556.059 226.248 555.978 226.292 555.891 226.321C555.755 226.346 555.616 226.346 555.481 226.321C555.421 226.311 555.36 226.311 555.301 226.321H555.191C554.875 226.489 554.539 226.617 554.191 226.701C553.951 226.701 553.691 226.701 553.451 226.701C553.305 226.732 553.164 226.783 553.031 226.851C552.791 226.951 552.531 227.031 552.271 227.111C552.088 227.145 551.908 227.192 551.731 227.251C551.694 227.265 551.661 227.287 551.635 227.316C551.608 227.345 551.588 227.379 551.576 227.417C551.565 227.454 551.562 227.494 551.568 227.533C551.574 227.571 551.589 227.608 551.611 227.641H551.351C551.168 227.621 550.984 227.621 550.801 227.641C550.59 227.677 550.392 227.762 550.221 227.891C550.037 228.071 549.866 228.265 549.711 228.471Z" fill="#040707"/>
<path d="M699.93 227.86H858.26V227.06H853.78C853.78 227.06 853.78 227.06 853.71 227.06C853.64 227.06 853.53 226.92 853.47 226.87L853.24 226.68L852.72 226.27C852.69 226.261 852.659 226.261 852.63 226.27H851.25C850.863 226.291 850.476 226.291 850.09 226.27C849.905 226.259 849.721 226.236 849.54 226.2C849.42 226.142 849.296 226.092 849.17 226.05C849.093 226.045 849.016 226.045 848.94 226.05C848.53 226.05 848.18 226.15 847.8 226.2C847.325 226.297 846.835 226.297 846.36 226.2C846.22 226.2 845.77 226.03 845.7 225.99C845.37 225.912 845.036 225.855 844.7 225.82C844.41 225.805 844.12 225.805 843.83 225.82H842.6C842.087 225.794 841.577 225.74 841.07 225.66C840.471 225.6 839.868 225.6 839.27 225.66H838.93C838.078 225.731 837.222 225.731 836.37 225.66C835.63 225.66 834.96 225.53 834.24 225.48C833.52 225.43 832.71 225.4 831.93 225.4C831.242 225.388 830.555 225.412 829.87 225.47C829.172 225.537 828.471 225.564 827.77 225.55H826.2C825.7 225.55 825.2 225.55 824.73 225.62H824.62H824.52C824.136 225.517 823.745 225.447 823.35 225.41C822.873 225.343 822.391 225.316 821.91 225.33L820.74 225.39C820.44 225.39 820.17 225.45 819.86 225.46H818.8C818.1 225.46 817.39 225.46 816.7 225.46L815.49 225.57C814.79 225.63 814.05 225.64 813.34 225.67H812.67C812.44 225.67 812.21 225.67 811.96 225.67C811.71 225.67 811.71 225.67 811.59 225.67C811.06 225.61 810.48 225.57 809.91 225.56C808.77 225.56 807.67 225.65 806.55 225.7C806.261 225.723 805.974 225.763 805.69 225.82L804.69 225.98C804.26 226.04 803.81 226.1 803.41 226.18C803.01 226.26 802.68 226.41 802.2 226.48C801.72 226.55 800.91 226.58 800.29 226.62L798.29 226.76C798.047 226.775 797.803 226.775 797.56 226.76C797.41 226.745 797.259 226.745 797.11 226.76H796.94C796.86 226.77 796.779 226.77 796.7 226.76C796.431 226.725 796.159 226.725 795.89 226.76C795.89 226.76 795.75 226.76 795.66 226.76C795.574 226.775 795.486 226.775 795.4 226.76C795.374 226.769 795.346 226.769 795.32 226.76C795.146 226.717 794.964 226.717 794.79 226.76C794.56 226.809 794.325 226.833 794.09 226.83C794.003 226.82 793.919 226.797 793.84 226.76C793.704 226.739 793.566 226.739 793.43 226.76C793.27 226.76 793.13 226.81 792.97 226.81C792.81 226.81 792.68 226.81 792.53 226.81C792.38 226.81 792.24 226.81 792.08 226.81C791.92 226.81 791.64 226.81 791.46 226.81H791.36C791.24 226.825 791.119 226.825 791 226.81C790.84 226.795 790.679 226.795 790.52 226.81C790.01 226.81 789.52 226.9 789.03 226.94C788.317 226.995 787.602 226.995 786.89 226.94H786.66C786.465 226.944 786.271 226.964 786.08 227V227.09C785.827 227.075 785.573 227.075 785.32 227.09L784.91 227.16H784.47C784.3 227.15 784.13 227.15 783.96 227.16L782.82 227.24H782.71C782.601 227.223 782.494 227.196 782.39 227.16C782.242 227.127 782.091 227.107 781.94 227.1H781.3C781.07 227.1 780.86 227.04 780.63 227.01C780.394 226.98 780.155 226.98 779.92 227.01H779.76C779.67 227.026 779.579 227.026 779.49 227.01C779.108 226.933 778.719 226.9 778.33 226.91H778.12C778.07 226.922 778.019 226.922 777.97 226.91L777.12 226.71H776.97H776.82C776.54 226.726 776.259 226.726 775.98 226.71C775.714 226.684 775.446 226.684 775.18 226.71L774.91 226.6H774.81H774.04H773.93C773.674 226.658 773.412 226.681 773.15 226.67H772.15C772.09 226.67 772.08 226.67 772.04 226.73C771.891 226.778 771.736 226.805 771.58 226.81C771.419 226.827 771.263 226.874 771.12 226.95H771.04H770.92H770.5H770.4C770.4 226.95 770.4 227.02 770.33 227.03C770.26 227.04 770.06 227.03 769.96 227.03C769.823 227.04 769.686 227.04 769.55 227.03H769.39L769.14 226.94C769.087 226.932 769.033 226.932 768.98 226.94H768.8C768.51 226.94 768.12 226.94 767.8 226.94C767.637 226.918 767.483 226.856 767.35 226.76C767.327 226.755 767.303 226.755 767.28 226.76H767.15L765.83 226.67C765.725 226.707 765.618 226.737 765.51 226.76H764.99L763.81 226.83C763.761 226.898 763.69 226.948 763.61 226.97H763.45L762.89 227.08C762.768 227.119 762.651 227.169 762.54 227.23H762.47C762.21 227.23 761.98 227.14 761.73 227.1C761.463 227.045 761.191 227.022 760.92 227.03C760.627 227.05 760.333 227.05 760.04 227.03C759.85 227.03 759.69 226.95 759.48 226.93H758C757.665 226.968 757.326 226.944 757 226.86C756.92 226.86 756.89 226.77 756.8 226.72C756.582 226.64 756.352 226.599 756.12 226.6H755.31C755.177 226.611 755.043 226.611 754.91 226.6C754.783 226.571 754.659 226.531 754.54 226.48L754.06 226.26H753.94H752.94C752.737 226.248 752.537 226.218 752.34 226.17C751.97 226.1 751.64 226 751.21 225.95C750.78 225.9 750.54 225.95 750.21 225.95H750.03H749.86L748.8 225.68H748.67H748.52H747.35C746.69 225.68 746.04 225.68 745.41 225.59C744.813 225.56 744.216 225.56 743.62 225.59H743.25H743.05L742.45 225.43L742.02 225.33C741.767 225.315 741.513 225.315 741.26 225.33H738.68C738.497 225.337 738.316 225.364 738.14 225.41C737.996 225.47 737.844 225.511 737.69 225.53C737.26 225.53 736.81 225.53 736.41 225.46C736.01 225.39 735.67 225.34 735.29 225.28H735.08H734.84L733.18 225.45H733.09C733.11 225.509 733.11 225.572 733.09 225.63C733.09 225.63 733.09 225.63 733.03 225.63H731.78L730.88 225.8C730.675 225.838 730.468 225.858 730.26 225.86H729.65H729.12C729 225.859 728.882 225.88 728.77 225.92C728.68 225.92 728.67 226.02 728.53 226.04H728.36H727.36H726.94C726.72 226.04 726.49 226.04 726.28 226.11L725.74 226.19C725.533 226.205 725.326 226.205 725.12 226.19H723.7H723.62H723.57C723.48 226.1 723.4 226 723.3 225.91C723.132 225.823 722.948 225.772 722.76 225.76L722.18 225.65L721.88 225.6H721.65H720.65C720.355 225.591 720.061 225.608 719.77 225.65C719.676 225.672 719.587 225.713 719.51 225.77L719.3 225.89H719.23H717.75H717.41C717.04 225.89 716.67 225.98 716.28 226.01C715.89 226.04 715.46 226.01 715.05 226.01H714.86H714.69L713.58 225.76C713.513 225.755 713.446 225.755 713.38 225.76H711.5H711.41C711.12 225.84 710.85 225.94 710.85 226.07C710.594 226.062 710.339 226.085 710.09 226.14C709.86 226.14 709.65 226.23 709.4 226.26C709.258 226.279 709.118 226.306 708.98 226.34C708.835 226.418 708.674 226.46 708.51 226.46H708.37C708.294 226.448 708.216 226.448 708.14 226.46C707.992 226.506 707.842 226.543 707.69 226.57C707.202 226.625 706.72 226.722 706.25 226.86C706.174 226.897 706.093 226.92 706.01 226.93C705.873 226.945 705.736 226.945 705.6 226.93H705.42H705.31C704.981 227.022 704.647 227.092 704.31 227.14C704.07 227.14 703.81 227.14 703.57 227.14C703.428 227.154 703.287 227.181 703.15 227.22C702.91 227.28 702.65 227.32 702.39 227.37C702.13 227.42 702.01 227.37 701.85 227.45C701.69 227.53 701.66 227.59 701.73 227.66H701C700.8 227.678 700.605 227.725 700.42 227.8L699.93 227.86Z" fill="#040707"/>
<path d="M917.32 227.86H1075.64V227.06H1071.16C1071.14 227.066 1071.11 227.066 1071.09 227.06C1071.09 227 1070.92 226.92 1070.85 226.87L1070.63 226.68L1070.1 226.27C1070.07 226.261 1070.04 226.261 1070.01 226.27H1068.63C1068.24 226.29 1067.86 226.29 1067.47 226.27C1067.29 226.259 1067.1 226.235 1066.92 226.2C1066.78 226.2 1066.7 226.07 1066.56 226.05C1066.48 226.045 1066.4 226.045 1066.32 226.05C1065.92 226.05 1065.56 226.15 1065.18 226.2C1064.71 226.297 1064.22 226.297 1063.75 226.2C1063.61 226.2 1063.15 226.03 1063.08 225.99C1062.75 225.912 1062.42 225.855 1062.08 225.82C1061.79 225.805 1061.49 225.805 1061.2 225.82H1059.97C1059.46 225.793 1058.95 225.74 1058.44 225.66C1057.85 225.6 1057.25 225.6 1056.65 225.66H1056.31C1055.46 225.731 1054.6 225.731 1053.74 225.66C1053.01 225.66 1052.34 225.53 1051.61 225.48C1050.88 225.43 1050.08 225.4 1049.31 225.4C1048.62 225.388 1047.94 225.411 1047.25 225.47C1046.55 225.538 1045.84 225.564 1045.14 225.55H1043.56C1043.06 225.55 1042.56 225.55 1042.09 225.62H1041.99H1041.88C1041.5 225.517 1041.11 225.447 1040.72 225.41C1040.24 225.343 1039.76 225.317 1039.28 225.33L1038.1 225.39C1037.8 225.39 1037.53 225.45 1037.23 225.46H1036.17C1035.47 225.46 1034.75 225.46 1034.07 225.46L1032.86 225.57C1032.16 225.63 1031.42 225.64 1030.7 225.67H1030.04C1029.8 225.67 1029.57 225.67 1029.33 225.67C1029.09 225.67 1029.08 225.67 1028.96 225.67C1028.42 225.61 1027.85 225.57 1027.27 225.56C1026.13 225.56 1025.03 225.65 1023.92 225.7C1023.63 225.722 1023.34 225.762 1023.06 225.82L1022.06 225.98C1021.63 226.04 1021.18 226.1 1020.77 226.18C1020.36 226.26 1020.04 226.41 1019.57 226.48C1019.1 226.55 1018.28 226.58 1017.65 226.62L1015.65 226.76C1015.41 226.775 1015.16 226.775 1014.92 226.76C1014.77 226.745 1014.62 226.745 1014.47 226.76H1014.31C1014.23 226.771 1014.14 226.771 1014.06 226.76C1013.79 226.725 1013.52 226.725 1013.25 226.76C1013.25 226.76 1013.11 226.76 1013.03 226.76C1012.94 226.775 1012.85 226.775 1012.76 226.76H1012.68C1012.51 226.717 1012.33 226.717 1012.16 226.76C1011.93 226.81 1011.69 226.833 1011.45 226.83C1011.36 226.819 1011.28 226.795 1011.2 226.76C1011.06 226.739 1010.93 226.739 1010.79 226.76C1010.63 226.76 1010.5 226.81 1010.33 226.81C1010.16 226.81 1010.04 226.81 1009.89 226.81C1009.74 226.81 1009.6 226.81 1009.45 226.81C1009.3 226.81 1009.01 226.81 1008.82 226.81H1008.73C1008.61 226.826 1008.48 226.826 1008.36 226.81C1008.2 226.795 1008.05 226.795 1007.89 226.81C1007.37 226.81 1006.89 226.9 1006.39 226.94C1005.68 226.995 1004.97 226.995 1004.26 226.94H1004.02C1003.83 226.943 1003.64 226.963 1003.45 227V227.09C1003.2 227.074 1002.94 227.074 1002.69 227.09L1002.27 227.16H1001.84C1001.67 227.15 1001.49 227.15 1001.32 227.16L1000.18 227.24H1000.07C999.965 227.223 999.861 227.196 999.76 227.16C999.612 227.129 999.462 227.108 999.31 227.1H998.67C998.43 227.1 998.22 227.04 998 227.01C997.761 226.981 997.519 226.981 997.28 227.01H997.12C997.034 227.026 996.946 227.026 996.86 227.01C996.475 226.934 996.083 226.9 995.69 226.91H995.49C995.437 226.921 995.383 226.921 995.33 226.91L994.49 226.71H994.34H994.19C993.907 226.726 993.623 226.726 993.34 226.71C993.078 226.684 992.813 226.684 992.55 226.71L992.27 226.6H992.17H991.4H991.29C991.034 226.658 990.772 226.681 990.51 226.67H989.51C989.473 226.682 989.438 226.702 989.41 226.73C989.258 226.778 989.1 226.805 988.94 226.81C988.78 226.83 988.624 226.877 988.48 226.95H988.4H988.28H987.86H987.77C987.77 226.95 987.77 227.02 987.7 227.03C987.63 227.04 987.44 227.03 987.34 227.03C987.204 227.041 987.067 227.041 986.93 227.03H986.77L986.52 226.94H986.36H986.18C985.89 226.94 985.5 226.94 985.18 226.94C985.014 226.92 984.856 226.858 984.72 226.76C984.701 226.753 984.68 226.753 984.66 226.76H984.52L983.2 226.67C983.099 226.707 982.996 226.737 982.89 226.76H982.37L981.18 226.83C981.134 226.896 981.067 226.946 980.99 226.97H980.83C980.62 226.97 980.43 227.04 980.26 227.08C980.14 227.121 980.023 227.171 979.91 227.23H979.85C979.58 227.23 979.35 227.14 979.11 227.1C978.841 227.045 978.565 227.022 978.29 227.03C978.001 227.051 977.71 227.051 977.42 227.03C977.22 227.03 977.07 226.95 976.86 226.93H975.34C975.022 226.961 974.701 226.938 974.39 226.86C974.325 226.817 974.261 226.77 974.2 226.72C973.983 226.64 973.752 226.599 973.52 226.6H972.71C972.574 226.612 972.437 226.612 972.3 226.6C972.177 226.572 972.056 226.532 971.94 226.48L971.46 226.26H971.34H970.34C970.141 226.247 969.944 226.217 969.75 226.17C969.37 226.1 969.04 226 968.61 225.95C968.18 225.9 967.94 225.95 967.61 225.95H967.42H967.26L966.19 225.68H966.07H966H964.83C964.17 225.68 963.52 225.68 962.89 225.59C962.294 225.56 961.697 225.56 961.1 225.59H960.73H960.52L959.92 225.43L959.49 225.33C959.241 225.315 958.99 225.315 958.74 225.33H956.15C955.968 225.338 955.787 225.365 955.61 225.41C955.467 225.472 955.315 225.512 955.16 225.53C954.74 225.53 954.29 225.53 953.88 225.46C953.47 225.39 953.15 225.34 952.77 225.28H952.55H952.31L950.65 225.45H950.57C950.585 225.509 950.585 225.571 950.57 225.63C950.561 225.636 950.551 225.638 950.54 225.638C950.53 225.638 950.519 225.636 950.51 225.63H949.26L948.35 225.8C948.149 225.837 947.945 225.857 947.74 225.86H947.13H946.6C946.478 225.86 946.356 225.881 946.24 225.92C946.16 225.92 946.15 226.02 946.01 226.04H945.84H944.84H944.43C944.209 226.052 943.989 226.076 943.77 226.11L943.23 226.19C943.024 226.205 942.817 226.205 942.61 226.19H941.18H941.11H941.05C940.966 226.092 940.875 225.999 940.78 225.91C940.617 225.821 940.436 225.77 940.25 225.76L939.66 225.65L939.36 225.6H939.14H938.14C937.846 225.59 937.552 225.607 937.26 225.65C937.166 225.67 937.077 225.711 937 225.77L936.79 225.89H936.72H935.23H934.9C934.52 225.89 934.16 225.98 933.77 226.01C933.38 226.04 932.94 226.01 932.53 226.01H932.35H932.17L931.06 225.76C930.994 225.754 930.927 225.754 930.86 225.76H929H928.91C928.63 225.84 928.36 225.94 928.35 226.07C928.095 226.062 927.84 226.086 927.59 226.14C927.36 226.14 927.15 226.23 926.91 226.26C926.766 226.279 926.622 226.306 926.48 226.34C926.339 226.417 926.181 226.458 926.02 226.46H925.88C925.801 226.448 925.72 226.448 925.64 226.46C925.496 226.505 925.349 226.542 925.2 226.57C924.71 226.625 924.224 226.722 923.75 226.86C923.675 226.897 923.594 226.92 923.51 226.93C923.374 226.945 923.237 226.945 923.1 226.93H922.93H922.82C922.492 227.022 922.158 227.092 921.82 227.14C921.58 227.14 921.32 227.14 921.08 227.14C920.938 227.154 920.798 227.181 920.66 227.22C920.42 227.28 920.17 227.32 919.9 227.37C919.63 227.42 919.52 227.37 919.36 227.45C919.2 227.53 919.18 227.59 919.24 227.66H918.44C918.238 227.677 918.039 227.724 917.85 227.8L917.32 227.86Z" fill="#040707"/>
<path d="M420.059 228.651C420.148 228.661 420.239 228.661 420.329 228.651H592.329V225.53H587.619C587.564 225.55 587.504 225.55 587.449 225.53C587.41 225.497 587.385 225.451 587.379 225.401C587.321 225.15 587.23 224.907 587.109 224.681L586.869 224.001L586.299 222.451C586.277 222.388 586.243 222.33 586.199 222.28C586.128 222.235 586.042 222.217 585.959 222.231H584.699C584.272 222.251 583.844 222.211 583.429 222.111C583.215 222.058 583.014 221.963 582.839 221.831C582.679 221.711 582.589 221.36 582.439 221.29C582.354 221.265 582.263 221.265 582.179 221.29C581.749 221.434 581.334 221.619 580.939 221.841C580.469 222.061 579.749 222.191 579.379 221.711C579.229 221.521 578.729 221.051 578.649 220.931C578.337 220.645 577.974 220.421 577.579 220.271C577.239 220.151 577.159 220.271 576.579 220.271C575.999 220.271 575.359 220.22 575.239 220.22C574.669 220.22 574.119 219.771 573.579 219.611C572.92 219.412 572.212 219.451 571.579 219.72L571.209 219.891C570.308 220.182 569.348 220.241 568.419 220.061C567.619 219.941 566.889 219.571 566.099 219.391C565.277 219.209 564.44 219.102 563.599 219.071C562.838 219.033 562.077 219.127 561.349 219.35C560.613 219.589 559.841 219.691 559.069 219.651C558.489 219.651 557.919 219.601 557.339 219.651C556.798 219.683 556.262 219.77 555.739 219.91C555.703 219.921 555.665 219.921 555.629 219.91C555.629 219.91 555.549 219.911 555.509 219.821C555.153 219.468 554.722 219.202 554.249 219.04C553.759 218.809 553.219 218.706 552.679 218.741L551.399 218.991C551.087 219.086 550.77 219.163 550.449 219.22C550.066 219.24 549.682 219.24 549.299 219.22C548.532 219.183 547.763 219.237 547.009 219.381C546.559 219.481 546.139 219.66 545.689 219.79C544.919 219.967 544.136 220.084 543.349 220.141C543.109 220.141 542.859 220.141 542.629 220.201C542.375 220.275 542.113 220.315 541.849 220.321C541.709 220.293 541.574 220.246 541.449 220.181C540.865 219.947 540.246 219.815 539.619 219.79C538.387 219.847 537.165 220.025 535.969 220.321C535.628 220.401 535.308 220.55 535.029 220.761C534.679 220.961 534.339 221.161 534.029 221.341C533.552 221.561 533.088 221.808 532.639 222.081C532.159 222.391 531.839 222.951 531.319 223.191C530.644 223.437 529.948 223.618 529.239 223.731L527.019 224.251C526.759 224.316 526.488 224.316 526.229 224.251C526.065 224.205 525.892 224.205 525.729 224.251C525.669 224.251 525.619 224.35 525.559 224.35C525.499 224.35 525.369 224.291 525.289 224.261C525.145 224.207 524.991 224.187 524.838 224.203C524.685 224.219 524.539 224.269 524.409 224.35C524.409 224.24 524.249 224.221 524.159 224.271C524.069 224.321 523.959 224.381 523.869 224.321C523.832 224.276 523.805 224.225 523.789 224.171C523.726 224.08 523.632 224.016 523.525 223.991C523.418 223.965 523.306 223.979 523.209 224.03C522.999 224.11 522.689 224.401 522.449 224.311C522.209 224.221 522.269 224.151 522.179 224.061C522.119 224.005 522.047 223.965 521.969 223.944C521.89 223.923 521.808 223.922 521.729 223.941C521.559 223.941 521.409 224.111 521.229 224.111C521.049 224.111 520.909 224.011 520.749 224.011C520.589 224.011 520.429 224.121 520.269 224.131C520.109 224.141 519.789 224.001 519.589 224.131L519.489 224.191C519.339 224.261 519.219 224.191 519.089 224.091C518.918 224.045 518.739 224.045 518.569 224.091C518.013 224.211 517.468 224.375 516.939 224.581C516.18 224.791 515.378 224.791 514.619 224.581C514.534 224.554 514.447 224.537 514.359 224.53C514.134 224.544 513.918 224.624 513.739 224.761V225.071C513.45 225.08 513.167 225.151 512.909 225.28C512.759 225.36 512.619 225.451 512.459 225.521C512.3 225.545 512.138 225.545 511.979 225.521C511.788 225.549 511.6 225.596 511.419 225.66L510.189 225.991C510.146 226.001 510.101 226.001 510.059 225.991C509.919 225.991 509.819 225.791 509.729 225.701C509.586 225.578 509.414 225.495 509.229 225.461C508.999 225.461 508.759 225.401 508.539 225.331C508.289 225.228 508.045 225.111 507.809 224.981C507.686 224.924 507.553 224.895 507.419 224.895C507.284 224.895 507.151 224.924 507.029 224.981C506.975 225.018 506.913 225.042 506.849 225.051C506.749 225.051 506.649 224.98 506.569 224.91C506.393 224.766 506.19 224.658 505.972 224.593C505.754 224.528 505.525 224.507 505.299 224.53C505.226 224.546 505.151 224.546 505.079 224.53C505.011 224.507 504.95 224.47 504.899 224.421L503.989 223.681C503.944 223.638 503.889 223.607 503.829 223.591C503.773 223.576 503.714 223.576 503.659 223.591C503.359 223.673 503.049 223.71 502.739 223.701C502.435 223.676 502.133 223.753 501.879 223.921L501.569 223.511C501.541 223.469 501.507 223.432 501.469 223.401C501.406 223.385 501.341 223.385 501.279 223.401H500.769C500.722 223.39 500.675 223.39 500.629 223.401C500.579 223.401 500.549 223.471 500.509 223.511C500.392 223.609 500.256 223.683 500.11 223.728C499.964 223.772 499.811 223.787 499.659 223.771H498.769C498.701 223.765 498.635 223.783 498.579 223.821C498.509 223.821 498.499 223.96 498.459 224.03C498.349 224.26 498.159 224.251 497.959 224.341C497.738 224.451 497.559 224.63 497.449 224.85C497.432 224.907 497.401 224.959 497.359 225.001C497.325 225.036 497.284 225.063 497.239 225.081L496.779 225.28C496.736 225.298 496.698 225.325 496.669 225.361C496.663 225.387 496.663 225.414 496.669 225.441C496.669 225.521 496.669 225.721 496.589 225.761C496.509 225.801 496.299 225.761 496.199 225.761C496.052 225.807 495.895 225.807 495.749 225.761C495.679 225.715 495.618 225.657 495.569 225.591L495.299 225.261C495.258 225.193 495.199 225.137 495.129 225.1C495.063 225.085 494.994 225.085 494.929 225.1C494.596 225.137 494.261 225.137 493.929 225.1C493.679 225.04 493.539 224.641 493.429 224.421C493.413 224.372 493.384 224.33 493.345 224.298C493.306 224.266 493.259 224.246 493.209 224.241L491.779 223.91C491.779 223.91 491.489 224.231 491.439 224.261C491.254 224.324 491.063 224.367 490.869 224.391L489.579 224.671C489.551 224.852 489.478 225.024 489.369 225.171C489.313 225.226 489.253 225.276 489.189 225.321C488.963 225.43 488.757 225.575 488.579 225.751C488.432 225.912 488.305 226.09 488.199 226.28C487.92 226.129 487.653 225.959 487.399 225.771C487.137 225.591 486.825 225.5 486.509 225.511C486.172 225.569 485.825 225.53 485.509 225.401C485.319 225.258 485.115 225.137 484.899 225.04C484.786 225.021 484.671 225.021 484.559 225.04H483.259C482.919 225.04 482.419 225.161 482.259 224.811C482.169 224.641 482.139 224.45 482.049 224.28C481.873 224.033 481.607 223.864 481.309 223.811C481.019 223.751 480.719 223.751 480.429 223.681C480.272 223.656 480.122 223.598 479.989 223.511C479.827 223.381 479.691 223.221 479.589 223.04L479.059 222.241C479.027 222.187 478.986 222.14 478.939 222.1C478.873 222.085 478.804 222.085 478.739 222.1C478.439 222.126 478.138 222.126 477.839 222.1C477.605 222.033 477.385 221.925 477.189 221.78C476.817 221.454 476.403 221.178 475.959 220.961C475.6 220.863 475.23 220.816 474.859 220.821H474.659C474.594 220.784 474.534 220.74 474.479 220.691L473.319 219.691C473.279 219.655 473.236 219.625 473.189 219.6C473.133 219.586 473.074 219.586 473.019 219.6L471.749 219.681C471.031 219.686 470.318 219.572 469.639 219.341C469.001 219.184 468.343 219.127 467.689 219.171C467.557 219.201 467.42 219.201 467.289 219.171C467.204 219.135 467.129 219.08 467.069 219.011L466.409 218.421C466.273 218.284 466.118 218.17 465.949 218.081C465.684 217.982 465.401 217.941 465.119 217.961H462.309C462.083 217.981 461.873 218.084 461.719 218.251C461.599 218.371 461.419 218.701 461.239 218.681C460.763 218.671 460.291 218.591 459.839 218.441C459.419 218.261 459.039 217.971 458.629 217.761C458.554 217.722 458.472 217.699 458.389 217.691C458.303 217.672 458.214 217.672 458.129 217.691L456.329 218.301C456.296 218.29 456.261 218.29 456.229 218.301C456.213 218.346 456.213 218.395 456.229 218.441C456.249 218.667 456.249 218.894 456.229 219.121C456.232 219.155 456.228 219.189 456.218 219.221C456.207 219.254 456.191 219.284 456.169 219.311C456.113 219.326 456.054 219.326 455.999 219.311C455.599 219.311 455.209 219.311 454.809 219.311L453.809 219.931C453.612 220.073 453.38 220.159 453.139 220.181C452.919 220.181 452.699 220.181 452.479 220.261C452.259 220.341 452.089 220.261 451.899 220.261C451.745 220.294 451.61 220.383 451.519 220.511C451.419 220.661 451.409 220.88 451.259 220.97C451.199 220.98 451.138 220.98 451.079 220.97L449.999 221.061C449.847 221.069 449.696 221.093 449.549 221.131C449.301 221.186 449.063 221.273 448.839 221.391C448.649 221.507 448.448 221.604 448.239 221.681C448.018 221.726 447.79 221.726 447.569 221.681C447.059 221.681 446.569 221.621 446.019 221.581C445.993 221.591 445.964 221.591 445.939 221.581C445.939 221.581 445.889 221.51 445.879 221.47C445.779 221.12 445.699 220.76 445.589 220.47C445.472 220.222 445.264 220.029 445.009 219.931C444.78 219.809 444.563 219.669 444.359 219.511C444.267 219.425 444.158 219.36 444.039 219.321H443.799L442.709 219.441C442.389 219.441 442.019 219.441 441.709 219.631C441.586 219.751 441.488 219.894 441.419 220.051L441.199 220.521C441.181 220.563 441.154 220.601 441.119 220.631C441.063 220.646 441.004 220.646 440.949 220.631H440.029C439.725 220.609 439.421 220.657 439.139 220.771C438.737 220.938 438.327 221.081 437.909 221.201C437.462 221.271 437.009 221.291 436.559 221.261C436.496 221.27 436.432 221.27 436.369 221.261C436.3 221.234 436.236 221.197 436.179 221.151L434.969 220.231C434.916 220.179 434.854 220.138 434.785 220.113C434.716 220.087 434.642 220.076 434.569 220.081H432.839C432.796 220.071 432.751 220.071 432.709 220.081C432.671 220.102 432.637 220.128 432.609 220.16C432.436 220.302 432.292 220.477 432.188 220.674C432.083 220.872 432.019 221.088 431.999 221.311C431.703 221.309 431.414 221.396 431.169 221.561C430.929 221.736 430.678 221.896 430.419 222.04C430.252 222.105 430.096 222.196 429.959 222.311C429.809 222.481 429.729 222.801 429.449 222.771H429.299C429.199 222.798 429.111 222.858 429.049 222.941C428.905 223.099 428.74 223.237 428.559 223.35C427.968 223.607 427.435 223.977 426.989 224.441C426.923 224.546 426.834 224.635 426.729 224.701C426.583 224.751 426.424 224.751 426.279 224.701C426.217 224.681 426.15 224.681 426.089 224.701C426.045 224.716 426.004 224.74 425.969 224.771C425.66 225.102 425.29 225.37 424.879 225.561C424.619 225.621 424.329 225.561 424.079 225.561C423.907 225.635 423.749 225.737 423.609 225.861C423.354 226.07 423.079 226.254 422.789 226.41C422.583 226.487 422.385 226.584 422.199 226.701C422.107 226.808 422.046 226.938 422.023 227.077C422 227.217 422.016 227.36 422.069 227.491H421.789C421.589 227.466 421.388 227.466 421.189 227.491C420.879 227.571 420.769 227.811 420.559 228.021C420.382 228.222 420.215 228.432 420.059 228.651Z" fill="#040707"/>
<path d="M1129.73 233.9C1129.81 233.91 1129.89 233.91 1129.97 233.9H1288.05V230.78H1283.73C1283.68 230.799 1283.62 230.799 1283.57 230.78C1283.54 230.746 1283.52 230.705 1283.51 230.66C1283.46 230.407 1283.38 230.161 1283.26 229.93L1283.04 229.26C1282.87 228.74 1282.69 228.26 1282.51 227.7C1282.49 227.639 1282.47 227.582 1282.43 227.53C1282.36 227.489 1282.28 227.471 1282.2 227.48H1281.04C1280.65 227.505 1280.26 227.464 1279.88 227.36C1279.68 227.309 1279.49 227.217 1279.33 227.09C1279.19 226.96 1279.11 226.61 1278.97 226.55C1278.89 226.525 1278.81 226.525 1278.73 226.55C1278.33 226.687 1277.95 226.871 1277.6 227.1C1277.16 227.32 1276.5 227.44 1276.16 226.96C1276.02 226.77 1275.56 226.3 1275.49 226.18C1275.2 225.907 1274.86 225.684 1274.49 225.52C1274.17 225.4 1274.1 225.52 1273.61 225.52C1273.12 225.52 1272.49 225.47 1272.38 225.52C1271.86 225.52 1271.38 225.06 1270.85 224.9C1270.26 224.709 1269.62 224.752 1269.06 225.02L1268.72 225.18C1267.9 225.474 1267.01 225.537 1266.15 225.36C1265.42 225.24 1264.75 224.87 1264.02 224.69C1263.27 224.499 1262.5 224.392 1261.72 224.37C1261.02 224.323 1260.32 224.418 1259.66 224.65C1258.99 224.884 1258.27 224.985 1257.56 224.95C1257.03 224.95 1256.5 224.89 1255.97 224.95C1255.47 224.979 1254.98 225.063 1254.5 225.2C1254.47 225.21 1254.43 225.21 1254.4 225.2C1254.36 225.183 1254.32 225.156 1254.29 225.12C1253.97 224.772 1253.57 224.502 1253.13 224.33C1252.69 224.104 1252.19 224.004 1251.69 224.04C1251.29 224.11 1250.9 224.19 1250.51 224.28C1250.12 224.37 1249.94 224.48 1249.64 224.52C1249.29 224.54 1248.93 224.54 1248.58 224.52C1247.88 224.484 1247.17 224.537 1246.48 224.68C1246.07 224.79 1245.67 224.97 1245.27 225.09C1244.56 225.272 1243.84 225.389 1243.11 225.44L1242.45 225.5C1242.22 225.579 1241.98 225.619 1241.74 225.62C1241.61 225.592 1241.49 225.548 1241.37 225.49C1240.84 225.254 1240.26 225.119 1239.68 225.09C1238.55 225.153 1237.43 225.33 1236.33 225.62C1236.02 225.706 1235.72 225.856 1235.47 226.06C1235.15 226.26 1234.83 226.47 1234.47 226.65C1234.03 226.866 1233.6 227.11 1233.18 227.38C1232.74 227.7 1232.45 228.25 1231.98 228.49C1231.37 228.74 1230.73 228.921 1230.07 229.03L1228.02 229.56C1227.78 229.62 1227.54 229.62 1227.3 229.56C1227.15 229.516 1226.99 229.516 1226.84 229.56C1226.79 229.56 1226.73 229.65 1226.68 229.66C1226.63 229.67 1226.5 229.6 1226.43 229.57C1226.3 229.517 1226.16 229.496 1226.02 229.51C1225.87 229.524 1225.74 229.572 1225.62 229.65C1225.62 229.54 1225.48 229.53 1225.4 229.57C1225.32 229.61 1225.21 229.69 1225.13 229.62C1225.05 229.55 1225.13 229.52 1225.05 229.47C1225 229.384 1224.92 229.322 1224.82 229.296C1224.72 229.27 1224.62 229.282 1224.53 229.33C1224.33 229.42 1224.05 229.71 1223.82 229.62C1223.59 229.53 1223.66 229.45 1223.57 229.36C1223.52 229.304 1223.46 229.264 1223.38 229.243C1223.31 229.221 1223.23 229.221 1223.16 229.24C1223 229.24 1222.87 229.41 1222.7 229.42C1222.53 229.43 1222.41 229.32 1222.26 229.31C1222.11 229.3 1221.97 229.42 1221.82 229.43C1221.67 229.44 1221.38 229.3 1221.19 229.43L1221.1 229.49C1220.96 229.55 1220.85 229.44 1220.74 229.39C1220.59 229.329 1220.42 229.312 1220.26 229.34C1219.75 229.463 1219.25 229.63 1218.76 229.84C1218.07 230.045 1217.33 230.045 1216.63 229.84L1216.39 229.79C1216.18 229.808 1215.98 229.892 1215.82 230.03V230.34C1215.56 230.351 1215.3 230.423 1215.06 230.55C1214.92 230.62 1214.79 230.72 1214.64 230.78C1214.5 230.815 1214.35 230.815 1214.21 230.78C1214.03 230.808 1213.86 230.855 1213.69 230.92L1212.55 231.25H1212.44C1212.31 231.25 1212.22 231.05 1212.13 230.95C1212 230.836 1211.85 230.757 1211.68 230.72C1211.46 230.688 1211.25 230.641 1211.04 230.58C1210.8 230.5 1210.6 230.34 1210.37 230.24C1210.26 230.184 1210.14 230.155 1210.01 230.155C1209.89 230.155 1209.76 230.184 1209.65 230.24C1209.6 230.27 1209.55 230.293 1209.49 230.31C1209.39 230.31 1209.31 230.24 1209.23 230.17C1209.08 230.024 1208.89 229.913 1208.69 229.846C1208.49 229.778 1208.27 229.756 1208.06 229.78C1208 229.795 1207.93 229.795 1207.86 229.78C1207.8 229.76 1207.75 229.726 1207.7 229.68L1206.86 228.93C1206.82 228.888 1206.77 228.857 1206.71 228.84C1206.66 228.831 1206.61 228.831 1206.56 228.84C1206.29 228.925 1206 228.965 1205.71 228.96C1205.43 228.938 1205.15 229.016 1204.92 229.18L1204.64 228.76C1204.62 228.72 1204.58 228.686 1204.54 228.66C1204.49 228.64 1204.43 228.64 1204.37 228.66H1204C1203.96 228.651 1203.91 228.651 1203.87 228.66C1203.83 228.692 1203.8 228.729 1203.77 228.77C1203.67 228.868 1203.54 228.941 1203.4 228.986C1203.27 229.031 1203.12 229.046 1202.98 229.03H1202.16C1202.1 229.01 1202.04 229.01 1201.98 229.03C1201.93 229.097 1201.9 229.171 1201.88 229.25C1201.78 229.47 1201.6 229.46 1201.42 229.56C1201.21 229.666 1201.04 229.843 1200.95 230.06C1200.94 230.116 1200.91 230.167 1200.87 230.21C1200.84 230.248 1200.8 230.276 1200.75 230.29L1200.33 230.5C1200.33 230.5 1200.26 230.5 1200.24 230.57C1200.24 230.6 1200.24 230.63 1200.24 230.66C1200.24 230.73 1200.24 230.93 1200.17 230.98C1200.1 231.03 1199.91 230.98 1199.81 230.98C1199.68 231.03 1199.53 231.03 1199.4 230.98C1199.33 230.939 1199.28 230.88 1199.24 230.81L1198.99 230.48C1198.95 230.417 1198.89 230.363 1198.83 230.32C1198.77 230.31 1198.71 230.31 1198.65 230.32C1198.32 230.358 1197.98 230.358 1197.65 230.32C1197.43 230.26 1197.29 229.85 1197.19 229.64C1197.18 229.595 1197.16 229.553 1197.13 229.52C1197.09 229.486 1197.04 229.465 1196.99 229.46L1195.67 229.12C1195.57 229.243 1195.47 229.36 1195.36 229.47C1195.19 229.533 1195.02 229.577 1194.84 229.6L1193.65 229.88C1193.63 230.059 1193.56 230.231 1193.46 230.38C1193.41 230.435 1193.36 230.486 1193.3 230.53C1193.09 230.647 1192.9 230.792 1192.73 230.96C1192.59 231.125 1192.48 231.306 1192.39 231.5C1192.13 231.355 1191.88 231.187 1191.65 231C1191.42 230.819 1191.13 230.726 1190.83 230.74C1190.54 230.781 1190.23 230.74 1189.96 230.62C1189.79 230.484 1189.6 230.364 1189.4 230.26C1189.29 230.25 1189.19 230.25 1189.08 230.26H1187.89C1187.58 230.26 1187.12 230.38 1186.89 230.02C1186.8 229.86 1186.77 229.66 1186.69 229.5C1186.62 229.378 1186.52 229.273 1186.4 229.192C1186.28 229.111 1186.15 229.056 1186.01 229.03C1185.74 228.96 1185.47 228.96 1185.2 228.9C1185.05 228.865 1184.92 228.804 1184.79 228.72C1184.64 228.588 1184.52 228.429 1184.43 228.25L1183.95 227.46C1183.92 227.407 1183.88 227.36 1183.83 227.32C1183.77 227.3 1183.71 227.3 1183.65 227.32C1183.38 227.345 1183.1 227.345 1182.82 227.32C1182.6 227.256 1182.4 227.147 1182.23 227C1181.89 226.68 1181.5 226.404 1181.09 226.18C1180.77 226.084 1180.43 226.037 1180.09 226.04C1180.03 226.051 1179.96 226.051 1179.9 226.04C1179.84 226.006 1179.79 225.962 1179.74 225.91L1178.67 224.91C1178.64 224.871 1178.6 224.837 1178.55 224.81H1178.4L1177.23 224.89C1176.57 224.897 1175.91 224.782 1175.29 224.55C1174.71 224.394 1174.1 224.336 1173.5 224.38C1173.38 224.411 1173.25 224.411 1173.13 224.38C1173.05 224.338 1172.98 224.284 1172.92 224.22L1172.32 223.62C1172.2 223.483 1172.05 223.368 1171.89 223.28C1171.65 223.181 1171.4 223.139 1171.14 223.16H1168.55C1168.34 223.179 1168.15 223.279 1168.01 223.44C1167.9 223.56 1167.73 223.89 1167.57 223.87C1167.13 223.864 1166.7 223.786 1166.29 223.64C1165.89 223.45 1165.55 223.17 1165.17 222.96C1165.1 222.919 1165.03 222.892 1164.95 222.88C1164.87 222.862 1164.79 222.862 1164.71 222.88L1163.05 223.49C1163.02 223.501 1162.99 223.522 1162.97 223.55C1162.96 223.592 1162.96 223.638 1162.97 223.68C1162.99 223.907 1162.99 224.134 1162.97 224.36C1162.98 224.394 1162.97 224.429 1162.96 224.462C1162.95 224.495 1162.93 224.525 1162.91 224.55C1162.86 224.57 1162.81 224.57 1162.76 224.55C1162.39 224.55 1162.03 224.55 1161.66 224.55L1160.75 225.16C1160.58 225.305 1160.37 225.392 1160.14 225.41C1159.93 225.41 1159.73 225.41 1159.53 225.49C1159.33 225.57 1159.17 225.49 1159 225.49C1158.93 225.504 1158.86 225.533 1158.8 225.574C1158.74 225.615 1158.68 225.668 1158.64 225.73C1158.56 225.88 1158.55 226.1 1158.41 226.19C1158.35 226.2 1158.3 226.2 1158.24 226.19L1157.24 226.31L1156.83 226.38C1156.6 226.44 1156.38 226.527 1156.17 226.64C1156 226.761 1155.82 226.862 1155.63 226.94C1155.43 226.975 1155.22 226.975 1155.01 226.94L1153.58 226.83C1153.56 226.839 1153.53 226.839 1153.51 226.83C1153.48 226.803 1153.46 226.763 1153.45 226.72C1153.36 226.38 1153.29 226.02 1153.18 225.72C1153.14 225.598 1153.06 225.487 1152.97 225.395C1152.88 225.302 1152.77 225.229 1152.65 225.18C1152.44 225.059 1152.25 224.922 1152.06 224.77C1151.98 224.68 1151.88 224.614 1151.76 224.58C1151.69 224.565 1151.61 224.565 1151.54 224.58L1150.54 224.69C1150.24 224.69 1149.9 224.69 1149.66 224.89C1149.54 225.006 1149.45 225.151 1149.4 225.31L1149.19 225.77C1149.17 225.81 1149.15 225.848 1149.12 225.88C1149.1 225.892 1149.07 225.898 1149.04 225.898C1149.01 225.898 1148.99 225.892 1148.96 225.88H1148.12C1147.96 225.865 1147.79 225.865 1147.63 225.88L1147.3 225.99C1146.93 226.157 1146.56 226.301 1146.17 226.42C1145.76 226.488 1145.35 226.512 1144.93 226.49C1144.87 226.5 1144.81 226.5 1144.75 226.49C1144.69 226.46 1144.62 226.419 1144.57 226.37L1143.46 225.45C1143.4 225.396 1143.33 225.352 1143.26 225.32H1141.51C1141.47 225.31 1141.43 225.31 1141.39 225.32C1141.35 225.332 1141.32 225.357 1141.3 225.39C1140.97 225.692 1140.77 226.107 1140.74 226.55C1140.46 226.539 1140.19 226.628 1139.97 226.8C1139.74 226.95 1139.53 227.14 1139.29 227.27C1139.13 227.335 1138.98 227.43 1138.86 227.55C1138.73 227.71 1138.65 228.03 1138.4 228H1138.26C1138.16 228 1138.09 228.09 1138.02 228.17C1137.89 228.321 1137.74 228.456 1137.58 228.57C1137.03 228.839 1136.54 229.212 1136.13 229.67C1136.07 229.772 1135.99 229.858 1135.89 229.92C1135.83 229.947 1135.76 229.961 1135.69 229.961C1135.62 229.961 1135.55 229.947 1135.48 229.92C1135.43 229.905 1135.37 229.905 1135.31 229.92L1135.2 230C1134.91 230.25 1134.56 230.68 1134.2 230.78C1133.84 230.88 1133.7 230.78 1133.47 230.83C1133.31 230.896 1133.16 230.999 1133.04 231.13C1132.81 231.336 1132.55 231.517 1132.28 231.67C1132.1 231.757 1131.92 231.854 1131.74 231.96C1131.66 232.074 1131.6 232.206 1131.58 232.345C1131.56 232.485 1131.57 232.627 1131.62 232.76H1131.37C1131.19 232.725 1131 232.725 1130.82 232.76C1130.53 232.83 1130.42 233.07 1130.23 233.28C1130.17 233.28 1129.71 233.89 1129.73 233.9Z" fill="#040707"/>
<path d="M344.817 185.201C348.267 185.201 351.589 183.889 354.108 181.532C356.628 179.175 358.158 175.948 358.389 172.506C358.625 176.025 360.219 179.315 362.835 181.681C365.451 184.047 368.884 185.304 372.41 185.186C375.935 185.068 379.276 183.584 381.729 181.049C384.181 178.513 385.551 175.124 385.551 171.597C385.551 168.069 384.181 164.68 381.729 162.145C379.276 159.609 375.935 158.126 372.41 158.008C368.884 157.89 365.451 159.146 362.835 161.512C360.219 163.878 358.625 167.168 358.389 170.687C358.21 168.044 357.262 165.51 355.663 163.397C354.063 161.285 351.881 159.686 349.385 158.797C346.889 157.907 344.187 157.767 341.612 158.393C339.038 159.019 336.702 160.383 334.892 162.319C333.082 164.254 331.877 166.676 331.426 169.287C330.974 171.898 331.295 174.584 332.349 177.015C333.404 179.446 335.146 181.516 337.361 182.971C339.576 184.425 342.167 185.2 344.817 185.201ZM371.985 165.958C373.101 165.964 374.189 166.302 375.113 166.927C376.037 167.553 376.754 168.438 377.175 169.471C377.595 170.505 377.7 171.64 377.475 172.732C377.25 173.825 376.706 174.827 375.912 175.61C375.118 176.394 374.11 176.924 373.014 177.134C371.918 177.344 370.785 177.225 369.757 176.791C368.73 176.357 367.854 175.627 367.241 174.695C366.628 173.763 366.305 172.67 366.313 171.555C366.308 170.812 366.453 170.076 366.737 169.39C367.021 168.704 367.44 168.082 367.969 167.56C368.497 167.039 369.125 166.628 369.815 166.353C370.505 166.078 371.243 165.943 371.985 165.958ZM344.851 165.958C345.966 165.966 347.053 166.305 347.976 166.931C348.899 167.558 349.615 168.444 350.034 169.477C350.453 170.511 350.556 171.645 350.331 172.737C350.105 173.83 349.561 174.83 348.766 175.613C347.972 176.396 346.963 176.925 345.868 177.135C344.772 177.344 343.64 177.224 342.612 176.79C341.585 176.356 340.71 175.626 340.097 174.695C339.484 173.763 339.162 172.67 339.17 171.555C339.167 170.812 339.312 170.076 339.597 169.389C339.882 168.703 340.302 168.081 340.831 167.56C341.36 167.038 341.989 166.628 342.679 166.353C343.369 166.078 344.108 165.943 344.851 165.958Z" fill="#040707"/>
<path d="M379.903 186.628C379.667 186.364 379.349 186.189 379 186.131C378.651 186.074 378.293 186.137 377.985 186.311C375.66 187.37 373.11 187.839 370.56 187.676C368.011 187.513 365.541 186.723 363.37 185.376C363.083 185.202 362.755 185.105 362.419 185.093C359.542 185.093 356.672 185.093 353.794 185.093C353.501 185.093 353.214 185.171 352.96 185.318C350.717 186.724 348.154 187.537 345.51 187.683C342.867 187.829 340.23 187.302 337.846 186.152C337.67 186.056 337.468 186.017 337.269 186.041C337.07 186.065 336.884 186.15 336.736 186.286C335.879 186.901 335.183 187.715 334.708 188.658C334.233 189.6 333.993 190.644 334.009 191.699C334.009 198.497 334.009 205.296 334.009 212.094C334.034 213.139 334.284 214.166 334.743 215.105C335.307 216.313 336.221 217.325 337.366 218.009C338.511 218.693 339.834 219.018 341.165 218.942H360.876C365.623 218.942 370.369 218.942 375.115 218.942C376.048 218.98 376.978 218.827 377.85 218.493C378.721 218.159 379.516 217.651 380.185 217C380.854 216.349 381.383 215.569 381.74 214.707C382.098 213.845 382.276 212.919 382.264 211.986C382.297 205.262 382.297 198.534 382.264 191.799C382.269 190.818 382.06 189.847 381.652 188.954C381.245 188.061 380.648 187.267 379.903 186.628Z" fill="#040707"/>
<path d="M400.987 191.299C401.029 190.731 400.943 190.162 400.737 189.631C399.853 187.963 398.185 187.612 396.466 188.597C392.696 190.774 388.959 192.967 385.164 195.136C384.993 195.215 384.85 195.344 384.756 195.507C384.662 195.67 384.621 195.858 384.638 196.045C384.638 200.058 384.638 204.078 384.638 208.09C384.617 208.299 384.66 208.509 384.764 208.691C384.867 208.874 385.024 209.019 385.214 209.108C389.067 211.327 392.88 213.596 396.758 215.781C397.41 216.091 398.143 216.185 398.852 216.048C400.245 215.798 400.979 214.68 400.979 213.054C400.987 209.45 401.012 194.894 400.987 191.299Z" fill="#040707"/>
<path d="M392 178.62L395 175.62L398 178.62L395 181.62L392 178.62Z" fill="#FFAE00"/>
<path d="M397.191 173.53L399.281 171.44L401.361 173.53L399.281 175.61L397.191 173.53Z" fill="black"/>
<path d="M327.642 188.68L326.172 187.22L327.642 185.75L329.102 187.22L327.642 188.68Z" fill="#FFAE00"/>
<path opacity="0.1" d="M1272.5 169C1272.42 169.375 1272.26 169.787 1272.02 170.023C1271.79 170.258 1271.37 170.42 1271 170.5C1271.37 170.58 1271.79 170.741 1272.02 170.977C1272.26 171.213 1272.42 171.625 1272.5 172C1272.58 171.625 1272.74 171.213 1272.98 170.977C1273.21 170.741 1273.63 170.58 1274 170.5C1273.63 170.42 1273.21 170.258 1272.98 170.023C1272.74 169.787 1272.58 169.375 1272.5 169Z" fill="white"/>
<path opacity="0.5" d="M289.5 114C289.42 114.375 289.258 114.787 289.023 115.023C288.787 115.258 288.375 115.42 288 115.5C288.375 115.58 288.787 115.741 289.023 115.977C289.258 116.213 289.42 116.625 289.5 117C289.58 116.625 289.742 116.213 289.978 115.977C290.213 115.741 290.625 115.58 291 115.5C290.625 115.42 290.213 115.258 289.977 115.023C289.742 114.787 289.58 114.375 289.5 114Z" fill="white"/>
<path opacity="0.1" d="M1363.5 182C1363.42 182.375 1363.26 182.787 1363.02 183.023C1362.79 183.258 1362.37 183.42 1362 183.5C1362.37 183.58 1362.79 183.741 1363.02 183.977C1363.26 184.213 1363.42 184.625 1363.5 185C1363.58 184.625 1363.74 184.213 1363.98 183.977C1364.21 183.741 1364.63 183.58 1365 183.5C1364.63 183.42 1364.21 183.258 1363.98 183.023C1363.74 182.787 1363.58 182.375 1363.5 182Z" fill="white"/>
<path opacity="0.1" d="M336.5 87C336.42 87.3747 336.258 87.787 336.023 88.0228C335.787 88.2584 335.375 88.4198 335 88.5001C335.375 88.5805 335.787 88.7415 336.023 88.9774C336.258 89.2132 336.42 89.6251 336.5 90C336.58 89.6251 336.742 89.2132 336.978 88.9772C337.213 88.7415 337.625 88.5802 338 88.4998C337.625 88.4197 337.213 88.2584 336.977 88.0226C336.742 87.787 336.58 87.3747 336.5 87Z" fill="white"/>
<path opacity="0.5" d="M421.5 76C421.42 76.3747 421.258 76.787 421.023 77.0228C420.787 77.2584 420.375 77.4198 420 77.5001C420.375 77.5805 420.787 77.7415 421.023 77.9774C421.258 78.2132 421.42 78.6251 421.5 79C421.58 78.6251 421.742 78.2132 421.978 77.9772C422.213 77.7415 422.625 77.5802 423 77.4998C422.625 77.4197 422.213 77.2584 421.977 77.0226C421.742 76.787 421.58 76.3747 421.5 76Z" fill="white"/>
<path opacity="0.1" d="M1011.5 153C1011.42 153.375 1011.26 153.787 1011.02 154.023C1010.79 154.258 1010.37 154.42 1010 154.5C1010.37 154.58 1010.79 154.741 1011.02 154.977C1011.26 155.213 1011.42 155.625 1011.5 156C1011.58 155.625 1011.74 155.213 1011.98 154.977C1012.21 154.741 1012.63 154.58 1013 154.5C1012.63 154.42 1012.21 154.258 1011.98 154.023C1011.74 153.787 1011.58 153.375 1011.5 153Z" fill="white"/>
<path opacity="0.5" d="M714.5 126C714.42 126.375 714.258 126.787 714.023 127.023C713.787 127.258 713.375 127.42 713 127.5C713.375 127.58 713.787 127.741 714.023 127.977C714.258 128.213 714.42 128.625 714.5 129C714.58 128.625 714.742 128.213 714.978 127.977C715.213 127.741 715.625 127.58 716 127.5C715.625 127.42 715.213 127.258 714.977 127.023C714.742 126.787 714.58 126.375 714.5 126Z" fill="white"/>
<path opacity="0.1" d="M989.5 90C989.42 90.3747 989.258 90.787 989.023 91.0228C988.787 91.2584 988.375 91.4198 988 91.5001C988.375 91.5805 988.787 91.7415 989.023 91.9774C989.258 92.2132 989.42 92.6251 989.5 93C989.58 92.6251 989.742 92.2132 989.978 91.9772C990.213 91.7415 990.625 91.5802 991 91.4998C990.625 91.4197 990.213 91.2584 989.977 91.0226C989.742 90.787 989.58 90.3747 989.5 90Z" fill="white"/>
<path opacity="0.1" d="M1181.5 115C1181.42 115.375 1181.26 115.787 1181.02 116.023C1180.79 116.258 1180.37 116.42 1180 116.5C1180.37 116.58 1180.79 116.741 1181.02 116.977C1181.26 117.213 1181.42 117.625 1181.5 118C1181.58 117.625 1181.74 117.213 1181.98 116.977C1182.21 116.741 1182.63 116.58 1183 116.5C1182.63 116.42 1182.21 116.258 1181.98 116.023C1181.74 115.787 1181.58 115.375 1181.5 115Z" fill="white"/>
<path opacity="0.5" d="M1122.5 87C1122.42 87.3747 1122.26 87.787 1122.02 88.0228C1121.79 88.2584 1121.37 88.4198 1121 88.5001C1121.37 88.5805 1121.79 88.7415 1122.02 88.9774C1122.26 89.2132 1122.42 89.6251 1122.5 90C1122.58 89.6251 1122.74 89.2132 1122.98 88.9772C1123.21 88.7415 1123.63 88.5802 1124 88.4998C1123.63 88.4197 1123.21 88.2584 1122.98 88.0226C1122.74 87.787 1122.58 87.3747 1122.5 87Z" fill="white"/>
<path opacity="0.5" d="M941.5 134C941.42 134.375 941.258 134.787 941.023 135.023C940.787 135.258 940.375 135.42 940 135.5C940.375 135.58 940.787 135.741 941.023 135.977C941.258 136.213 941.42 136.625 941.5 137C941.58 136.625 941.742 136.213 941.978 135.977C942.213 135.741 942.625 135.58 943 135.5C942.625 135.42 942.213 135.258 941.977 135.023C941.742 134.787 941.58 134.375 941.5 134Z" fill="white"/>
<path opacity="0.5" d="M882.5 123C882.42 123.375 882.258 123.787 882.023 124.023C881.787 124.258 881.375 124.42 881 124.5C881.375 124.58 881.787 124.741 882.023 124.977C882.258 125.213 882.42 125.625 882.5 126C882.58 125.625 882.742 125.213 882.978 124.977C883.213 124.741 883.625 124.58 884 124.5C883.625 124.42 883.213 124.258 882.977 124.023C882.742 123.787 882.58 123.375 882.5 123Z" fill="white"/>
<path opacity="0.5" d="M682 157C681.946 157.375 681.839 157.787 681.682 158.023C681.525 158.258 681.25 158.42 681 158.5C681.25 158.58 681.525 158.741 681.682 158.977C681.839 159.213 681.947 159.625 682 160C682.054 159.625 682.161 159.213 682.318 158.977C682.475 158.741 682.75 158.58 683 158.5C682.75 158.42 682.475 158.258 682.318 158.023C682.161 157.787 682.053 157.375 682 157Z" fill="white"/>
<path opacity="0.5" d="M502 158C501.946 158.375 501.839 158.787 501.682 159.023C501.525 159.258 501.25 159.42 501 159.5C501.25 159.58 501.525 159.741 501.682 159.977C501.839 160.213 501.947 160.625 502 161C502.054 160.625 502.161 160.213 502.318 159.977C502.475 159.741 502.75 159.58 503 159.5C502.75 159.42 502.475 159.258 502.318 159.023C502.161 158.787 502.053 158.375 502 158Z" fill="white"/>
<path opacity="0.1" d="M552.5 158C552.42 158.375 552.258 158.787 552.023 159.023C551.787 159.258 551.375 159.42 551 159.5C551.375 159.58 551.787 159.741 552.023 159.977C552.258 160.213 552.42 160.625 552.5 161C552.58 160.625 552.742 160.213 552.978 159.977C553.213 159.741 553.625 159.58 554 159.5C553.625 159.42 553.213 159.258 552.977 159.023C552.742 158.787 552.58 158.375 552.5 158Z" fill="white"/>
<path opacity="0.2" d="M1227.5 139C1227.37 139.625 1227.1 140.312 1226.7 140.705C1226.31 141.097 1225.62 141.366 1225 141.5C1225.62 141.634 1226.31 141.902 1226.7 142.296C1227.1 142.689 1227.37 143.375 1227.5 144C1227.63 143.375 1227.9 142.689 1228.3 142.295C1228.69 141.902 1229.38 141.634 1230 141.5C1229.38 141.366 1228.69 141.097 1228.3 140.704C1227.9 140.312 1227.63 139.625 1227.5 139Z" fill="white"/>
<path opacity="0.2" d="M436.5 166C436.366 166.625 436.097 167.312 435.704 167.705C435.311 168.097 434.625 168.366 434 168.5C434.625 168.634 435.311 168.902 435.704 169.296C436.097 169.689 436.367 170.375 436.5 171C436.634 170.375 436.903 169.689 437.296 169.295C437.689 168.902 438.376 168.634 439 168.5C438.376 168.366 437.689 168.097 437.296 167.704C436.903 167.312 436.633 166.625 436.5 166Z" fill="white"/>
<path opacity="0.2" d="M241.5 55C241.366 55.6245 241.097 56.3116 240.704 56.7046C240.311 57.0973 239.625 57.3664 239 57.5001C239.625 57.6341 240.311 57.9024 240.704 58.2957C241.097 58.6886 241.367 59.3751 241.5 60C241.634 59.3751 241.903 58.6886 242.296 58.2954C242.689 57.9025 243.376 57.6336 244 57.4996C243.376 57.3661 242.689 57.0973 242.296 56.7043C241.903 56.3117 241.633 55.6246 241.5 55Z" fill="white"/>
<path opacity="0.1" d="M1155.5 145C1155.37 145.625 1155.1 146.312 1154.7 146.705C1154.31 147.097 1153.62 147.366 1153 147.5C1153.62 147.634 1154.31 147.902 1154.7 148.296C1155.1 148.689 1155.37 149.375 1155.5 150C1155.63 149.375 1155.9 148.689 1156.3 148.295C1156.69 147.902 1157.38 147.634 1158 147.5C1157.38 147.366 1156.69 147.097 1156.3 146.704C1155.9 146.312 1155.63 145.625 1155.5 145Z" fill="white"/>
<path opacity="0.1" d="M150.5 71C150.366 71.6245 150.097 72.3116 149.704 72.7046C149.311 73.0973 148.625 73.3664 148 73.5001C148.625 73.6341 149.311 73.9024 149.704 74.2957C150.097 74.6886 150.367 75.3751 150.5 76C150.634 75.3751 150.903 74.6886 151.296 74.2954C151.689 73.9025 152.376 73.6336 153 73.4996C152.376 73.3661 151.689 73.0973 151.296 72.7043C150.903 72.3117 150.633 71.6246 150.5 71Z" fill="white"/>
<path opacity="0.1" d="M163.5 131C163.366 131.625 163.097 132.312 162.704 132.705C162.311 133.097 161.625 133.366 161 133.5C161.625 133.634 162.311 133.902 162.704 134.296C163.097 134.689 163.367 135.375 163.5 136C163.634 135.375 163.903 134.689 164.296 134.295C164.689 133.902 165.376 133.634 166 133.5C165.376 133.366 164.689 133.097 164.296 132.704C163.903 132.312 163.633 131.625 163.5 131Z" fill="white"/>
<path opacity="0.2" d="M1055.5 98C1055.37 98.6245 1055.1 99.3116 1054.7 99.7046C1054.31 100.097 1053.62 100.366 1053 100.5C1053.62 100.634 1054.31 100.902 1054.7 101.296C1055.1 101.689 1055.37 102.375 1055.5 103C1055.63 102.375 1055.9 101.689 1056.3 101.295C1056.69 100.902 1057.38 100.634 1058 100.5C1057.38 100.366 1056.69 100.097 1056.3 99.7043C1055.9 99.3117 1055.63 98.6246 1055.5 98Z" fill="white"/>
<path opacity="0.2" d="M651.5 114C651.366 114.625 651.097 115.312 650.704 115.705C650.311 116.097 649.625 116.366 649 116.5C649.625 116.634 650.311 116.902 650.704 117.296C651.097 117.689 651.367 118.375 651.5 119C651.634 118.375 651.903 117.689 652.296 117.295C652.689 116.902 653.376 116.634 654 116.5C653.376 116.366 652.689 116.097 652.296 115.704C651.903 115.312 651.633 114.625 651.5 114Z" fill="white"/>
<path opacity="0.2" d="M482.5 122C482.366 122.625 482.097 123.312 481.704 123.705C481.311 124.097 480.625 124.366 480 124.5C480.625 124.634 481.311 124.902 481.704 125.296C482.097 125.689 482.367 126.375 482.5 127C482.634 126.375 482.903 125.689 483.296 125.295C483.689 124.902 484.376 124.634 485 124.5C484.376 124.366 483.689 124.097 483.296 123.704C482.903 123.312 482.633 122.625 482.5 122Z" fill="white"/>
<path opacity="0.2" d="M775.5 114C775.366 114.625 775.097 115.312 774.704 115.705C774.311 116.097 773.625 116.366 773 116.5C773.625 116.634 774.311 116.902 774.704 117.296C775.097 117.689 775.367 118.375 775.5 119C775.634 118.375 775.903 117.689 776.296 117.295C776.689 116.902 777.376 116.634 778 116.5C777.376 116.366 776.689 116.097 776.296 115.704C775.903 115.312 775.633 114.625 775.5 114Z" fill="white"/>
<path opacity="0.2" d="M569.5 107C569.366 107.625 569.097 108.312 568.704 108.705C568.311 109.097 567.625 109.366 567 109.5C567.625 109.634 568.311 109.902 568.704 110.296C569.097 110.689 569.367 111.375 569.5 112C569.634 111.375 569.903 110.689 570.296 110.295C570.689 109.902 571.376 109.634 572 109.5C571.376 109.366 570.689 109.097 570.296 108.704C569.903 108.312 569.633 107.625 569.5 107Z" fill="white"/>
<path opacity="0.1" d="M1060.5 54C1060.37 54.6245 1060.1 55.3116 1059.7 55.7046C1059.31 56.0973 1058.62 56.3664 1058 56.5001C1058.62 56.6341 1059.31 56.9024 1059.7 57.2957C1060.1 57.6886 1060.37 58.3751 1060.5 59C1060.63 58.3751 1060.9 57.6886 1061.3 57.2954C1061.69 56.9025 1062.38 56.6336 1063 56.4996C1062.38 56.3661 1061.69 56.0973 1061.3 55.7043C1060.9 55.3117 1060.63 54.6246 1060.5 54Z" fill="white"/>
<path opacity="0.5" d="M732.5 80C732.366 80.6245 732.097 81.3116 731.704 81.7046C731.311 82.0973 730.625 82.3664 730 82.5001C730.625 82.6341 731.311 82.9024 731.704 83.2957C732.097 83.6886 732.367 84.3751 732.5 85C732.634 84.3751 732.903 83.6886 733.296 83.2954C733.689 82.9025 734.376 82.6336 735 82.4996C734.376 82.3661 733.689 82.0973 733.296 81.7043C732.903 81.3117 732.633 80.6246 732.5 80Z" fill="white"/>
<path opacity="0.5" d="M366.5 124C366.366 124.625 366.097 125.312 365.704 125.705C365.311 126.097 364.625 126.366 364 126.5C364.625 126.634 365.311 126.902 365.704 127.296C366.097 127.689 366.367 128.375 366.5 129C366.634 128.375 366.903 127.689 367.296 127.295C367.689 126.902 368.376 126.634 369 126.5C368.376 126.366 367.689 126.097 367.296 125.704C366.903 125.312 366.633 124.625 366.5 124Z" fill="white"/>
<path opacity="0.5" d="M93.4998 34C93.366 34.6245 93.0975 35.3116 92.7044 35.7046C92.3114 36.0973 91.6245 36.3664 91 36.5001C91.6245 36.6341 92.3114 36.9024 92.7044 37.2957C93.0975 37.6886 93.3666 38.3751 93.5003 39C93.634 38.3751 93.9026 37.6886 94.2958 37.2954C94.6886 36.9025 95.3756 36.6336 96 36.4996C95.3756 36.3661 94.6886 36.0973 94.2956 35.7043C93.9026 35.3117 93.6334 34.6246 93.4998 34Z" fill="white"/>
<path opacity="0.5" d="M923.5 171C923.42 171.375 923.258 171.787 923.023 172.023C922.787 172.258 922.375 172.42 922 172.5C922.375 172.58 922.787 172.741 923.023 172.977C923.258 173.213 923.42 173.625 923.5 174C923.58 173.625 923.742 173.213 923.978 172.977C924.213 172.741 924.625 172.58 925 172.5C924.625 172.42 924.213 172.258 923.977 172.023C923.742 171.787 923.58 171.375 923.5 171Z" fill="white"/>
<path opacity="0.2" d="M1208.5 183C1208.37 183.625 1208.1 184.312 1207.7 184.705C1207.31 185.097 1206.62 185.366 1206 185.5C1206.62 185.634 1207.31 185.902 1207.7 186.296C1208.1 186.689 1208.37 187.375 1208.5 188C1208.63 187.375 1208.9 186.689 1209.3 186.295C1209.69 185.902 1210.38 185.634 1211 185.5C1210.38 185.366 1209.69 185.097 1209.3 184.704C1208.9 184.312 1208.63 183.625 1208.5 183Z" fill="white"/>
<path opacity="0.2" d="M204.5 96C204.366 96.6245 204.097 97.3116 203.704 97.7046C203.311 98.0973 202.625 98.3664 202 98.5001C202.625 98.6341 203.311 98.9024 203.704 99.2957C204.097 99.6886 204.367 100.375 204.5 101C204.634 100.375 204.903 99.6886 205.296 99.2954C205.689 98.9025 206.376 98.6336 207 98.4996C206.376 98.3661 205.689 98.0973 205.296 97.7043C204.903 97.3117 204.633 96.6246 204.5 96Z" fill="white"/>
<path opacity="0.2" d="M242 131C241.946 131.25 241.839 131.525 241.682 131.682C241.525 131.839 241.25 131.947 241 132C241.25 132.054 241.525 132.161 241.682 132.318C241.839 132.475 241.947 132.75 242 133C242.054 132.75 242.161 132.475 242.318 132.318C242.475 132.161 242.75 132.053 243 132C242.75 131.946 242.475 131.839 242.318 131.682C242.161 131.525 242.053 131.25 242 131Z" fill="white"/>
<path opacity="0.5" d="M143 189C142.946 189.25 142.839 189.525 142.682 189.682C142.525 189.839 142.25 189.947 142 190C142.25 190.054 142.525 190.161 142.682 190.318C142.839 190.475 142.947 190.75 143 191C143.054 190.75 143.161 190.475 143.318 190.318C143.475 190.161 143.75 190.053 144 190C143.75 189.946 143.475 189.839 143.318 189.682C143.161 189.525 143.053 189.25 143 189Z" fill="white"/>
<path opacity="0.2" d="M186 162C185.946 162.25 185.839 162.525 185.682 162.682C185.525 162.839 185.25 162.947 185 163C185.25 163.054 185.525 163.161 185.682 163.318C185.839 163.475 185.947 163.75 186 164C186.054 163.75 186.161 163.475 186.318 163.318C186.475 163.161 186.75 163.053 187 163C186.75 162.946 186.475 162.839 186.318 162.682C186.161 162.525 186.053 162.25 186 162Z" fill="white"/>
<path opacity="0.2" d="M75.9999 133C75.9464 133.25 75.839 133.525 75.6818 133.682C75.5246 133.839 75.2498 133.947 75 134C75.2498 134.054 75.5246 134.161 75.6818 134.318C75.839 134.475 75.9466 134.75 76.0001 135C76.0536 134.75 76.1611 134.475 76.3183 134.318C76.4754 134.161 76.7502 134.053 77 134C76.7502 133.946 76.4754 133.839 76.3182 133.682C76.1611 133.525 76.0534 133.25 75.9999 133Z" fill="white"/>
<path opacity="0.5" d="M109.5 160C109.366 160.625 109.097 161.312 108.704 161.705C108.311 162.097 107.625 162.366 107 162.5C107.625 162.634 108.311 162.902 108.704 163.296C109.097 163.689 109.367 164.375 109.5 165C109.634 164.375 109.903 163.689 110.296 163.295C110.689 162.902 111.376 162.634 112 162.5C111.376 162.366 110.689 162.097 110.296 161.704C109.903 161.312 109.633 160.625 109.5 160Z" fill="white"/>
<path opacity="0.2" d="M114.5 96C114.366 96.6245 114.097 97.3116 113.704 97.7046C113.311 98.0973 112.625 98.3664 112 98.5001C112.625 98.6341 113.311 98.9024 113.704 99.2957C114.097 99.6886 114.367 100.375 114.5 101C114.634 100.375 114.903 99.6886 115.296 99.2954C115.689 98.9025 116.376 98.6336 117 98.4996C116.376 98.3661 115.689 98.0973 115.296 97.7043C114.903 97.3117 114.633 96.6246 114.5 96Z" fill="white"/>
<path opacity="0.5" d="M1276.5 107C1276.37 107.625 1276.1 108.312 1275.7 108.705C1275.31 109.097 1274.62 109.366 1274 109.5C1274.62 109.634 1275.31 109.902 1275.7 110.296C1276.1 110.689 1276.37 111.375 1276.5 112C1276.63 111.375 1276.9 110.689 1277.3 110.295C1277.69 109.902 1278.38 109.634 1279 109.5C1278.38 109.366 1277.69 109.097 1277.3 108.704C1276.9 108.312 1276.63 107.625 1276.5 107Z" fill="white"/>
<path opacity="0.1" d="M1359.5 0C1359.37 0.624547 1359.1 1.31162 1358.7 1.7046C1358.31 2.09729 1357.62 2.3664 1357 2.50013C1357.62 2.63414 1358.31 2.90242 1358.7 3.29566C1359.1 3.6886 1359.37 4.37513 1359.5 5C1359.63 4.37513 1359.9 3.68864 1360.3 3.2954C1360.69 2.90245 1361.38 2.6336 1362 2.49962C1361.38 2.36611 1360.69 2.09733 1360.3 1.70435C1359.9 1.31165 1359.63 0.624579 1359.5 0Z" fill="white"/>
<path opacity="0.5" d="M1203.5 72C1203.37 72.6245 1203.1 73.3116 1202.7 73.7046C1202.31 74.0973 1201.62 74.3664 1201 74.5001C1201.62 74.6341 1202.31 74.9024 1202.7 75.2957C1203.1 75.6886 1203.37 76.3751 1203.5 77C1203.63 76.3751 1203.9 75.6886 1204.3 75.2954C1204.69 74.9025 1205.38 74.6336 1206 74.4996C1205.38 74.3661 1204.69 74.0973 1204.3 73.7043C1203.9 73.3117 1203.63 72.6246 1203.5 72Z" fill="white"/>
</svg>
