<svg width="1440" height="249" viewBox="0 0 1440 249" fill="none" xmlns="http://www.w3.org/2000/svg">
<path opacity="0.1" d="M1329.5 160.719C1329.42 161.093 1329.26 161.506 1329.02 161.742C1328.79 161.977 1328.37 162.139 1328 162.219C1328.37 162.299 1328.79 162.46 1329.02 162.696C1329.26 162.932 1329.42 163.344 1329.5 163.719C1329.58 163.344 1329.74 162.932 1329.98 162.696C1330.21 162.46 1330.63 162.299 1331 162.219C1330.63 162.138 1330.21 161.977 1329.98 161.741C1329.74 161.506 1329.58 161.093 1329.5 160.719Z" fill="white"/>
<path opacity="0.5" d="M314.5 86.7188C314.42 87.0935 314.258 87.5057 314.023 87.7415C313.787 87.9771 313.375 88.1386 313 88.2188C313.375 88.2992 313.787 88.4602 314.023 88.6961C314.258 88.9319 314.42 89.3438 314.5 89.7188C314.58 89.3438 314.742 88.9319 314.978 88.696C315.213 88.4602 315.625 88.2989 316 88.2185C315.625 88.1384 315.213 87.9771 314.977 87.7414C314.742 87.5057 314.58 87.0935 314.5 86.7188Z" fill="white"/>
<path opacity="0.1" d="M1376.5 189.719C1376.42 190.093 1376.26 190.506 1376.02 190.742C1375.79 190.977 1375.37 191.139 1375 191.219C1375.37 191.299 1375.79 191.46 1376.02 191.696C1376.26 191.932 1376.42 192.344 1376.5 192.719C1376.58 192.344 1376.74 191.932 1376.98 191.696C1377.21 191.46 1377.63 191.299 1378 191.219C1377.63 191.138 1377.21 190.977 1376.98 190.741C1376.74 190.506 1376.58 190.093 1376.5 189.719Z" fill="white"/>
<path opacity="0.1" d="M354.5 114.719C354.42 115.093 354.258 115.506 354.023 115.742C353.787 115.977 353.375 116.139 353 116.219C353.375 116.299 353.787 116.46 354.023 116.696C354.258 116.932 354.42 117.344 354.5 117.719C354.58 117.344 354.742 116.932 354.978 116.696C355.213 116.46 355.625 116.299 356 116.219C355.625 116.138 355.213 115.977 354.977 115.741C354.742 115.506 354.58 115.093 354.5 114.719Z" fill="white"/>
<path opacity="0.1" d="M397.5 142.719C397.42 143.093 397.258 143.506 397.023 143.742C396.787 143.977 396.375 144.139 396 144.219C396.375 144.299 396.787 144.46 397.023 144.696C397.258 144.932 397.42 145.344 397.5 145.719C397.58 145.344 397.742 144.932 397.978 144.696C398.213 144.46 398.625 144.299 399 144.219C398.625 144.138 398.213 143.977 397.977 143.741C397.742 143.506 397.58 143.093 397.5 142.719Z" fill="white"/>
<path opacity="0.5" d="M434.5 83.7188C434.42 84.0935 434.258 84.5057 434.023 84.7415C433.787 84.9771 433.375 85.1386 433 85.2188C433.375 85.2992 433.787 85.4602 434.023 85.6961C434.258 85.9319 434.42 86.3438 434.5 86.7188C434.58 86.3438 434.742 85.9319 434.978 85.696C435.213 85.4602 435.625 85.2989 436 85.2185C435.625 85.1384 435.213 84.9771 434.977 84.7414C434.742 84.5057 434.58 84.0935 434.5 83.7188Z" fill="white"/>
<path opacity="0.1" d="M1031.5 177.719C1031.42 178.093 1031.26 178.506 1031.02 178.742C1030.79 178.977 1030.37 179.139 1030 179.219C1030.37 179.299 1030.79 179.46 1031.02 179.696C1031.26 179.932 1031.42 180.344 1031.5 180.719C1031.58 180.344 1031.74 179.932 1031.98 179.696C1032.21 179.46 1032.63 179.299 1033 179.219C1032.63 179.138 1032.21 178.977 1031.98 178.741C1031.74 178.506 1031.58 178.093 1031.5 177.719Z" fill="white"/>
<path opacity="0.1" d="M1007.5 150.719C1007.42 151.093 1007.26 151.506 1007.02 151.742C1006.79 151.977 1006.37 152.139 1006 152.219C1006.37 152.299 1006.79 152.46 1007.02 152.696C1007.26 152.932 1007.42 153.344 1007.5 153.719C1007.58 153.344 1007.74 152.932 1007.98 152.696C1008.21 152.46 1008.63 152.299 1009 152.219C1008.63 152.138 1008.21 151.977 1007.98 151.741C1007.74 151.506 1007.58 151.093 1007.5 150.719Z" fill="white"/>
<path opacity="0.5" d="M749.5 152.719C749.42 153.093 749.258 153.506 749.023 153.742C748.787 153.977 748.375 154.139 748 154.219C748.375 154.299 748.787 154.46 749.023 154.696C749.258 154.932 749.42 155.344 749.5 155.719C749.58 155.344 749.742 154.932 749.978 154.696C750.213 154.46 750.625 154.299 751 154.219C750.625 154.138 750.213 153.977 749.977 153.741C749.742 153.506 749.58 153.093 749.5 152.719Z" fill="white"/>
<path opacity="0.1" d="M1002.5 97.7188C1002.42 98.0935 1002.26 98.5057 1002.02 98.7415C1001.79 98.9771 1001.37 99.1386 1001 99.2188C1001.37 99.2992 1001.79 99.4602 1002.02 99.6961C1002.26 99.9319 1002.42 100.344 1002.5 100.719C1002.58 100.344 1002.74 99.9319 1002.98 99.696C1003.21 99.4602 1003.63 99.2989 1004 99.2185C1003.63 99.1384 1003.21 98.9771 1002.98 98.7414C1002.74 98.5057 1002.58 98.0935 1002.5 97.7188Z" fill="white"/>
<path opacity="0.1" d="M891.5 175.719C891.42 176.093 891.258 176.506 891.023 176.742C890.787 176.977 890.375 177.139 890 177.219C890.375 177.299 890.787 177.46 891.023 177.696C891.258 177.932 891.42 178.344 891.5 178.719C891.58 178.344 891.742 177.932 891.978 177.696C892.213 177.46 892.625 177.299 893 177.219C892.625 177.138 892.213 176.977 891.977 176.741C891.742 176.506 891.58 176.093 891.5 175.719Z" fill="white"/>
<path opacity="0.1" d="M837.5 153.719C837.42 154.093 837.258 154.506 837.023 154.742C836.787 154.977 836.375 155.139 836 155.219C836.375 155.299 836.787 155.46 837.023 155.696C837.258 155.932 837.42 156.344 837.5 156.719C837.58 156.344 837.742 155.932 837.978 155.696C838.213 155.46 838.625 155.299 839 155.219C838.625 155.138 838.213 154.977 837.977 154.741C837.742 154.506 837.58 154.093 837.5 153.719Z" fill="white"/>
<path opacity="0.1" d="M1204.5 111.719C1204.42 112.093 1204.26 112.506 1204.02 112.742C1203.79 112.977 1203.37 113.139 1203 113.219C1203.37 113.299 1203.79 113.46 1204.02 113.696C1204.26 113.932 1204.42 114.344 1204.5 114.719C1204.58 114.344 1204.74 113.932 1204.98 113.696C1205.21 113.46 1205.63 113.299 1206 113.219C1205.63 113.138 1205.21 112.977 1204.98 112.741C1204.74 112.506 1204.58 112.093 1204.5 111.719Z" fill="white"/>
<path opacity="0.1" d="M1172.5 152.719C1172.42 153.093 1172.26 153.506 1172.02 153.742C1171.79 153.977 1171.37 154.139 1171 154.219C1171.37 154.299 1171.79 154.46 1172.02 154.696C1172.26 154.932 1172.42 155.344 1172.5 155.719C1172.58 155.344 1172.74 154.932 1172.98 154.696C1173.21 154.46 1173.63 154.299 1174 154.219C1173.63 154.138 1173.21 153.977 1172.98 153.741C1172.74 153.506 1172.58 153.093 1172.5 152.719Z" fill="white"/>
<path opacity="0.1" d="M1118.5 171.719C1118.42 172.093 1118.26 172.506 1118.02 172.742C1117.79 172.977 1117.37 173.139 1117 173.219C1117.37 173.299 1117.79 173.46 1118.02 173.696C1118.26 173.932 1118.42 174.344 1118.5 174.719C1118.58 174.344 1118.74 173.932 1118.98 173.696C1119.21 173.46 1119.63 173.299 1120 173.219C1119.63 173.138 1119.21 172.977 1118.98 172.741C1118.74 172.506 1118.58 172.093 1118.5 171.719Z" fill="white"/>
<path opacity="0.5" d="M229.5 170.719C229.42 171.093 229.258 171.506 229.023 171.742C228.787 171.977 228.375 172.139 228 172.219C228.375 172.299 228.787 172.46 229.023 172.696C229.258 172.932 229.42 173.344 229.5 173.719C229.58 173.344 229.742 172.932 229.978 172.696C230.213 172.46 230.625 172.299 231 172.219C230.625 172.138 230.213 171.977 229.977 171.741C229.742 171.506 229.58 171.093 229.5 170.719Z" fill="white"/>
<path opacity="0.5" d="M1131.5 112.719C1131.42 113.093 1131.26 113.506 1131.02 113.742C1130.79 113.977 1130.37 114.139 1130 114.219C1130.37 114.299 1130.79 114.46 1131.02 114.696C1131.26 114.932 1131.42 115.344 1131.5 115.719C1131.58 115.344 1131.74 114.932 1131.98 114.696C1132.21 114.46 1132.63 114.299 1133 114.219C1132.63 114.138 1132.21 113.977 1131.98 113.741C1131.74 113.506 1131.58 113.093 1131.5 112.719Z" fill="white"/>
<path opacity="0.5" d="M988.5 184.719C988.42 185.093 988.258 185.506 988.023 185.742C987.787 185.977 987.375 186.139 987 186.219C987.375 186.299 987.787 186.46 988.023 186.696C988.258 186.932 988.42 187.344 988.5 187.719C988.58 187.344 988.742 186.932 988.978 186.696C989.213 186.46 989.625 186.299 990 186.219C989.625 186.138 989.213 185.977 988.977 185.741C988.742 185.506 988.58 185.093 988.5 184.719Z" fill="white"/>
<path opacity="0.5" d="M954.5 141.719C954.42 142.093 954.258 142.506 954.023 142.742C953.787 142.977 953.375 143.139 953 143.219C953.375 143.299 953.787 143.46 954.023 143.696C954.258 143.932 954.42 144.344 954.5 144.719C954.58 144.344 954.742 143.932 954.978 143.696C955.213 143.46 955.625 143.299 956 143.219C955.625 143.138 955.213 142.977 954.977 142.741C954.742 142.506 954.58 142.093 954.5 141.719Z" fill="white"/>
<path opacity="0.5" d="M895.5 130.719C895.42 131.093 895.258 131.506 895.023 131.742C894.787 131.977 894.375 132.139 894 132.219C894.375 132.299 894.787 132.46 895.023 132.696C895.258 132.932 895.42 133.344 895.5 133.719C895.58 133.344 895.742 132.932 895.978 132.696C896.213 132.46 896.625 132.299 897 132.219C896.625 132.138 896.213 131.977 895.977 131.741C895.742 131.506 895.58 131.093 895.5 130.719Z" fill="white"/>
<path opacity="0.5" d="M695 164.719C694.946 165.093 694.839 165.506 694.682 165.742C694.525 165.977 694.25 166.139 694 166.219C694.25 166.299 694.525 166.46 694.682 166.696C694.839 166.932 694.947 167.344 695 167.719C695.054 167.344 695.161 166.932 695.318 166.696C695.475 166.46 695.75 166.299 696 166.219C695.75 166.138 695.475 165.977 695.318 165.741C695.161 165.506 695.053 165.093 695 164.719Z" fill="white"/>
<path opacity="0.5" d="M634 180.719C633.946 181.093 633.839 181.506 633.682 181.742C633.525 181.977 633.25 182.139 633 182.219C633.25 182.299 633.525 182.46 633.682 182.696C633.839 182.932 633.947 183.344 634 183.719C634.054 183.344 634.161 182.932 634.318 182.696C634.475 182.46 634.75 182.299 635 182.219C634.75 182.138 634.475 181.977 634.318 181.741C634.161 181.506 634.053 181.093 634 180.719Z" fill="white"/>
<path opacity="0.5" d="M288 118.719C287.946 119.093 287.839 119.506 287.682 119.742C287.525 119.977 287.25 120.139 287 120.219C287.25 120.299 287.525 120.46 287.682 120.696C287.839 120.932 287.947 121.344 288 121.719C288.054 121.344 288.161 120.932 288.318 120.696C288.475 120.46 288.75 120.299 289 120.219C288.75 120.138 288.475 119.977 288.318 119.741C288.161 119.506 288.053 119.093 288 118.719Z" fill="white"/>
<path opacity="0.1" d="M572.5 149.719C572.42 150.093 572.258 150.506 572.023 150.742C571.787 150.977 571.375 151.139 571 151.219C571.375 151.299 571.787 151.46 572.023 151.696C572.258 151.932 572.42 152.344 572.5 152.719C572.58 152.344 572.742 151.932 572.978 151.696C573.213 151.46 573.625 151.299 574 151.219C573.625 151.138 573.213 150.977 572.977 150.741C572.742 150.506 572.58 150.093 572.5 149.719Z" fill="white"/>
<path opacity="0.2" d="M1258.5 186.719C1258.37 187.343 1258.1 188.03 1257.7 188.423C1257.31 188.816 1256.62 189.085 1256 189.219C1256.62 189.353 1257.31 189.621 1257.7 190.014C1258.1 190.407 1258.37 191.094 1258.5 191.719C1258.63 191.094 1258.9 190.407 1259.3 190.014C1259.69 189.621 1260.38 189.352 1261 189.218C1260.38 189.085 1259.69 188.816 1259.3 188.423C1258.9 188.03 1258.63 187.343 1258.5 186.719Z" fill="white"/>
<path opacity="0.2" d="M405.5 177.719C405.366 178.343 405.097 179.03 404.704 179.423C404.311 179.816 403.625 180.085 403 180.219C403.625 180.353 404.311 180.621 404.704 181.014C405.097 181.407 405.367 182.094 405.5 182.719C405.634 182.094 405.903 181.407 406.296 181.014C406.689 180.621 407.376 180.352 408 180.218C407.376 180.085 406.689 179.816 406.296 179.423C405.903 179.03 405.633 178.343 405.5 177.719Z" fill="white"/>
<path opacity="0.2" d="M289.5 153.719C289.366 154.343 289.097 155.03 288.704 155.423C288.311 155.816 287.625 156.085 287 156.219C287.625 156.353 288.311 156.621 288.704 157.014C289.097 157.407 289.367 158.094 289.5 158.719C289.634 158.094 289.903 157.407 290.296 157.014C290.689 156.621 291.376 156.352 292 156.218C291.376 156.085 290.689 155.816 290.296 155.423C289.903 155.03 289.633 154.343 289.5 153.719Z" fill="white"/>
<path opacity="0.1" d="M1092.5 140.719C1092.37 141.343 1092.1 142.03 1091.7 142.423C1091.31 142.816 1090.62 143.085 1090 143.219C1090.62 143.353 1091.31 143.621 1091.7 144.014C1092.1 144.407 1092.37 145.094 1092.5 145.719C1092.63 145.094 1092.9 144.407 1093.3 144.014C1093.69 143.621 1094.38 143.352 1095 143.218C1094.38 143.085 1093.69 142.816 1093.3 142.423C1092.9 142.03 1092.63 141.343 1092.5 140.719Z" fill="white"/>
<path opacity="0.1" d="M147.5 100.719C147.366 101.343 147.097 102.03 146.704 102.423C146.311 102.816 145.625 103.085 145 103.219C145.625 103.353 146.311 103.621 146.704 104.014C147.097 104.407 147.367 105.094 147.5 105.719C147.634 105.094 147.903 104.407 148.296 104.014C148.689 103.621 149.376 103.352 150 103.218C149.376 103.085 148.689 102.816 148.296 102.423C147.903 102.03 147.633 101.343 147.5 100.719Z" fill="white"/>
<path opacity="0.1" d="M179.5 150.719C179.366 151.343 179.097 152.03 178.704 152.423C178.311 152.816 177.625 153.085 177 153.219C177.625 153.353 178.311 153.621 178.704 154.014C179.097 154.407 179.367 155.094 179.5 155.719C179.634 155.094 179.903 154.407 180.296 154.014C180.689 153.621 181.376 153.352 182 153.218C181.376 153.085 180.689 152.816 180.296 152.423C179.903 152.03 179.633 151.343 179.5 150.719Z" fill="white"/>
<path opacity="0.2" d="M1044.5 111.719C1044.37 112.343 1044.1 113.03 1043.7 113.423C1043.31 113.816 1042.62 114.085 1042 114.219C1042.62 114.353 1043.31 114.621 1043.7 115.014C1044.1 115.407 1044.37 116.094 1044.5 116.719C1044.63 116.094 1044.9 115.407 1045.3 115.014C1045.69 114.621 1046.38 114.352 1047 114.218C1046.38 114.085 1045.69 113.816 1045.3 113.423C1044.9 113.03 1044.63 112.343 1044.5 111.719Z" fill="white"/>
<path opacity="0.2" d="M664.5 121.719C664.366 122.343 664.097 123.03 663.704 123.423C663.311 123.816 662.625 124.085 662 124.219C662.625 124.353 663.311 124.621 663.704 125.014C664.097 125.407 664.367 126.094 664.5 126.719C664.634 126.094 664.903 125.407 665.296 125.014C665.689 124.621 666.376 124.352 667 124.218C666.376 124.085 665.689 123.816 665.296 123.423C664.903 123.03 664.633 122.343 664.5 121.719Z" fill="white"/>
<path opacity="0.2" d="M495.5 129.719C495.366 130.343 495.097 131.03 494.704 131.423C494.311 131.816 493.625 132.085 493 132.219C493.625 132.353 494.311 132.621 494.704 133.014C495.097 133.407 495.367 134.094 495.5 134.719C495.634 134.094 495.903 133.407 496.296 133.014C496.689 132.621 497.376 132.352 498 132.218C497.376 132.085 496.689 131.816 496.296 131.423C495.903 131.03 495.633 130.343 495.5 129.719Z" fill="white"/>
<path opacity="0.2" d="M806.5 111.719C806.366 112.343 806.097 113.03 805.704 113.423C805.311 113.816 804.625 114.085 804 114.219C804.625 114.353 805.311 114.621 805.704 115.014C806.097 115.407 806.367 116.094 806.5 116.719C806.634 116.094 806.903 115.407 807.296 115.014C807.689 114.621 808.376 114.352 809 114.218C808.376 114.085 807.689 113.816 807.296 113.423C806.903 113.03 806.633 112.343 806.5 111.719Z" fill="white"/>
<path opacity="0.2" d="M582.5 114.719C582.366 115.343 582.097 116.03 581.704 116.423C581.311 116.816 580.625 117.085 580 117.219C580.625 117.353 581.311 117.621 581.704 118.014C582.097 118.407 582.367 119.094 582.5 119.719C582.634 119.094 582.903 118.407 583.296 118.014C583.689 117.621 584.376 117.352 585 117.218C584.376 117.085 583.689 116.816 583.296 116.423C582.903 116.03 582.633 115.343 582.5 114.719Z" fill="white"/>
<path opacity="0.1" d="M929.5 85.7188C929.366 86.3433 929.097 87.0304 928.704 87.4233C928.311 87.816 927.625 88.0852 927 88.2189C927.625 88.3529 928.311 88.6212 928.704 89.0144C929.097 89.4074 929.367 90.0939 929.5 90.7188C929.634 90.0939 929.903 89.4074 930.296 89.0142C930.689 88.6212 931.376 88.3523 932 88.2184C931.376 88.0849 930.689 87.8161 930.296 87.4231C929.903 87.0304 929.633 86.3433 929.5 85.7188Z" fill="white"/>
<path opacity="0.5" d="M726.5 114.719C726.366 115.343 726.097 116.03 725.704 116.423C725.311 116.816 724.625 117.085 724 117.219C724.625 117.353 725.311 117.621 725.704 118.014C726.097 118.407 726.367 119.094 726.5 119.719C726.634 119.094 726.903 118.407 727.296 118.014C727.689 117.621 728.376 117.352 729 117.218C728.376 117.085 727.689 116.816 727.296 116.423C726.903 116.03 726.633 115.343 726.5 114.719Z" fill="white"/>
<path opacity="0.5" d="M423.5 116.719C423.366 117.343 423.097 118.03 422.704 118.423C422.311 118.816 421.625 119.085 421 119.219C421.625 119.353 422.311 119.621 422.704 120.014C423.097 120.407 423.367 121.094 423.5 121.719C423.634 121.094 423.903 120.407 424.296 120.014C424.689 119.621 425.376 119.352 426 119.218C425.376 119.085 424.689 118.816 424.296 118.423C423.903 118.03 423.633 117.343 423.5 116.719Z" fill="white"/>
<path opacity="0.5" d="M106.5 41.7188C106.366 42.3433 106.097 43.0304 105.704 43.4233C105.311 43.816 104.625 44.0852 104 44.2189C104.625 44.3529 105.311 44.6212 105.704 45.0144C106.097 45.4074 106.367 46.0939 106.5 46.7188C106.634 46.0939 106.903 45.4074 107.296 45.0142C107.689 44.6212 108.376 44.3523 109 44.2184C108.376 44.0849 107.689 43.8161 107.296 43.4231C106.903 43.0304 106.633 42.3433 106.5 41.7188Z" fill="white"/>
<path opacity="0.5" d="M941.5 182.719C941.42 183.093 941.258 183.506 941.023 183.742C940.787 183.977 940.375 184.139 940 184.219C940.375 184.299 940.787 184.46 941.023 184.696C941.258 184.932 941.42 185.344 941.5 185.719C941.58 185.344 941.742 184.932 941.978 184.696C942.213 184.46 942.625 184.299 943 184.219C942.625 184.138 942.213 183.977 941.977 183.741C941.742 183.506 941.58 183.093 941.5 182.719Z" fill="white"/>
<path opacity="0.2" d="M1212.5 170.719C1212.37 171.343 1212.1 172.03 1211.7 172.423C1211.31 172.816 1210.62 173.085 1210 173.219C1210.62 173.353 1211.31 173.621 1211.7 174.014C1212.1 174.407 1212.37 175.094 1212.5 175.719C1212.63 175.094 1212.9 174.407 1213.3 174.014C1213.69 173.621 1214.38 173.352 1215 173.218C1214.38 173.085 1213.69 172.816 1213.3 172.423C1212.9 172.03 1212.63 171.343 1212.5 170.719Z" fill="white"/>
<path opacity="0.2" d="M203.5 118.719C203.366 119.343 203.097 120.03 202.704 120.423C202.311 120.816 201.625 121.085 201 121.219C201.625 121.353 202.311 121.621 202.704 122.014C203.097 122.407 203.367 123.094 203.5 123.719C203.634 123.094 203.903 122.407 204.296 122.014C204.689 121.621 205.376 121.352 206 121.218C205.376 121.085 204.689 120.816 204.296 120.423C203.903 120.03 203.633 119.343 203.5 118.719Z" fill="white"/>
<path opacity="0.2" d="M240 113.719C239.946 113.969 239.839 114.243 239.682 114.401C239.525 114.558 239.25 114.665 239 114.719C239.25 114.772 239.525 114.88 239.682 115.037C239.839 115.194 239.947 115.469 240 115.719C240.054 115.469 240.161 115.194 240.318 115.037C240.475 114.88 240.75 114.772 241 114.719C240.75 114.665 240.475 114.558 240.318 114.4C240.161 114.243 240.053 113.969 240 113.719Z" fill="white"/>
<path opacity="0.5" d="M128 153.719C127.946 153.969 127.839 154.243 127.682 154.401C127.525 154.558 127.25 154.665 127 154.719C127.25 154.772 127.525 154.88 127.682 155.037C127.839 155.194 127.947 155.469 128 155.719C128.054 155.469 128.161 155.194 128.318 155.037C128.475 154.88 128.75 154.772 129 154.719C128.75 154.665 128.475 154.558 128.318 154.4C128.161 154.243 128.053 153.969 128 153.719Z" fill="white"/>
<path opacity="0.2" d="M172 183.719C171.946 183.969 171.839 184.243 171.682 184.401C171.525 184.558 171.25 184.665 171 184.719C171.25 184.772 171.525 184.88 171.682 185.037C171.839 185.194 171.947 185.469 172 185.719C172.054 185.469 172.161 185.194 172.318 185.037C172.475 184.88 172.75 184.772 173 184.719C172.75 184.665 172.475 184.558 172.318 184.4C172.161 184.243 172.053 183.969 172 183.719Z" fill="white"/>
<path opacity="0.2" d="M70.9999 138.719C70.9464 138.969 70.839 139.243 70.6818 139.401C70.5246 139.558 70.2498 139.665 70 139.719C70.2498 139.772 70.5246 139.88 70.6818 140.037C70.839 140.194 70.9466 140.469 71.0001 140.719C71.0536 140.469 71.1611 140.194 71.3183 140.037C71.4754 139.88 71.7502 139.772 72 139.719C71.7502 139.665 71.4754 139.558 71.3182 139.4C71.1611 139.243 71.0534 138.969 70.9999 138.719Z" fill="white"/>
<path opacity="0.5" d="M89.4998 184.719C89.366 185.343 89.0975 186.03 88.7044 186.423C88.3114 186.816 87.6245 187.085 87 187.219C87.6245 187.353 88.3114 187.621 88.7044 188.014C89.0975 188.407 89.3666 189.094 89.5003 189.719C89.634 189.094 89.9026 188.407 90.2958 188.014C90.6886 187.621 91.3756 187.352 92 187.218C91.3756 187.085 90.6886 186.816 90.2956 186.423C89.9026 186.03 89.6334 185.343 89.4998 184.719Z" fill="white"/>
<path opacity="0.2" d="M109.5 108.719C109.366 109.343 109.097 110.03 108.704 110.423C108.311 110.816 107.625 111.085 107 111.219C107.625 111.353 108.311 111.621 108.704 112.014C109.097 112.407 109.367 113.094 109.5 113.719C109.634 113.094 109.903 112.407 110.296 112.014C110.689 111.621 111.376 111.352 112 111.218C111.376 111.085 110.689 110.816 110.296 110.423C109.903 110.03 109.633 109.343 109.5 108.719Z" fill="white"/>
<path opacity="0.5" d="M1251.5 130.719C1251.37 131.343 1251.1 132.03 1250.7 132.423C1250.31 132.816 1249.62 133.085 1249 133.219C1249.62 133.353 1250.31 133.621 1250.7 134.014C1251.1 134.407 1251.37 135.094 1251.5 135.719C1251.63 135.094 1251.9 134.407 1252.3 134.014C1252.69 133.621 1253.38 133.352 1254 133.218C1253.38 133.085 1252.69 132.816 1252.3 132.423C1251.9 132.03 1251.63 131.343 1251.5 130.719Z" fill="white"/>
<path opacity="0.1" d="M1372.5 7.71875C1372.37 8.3433 1372.1 9.03037 1371.7 9.42335C1371.31 9.81604 1370.62 10.0852 1370 10.2189C1370.62 10.3529 1371.31 10.6212 1371.7 11.0144C1372.1 11.4074 1372.37 12.0939 1372.5 12.7188C1372.63 12.0939 1372.9 11.4074 1373.3 11.0142C1373.69 10.6212 1374.38 10.3523 1375 10.2184C1374.38 10.0849 1373.69 9.81608 1373.3 9.4231C1372.9 9.0304 1372.63 8.34333 1372.5 7.71875Z" fill="white"/>
<path opacity="0.5" d="M1283.5 80.7188C1283.37 81.3433 1283.1 82.0304 1282.7 82.4233C1282.31 82.816 1281.62 83.0852 1281 83.2189C1281.62 83.3529 1282.31 83.6212 1282.7 84.0144C1283.1 84.4074 1283.37 85.0939 1283.5 85.7188C1283.63 85.0939 1283.9 84.4074 1284.3 84.0142C1284.69 83.6212 1285.38 83.3523 1286 83.2184C1285.38 83.0849 1284.69 82.8161 1284.3 82.4231C1283.9 82.0304 1283.63 81.3433 1283.5 80.7188Z" fill="white"/>
<path d="M411.933 158.176H384.703V163.086H411.933V158.176Z" fill="#FFAE00"/>
<path d="M677.141 209.374C677.204 208.939 677.369 208.525 677.621 208.164C678.393 206.954 679.252 205.801 680.191 204.714C680.851 203.934 681.541 203.174 682.191 202.404L682.421 202.164C682.541 202.034 682.661 202.054 682.781 202.164C683.541 202.974 684.301 203.784 685.051 204.604C685.221 204.774 685.121 204.894 684.981 205.004C684.321 205.504 683.671 206.004 682.981 206.494C681.604 207.505 680.153 208.411 678.641 209.204C678.241 209.437 677.792 209.571 677.331 209.594L677.141 209.374Z" fill="#FFAE00"/>
<path d="M687.632 197.273C688.972 196.023 690.302 194.763 691.632 193.523C692.035 193.091 692.372 192.602 692.632 192.073C694.232 189.393 695.812 186.713 697.412 184.073C697.642 183.683 697.852 183.643 698.172 183.973C698.722 184.533 699.242 185.123 699.792 185.683C699.962 185.863 699.902 185.993 699.742 186.123C699.582 186.253 699.612 186.343 699.822 186.393C699.985 186.457 700.16 186.481 700.334 186.463C700.508 186.446 700.675 186.387 700.822 186.293C700.889 186.244 700.969 186.218 701.052 186.218C701.135 186.218 701.215 186.244 701.282 186.293C701.722 186.542 702.072 186.923 702.282 187.383C702.319 187.461 702.332 187.548 702.319 187.633C702.307 187.718 702.269 187.798 702.212 187.863C702.127 187.949 702.071 188.06 702.051 188.18C702.031 188.3 702.049 188.423 702.102 188.533C702.192 188.703 702.182 188.993 702.492 188.743C702.592 188.663 702.672 188.743 702.742 188.853C703.272 189.423 703.822 189.993 704.342 190.573C704.652 190.923 704.602 191.133 704.202 191.333L694.822 196.123C694.588 196.24 694.372 196.392 694.182 196.573L686.182 204.033C685.812 204.373 685.812 204.373 685.472 204.033C684.782 203.283 684.092 202.533 683.392 201.803C683.172 201.573 683.192 201.433 683.392 201.223C684.842 199.883 686.232 198.573 687.632 197.273Z" fill="#4A4C4C"/>
<path d="M705.609 197.205C705.644 196.96 705.736 196.727 705.879 196.525C706.31 195.841 706.795 195.192 707.329 194.585C707.699 194.145 708.079 193.715 708.459 193.285C708.5 193.239 708.544 193.196 708.589 193.155C708.6 193.139 708.615 193.125 708.633 193.116C708.65 193.106 708.67 193.102 708.689 193.102C708.709 193.102 708.729 193.106 708.746 193.116C708.764 193.125 708.778 193.139 708.789 193.155L710.069 194.535C710.159 194.625 710.069 194.695 710.069 194.755C709.699 195.035 709.329 195.325 708.949 195.595C708.175 196.166 707.36 196.677 706.509 197.125C706.281 197.249 706.029 197.324 705.769 197.345L705.609 197.205Z" fill="#4A4C4C"/>
<path d="M711.478 190.376C712.228 189.676 712.978 188.966 713.738 188.276C713.96 188.029 714.148 187.753 714.298 187.456L716.988 182.936C717.118 182.716 717.238 182.686 717.418 182.876C717.598 183.066 718.018 183.526 718.328 183.876C718.418 183.966 718.388 184.046 718.328 184.116C718.268 184.186 718.258 184.236 718.328 184.266C718.419 184.301 718.517 184.313 718.615 184.303C718.712 184.292 718.806 184.259 718.887 184.206C718.926 184.179 718.971 184.165 719.018 184.165C719.064 184.165 719.109 184.179 719.148 184.206C719.392 184.347 719.588 184.56 719.708 184.816C719.734 184.857 719.748 184.906 719.748 184.956C719.748 185.005 719.734 185.054 719.708 185.096C719.661 185.144 719.631 185.205 719.62 185.271C719.609 185.337 719.619 185.405 719.648 185.466C719.698 185.566 719.648 185.726 719.868 185.586C720.088 185.446 719.968 185.586 720.008 185.646L720.908 186.646C721.078 186.836 721.058 186.956 720.828 187.076L715.548 189.766C715.418 189.834 715.297 189.918 715.188 190.016L710.697 194.216C710.487 194.406 710.488 194.406 710.288 194.216C709.908 193.796 709.518 193.376 709.118 192.966C708.998 192.836 709.008 192.746 709.118 192.636L711.478 190.376Z" fill="#4A4C4C"/>
<path d="M451.69 219.665C450.596 219.759 449.519 220.001 448.49 220.385C447.124 220.903 445.695 221.24 444.24 221.385C443.24 221.385 439.32 220.915 435.24 220.385L432.96 220.085C428.96 219.565 425.5 219.085 425.5 219.085C425.5 219.085 413.42 198.905 404.2 189.215C404.25 187.135 405.31 182.795 406.61 181.575C407.61 180.635 409.78 180.885 411.29 180.905C411.87 182.485 414.82 190.295 415.67 190.555C416.52 190.815 418.44 190.455 418.15 189.305C418.119 189.089 418.044 188.883 417.931 188.698C417.817 188.513 417.666 188.353 417.488 188.228C417.31 188.104 417.108 188.017 416.895 187.973C416.682 187.929 416.463 187.93 416.25 187.975C415.49 188.065 413.32 182.075 412.82 180.645C413.63 180.035 413.3 178.645 413.76 177.645C413.83 177.495 413.88 177.385 413.92 177.315C413.92 177.315 413.92 177.315 413.92 177.265C414.08 176.915 413.83 176.815 414.1 176.635C414.279 176.516 414.431 176.362 414.547 176.181C414.662 176 414.738 175.797 414.77 175.585C414.77 175.205 414.3 173.875 415.06 173.675C415.287 173.612 415.49 173.484 415.643 173.306C415.796 173.128 415.893 172.908 415.92 172.675C414.35 171.105 413.41 166.955 411.84 163.045H410.9V160.975C410.632 160.418 410.331 159.877 410 159.355C407.14 154.775 398.93 152.295 392.25 154.585C389.8 155.425 387.82 157.855 386.18 160.935V163.085H384.94C380.26 170.155 372.73 181.295 371.51 181.815C372.839 182.587 374.118 183.442 375.34 184.375C372.18 186.715 368.26 188.205 365.34 189.895C362.42 191.585 361.86 192.235 361.93 192.445L361.14 192.565L359.04 192.375C346.04 194.285 323.35 189.515 323.35 189.515C320.594 189.9 317.937 190.806 315.52 192.185C310.75 194.665 316.29 197.915 315.14 198.675C313.99 199.435 306.36 213.755 302.14 219.475C297.92 225.195 304.82 228.065 304.82 228.065H460.66C460.909 226.678 461.037 225.273 461.04 223.865C461.04 221.575 453.6 219.665 451.69 219.665ZM407.69 158.175H409.07V163.085H407.69V158.175ZM404.42 158.175H405.8V163.085H404.48L404.42 158.175ZM397.9 158.175H399.28V163.085H397.9V158.175ZM394.64 158.175H396.02V163.085H394.64V158.175ZM391.37 158.175H392.76V163.085H391.37V158.175ZM388.11 158.175H389.48V163.085H388.1L388.11 158.175ZM402.54 163.085H401.16V158.175H402.54V163.085Z" fill="#4A4C4C"/>
<path d="M769.619 229.904C768.889 229.904 766.619 227.444 766.089 227.074C758.839 221.454 750.799 216.004 740.459 212.654C733.175 210.263 725.496 209.312 717.849 209.854C710.389 210.474 703.559 212.734 696.369 214.134C685.079 216.344 675.269 214.974 665.369 211.184C654.759 207.184 645.159 202.124 634.459 198.184C625.289 194.834 614.819 192.394 604.289 193.054C594.289 193.684 585.139 197.053 577.059 200.893C568.979 204.733 561.479 209.154 552.729 212.374C545.505 215.134 537.833 216.534 530.099 216.504C521.689 216.344 514.189 213.774 506.009 212.854C498.947 212.089 491.805 213.096 485.229 215.784C479.929 217.934 475.609 221.174 470.179 223.124C467.129 224.224 461.039 224.804 461.039 227.694V229.914L769.619 229.904Z" fill="#4A4C4C"/>
<path d="M1103.58 229.264C1103.2 229.264 1101.98 227.984 1101.73 227.784C1097.75 224.488 1093.21 221.931 1088.32 220.234C1084.51 218.983 1080.49 218.488 1076.48 218.774C1072.58 219.094 1069 220.274 1065.24 221.014C1059.79 222.098 1054.13 221.559 1048.98 219.464C1043.43 217.354 1038.41 214.724 1032.8 212.674C1028.02 210.644 1022.83 209.716 1017.64 209.96C1012.45 210.204 1007.38 211.614 1002.8 214.084C998.572 216.084 994.662 218.404 990.092 220.084C986.313 221.534 982.298 222.266 978.252 222.244C973.842 222.164 969.922 220.824 965.642 220.334C961.943 219.935 958.204 220.465 954.762 221.874C951.982 222.994 949.762 224.684 946.882 225.714C945.292 226.284 942.102 226.594 942.102 228.104V229.264H1103.58Z" fill="#4A4C4C"/>
<path d="M987.048 222.005C987 220.757 986.74 219.526 986.278 218.365C986.259 218.31 986.256 218.25 986.271 218.193C986.285 218.136 986.315 218.085 986.358 218.045C986.659 217.771 986.889 217.428 987.028 217.045C987.057 216.905 987.051 216.76 987.012 216.622C986.973 216.484 986.902 216.358 986.804 216.253C986.706 216.148 986.585 216.068 986.45 216.02C986.315 215.972 986.17 215.956 986.028 215.975C985.508 216.075 985.428 216.695 985.418 216.975C985.416 217.041 985.392 217.105 985.348 217.155C984.508 218.215 984.528 221.105 984.538 221.535C984.548 221.571 984.548 221.609 984.538 221.645C984.43 221.967 984.376 222.305 984.378 222.645C984.379 222.725 984.349 222.802 984.296 222.861C984.242 222.921 984.168 222.958 984.088 222.965C978.678 223.235 973.658 223.185 970.258 221.175C968.386 220.07 966.609 218.809 964.948 217.405C964.895 217.366 964.856 217.311 964.838 217.247C964.82 217.184 964.823 217.116 964.846 217.055C964.87 216.993 964.914 216.941 964.97 216.907C965.027 216.873 965.093 216.858 965.158 216.865C966.288 216.955 965.248 215.395 964.158 215.395C963.068 215.395 962.858 214.785 962.378 214.835C961.843 214.864 961.315 214.983 960.818 215.185C959.698 215.525 958.748 216.445 956.818 216.185C955.268 215.975 953.438 214.095 952.758 213.335C952.729 213.301 952.707 213.26 952.695 213.216C952.683 213.172 952.681 213.126 952.688 213.081C952.696 213.037 952.713 212.994 952.739 212.957C952.765 212.919 952.799 212.888 952.838 212.865C952.94 212.822 953.029 212.754 953.095 212.666C953.162 212.578 953.204 212.474 953.218 212.365C953.218 212.055 952.638 211.765 952.308 211.635C952.25 211.609 952.201 211.564 952.169 211.509C952.137 211.453 952.123 211.389 952.128 211.325C952.128 210.925 952.128 210.105 951.438 209.945C950.488 209.725 949.438 210.375 948.838 209.945C948.164 209.374 947.329 209.024 946.448 208.945C945.548 208.945 944.858 208.425 944.118 208.595C943.378 208.765 942.688 210.115 942.558 210.465C942.428 210.815 940.948 211.035 941.298 212.135C941.322 212.201 941.322 212.273 941.298 212.339C941.275 212.404 941.229 212.46 941.168 212.495C940.375 212.939 939.763 213.646 939.438 214.495C939.438 214.765 939.318 215.145 939.248 215.585C939.241 215.629 939.224 215.67 939.198 215.706C939.173 215.743 939.141 215.773 939.103 215.796C939.065 215.819 939.023 215.833 938.979 215.838C938.935 215.843 938.89 215.839 938.848 215.825C938.128 215.611 937.452 215.273 936.848 214.825C936.269 214.4 935.762 213.883 935.348 213.295C935.321 213.255 935.304 213.21 935.297 213.162C935.291 213.114 935.295 213.066 935.311 213.02C935.326 212.974 935.352 212.933 935.387 212.899C935.421 212.865 935.463 212.84 935.508 212.825C935.656 212.78 935.806 212.746 935.958 212.725C936.818 212.635 937.128 212.205 937.128 211.905C937.128 211.605 936.298 211.295 935.388 211.215C934.478 211.135 933.748 210.905 933.658 210.645C933.568 210.385 933.268 210.435 932.058 211.645C930.848 212.855 930.108 213.725 928.058 213.645C927.374 213.645 926.707 213.427 926.155 213.022C925.603 212.618 925.195 212.048 924.988 211.395C924.834 210.519 924.407 209.715 923.768 209.095C923.078 208.535 922.988 207.625 921.998 207.405C921.008 207.185 921.388 208.275 920.258 208.275C919.128 208.275 918.128 205.975 916.258 206.435C916.2 206.449 916.148 206.48 916.108 206.525C915.78 206.935 915.354 207.255 914.868 207.455C914.728 207.495 914.598 207.564 914.485 207.658C914.373 207.751 914.282 207.867 914.217 207.998C914.152 208.129 914.115 208.272 914.108 208.417C914.102 208.563 914.126 208.709 914.178 208.845C914.308 209.445 914.308 210.925 913.828 210.845C913.348 210.765 912.058 210.635 912.138 211.415C912.218 212.195 912.138 212.235 912.838 212.325C913.538 212.415 911.968 213.755 911.838 214.145C911.811 214.24 911.791 214.337 911.778 214.435C911.762 214.507 911.722 214.572 911.663 214.617C911.605 214.663 911.532 214.687 911.458 214.685C910.123 214.639 908.832 214.197 907.748 213.415C907.416 213.173 907.107 212.898 906.828 212.595C906.785 212.539 906.762 212.471 906.762 212.4C906.762 212.33 906.785 212.261 906.828 212.205C906.876 212.122 906.933 212.045 906.998 211.975C907.208 211.805 907.998 212.025 908.508 211.505C909.018 210.985 908.508 210.635 908.168 210.285C907.747 209.999 907.27 209.805 906.768 209.715C906.69 209.694 906.622 209.644 906.578 209.575L906.088 208.735C905.828 208.295 905.738 209.035 904.868 209.255C903.998 209.475 903.488 211.255 902.488 212.065C902.085 212.368 901.617 212.574 901.121 212.666C900.624 212.758 900.114 212.733 899.628 212.595C898.256 212.165 897.107 211.214 896.428 209.945C896.168 209.125 894.868 207.435 894.598 206.655C894.328 205.875 891.338 206.495 890.788 206.605C890.736 206.62 890.681 206.62 890.628 206.605C889.748 206.262 888.827 206.033 887.888 205.925C887.828 205.918 887.772 205.893 887.726 205.854C887.679 205.815 887.646 205.763 887.628 205.705C887.358 204.815 886.178 204.005 885.328 204.605C884.478 205.205 884.388 205.745 885.158 206.805C885.206 206.861 885.232 206.932 885.232 207.005C885.232 207.078 885.206 207.149 885.158 207.205C884.813 207.568 884.556 208.006 884.408 208.485C884.387 208.555 884.341 208.616 884.278 208.655C884.146 208.736 884.005 208.803 883.858 208.855C883.728 208.855 883.648 209.495 883.618 209.805C883.611 209.856 883.592 209.904 883.563 209.946C883.533 209.988 883.494 210.022 883.448 210.045C882.576 210.545 881.841 211.252 881.308 212.105C879.358 214.875 879.838 217.645 879.618 218.105C879.398 218.565 877.148 220.355 877.148 220.875C877.148 221.395 877.778 226.875 877.808 227.105V227.155C877.807 227.195 877.814 227.235 877.828 227.272C877.843 227.309 877.865 227.342 877.893 227.37C877.921 227.399 877.955 227.421 877.992 227.435C878.029 227.45 878.069 227.457 878.108 227.455H879.808C879.836 227.456 879.862 227.449 879.886 227.436C879.909 227.422 879.929 227.403 879.942 227.379C879.956 227.355 879.962 227.329 879.962 227.302C879.961 227.275 879.953 227.248 879.938 227.225C879.836 227.074 879.678 226.97 879.498 226.935C879.341 226.934 879.187 226.89 879.053 226.807C878.919 226.724 878.81 226.606 878.738 226.465C878.73 226.436 878.73 226.405 878.738 226.375C878.668 225.965 878.148 222.525 879.088 221.265C880.178 219.515 881.658 219.265 882.838 217.585C882.867 217.542 882.905 217.506 882.951 217.482C882.996 217.457 883.047 217.444 883.098 217.444C883.15 217.444 883.201 217.457 883.246 217.482C883.292 217.506 883.33 217.542 883.358 217.585C883.597 218.461 883.648 219.378 883.508 220.275C883.508 221.495 883.508 222.095 884.118 222.745C884.728 223.395 886.648 226.555 887.118 227.285C887.147 227.328 887.185 227.364 887.231 227.388C887.276 227.413 887.327 227.425 887.378 227.425H888.468C888.524 227.424 888.577 227.407 888.624 227.378C888.671 227.349 888.709 227.307 888.734 227.258C888.76 227.21 888.772 227.155 888.769 227.1C888.766 227.045 888.749 226.991 888.718 226.945C888.549 226.633 888.277 226.39 887.948 226.255C887.388 226.125 885.518 223.355 885.218 221.575C884.918 219.795 885.778 216.375 886.378 216.165C886.978 215.955 887.918 216.655 890.478 216.395C890.544 216.375 890.613 216.375 890.678 216.395C891.273 216.791 891.965 217.016 892.678 217.045C892.758 217.045 892.834 217.077 892.891 217.133C892.947 217.189 892.978 217.266 892.978 217.345V218.685C892.937 219.268 892.937 219.853 892.978 220.435C892.989 220.471 892.989 220.509 892.978 220.545C892.786 221.394 892.786 222.276 892.978 223.125C892.987 223.181 892.98 223.239 892.959 223.291C892.938 223.344 892.903 223.39 892.858 223.425C892.013 224.05 891.214 224.735 890.468 225.475C890.038 226.035 890.948 226.815 891.338 226.815C891.728 226.815 891.538 226.345 891.468 226.085C891.457 226.031 891.46 225.974 891.477 225.921C891.495 225.869 891.526 225.822 891.568 225.785L892.378 225.035C892.421 224.999 892.472 224.974 892.526 224.964C892.581 224.954 892.638 224.959 892.69 224.979C892.742 224.998 892.788 225.031 892.823 225.075C892.858 225.118 892.88 225.17 892.888 225.225L893.158 227.115C893.172 227.188 893.211 227.253 893.267 227.3C893.324 227.348 893.395 227.374 893.468 227.375H894.888C894.968 227.383 895.047 227.359 895.109 227.309C895.171 227.258 895.21 227.185 895.218 227.105C895.226 227.026 895.202 226.946 895.152 226.884C895.101 226.822 895.028 226.783 894.948 226.775C894.168 226.685 894.088 226.205 894.038 225.215C894.038 224.515 893.978 223.985 893.968 223.735C893.964 223.685 893.973 223.635 893.994 223.589C894.015 223.544 894.048 223.504 894.088 223.475C894.859 222.967 895.556 222.354 896.158 221.655C896.288 221.225 895.158 219.535 895.158 218.415C895.148 217.837 895.253 217.262 895.468 216.725C895.491 216.666 895.533 216.616 895.588 216.585C896.18 216.197 896.823 215.894 897.498 215.685C899.343 216.115 901.275 215.976 903.038 215.285C904.285 214.833 905.401 214.081 906.288 213.095C906.317 213.066 906.352 213.043 906.389 213.027C906.427 213.012 906.468 213.004 906.508 213.004C906.549 213.004 906.59 213.012 906.628 213.027C906.665 213.043 906.7 213.066 906.728 213.095C906.994 213.362 907.278 213.609 907.578 213.835C908.71 214.656 910.053 215.135 911.448 215.215C911.491 215.217 911.534 215.228 911.572 215.248C911.61 215.268 911.643 215.296 911.669 215.331C911.695 215.365 911.713 215.405 911.721 215.447C911.73 215.49 911.729 215.533 911.718 215.575C911.568 216.275 911.378 217.115 911.158 217.845C910.728 219.325 908.998 221.095 908.908 221.355C908.818 221.615 908.908 225.895 908.908 227.075C908.908 227.115 908.916 227.155 908.932 227.192C908.948 227.229 908.971 227.263 909 227.291C909.029 227.319 909.063 227.341 909.101 227.355C909.138 227.37 909.178 227.377 909.218 227.375H910.488C910.559 227.379 910.629 227.356 910.684 227.312C910.739 227.268 910.776 227.205 910.788 227.135C910.788 226.955 910.788 226.755 910.258 226.725C909.388 226.725 909.998 223.615 910.258 222.835C910.518 222.055 911.518 219.715 912.078 219.365C912.699 218.958 913.202 218.396 913.538 217.735C913.568 217.684 913.612 217.642 913.664 217.615C913.716 217.588 913.776 217.576 913.834 217.582C913.893 217.587 913.949 217.609 913.996 217.645C914.043 217.681 914.078 217.73 914.098 217.785C914.583 219.299 914.918 220.856 915.098 222.435C915.098 222.955 916.838 225.255 917.318 225.855C917.798 226.455 918.258 227.005 918.478 227.265C918.506 227.299 918.541 227.327 918.581 227.346C918.621 227.365 918.664 227.375 918.708 227.375H919.708C919.76 227.375 919.811 227.362 919.857 227.337C919.902 227.311 919.941 227.275 919.969 227.232C919.996 227.188 920.013 227.138 920.016 227.086C920.02 227.034 920.01 226.982 919.988 226.935C919.954 226.862 919.904 226.797 919.842 226.745C919.78 226.693 919.707 226.656 919.628 226.635C919.198 226.555 917.848 224.515 917.248 223.735C916.648 222.955 916.078 221.735 916.248 219.235C916.328 218.025 916.368 217.335 916.398 216.945C916.401 216.897 916.415 216.849 916.44 216.808C916.464 216.766 916.499 216.73 916.54 216.705C916.581 216.679 916.628 216.664 916.677 216.661C916.725 216.657 916.774 216.666 916.818 216.685C917.872 217.051 919.004 217.13 920.098 216.915C920.153 216.91 920.208 216.918 920.259 216.938C920.309 216.959 920.354 216.993 920.388 217.035C921.108 217.925 922.008 218.375 922.048 219.535C922.088 220.695 921.618 222.135 921.708 222.905C921.798 223.675 921.358 226.285 921.488 226.545L921.608 226.775C921.613 226.798 921.613 226.822 921.608 226.845L921.678 227.135C921.694 227.203 921.732 227.264 921.787 227.307C921.841 227.351 921.909 227.375 921.978 227.375H923.218C923.288 227.373 923.354 227.348 923.409 227.305C923.463 227.262 923.501 227.202 923.518 227.135C923.766 225.993 924.295 224.93 925.058 224.045C925.998 222.705 926.428 222.405 926.218 221.975C926.008 221.545 923.868 218.115 923.958 217.645C924.078 217.211 924.34 216.829 924.703 216.562C925.066 216.296 925.508 216.159 925.958 216.175C927.298 216.035 929.038 216.345 931.498 214.995C932.808 214.285 933.778 213.715 934.498 213.315C934.565 213.278 934.644 213.267 934.718 213.286C934.793 213.304 934.857 213.351 934.898 213.415C935.852 214.864 937.304 215.913 938.978 216.365C939.051 216.382 939.114 216.425 939.157 216.486C939.199 216.547 939.218 216.621 939.208 216.695C939.068 217.571 939.028 218.46 939.088 219.345C939.089 219.376 939.099 219.405 939.118 219.429C939.137 219.453 939.163 219.47 939.192 219.478C939.221 219.486 939.253 219.484 939.281 219.473C939.309 219.462 939.333 219.441 939.348 219.415C939.368 219.386 939.398 219.365 939.431 219.355C939.465 219.345 939.502 219.348 939.534 219.362C939.566 219.376 939.592 219.401 939.608 219.433C939.623 219.465 939.627 219.501 939.618 219.535C939.582 220.004 939.371 220.443 939.028 220.765C938.378 221.235 938.638 221.545 938.728 222.405C939.016 224.272 939.458 226.111 940.048 227.905C940.428 228.001 940.822 228.021 941.208 227.965C941.275 227.953 941.335 227.917 941.378 227.865C941.421 227.813 941.445 227.748 941.445 227.68C941.445 227.613 941.421 227.547 941.378 227.495C941.335 227.443 941.275 227.408 941.208 227.395C940.868 227.395 940.208 225.155 940.208 223.265C940.208 221.375 942.208 219.775 942.788 219.215C943.186 218.862 943.472 218.399 943.608 217.885C943.617 217.84 943.637 217.797 943.665 217.76C943.693 217.723 943.73 217.694 943.771 217.673C943.813 217.653 943.859 217.642 943.905 217.643C943.951 217.643 943.997 217.654 944.038 217.675C945.938 218.565 947.478 218.325 947.768 218.735C948.106 219.057 948.519 219.291 948.968 219.415C949.041 219.444 949.099 219.5 949.133 219.57C949.166 219.64 949.172 219.721 949.148 219.795C948.695 221.336 948.043 222.812 947.208 224.185C946.078 225.795 944.478 226.445 944.438 227.095C944.431 227.278 944.459 227.461 944.523 227.632C944.586 227.804 944.684 227.961 944.808 228.095C944.837 228.128 944.872 228.154 944.912 228.171C944.952 228.189 944.995 228.197 945.038 228.195H945.378C945.423 228.194 945.467 228.184 945.507 228.165C945.547 228.145 945.582 228.118 945.611 228.084C945.639 228.05 945.66 228.01 945.672 227.967C945.683 227.924 945.686 227.879 945.678 227.835C945.673 227.755 945.688 227.675 945.721 227.601C945.754 227.528 945.805 227.464 945.868 227.415C946.388 226.895 949.238 223.825 949.238 223.275C949.408 222.605 949.663 221.96 949.998 221.355C950.028 221.298 950.074 221.251 950.131 221.221C950.188 221.192 950.253 221.18 950.317 221.189C950.381 221.198 950.44 221.226 950.487 221.27C950.534 221.314 950.566 221.372 950.578 221.435C950.808 222.645 951.198 224.795 951.318 225.785C951.417 226.55 951.622 227.297 951.928 228.005C951.951 228.061 951.989 228.11 952.039 228.143C952.089 228.177 952.148 228.195 952.208 228.195H953.438C953.504 228.194 953.567 228.173 953.619 228.135C953.671 228.096 953.71 228.042 953.73 227.98C953.75 227.918 953.75 227.851 953.73 227.79C953.71 227.728 953.671 227.674 953.618 227.635C953.498 227.545 953.367 227.472 953.228 227.415C952.538 227.105 951.928 224.945 951.928 224.165C951.928 223.385 951.928 219.625 951.928 219.075C951.918 219.032 951.918 218.988 951.928 218.945C952.038 218.725 952.428 218.015 952.718 218.015C953.008 218.015 954.098 218.535 955.768 218.785C957.737 219.095 959.75 218.941 961.648 218.335C962.369 218.076 963.059 217.741 963.708 217.335C963.759 217.299 963.821 217.279 963.883 217.279C963.946 217.279 964.007 217.299 964.058 217.335C965.899 218.947 967.884 220.386 969.988 221.635C973.268 223.575 977.988 223.535 983.228 223.525H984.328C984.374 223.522 984.421 223.529 984.464 223.545C984.506 223.562 984.545 223.588 984.577 223.622C984.608 223.655 984.632 223.695 984.646 223.739C984.66 223.783 984.665 223.829 984.658 223.875C984.542 225.107 984.623 226.349 984.898 227.555C984.914 227.623 984.952 227.684 985.007 227.727C985.061 227.771 985.129 227.795 985.198 227.795H985.878C985.939 227.797 985.999 227.781 986.05 227.749C986.102 227.717 986.143 227.67 986.168 227.615L986.238 227.435V227.375C986.842 226.651 987.359 225.859 987.778 225.015C987.728 224.605 986.948 223.375 987.048 222.005ZM924.688 222.115C924.706 222.155 924.715 222.197 924.715 222.24C924.715 222.283 924.706 222.326 924.688 222.365C924.348 223.025 922.688 226.085 922.288 225.975C921.888 225.865 922.508 223.585 922.548 222.805C922.669 221.951 922.846 221.106 923.078 220.275C923.094 220.219 923.125 220.168 923.168 220.128C923.211 220.089 923.264 220.063 923.322 220.052C923.379 220.042 923.439 220.048 923.493 220.069C923.547 220.091 923.594 220.128 923.628 220.175C924.056 220.779 924.411 221.43 924.688 222.115Z" fill="#040707"/>
<path d="M644.393 223.425V233.375H384.703V230.885L386.703 228.115L387.063 227.605H400.683L401.163 228.115L402.953 230.025H406.303V231.275H416.913L421.163 227.025L422.363 228.115L425.933 231.345L428.273 228.115L433.003 221.575V220.145L435.283 220.445V221.155H439.763V223.035H445.893L448.483 220.375L451.963 216.885H459.403V213.615L462.473 210.545H463.253V207.685H467.253L466.623 208.315H465.623V209.665H466.623V213.825H469.123V212.885H471.483V211.225H474.183V212.785H475.853V219.485H478.243V216.625L482.613 198.535V190.215H483.483V185.125H484.413V190.215H485.483V198.215L489.733 216.615V219.215H492.483V217.865H496.643V227.745H499.143V222.545H513.803V223.545H515.673V228.845H520.973V226.455H524.483V230.725H527.183V227.185H530.823V229.995H537.483V231.755H539.033V228.375H541.533V225.155H543.093V227.655H544.483V224.375H545.323V222.295H547.603V220.945H551.353L563.723 218.135H572.723V216.055H580.623L586.133 220.835V223.225H587.273V225.105H591.853L594.143 221.875H599.543V216.335C600.163 216.005 600.773 215.705 601.413 215.425V217.925H602.253V222.085H608.253L610.183 224.005V225.825H611.483V222.295H614.703V218.235H615.703V222.375L616.903 223.575V227.695H619.903V225.375H620.453V224.635H632.723V225.875H634.833V224.125H637.023V222.015H643.023V223.425H644.393Z" fill="#4A4C4C"/>
<path d="M484.91 232.375H770.77L787.61 232.095C787.54 232.045 770.61 223.095 770.53 222.995C770.45 222.895 770.11 222.395 769.88 222.145L768.57 221.745L767.32 221.365L764.44 220.485C763.676 220.193 762.89 219.963 762.09 219.795C761.89 219.795 761.67 219.715 761.59 219.585C761.51 219.455 761.54 219.435 761.46 219.385C761.405 219.369 761.346 219.369 761.29 219.385L760.58 219.325L760.41 219.675C760.101 219.654 759.79 219.685 759.49 219.765C759.26 219.815 759.05 219.895 758.81 219.925C758.57 219.955 758.14 219.925 757.81 219.925C757.562 219.97 757.317 220.037 757.08 220.125C756.418 220.221 755.749 220.264 755.08 220.255C754.52 220.315 754 220.485 753.45 220.555C753.177 220.575 752.903 220.575 752.63 220.555C752.341 220.582 752.05 220.541 751.78 220.435C751.732 220.414 751.688 220.383 751.654 220.343C751.619 220.303 751.594 220.256 751.58 220.205H751.05C751.044 220.191 751.041 220.176 751.041 220.16C751.041 220.144 751.044 220.129 751.05 220.115C751.03 220.019 751.03 219.921 751.05 219.825C750.988 219.81 750.923 219.81 750.86 219.825H750.68C750.56 219.825 750.62 219.615 750.62 219.535C750.414 219.52 750.207 219.52 750 219.535C750 219.375 750 219.245 749.78 219.235H749.08C749.092 219.26 749.099 219.287 749.099 219.315C749.099 219.343 749.092 219.37 749.08 219.395C749.01 219.585 748.72 219.395 748.6 219.535C748.48 219.675 748.6 219.815 748.6 219.885C748.615 219.927 748.615 219.973 748.6 220.015C748.533 220.064 748.453 220.092 748.37 220.095C748.14 220.095 748.08 220.095 748.03 219.945C747.98 219.795 748.03 219.725 748.03 219.715C747.63 219.715 747.46 219.765 747.48 219.465C747.495 219.423 747.495 219.377 747.48 219.335C747.39 219.225 746.76 219.335 746.6 219.335C746.44 219.335 746.53 219.655 746.51 219.765C746.518 219.782 746.521 219.801 746.521 219.82C746.521 219.839 746.518 219.858 746.51 219.875C746.37 219.965 746.22 219.875 746.12 219.965C746.02 220.055 746.06 220.265 746.02 220.365C745.895 220.612 745.737 220.841 745.55 221.045C745.33 221.285 744.81 221.195 744.47 221.195C744.34 221.195 743.83 220.625 743.73 220.545C743.699 220.526 743.675 220.498 743.66 220.465C743.642 220.413 743.642 220.357 743.66 220.305C743.622 219.996 743.523 219.697 743.37 219.425C743.26 219.185 742.48 219.235 742.22 219.225H742.15C742.15 219.135 742.06 218.835 741.95 218.795C741.911 218.784 741.869 218.784 741.83 218.795C741.35 218.795 740.83 218.795 740.38 218.795C740.413 219.246 740.369 219.699 740.25 220.135C740.25 220.275 740.07 220.475 740 220.605C739.991 220.609 739.981 220.612 739.97 220.612C739.96 220.612 739.95 220.609 739.94 220.605C738.94 220.265 738.02 219.775 737.07 219.365L734.96 218.455C734.405 218.143 733.786 217.965 733.15 217.935C732.52 217.935 731.89 217.935 731.27 218.045C730.727 218.152 730.169 218.169 729.62 218.095C729.24 218.015 728.88 217.895 728.5 217.795C726.935 217.476 725.33 217.392 723.74 217.545C723.65 217.725 723.66 217.965 723.38 218.055C723.212 218.105 723.036 218.125 722.86 218.115H722.4C721.628 218.055 720.852 218.055 720.08 218.115L717.71 218.475C716.87 218.605 716.04 218.785 715.19 218.895H715.12C715.07 218.895 715.06 218.825 715.07 218.785C715.08 218.745 715.07 218.555 715.07 218.445C715.069 218.418 715.062 218.392 715.05 218.367C715.038 218.343 715.021 218.322 715 218.305C714.951 218.294 714.9 218.294 714.85 218.305C714.08 218.305 713.3 218.305 712.53 218.305H712.2C712.081 218.339 711.965 218.379 711.85 218.425L709.12 219.375L707.85 219.925C707.478 220.141 707.086 220.321 706.68 220.465C706.588 220.506 706.49 220.533 706.39 220.545C706.295 220.54 706.201 220.523 706.11 220.495C705.23 220.225 704.36 219.965 703.5 219.675C702.68 219.41 701.822 219.275 700.96 219.275H695.34C694.734 219.24 694.126 219.24 693.52 219.275C693.58 219.155 693.46 219.015 693.34 218.925C692.919 218.526 692.385 218.267 691.81 218.185C691.196 218.208 690.591 218.336 690.02 218.565L688.74 219.005C688.444 219.114 688.139 219.201 687.83 219.265C687.186 219.351 686.53 219.279 685.92 219.055C685.64 218.975 685.36 218.875 685.08 218.785C684.784 218.645 684.471 218.54 684.15 218.475C684.083 218.449 684.012 218.432 683.94 218.425H683.79C683.34 218.555 682.87 218.675 682.44 218.835C682.162 218.957 681.874 219.058 681.58 219.135C681.25 219.196 680.916 219.226 680.58 219.225C679.929 219.226 679.281 219.145 678.65 218.985C678.095 218.81 677.531 218.666 676.96 218.555C676.591 218.525 676.22 218.525 675.85 218.555H671.28C670.61 218.558 669.942 218.612 669.28 218.715L665.84 219.215C664.78 219.365 663.71 219.565 662.64 219.655C661.25 219.755 659.82 219.655 658.43 219.655H655.94H654.78C654.232 219.561 653.668 219.645 653.17 219.895C652.948 220.125 652.683 220.308 652.39 220.435C651.928 220.49 651.462 220.49 651 220.435C650.761 220.46 650.519 220.46 650.28 220.435C649.59 220.285 649.22 219.715 648.57 219.485C648.21 219.358 647.82 219.341 647.45 219.435C647.11 219.515 646.97 219.765 646.66 219.885C646.339 219.994 645.996 220.025 645.66 219.975C645.39 219.975 644.39 220.115 644.26 219.915C644.25 219.879 644.25 219.841 644.26 219.805V219.375C644.266 219.359 644.266 219.341 644.26 219.325H644.2C643.903 219.27 643.598 219.27 643.3 219.325C643.109 219.406 642.943 219.537 642.82 219.705C642.12 220.395 640.94 220.515 639.93 220.825C638.947 221.253 637.916 221.562 636.86 221.745L631.72 222.115L624.44 222.645C624.068 222.696 623.688 222.648 623.34 222.505C622.803 222.189 622.194 222.013 621.57 221.995C621.037 222.035 620.512 222.149 620.01 222.335C619.515 222.511 619.011 222.661 618.5 222.785C617.729 222.939 616.934 222.922 616.17 222.735L615.78 222.645C615.567 222.63 615.353 222.63 615.14 222.645C615.034 222.63 614.926 222.63 614.82 222.645L614.63 222.745C614.181 223.04 613.76 223.375 613.37 223.745C613.321 223.79 613.267 223.83 613.21 223.865C612.593 223.936 611.971 223.966 611.35 223.955V223.375H609.9V222.985L608.83 222.725L608.35 222.885L607.87 223.035V223.275H606.59C606.48 223.275 606.59 223.515 606.59 223.515H605.73V223.915H603.08V223.475H602.66V223.125H602.23V223.495H601.76L601.34 224.115H600.15C600.08 224.115 600.15 223.925 600.15 223.925H598.39C596.658 223.334 594.878 222.895 593.07 222.615C590.961 222.452 588.84 222.655 586.8 223.215C584.77 223.692 582.783 224.338 580.86 225.145C580.363 225.413 579.836 225.621 579.29 225.765C577.48 226.175 575.78 225.225 574.1 224.885C572.086 224.563 570.05 224.405 568.01 224.415C564.809 224.241 561.599 224.318 558.41 224.645C557.447 224.856 556.472 225.01 555.49 225.105C554.616 224.993 553.759 224.771 552.94 224.445C552.169 224.256 551.373 224.182 550.58 224.225H546.9L546.81 223.225H548.16L538.1 217.375L529.57 223.625H530.48V225.625H529.24C528.967 225.406 528.655 225.24 528.32 225.135H527.97L527.25 225.205C527.043 225.213 526.84 225.271 526.66 225.375C526.54 225.495 526.66 225.625 526.66 225.765C526.66 225.905 526.56 226.055 526.41 226.165C526.252 226.302 526.073 226.413 525.88 226.495C525.84 226.528 525.791 226.548 525.74 226.555C525.678 226.57 525.613 226.57 525.55 226.555C525.083 226.372 524.596 226.242 524.1 226.165C523.674 226.135 523.246 226.135 522.82 226.165C522.707 226.15 522.593 226.15 522.48 226.165C522.213 226.257 521.952 226.367 521.7 226.495C521.403 226.58 521.088 226.58 520.79 226.495C519.795 226.205 518.743 226.167 517.73 226.385C517.309 226.54 516.868 226.635 516.42 226.665C515.989 226.663 515.565 226.549 515.19 226.335C515.055 226.233 514.902 226.155 514.74 226.105C514.657 226.095 514.573 226.095 514.49 226.105C513.958 226.066 513.422 226.103 512.9 226.215C512.441 226.357 511.959 226.412 511.48 226.375C511.27 226.375 511.08 226.275 510.87 226.235C510.347 226.128 509.813 226.091 509.28 226.125C508.894 226.095 508.506 226.095 508.12 226.125L506.97 226.335C506.65 226.475 506.33 226.605 505.97 226.755C505.811 226.845 505.644 226.919 505.47 226.975C505.34 226.975 505.28 226.795 505.22 226.705C505.208 226.678 505.187 226.657 505.16 226.645H505.08C504.765 226.599 504.445 226.599 504.13 226.645C504.089 226.671 504.058 226.71 504.04 226.755L503.68 227.425C503.687 227.444 503.687 227.466 503.68 227.485C503.647 227.491 503.613 227.491 503.58 227.485C503.44 227.485 503.14 227.625 503 227.545C502.974 227.524 502.951 227.501 502.93 227.475C502.767 227.269 502.635 227.04 502.54 226.795C502.47 226.555 502.54 226.325 502.29 226.135C502.086 225.989 501.868 225.862 501.64 225.755C501.35 225.592 501.081 225.394 500.84 225.165C500.712 225.016 500.546 224.906 500.36 224.845C500.231 224.825 500.099 224.825 499.97 224.845C499.21 224.845 498.42 224.905 497.66 225.005C497.198 225.051 496.743 225.145 496.3 225.285C496.082 225.352 495.876 225.454 495.69 225.585C495.493 225.763 495.342 225.986 495.25 226.235C495.068 226.544 494.943 226.882 494.88 227.235L494.38 227.125C493.6 226.725 493.38 227.395 493.2 227.565C493.02 227.735 492.6 228.085 492.38 227.985C490.18 226.985 489.17 226.635 489.03 226.535L487.95 227.235H486.13L484.91 232.375Z" fill="#040707"/>
<path d="M693.661 230.213H531.121V228.593L533.581 228.303L534.871 227.493H536.211L538.341 226.683L540.131 226.333L541.701 225.983L542.541 226.303L545.681 225.983L546.571 224.503H549.321L551.561 223.793L555.031 224.063L556.211 223.063L559.951 222.653C559.951 222.653 561.131 222.823 561.131 222.653C561.253 222.357 561.418 222.081 561.621 221.833H564.281L565.051 221.313L566.681 220.453L568.921 220.793L569.651 220.453H571.651C572.214 220.61 572.802 220.654 573.381 220.583L574.671 220.703L575.901 220.213L576.901 220.353L577.901 220.533L579.461 220.013H580.701H580.821C582.391 219.723 583.901 219.303 585.411 218.953L588.801 218.173C589.744 217.9 590.719 217.752 591.701 217.733C592.708 217.733 593.708 217.763 594.701 217.823C595.579 217.903 596.463 217.903 597.341 217.823C597.951 217.763 598.531 217.653 599.131 217.573C601.661 217.294 604.209 217.22 606.751 217.353C606.901 217.513 606.891 217.713 607.331 217.803C607.611 217.824 607.891 217.824 608.171 217.803H608.901C610.096 217.913 611.284 218.083 612.461 218.313C613.731 218.403 615.151 218.013 616.461 218.123C617.771 218.233 616.731 217.513 618.091 217.613C618.091 217.613 618.861 218.003 618.891 217.993C619.2 217.922 619.501 217.822 619.791 217.693C620.371 217.533 620.681 217.813 620.691 217.693C620.701 217.573 620.841 217.843 620.921 217.813C621.001 217.783 620.921 217.943 621.031 217.943H624.741C624.911 217.928 625.081 217.928 625.251 217.943C625.446 217.965 625.64 217.999 625.831 218.043L629.931 219.043L631.201 220.123L633.581 220.673L635.821 220.323L639.931 220.863V221.523C639.931 221.523 641.051 221.753 641.281 221.783C641.511 221.813 647.171 221.783 647.171 221.783L648.171 222.493L650.701 222.683L653.021 223.683L655.111 223.373L657.721 224.073H660.041L662.131 224.463L662.731 225.353L665.421 225.153L668.781 226.243L669.231 226.743L671.541 226.473L674.381 227.173L674.901 227.713H678.781L679.161 228.643L682.671 229.063H684.981V228.563L686.851 228.713L687.851 229.263H690.251L693.661 230.213Z" fill="#040707"/>
<path d="M1074.73 229.563H983.82V228.663L985.19 228.493L985.91 228.043H986.66L987.85 227.593L988.85 227.393L989.72 227.203L990.19 227.373L991.95 227.203L992.45 226.373H993.99L995.24 225.973L997.18 226.123L997.84 225.553L999.93 225.333C999.93 225.333 1000.59 225.423 1000.59 225.333C1000.66 225.166 1000.75 225.012 1000.87 224.873H1002.35L1002.79 224.583L1003.69 224.093L1004.95 224.293L1005.36 224.093H1006.48C1006.81 224.185 1007.15 224.209 1007.48 224.163L1008.2 224.233L1008.89 223.953L1009.46 224.033L1009.99 224.133L1010.87 223.843H1011.56H1011.63C1012.5 223.673 1013.35 223.433 1014.19 223.243L1016.09 222.803C1016.62 222.651 1017.16 222.57 1017.71 222.563C1018.28 222.563 1018.84 222.563 1019.39 222.563C1019.88 222.608 1020.37 222.608 1020.86 222.563C1021.21 222.563 1021.53 222.463 1021.86 222.423C1023.28 222.267 1024.71 222.227 1026.13 222.303C1026.21 222.393 1026.21 222.503 1026.45 222.553C1026.61 222.563 1026.76 222.563 1026.92 222.553H1027.33C1028.01 222.553 1028.65 222.793 1029.33 222.843C1030.01 222.893 1030.84 222.673 1031.54 222.733C1032.24 222.793 1031.69 222.393 1032.45 222.453C1032.45 222.453 1032.88 222.673 1032.9 222.663C1033.07 222.623 1033.24 222.569 1033.4 222.503C1033.73 222.413 1033.9 222.563 1033.91 222.503C1033.92 222.443 1033.99 222.583 1034.04 222.563C1034.09 222.543 1034.04 222.633 1034.1 222.633C1034.79 222.633 1035.48 222.633 1036.17 222.633H1036.46C1036.57 222.642 1036.68 222.662 1036.78 222.693L1039.08 223.223L1039.78 223.833L1041.12 224.133L1042.37 223.943L1044.67 224.243V224.613L1045.42 224.763C1045.55 224.763 1048.72 224.763 1048.72 224.763L1049.27 225.153L1050.69 225.263L1051.98 225.843L1053.15 225.673L1054.61 226.063H1055.91L1057.08 226.273L1057.41 226.773L1058.92 226.663L1060.8 227.273L1061.05 227.553L1062.34 227.403L1063.93 227.793L1064.22 228.093H1066.39L1066.6 228.613L1068.6 228.853H1069.89V228.573L1070.89 228.663L1071.48 228.963H1072.82L1074.73 229.563Z" fill="#040707"/>
<path d="M1264.78 231.983H1173.87V230.613L1175.24 230.363L1175.96 229.673H1176.72L1177.91 228.983L1178.91 228.683L1179.79 228.393L1180.25 228.663L1182.01 228.393L1182.51 227.133H1184.05L1185.3 226.533L1187.24 226.763L1187.9 225.903L1190 225.553C1190 225.553 1190.65 225.703 1190.65 225.553C1190.72 225.31 1190.81 225.075 1190.93 224.853H1192.42L1192.85 224.423L1193.76 223.683L1195.01 223.973L1195.42 223.683H1196.52C1196.71 223.863 1197.17 223.793 1197.52 223.793L1198.25 223.903L1198.94 223.483L1199.5 223.603L1200.03 223.753L1200.91 223.313H1201.6H1201.67C1202.55 223.063 1203.39 222.703 1204.24 222.413L1206.13 221.753C1206.65 221.525 1207.2 221.396 1207.76 221.373C1208.32 221.373 1208.88 221.373 1209.43 221.453C1209.92 221.518 1210.42 221.518 1210.91 221.453C1211.25 221.393 1211.57 221.303 1211.91 221.233C1213.32 220.998 1214.75 220.937 1216.17 221.053C1216.26 221.183 1216.25 221.353 1216.5 221.423C1216.66 221.444 1216.82 221.444 1216.97 221.423H1217.38C1218.06 221.523 1218.72 221.667 1219.38 221.853C1220.09 221.943 1220.88 221.603 1221.59 221.693C1222.3 221.783 1221.74 221.173 1222.5 221.263C1222.5 221.263 1222.93 221.593 1222.95 221.593C1223.12 221.519 1223.29 221.432 1223.45 221.333C1223.77 221.203 1223.94 221.433 1223.95 221.333C1223.96 221.233 1224.03 221.453 1224.08 221.433C1224.13 221.413 1224.08 221.543 1224.14 221.543H1226.22H1226.5C1226.61 221.561 1226.72 221.592 1226.82 221.633L1229.12 222.443L1229.83 223.363L1231.16 223.823L1232.41 223.523L1234.71 223.983V224.553L1235.47 224.773C1235.59 224.773 1238.77 224.773 1238.77 224.773L1239.31 225.373L1240.73 225.533L1242.02 226.423L1243.19 226.163L1244.66 226.753H1245.95L1247.12 227.083L1247.45 227.833L1248.96 227.673L1250.84 228.593L1251.09 229.023L1252.38 228.793L1253.97 229.383L1254.26 229.843H1256.43L1256.65 230.633L1258.65 230.993H1259.94V230.563L1260.99 230.703L1261.57 231.163H1262.91L1264.78 231.983Z" fill="#040707"/>
<path d="M1057.92 202.243C1057.71 202.068 1057.45 201.976 1057.18 201.984C1056.91 201.991 1056.65 202.098 1056.46 202.283C1056.26 202.469 1056.14 202.72 1056.12 202.989C1056.09 203.258 1056.17 203.527 1056.33 203.743L1053.95 201.133L1051.28 203.563C1051.44 203.42 1051.55 203.235 1051.61 203.03C1051.66 202.824 1051.65 202.608 1051.59 202.406C1051.52 202.204 1051.4 202.025 1051.23 201.892C1051.07 201.759 1050.87 201.676 1050.66 201.654C1050.44 201.632 1050.23 201.671 1050.04 201.768C1049.85 201.864 1049.7 202.013 1049.59 202.197C1049.48 202.381 1049.43 202.592 1049.44 202.804C1049.45 203.016 1049.53 203.221 1049.65 203.393C1049.74 203.518 1049.86 203.623 1049.99 203.7C1050.13 203.778 1050.27 203.826 1050.43 203.842C1050.58 203.858 1050.74 203.841 1050.88 203.793C1051.03 203.745 1051.17 203.667 1051.28 203.563L1048.62 205.993L1050.56 208.123C1050.56 207.942 1050.6 207.763 1050.68 207.602C1050.76 207.441 1050.88 207.304 1051.03 207.203C1051.18 207.102 1051.35 207.039 1051.52 207.018C1051.7 206.996 1051.88 207.018 1052.04 207.081C1052.21 207.144 1052.36 207.246 1052.48 207.379C1052.59 207.511 1052.68 207.671 1052.72 207.843C1052.76 208.015 1052.76 208.195 1052.72 208.368C1052.68 208.54 1052.6 208.7 1052.48 208.834C1052.36 208.968 1052.22 209.071 1052.05 209.135C1051.89 209.199 1051.71 209.223 1051.53 209.203L1053.53 211.333L1058.86 206.473L1056.49 203.873C1056.71 204.046 1056.99 204.128 1057.27 204.103C1057.55 204.078 1057.81 203.948 1057.99 203.739C1058.18 203.53 1058.28 203.257 1058.27 202.978C1058.26 202.698 1058.15 202.432 1057.95 202.233L1057.92 202.243Z" fill="#FFAE00"/>
<path d="M290.372 216.503H290.202C290.082 216.503 290.052 216.503 290.042 216.343C290.042 215.803 289.952 215.263 289.902 214.723C289.812 213.623 289.712 212.523 289.622 211.423L289.562 210.613C289.562 210.523 289.562 210.463 289.682 210.473C289.692 210.476 289.702 210.477 289.712 210.475C289.723 210.473 289.732 210.47 289.741 210.464C289.75 210.458 289.757 210.451 289.762 210.442C289.768 210.433 289.771 210.423 289.772 210.413C289.772 210.353 289.712 210.353 289.662 210.353H289.342C289.272 210.353 289.242 210.353 289.242 210.253V209.203C289.248 209.141 289.276 209.084 289.322 209.043C289.343 209.024 289.36 209.001 289.372 208.975C289.384 208.949 289.39 208.921 289.39 208.893C289.39 208.864 289.384 208.836 289.372 208.81C289.36 208.785 289.343 208.761 289.322 208.743C289.284 208.711 289.236 208.694 289.187 208.694C289.138 208.694 289.09 208.711 289.052 208.743C289.031 208.761 289.014 208.785 289.002 208.81C288.99 208.836 288.984 208.864 288.984 208.893C288.984 208.921 288.99 208.949 289.002 208.975C289.014 209.001 289.031 209.024 289.052 209.043C289.081 209.071 289.103 209.106 289.117 209.144C289.131 209.182 289.136 209.222 289.132 209.263C289.132 209.573 289.132 209.893 289.132 210.213C289.132 210.353 289.072 210.373 288.952 210.373H288.662C288.612 210.373 288.582 210.373 288.582 210.443C288.582 210.513 288.582 210.493 288.652 210.493H288.832C288.847 210.632 288.847 210.773 288.832 210.913C288.742 212.293 288.642 213.673 288.552 215.053C288.552 215.483 288.482 215.923 288.462 216.363C288.462 216.493 288.402 216.523 288.282 216.523H287.672C287.502 216.523 287.502 216.523 287.502 216.703C287.492 216.856 287.492 217.01 287.502 217.163C287.502 217.283 287.502 217.323 287.342 217.313H286.072C286.002 217.313 285.972 217.313 285.972 217.423C285.977 217.479 285.977 217.536 285.972 217.593V221.903C285.972 221.983 285.972 222.003 285.872 222.003H282.552C282.462 222.003 282.422 222.003 282.422 221.883V198.433C282.422 198.033 282.482 198.133 282.112 198.023C281.742 197.913 281.112 197.743 280.652 197.613C280.522 197.613 280.492 197.523 280.492 197.393V195.883C280.492 195.663 280.492 195.663 280.292 195.593L277.482 194.593C277.222 194.503 277.252 194.543 277.252 194.273C277.252 193.333 277.252 192.403 277.252 191.463C277.258 191.396 277.242 191.33 277.208 191.272C277.174 191.215 277.123 191.17 277.062 191.143C276.012 190.523 274.962 189.903 273.922 189.273C273.865 189.235 273.8 189.212 273.733 189.203C273.665 189.194 273.596 189.201 273.532 189.223L272.172 189.583C271.982 189.633 271.982 189.633 271.982 189.823V192.823C271.982 193.103 271.982 193.063 271.752 193.133L270.752 193.383C270.562 193.383 270.562 193.383 270.562 193.623V194.843C270.562 195.063 270.562 195.063 270.342 195.113L269.542 195.293C269.362 195.293 269.362 195.293 269.362 195.533V196.923C269.362 197.173 269.362 197.133 269.142 197.193L268.312 197.383C268.212 197.383 268.152 197.383 268.162 197.553C268.167 197.609 268.167 197.666 268.162 197.723V207.153C268.157 207.226 268.157 207.299 268.162 207.373C268.162 207.463 268.162 207.493 268.042 207.483C267.922 207.473 267.942 207.433 267.942 207.373V206.493C267.942 206.403 267.942 206.363 267.812 206.363H267.672C265.482 206.363 263.302 206.363 261.112 206.363C260.812 206.363 260.842 206.313 260.842 206.633V207.583C260.842 207.773 260.842 207.773 260.652 207.773H259.652C259.533 207.773 259.416 207.804 259.312 207.863L258.162 208.503C258.145 208.52 258.125 208.533 258.102 208.542C258.08 208.55 258.056 208.554 258.032 208.553C258.032 208.633 257.922 208.643 257.862 208.673C257.636 208.819 257.403 208.953 257.162 209.073C257.076 209.106 257.004 209.168 256.958 209.248C256.913 209.328 256.896 209.422 256.912 209.513V219.303C256.917 219.326 256.917 219.35 256.912 219.373V227.373H293.542V216.503H290.372Z" fill="#4A4C4C"/>
<path d="M1440 226.719H0V248.719H1440V226.719Z" fill="#040707"/>
<path d="M374.281 226.895H452.281V226.315H450.071C450.071 226.315 449.981 226.225 449.951 226.185L449.841 226.055L449.581 225.775H448.901C448.711 225.786 448.521 225.786 448.331 225.775L448.061 225.725C447.991 225.725 447.941 225.635 447.881 225.625C447.842 225.615 447.801 225.615 447.761 225.625C447.573 225.648 447.386 225.682 447.201 225.725C446.969 225.791 446.723 225.791 446.491 225.725L446.161 225.585C446.006 225.53 445.845 225.489 445.681 225.465C445.521 225.465 445.491 225.465 445.251 225.465H444.641C444.389 225.45 444.138 225.413 443.891 225.355C443.6 225.31 443.303 225.31 443.011 225.355H442.841C442.419 225.396 441.994 225.396 441.571 225.355C441.211 225.355 440.881 225.265 440.571 225.235C440.193 225.196 439.812 225.175 439.431 225.175C439.097 225.162 438.762 225.179 438.431 225.225C438.1 225.27 437.765 225.287 437.431 225.275C437.171 225.275 436.911 225.275 436.651 225.275C436.391 225.275 436.171 225.275 435.931 225.275H435.881H435.821C435.638 225.204 435.447 225.157 435.251 225.135C435.018 225.085 434.78 225.065 434.541 225.075L433.961 225.125H433.531H433.011C432.678 225.107 432.344 225.107 432.011 225.125L431.421 225.195C431.071 225.195 430.711 225.245 430.361 225.265H430.031C429.915 225.275 429.798 225.275 429.681 225.265H429.501C429.227 225.219 428.95 225.192 428.671 225.185C428.111 225.185 427.571 225.255 427.021 225.285C426.876 225.301 426.732 225.327 426.591 225.365L426.121 225.475C425.909 225.512 425.699 225.558 425.491 225.615C425.271 225.665 425.131 225.775 424.891 225.815C424.58 225.865 424.266 225.899 423.951 225.915L422.951 226.015C422.835 226.025 422.718 226.025 422.601 226.015H422.371H422.291H422.171C422.039 225.99 421.903 225.99 421.771 226.015C421.771 226.015 421.701 226.015 421.661 226.015C421.618 226.025 421.574 226.025 421.531 226.015C421.448 225.983 421.355 225.983 421.271 226.015C421.158 226.027 421.044 226.027 420.931 226.015C420.888 226.021 420.844 226.021 420.801 226.015C420.736 226 420.667 226 420.601 226.015C420.528 226.02 420.455 226.02 420.381 226.015H420.161H419.941C419.841 226.015 419.721 226.015 419.631 226.015C419.572 226.026 419.511 226.026 419.451 226.015H419.211C418.961 226.015 418.721 226.085 418.481 226.115C418.129 226.155 417.773 226.155 417.421 226.115H417.311C417.216 226.116 417.121 226.133 417.031 226.165C416.905 226.155 416.778 226.155 416.651 226.165H416.451C416.378 226.175 416.304 226.175 416.231 226.165H415.981L415.421 226.225H415.361C415.312 226.233 415.261 226.233 415.211 226.225C415.141 226.197 415.067 226.18 414.991 226.175H414.671L414.341 226.105C414.226 226.081 414.107 226.081 413.991 226.105H413.911C413.869 226.116 413.824 226.116 413.781 226.105C413.593 226.05 413.397 226.026 413.201 226.035H413.111H413.031L412.611 225.905H412.541H412.461C412.325 225.916 412.188 225.916 412.051 225.905C411.922 225.889 411.791 225.889 411.661 225.905L411.521 225.835H411.471H411.091H411.041C410.912 225.858 410.78 225.858 410.651 225.835H410.161C410.161 225.835 410.161 225.835 410.111 225.835C410.036 225.854 409.957 225.854 409.881 225.835C409.798 225.851 409.719 225.885 409.651 225.935H409.601H409.391H409.341C409.341 225.935 409.341 225.985 409.341 225.995H408.951H408.881L408.751 225.935C408.739 225.93 408.725 225.927 408.711 225.927C408.698 225.927 408.684 225.93 408.671 225.935H408.581C408.425 225.945 408.268 225.945 408.111 225.935C408.027 225.921 407.949 225.879 407.891 225.815H407.821L407.171 225.745L407.021 225.815H406.761L406.171 225.865C406.164 225.887 406.152 225.908 406.137 225.925C406.121 225.942 406.102 225.956 406.081 225.965H406.001L405.721 226.045C405.662 226.074 405.605 226.108 405.551 226.145L405.181 226.045C405.049 226.024 404.914 226.024 404.781 226.045C404.638 226.061 404.494 226.061 404.351 226.045C404.259 226.019 404.166 225.999 404.071 225.985H403.331C403.181 225.985 402.951 225.985 402.861 225.935C402.771 225.885 402.811 225.875 402.761 225.845C402.661 225.788 402.547 225.757 402.431 225.755H402.031H401.831C401.768 225.737 401.707 225.71 401.651 225.675L401.411 225.525H401.361H401.271C401.131 225.525 400.991 225.525 400.861 225.525C400.763 225.516 400.665 225.496 400.571 225.465C400.388 225.404 400.201 225.354 400.011 225.315C399.851 225.315 399.681 225.315 399.511 225.315H399.421H399.341L398.821 225.125H398.681H398.111C397.777 225.128 397.443 225.108 397.111 225.065C396.818 225.045 396.524 225.045 396.231 225.065H396.051H395.941L395.651 224.955L395.441 224.885C395.318 224.876 395.194 224.876 395.071 224.885H393.381C393.291 224.888 393.203 224.908 393.121 224.945C393.053 224.984 392.978 225.011 392.901 225.025C392.69 225.025 392.48 225.008 392.271 224.975C392.071 224.975 391.901 224.885 391.721 224.855H391.611H391.481L390.661 224.965C390.671 225.005 390.671 225.046 390.661 225.085H390.041L389.601 225.205C389.498 225.217 389.394 225.217 389.291 225.205H388.991H388.731C388.672 225.213 388.615 225.23 388.561 225.255C388.561 225.255 388.561 225.325 388.441 225.335H388.361H387.881H387.681L387.351 225.385L387.091 225.435H386.781H386.081C386.038 225.37 385.991 225.306 385.941 225.245C385.941 225.185 385.791 225.165 385.681 225.145L385.391 225.065H385.241H385.131H384.641C384.499 225.045 384.354 225.045 384.211 225.065C384.162 225.081 384.118 225.109 384.081 225.145L383.981 225.225H383.251H383.091C382.901 225.225 382.721 225.285 382.531 225.295C382.341 225.305 382.121 225.295 381.921 225.295H381.831H381.741L381.201 225.125H381.101H380.101C379.961 225.185 379.831 225.255 379.821 225.345C379.699 225.325 379.574 225.325 379.451 225.345C379.331 225.345 379.231 225.415 379.111 225.435H378.901C378.831 225.435 378.801 225.525 378.671 225.515H378.481C378.445 225.51 378.408 225.51 378.371 225.515L378.151 225.595C377.907 225.629 377.668 225.697 377.441 225.795C377.401 225.801 377.361 225.801 377.321 225.795C377.255 225.8 377.188 225.8 377.121 225.795H377.031H376.981C376.819 225.855 376.651 225.902 376.481 225.935H376.121C376.048 225.943 375.977 225.964 375.911 225.995L375.531 226.095C375.445 226.091 375.358 226.091 375.271 226.095C375.254 226.097 375.238 226.103 375.225 226.113C375.211 226.123 375.201 226.136 375.195 226.152C375.188 226.167 375.187 226.184 375.19 226.201C375.192 226.218 375.2 226.233 375.211 226.245H374.811C374.712 226.254 374.617 226.285 374.531 226.335L374.281 226.895Z" fill="#040707"/>
<path d="M449.68 226.894H527.68V226.314H525.48C525.48 226.314 525.4 226.224 525.37 226.184C525.328 226.145 525.291 226.102 525.26 226.054L525 225.774C524.992 225.77 524.983 225.768 524.975 225.768C524.966 225.768 524.957 225.77 524.95 225.774H524.27C524.08 225.784 523.89 225.784 523.7 225.774L523.43 225.724C523.36 225.724 523.32 225.634 523.25 225.624C523.21 225.614 523.169 225.614 523.13 225.624C522.941 225.647 522.754 225.68 522.57 225.724C522.341 225.789 522.098 225.789 521.87 225.724L521.54 225.584C521.38 225.53 521.216 225.49 521.05 225.464C520.9 225.464 520.86 225.464 520.62 225.464H520.02C519.764 225.448 519.51 225.411 519.26 225.354C518.968 225.309 518.671 225.309 518.38 225.354H518.21C517.791 225.394 517.369 225.394 516.95 225.354C516.59 225.354 516.26 225.264 515.95 225.234C515.574 225.194 515.197 225.174 514.82 225.174C514.486 225.161 514.151 225.178 513.82 225.224C513.488 225.268 513.154 225.285 512.82 225.274C512.57 225.274 512.31 225.274 512.05 225.274C511.79 225.274 511.56 225.274 511.32 225.274H511.27H511.22C511.033 225.202 510.838 225.155 510.64 225.134C510.407 225.083 510.168 225.063 509.93 225.074L509.36 225.124H508.92H508.4C508.067 225.105 507.733 225.105 507.4 225.124L506.8 225.194C506.46 225.194 506.1 225.244 505.74 225.264H505.42C505.3 225.274 505.179 225.274 505.06 225.264H504.88C504.605 225.216 504.328 225.189 504.05 225.184C503.49 225.184 502.95 225.254 502.4 225.284C502.258 225.299 502.117 225.326 501.98 225.364L501.5 225.474C501.287 225.51 501.077 225.557 500.87 225.614C500.66 225.664 500.51 225.774 500.28 225.814C500.05 225.854 499.64 225.884 499.34 225.914L498.34 226.014C498.22 226.024 498.099 226.024 497.98 226.014H497.76H497.68H497.56C497.428 225.989 497.292 225.989 497.16 226.014C497.16 226.014 497.09 226.014 497.05 226.014C497.007 226.023 496.963 226.023 496.92 226.014C496.836 225.982 496.743 225.982 496.66 226.014C496.543 226.024 496.426 226.024 496.31 226.014C496.27 226.02 496.229 226.02 496.19 226.014C496.124 225.998 496.055 225.998 495.99 226.014C495.913 226.019 495.836 226.019 495.76 226.014H495.54H495.32C495.22 226.014 495.11 226.014 495.02 226.014C494.96 226.024 494.899 226.024 494.84 226.014H494.61C494.35 226.014 494.12 226.084 493.87 226.114C493.521 226.154 493.169 226.154 492.82 226.114H492.7C492.604 226.115 492.51 226.132 492.42 226.164C492.297 226.153 492.173 226.153 492.05 226.164H491.84C491.77 226.174 491.699 226.174 491.63 226.164C491.543 226.158 491.456 226.158 491.37 226.164L490.48 226.374C490.41 226.374 490.37 226.374 490.32 226.374C490.249 226.346 490.175 226.329 490.1 226.324H489.79L489.46 226.254C489.341 226.229 489.218 226.229 489.1 226.254H489.02C488.977 226.264 488.932 226.264 488.89 226.254C488.705 226.199 488.512 226.175 488.32 226.184H488.22H488.14L487.73 226.054H487.65H487.58C487.44 226.064 487.299 226.064 487.16 226.054C487.03 226.038 486.899 226.038 486.77 226.054L486.63 225.984H486.25H486.19C486.064 226.006 485.935 226.006 485.81 225.984H485.32C485.244 226.001 485.165 226.001 485.09 225.984C485.006 225.999 484.928 226.033 484.86 226.084H484.8H484.59C484.59 226.084 484.59 226.134 484.59 226.144H484.21H484.13L484.01 226.084C483.984 226.075 483.956 226.075 483.93 226.084H483.84C483.683 226.094 483.526 226.094 483.37 226.084C483.282 226.069 483.202 226.027 483.14 225.964H483.07L482.42 225.894L482.27 225.964H482.01L481.43 226.014C481.41 226.059 481.375 226.095 481.33 226.114H481.25L480.98 226.194C480.917 226.223 480.857 226.256 480.8 226.294L480.44 226.194C480.307 226.173 480.172 226.173 480.04 226.194C479.897 226.209 479.753 226.209 479.61 226.194C479.517 226.169 479.424 226.149 479.33 226.134H478.58C478.43 226.134 478.21 226.134 478.12 226.084C478.03 226.034 478.06 226.024 478.02 225.994C477.915 225.937 477.799 225.906 477.68 225.904H477.28H477.09C477.026 225.887 476.965 225.86 476.91 225.824L476.67 225.674H476.61H476.52C476.39 225.674 476.25 225.674 476.12 225.674C476.018 225.665 475.917 225.645 475.82 225.614C475.637 225.55 475.45 225.499 475.26 225.464C475.1 225.464 474.93 225.464 474.77 225.464H474.68H474.6L474.07 225.274H473.94H473.36C473.025 225.276 472.691 225.256 472.36 225.214C472.067 225.194 471.773 225.194 471.48 225.214H471.3H471.2L470.9 225.104L470.69 225.034C470.567 225.023 470.443 225.023 470.32 225.034H469.05C468.956 225.035 468.865 225.055 468.78 225.094C468.711 225.132 468.637 225.159 468.56 225.174C468.349 225.173 468.138 225.156 467.93 225.124C467.74 225.124 467.57 225.034 467.38 225.004H467.27H467.16L466.34 225.114C466.35 225.153 466.35 225.195 466.34 225.234H465.73L465.28 225.354C465.18 225.365 465.079 225.365 464.98 225.354H464.68H464.42L464.24 225.404C464.24 225.404 464.19 225.474 464.13 225.484H464.04H463.57H463.36L463.04 225.534L462.77 225.584H462.47H461.76C461.72 225.518 461.676 225.455 461.63 225.394C461.63 225.334 461.48 225.314 461.37 225.294L461.08 225.214H460.93H460.82H460.32C460.177 225.193 460.032 225.193 459.89 225.214C459.842 225.232 459.798 225.259 459.76 225.294L459.66 225.374H458.48H458.31C458.12 225.374 457.94 225.434 457.75 225.444C457.56 225.454 457.35 225.444 457.14 225.444H457.05H456.97L456.48 225.374H456.38H455.38C455.24 225.434 455.11 225.504 455.11 225.594C454.984 225.574 454.856 225.574 454.73 225.594L454.4 225.684H454.19C454.12 225.684 454.08 225.774 453.96 225.764H453.89C453.85 225.757 453.809 225.757 453.77 225.764L453.55 225.844C453.305 225.879 453.067 225.946 452.84 226.044C452.8 226.051 452.759 226.051 452.72 226.044C452.653 226.049 452.586 226.049 452.52 226.044H452.48H452.42C452.261 226.105 452.097 226.152 451.93 226.184H451.48C451.407 226.193 451.336 226.213 451.27 226.244L450.9 226.344C450.81 226.338 450.72 226.338 450.63 226.344C450.614 226.347 450.599 226.354 450.587 226.364C450.574 226.375 450.565 226.389 450.56 226.404C450.555 226.419 450.554 226.436 450.558 226.452C450.561 226.467 450.569 226.482 450.58 226.494H450.18C450.078 226.503 449.979 226.533 449.89 226.584L449.68 226.894Z" fill="#040707"/>
<path d="M527.66 226.894H605.66V226.314H603.45C603.45 226.314 603.36 226.224 603.33 226.184L603.22 226.054L602.96 225.774H602.28C602.087 225.784 601.893 225.784 601.7 225.774L601.43 225.724C601.36 225.724 601.32 225.634 601.25 225.624C601.214 225.614 601.176 225.614 601.14 225.624C600.952 225.646 600.765 225.679 600.58 225.724C600.348 225.79 600.102 225.79 599.87 225.724L599.54 225.584C599.384 225.529 599.223 225.489 599.06 225.464C598.9 225.464 598.87 225.464 598.63 225.464H598.02C597.768 225.448 597.517 225.412 597.27 225.354C596.975 225.31 596.675 225.31 596.38 225.354H596.22C595.798 225.394 595.373 225.394 594.95 225.354C594.59 225.354 594.26 225.264 593.95 225.234C593.575 225.194 593.198 225.174 592.82 225.174C592.486 225.161 592.151 225.178 591.82 225.224C591.489 225.269 591.154 225.286 590.82 225.274C590.56 225.274 590.3 225.274 590.04 225.274C589.78 225.274 589.55 225.274 589.32 225.274H589.26H589.21C589.027 225.203 588.835 225.156 588.64 225.134C588.407 225.084 588.168 225.064 587.93 225.074L587.35 225.124H586.92H586.4C586.067 225.105 585.733 225.105 585.4 225.124L584.81 225.194C584.46 225.194 584.1 225.244 583.74 225.264H583.42C583.304 225.274 583.187 225.274 583.07 225.264H582.89C582.616 225.217 582.338 225.19 582.06 225.184C581.5 225.184 580.95 225.254 580.4 225.284C580.258 225.299 580.118 225.326 579.98 225.364L579.51 225.474C579.298 225.509 579.087 225.556 578.88 225.614C578.66 225.664 578.51 225.774 578.28 225.814C577.969 225.864 577.655 225.897 577.34 225.914L576.34 226.014C576.224 226.024 576.107 226.024 575.99 226.014H575.48H575.4H575.28C575.148 225.989 575.012 225.989 574.88 226.014C574.88 226.014 574.81 226.014 574.77 226.014C574.727 226.024 574.683 226.024 574.64 226.014C574.556 225.982 574.464 225.982 574.38 226.014C574.264 226.025 574.147 226.025 574.03 226.014C573.99 226.02 573.95 226.02 573.91 226.014C573.844 225.998 573.776 225.998 573.71 226.014C573.634 226.019 573.557 226.019 573.48 226.014H573.27H573.05C572.94 226.014 572.83 226.014 572.74 226.014C572.681 226.024 572.62 226.024 572.56 226.014H572.33C572.07 226.014 571.84 226.084 571.59 226.114C571.258 226.15 570.922 226.15 570.59 226.114H570.48C570.381 226.114 570.283 226.131 570.19 226.164C570.067 226.154 569.943 226.154 569.82 226.164H569.61C569.541 226.174 569.47 226.174 569.4 226.164C569.317 226.158 569.233 226.158 569.15 226.164L568.48 226.374C568.41 226.374 568.37 226.374 568.33 226.374C568.256 226.347 568.179 226.33 568.1 226.324H567.79L567.46 226.254C567.345 226.229 567.226 226.229 567.11 226.254H567.03C566.987 226.264 566.943 226.264 566.9 226.254C566.712 226.198 566.516 226.174 566.32 226.184H566.22H566.14L565.73 226.054H565.66H565.58C565.444 226.064 565.307 226.064 565.17 226.054C565.041 226.038 564.91 226.038 564.78 226.054L564.64 225.984H564.59H564.21C564.081 226.006 563.949 226.006 563.82 225.984H563.33C563.255 226.002 563.176 226.002 563.1 225.984C563.017 225.999 562.938 226.033 562.87 226.084H562.81H562.61H562.56C562.56 226.084 562.56 226.134 562.56 226.144H562.18H562.1L561.98 226.084C561.954 226.074 561.926 226.074 561.9 226.084H561.81C561.654 226.094 561.497 226.094 561.34 226.084C561.255 226.072 561.176 226.03 561.12 225.964H561.06L560.41 225.894L560.25 225.964H560L559.41 226.014C559.392 226.056 559.36 226.091 559.32 226.114H559.24L558.96 226.194C558.901 226.223 558.844 226.256 558.79 226.294L558.43 226.194C558.298 226.173 558.163 226.173 558.03 226.194C557.887 226.209 557.743 226.209 557.6 226.194C557.508 226.169 557.414 226.149 557.32 226.134H556.58C556.42 226.134 556.2 226.134 556.11 226.084L556.01 225.994C555.909 225.938 555.796 225.907 555.68 225.904H555.28H555.08C555.016 225.887 554.955 225.86 554.9 225.824L554.66 225.674H554.6H554.52C554.38 225.674 554.24 225.674 554.11 225.674C554.011 225.667 553.914 225.646 553.82 225.614C553.637 225.552 553.45 225.502 553.26 225.464C553.1 225.464 552.93 225.464 552.76 225.464H552.67H552.59L552.06 225.274H551.93H551.35C551.033 225.274 550.715 225.254 550.4 225.214C550.107 225.194 549.813 225.194 549.52 225.214H549.33H549.23L548.94 225.104L548.73 225.034C548.604 225.024 548.477 225.024 548.35 225.034H547.08C546.987 225.037 546.896 225.058 546.81 225.094C546.743 225.136 546.668 225.163 546.59 225.174C546.379 225.173 546.169 225.156 545.96 225.124C545.77 225.124 545.6 225.034 545.41 225.004H545.31H545.19L544.37 225.114C544.375 225.154 544.375 225.194 544.37 225.234H543.75L543.31 225.354C543.207 225.365 543.103 225.365 543 225.354H542.7H542.44C542.381 225.36 542.323 225.377 542.27 225.404C542.27 225.404 542.27 225.474 542.15 225.484H542.07H541.59H541.39L541.06 225.534L540.79 225.584H540.49H539.79C539.75 225.518 539.707 225.455 539.66 225.394C539.66 225.334 539.51 225.314 539.4 225.294L539.11 225.214H538.96H538.85H538.36C538.218 225.193 538.073 225.193 537.93 225.214C537.881 225.23 537.836 225.257 537.8 225.294L537.69 225.374H536.48H536.31C536.13 225.374 535.95 225.434 535.76 225.444C535.57 225.454 535.35 225.444 535.15 225.444H535.06H534.97L534.42 225.274H534.33H533.33C533.19 225.334 533.05 225.404 533.05 225.494C532.928 225.473 532.803 225.473 532.68 225.494C532.56 225.494 532.46 225.564 532.34 225.584H532.13C532.06 225.584 532.02 225.674 531.9 225.664H531.83C531.794 225.657 531.756 225.657 531.72 225.664L531.5 225.744C531.253 225.779 531.011 225.846 530.78 225.944C530.744 225.951 530.706 225.951 530.67 225.944C530.6 225.949 530.53 225.949 530.46 225.944H530.38H530.32C530.161 226.005 529.997 226.052 529.83 226.084H529.48C529.407 226.092 529.336 226.112 529.27 226.144L528.89 226.244C528.804 226.239 528.717 226.239 528.63 226.244C528.613 226.245 528.597 226.251 528.584 226.261C528.57 226.271 528.56 226.285 528.553 226.3C528.547 226.316 528.545 226.333 528.548 226.349C528.551 226.366 528.559 226.381 528.57 226.394H528.17C528.068 226.404 527.97 226.435 527.88 226.484L527.66 226.894Z" fill="#040707"/>
<path d="M314.132 228.066C313.892 228.066 313.132 227.266 312.982 227.146C310.506 225.109 307.689 223.524 304.662 222.466C302.297 221.692 299.804 221.383 297.322 221.556C294.965 221.889 292.628 222.353 290.322 222.946C286.933 223.612 283.424 223.264 280.232 221.946C276.792 220.636 273.682 219.006 270.232 217.736C267.117 216.516 263.785 215.948 260.442 216.066C257.359 216.343 254.358 217.208 251.602 218.616C248.982 219.866 246.552 221.296 243.722 222.336C241.374 223.228 238.883 223.682 236.372 223.676C233.642 223.676 231.202 222.786 228.552 222.486C226.254 222.249 223.933 222.593 221.802 223.486C220.082 224.176 218.682 225.226 216.922 225.866C215.922 226.226 213.922 226.406 213.922 227.346V228.066H314.132Z" fill="#040707"/>
<path d="M444.653 228.065C444.313 228.065 443.213 226.905 442.983 226.725C439.374 223.739 435.259 221.426 430.833 219.895C427.381 218.753 423.739 218.301 420.113 218.565C416.583 218.855 413.343 219.925 409.933 220.565C404.994 221.541 399.879 221.054 395.213 219.165C390.213 217.245 385.633 214.865 380.563 213.005C376.013 211.222 371.146 210.395 366.263 210.575C361.754 210.993 357.369 212.284 353.353 214.375C349.523 216.195 345.983 218.275 341.843 219.805C338.419 221.125 334.782 221.803 331.113 221.805C327.113 221.725 323.573 220.505 319.693 220.065C316.345 219.705 312.96 220.183 309.843 221.455C307.333 222.455 305.283 224.015 302.713 224.935C301.263 225.455 298.383 225.735 298.383 227.105V228.155L444.653 228.065Z" fill="#040707"/>
<path d="M861.789 228.166C861.539 228.166 860.729 227.306 860.559 227.166C857.904 224.98 854.88 223.286 851.629 222.166C849.089 221.322 846.409 220.982 843.739 221.166C841.216 221.524 838.716 222.021 836.249 222.656C832.622 223.392 828.859 223.044 825.429 221.656C821.729 220.256 818.429 218.496 814.649 217.136C811.458 215.782 808.004 215.164 804.542 215.326C801.079 215.489 797.698 216.429 794.649 218.076C791.839 219.416 789.229 220.956 786.189 222.076C783.669 223.033 780.995 223.521 778.299 223.516C775.359 223.456 772.749 222.516 769.899 222.236C767.44 221.958 764.95 222.302 762.659 223.236C760.809 223.976 759.299 225.106 757.409 225.786C756.339 226.176 754.219 226.376 754.219 227.386V228.156L861.789 228.166Z" fill="#040707"/>
<path d="M573.27 228.165C573.01 228.165 572.2 227.305 572.03 227.165C569.377 224.977 566.352 223.283 563.1 222.165C560.563 221.321 557.886 220.981 555.22 221.165C552.697 221.522 550.197 222.019 547.73 222.655C544.1 223.392 540.333 223.044 536.9 221.655C533.2 220.255 529.9 218.495 526.12 217.135C522.93 215.779 519.475 215.16 516.012 215.322C512.55 215.485 509.169 216.426 506.12 218.075C503.3 219.415 500.69 220.955 497.65 222.075C495.129 223.032 492.455 223.52 489.76 223.515C486.83 223.455 484.21 222.515 481.36 222.235C478.901 221.958 476.411 222.302 474.12 223.235C472.27 223.975 470.76 225.105 468.87 225.785C467.81 226.175 465.68 226.375 465.68 227.385V228.155L573.27 228.165Z" fill="#040707"/>
<path d="M1185.48 195.286C1185.48 197.091 1185.11 198.876 1184.38 200.527C1183.65 202.177 1182.58 203.655 1181.24 204.866L1181.12 204.736L1164.48 185.156C1166.39 183.662 1168.69 182.734 1171.1 182.476C1173.51 182.218 1175.95 182.64 1178.13 183.696C1180.32 184.751 1182.17 186.397 1183.46 188.447C1184.76 190.497 1185.46 192.869 1185.48 195.296V195.286Z" fill="#FFAE00"/>
<path d="M1048.62 226.975H1081.67L1092.63 175.285L1048.62 226.975Z" fill="#040707"/>
<path d="M1113.53 197.562L1094.17 174.832L1083.11 226.973H1088.49H1132.95L1133.86 221.443L1143.55 162.312L1113.53 197.562Z" fill="#040707"/>
<path d="M1145.03 161.977L1135.06 222.857L1134.38 226.977H1200.39L1145.03 161.977Z" fill="#040707"/>
</svg>
