<svg width="41" height="40" viewBox="0 0 41 40" fill="none" xmlns="http://www.w3.org/2000/svg">
<circle cx="20.5" cy="20" r="20" fill="url(#paint0_linear_200_31551)"/>
<circle cx="20.5" cy="20" r="20" fill="url(#paint1_linear_200_31551)"/>
<circle cx="20.5" cy="20" r="19.5833" stroke="white" stroke-opacity="0.5" stroke-width="0.833333"/>
<path d="M18.3197 25.7292C18.3197 26.337 18.0782 26.9198 17.6484 27.3496C17.2187 27.7794 16.6358 28.0208 16.028 28.0208C15.4202 28.0208 14.8373 27.7794 14.4075 27.3496C13.9778 26.9198 13.7363 26.337 13.7363 25.7292C13.7363 25.1214 13.9778 24.5385 14.4075 24.1087C14.8373 23.6789 15.4202 23.4375 16.028 23.4375C16.6358 23.4375 17.2187 23.6789 17.6484 24.1087C18.0782 24.5385 18.3197 25.1214 18.3197 25.7292ZM29.778 25.7292C29.778 26.337 29.5365 26.9198 29.1068 27.3496C28.677 27.7794 28.0941 28.0208 27.4863 28.0208C26.8785 28.0208 26.2956 27.7794 25.8659 27.3496C25.4361 26.9198 25.1947 26.337 25.1947 25.7292C25.1947 25.1214 25.4361 24.5385 25.8659 24.1087C26.2956 23.6789 26.8785 23.4375 27.4863 23.4375C28.0941 23.4375 28.677 23.6789 29.1068 24.1087C29.5365 24.5385 29.778 25.1214 29.778 25.7292Z" stroke="white" stroke-width="1.71875" stroke-linecap="round" stroke-linejoin="round"/>
<path d="M10.3 17.7096H28.6333M10.3 17.7096C10.3 18.6034 10.2771 21.193 10.3046 23.7367C10.3458 24.5617 10.4833 25.2492 13.7398 25.7305M10.3 17.7096C10.5475 15.7159 11.6234 13.3555 12.1734 12.4617M18.3208 17.7096V11.9805M25.1843 25.7305H18.3151M10.3172 11.9805H22.0253C22.0253 11.9805 22.644 11.9805 23.194 12.0355C24.2241 12.1317 25.0892 12.5992 25.9555 13.768C26.8722 15.0055 27.5757 16.573 28.5107 17.4117C30.0633 18.8051 33.0173 18.3742 33.1823 21.3305C33.2235 22.843 33.2235 24.493 33.1548 24.768C33.0436 25.5781 32.4191 25.7098 31.6423 25.7305C30.9685 25.7488 30.1561 25.6984 29.7608 25.7305" stroke="white" stroke-width="1.71875" stroke-linecap="round" stroke-linejoin="round"/>
<defs>
<linearGradient id="paint0_linear_200_31551" x1="40.5" y1="0" x2="0.5" y2="40" gradientUnits="userSpaceOnUse">
<stop stop-color="#FFAE00"/>
<stop offset="1" stop-color="#F87E00"/>
</linearGradient>
<linearGradient id="paint1_linear_200_31551" x1="20.5" y1="0" x2="20.5" y2="40" gradientUnits="userSpaceOnUse">
<stop stop-color="#F87E00"/>
<stop offset="0.6" stop-color="#FFAE00"/>
</linearGradient>
</defs>
</svg>
