<svg width="40" height="33" viewBox="0 0 40 33" fill="none" xmlns="http://www.w3.org/2000/svg">
<path d="M17.6615 1.26171C17.9369 1.42997 18.1342 1.70074 18.21 2.01445C18.2858 2.32816 18.2338 2.65913 18.0656 2.93453C17.9415 3.13671 17.8893 3.37478 17.9173 3.6103C17.9452 3.84583 18.0518 4.06504 18.2197 4.23256L18.3787 4.38994C19.3327 5.34561 19.6848 6.7491 19.2954 8.04063C19.1989 8.3456 18.9862 8.60032 18.7034 8.74966C18.4205 8.899 18.0902 8.93096 17.7839 8.83861C17.4777 8.74626 17.2201 8.53704 17.0669 8.25622C16.9137 7.9754 16.8773 7.64556 16.9655 7.33807C17.0296 7.12483 17.0349 6.89819 16.9806 6.68222C16.9263 6.46626 16.8146 6.26901 16.6572 6.11144L16.4998 5.95244C15.9461 5.39877 15.5948 4.67491 15.5024 3.89735C15.4099 3.11979 15.5818 2.33375 15.9903 1.66572C16.0735 1.52922 16.1828 1.41045 16.3119 1.31618C16.441 1.22192 16.5874 1.15402 16.7427 1.11635C16.8981 1.07868 17.0593 1.07199 17.2172 1.09665C17.3752 1.12131 17.5267 1.17685 17.6632 1.26009M29.837 5.45107C30.1532 5.51486 30.4312 5.7016 30.6098 5.97026C30.7884 6.23891 30.853 6.56749 30.7894 6.88377L30.5558 8.05199C30.2345 9.65829 29.076 10.9725 27.5216 11.4901C26.7948 11.7335 26.2528 12.3452 26.1036 13.0964L25.8699 14.2646C25.8386 14.4214 25.7767 14.5704 25.6878 14.7032C25.5989 14.836 25.4847 14.95 25.3517 15.0386C25.2188 15.1273 25.0696 15.1889 24.9129 15.2199C24.7561 15.251 24.5947 15.2508 24.438 15.2195C24.2813 15.1882 24.1323 15.1263 23.9995 15.0374C23.8667 14.9485 23.7527 14.8343 23.664 14.7013C23.5754 14.5684 23.5138 14.4192 23.4827 14.2625C23.4517 14.1057 23.4518 13.9443 23.4832 13.7876L23.7168 12.6194C24.0381 11.0115 25.1966 9.69885 26.7509 9.17964C27.4778 8.93951 28.0198 8.32619 28.1707 7.57334L28.4027 6.40512C28.4341 6.24839 28.496 6.09938 28.585 5.96661C28.674 5.83383 28.7883 5.71989 28.9214 5.6313C29.0544 5.5427 29.2036 5.48118 29.3604 5.45026C29.5173 5.41934 29.6786 5.41961 29.8354 5.45107M35.8712 19.7926C35.5838 19.6662 35.2662 19.625 34.9562 19.6739C34.6461 19.7228 34.3566 19.8598 34.1221 20.0684C33.4819 20.6367 32.679 20.9888 31.8273 21.0747C30.9757 21.1606 30.1186 20.976 29.3778 20.5471L29.0322 20.3491C28.8937 20.2692 28.7723 20.1628 28.6749 20.036C28.5776 19.9092 28.5061 19.7644 28.4647 19.61C28.4232 19.4556 28.4126 19.2945 28.4335 19.1359C28.4543 18.9774 28.5061 18.8245 28.586 18.686C28.6659 18.5475 28.7723 18.4261 28.8991 18.3288C29.026 18.2314 29.1707 18.1599 29.3252 18.1185C29.4796 18.0771 29.6407 18.0665 29.7992 18.0873C29.9577 18.1081 30.1106 18.1599 30.2491 18.2398L30.5947 18.4394C31.208 18.7931 31.9771 18.7152 32.5077 18.2463C33.0896 17.7298 33.8074 17.3908 34.576 17.2694C35.3446 17.1481 36.1319 17.2495 36.8447 17.5616L37.3185 17.7677C37.6143 17.897 37.8467 18.1385 37.9644 18.4392C38.0822 18.7398 38.0757 19.0749 37.9464 19.3707C37.8171 19.6666 37.5755 19.8989 37.2749 20.0167C36.9743 20.1345 36.6392 20.128 36.3433 19.9987L35.8712 19.7926ZM12.3753 4.18388C12.4563 4.10313 12.5524 4.03911 12.6581 3.99549C12.7638 3.95186 12.8771 3.92949 12.9914 3.92964C13.1058 3.92979 13.219 3.95246 13.3246 3.99637C13.4302 4.04027 13.5261 4.10454 13.6068 4.1855C13.6876 4.26647 13.7516 4.36255 13.7952 4.46826C13.8389 4.57397 13.8612 4.68723 13.8611 4.80159C13.8609 4.91594 13.8383 5.02915 13.7944 5.13474C13.7505 5.24033 13.6862 5.33625 13.6052 5.417C13.4417 5.58009 13.2201 5.67155 12.9891 5.67124C12.7582 5.67094 12.5368 5.5789 12.3737 5.41538C12.2106 5.25186 12.1192 5.03024 12.1195 4.79929C12.1198 4.56834 12.2118 4.34697 12.3753 4.18388ZM22.091 9.40355C22.0102 9.32269 21.9142 9.25855 21.8085 9.21479C21.7029 9.17102 21.5896 9.1485 21.4753 9.1485C21.3609 9.1485 21.2477 9.17102 21.1421 9.21479C21.0364 9.25855 20.9404 9.32269 20.8595 9.40355C20.7787 9.48441 20.7145 9.58041 20.6708 9.68606C20.627 9.79171 20.6045 9.90495 20.6045 10.0193C20.6045 10.1337 20.627 10.2469 20.6708 10.3525C20.7145 10.4582 20.7787 10.5542 20.8595 10.635C20.9405 10.7159 21.0366 10.78 21.1424 10.8238C21.2481 10.8675 21.3614 10.8899 21.4759 10.8899C21.5903 10.8898 21.7036 10.8672 21.8093 10.8233C21.915 10.7795 22.011 10.7152 22.0919 10.6342C22.1727 10.5533 22.2368 10.4572 22.2806 10.3514C22.3243 10.2457 22.3467 10.1323 22.3467 10.0179C22.3466 9.90349 22.324 9.79019 22.2801 9.6845C22.2363 9.57881 22.172 9.48441 22.091 9.40355ZM28.9722 14.2711C29.0529 14.1903 29.1488 14.1261 29.2544 14.0823C29.3599 14.0385 29.4731 14.0159 29.5874 14.0158C29.7016 14.0158 29.8148 14.0382 29.9204 14.0819C30.026 14.1255 30.122 14.1896 30.2029 14.2703C30.2837 14.3511 30.3479 14.447 30.3917 14.5525C30.4355 14.6581 30.4581 14.7712 30.4582 14.8855C30.4582 14.9998 30.4358 15.113 30.3921 15.2186C30.3485 15.3242 30.2844 15.4201 30.2037 15.501C30.0406 15.6643 29.8193 15.7561 29.5885 15.7563C29.3577 15.7565 29.1363 15.6649 28.973 15.5018C28.8097 15.3387 28.7179 15.1174 28.7177 14.8866C28.7176 14.6558 28.8091 14.4344 28.9722 14.2711ZM33.2881 22.6369C33.1248 22.4736 32.9033 22.3818 32.6724 22.3818C32.4414 22.3818 32.2199 22.4736 32.0566 22.6369C31.8933 22.8002 31.8016 23.0217 31.8016 23.2526C31.8016 23.4836 31.8933 23.7051 32.0566 23.8684C32.1375 23.9492 32.2335 24.0134 32.3391 24.0571C32.4448 24.1009 32.558 24.1234 32.6724 24.1234C32.7867 24.1234 32.8999 24.1009 33.0056 24.0571C33.1112 24.0134 33.2072 23.9492 33.2881 23.8684C33.369 23.7875 33.4331 23.6915 33.4769 23.5859C33.5206 23.4802 33.5432 23.367 33.5432 23.2526C33.5432 23.1383 33.5206 23.025 33.4769 22.9194C33.4331 22.8137 33.369 22.7177 33.2881 22.6369ZM13.258 30.6327C9.58785 31.8431 7.65379 32.3493 6.58455 31.2801C5.4001 30.0956 6.14809 27.8517 7.64406 23.3654L10.3861 15.1408C11.4116 12.0645 12.0135 10.257 13.0179 9.52362L13.0098 9.5658C12.9295 9.95953 12.8548 10.3544 12.7858 10.7502C12.598 11.7956 12.4303 12.8445 12.2829 13.8963C11.9324 16.3837 11.6095 19.5622 11.7766 22.1014C11.8772 23.638 12.1969 25.5445 12.4824 27.0339C12.6389 27.8493 12.8077 28.6623 12.9887 29.4726L13.0211 29.6235L13.258 30.6327ZM22.2906 27.6229L22.7238 27.4785C26.4524 26.2357 28.3167 25.6142 28.6623 24.1442C29.0111 22.6742 27.6206 21.2837 24.8412 18.5043L22.1008 15.7639L22.0927 15.7882L21.9596 16.2214C21.8493 16.5946 21.7 17.1138 21.5524 17.7076C21.249 18.9229 20.9731 20.3394 20.9731 21.407C20.9731 22.4746 21.249 23.8911 21.5524 25.1064C21.7238 25.7899 21.9165 26.4679 22.13 27.1394L22.1381 27.167L22.1413 27.1735L22.2906 27.6229ZM15.4127 9.96657L15.4938 9.56905C16.4885 10.1532 17.6664 11.3295 19.3587 13.0234L20.1748 13.8379L19.8309 14.8763L19.8146 14.9218L19.7741 15.0516L19.628 15.5237C19.5096 15.9229 19.3506 16.481 19.19 17.1187C18.8784 18.3664 18.5393 20.0246 18.5393 21.407C18.5393 22.7894 18.8801 24.4476 19.19 25.6954C19.3747 26.4341 19.583 27.1668 19.8146 27.8923L19.9818 28.3936L15.5766 29.862L15.403 29.1156L15.3949 29.0799L15.3624 28.9388L15.244 28.4033C15.1466 27.9458 15.012 27.3065 14.8708 26.5764C14.5901 25.1047 14.2948 23.3216 14.2056 21.9424C14.0547 19.6644 14.3467 16.6919 14.6923 14.2354C14.8904 12.8331 15.1252 11.4361 15.3965 10.0461L15.4079 9.98604L15.4111 9.96981L15.4127 9.96657ZM25.3978 1.37691C25.6428 1.34446 26.0922 1.32823 26.4475 1.68519C26.8029 2.04214 26.7883 2.48996 26.7558 2.73659C26.7102 2.9992 26.6484 3.25876 26.5708 3.51378L26.5124 3.71822L26.6179 3.88371C26.7591 4.10924 26.9116 4.351 27.0057 4.56517C27.1111 4.80855 27.2312 5.21743 27.0057 5.64578C26.7834 6.06764 26.3859 6.20717 26.1344 6.26396C25.904 6.31588 25.6168 6.3386 25.3442 6.36131L25.1381 6.37754H25.1203L24.971 6.55926C24.7926 6.77506 24.6092 6.99897 24.4356 7.1596C24.2506 7.32672 23.9034 7.58632 23.4215 7.52142C22.9234 7.45327 22.6638 7.09145 22.5389 6.86592C22.4201 6.63226 22.3182 6.39043 22.2338 6.14227L22.1689 5.96379L21.9904 5.89889C21.7429 5.81499 21.5016 5.71359 21.2684 5.59548C21.0413 5.46892 20.6811 5.21094 20.6129 4.71282C20.548 4.22931 20.8076 3.88371 20.9747 3.69875C21.1338 3.52513 21.3593 3.34179 21.5751 3.16331L21.7568 3.01404V2.99781L21.773 2.79013C21.7941 2.51592 21.8168 2.22874 21.8704 1.99996C21.9272 1.74684 22.0651 1.35095 22.4869 1.12866C22.9169 0.901508 23.3258 1.0232 23.5675 1.12866C23.7833 1.22115 24.0251 1.37366 24.249 1.51645L24.4161 1.62029L24.6206 1.5635C24.8867 1.48724 25.1641 1.40774 25.3978 1.37691ZM37.0572 14.8147C37.815 14.057 38.0956 13.0364 37.6803 12.1375C37.3639 11.456 36.7279 11.0131 35.9442 10.846C35.7787 10.0623 35.3341 9.42627 34.6527 9.10987C33.7538 8.69613 32.7332 8.9752 31.9755 9.73455C31.5374 10.1726 31.3378 10.7616 31.2453 11.2873C31.148 11.8227 31.148 12.3906 31.1788 12.8871C31.2182 13.4963 31.3067 14.1013 31.4433 14.6962C31.5163 14.9883 31.7548 15.2641 32.0469 15.3355H32.0501L32.0939 15.3469C32.2642 15.3876 32.4357 15.4227 32.6083 15.4523C32.9409 15.5107 33.4017 15.5805 33.903 15.6113C34.3995 15.6438 34.9674 15.6422 35.5028 15.5464C36.0285 15.454 36.6175 15.2544 37.0572 14.8163" fill="#FFAE00"/>
</svg>
