<svg width="1440" height="209" viewBox="0 0 1440 209" fill="none" xmlns="http://www.w3.org/2000/svg">
<path d="M570.299 181.62V191.52H310.609V189.03L312.949 185.75H326.589L328.859 188.17H332.209V189.42H342.819L347.069 185.17L351.839 189.49L358.909 179.72V177.12H361.189V179.3H365.669V181.18H371.799L377.879 175.09H385.319V171.82L388.389 168.75H389.169V165.89H393.119L392.489 166.52H391.489V167.87H392.489V172.03H394.999V171.09H397.389V169.43H400.089V170.99H401.759V177.69H404.149V174.83L408.519 156.74V148.42H409.349V143.33H410.279V148.42H411.429V156.42L415.689 174.82V177.42H418.389V176.07H422.549V185.95H424.999V180.75H439.699V181.75H441.569V187.05H446.869V184.66H450.409V188.93H453.109V185.39H456.749V188.2H463.409V189.96H464.999V186.62H467.489V183.4H468.999V185.9H470.349V182.57H471.189V180.49H473.469V179.14H477.219L489.589 176.33H498.639V174.25H506.539L512.049 179.03V181.42H513.189V183.3H517.769L520.059 180.07H525.459V174.53C526.079 174.2 526.699 173.9 527.329 173.62V176.12H528.169V180.28H534.169L536.089 182.2V184.02H537.389V180.49H540.609V176.43H541.609V180.59L542.809 181.79V185.91H545.809V183.62H546.359V182.88H558.639V184.12H560.739V182.32H562.999V180.21H568.999V181.62H570.299Z" fill="#4A4C4C"/>
<path d="M322.299 138.12C322.479 137.661 322.573 137.173 322.579 136.68C322.575 135.809 322.287 134.963 321.759 134.27L330.199 125.62L326.999 122.48L318.519 131.14C317.725 129.795 316.589 128.683 315.226 127.92C313.863 127.156 312.323 126.767 310.761 126.793C309.199 126.818 307.672 127.257 306.335 128.064C304.997 128.872 303.898 130.019 303.149 131.39H302.999C302.352 131.39 301.713 131.517 301.116 131.764C300.519 132.012 299.976 132.374 299.52 132.831C299.063 133.288 298.7 133.83 298.453 134.427C298.206 135.024 298.079 135.664 298.079 136.31C298.086 137.078 298.271 137.835 298.619 138.52C297.256 139.632 296.354 141.211 296.089 142.95H295.809V144.45C295.809 151.61 301.219 172.33 309.359 174.67V180.85H303.549V183.85H318.199V180.85H312.379V174.62C320.519 172.28 325.929 151.56 325.929 144.4V142.9H325.439C325.302 141.92 324.949 140.984 324.406 140.157C323.863 139.33 323.143 138.635 322.299 138.12ZM310.879 171.87C305.459 171.87 299.559 154.76 298.879 145.95H322.879C322.209 154.76 316.299 171.87 310.879 171.87Z" fill="#4A4C4C"/>
<path d="M1093 169.022C1093 169.288 1093.11 169.542 1093.29 169.729C1093.48 169.917 1093.73 170.022 1094 170.022H1118C1118.27 170.022 1118.52 169.917 1118.71 169.729C1118.89 169.542 1119 169.288 1119 169.022V168.022C1119 167.757 1118.89 167.503 1118.71 167.315C1118.52 167.128 1118.27 167.022 1118 167.022H1116.62C1116.54 164.266 1115.38 161.651 1113.4 159.731C1111.42 157.812 1108.77 156.738 1106.02 156.738C1103.26 156.738 1100.61 157.812 1098.63 159.731C1096.65 161.651 1095.49 164.266 1095.41 167.022H1094.02C1093.75 167.022 1093.5 167.128 1093.31 167.315C1093.13 167.503 1093.02 167.757 1093.02 168.022L1093 169.022Z" fill="#FFAE00"/>
<path d="M1106.54 155.192C1106.85 155.075 1107.11 154.852 1107.28 154.563C1107.44 154.274 1107.5 153.936 1107.44 153.609C1107.38 153.282 1107.21 152.986 1106.95 152.773C1106.7 152.56 1106.37 152.443 1106.04 152.443C1105.71 152.443 1105.39 152.56 1105.13 152.773C1104.88 152.986 1104.7 153.282 1104.64 153.609C1104.58 153.936 1104.64 154.274 1104.81 154.563C1104.97 154.852 1105.23 155.075 1105.54 155.192V156.332H1106.54V155.192Z" fill="#FFAE00"/>
<path d="M1096.92 148.942C1097.03 148.855 1097.1 148.729 1097.11 148.593C1097.13 148.457 1097.09 148.321 1097 148.212C1096.92 148.105 1096.79 148.036 1096.65 148.021C1096.52 148.006 1096.38 148.046 1096.27 148.132C1096.05 148.324 1095.87 148.561 1095.75 148.826C1095.62 149.092 1095.55 149.381 1095.54 149.675C1095.54 149.968 1095.59 150.26 1095.7 150.532C1095.81 150.804 1095.98 151.049 1096.19 151.252C1097.07 152.362 1095.7 153.982 1095.68 153.992C1095.59 154.097 1095.55 154.233 1095.56 154.37C1095.57 154.506 1095.64 154.633 1095.74 154.722C1095.79 154.765 1095.84 154.798 1095.9 154.82C1095.95 154.843 1096.01 154.854 1096.07 154.852C1096.15 154.853 1096.22 154.837 1096.29 154.806C1096.36 154.775 1096.42 154.729 1096.47 154.672C1096.55 154.582 1098.41 152.392 1097 150.602C1096.23 149.622 1096.81 149.042 1096.92 148.942Z" fill="#040707"/>
<path d="M1101.46 148.942C1101.57 148.856 1101.64 148.731 1101.65 148.594C1101.67 148.457 1101.63 148.32 1101.54 148.212C1101.5 148.159 1101.45 148.115 1101.39 148.083C1101.33 148.05 1101.27 148.03 1101.2 148.022C1101.13 148.015 1101.06 148.021 1101 148.039C1100.93 148.058 1100.87 148.09 1100.82 148.132C1100.6 148.324 1100.42 148.559 1100.29 148.825C1100.17 149.09 1100.1 149.379 1100.09 149.672C1100.08 149.966 1100.13 150.258 1100.24 150.53C1100.35 150.802 1100.52 151.048 1100.73 151.252C1101.61 152.362 1100.24 153.982 1100.23 153.992C1100.14 154.089 1100.08 154.221 1100.08 154.357C1100.08 154.494 1100.14 154.625 1100.23 154.722C1100.28 154.771 1100.34 154.81 1100.4 154.836C1100.46 154.862 1100.53 154.876 1100.6 154.876C1100.66 154.876 1100.73 154.862 1100.79 154.836C1100.86 154.81 1100.91 154.771 1100.96 154.722C1101.04 154.632 1102.96 152.442 1101.49 150.652C1100.76 149.622 1101.34 149.042 1101.46 148.942Z" fill="#040707"/>
<path d="M1110.31 154.722C1110.41 154.807 1110.53 154.853 1110.65 154.852C1110.73 154.852 1110.8 154.836 1110.87 154.805C1110.93 154.774 1110.99 154.729 1111.04 154.672C1111.12 154.582 1113.04 152.392 1111.57 150.602C1110.79 149.602 1111.37 149.042 1111.49 148.932C1111.55 148.89 1111.59 148.839 1111.62 148.78C1111.65 148.721 1111.68 148.656 1111.68 148.589C1111.69 148.522 1111.68 148.454 1111.67 148.39C1111.65 148.325 1111.62 148.265 1111.57 148.212C1111.49 148.105 1111.36 148.036 1111.22 148.021C1111.09 148.006 1110.95 148.046 1110.84 148.132C1110.62 148.325 1110.44 148.562 1110.32 148.827C1110.19 149.093 1110.13 149.381 1110.12 149.675C1110.11 149.968 1110.16 150.26 1110.27 150.531C1110.39 150.803 1110.55 151.048 1110.76 151.252C1111.64 152.362 1110.27 153.982 1110.26 153.992C1110.22 154.043 1110.18 154.102 1110.16 154.167C1110.14 154.231 1110.13 154.3 1110.13 154.368C1110.14 154.436 1110.16 154.502 1110.19 154.563C1110.22 154.624 1110.26 154.678 1110.31 154.722Z" fill="#040707"/>
<path d="M1116.02 148.942C1116.08 148.901 1116.13 148.848 1116.16 148.788C1116.2 148.727 1116.22 148.66 1116.23 148.59C1116.24 148.52 1116.24 148.449 1116.22 148.381C1116.2 148.313 1116.17 148.25 1116.12 148.195C1116.08 148.14 1116.02 148.094 1115.96 148.061C1115.9 148.028 1115.83 148.008 1115.76 148.002C1115.69 147.996 1115.62 148.004 1115.55 148.027C1115.49 148.049 1115.42 148.085 1115.37 148.132C1115.15 148.324 1114.97 148.561 1114.84 148.826C1114.72 149.092 1114.65 149.381 1114.64 149.674C1114.63 149.968 1114.69 150.26 1114.8 150.532C1114.91 150.804 1115.08 151.049 1115.29 151.252C1116.17 152.362 1114.8 153.982 1114.78 153.992C1114.69 154.097 1114.65 154.233 1114.66 154.37C1114.67 154.506 1114.74 154.633 1114.84 154.722C1114.93 154.807 1115.06 154.853 1115.18 154.852C1115.25 154.851 1115.33 154.834 1115.39 154.803C1115.46 154.772 1115.52 154.728 1115.57 154.672C1115.65 154.582 1117.51 152.392 1116.1 150.602C1115.31 149.622 1115.92 149.042 1116.02 148.942Z" fill="#040707"/>
<path d="M762.748 187.78C761.318 189.5 758.748 189.64 756.538 189.64C748.538 189.64 740.538 189.64 732.538 189.64L512.538 189.27C509.968 189.27 506.288 187.51 507.648 185.27C508.071 184.722 508.65 184.314 509.308 184.1C509.738 183.91 510.158 183.75 510.598 183.6C516.768 181.4 523.688 181.6 529.868 179.39C532.181 178.501 534.399 177.382 536.488 176.05C539.738 174.05 542.858 171.8 546.228 170.05C546.728 169.78 547.228 169.55 547.718 169.32C547.928 169.23 548.128 169.13 548.338 169.05C553.528 166.83 559.228 166.21 564.838 165.61L604.698 161.36C610.505 160.909 616.267 159.993 621.928 158.62C629.698 156.51 637.278 152.62 645.308 153.19C654.548 153.81 662.828 160.24 672.078 159.99C676.338 159.87 680.458 158.32 684.718 158.18C693.718 157.87 701.718 163.69 710.448 165.64C713.628 166.35 716.898 166.54 720.078 167.18C734.258 170.03 746.078 183.38 760.558 183.38C762.648 182.56 764.168 186.06 762.748 187.78Z" fill="#4A4C4C"/>
<path d="M1028.74 194.98C1020.18 198.98 1010.04 199.12 1000.43 199.12H732.79C730.79 199.12 728.43 199.01 727.05 197.5C725.31 195.59 726.05 192.33 727.99 190.59C729.93 188.85 732.53 188.2 735.05 187.59C754.31 183.035 773.264 177.274 791.8 170.34C795.26 169.04 798.93 167.68 802.57 168.34C805.57 168.91 808.92 170.81 811.57 169.19C812.68 168.51 813.42 167.29 814.57 166.75C816.09 166.06 817.86 166.67 819.41 167.28L842 176.17C845.5 177.54 849.13 178.93 852.87 178.68C857.64 178.37 861.87 175.46 866.45 174.29C875.67 171.97 885.36 176.77 894.77 175.47C897.63 175.07 900.39 174.12 903.25 173.78C908.05 173.2 912.86 174.33 917.6 175.31C933.028 178.463 948.758 179.888 964.5 179.56C969.778 179.292 975.066 179.318 980.34 179.64C989.34 180.48 998.01 183.64 1006.53 186.79L1028.74 194.98Z" fill="#4A4C4C"/>
<path d="M1260.59 198.62H1125.26C1123.54 198.62 1121.6 198.48 1120.43 196.48C1119.74 195.115 1119.47 193.577 1119.66 192.06C1119.67 191.912 1119.69 191.765 1119.72 191.62C1119.81 190.86 1119.98 190.112 1120.24 189.39C1120.36 189.023 1120.51 188.665 1120.69 188.32C1120.69 188.21 1120.8 188.1 1120.86 187.99C1120.97 187.775 1121.1 187.568 1121.24 187.37C1121.5 187.015 1121.79 186.68 1122.1 186.37C1123.53 185.02 1125.27 184.032 1127.16 183.49C1128.76 182.89 1130.37 182.28 1131.96 181.65H1142.5V180.52H1145.21V176.08C1146.55 175.48 1147.89 174.86 1149.21 174.23C1150.38 173.68 1151.55 173.13 1152.72 172.56C1160.18 168.96 1167.57 165.013 1174.88 160.72C1177.8 159.01 1180.88 157.21 1183.94 158.09C1186.51 158.82 1189.29 161.34 1191.5 159.21C1192.44 158.32 1193.06 156.7 1194.05 155.99C1195.33 155.08 1196.81 155.88 1198.12 156.68C1203.29 159.88 1208.46 163.063 1213.63 166.23L1225.15 174.23L1232.15 179.1L1237.01 182.46L1237.75 182.97L1238.52 183.49L1240.93 185.17L1242.72 186.4L1245.02 187.98L1245.59 188.38L1247.14 189.45L1256.98 196.25L1260.59 198.62Z" fill="#4A4C4C"/>
<path d="M1264.08 187.03H1220.26C1219.92 187.074 1219.58 186.998 1219.29 186.815C1219.01 186.632 1218.79 186.354 1218.69 186.03C1218.28 184.643 1218.37 183.155 1218.95 181.83C1219.35 181.015 1220.03 180.373 1220.87 180.02C1226.38 177.073 1231.56 173.553 1236.33 169.52C1237.33 168.74 1238.33 167.91 1239.26 168.32C1240.19 168.73 1240.99 169.82 1241.71 168.83C1242.02 168.42 1242.22 167.68 1242.54 167.35C1242.86 167.02 1243.43 167.35 1243.86 167.67L1248.86 172.07L1264.08 187.03Z" fill="#4A4C4C"/>
<path d="M465.002 162.16C464.691 161.884 464.296 161.723 463.881 161.703C463.467 161.683 463.057 161.806 462.722 162.05C462.526 162.193 462.362 162.374 462.238 162.582C462.114 162.79 462.033 163.021 462 163.261C461.967 163.501 461.984 163.745 462.047 163.978C462.111 164.212 462.222 164.43 462.372 164.62L458.462 160.32L454.062 164.32C454.321 164.085 454.507 163.781 454.597 163.443C454.687 163.105 454.677 162.748 454.568 162.416C454.459 162.084 454.257 161.79 453.985 161.57C453.713 161.35 453.383 161.214 453.036 161.178C452.688 161.141 452.337 161.207 452.025 161.365C451.714 161.524 451.455 161.77 451.28 162.072C451.105 162.375 451.022 162.722 451.04 163.071C451.058 163.42 451.177 163.757 451.382 164.04C451.532 164.245 451.723 164.415 451.943 164.542C452.163 164.668 452.408 164.747 452.66 164.773C452.912 164.8 453.167 164.773 453.409 164.695C453.65 164.617 453.873 164.489 454.062 164.32L449.672 168.32L452.872 171.83C452.863 171.525 452.931 171.223 453.07 170.951C453.209 170.68 453.415 170.448 453.668 170.277C453.92 170.106 454.212 170.002 454.516 169.974C454.82 169.947 455.126 169.996 455.405 170.118C455.685 170.24 455.929 170.431 456.115 170.673C456.301 170.914 456.423 171.199 456.47 171.501C456.516 171.802 456.486 172.111 456.381 172.397C456.277 172.684 456.102 172.939 455.872 173.14C455.68 173.312 455.455 173.441 455.211 173.521C454.966 173.6 454.708 173.627 454.452 173.6L457.652 177.11L466.442 169.11L462.542 164.83C462.715 165.008 462.923 165.148 463.152 165.242C463.382 165.336 463.628 165.382 463.876 165.377C464.124 165.371 464.368 165.315 464.594 165.212C464.819 165.108 465.021 164.959 465.186 164.775C465.352 164.59 465.478 164.373 465.556 164.138C465.634 163.902 465.663 163.654 465.641 163.406C465.619 163.159 465.547 162.92 465.428 162.702C465.309 162.484 465.147 162.293 464.952 162.14L465.002 162.16Z" fill="#040707"/>
<path d="M468.26 156.76C468.366 156.573 468.409 156.356 468.382 156.142C468.355 155.929 468.259 155.73 468.11 155.575C467.96 155.42 467.765 155.317 467.552 155.282C467.34 155.247 467.122 155.281 466.93 155.38L469.18 153.25L467 150.94C467.13 151.088 467.299 151.195 467.489 151.247C467.678 151.3 467.879 151.295 468.066 151.234C468.252 151.173 468.417 151.058 468.539 150.904C468.661 150.75 468.735 150.563 468.751 150.367C468.768 150.171 468.726 149.975 468.631 149.803C468.537 149.63 468.394 149.49 468.22 149.398C468.046 149.307 467.849 149.269 467.653 149.289C467.458 149.308 467.272 149.386 467.12 149.51C467.017 149.595 466.932 149.7 466.869 149.818C466.807 149.937 466.769 150.066 466.758 150.2C466.747 150.333 466.763 150.467 466.804 150.595C466.846 150.722 466.913 150.839 467 150.94L464.82 148.64L463 150.38C463.18 150.388 463.355 150.444 463.505 150.543C463.656 150.642 463.777 150.779 463.855 150.941C463.934 151.103 463.968 151.283 463.953 151.462C463.938 151.642 463.875 151.814 463.77 151.96C463.681 152.06 463.571 152.141 463.45 152.198C463.328 152.255 463.196 152.287 463.061 152.291C462.927 152.296 462.793 152.274 462.667 152.225C462.542 152.177 462.427 152.104 462.33 152.01C462.237 151.908 462.166 151.788 462.121 151.657C462.076 151.527 462.059 151.388 462.07 151.25L460.23 153L464.59 157.61L466.84 155.48C466.706 155.655 466.633 155.869 466.633 156.09C466.633 156.311 466.706 156.525 466.84 156.7C466.929 156.798 467.037 156.877 467.157 156.933C467.276 156.989 467.406 157.021 467.538 157.026C467.67 157.032 467.802 157.011 467.926 156.966C468.05 156.92 468.164 156.85 468.26 156.76Z" fill="#040707"/>
<path d="M290.388 176.33H290.218C290.108 176.33 290.068 176.33 290.058 176.18C290.058 175.63 289.968 175.09 289.928 174.55C289.828 173.45 289.738 172.35 289.648 171.25C289.648 170.98 289.648 170.71 289.578 170.45C289.578 170.35 289.578 170.29 289.698 170.3C289.818 170.31 289.788 170.3 289.788 170.24C289.788 170.18 289.728 170.18 289.678 170.18H289.368C289.298 170.18 289.268 170.18 289.268 170.08C289.268 169.73 289.268 169.39 289.268 169.03C289.268 168.96 289.318 168.92 289.358 168.87C289.379 168.851 289.396 168.828 289.408 168.802C289.42 168.776 289.426 168.748 289.426 168.72C289.426 168.692 289.42 168.664 289.408 168.638C289.396 168.612 289.379 168.589 289.358 168.57C289.323 168.537 289.276 168.519 289.228 168.519C289.18 168.519 289.133 168.537 289.098 168.57C289.077 168.589 289.06 168.612 289.048 168.638C289.036 168.664 289.03 168.692 289.03 168.72C289.03 168.748 289.036 168.776 289.048 168.802C289.06 168.828 289.077 168.851 289.098 168.87C289.128 168.896 289.151 168.929 289.166 168.965C289.182 169.001 289.189 169.041 289.188 169.08C289.188 169.39 289.188 169.71 289.188 170.03C289.188 170.17 289.128 170.19 289.018 170.19H288.728C288.678 170.19 288.648 170.19 288.648 170.26C288.648 170.33 288.648 170.26 288.708 170.26H288.888C288.908 170.399 288.908 170.541 288.888 170.68C288.788 172.06 288.698 173.44 288.598 174.82C288.598 175.25 288.528 175.69 288.508 176.13C288.508 176.26 288.448 176.3 288.338 176.29H287.728C287.558 176.29 287.548 176.29 287.548 176.47C287.548 176.65 287.548 176.78 287.548 176.93C287.548 177.08 287.548 177.09 287.398 177.09H286.128C286.058 177.09 286.028 177.09 286.028 177.19V181.68C286.028 181.75 286.028 181.77 285.918 181.77H282.608C282.518 181.77 282.468 181.77 282.468 181.65C282.473 181.577 282.473 181.503 282.468 181.43V158.26C282.468 157.87 282.538 157.96 282.158 157.85L280.708 157.44C280.683 157.439 280.658 157.432 280.635 157.421C280.612 157.409 280.592 157.393 280.576 157.373C280.56 157.353 280.548 157.33 280.541 157.306C280.535 157.281 280.534 157.255 280.538 157.23C280.538 156.72 280.538 156.23 280.538 155.71C280.538 155.5 280.538 155.49 280.338 155.42L277.528 154.42C277.278 154.32 277.308 154.36 277.308 154.09C277.308 153.15 277.308 152.22 277.308 151.29C277.314 151.223 277.3 151.157 277.268 151.098C277.236 151.039 277.187 150.991 277.128 150.96L273.978 149.09C273.923 149.053 273.86 149.029 273.794 149.02C273.728 149.012 273.661 149.018 273.598 149.04L272.228 149.4C272.048 149.45 272.048 149.45 272.048 149.64V152.64C272.048 152.92 272.048 152.88 271.818 152.95L270.818 153.2C270.638 153.25 270.638 153.25 270.638 153.44V154.62C270.638 154.84 270.638 154.84 270.418 154.89L269.608 155.07C269.428 155.07 269.428 155.07 269.428 155.31V156.7C269.428 156.95 269.428 156.91 269.218 156.97L268.388 157.16C268.278 157.16 268.228 157.21 268.238 157.33C268.243 157.387 268.243 157.443 268.238 157.5V167.15C268.238 167.24 268.238 167.27 268.118 167.27C267.998 167.27 268.028 167.21 268.028 167.15V166.27C268.028 166.18 268.028 166.14 267.898 166.15H261.198C260.898 166.15 260.918 166.15 260.918 166.42V167.37C260.918 167.56 260.918 167.56 260.738 167.56H259.688C259.566 167.559 259.445 167.59 259.338 167.65L258.198 168.3C258.148 168.3 258.108 168.3 258.058 168.3C258.008 168.3 257.948 168.39 257.888 168.43C257.662 168.572 257.428 168.702 257.188 168.82C257.103 168.855 257.032 168.917 256.987 168.997C256.942 169.077 256.925 169.169 256.938 169.26C256.938 172.46 256.938 175.66 256.938 178.86C256.933 178.923 256.933 178.987 256.938 179.05C256.944 179.073 256.944 179.097 256.938 179.12V187.12H293.568V176.33H290.388Z" fill="#4A4C4C"/>
<path d="M1440 186H0V209H1440V186Z" fill="#040707"/>
<path d="M537.539 198.67H1059V181.33C1058.86 181.23 1058.71 181.15 1058.55 181.03C1058.15 180.75 1057.78 179.9 1057.36 179.44L1054.98 178.69L1052.69 177.96L1047.44 176.32C1046.05 175.766 1044.61 175.328 1043.15 175.01C1042.98 175.01 1042.81 174.975 1042.66 174.908C1042.5 174.841 1042.36 174.743 1042.25 174.62C1042.17 174.48 1042.15 174.34 1042.01 174.24C1041.9 174.214 1041.79 174.214 1041.69 174.24L1040.4 174.14C1040.3 174.36 1040.19 174.56 1040.09 174.77C1039.53 174.742 1038.96 174.803 1038.42 174.95C1038.01 175.072 1037.59 175.169 1037.17 175.24C1036.58 175.31 1035.96 175.24 1035.36 175.24C1034.91 175.341 1034.46 175.471 1034.03 175.63C1032.84 175.801 1031.64 175.884 1030.44 175.88C1029.44 175.98 1028.44 176.31 1027.44 176.43C1026.94 176.47 1026.44 176.47 1025.94 176.43C1025.41 176.485 1024.88 176.41 1024.39 176.21C1024.3 176.169 1024.22 176.11 1024.16 176.035C1024.09 175.961 1024.05 175.874 1024.02 175.78C1024.02 175.78 1024.02 175.78 1024.02 175.72H1024C1023.77 175.72 1023.52 175.72 1023.27 175.72C1023.22 175.726 1023.16 175.726 1023.11 175.72C1023.08 175.7 1023.06 175.674 1023.05 175.644C1023.04 175.614 1023.04 175.582 1023.04 175.55C1023.01 175.374 1023.01 175.195 1023.04 175.02C1022.93 174.99 1022.81 174.99 1022.7 175.02C1022.59 175.04 1022.48 175.04 1022.37 175.02C1022.14 174.95 1022.26 174.63 1022.26 174.49C1021.88 174.471 1021.5 174.471 1021.12 174.49C1021.2 174.2 1021.12 173.95 1020.74 173.94C1020.36 173.93 1019.87 173.94 1019.45 173.94C1019.47 173.987 1019.48 174.038 1019.48 174.09C1019.48 174.142 1019.47 174.193 1019.45 174.24C1019.33 174.6 1018.79 174.24 1018.58 174.49C1018.5 174.58 1018.58 175.03 1018.58 175.17C1018.59 175.254 1018.57 175.339 1018.52 175.41C1018.46 175.46 1018.4 175.498 1018.32 175.522C1018.25 175.546 1018.17 175.556 1018.1 175.55C1017.7 175.55 1017.58 175.55 1017.5 175.27C1017.5 175.27 1017.44 174.85 1017.5 174.84C1016.79 174.93 1016.5 174.94 1016.5 174.37C1016.52 174.295 1016.52 174.214 1016.5 174.14C1016.34 173.92 1015.18 174.05 1014.89 174.05C1014.6 174.05 1014.76 174.65 1014.73 174.87C1014.73 174.91 1014.72 174.949 1014.7 174.985C1014.68 175.02 1014.65 175.049 1014.62 175.07C1014.39 175.24 1014.1 175.07 1013.91 175.24C1013.72 175.41 1013.81 175.79 1013.74 175.99C1013.52 176.46 1013.23 176.893 1012.87 177.27C1012.48 177.72 1011.54 177.54 1010.87 177.54C1010.62 177.54 1009.7 176.49 1009.52 176.33C1009.34 176.17 1009.41 176.24 1009.39 176.18C1009.34 176.087 1009.32 175.984 1009.33 175.88C1009.25 175.299 1009.08 174.736 1008.8 174.22C1008.58 173.76 1007.18 173.85 1006.69 173.84C1006.65 173.85 1006.6 173.85 1006.56 173.84C1006.56 173.84 1006.56 173.84 1006.56 173.76C1006.56 173.68 1006.4 173.04 1006.19 172.96C1006.12 172.945 1006.05 172.945 1005.99 172.96C1005.1 172.96 1004.21 172.96 1003.34 172.96C1003.39 173.807 1003.31 174.657 1003.1 175.48C1003.1 175.74 1002.78 176.11 1002.65 176.36C1002.65 176.36 1002.65 176.44 1002.57 176.45C1002.53 176.464 1002.49 176.464 1002.46 176.45C1000.67 175.8 998.959 174.87 997.229 174.11C995.939 173.55 994.649 172.98 993.379 172.4C992.373 171.803 991.237 171.46 990.069 171.4C988.919 171.4 987.779 171.48 986.629 171.59C985.644 171.807 984.628 171.844 983.629 171.7C982.939 171.54 982.279 171.31 981.629 171.12C978.77 170.519 975.835 170.367 972.929 170.67C972.779 171 972.789 171.46 972.289 171.62C971.965 171.716 971.626 171.753 971.289 171.73H970.449C969.045 171.615 967.633 171.615 966.229 171.73C964.769 171.95 963.339 172.17 961.889 172.41C960.439 172.65 958.889 172.98 957.309 173.21H957.179C957.139 173.194 957.106 173.164 957.088 173.125C957.069 173.086 957.066 173.041 957.079 173C957.079 172.77 957.079 172.55 957.079 172.34C957.077 172.291 957.065 172.244 957.042 172.2C957.02 172.157 956.988 172.119 956.949 172.09C956.861 172.064 956.767 172.064 956.679 172.09C955.269 172.09 953.849 172.04 952.449 172.04C952.25 172.02 952.049 172.02 951.849 172.04C951.627 172.089 951.412 172.167 951.209 172.27L946.519 174.36L944.209 175.41C943.52 175.799 942.801 176.133 942.059 176.41C941.894 176.493 941.714 176.54 941.529 176.55C941.356 176.554 941.183 176.527 941.019 176.47C939.409 175.97 937.829 175.47 936.269 174.94C934.771 174.434 933.2 174.177 931.619 174.18H921.409C920.307 174.11 919.201 174.11 918.099 174.18C918.199 173.95 917.999 173.7 917.779 173.52C917.021 172.771 916.043 172.284 914.989 172.13C913.865 172.164 912.756 172.404 911.719 172.84C910.929 173.11 910.159 173.38 909.389 173.67C908.842 173.865 908.285 174.028 907.719 174.16C906.545 174.319 905.349 174.185 904.239 173.77L902.699 173.25C902.162 172.967 901.591 172.755 900.999 172.62C900.88 172.565 900.75 172.535 900.619 172.53C900.529 172.536 900.44 172.56 900.359 172.6C899.539 172.86 898.679 173.07 897.889 173.37C897.376 173.59 896.852 173.784 896.319 173.95C895.721 174.054 895.116 174.107 894.509 174.11C893.323 174.099 892.143 173.935 890.999 173.62C889.987 173.286 888.955 173.015 887.909 172.81C887.246 172.727 886.577 172.697 885.909 172.72H877.569C876.35 172.73 875.133 172.83 873.929 173.02C871.829 173.34 869.739 173.66 867.649 173.96C865.559 174.26 863.759 174.64 861.809 174.8C859.259 174.99 856.659 174.8 854.119 174.75L849.579 174.68H847.469C846.409 174.68 845.329 174.53 844.529 175.15C844.126 175.573 843.643 175.912 843.109 176.15C842.269 176.28 841.416 176.311 840.569 176.24C840.13 176.266 839.69 176.236 839.259 176.15C838.009 175.88 837.329 174.81 836.149 174.38C835.492 174.138 834.777 174.103 834.099 174.28C833.469 174.43 833.219 174.9 832.659 175.13C832.082 175.316 831.472 175.377 830.869 175.31C830.369 175.31 828.559 175.57 828.319 175.18C828.298 175.112 828.298 175.038 828.319 174.97C828.319 174.7 828.319 174.44 828.319 174.18C828.319 174.18 828.319 174.11 828.319 174.09C828.283 174.08 828.245 174.08 828.209 174.09C827.668 173.98 827.11 173.98 826.569 174.09C826.215 174.239 825.908 174.481 825.679 174.79C824.419 176.1 822.259 176.32 820.429 176.9C818.599 177.48 816.839 178.47 814.819 178.63H814.759L805.389 179.32C800.969 179.64 796.529 179.97 792.109 180.32C791.43 180.418 790.738 180.324 790.109 180.05C789.138 179.457 788.027 179.132 786.889 179.11C785.914 179.176 784.954 179.385 784.039 179.73C783.134 180.074 782.209 180.361 781.269 180.59C779.863 180.882 778.41 180.848 777.019 180.49L776.329 180.32C775.939 180.258 775.544 180.232 775.149 180.24C774.951 180.23 774.752 180.251 774.559 180.3L774.219 180.49C773.397 181.049 772.627 181.682 771.919 182.38C771.831 182.467 771.734 182.544 771.629 182.61C770.5 182.73 769.364 182.78 768.229 182.76V181.76H765.599V181.02L763.599 180.53L762.719 180.84L761.839 181.12V181.56H759.509C759.299 181.56 759.509 182.02 759.509 182.02H757.929V182.77H753.179V181.95H752.409V181.28H751.629V181.98H750.779L749.989 183.15H747.839C747.699 183.15 747.839 182.78 747.839 182.78H744.629C741.469 181.9 738.279 180.65 734.919 180.32C731.072 180.022 727.202 180.408 723.489 181.46C719.773 182.346 716.143 183.558 712.639 185.08C711.732 185.575 710.773 185.968 709.779 186.25C706.469 187.01 703.369 185.25 700.319 184.59C696.644 183.981 692.924 183.686 689.199 183.71C683.357 183.377 677.498 183.521 671.679 184.14C670.009 184.36 668.029 185.02 666.349 185C664.669 184.98 663.139 184.18 661.719 183.76C660.312 183.404 658.859 183.262 657.409 183.34H650.699L650.529 181.42H652.989L634.639 170.56L618.999 182.25H620.589V185.97H618.329C617.834 185.559 617.263 185.25 616.649 185.06C616.437 185.035 616.222 185.035 616.009 185.06C615.579 185.06 615.129 185.12 614.709 185.18C614.328 185.195 613.957 185.305 613.629 185.5C613.399 185.72 613.629 185.96 613.629 186.22C613.632 186.375 613.592 186.527 613.515 186.661C613.437 186.795 613.325 186.905 613.189 186.98C612.895 187.249 612.557 187.466 612.189 187.62C612.111 187.664 612.027 187.698 611.939 187.72C611.823 187.722 611.707 187.702 611.599 187.66C610.741 187.323 609.849 187.079 608.939 186.93C608.167 186.87 607.391 186.87 606.619 186.93C606.405 186.922 606.19 186.939 605.979 186.98C605.449 187.11 605.059 187.45 604.559 187.62C604.012 187.748 603.441 187.72 602.909 187.54C601.095 187.009 599.176 186.943 597.329 187.35C596.564 187.645 595.758 187.82 594.939 187.87C594.147 187.87 593.37 187.655 592.689 187.25C592.445 187.059 592.167 186.917 591.869 186.83C591.719 186.79 591.564 186.77 591.409 186.77C590.441 186.704 589.468 186.774 588.519 186.98C587.682 187.273 586.795 187.399 585.909 187.35C585.519 187.29 585.159 187.16 584.799 187.08C583.843 186.88 582.864 186.809 581.889 186.87C581.184 186.815 580.475 186.815 579.769 186.87L577.679 187.26C577.099 187.52 576.509 187.78 575.929 188.06C575.639 188.228 575.33 188.363 575.009 188.46C574.769 188.46 574.659 188.14 574.559 187.96C574.532 187.917 574.494 187.882 574.449 187.86C574.4 187.851 574.349 187.851 574.299 187.86C573.723 187.769 573.136 187.769 572.559 187.86C572.488 187.912 572.435 187.986 572.409 188.07L571.749 189.33C571.733 189.374 571.701 189.409 571.659 189.43C571.606 189.441 571.552 189.441 571.499 189.43C571.229 189.43 570.689 189.69 570.439 189.55C570.379 189.522 570.332 189.472 570.309 189.41C570 189.027 569.76 188.594 569.599 188.13C569.479 187.69 569.599 187.26 569.139 186.9C568.766 186.62 568.368 186.375 567.949 186.17C567.415 185.866 566.921 185.497 566.479 185.07C566.255 184.792 565.957 184.584 565.619 184.47C565.384 184.435 565.144 184.435 564.909 184.47C563.519 184.54 562.079 184.59 560.689 184.78C559.847 184.879 559.016 185.059 558.209 185.32C557.804 185.429 557.424 185.616 557.089 185.87C556.726 186.206 556.454 186.63 556.299 187.1C555.951 187.695 555.717 188.349 555.609 189.03L554.699 188.83C553.279 188.08 552.919 189.34 552.539 189.66C552.339 189.84 551.449 190.66 551.059 190.44C547.059 188.53 545.199 187.9 544.949 187.71L542.949 189.03H539.699L537.539 198.67Z" fill="#040707"/>
<path d="M741.679 189.74H556.449V187.9L559.249 187.56L560.719 186.64H562.249L564.679 185.71L566.679 185.31L568.469 184.92L569.469 185.28L573.049 184.92L574.049 183.23H577.179L579.729 182.42L583.729 182.73L584.999 181.62L589.269 181.15C589.269 181.15 590.609 181.35 590.609 181.15C590.75 180.815 590.939 180.501 591.169 180.22H594.169L595.049 179.63L596.899 178.63L599.459 179.02L600.289 178.63H602.519C603.17 178.809 603.85 178.857 604.519 178.77L605.999 178.92L607.399 178.35L608.549 178.52L609.639 178.72L611.419 178.12H612.829H612.999C614.789 177.79 616.509 177.31 618.229 176.91L622.089 176.02C623.166 175.71 624.279 175.542 625.399 175.52C626.549 175.52 627.689 175.52 628.819 175.62C629.816 175.727 630.82 175.744 631.819 175.67C632.519 175.6 633.179 175.48 633.819 175.38C636.705 175.069 639.611 174.989 642.509 175.14C642.679 175.31 642.669 175.55 643.169 175.64C643.501 175.685 643.835 175.702 644.169 175.69H644.999C646.389 175.69 647.679 176.17 648.999 176.27C650.319 176.37 652.069 175.93 653.509 176.05C654.949 176.17 653.809 175.36 655.359 175.47C655.359 175.47 656.239 175.91 656.279 175.91C656.621 175.822 656.955 175.708 657.279 175.57C657.939 175.39 658.279 175.7 658.279 175.57C658.279 175.44 658.439 175.74 658.529 175.71C658.619 175.68 658.529 175.85 658.659 175.85H662.889C663.086 175.835 663.283 175.835 663.479 175.85C663.699 175.874 663.916 175.914 664.129 175.97L668.809 177.06L670.249 178.29L672.969 178.91L675.519 178.51L680.199 179.13V179.88C680.199 179.88 681.479 180.15 681.739 180.19C681.999 180.23 688.459 180.19 688.459 180.19L689.569 180.99L692.459 181.2L695.099 182.39L697.479 182.04L700.479 182.84H703.119L705.499 183.28L706.179 184.28L709.249 184.06L713.079 185.3L713.589 185.87L716.219 185.56L719.459 186.36L720.049 186.97H724.479L724.909 188.03L728.909 188.52H731.539V187.94L733.669 188.12L734.859 188.74H737.589L741.679 189.74Z" fill="#040707"/>
<path d="M201.539 186.35C201.629 186.36 201.719 186.36 201.809 186.35H377.479V183.23H372.679C372.621 183.251 372.557 183.251 372.499 183.23C372.461 183.195 372.434 183.15 372.419 183.1C372.364 182.85 372.276 182.608 372.159 182.38C372.069 182.16 371.989 181.93 371.909 181.71L371.319 180.15C371.302 180.085 371.267 180.027 371.219 179.98C371.147 179.938 371.062 179.92 370.979 179.93H369.689C369.256 179.951 368.821 179.91 368.399 179.81C368.177 179.765 367.968 179.669 367.789 179.53C367.629 179.41 367.539 179.06 367.379 179C367.294 178.975 367.204 178.975 367.119 179C366.681 179.143 366.259 179.331 365.859 179.56C365.369 179.78 364.639 179.9 364.259 179.42C364.099 179.23 363.599 178.76 363.519 178.64C363.193 178.364 362.825 178.141 362.429 177.98C362.069 177.86 361.999 177.98 361.429 177.98C360.859 177.98 360.179 177.93 360.069 177.98C359.479 177.98 358.919 177.52 358.359 177.36C357.698 177.17 356.992 177.212 356.359 177.48L355.999 177.62C355.079 177.916 354.098 177.975 353.149 177.79C352.339 177.68 351.589 177.31 350.789 177.12C349.947 176.937 349.09 176.833 348.229 176.81C347.452 176.763 346.672 176.858 345.929 177.09C345.176 177.326 344.387 177.425 343.599 177.38C343.009 177.38 342.429 177.33 341.839 177.38C341.289 177.408 340.743 177.492 340.209 177.63C340.17 177.64 340.128 177.64 340.089 177.63C340.039 177.63 340.009 177.58 339.969 177.55C339.603 177.194 339.162 176.924 338.679 176.76C338.178 176.531 337.628 176.432 337.079 176.47C336.639 176.54 336.209 176.62 335.769 176.71C335.329 176.8 335.139 176.91 334.769 176.95C334.399 176.99 333.989 176.95 333.589 176.95C332.809 176.913 332.027 176.967 331.259 177.11C330.799 177.22 330.369 177.39 329.919 177.52C329.13 177.702 328.327 177.819 327.519 177.87C327.269 177.87 327.019 177.87 326.779 177.93C326.523 178.01 326.257 178.05 325.989 178.05C325.848 178.022 325.711 177.978 325.579 177.92C324.984 177.679 324.351 177.543 323.709 177.52C322.452 177.582 321.203 177.759 319.979 178.05C319.62 178.129 319.28 178.279 318.979 178.49C318.629 178.69 318.279 178.89 317.919 179.07C317.429 179.291 316.952 179.538 316.489 179.81C315.999 180.13 315.679 180.68 315.149 180.92C314.459 181.171 313.745 181.352 313.019 181.46L310.749 181.99C310.486 182.05 310.212 182.05 309.949 181.99C309.782 181.946 309.606 181.946 309.439 181.99C309.379 181.99 309.319 182.08 309.259 182.09C309.199 182.1 309.069 182.03 308.989 182C308.843 181.946 308.686 181.924 308.53 181.938C308.374 181.952 308.224 182.001 308.089 182.08C308.089 181.97 307.929 181.95 307.839 182C307.749 182.05 307.629 182.12 307.539 182.05C307.449 181.98 307.479 181.95 307.449 181.9C307.385 181.812 307.291 181.749 307.185 181.723C307.079 181.698 306.967 181.711 306.869 181.76C306.649 181.85 306.339 182.14 306.089 182.04C305.839 181.94 305.899 181.88 305.809 181.79C305.748 181.734 305.674 181.694 305.594 181.673C305.514 181.652 305.43 181.651 305.349 181.67C305.179 181.67 305.029 181.84 304.839 181.85C304.649 181.86 304.519 181.75 304.349 181.74C304.179 181.73 304.029 181.85 303.859 181.86C303.689 181.87 303.369 181.73 303.159 181.86L303.059 181.93C302.909 181.99 302.789 181.88 302.659 181.83C302.486 181.769 302.3 181.751 302.119 181.78C301.558 181.904 301.007 182.067 300.469 182.27C299.69 182.48 298.868 182.48 298.089 182.27C298.005 182.244 297.917 182.227 297.829 182.22C297.596 182.232 297.373 182.316 297.189 182.46V182.77C296.895 182.78 296.606 182.847 296.339 182.97C296.19 183.058 296.036 183.138 295.879 183.21C295.717 183.24 295.551 183.24 295.389 183.21C295.195 183.238 295.004 183.285 294.819 183.35L293.559 183.68H293.429C293.279 183.68 293.189 183.48 293.089 183.38C292.94 183.264 292.765 183.185 292.579 183.15C292.34 183.118 292.103 183.071 291.869 183.01C291.616 182.908 291.369 182.791 291.129 182.66C291.003 182.605 290.867 182.577 290.729 182.577C290.591 182.577 290.455 182.605 290.329 182.66C290.274 182.697 290.213 182.724 290.149 182.74C290.093 182.736 290.038 182.721 289.988 182.695C289.939 182.669 289.895 182.634 289.859 182.59C289.492 182.298 289.025 182.162 288.559 182.21C288.487 182.225 288.412 182.225 288.339 182.21C288.274 182.187 288.213 182.153 288.159 182.11L287.229 181.36C287.181 181.317 287.122 181.286 287.059 181.27C287.003 181.261 286.945 181.261 286.889 181.27C286.583 181.355 286.267 181.395 285.949 181.39C285.641 181.368 285.334 181.441 285.069 181.6L284.759 181.19C284.731 181.149 284.698 181.112 284.659 181.08C284.593 181.065 284.525 181.065 284.459 181.08H283.939C283.893 181.07 283.845 181.07 283.799 181.08C283.754 181.111 283.714 181.148 283.679 181.19C283.435 181.388 283.122 181.482 282.809 181.45H281.889C281.827 181.43 281.761 181.43 281.699 181.45C281.648 181.513 281.607 181.584 281.579 181.66C281.469 181.89 281.269 181.88 281.069 181.98C280.844 182.084 280.661 182.26 280.549 182.48C280.533 182.533 280.505 182.582 280.467 182.622C280.428 182.661 280.381 182.692 280.329 182.71L279.859 182.92C279.838 182.923 279.818 182.931 279.801 182.944C279.784 182.956 279.769 182.972 279.759 182.99C279.759 182.99 279.759 183.05 279.759 183.08C279.759 183.11 279.759 183.35 279.679 183.4C279.599 183.45 279.389 183.4 279.279 183.4C279.13 183.45 278.968 183.45 278.819 183.4C278.75 183.354 278.689 183.297 278.639 183.23L278.369 182.9C278.322 182.834 278.26 182.779 278.189 182.74C278.124 182.72 278.054 182.72 277.989 182.74C277.634 182.78 277.275 182.78 276.919 182.74C276.669 182.68 276.529 182.28 276.419 182.06C276.401 182.013 276.369 181.972 276.328 181.942C276.288 181.912 276.239 181.894 276.189 181.89L274.729 181.55C274.729 181.55 274.439 181.87 274.379 181.9C274.191 181.963 273.996 182.007 273.799 182.03L272.479 182.31C272.453 182.492 272.381 182.664 272.269 182.81C272.214 182.866 272.154 182.916 272.089 182.96C271.86 183.073 271.648 183.218 271.459 183.39C271.307 183.553 271.176 183.734 271.069 183.93C270.783 183.781 270.509 183.611 270.249 183.42C269.978 183.245 269.661 183.155 269.339 183.16C269.002 183.214 268.656 183.176 268.339 183.05C268.141 182.911 267.93 182.79 267.709 182.69C267.596 182.675 267.482 182.675 267.369 182.69H266.039C265.689 182.69 265.179 182.81 264.979 182.45C264.889 182.29 264.849 182.09 264.759 181.93C264.673 181.804 264.563 181.697 264.433 181.616C264.304 181.535 264.16 181.482 264.009 181.46C263.709 181.39 263.399 181.39 263.099 181.33C262.943 181.295 262.794 181.235 262.659 181.15C262.497 181.018 262.358 180.859 262.249 180.68L261.709 179.89C261.683 179.83 261.637 179.781 261.579 179.75C261.514 179.729 261.444 179.729 261.379 179.75C261.076 179.775 260.772 179.775 260.469 179.75C260.227 179.689 259.999 179.58 259.799 179.43C259.416 179.103 258.993 178.828 258.539 178.61C258.174 178.513 257.797 178.466 257.419 178.47H257.219C257.151 178.438 257.09 178.394 257.039 178.34L255.849 177.34C255.811 177.296 255.763 177.262 255.709 177.24C255.656 177.23 255.602 177.23 255.549 177.24L254.249 177.32C253.515 177.327 252.785 177.212 252.089 176.98C251.435 176.822 250.76 176.765 250.089 176.81C249.954 176.835 249.815 176.835 249.679 176.81C249.592 176.768 249.514 176.711 249.449 176.64L248.789 176.05C248.621 175.874 248.414 175.741 248.185 175.661C247.955 175.581 247.71 175.556 247.469 175.59H244.599C244.371 175.603 244.156 175.703 243.999 175.87C243.869 175.99 243.689 176.32 243.499 176.3C243.017 176.294 242.538 176.217 242.079 176.07C241.639 175.88 241.259 175.6 240.839 175.39C240.764 175.35 240.683 175.323 240.599 175.31C240.51 175.29 240.418 175.29 240.329 175.31L238.489 175.92C238.45 175.928 238.414 175.949 238.389 175.98C238.389 175.98 238.389 176.06 238.389 176.11C238.409 176.336 238.409 176.564 238.389 176.79C238.393 176.825 238.388 176.86 238.376 176.893C238.364 176.926 238.344 176.956 238.319 176.98C238.264 177.001 238.204 177.001 238.149 176.98H236.939L235.939 177.6C235.735 177.743 235.497 177.829 235.249 177.85C235.029 177.85 234.799 177.85 234.579 177.93C234.359 178.01 234.179 177.93 233.989 177.93C233.83 177.955 233.686 178.041 233.589 178.17C233.499 178.32 233.489 178.54 233.329 178.63C233.269 178.639 233.209 178.639 233.149 178.63L232.069 178.75L231.609 178.82C231.357 178.88 231.112 178.967 230.879 179.08C230.688 179.204 230.484 179.304 230.269 179.38C230.044 179.415 229.814 179.415 229.589 179.38L227.999 179.27C227.973 179.279 227.945 179.279 227.919 179.27C227.919 179.27 227.919 179.21 227.859 179.16C227.759 178.82 227.679 178.45 227.559 178.16C227.507 178.037 227.43 177.926 227.334 177.833C227.238 177.741 227.124 177.668 226.999 177.62C226.768 177.499 226.547 177.359 226.339 177.2C226.244 177.115 226.132 177.054 226.009 177.02C225.926 177.01 225.842 177.01 225.759 177.02L224.649 177.14C224.319 177.14 223.939 177.14 223.649 177.33C223.524 177.452 223.426 177.599 223.359 177.76L223.129 178.22C223.112 178.263 223.084 178.301 223.049 178.33C222.993 178.345 222.935 178.345 222.879 178.33H221.999C221.819 178.315 221.639 178.315 221.459 178.33L221.089 178.44C220.678 178.609 220.257 178.752 219.829 178.87C219.376 178.938 218.917 178.962 218.459 178.94C218.393 178.95 218.325 178.95 218.259 178.94C218.186 178.912 218.118 178.871 218.059 178.82L216.829 177.9C216.762 177.841 216.684 177.797 216.599 177.77H214.659C214.613 177.76 214.565 177.76 214.519 177.77C214.48 177.784 214.445 177.808 214.419 177.84C214.244 177.982 214.099 178.158 213.992 178.358C213.886 178.557 213.82 178.775 213.799 179C213.496 178.988 213.198 179.076 212.949 179.25C212.689 179.4 212.459 179.59 212.189 179.72C212.014 179.779 211.854 179.875 211.719 180C211.559 180.16 211.479 180.48 211.199 180.45H211.039C210.939 180.45 210.859 180.54 210.779 180.62C210.634 180.775 210.469 180.909 210.289 181.02C209.689 181.28 209.143 181.65 208.679 182.11C208.613 182.215 208.525 182.304 208.419 182.37C208.271 182.425 208.107 182.425 207.959 182.37C207.897 182.355 207.832 182.355 207.769 182.37C207.723 182.387 207.679 182.411 207.639 182.44C207.321 182.77 206.945 183.038 206.529 183.23C206.259 183.29 205.969 183.23 205.709 183.28C205.531 183.347 205.367 183.449 205.229 183.58C204.967 183.786 204.686 183.967 204.389 184.12C204.182 184.202 203.982 184.299 203.789 184.41C203.569 184.58 203.589 184.96 203.659 185.21H203.369C203.167 185.175 202.961 185.175 202.759 185.21C202.449 185.28 202.329 185.52 202.109 185.73C201.908 185.927 201.718 186.134 201.539 186.35Z" fill="#040707"/>
<path d="M374.301 186.72H452.301V186.14H450.091C450.091 186.14 450.001 186.05 449.971 186.01L449.861 185.89L449.601 185.6H449.551H448.871C448.681 185.61 448.491 185.61 448.301 185.6H448.031C447.961 185.6 447.921 185.51 447.851 185.5H447.731C447.531 185.5 447.361 185.57 447.171 185.6C446.941 185.661 446.7 185.661 446.471 185.6L446.141 185.45C445.981 185.396 445.817 185.356 445.651 185.33C445.501 185.33 445.461 185.33 445.221 185.33H444.621C444.365 185.314 444.111 185.277 443.861 185.22C443.569 185.175 443.272 185.175 442.981 185.22H442.811C442.392 185.265 441.97 185.265 441.551 185.22C441.191 185.22 440.861 185.13 440.501 185.1C440.141 185.07 439.751 185.1 439.371 185.04C439.038 185.016 438.704 185.016 438.371 185.04C438.039 185.084 437.705 185.104 437.371 185.1H436.591C436.347 185.101 436.103 185.118 435.861 185.15H435.811C435.623 185.082 435.429 185.035 435.231 185.01C434.997 184.964 434.759 184.944 434.521 184.95H433.951C433.801 184.95 433.671 184.95 433.521 184.95H432.991C432.651 184.95 432.301 184.95 431.991 184.95L431.391 185.03C431.051 185.03 430.691 185.03 430.331 185.09H430.011C429.891 185.1 429.771 185.1 429.651 185.09H429.471C429.197 185.041 428.919 185.017 428.641 185.02C428.081 185.02 427.541 185.08 426.991 185.11C426.849 185.125 426.708 185.152 426.571 185.19L426.091 185.3C425.881 185.3 425.661 185.38 425.461 185.44C425.268 185.519 425.071 185.585 424.871 185.64C424.581 185.7 424.231 185.71 423.931 185.74L422.931 185.84C422.811 185.855 422.69 185.855 422.571 185.84H422.351H422.271H422.151C422.019 185.815 421.883 185.815 421.751 185.84C421.751 185.84 421.681 185.84 421.641 185.84C421.598 185.849 421.554 185.849 421.511 185.84C421.426 185.813 421.335 185.813 421.251 185.84C421.135 185.855 421.017 185.855 420.901 185.84C420.861 185.846 420.821 185.846 420.781 185.84C420.715 185.824 420.647 185.824 420.581 185.84C420.504 185.845 420.427 185.845 420.351 185.84H420.131H419.911C419.811 185.83 419.711 185.83 419.611 185.84H419.561C419.491 185.84 419.441 185.84 419.381 185.84C419.305 185.825 419.227 185.825 419.151 185.84C418.891 185.84 418.661 185.9 418.411 185.93C418.062 185.97 417.71 185.97 417.361 185.93H417.001C416.908 185.915 416.814 185.915 416.721 185.93H416.351H416.141H416.001H415.741L415.181 185.99H415.131C415.074 185.985 415.02 185.968 414.971 185.94C414.898 185.929 414.824 185.929 414.751 185.94H414.441C414.33 185.926 414.22 185.906 414.111 185.88C413.992 185.855 413.87 185.855 413.751 185.88H413.671C413.628 185.889 413.584 185.889 413.541 185.88C413.356 185.824 413.163 185.8 412.971 185.81H412.871H412.791L412.381 185.68H412.301H412.231C412.091 185.69 411.951 185.69 411.811 185.68C411.682 185.654 411.55 185.654 411.421 185.68L411.291 185.6H411.241H410.861H410.801C410.677 185.635 410.549 185.651 410.421 185.65H409.931C409.915 185.644 409.897 185.644 409.881 185.65C409.805 185.667 409.726 185.667 409.651 185.65C409.567 185.665 409.489 185.699 409.421 185.75H409.361H409.151C409.151 185.75 409.151 185.75 409.151 185.81C409.091 185.815 409.031 185.815 408.971 185.81C408.905 185.82 408.837 185.82 408.771 185.81H408.691L408.571 185.75C408.544 185.744 408.517 185.744 408.491 185.75H408.401C408.261 185.75 408.061 185.75 407.931 185.75C407.844 185.728 407.764 185.683 407.701 185.62H407.631L406.981 185.55L406.831 185.62H406.571L405.991 185.68C405.968 185.72 405.933 185.751 405.891 185.77H405.811L405.541 185.84C405.482 185.869 405.425 185.902 405.371 185.94L405.011 185.84C404.878 185.819 404.743 185.819 404.611 185.84C404.468 185.85 404.324 185.85 404.181 185.84C404.089 185.812 403.995 185.789 403.901 185.77H403.151C402.999 185.802 402.842 185.802 402.691 185.77C402.691 185.77 402.631 185.7 402.591 185.67C402.49 185.614 402.376 185.583 402.261 185.58H401.861H401.661C401.598 185.556 401.538 185.526 401.481 185.49L401.241 185.34H401.181H400.691C400.589 185.332 400.488 185.311 400.391 185.28C400.208 185.216 400.021 185.165 399.831 185.13C399.668 185.12 399.504 185.12 399.341 185.13H399.001H398.921L398.391 184.94H398.331H397.681C397.347 184.942 397.012 184.922 396.681 184.88C396.388 184.86 396.094 184.86 395.801 184.88H395.621H395.521L395.221 184.77C395.155 184.738 395.084 184.718 395.011 184.71C394.888 184.694 394.764 184.694 394.641 184.71H393.371C393.278 184.717 393.188 184.738 393.101 184.77C393.033 184.81 392.958 184.837 392.881 184.85C392.67 184.849 392.459 184.832 392.251 184.8C392.061 184.8 391.891 184.72 391.701 184.68H391.591H391.481L390.661 184.8C390.671 184.843 390.671 184.887 390.661 184.93H390.001L389.551 185.05C389.451 185.065 389.35 185.065 389.251 185.05H388.951H388.691C388.631 185.038 388.57 185.038 388.511 185.05C388.511 185.05 388.511 185.12 388.401 185.14H388.311H387.841H387.631H387.311H387.041H386.741H386.031C385.991 185.074 385.947 185.011 385.901 184.95C385.826 184.892 385.735 184.857 385.641 184.85C385.542 184.831 385.445 184.804 385.351 184.77C385.301 184.764 385.251 184.764 385.201 184.77H385.001H384.501C384.358 184.749 384.213 184.749 384.071 184.77C384.023 184.788 383.979 184.815 383.941 184.85L383.841 184.94H383.111H382.941L382.381 185.02H381.681H381.601L381.051 184.85H380.951H379.951C379.811 184.91 379.681 184.98 379.681 185.07C379.555 185.05 379.427 185.05 379.301 185.07L378.971 185.16H378.761C378.691 185.16 378.651 185.25 378.531 185.25H378.461C378.421 185.243 378.38 185.243 378.341 185.25L378.121 185.33C377.877 185.37 377.639 185.437 377.411 185.53C377.375 185.554 377.334 185.571 377.291 185.58H377.011H376.951C376.794 185.646 376.629 185.693 376.461 185.72C376.341 185.72 376.211 185.72 376.091 185.72C376.019 185.734 375.949 185.754 375.881 185.78C375.76 185.82 375.636 185.854 375.511 185.88L375.251 185.93C375.151 185.93 375.151 186.03 375.191 186.08H374.791C374.69 186.095 374.592 186.125 374.501 186.17L374.301 186.72Z" fill="#040707"/>
<path d="M449.711 186.72H527.711V186.14H525.501C525.501 186.14 525.411 186.05 525.381 186.01L525.271 185.89C525.181 185.79 525.101 185.69 525.011 185.6H524.331C524.138 185.61 523.944 185.61 523.751 185.6H523.491C523.421 185.6 523.371 185.51 523.301 185.5H523.191C522.991 185.5 522.821 185.57 522.631 185.6C522.398 185.66 522.154 185.66 521.921 185.6L521.591 185.45C521.435 185.395 521.274 185.355 521.111 185.33C520.951 185.33 520.921 185.33 520.681 185.33H520.001C519.748 185.314 519.497 185.278 519.251 185.22C518.956 185.176 518.656 185.176 518.361 185.22H518.201C517.779 185.265 517.353 185.265 516.931 185.22C516.571 185.22 516.241 185.13 515.931 185.1C515.621 185.07 515.171 185.1 514.791 185.04C514.458 185.016 514.124 185.016 513.791 185.04C513.459 185.084 513.125 185.104 512.791 185.1H512.011C511.77 185.101 511.53 185.118 511.291 185.15H511.241H511.181C510.996 185.083 510.805 185.037 510.611 185.01C510.377 184.965 510.139 184.945 509.901 184.95H509.321C509.171 184.95 509.041 184.95 508.891 184.95H508.371C508.021 184.95 507.671 184.95 507.371 184.95L506.781 185.03C506.431 185.03 506.071 185.03 505.721 185.09H505.391C505.275 185.1 505.157 185.1 505.041 185.09H504.861C504.587 185.041 504.309 185.018 504.031 185.02C503.471 185.02 502.931 185.08 502.381 185.11C502.236 185.125 502.092 185.152 501.951 185.19L501.481 185.3C501.271 185.3 501.051 185.38 500.851 185.44C500.655 185.519 500.455 185.585 500.251 185.64C499.94 185.69 499.626 185.723 499.311 185.74L498.311 185.84C498.195 185.855 498.077 185.855 497.961 185.84H497.731H497.651H497.531C497.399 185.815 497.263 185.815 497.131 185.84C497.131 185.84 497.061 185.84 497.021 185.84C496.978 185.85 496.934 185.85 496.891 185.84C496.806 185.813 496.716 185.813 496.631 185.84C496.518 185.856 496.404 185.856 496.291 185.84C496.248 185.847 496.204 185.847 496.161 185.84C496.095 185.824 496.027 185.824 495.961 185.84C495.888 185.845 495.814 185.845 495.741 185.84H495.521C495.448 185.834 495.374 185.834 495.301 185.84C495.198 185.83 495.094 185.83 494.991 185.84C494.931 185.851 494.87 185.851 494.811 185.84C494.732 185.825 494.65 185.825 494.571 185.84C494.321 185.84 494.081 185.9 493.841 185.93C493.489 185.97 493.133 185.97 492.781 185.93H492.671C492.575 185.914 492.477 185.914 492.381 185.93H492.011H491.801H491.591H491.341L490.781 185.99H490.721C490.668 185.986 490.616 185.969 490.571 185.94C490.498 185.929 490.424 185.929 490.351 185.94H490.031C489.92 185.926 489.81 185.906 489.701 185.88C489.586 185.855 489.466 185.855 489.351 185.88H489.001C488.958 185.89 488.914 185.89 488.871 185.88C488.683 185.824 488.487 185.8 488.291 185.81H488.191H488.121L487.701 185.68H487.631H487.551C487.414 185.69 487.277 185.69 487.141 185.68C487.012 185.654 486.88 185.654 486.751 185.68L486.611 185.6H486.561H486.181C486.054 185.635 485.923 185.651 485.791 185.65H485.301C485.225 185.668 485.147 185.668 485.071 185.65C484.988 185.665 484.909 185.699 484.841 185.75H484.791H484.581H484.531C484.531 185.75 484.531 185.75 484.531 185.81C484.471 185.815 484.411 185.815 484.351 185.81C484.281 185.82 484.211 185.82 484.141 185.81H484.061L483.941 185.75C483.915 185.743 483.887 185.743 483.861 185.75H483.771C483.631 185.75 483.441 185.75 483.301 185.75C483.217 185.728 483.141 185.683 483.081 185.62H483.021L482.371 185.55L482.211 185.62H481.961L481.371 185.68C481.349 185.717 481.318 185.748 481.281 185.77H481.201L480.921 185.84C480.862 185.869 480.805 185.902 480.751 185.94L480.381 185.84C480.248 185.819 480.113 185.819 479.981 185.84C479.838 185.85 479.694 185.85 479.551 185.84C479.459 185.811 479.366 185.787 479.271 185.77H478.531C478.376 185.802 478.216 185.802 478.061 185.77C478.061 185.77 478.061 185.7 477.961 185.67C477.86 185.614 477.747 185.583 477.631 185.58H477.231H477.031L476.851 185.49L476.611 185.34H476.561H476.061C475.962 185.333 475.865 185.312 475.771 185.28C475.588 185.218 475.401 185.168 475.211 185.13C475.044 185.12 474.877 185.12 474.711 185.13H474.621H474.541L474.021 184.94H473.951H473.311C472.977 184.942 472.643 184.922 472.311 184.88C472.018 184.86 471.724 184.86 471.431 184.88H471.251H471.141L470.851 184.77C470.784 184.74 470.714 184.719 470.641 184.71C470.515 184.695 470.387 184.695 470.261 184.71H468.991C468.902 184.717 468.814 184.737 468.731 184.77C468.662 184.808 468.588 184.835 468.511 184.85C468.3 184.849 468.089 184.833 467.881 184.8C467.681 184.8 467.511 184.72 467.331 184.68H467.221H467.101L466.281 184.8C466.286 184.843 466.286 184.887 466.281 184.93H465.661L465.221 185.05C465.118 185.066 465.014 185.066 464.911 185.05H464.611H464.351C464.295 185.036 464.237 185.036 464.181 185.05C464.181 185.05 464.131 185.12 464.061 185.14H463.981H463.501H463.301H462.971H462.711H462.401H461.701C461.661 185.074 461.618 185.011 461.571 184.95C461.496 184.892 461.405 184.857 461.311 184.85L461.021 184.77C460.971 184.763 460.921 184.763 460.871 184.77H460.761H460.271C460.128 184.749 459.984 184.749 459.841 184.77C459.792 184.786 459.747 184.813 459.711 184.85L459.611 184.94H458.881H458.711L458.161 185.02H457.461H457.371L456.831 184.85H456.731H455.731C455.591 184.91 455.451 184.98 455.451 185.07C455.328 185.049 455.203 185.049 455.081 185.07C454.961 185.07 454.861 185.14 454.741 185.16H454.531C454.461 185.16 454.421 185.25 454.301 185.25H454.231C454.195 185.243 454.157 185.243 454.121 185.25L453.901 185.33C453.657 185.369 453.419 185.436 453.191 185.53C453.154 185.553 453.113 185.569 453.071 185.58H452.781H452.731C452.57 185.644 452.402 185.691 452.231 185.72C452.111 185.72 451.981 185.72 451.871 185.72C451.799 185.733 451.729 185.753 451.661 185.78L451.281 185.88L451.021 185.93C451.004 185.931 450.988 185.937 450.975 185.947C450.961 185.957 450.95 185.971 450.944 185.986C450.938 186.002 450.936 186.019 450.939 186.035C450.942 186.052 450.95 186.067 450.961 186.08H450.561C450.463 186.093 450.368 186.124 450.281 186.17L449.711 186.72Z" fill="#040707"/>
<path d="M527.68 186.72H605.68V186.14H603.48C603.48 186.14 603.4 186.05 603.36 186.01L603.25 185.89L603 185.6H602.32C602.13 185.61 601.94 185.61 601.75 185.6H601.48C601.41 185.6 601.37 185.51 601.3 185.5H601.18C600.98 185.5 600.81 185.57 600.62 185.6C600.387 185.66 600.142 185.66 599.91 185.6C599.85 185.6 599.62 185.47 599.59 185.45C599.43 185.396 599.266 185.356 599.1 185.33C598.95 185.33 598.91 185.33 598.67 185.33H598C597.744 185.314 597.49 185.277 597.24 185.22C596.948 185.175 596.651 185.175 596.36 185.22H596.19C595.771 185.265 595.348 185.265 594.93 185.22C594.57 185.22 594.23 185.13 593.93 185.1C593.63 185.07 593.18 185.1 592.79 185.04C592.457 185.015 592.123 185.015 591.79 185.04C591.458 185.083 591.124 185.104 590.79 185.1H590.01C589.769 185.102 589.528 185.118 589.29 185.15H589.24C589.051 185.085 588.857 185.038 588.66 185.01C588.426 184.964 588.188 184.944 587.95 184.95H587.37C587.23 184.95 587.09 184.95 586.94 184.95H586.42C586.08 184.95 585.73 184.95 585.42 184.95L584.82 185.03C584.48 185.03 584.11 185.03 583.76 185.09H583.43C583.313 185.1 583.196 185.1 583.08 185.09H582.9C582.626 185.041 582.348 185.017 582.07 185.02C581.51 185.02 580.97 185.08 580.42 185.11C580.278 185.124 580.137 185.151 580 185.19L579.52 185.3C579.31 185.3 579.09 185.38 578.89 185.44C578.697 185.517 578.5 185.584 578.3 185.64C577.968 185.691 577.635 185.724 577.3 185.74L576.3 185.84C576.18 185.855 576.059 185.855 575.94 185.84H575.72H575.64H575.52C575.388 185.815 575.252 185.815 575.12 185.84C575.12 185.84 575.05 185.84 575.01 185.84C574.967 185.849 574.923 185.849 574.88 185.84C574.795 185.813 574.704 185.813 574.62 185.84C574.504 185.855 574.386 185.855 574.27 185.84C574.23 185.846 574.19 185.846 574.15 185.84C574.084 185.825 574.015 185.825 573.95 185.84C573.873 185.845 573.796 185.845 573.72 185.84H573.5H573.28C573.177 185.83 573.073 185.83 572.97 185.84C572.9 185.84 572.85 185.84 572.79 185.84C572.71 185.825 572.629 185.825 572.55 185.84C572.3 185.84 572.07 185.9 571.82 185.93C571.487 185.966 571.152 185.966 570.82 185.93H570.7C570.607 185.914 570.512 185.914 570.42 185.93H570.04H569.84H569.62H569.37L568.81 185.99H568.75C568.697 185.984 568.646 185.967 568.6 185.94C568.527 185.929 568.453 185.929 568.38 185.94H568.06L567.73 185.88C567.614 185.855 567.495 185.855 567.38 185.88H567C566.957 185.89 566.912 185.89 566.87 185.88C566.685 185.825 566.492 185.801 566.3 185.81H566.2H566.12L565.7 185.68H565.63H565.56H565.14C565.011 185.654 564.878 185.654 564.75 185.68L564.61 185.6H564.22C564.096 185.634 563.968 185.651 563.84 185.65H563.35H563.29C563.217 185.668 563.142 185.668 563.07 185.65C562.986 185.663 562.906 185.697 562.84 185.75H562.78H562.57C562.57 185.75 562.57 185.75 562.57 185.81C562.51 185.815 562.45 185.815 562.39 185.81C562.323 185.82 562.256 185.82 562.19 185.81H562.11L561.99 185.75C561.99 185.75 561.99 185.75 561.91 185.75H561.82C561.67 185.75 561.48 185.75 561.34 185.75C561.257 185.726 561.181 185.681 561.12 185.62H561.05L560.4 185.55L560.25 185.62H559.99L559.41 185.68C559.387 185.72 559.352 185.751 559.31 185.77H559.23L558.95 185.84C558.88 185.84 558.84 185.91 558.78 185.94L558.42 185.84C558.284 185.819 558.146 185.819 558.01 185.84C557.867 185.85 557.723 185.85 557.58 185.84C557.491 185.811 557.401 185.787 557.31 185.77H556.56C556.405 185.802 556.245 185.802 556.09 185.77C556.09 185.77 556.09 185.7 556 185.67C555.895 185.614 555.778 185.583 555.66 185.58H555.26H555.06L554.88 185.49L554.65 185.34H554.59H554.09C553.991 185.331 553.894 185.31 553.8 185.28C553.617 185.217 553.43 185.167 553.24 185.13C553.077 185.12 552.913 185.12 552.75 185.13H552.66H552.57L552.05 184.94H551.99H551.34C551.005 184.942 550.671 184.922 550.34 184.88C550.047 184.86 549.753 184.86 549.46 184.88H549H548.9L548.6 184.77C548.534 184.738 548.463 184.718 548.39 184.71C548.267 184.695 548.143 184.695 548.02 184.71H546.75C546.657 184.716 546.566 184.736 546.48 184.77C546.411 184.808 546.337 184.835 546.26 184.85C546.049 184.849 545.838 184.832 545.63 184.8C545.44 184.8 545.27 184.72 545.08 184.68H544.97H544.85L544.04 184.8H544C544.01 184.843 544.01 184.887 544 184.93H543.39L542.94 185.05C542.84 185.065 542.739 185.065 542.64 185.05H542.34H542.07C542.014 185.039 541.956 185.039 541.9 185.05C541.9 185.05 541.9 185.12 541.78 185.14H541.7H541.23H541H540.68H540.41H540.11H539.4C539.4 185.14 539.32 185.01 539.27 184.95C539.191 184.892 539.097 184.858 539 184.85L538.71 184.77C538.663 184.764 538.616 184.764 538.57 184.77H538.46H537.96C537.817 184.749 537.672 184.749 537.53 184.77C537.482 184.788 537.438 184.815 537.4 184.85L537.3 184.94H536.57H536.41L535.85 185.02H535.15H535.07L534.52 184.85H534.42H533.42C533.28 184.91 533.15 184.98 533.15 185.07C533.024 185.049 532.895 185.049 532.77 185.07C532.658 185.106 532.545 185.136 532.43 185.16H532.22C532.155 185.215 532.074 185.246 531.99 185.25H531.92C531.883 185.244 531.846 185.244 531.81 185.25L531.59 185.33C531.346 185.369 531.108 185.436 530.88 185.53C530.842 185.553 530.802 185.569 530.76 185.58H530.47C530.309 185.646 530.141 185.693 529.97 185.72C529.86 185.72 529.73 185.72 529.61 185.72C529.538 185.734 529.468 185.754 529.4 185.78C529.278 185.82 529.155 185.854 529.03 185.88L528.76 185.93C528.743 185.931 528.727 185.937 528.713 185.947C528.7 185.957 528.689 185.971 528.683 185.986C528.677 186.002 528.675 186.019 528.678 186.035C528.681 186.052 528.688 186.067 528.7 186.08H528.31C528.209 186.093 528.111 186.124 528.02 186.17L527.68 186.72Z" fill="#040707"/>
<path d="M1260.59 185.23V188.35H1102.51C1102.43 188.361 1102.34 188.361 1102.26 188.35C1102.33 188.238 1102.41 188.131 1102.49 188.03C1102.57 187.912 1102.66 187.798 1102.75 187.69C1102.94 187.47 1103.04 187.24 1103.33 187.16C1103.51 187.135 1103.7 187.135 1103.88 187.16H1104.14C1104.09 187.029 1104.08 186.888 1104.1 186.75C1104.12 186.611 1104.18 186.481 1104.26 186.37C1104.43 186.261 1104.6 186.167 1104.78 186.09C1105.05 185.933 1105.31 185.749 1105.54 185.54C1105.66 185.414 1105.81 185.312 1105.97 185.24C1106.2 185.16 1106.47 185.24 1106.71 185.24C1106.95 185.24 1107.42 184.7 1107.71 184.45C1107.74 184.418 1107.78 184.394 1107.82 184.38C1107.88 184.36 1107.94 184.36 1107.99 184.38C1108.13 184.43 1108.28 184.43 1108.41 184.38C1108.51 184.316 1108.59 184.226 1108.64 184.12C1109.05 183.665 1109.54 183.294 1110.09 183.03C1110.26 182.91 1110.41 182.772 1110.54 182.62C1110.6 182.55 1110.67 182.46 1110.77 182.45C1110.82 182.445 1110.87 182.445 1110.91 182.45C1111.16 182.45 1111.24 182.15 1111.38 181.99C1111.5 181.874 1111.65 181.783 1111.8 181.72C1112.04 181.59 1112.25 181.4 1112.49 181.24C1112.71 181.072 1112.98 180.984 1113.25 180.99C1113.25 180.829 1113.28 180.669 1113.34 180.52H1116.74L1117.09 180.81C1117.14 180.856 1117.2 180.893 1117.26 180.92C1117.32 180.93 1117.38 180.93 1117.44 180.92C1117.86 180.945 1118.27 180.925 1118.68 180.86C1119.02 180.768 1119.36 180.648 1119.68 180.5H1125.85C1125.91 180.72 1125.95 180.94 1126.01 181.16C1126.02 181.202 1126.04 181.241 1126.07 181.27H1126.14C1126.62 181.27 1127.14 181.35 1127.57 181.37C1127.78 181.415 1127.99 181.415 1128.19 181.37C1128.38 181.291 1128.56 181.194 1128.73 181.08C1128.94 180.965 1129.16 180.877 1129.39 180.82C1129.53 180.783 1129.66 180.76 1129.8 180.75L1130.8 180.62C1130.86 180.635 1130.92 180.635 1130.97 180.62C1131.01 180.602 1131.03 180.574 1131.05 180.54H1145.28V178.22L1145.49 178.43C1145.55 178.495 1145.62 178.549 1145.7 178.59C1145.82 178.625 1145.95 178.625 1146.07 178.59C1146.67 178.555 1147.28 178.615 1147.86 178.77C1148.48 179.001 1149.14 179.117 1149.8 179.11L1150.97 179.03C1151.02 179.015 1151.07 179.015 1151.12 179.03C1151.17 179.051 1151.22 179.081 1151.25 179.12L1152.31 180.12C1152.36 180.174 1152.42 180.215 1152.48 180.24C1152.54 180.25 1152.6 180.25 1152.66 180.24H1152.8C1153.08 180.24 1153.36 180.28 1153.63 180.36C1154.05 180.579 1154.43 180.855 1154.77 181.18C1154.95 181.325 1155.15 181.434 1155.37 181.5C1155.64 181.525 1155.92 181.525 1156.19 181.5C1156.25 181.485 1156.31 181.485 1156.37 181.5C1156.42 181.539 1156.46 181.587 1156.49 181.64L1156.97 182.44C1157.06 182.616 1157.19 182.772 1157.34 182.9C1157.46 182.992 1157.6 183.054 1157.74 183.08C1158.01 183.15 1158.28 183.15 1158.55 183.21C1158.69 183.235 1158.83 183.291 1158.94 183.372C1159.06 183.453 1159.16 183.558 1159.23 183.68C1159.32 183.85 1159.34 184.04 1159.43 184.21C1159.61 184.56 1160.07 184.44 1160.38 184.44H1161.58C1161.68 184.425 1161.79 184.425 1161.89 184.44H1161.96C1162.13 184.544 1162.29 184.658 1162.45 184.78C1162.73 184.902 1163.03 184.94 1163.33 184.89C1163.62 184.882 1163.91 184.974 1164.14 185.15C1164.38 185.338 1164.62 185.509 1164.88 185.66C1164.98 185.47 1165.09 185.292 1165.23 185.13C1165.39 184.955 1165.58 184.809 1165.79 184.7C1165.85 184.655 1165.9 184.605 1165.95 184.55C1166.05 184.4 1166.12 184.23 1166.15 184.05L1167.33 183.77C1167.51 183.747 1167.68 183.703 1167.85 183.64C1167.85 183.64 1168.16 183.28 1168.17 183.28L1169.48 183.62C1169.53 183.633 1169.58 183.657 1169.62 183.69C1169.65 183.723 1169.67 183.76 1169.69 183.8C1169.78 184.02 1169.92 184.42 1170.14 184.48C1170.47 184.523 1170.81 184.523 1171.14 184.48C1171.2 184.466 1171.26 184.466 1171.32 184.48C1171.39 184.514 1171.45 184.571 1171.48 184.64L1171.73 184.97C1171.78 185.034 1171.83 185.091 1171.89 185.14C1172.02 185.185 1172.17 185.185 1172.3 185.14C1172.4 185.14 1172.58 185.14 1172.67 185.14C1172.76 185.14 1172.67 184.9 1172.74 184.82C1172.74 184.79 1172.74 184.76 1172.74 184.73C1172.77 184.701 1172.8 184.678 1172.83 184.66L1173.26 184.46C1173.3 184.443 1173.34 184.415 1173.37 184.38C1173.41 184.334 1173.44 184.283 1173.46 184.23C1173.55 184.011 1173.71 183.83 1173.92 183.72C1174.1 183.62 1174.28 183.64 1174.38 183.41C1174.4 183.333 1174.44 183.261 1174.49 183.2C1174.54 183.163 1174.6 183.146 1174.66 183.15H1175.48C1175.62 183.166 1175.77 183.151 1175.91 183.106C1176.04 183.061 1176.17 182.988 1176.27 182.89C1176.3 182.847 1176.33 182.809 1176.37 182.78C1176.41 182.771 1176.46 182.771 1176.5 182.78H1176.97C1177.03 182.765 1177.09 182.765 1177.15 182.78C1177.19 182.809 1177.22 182.847 1177.24 182.89L1177.52 183.3C1177.75 183.136 1178.03 183.058 1178.31 183.08C1178.6 183.089 1178.89 183.051 1179.16 182.97C1179.21 182.955 1179.26 182.955 1179.31 182.97C1179.37 182.987 1179.42 183.018 1179.46 183.06L1180.3 183.8C1180.35 183.849 1180.4 183.886 1180.46 183.91C1180.53 183.925 1180.6 183.925 1180.66 183.91C1180.87 183.887 1181.09 183.908 1181.29 183.974C1181.49 184.039 1181.67 184.147 1181.83 184.29C1181.91 184.36 1181.99 184.45 1182.09 184.43C1182.15 184.42 1182.21 184.396 1182.26 184.36C1182.37 184.304 1182.49 184.275 1182.62 184.275C1182.74 184.275 1182.86 184.304 1182.97 184.36C1183.19 184.488 1183.41 184.605 1183.64 184.71C1183.85 184.78 1184.07 184.79 1184.28 184.84C1184.45 184.875 1184.61 184.958 1184.73 185.08C1184.82 185.17 1184.91 185.36 1185.04 185.37C1185.08 185.38 1185.12 185.38 1185.16 185.37L1186.29 185.03C1186.46 184.973 1186.64 184.929 1186.81 184.9C1186.95 184.925 1187.1 184.925 1187.24 184.9C1187.39 184.83 1187.52 184.74 1187.66 184.66C1187.9 184.533 1188.16 184.461 1188.42 184.45C1188.42 184.35 1188.42 184.25 1188.42 184.14C1188.58 184.006 1188.78 183.925 1188.99 183.91C1189.07 183.917 1189.15 183.934 1189.23 183.96C1189.93 184.17 1190.67 184.17 1191.37 183.96C1191.85 183.754 1192.35 183.59 1192.86 183.47C1193.02 183.426 1193.18 183.426 1193.34 183.47C1193.46 183.47 1193.57 183.64 1193.7 183.57L1193.79 183.51C1193.98 183.4 1194.21 183.51 1194.42 183.51C1194.63 183.51 1194.71 183.39 1194.86 183.39C1195.01 183.39 1195.16 183.5 1195.31 183.49C1195.46 183.48 1195.61 183.35 1195.77 183.32C1195.84 183.303 1195.92 183.305 1195.99 183.326C1196.06 183.347 1196.13 183.386 1196.18 183.44C1196.26 183.52 1196.32 183.65 1196.42 183.69C1196.52 183.73 1196.93 183.49 1197.13 183.41C1197.22 183.362 1197.33 183.349 1197.42 183.375C1197.52 183.401 1197.61 183.464 1197.66 183.55C1197.67 183.604 1197.7 183.655 1197.73 183.7C1197.81 183.76 1197.91 183.7 1198 183.65C1198.09 183.6 1198.23 183.65 1198.22 183.72C1198.34 183.649 1198.48 183.606 1198.62 183.592C1198.76 183.578 1198.91 183.594 1199.04 183.64C1199.11 183.64 1199.2 183.74 1199.28 183.73C1199.36 183.72 1199.39 183.65 1199.44 183.63C1199.59 183.581 1199.75 183.581 1199.9 183.63C1200.14 183.69 1200.39 183.69 1200.62 183.63L1202.67 183.11C1203.33 182.996 1203.97 182.815 1204.58 182.57C1205.05 182.33 1205.35 181.77 1205.79 181.46C1206.2 181.188 1206.63 180.941 1207.07 180.72C1207.4 180.54 1207.71 180.34 1208.07 180.14C1208.33 179.936 1208.62 179.783 1208.93 179.69C1210.03 179.399 1211.16 179.224 1212.29 179.17C1212.87 179.196 1213.44 179.328 1213.97 179.56C1214.09 179.626 1214.21 179.673 1214.34 179.7C1214.58 179.694 1214.82 179.654 1215.05 179.58L1215.71 179.52C1216.44 179.464 1217.16 179.347 1217.87 179.17C1218.28 179.04 1218.67 178.86 1219.08 178.76C1219.77 178.617 1220.48 178.563 1221.18 178.6C1221.53 178.62 1221.89 178.62 1222.24 178.6C1222.54 178.542 1222.83 178.465 1223.12 178.37C1223.5 178.28 1223.9 178.19 1224.29 178.12C1224.79 178.086 1225.29 178.19 1225.73 178.42C1226.17 178.585 1226.57 178.852 1226.89 179.2C1226.92 179.241 1226.96 179.272 1227 179.29C1227.04 179.3 1227.08 179.3 1227.11 179.29C1227.39 179.211 1227.68 179.148 1227.96 179.1C1228.17 179.061 1228.37 179.038 1228.58 179.03C1229.1 179.03 1229.58 179.03 1230.16 179.03C1230.87 179.07 1231.59 178.968 1232.26 178.73C1232.92 178.508 1233.62 178.413 1234.32 178.45C1235.1 178.482 1235.87 178.589 1236.63 178.77C1237.35 178.95 1238.02 179.32 1238.75 179.44C1239.61 179.62 1240.5 179.561 1241.32 179.27L1241.66 179.1C1242.22 178.84 1242.86 178.8 1243.45 178.99C1243.95 179.15 1244.45 179.63 1244.98 179.6C1245.09 179.6 1245.72 179.6 1246.21 179.65C1246.7 179.7 1246.77 179.53 1247.09 179.65C1247.46 179.803 1247.8 180.028 1248.09 180.31C1248.16 180.43 1248.62 180.89 1248.76 181.09C1249.1 181.57 1249.76 181.44 1250.2 181.22C1250.49 181.08 1250.76 180.89 1251.05 180.77C1251.14 180.726 1251.23 180.693 1251.33 180.67C1251.41 180.645 1251.49 180.645 1251.57 180.67C1251.69 180.73 1251.77 181 1251.88 181.15C1252.04 181.28 1252.22 181.375 1252.42 181.43C1252.51 181.46 1252.6 181.48 1252.69 181.49C1252.99 181.545 1253.29 181.565 1253.59 181.55H1254.74C1254.78 181.541 1254.82 181.54 1254.86 181.549C1254.9 181.557 1254.94 181.575 1254.97 181.6C1255.01 181.65 1255.04 181.708 1255.06 181.77L1255.39 182.77C1255.46 182.95 1255.52 183.14 1255.58 183.32L1255.81 184C1255.92 184.23 1256 184.471 1256.05 184.72C1256.06 184.77 1256.08 184.817 1256.12 184.85C1256.17 184.87 1256.23 184.87 1256.28 184.85H1260.6L1260.59 185.23Z" fill="#040707"/>
<path d="M1252.75 185.09V186.71H1293.75L1293.05 185.71H1291.93L1291.41 185.13H1291.35C1291.26 185.097 1291.17 185.074 1291.08 185.06C1291 185.07 1290.93 185.07 1290.85 185.06C1290.78 185.024 1290.71 184.98 1290.64 184.93C1290.52 184.869 1290.38 184.835 1290.24 184.83C1290.24 184.777 1290.24 184.723 1290.24 184.67C1290.16 184.597 1290.06 184.551 1289.95 184.54C1289.91 184.534 1289.86 184.534 1289.82 184.54C1289.46 184.65 1289.07 184.65 1288.71 184.54C1288.46 184.442 1288.19 184.358 1287.93 184.29C1287.85 184.266 1287.76 184.266 1287.68 184.29C1287.68 184.29 1287.57 184.37 1287.5 184.29C1287.4 184.23 1287.28 184.29 1287.17 184.29C1287.06 184.29 1287.02 184.23 1286.94 184.23C1286.86 184.23 1286.79 184.29 1286.72 184.29C1286.65 184.29 1286.56 184.21 1286.48 184.19C1286.44 184.182 1286.4 184.183 1286.36 184.193C1286.32 184.204 1286.29 184.223 1286.26 184.25C1286.26 184.3 1286.19 184.36 1286.13 184.38C1286.07 184.4 1285.87 184.29 1285.76 184.24C1285.71 184.217 1285.66 184.211 1285.61 184.224C1285.56 184.237 1285.52 184.267 1285.49 184.31C1285.5 184.336 1285.5 184.364 1285.49 184.39C1285.49 184.39 1285.4 184.39 1285.35 184.39C1285.3 184.39 1285.23 184.39 1285.24 184.44C1285.18 184.398 1285.11 184.371 1285.04 184.363C1284.96 184.354 1284.89 184.363 1284.82 184.39C1284.82 184.39 1284.73 184.45 1284.69 184.44C1284.65 184.43 1284.63 184.44 1284.6 184.39C1284.52 184.37 1284.44 184.37 1284.36 184.39C1284.24 184.425 1284.11 184.425 1283.99 184.39L1282.92 184.11C1282.58 184.057 1282.24 183.963 1281.92 183.83C1281.68 183.71 1281.53 183.42 1281.3 183.26C1281.08 183.122 1280.86 182.995 1280.63 182.88L1280.13 182.57C1280 182.466 1279.84 182.388 1279.68 182.34C1279.11 182.191 1278.53 182.1 1277.94 182.07C1277.64 182.082 1277.34 182.149 1277.06 182.27C1277 182.304 1276.94 182.327 1276.87 182.34C1276.74 182.34 1276.62 182.32 1276.5 182.28C1276.39 182.28 1276.27 182.28 1276.16 182.28C1275.78 182.25 1275.4 182.19 1275.03 182.1C1274.83 182.03 1274.62 181.94 1274.41 181.88C1274.05 181.808 1273.68 181.781 1273.31 181.8C1273.13 181.81 1272.94 181.81 1272.76 181.8C1272.61 181.765 1272.46 181.721 1272.31 181.67L1271.7 181.55C1271.44 181.531 1271.18 181.583 1270.95 181.7C1270.72 181.787 1270.51 181.927 1270.35 182.11C1270.35 182.11 1270.35 182.11 1270.29 182.11C1270.04 182.038 1269.78 181.994 1269.52 181.98C1269.25 181.98 1268.97 181.98 1268.7 181.98C1268.33 182.006 1267.95 181.955 1267.6 181.83C1267.26 181.708 1266.89 181.66 1266.53 181.69C1266.13 181.698 1265.73 181.752 1265.34 181.85C1264.96 181.95 1264.61 182.14 1264.23 182.2C1263.78 182.291 1263.32 182.26 1262.89 182.11L1262.72 182.02C1262.43 181.881 1262.1 181.859 1261.79 181.96C1261.53 182.05 1261.27 182.3 1260.99 182.28C1260.78 182.269 1260.56 182.269 1260.35 182.28C1260.1 182.28 1260.06 182.21 1259.89 182.28C1259.7 182.362 1259.53 182.477 1259.39 182.62C1259.39 182.68 1259.11 182.93 1259.04 183.02C1258.94 183.119 1258.82 183.181 1258.68 183.195C1258.54 183.21 1258.4 183.176 1258.29 183.1C1258.11 182.98 1257.91 182.882 1257.7 182.81C1257.66 182.795 1257.62 182.795 1257.58 182.81C1257.5 182.81 1257.46 183.02 1257.39 183.09C1257.31 183.16 1257.21 183.208 1257.1 183.23C1256.91 183.285 1256.7 183.305 1256.5 183.29H1255.9C1255.86 183.275 1255.82 183.275 1255.78 183.29C1255.77 183.32 1255.77 183.35 1255.78 183.38C1255.68 183.65 1255.59 183.92 1255.5 184.19C1255.46 184.305 1255.42 184.422 1255.39 184.54C1255.33 184.656 1255.29 184.781 1255.26 184.91V184.98C1255.23 184.989 1255.2 184.989 1255.17 184.98L1252.75 185.09Z" fill="#040707"/>
<path d="M1056.55 90.6854C1055.77 83.6854 1050.85 78.4554 1045.55 79.0454C1040.25 79.6354 1036.55 85.7954 1037.38 92.8154C1038.11 99.4154 1042.51 104.425 1047.38 104.505L1046.58 106.345L1048.2 106.165C1048.99 106.79 1049.57 107.654 1049.84 108.629C1050.11 109.604 1050.06 110.64 1049.7 111.585C1049.21 112.594 1048.56 113.513 1047.77 114.305C1047.26 114.842 1046.78 115.417 1046.36 116.025C1045.64 117.136 1045.23 118.413 1045.16 119.731C1045.09 121.05 1045.36 122.364 1045.95 123.545C1046.95 125.695 1048.61 126.915 1050.35 128.215C1050.84 128.575 1051.35 128.955 1051.85 129.355C1052.35 129.755 1054.36 131.575 1053.69 133.535L1053.99 133.635C1054.73 131.485 1052.69 129.635 1052.05 129.105C1051.41 128.575 1051.05 128.315 1050.54 127.955C1048.73 126.838 1047.25 125.27 1046.24 123.405C1045.67 122.275 1045.41 121.016 1045.48 119.754C1045.55 118.491 1045.94 117.268 1046.63 116.205C1047.05 115.611 1047.51 115.046 1048.01 114.515C1048.83 113.703 1049.51 112.752 1050.01 111.705C1050.38 110.747 1050.46 109.696 1050.21 108.695C1049.97 107.695 1049.42 106.794 1048.65 106.115L1050.44 105.915L1049.3 104.345C1054.09 103.135 1057.28 97.3454 1056.55 90.6854Z" fill="#040707"/>
<path d="M1168.58 138.22C1168.58 135.84 1167.13 133.91 1165.33 133.91C1163.53 133.91 1162.08 135.84 1162.08 138.22C1162.08 140.6 1163.37 142.3 1165.02 142.51L1164.68 143.09H1165.23C1165.47 143.331 1165.63 143.643 1165.69 143.981C1165.74 144.319 1165.68 144.666 1165.53 144.97C1165.33 145.29 1165.08 145.571 1164.78 145.8C1164.59 145.967 1164.41 146.144 1164.25 146.33C1163.97 146.674 1163.78 147.085 1163.7 147.524C1163.63 147.963 1163.67 148.413 1163.83 148.83C1164.1 149.511 1164.55 150.108 1165.13 150.56L1165.59 151C1165.77 151.18 1166.35 151.84 1166.05 152.47H1166.15C1166.48 151.78 1165.86 151.08 1165.67 150.88L1165.2 150.44C1164.64 149.998 1164.2 149.42 1163.93 148.76C1163.78 148.36 1163.74 147.928 1163.81 147.507C1163.88 147.087 1164.06 146.692 1164.33 146.36C1164.49 146.178 1164.66 146.007 1164.85 145.85C1165.16 145.607 1165.42 145.313 1165.63 144.98C1165.79 144.671 1165.85 144.321 1165.8 143.976C1165.76 143.632 1165.61 143.309 1165.38 143.05H1165.99L1165.65 142.47C1167.29 142.3 1168.58 140.46 1168.58 138.22Z" fill="#FFAE00"/>
<path d="M329.468 161.68C329.237 161.912 329.107 162.227 329.107 162.555C329.107 162.883 329.237 163.198 329.468 163.43L332.968 166.92C333.201 167.151 333.515 167.281 333.843 167.281C334.171 167.281 334.486 167.151 334.718 166.92L335.068 166.56L335.908 169.78C336.338 169.36 336.118 169.14 336.538 168.71C336.958 168.28 337.188 168.5 337.618 168.08C338.048 167.66 337.828 167.43 338.258 167C338.688 166.57 338.898 166.79 339.328 166.37L336.048 165.58L336.378 165.25C336.495 165.137 336.588 165.002 336.651 164.853C336.715 164.703 336.747 164.542 336.747 164.38C336.747 164.218 336.715 164.057 336.651 163.908C336.588 163.758 336.495 163.623 336.378 163.51L332.998 159.94C332.766 159.709 332.451 159.579 332.123 159.579C331.795 159.579 331.481 159.709 331.248 159.94L330.898 160.29L330.078 157.03C329.648 157.45 329.868 157.67 329.438 158.1C329.008 158.53 328.788 158.31 328.358 158.73C327.928 159.15 328.148 159.38 327.728 159.81C327.308 160.24 327.078 160.02 326.648 160.44L329.908 161.25L329.468 161.68ZM334.658 163.37L335.028 163.01L335.428 163.41L335.068 163.78L334.658 163.37ZM332.258 160.97L332.618 160.6L334.538 162.52L334.178 162.88L332.258 160.97Z" fill="black"/>
<path d="M341.059 156.45L342.729 156.03C342.509 155.82 342.399 155.93 342.179 155.71C341.959 155.49 342.069 155.38 341.849 155.16C341.629 154.94 341.519 155.05 341.309 154.84C341.099 154.63 341.199 154.51 340.979 154.29L340.559 155.96L340.389 155.78C340.331 155.72 340.261 155.673 340.183 155.64C340.106 155.608 340.023 155.591 339.939 155.591C339.855 155.591 339.772 155.608 339.695 155.64C339.618 155.673 339.548 155.72 339.489 155.78L337.709 157.56C337.65 157.618 337.602 157.687 337.57 157.763C337.538 157.84 337.521 157.922 337.521 158.005C337.521 158.088 337.538 158.17 337.57 158.247C337.602 158.323 337.65 158.392 337.709 158.45L337.879 158.62L336.199 159.02C336.419 159.24 336.529 159.13 336.749 159.35C336.969 159.57 336.859 159.68 337.069 159.89C337.279 160.1 337.409 160 337.619 160.22C337.829 160.44 337.729 160.55 337.949 160.77L338.379 159.13L338.559 159.31C338.617 159.37 338.686 159.417 338.763 159.449C338.839 159.482 338.921 159.498 339.004 159.498C339.087 159.498 339.169 159.482 339.246 159.449C339.322 159.417 339.391 159.37 339.449 159.31L341.239 157.53C341.299 157.472 341.346 157.403 341.378 157.327C341.411 157.25 341.427 157.168 341.427 157.085C341.427 157.002 341.411 156.92 341.378 156.843C341.346 156.767 341.299 156.698 341.239 156.64L341.059 156.45ZM338.379 157.7L338.189 157.51L338.399 157.3L338.579 157.49L338.379 157.7ZM338.829 157.24L338.649 157.05L339.649 156.05L339.829 156.23L338.829 157.24Z" fill="#FFAE00"/>
<path d="M1120.72 181.119C1120.78 181.322 1120.82 181.524 1120.87 181.727C1120.88 181.765 1120.9 181.801 1120.93 181.828H1120.99C1121.43 181.828 1121.91 181.901 1122.31 181.92C1122.5 181.961 1122.69 181.961 1122.88 181.92C1123.05 181.847 1123.22 181.758 1123.38 181.653C1123.57 181.547 1123.77 181.466 1123.99 181.414C1124.11 181.38 1124.24 181.358 1124.36 181.349L1125.29 181.23C1125.34 181.243 1125.39 181.243 1125.44 181.23C1125.47 181.213 1125.5 181.187 1125.52 181.156L1120.72 181.119ZM1112.7 181.386C1112.74 181.428 1112.8 181.463 1112.85 181.487C1112.91 181.497 1112.96 181.497 1113.02 181.487C1113.4 181.511 1113.78 181.492 1114.16 181.432C1114.48 181.348 1114.79 181.237 1115.08 181.101H1112.42L1112.7 181.386ZM1145.53 129.46C1147.97 128.722 1150.11 127.221 1151.64 125.178C1153.16 123.134 1153.99 120.657 1154 118.109V115H1057V118.072C1057.07 120.606 1057.92 123.057 1059.43 125.09C1060.95 127.123 1063.06 128.64 1065.47 129.433V181.083H1057V188H1154V181.083H1145.53V129.46ZM1072.4 129.46C1074.97 128.776 1077.23 127.266 1078.85 125.164C1080.47 123.062 1081.35 120.485 1081.36 117.833C1081.36 120.326 1083.96 129.929 1093.58 129.929C1101.92 129.929 1105.56 122.396 1105.56 117.833C1105.56 122.083 1108.4 129.92 1117.66 129.92C1126.03 129.92 1129.74 121.853 1129.74 117.833C1129.74 120.463 1130.61 123.019 1132.2 125.112C1133.8 127.205 1136.04 128.719 1138.57 129.423V181.101H1072.37L1072.4 129.46ZM1112.37 181.101L1112.7 181.368C1112.74 181.41 1112.8 181.444 1112.85 181.469C1112.91 181.478 1112.96 181.478 1113.02 181.469C1113.4 181.492 1113.78 181.474 1114.16 181.414C1114.48 181.329 1114.79 181.218 1115.08 181.083L1112.37 181.101ZM1120.72 181.101C1120.78 181.303 1120.82 181.506 1120.87 181.708C1120.88 181.747 1120.9 181.782 1120.93 181.809H1120.99C1121.43 181.809 1121.91 181.883 1122.31 181.901C1122.5 181.943 1122.69 181.943 1122.88 181.901C1123.05 181.829 1123.22 181.739 1123.38 181.635C1123.57 181.528 1123.77 181.448 1123.99 181.395C1124.11 181.361 1124.24 181.34 1124.36 181.331L1125.29 181.211C1125.34 181.225 1125.39 181.225 1125.44 181.211C1125.47 181.195 1125.5 181.169 1125.52 181.138L1120.72 181.101Z" fill="black"/>
<path d="M1154 112H1057L1069.32 99.6944V92H1142.07V99.6944H1142L1154 112Z" fill="black"/>
<path d="M301.551 129.78C302.241 129.78 302.801 129.22 302.801 128.53C302.801 127.84 302.241 127.28 301.551 127.28C300.86 127.28 300.301 127.84 300.301 128.53C300.301 129.22 300.86 129.78 301.551 129.78Z" fill="#FFAE00"/>
<path d="M303.391 127.27C303.717 127.27 303.981 127.006 303.981 126.68C303.981 126.354 303.717 126.09 303.391 126.09C303.065 126.09 302.801 126.354 302.801 126.68C302.801 127.006 303.065 127.27 303.391 127.27Z" fill="#FFAE00"/>
<path opacity="0.1" d="M1325.5 153C1325.42 153.375 1325.26 153.787 1325.02 154.023C1324.79 154.258 1324.37 154.42 1324 154.5C1324.37 154.58 1324.79 154.741 1325.02 154.977C1325.26 155.213 1325.42 155.625 1325.5 156C1325.58 155.625 1325.74 155.213 1325.98 154.977C1326.21 154.741 1326.63 154.58 1327 154.5C1326.63 154.42 1326.21 154.258 1325.98 154.023C1325.74 153.787 1325.58 153.375 1325.5 153Z" fill="white"/>
<path opacity="0.5" d="M319.5 68C319.42 68.3747 319.258 68.787 319.023 69.0228C318.787 69.2584 318.375 69.4198 318 69.5001C318.375 69.5805 318.787 69.7415 319.023 69.9774C319.258 70.2132 319.42 70.6251 319.5 71C319.58 70.6251 319.742 70.2132 319.978 69.9772C320.213 69.7415 320.625 69.5802 321 69.4998C320.625 69.4197 320.213 69.2584 319.977 69.0226C319.742 68.787 319.58 68.3747 319.5 68Z" fill="white"/>
<path opacity="0.1" d="M1372.5 182C1372.42 182.375 1372.26 182.787 1372.02 183.023C1371.79 183.258 1371.37 183.42 1371 183.5C1371.37 183.58 1371.79 183.741 1372.02 183.977C1372.26 184.213 1372.42 184.625 1372.5 185C1372.58 184.625 1372.74 184.213 1372.98 183.977C1373.21 183.741 1373.63 183.58 1374 183.5C1373.63 183.42 1373.21 183.258 1372.98 183.023C1372.74 182.787 1372.58 182.375 1372.5 182Z" fill="white"/>
<path opacity="0.1" d="M350.5 107C350.42 107.375 350.258 107.787 350.023 108.023C349.787 108.258 349.375 108.42 349 108.5C349.375 108.58 349.787 108.741 350.023 108.977C350.258 109.213 350.42 109.625 350.5 110C350.58 109.625 350.742 109.213 350.978 108.977C351.213 108.741 351.625 108.58 352 108.5C351.625 108.42 351.213 108.258 350.977 108.023C350.742 107.787 350.58 107.375 350.5 107Z" fill="white"/>
<path opacity="0.1" d="M393.5 135C393.42 135.375 393.258 135.787 393.023 136.023C392.787 136.258 392.375 136.42 392 136.5C392.375 136.58 392.787 136.741 393.023 136.977C393.258 137.213 393.42 137.625 393.5 138C393.58 137.625 393.742 137.213 393.978 136.977C394.213 136.741 394.625 136.58 395 136.5C394.625 136.42 394.213 136.258 393.977 136.023C393.742 135.787 393.58 135.375 393.5 135Z" fill="white"/>
<path opacity="0.5" d="M430.5 76C430.42 76.3747 430.258 76.787 430.023 77.0228C429.787 77.2584 429.375 77.4198 429 77.5001C429.375 77.5805 429.787 77.7415 430.023 77.9774C430.258 78.2132 430.42 78.6251 430.5 79C430.58 78.6251 430.742 78.2132 430.978 77.9772C431.213 77.7415 431.625 77.5802 432 77.4998C431.625 77.4197 431.213 77.2584 430.977 77.0226C430.742 76.787 430.58 76.3747 430.5 76Z" fill="white"/>
<path opacity="0.1" d="M1020.5 153C1020.42 153.375 1020.26 153.787 1020.02 154.023C1019.79 154.258 1019.37 154.42 1019 154.5C1019.37 154.58 1019.79 154.741 1020.02 154.977C1020.26 155.213 1020.42 155.625 1020.5 156C1020.58 155.625 1020.74 155.213 1020.98 154.977C1021.21 154.741 1021.63 154.58 1022 154.5C1021.63 154.42 1021.21 154.258 1020.98 154.023C1020.74 153.787 1020.58 153.375 1020.5 153Z" fill="white"/>
<path opacity="0.5" d="M723.5 126C723.42 126.375 723.258 126.787 723.023 127.023C722.787 127.258 722.375 127.42 722 127.5C722.375 127.58 722.787 127.741 723.023 127.977C723.258 128.213 723.42 128.625 723.5 129C723.58 128.625 723.742 128.213 723.978 127.977C724.213 127.741 724.625 127.58 725 127.5C724.625 127.42 724.213 127.258 723.977 127.023C723.742 126.787 723.58 126.375 723.5 126Z" fill="white"/>
<path opacity="0.1" d="M998.5 90C998.42 90.3747 998.258 90.787 998.023 91.0228C997.787 91.2584 997.375 91.4198 997 91.5001C997.375 91.5805 997.787 91.7415 998.023 91.9774C998.258 92.2132 998.42 92.6251 998.5 93C998.58 92.6251 998.742 92.2132 998.978 91.9772C999.213 91.7415 999.625 91.5802 1000 91.4998C999.625 91.4197 999.213 91.2584 998.977 91.0226C998.742 90.787 998.58 90.3747 998.5 90Z" fill="white"/>
<path opacity="0.1" d="M1190.5 116C1190.42 116.375 1190.26 116.787 1190.02 117.023C1189.79 117.258 1189.37 117.42 1189 117.5C1189.37 117.58 1189.79 117.741 1190.02 117.977C1190.26 118.213 1190.42 118.625 1190.5 119C1190.58 118.625 1190.74 118.213 1190.98 117.977C1191.21 117.741 1191.63 117.58 1192 117.5C1191.63 117.42 1191.21 117.258 1190.98 117.023C1190.74 116.787 1190.58 116.375 1190.5 116Z" fill="white"/>
<path opacity="0.5" d="M402.5 165C402.42 165.375 402.258 165.787 402.023 166.023C401.787 166.258 401.375 166.42 401 166.5C401.375 166.58 401.787 166.741 402.023 166.977C402.258 167.213 402.42 167.625 402.5 168C402.58 167.625 402.742 167.213 402.978 166.977C403.213 166.741 403.625 166.58 404 166.5C403.625 166.42 403.213 166.258 402.977 166.023C402.742 165.787 402.58 165.375 402.5 165Z" fill="white"/>
<path opacity="0.5" d="M1131.5 87C1131.42 87.3747 1131.26 87.787 1131.02 88.0228C1130.79 88.2584 1130.37 88.4198 1130 88.5001C1130.37 88.5805 1130.79 88.7415 1131.02 88.9774C1131.26 89.2132 1131.42 89.6251 1131.5 90C1131.58 89.6251 1131.74 89.2132 1131.98 88.9772C1132.21 88.7415 1132.63 88.5802 1133 88.4998C1132.63 88.4197 1132.21 88.2584 1131.98 88.0226C1131.74 87.787 1131.58 87.3747 1131.5 87Z" fill="white"/>
<path opacity="0.5" d="M1137.5 109C1137.42 109.375 1137.26 109.787 1137.02 110.023C1136.79 110.258 1136.37 110.42 1136 110.5C1136.37 110.58 1136.79 110.741 1137.02 110.977C1137.26 111.213 1137.42 111.625 1137.5 112C1137.58 111.625 1137.74 111.213 1137.98 110.977C1138.21 110.741 1138.63 110.58 1139 110.5C1138.63 110.42 1138.21 110.258 1137.98 110.023C1137.74 109.787 1137.58 109.375 1137.5 109Z" fill="white"/>
<path opacity="0.5" d="M950.5 134C950.42 134.375 950.258 134.787 950.023 135.023C949.787 135.258 949.375 135.42 949 135.5C949.375 135.58 949.787 135.741 950.023 135.977C950.258 136.213 950.42 136.625 950.5 137C950.58 136.625 950.742 136.213 950.978 135.977C951.213 135.741 951.625 135.58 952 135.5C951.625 135.42 951.213 135.258 950.977 135.023C950.742 134.787 950.58 134.375 950.5 134Z" fill="white"/>
<path opacity="0.5" d="M891.5 123C891.42 123.375 891.258 123.787 891.023 124.023C890.787 124.258 890.375 124.42 890 124.5C890.375 124.58 890.787 124.741 891.023 124.977C891.258 125.213 891.42 125.625 891.5 126C891.58 125.625 891.742 125.213 891.978 124.977C892.213 124.741 892.625 124.58 893 124.5C892.625 124.42 892.213 124.258 891.977 124.023C891.742 123.787 891.58 123.375 891.5 123Z" fill="white"/>
<path opacity="0.5" d="M691 157C690.946 157.375 690.839 157.787 690.682 158.023C690.525 158.258 690.25 158.42 690 158.5C690.25 158.58 690.525 158.741 690.682 158.977C690.839 159.213 690.947 159.625 691 160C691.054 159.625 691.161 159.213 691.318 158.977C691.475 158.741 691.75 158.58 692 158.5C691.75 158.42 691.475 158.258 691.318 158.023C691.161 157.787 691.053 157.375 691 157Z" fill="white"/>
<path opacity="0.5" d="M511 158C510.946 158.375 510.839 158.787 510.682 159.023C510.525 159.258 510.25 159.42 510 159.5C510.25 159.58 510.525 159.741 510.682 159.977C510.839 160.213 510.947 160.625 511 161C511.054 160.625 511.161 160.213 511.318 159.977C511.475 159.741 511.75 159.58 512 159.5C511.75 159.42 511.475 159.258 511.318 159.023C511.161 158.787 511.053 158.375 511 158Z" fill="white"/>
<path opacity="0.1" d="M561.5 158C561.42 158.375 561.258 158.787 561.023 159.023C560.787 159.258 560.375 159.42 560 159.5C560.375 159.58 560.787 159.741 561.023 159.977C561.258 160.213 561.42 160.625 561.5 161C561.58 160.625 561.742 160.213 561.978 159.977C562.213 159.741 562.625 159.58 563 159.5C562.625 159.42 562.213 159.258 561.977 159.023C561.742 158.787 561.58 158.375 561.5 158Z" fill="white"/>
<path opacity="0.2" d="M1257.5 133C1257.37 133.625 1257.1 134.312 1256.7 134.705C1256.31 135.097 1255.62 135.366 1255 135.5C1255.62 135.634 1256.31 135.902 1256.7 136.296C1257.1 136.689 1257.37 137.375 1257.5 138C1257.63 137.375 1257.9 136.689 1258.3 136.295C1258.69 135.902 1259.38 135.634 1260 135.5C1259.38 135.366 1258.69 135.097 1258.3 134.704C1257.9 134.312 1257.63 133.625 1257.5 133Z" fill="white"/>
<path opacity="0.2" d="M460.5 166C460.366 166.625 460.097 167.312 459.704 167.705C459.311 168.097 458.625 168.366 458 168.5C458.625 168.634 459.311 168.902 459.704 169.296C460.097 169.689 460.367 170.375 460.5 171C460.634 170.375 460.903 169.689 461.296 169.295C461.689 168.902 462.376 168.634 463 168.5C462.376 168.366 461.689 168.097 461.296 167.704C460.903 167.312 460.633 166.625 460.5 166Z" fill="white"/>
<path opacity="0.2" d="M249.5 49C249.366 49.6245 249.097 50.3116 248.704 50.7046C248.311 51.0973 247.625 51.3664 247 51.5001C247.625 51.6341 248.311 51.9024 248.704 52.2957C249.097 52.6886 249.367 53.3751 249.5 54C249.634 53.3751 249.903 52.6886 250.296 52.2954C250.689 51.9025 251.376 51.6336 252 51.4996C251.376 51.3661 250.689 51.0973 250.296 50.7043C249.903 50.3117 249.633 49.6246 249.5 49Z" fill="white"/>
<path opacity="0.1" d="M1158.5 148C1158.37 148.625 1158.1 149.312 1157.7 149.705C1157.31 150.097 1156.62 150.366 1156 150.5C1156.62 150.634 1157.31 150.902 1157.7 151.296C1158.1 151.689 1158.37 152.375 1158.5 153C1158.63 152.375 1158.9 151.689 1159.3 151.295C1159.69 150.902 1160.38 150.634 1161 150.5C1160.38 150.366 1159.69 150.097 1159.3 149.704C1158.9 149.312 1158.63 148.625 1158.5 148Z" fill="white"/>
<path opacity="0.1" d="M159.5 71C159.366 71.6245 159.097 72.3116 158.704 72.7046C158.311 73.0973 157.625 73.3664 157 73.5001C157.625 73.6341 158.311 73.9024 158.704 74.2957C159.097 74.6886 159.367 75.3751 159.5 76C159.634 75.3751 159.903 74.6886 160.296 74.2954C160.689 73.9025 161.376 73.6336 162 73.4996C161.376 73.3661 160.689 73.0973 160.296 72.7043C159.903 72.3117 159.633 71.6246 159.5 71Z" fill="white"/>
<path opacity="0.1" d="M156.5 126C156.366 126.625 156.097 127.312 155.704 127.705C155.311 128.097 154.625 128.366 154 128.5C154.625 128.634 155.311 128.902 155.704 129.296C156.097 129.689 156.367 130.375 156.5 131C156.634 130.375 156.903 129.689 157.296 129.295C157.689 128.902 158.376 128.634 159 128.5C158.376 128.366 157.689 128.097 157.296 127.704C156.903 127.312 156.633 126.625 156.5 126Z" fill="white"/>
<path opacity="0.2" d="M1040.5 104C1040.37 104.625 1040.1 105.312 1039.7 105.705C1039.31 106.097 1038.62 106.366 1038 106.5C1038.62 106.634 1039.31 106.902 1039.7 107.296C1040.1 107.689 1040.37 108.375 1040.5 109C1040.63 108.375 1040.9 107.689 1041.3 107.295C1041.69 106.902 1042.38 106.634 1043 106.5C1042.38 106.366 1041.69 106.097 1041.3 105.704C1040.9 105.312 1040.63 104.625 1040.5 104Z" fill="white"/>
<path opacity="0.2" d="M660.5 114C660.366 114.625 660.097 115.312 659.704 115.705C659.311 116.097 658.625 116.366 658 116.5C658.625 116.634 659.311 116.902 659.704 117.296C660.097 117.689 660.367 118.375 660.5 119C660.634 118.375 660.903 117.689 661.296 117.295C661.689 116.902 662.376 116.634 663 116.5C662.376 116.366 661.689 116.097 661.296 115.704C660.903 115.312 660.633 114.625 660.5 114Z" fill="white"/>
<path opacity="0.2" d="M491.5 122C491.366 122.625 491.097 123.312 490.704 123.705C490.311 124.097 489.625 124.366 489 124.5C489.625 124.634 490.311 124.902 490.704 125.296C491.097 125.689 491.367 126.375 491.5 127C491.634 126.375 491.903 125.689 492.296 125.295C492.689 124.902 493.376 124.634 494 124.5C493.376 124.366 492.689 124.097 492.296 123.704C491.903 123.312 491.633 122.625 491.5 122Z" fill="white"/>
<path opacity="0.2" d="M784.5 114C784.366 114.625 784.097 115.312 783.704 115.705C783.311 116.097 782.625 116.366 782 116.5C782.625 116.634 783.311 116.902 783.704 117.296C784.097 117.689 784.367 118.375 784.5 119C784.634 118.375 784.903 117.689 785.296 117.295C785.689 116.902 786.376 116.634 787 116.5C786.376 116.366 785.689 116.097 785.296 115.704C784.903 115.312 784.633 114.625 784.5 114Z" fill="white"/>
<path opacity="0.2" d="M578.5 107C578.366 107.625 578.097 108.312 577.704 108.705C577.311 109.097 576.625 109.366 576 109.5C576.625 109.634 577.311 109.902 577.704 110.296C578.097 110.689 578.367 111.375 578.5 112C578.634 111.375 578.903 110.689 579.296 110.295C579.689 109.902 580.376 109.634 581 109.5C580.376 109.366 579.689 109.097 579.296 108.704C578.903 108.312 578.633 107.625 578.5 107Z" fill="white"/>
<path opacity="0.1" d="M1069.5 54C1069.37 54.6245 1069.1 55.3116 1068.7 55.7046C1068.31 56.0973 1067.62 56.3664 1067 56.5001C1067.62 56.6341 1068.31 56.9024 1068.7 57.2957C1069.1 57.6886 1069.37 58.3751 1069.5 59C1069.63 58.3751 1069.9 57.6886 1070.3 57.2954C1070.69 56.9025 1071.38 56.6336 1072 56.4996C1071.38 56.3661 1070.69 56.0973 1070.3 55.7043C1069.9 55.3117 1069.63 54.6246 1069.5 54Z" fill="white"/>
<path opacity="0.5" d="M741.5 80C741.366 80.6245 741.097 81.3116 740.704 81.7046C740.311 82.0973 739.625 82.3664 739 82.5001C739.625 82.6341 740.311 82.9024 740.704 83.2957C741.097 83.6886 741.367 84.3751 741.5 85C741.634 84.3751 741.903 83.6886 742.296 83.2954C742.689 82.9025 743.376 82.6336 744 82.4996C743.376 82.3661 742.689 82.0973 742.296 81.7043C741.903 81.3117 741.633 80.6246 741.5 80Z" fill="white"/>
<path opacity="0.5" d="M382.5 107C382.366 107.625 382.097 108.312 381.704 108.705C381.311 109.097 380.625 109.366 380 109.5C380.625 109.634 381.311 109.902 381.704 110.296C382.097 110.689 382.367 111.375 382.5 112C382.634 111.375 382.903 110.689 383.296 110.295C383.689 109.902 384.376 109.634 385 109.5C384.376 109.366 383.689 109.097 383.296 108.704C382.903 108.312 382.633 107.625 382.5 107Z" fill="white"/>
<path opacity="0.5" d="M102.5 34C102.366 34.6245 102.097 35.3116 101.704 35.7046C101.311 36.0973 100.625 36.3664 100 36.5001C100.625 36.6341 101.311 36.9024 101.704 37.2957C102.097 37.6886 102.367 38.3751 102.5 39C102.634 38.3751 102.903 37.6886 103.296 37.2954C103.689 36.9025 104.376 36.6336 105 36.4996C104.376 36.3661 103.689 36.0973 103.296 35.7043C102.903 35.3117 102.633 34.6246 102.5 34Z" fill="white"/>
<path opacity="0.5" d="M932.5 171C932.42 171.375 932.258 171.787 932.023 172.023C931.787 172.258 931.375 172.42 931 172.5C931.375 172.58 931.787 172.741 932.023 172.977C932.258 173.213 932.42 173.625 932.5 174C932.58 173.625 932.742 173.213 932.978 172.977C933.213 172.741 933.625 172.58 934 172.5C933.625 172.42 933.213 172.258 932.977 172.023C932.742 171.787 932.58 171.375 932.5 171Z" fill="white"/>
<path opacity="0.2" d="M1205.5 167C1205.37 167.625 1205.1 168.312 1204.7 168.705C1204.31 169.097 1203.62 169.366 1203 169.5C1203.62 169.634 1204.31 169.902 1204.7 170.296C1205.1 170.689 1205.37 171.375 1205.5 172C1205.63 171.375 1205.9 170.689 1206.3 170.295C1206.69 169.902 1207.38 169.634 1208 169.5C1207.38 169.366 1206.69 169.097 1206.3 168.704C1205.9 168.312 1205.63 167.625 1205.5 167Z" fill="white"/>
<path opacity="0.2" d="M199.5 111C199.366 111.625 199.097 112.312 198.704 112.705C198.311 113.097 197.625 113.366 197 113.5C197.625 113.634 198.311 113.902 198.704 114.296C199.097 114.689 199.367 115.375 199.5 116C199.634 115.375 199.903 114.689 200.296 114.295C200.689 113.902 201.376 113.634 202 113.5C201.376 113.366 200.689 113.097 200.296 112.704C199.903 112.312 199.633 111.625 199.5 111Z" fill="white"/>
<path opacity="0.2" d="M236 106C235.946 106.25 235.839 106.525 235.682 106.682C235.525 106.839 235.25 106.947 235 107C235.25 107.054 235.525 107.161 235.682 107.318C235.839 107.475 235.947 107.75 236 108C236.054 107.75 236.161 107.475 236.318 107.318C236.475 107.161 236.75 107.053 237 107C236.75 106.946 236.475 106.839 236.318 106.682C236.161 106.525 236.053 106.25 236 106Z" fill="white"/>
<path opacity="0.5" d="M124 146C123.946 146.25 123.839 146.525 123.682 146.682C123.525 146.839 123.25 146.947 123 147C123.25 147.054 123.525 147.161 123.682 147.318C123.839 147.475 123.947 147.75 124 148C124.054 147.75 124.161 147.475 124.318 147.318C124.475 147.161 124.75 147.053 125 147C124.75 146.946 124.475 146.839 124.318 146.682C124.161 146.525 124.053 146.25 124 146Z" fill="white"/>
<path opacity="0.2" d="M181 154C180.946 154.25 180.839 154.525 180.682 154.682C180.525 154.839 180.25 154.947 180 155C180.25 155.054 180.525 155.161 180.682 155.318C180.839 155.475 180.947 155.75 181 156C181.054 155.75 181.161 155.475 181.318 155.318C181.475 155.161 181.75 155.053 182 155C181.75 154.946 181.475 154.839 181.318 154.682C181.161 154.525 181.053 154.25 181 154Z" fill="white"/>
<path opacity="0.2" d="M66.9999 131C66.9464 131.25 66.839 131.525 66.6818 131.682C66.5246 131.839 66.2498 131.947 66 132C66.2498 132.054 66.5246 132.161 66.6818 132.318C66.839 132.475 66.9466 132.75 67.0001 133C67.0536 132.75 67.1611 132.475 67.3183 132.318C67.4754 132.161 67.7502 132.053 68 132C67.7502 131.946 67.4754 131.839 67.3182 131.682C67.1611 131.525 67.0534 131.25 66.9999 131Z" fill="white"/>
<path opacity="0.5" d="M85.4998 177C85.366 177.625 85.0975 178.312 84.7044 178.705C84.3114 179.097 83.6245 179.366 83 179.5C83.6245 179.634 84.3114 179.902 84.7044 180.296C85.0975 180.689 85.3666 181.375 85.5003 182C85.634 181.375 85.9026 180.689 86.2958 180.295C86.6886 179.902 87.3756 179.634 88 179.5C87.3756 179.366 86.6886 179.097 86.2956 178.704C85.9026 178.312 85.6334 177.625 85.4998 177Z" fill="white"/>
<path opacity="0.2" d="M105.5 101C105.366 101.625 105.097 102.312 104.704 102.705C104.311 103.097 103.625 103.366 103 103.5C103.625 103.634 104.311 103.902 104.704 104.296C105.097 104.689 105.367 105.375 105.5 106C105.634 105.375 105.903 104.689 106.296 104.295C106.689 103.902 107.376 103.634 108 103.5C107.376 103.366 106.689 103.097 106.296 102.704C105.903 102.312 105.633 101.625 105.5 101Z" fill="white"/>
<path opacity="0.5" d="M1295.5 89C1295.37 89.6245 1295.1 90.3116 1294.7 90.7046C1294.31 91.0973 1293.62 91.3664 1293 91.5001C1293.62 91.6341 1294.31 91.9024 1294.7 92.2957C1295.1 92.6886 1295.37 93.3751 1295.5 94C1295.63 93.3751 1295.9 92.6886 1296.3 92.2954C1296.69 91.9025 1297.38 91.6336 1298 91.4996C1297.38 91.3661 1296.69 91.0973 1296.3 90.7043C1295.9 90.3117 1295.63 89.6246 1295.5 89Z" fill="white"/>
<path opacity="0.1" d="M1368.5 0C1368.37 0.624547 1368.1 1.31162 1367.7 1.7046C1367.31 2.09729 1366.62 2.3664 1366 2.50013C1366.62 2.63414 1367.31 2.90242 1367.7 3.29566C1368.1 3.6886 1368.37 4.37513 1368.5 5C1368.63 4.37513 1368.9 3.68864 1369.3 3.2954C1369.69 2.90245 1370.38 2.6336 1371 2.49962C1370.38 2.36611 1369.69 2.09733 1369.3 1.70435C1368.9 1.31165 1368.63 0.624579 1368.5 0Z" fill="white"/>
<path opacity="0.5" d="M1225.5 63C1225.37 63.6245 1225.1 64.3116 1224.7 64.7046C1224.31 65.0973 1223.62 65.3664 1223 65.5001C1223.62 65.6341 1224.31 65.9024 1224.7 66.2957C1225.1 66.6886 1225.37 67.3751 1225.5 68C1225.63 67.3751 1225.9 66.6886 1226.3 66.2954C1226.69 65.9025 1227.38 65.6336 1228 65.4996C1227.38 65.3661 1226.69 65.0973 1226.3 64.7043C1225.9 64.3117 1225.63 63.6246 1225.5 63Z" fill="white"/>
</svg>
