<svg width="20" height="21" viewBox="0 0 20 21" fill="none" xmlns="http://www.w3.org/2000/svg">
<mask id="mask0_2864_1333" style="mask-type:alpha" maskUnits="userSpaceOnUse" x="0" y="0" width="20" height="21">
<rect y="0.705566" width="20" height="20" fill="#D9D9D9"/>
</mask>
<g mask="url(#mask0_2864_1333)">
<path d="M0 15.7056V14.4764C0 13.7681 0.3125 13.2125 0.9375 12.8097C1.5625 12.407 2.41667 12.2056 3.5 12.2056C3.70833 12.2056 3.91667 12.216 4.125 12.2368C4.33333 12.2576 4.54167 12.2889 4.75 12.3306C4.51389 12.6083 4.32986 12.9208 4.19792 13.2681C4.06597 13.6153 4 13.9664 4 14.3214V15.7056H0ZM5 15.7056V14.4347C5 14.0478 5.10069 13.6941 5.30208 13.3737C5.50347 13.0533 5.77083 12.8097 6.10417 12.6431C6.71528 12.3375 7.34722 12.1049 8 11.9451C8.65278 11.7854 9.31618 11.7056 9.99021 11.7056C10.6773 11.7056 11.3472 11.7854 12 11.9451C12.6528 12.1049 13.2847 12.3375 13.8958 12.6431C14.2292 12.8097 14.4965 13.0533 14.6979 13.3737C14.8993 13.6941 15 14.0478 15 14.4347V15.7056H5ZM16 15.7056V14.302C16 13.9277 15.934 13.575 15.8021 13.2439C15.6701 12.9128 15.4861 12.6083 15.25 12.3306C15.4861 12.2889 15.7049 12.2576 15.9062 12.2368C16.1076 12.216 16.3056 12.2056 16.5 12.2056C17.5833 12.2056 18.4375 12.407 19.0625 12.8097C19.6875 13.2125 20 13.7681 20 14.4764V15.7056H16ZM6.54167 14.2056H13.4583C13.3611 13.9695 12.9479 13.7438 12.2188 13.5285C11.4896 13.3132 10.75 13.2056 10 13.2056C9.25 13.2056 8.51042 13.3132 7.78125 13.5285C7.05208 13.7438 6.63889 13.9695 6.54167 14.2056ZM3.49563 11.2056C3.08188 11.2056 2.72917 11.0595 2.4375 10.7674C2.14583 10.4755 2 10.1245 2 9.71432C2 9.29182 2.14604 8.93473 2.43813 8.64307C2.73007 8.3514 3.08111 8.20557 3.49125 8.20557C3.91375 8.20557 4.27083 8.34973 4.5625 8.63807C4.85417 8.9264 5 9.28369 5 9.70994C5 10.1237 4.85583 10.4764 4.5675 10.7681C4.27917 11.0597 3.92188 11.2056 3.49563 11.2056ZM16.4956 11.2056C16.0819 11.2056 15.7292 11.0595 15.4375 10.7674C15.1458 10.4755 15 10.1245 15 9.71432C15 9.29182 15.146 8.93473 15.4381 8.64307C15.7301 8.3514 16.0811 8.20557 16.4913 8.20557C16.9138 8.20557 17.2708 8.34973 17.5625 8.63807C17.8542 8.9264 18 9.28369 18 9.70994C18 10.1237 17.8558 10.4764 17.5675 10.7681C17.2792 11.0597 16.9219 11.2056 16.4956 11.2056ZM9.98958 10.7056C9.30208 10.7056 8.71528 10.4625 8.22917 9.9764C7.74306 9.49029 7.5 8.90001 7.5 8.20557C7.5 7.51112 7.74306 6.92084 8.22917 6.43473C8.71528 5.94862 9.30556 5.70557 10 5.70557C10.6944 5.70557 11.2847 5.94862 11.7708 6.43473C12.2569 6.92084 12.5 7.51459 12.5 8.21598C12.5 8.90348 12.2569 9.49029 11.7708 9.9764C11.2847 10.4625 10.691 10.7056 9.98958 10.7056ZM10 9.20557C10.2833 9.20557 10.5208 9.10973 10.7125 8.91807C10.9042 8.7264 11 8.4889 11 8.20557C11 7.92223 10.9042 7.68473 10.7125 7.49307C10.5208 7.3014 10.2833 7.20557 10 7.20557C9.71667 7.20557 9.47917 7.3014 9.2875 7.49307C9.09583 7.68473 9 7.92223 9 8.20557C9 8.4889 9.09583 8.7264 9.2875 8.91807C9.47917 9.10973 9.71667 9.20557 10 9.20557Z" fill="#FFAE00"/>
</g>
</svg>
