<svg width="1440" height="276" viewBox="0 0 1440 276" fill="none" xmlns="http://www.w3.org/2000/svg">
<path opacity="0.1" d="M1277.5 178C1277.42 178.375 1277.26 178.787 1277.02 179.023C1276.79 179.258 1276.37 179.42 1276 179.5C1276.37 179.58 1276.79 179.741 1277.02 179.977C1277.26 180.213 1277.42 180.625 1277.5 181C1277.58 180.625 1277.74 180.213 1277.98 179.977C1278.21 179.741 1278.63 179.58 1279 179.5C1278.63 179.42 1278.21 179.258 1277.98 179.023C1277.74 178.787 1277.58 178.375 1277.5 178Z" fill="white"/>
<path opacity="0.5" d="M295.5 118C295.42 118.375 295.258 118.787 295.023 119.023C294.787 119.258 294.375 119.42 294 119.5C294.375 119.58 294.787 119.741 295.023 119.977C295.258 120.213 295.42 120.625 295.5 121C295.58 120.625 295.742 120.213 295.978 119.977C296.213 119.741 296.625 119.58 297 119.5C296.625 119.42 296.213 119.258 295.977 119.023C295.742 118.787 295.58 118.375 295.5 118Z" fill="white"/>
<path opacity="0.1" d="M1363.5 182C1363.42 182.375 1363.26 182.787 1363.02 183.023C1362.79 183.258 1362.37 183.42 1362 183.5C1362.37 183.58 1362.79 183.741 1363.02 183.977C1363.26 184.213 1363.42 184.625 1363.5 185C1363.58 184.625 1363.74 184.213 1363.98 183.977C1364.21 183.741 1364.63 183.58 1365 183.5C1364.63 183.42 1364.21 183.258 1363.98 183.023C1363.74 182.787 1363.58 182.375 1363.5 182Z" fill="white"/>
<path opacity="0.1" d="M323.5 54C323.42 54.3747 323.258 54.787 323.023 55.0228C322.787 55.2584 322.375 55.4198 322 55.5001C322.375 55.5805 322.787 55.7415 323.023 55.9774C323.258 56.2132 323.42 56.6251 323.5 57C323.58 56.6251 323.742 56.2132 323.978 55.9772C324.213 55.7415 324.625 55.5802 325 55.4998C324.625 55.4197 324.213 55.2584 323.977 55.0226C323.742 54.787 323.58 54.3747 323.5 54Z" fill="white"/>
<path opacity="0.5" d="M421.5 76C421.42 76.3747 421.258 76.787 421.023 77.0228C420.787 77.2584 420.375 77.4198 420 77.5001C420.375 77.5805 420.787 77.7415 421.023 77.9774C421.258 78.2132 421.42 78.6251 421.5 79C421.58 78.6251 421.742 78.2132 421.978 77.9772C422.213 77.7415 422.625 77.5802 423 77.4998C422.625 77.4197 422.213 77.2584 421.977 77.0226C421.742 76.787 421.58 76.3747 421.5 76Z" fill="white"/>
<path opacity="0.1" d="M1005.5 163C1005.42 163.375 1005.26 163.787 1005.02 164.023C1004.79 164.258 1004.37 164.42 1004 164.5C1004.37 164.58 1004.79 164.741 1005.02 164.977C1005.26 165.213 1005.42 165.625 1005.5 166C1005.58 165.625 1005.74 165.213 1005.98 164.977C1006.21 164.741 1006.63 164.58 1007 164.5C1006.63 164.42 1006.21 164.258 1005.98 164.023C1005.74 163.787 1005.58 163.375 1005.5 163Z" fill="white"/>
<path opacity="0.5" d="M717.5 149C717.42 149.375 717.258 149.787 717.023 150.023C716.787 150.258 716.375 150.42 716 150.5C716.375 150.58 716.787 150.741 717.023 150.977C717.258 151.213 717.42 151.625 717.5 152C717.58 151.625 717.742 151.213 717.978 150.977C718.213 150.741 718.625 150.58 719 150.5C718.625 150.42 718.213 150.258 717.977 150.023C717.742 149.787 717.58 149.375 717.5 149Z" fill="white"/>
<path opacity="0.5" d="M778.5 185C778.42 185.375 778.258 185.787 778.023 186.023C777.787 186.258 777.375 186.42 777 186.5C777.375 186.58 777.787 186.741 778.023 186.977C778.258 187.213 778.42 187.625 778.5 188C778.58 187.625 778.742 187.213 778.978 186.977C779.213 186.741 779.625 186.58 780 186.5C779.625 186.42 779.213 186.258 778.977 186.023C778.742 185.787 778.58 185.375 778.5 185Z" fill="white"/>
<path opacity="0.1" d="M994.5 119C994.42 119.375 994.258 119.787 994.023 120.023C993.787 120.258 993.375 120.42 993 120.5C993.375 120.58 993.787 120.741 994.023 120.977C994.258 121.213 994.42 121.625 994.5 122C994.58 121.625 994.742 121.213 994.978 120.977C995.213 120.741 995.625 120.58 996 120.5C995.625 120.42 995.213 120.258 994.977 120.023C994.742 119.787 994.58 119.375 994.5 119Z" fill="white"/>
<path opacity="0.1" d="M1209.5 122C1209.42 122.375 1209.26 122.787 1209.02 123.023C1208.79 123.258 1208.37 123.42 1208 123.5C1208.37 123.58 1208.79 123.741 1209.02 123.977C1209.26 124.213 1209.42 124.625 1209.5 125C1209.58 124.625 1209.74 124.213 1209.98 123.977C1210.21 123.741 1210.63 123.58 1211 123.5C1210.63 123.42 1210.21 123.258 1209.98 123.023C1209.74 122.787 1209.58 122.375 1209.5 122Z" fill="white"/>
<path opacity="0.5" d="M1122.5 87C1122.42 87.3747 1122.26 87.787 1122.02 88.0228C1121.79 88.2584 1121.37 88.4198 1121 88.5001C1121.37 88.5805 1121.79 88.7415 1122.02 88.9774C1122.26 89.2132 1122.42 89.6251 1122.5 90C1122.58 89.6251 1122.74 89.2132 1122.98 88.9772C1123.21 88.7415 1123.63 88.5802 1124 88.4998C1123.63 88.4197 1123.21 88.2584 1122.98 88.0226C1122.74 87.787 1122.58 87.3747 1122.5 87Z" fill="white"/>
<path opacity="0.5" d="M941.5 146C941.42 146.375 941.258 146.787 941.023 147.023C940.787 147.258 940.375 147.42 940 147.5C940.375 147.58 940.787 147.741 941.023 147.977C941.258 148.213 941.42 148.625 941.5 149C941.58 148.625 941.742 148.213 941.978 147.977C942.213 147.741 942.625 147.58 943 147.5C942.625 147.42 942.213 147.258 941.977 147.023C941.742 146.787 941.58 146.375 941.5 146Z" fill="white"/>
<path opacity="0.5" d="M839.5 141C839.42 141.375 839.258 141.787 839.023 142.023C838.787 142.258 838.375 142.42 838 142.5C838.375 142.58 838.787 142.741 839.023 142.977C839.258 143.213 839.42 143.625 839.5 144C839.58 143.625 839.742 143.213 839.978 142.977C840.213 142.741 840.625 142.58 841 142.5C840.625 142.42 840.213 142.258 839.977 142.023C839.742 141.787 839.58 141.375 839.5 141Z" fill="white"/>
<path opacity="0.5" d="M667 167C666.946 167.375 666.839 167.787 666.682 168.023C666.525 168.258 666.25 168.42 666 168.5C666.25 168.58 666.525 168.741 666.682 168.977C666.839 169.213 666.947 169.625 667 170C667.054 169.625 667.161 169.213 667.318 168.977C667.475 168.741 667.75 168.58 668 168.5C667.75 168.42 667.475 168.258 667.318 168.023C667.161 167.787 667.053 167.375 667 167Z" fill="white"/>
<path opacity="0.5" d="M492 172C491.946 172.375 491.839 172.787 491.682 173.023C491.525 173.258 491.25 173.42 491 173.5C491.25 173.58 491.525 173.741 491.682 173.977C491.839 174.213 491.947 174.625 492 175C492.054 174.625 492.161 174.213 492.318 173.977C492.475 173.741 492.75 173.58 493 173.5C492.75 173.42 492.475 173.258 492.318 173.023C492.161 172.787 492.053 172.375 492 172Z" fill="white"/>
<path opacity="0.1" d="M538.5 145C538.42 145.375 538.258 145.787 538.023 146.023C537.787 146.258 537.375 146.42 537 146.5C537.375 146.58 537.787 146.741 538.023 146.977C538.258 147.213 538.42 147.625 538.5 148C538.58 147.625 538.742 147.213 538.978 146.977C539.213 146.741 539.625 146.58 540 146.5C539.625 146.42 539.213 146.258 538.977 146.023C538.742 145.787 538.58 145.375 538.5 145Z" fill="white"/>
<path opacity="0.2" d="M1236.5 154C1236.37 154.625 1236.1 155.312 1235.7 155.705C1235.31 156.097 1234.62 156.366 1234 156.5C1234.62 156.634 1235.31 156.902 1235.7 157.296C1236.1 157.689 1236.37 158.375 1236.5 159C1236.63 158.375 1236.9 157.689 1237.3 157.295C1237.69 156.902 1238.38 156.634 1239 156.5C1238.38 156.366 1237.69 156.097 1237.3 155.704C1236.9 155.312 1236.63 154.625 1236.5 154Z" fill="white"/>
<path opacity="0.2" d="M448.5 145C448.366 145.625 448.097 146.312 447.704 146.705C447.311 147.097 446.625 147.366 446 147.5C446.625 147.634 447.311 147.902 447.704 148.296C448.097 148.689 448.367 149.375 448.5 150C448.634 149.375 448.903 148.689 449.296 148.295C449.689 147.902 450.376 147.634 451 147.5C450.376 147.366 449.689 147.097 449.296 146.704C448.903 146.312 448.633 145.625 448.5 145Z" fill="white"/>
<path opacity="0.2" d="M186.5 71C186.366 71.6245 186.097 72.3116 185.704 72.7046C185.311 73.0973 184.625 73.3664 184 73.5001C184.625 73.6341 185.311 73.9024 185.704 74.2957C186.097 74.6886 186.367 75.3751 186.5 76C186.634 75.3751 186.903 74.6886 187.296 74.2954C187.689 73.9025 188.376 73.6336 189 73.4996C188.376 73.3661 187.689 73.0973 187.296 72.7043C186.903 72.3117 186.633 71.6246 186.5 71Z" fill="white"/>
<path opacity="0.1" d="M1165.5 139C1165.37 139.625 1165.1 140.312 1164.7 140.705C1164.31 141.097 1163.62 141.366 1163 141.5C1163.62 141.634 1164.31 141.902 1164.7 142.296C1165.1 142.689 1165.37 143.375 1165.5 144C1165.63 143.375 1165.9 142.689 1166.3 142.295C1166.69 141.902 1167.38 141.634 1168 141.5C1167.38 141.366 1166.69 141.097 1166.3 140.704C1165.9 140.312 1165.63 139.625 1165.5 139Z" fill="white"/>
<path opacity="0.1" d="M124.5 112C124.366 112.625 124.097 113.312 123.704 113.705C123.311 114.097 122.625 114.366 122 114.5C122.625 114.634 123.311 114.902 123.704 115.296C124.097 115.689 124.367 116.375 124.5 117C124.634 116.375 124.903 115.689 125.296 115.295C125.689 114.902 126.376 114.634 127 114.5C126.376 114.366 125.689 114.097 125.296 113.704C124.903 113.312 124.633 112.625 124.5 112Z" fill="white"/>
<path opacity="0.1" d="M257.5 91C257.366 91.6245 257.097 92.3116 256.704 92.7046C256.311 93.0973 255.625 93.3664 255 93.5001C255.625 93.6341 256.311 93.9024 256.704 94.2957C257.097 94.6886 257.367 95.3751 257.5 96C257.634 95.3751 257.903 94.6886 258.296 94.2954C258.689 93.9025 259.376 93.6336 260 93.4996C259.376 93.3661 258.689 93.0973 258.296 92.7043C257.903 92.3117 257.633 91.6246 257.5 91Z" fill="white"/>
<path opacity="0.2" d="M1056.5 116C1056.37 116.625 1056.1 117.312 1055.7 117.705C1055.31 118.097 1054.62 118.366 1054 118.5C1054.62 118.634 1055.31 118.902 1055.7 119.296C1056.1 119.689 1056.37 120.375 1056.5 121C1056.63 120.375 1056.9 119.689 1057.3 119.295C1057.69 118.902 1058.38 118.634 1059 118.5C1058.38 118.366 1057.69 118.097 1057.3 117.704C1056.9 117.312 1056.63 116.625 1056.5 116Z" fill="white"/>
<path opacity="0.2" d="M617.5 144C617.366 144.625 617.097 145.312 616.704 145.705C616.311 146.097 615.625 146.366 615 146.5C615.625 146.634 616.311 146.902 616.704 147.296C617.097 147.689 617.367 148.375 617.5 149C617.634 148.375 617.903 147.689 618.296 147.295C618.689 146.902 619.376 146.634 620 146.5C619.376 146.366 618.689 146.097 618.296 145.704C617.903 145.312 617.633 144.625 617.5 144Z" fill="white"/>
<path opacity="0.2" d="M482.5 122C482.366 122.625 482.097 123.312 481.704 123.705C481.311 124.097 480.625 124.366 480 124.5C480.625 124.634 481.311 124.902 481.704 125.296C482.097 125.689 482.367 126.375 482.5 127C482.634 126.375 482.903 125.689 483.296 125.295C483.689 124.902 484.376 124.634 485 124.5C484.376 124.366 483.689 124.097 483.296 123.704C482.903 123.312 482.633 122.625 482.5 122Z" fill="white"/>
<path opacity="0.2" d="M775.5 114C775.366 114.625 775.097 115.312 774.704 115.705C774.311 116.097 773.625 116.366 773 116.5C773.625 116.634 774.311 116.902 774.704 117.296C775.097 117.689 775.367 118.375 775.5 119C775.634 118.375 775.903 117.689 776.296 117.295C776.689 116.902 777.376 116.634 778 116.5C777.376 116.366 776.689 116.097 776.296 115.704C775.903 115.312 775.633 114.625 775.5 114Z" fill="white"/>
<path opacity="0.2" d="M569.5 107C569.366 107.625 569.097 108.312 568.704 108.705C568.311 109.097 567.625 109.366 567 109.5C567.625 109.634 568.311 109.902 568.704 110.296C569.097 110.689 569.367 111.375 569.5 112C569.634 111.375 569.903 110.689 570.296 110.295C570.689 109.902 571.376 109.634 572 109.5C571.376 109.366 570.689 109.097 570.296 108.704C569.903 108.312 569.633 107.625 569.5 107Z" fill="white"/>
<path opacity="0.1" d="M1060.5 57C1060.37 57.6245 1060.1 58.3116 1059.7 58.7046C1059.31 59.0973 1058.62 59.3664 1058 59.5001C1058.62 59.6341 1059.31 59.9024 1059.7 60.2957C1060.1 60.6886 1060.37 61.3751 1060.5 62C1060.63 61.3751 1060.9 60.6886 1061.3 60.2954C1061.69 59.9025 1062.38 59.6336 1063 59.4996C1062.38 59.3661 1061.69 59.0973 1061.3 58.7043C1060.9 58.3117 1060.63 57.6246 1060.5 57Z" fill="white"/>
<path opacity="0.5" d="M683.5 111C683.366 111.625 683.097 112.312 682.704 112.705C682.311 113.097 681.625 113.366 681 113.5C681.625 113.634 682.311 113.902 682.704 114.296C683.097 114.689 683.367 115.375 683.5 116C683.634 115.375 683.903 114.689 684.296 114.295C684.689 113.902 685.376 113.634 686 113.5C685.376 113.366 684.689 113.097 684.296 112.704C683.903 112.312 683.633 111.625 683.5 111Z" fill="white"/>
<path opacity="0.5" d="M400.5 120C400.366 120.625 400.097 121.312 399.704 121.705C399.311 122.097 398.625 122.366 398 122.5C398.625 122.634 399.311 122.902 399.704 123.296C400.097 123.689 400.367 124.375 400.5 125C400.634 124.375 400.903 123.689 401.296 123.295C401.689 122.902 402.376 122.634 403 122.5C402.376 122.366 401.689 122.097 401.296 121.704C400.903 121.312 400.633 120.625 400.5 120Z" fill="white"/>
<path opacity="0.5" d="M93.4998 34C93.366 34.6245 93.0975 35.3116 92.7044 35.7046C92.3114 36.0973 91.6245 36.3664 91 36.5001C91.6245 36.6341 92.3114 36.9024 92.7044 37.2957C93.0975 37.6886 93.3666 38.3751 93.5003 39C93.634 38.3751 93.9026 37.6886 94.2958 37.2954C94.6886 36.9025 95.3756 36.6336 96 36.4996C95.3756 36.3661 94.6886 36.0973 94.2956 35.7043C93.9026 35.3117 93.6334 34.6246 93.4998 34Z" fill="white"/>
<path opacity="0.5" d="M890.5 164C890.42 164.375 890.258 164.787 890.023 165.023C889.787 165.258 889.375 165.42 889 165.5C889.375 165.58 889.787 165.741 890.023 165.977C890.258 166.213 890.42 166.625 890.5 167C890.58 166.625 890.742 166.213 890.978 165.977C891.213 165.741 891.625 165.58 892 165.5C891.625 165.42 891.213 165.258 890.977 165.023C890.742 164.787 890.58 164.375 890.5 164Z" fill="white"/>
<path opacity="0.2" d="M1208.5 182C1208.37 182.625 1208.1 183.312 1207.7 183.705C1207.31 184.097 1206.62 184.366 1206 184.5C1206.62 184.634 1207.31 184.902 1207.7 185.296C1208.1 185.689 1208.37 186.375 1208.5 187C1208.63 186.375 1208.9 185.689 1209.3 185.295C1209.69 184.902 1210.38 184.634 1211 184.5C1210.38 184.366 1209.69 184.097 1209.3 183.704C1208.9 183.312 1208.63 182.625 1208.5 182Z" fill="white"/>
<path opacity="0.2" d="M259.5 181C259.366 181.625 259.097 182.312 258.704 182.705C258.311 183.097 257.625 183.366 257 183.5C257.625 183.634 258.311 183.902 258.704 184.296C259.097 184.689 259.367 185.375 259.5 186C259.634 185.375 259.903 184.689 260.296 184.295C260.689 183.902 261.376 183.634 262 183.5C261.376 183.366 260.689 183.097 260.296 182.704C259.903 182.312 259.633 181.625 259.5 181Z" fill="white"/>
<path opacity="0.2" d="M194.5 107C194.366 107.625 194.097 108.312 193.704 108.705C193.311 109.097 192.625 109.366 192 109.5C192.625 109.634 193.311 109.902 193.704 110.296C194.097 110.689 194.367 111.375 194.5 112C194.634 111.375 194.903 110.689 195.296 110.295C195.689 109.902 196.376 109.634 197 109.5C196.376 109.366 195.689 109.097 195.296 108.704C194.903 108.312 194.633 107.625 194.5 107Z" fill="white"/>
<path opacity="0.2" d="M290 162C289.946 162.25 289.839 162.525 289.682 162.682C289.525 162.839 289.25 162.947 289 163C289.25 163.054 289.525 163.161 289.682 163.318C289.839 163.475 289.947 163.75 290 164C290.054 163.75 290.161 163.475 290.318 163.318C290.475 163.161 290.75 163.053 291 163C290.75 162.946 290.475 162.839 290.318 162.682C290.161 162.525 290.053 162.25 290 162Z" fill="white"/>
<path opacity="0.5" d="M185 195C184.946 195.25 184.839 195.525 184.682 195.682C184.525 195.839 184.25 195.947 184 196C184.25 196.054 184.525 196.161 184.682 196.318C184.839 196.475 184.947 196.75 185 197C185.054 196.75 185.161 196.475 185.318 196.318C185.475 196.161 185.75 196.053 186 196C185.75 195.946 185.475 195.839 185.318 195.682C185.161 195.525 185.053 195.25 185 195Z" fill="white"/>
<path opacity="0.2" d="M223 155C222.946 155.25 222.839 155.525 222.682 155.682C222.525 155.839 222.25 155.947 222 156C222.25 156.054 222.525 156.161 222.682 156.318C222.839 156.475 222.947 156.75 223 157C223.054 156.75 223.161 156.475 223.318 156.318C223.475 156.161 223.75 156.053 224 156C223.75 155.946 223.475 155.839 223.318 155.682C223.161 155.525 223.053 155.25 223 155Z" fill="white"/>
<path opacity="0.2" d="M75.9999 133C75.9464 133.25 75.839 133.525 75.6818 133.682C75.5246 133.839 75.2498 133.947 75 134C75.2498 134.054 75.5246 134.161 75.6818 134.318C75.839 134.475 75.9466 134.75 76.0001 135C76.0536 134.75 76.1611 134.475 76.3183 134.318C76.4754 134.161 76.7502 134.053 77 134C76.7502 133.946 76.4754 133.839 76.3182 133.682C76.1611 133.525 76.0534 133.25 75.9999 133Z" fill="white"/>
<path opacity="0.5" d="M109.5 160C109.366 160.625 109.097 161.312 108.704 161.705C108.311 162.097 107.625 162.366 107 162.5C107.625 162.634 108.311 162.902 108.704 163.296C109.097 163.689 109.367 164.375 109.5 165C109.634 164.375 109.903 163.689 110.296 163.295C110.689 162.902 111.376 162.634 112 162.5C111.376 162.366 110.689 162.097 110.296 161.704C109.903 161.312 109.633 160.625 109.5 160Z" fill="white"/>
<path opacity="0.2" d="M160.5 145C160.366 145.625 160.097 146.312 159.704 146.705C159.311 147.097 158.625 147.366 158 147.5C158.625 147.634 159.311 147.902 159.704 148.296C160.097 148.689 160.367 149.375 160.5 150C160.634 149.375 160.903 148.689 161.296 148.295C161.689 147.902 162.376 147.634 163 147.5C162.376 147.366 161.689 147.097 161.296 146.704C160.903 146.312 160.633 145.625 160.5 145Z" fill="white"/>
<path opacity="0.5" d="M1300.5 97C1300.37 97.6245 1300.1 98.3116 1299.7 98.7046C1299.31 99.0973 1298.62 99.3664 1298 99.5001C1298.62 99.6341 1299.31 99.9024 1299.7 100.296C1300.1 100.689 1300.37 101.375 1300.5 102C1300.63 101.375 1300.9 100.689 1301.3 100.295C1301.69 99.9025 1302.38 99.6336 1303 99.4996C1302.38 99.3661 1301.69 99.0973 1301.3 98.7043C1300.9 98.3117 1300.63 97.6246 1300.5 97Z" fill="white"/>
<path opacity="0.1" d="M1359.5 0C1359.37 0.624547 1359.1 1.31162 1358.7 1.7046C1358.31 2.09729 1357.62 2.3664 1357 2.50013C1357.62 2.63414 1358.31 2.90242 1358.7 3.29566C1359.1 3.6886 1359.37 4.37513 1359.5 5C1359.63 4.37513 1359.9 3.68864 1360.3 3.2954C1360.69 2.90245 1361.38 2.6336 1362 2.49962C1361.38 2.36611 1360.69 2.09733 1360.3 1.70435C1359.9 1.31165 1359.63 0.624579 1359.5 0Z" fill="white"/>
<path opacity="0.5" d="M1203.5 72C1203.37 72.6245 1203.1 73.3116 1202.7 73.7046C1202.31 74.0973 1201.62 74.3664 1201 74.5001C1201.62 74.6341 1202.31 74.9024 1202.7 75.2957C1203.1 75.6886 1203.37 76.3751 1203.5 77C1203.63 76.3751 1203.9 75.6886 1204.3 75.2954C1204.69 74.9025 1205.38 74.6336 1206 74.4996C1205.38 74.3661 1204.69 74.0973 1204.3 73.7043C1203.9 73.3117 1203.63 72.6246 1203.5 72Z" fill="white"/>
<path d="M1127.15 253.306C1126.93 253.602 1126.64 253.847 1126.31 254.024C1125.93 254.231 1125.5 254.341 1125.06 254.342C1124.62 254.346 1124.19 254.236 1123.81 254.024C1123.69 253.957 1123.57 253.88 1123.46 253.794L1115.88 248.036C1115.73 247.91 1115.58 247.77 1115.45 247.618C1111.38 250.857 1106.57 253.056 1101.45 254.024C1097.52 254.767 1093.48 254.767 1089.55 254.024C1084.43 253.056 1079.62 250.857 1075.55 247.618C1075.42 247.772 1075.27 247.912 1075.11 248.036L1067.54 253.794C1067.43 253.88 1067.31 253.957 1067.19 254.024C1066.81 254.236 1066.38 254.346 1065.94 254.342C1065.5 254.342 1065.07 254.232 1064.68 254.024C1064.35 253.85 1064.06 253.605 1063.84 253.306C1063.63 253.032 1063.48 252.718 1063.39 252.384C1063.3 252.05 1063.28 251.702 1063.32 251.36C1063.37 251.018 1063.48 250.688 1063.66 250.39C1063.83 250.091 1064.07 249.83 1064.34 249.62L1071.57 244.111L1071.7 244.012C1066.15 237.936 1063.16 229.966 1063.34 221.753C1063.53 213.54 1066.88 205.712 1072.7 199.891C1078.52 194.071 1086.36 190.703 1094.6 190.485C1102.85 190.268 1110.86 193.218 1116.98 198.723L1111.55 204.123C1108.18 201.215 1104.08 199.279 1099.69 198.524C1095.3 197.768 1090.78 198.222 1086.63 199.835C1082.47 201.449 1078.84 204.161 1076.12 207.68C1073.4 211.199 1071.7 215.39 1071.2 219.802C1070.7 224.214 1071.41 228.68 1073.27 232.716C1075.12 236.753 1078.05 240.208 1081.74 242.709C1085.42 245.209 1089.72 246.66 1094.17 246.906C1098.62 247.151 1103.05 246.182 1106.99 244.101C1107.16 244.012 1107.33 243.922 1107.49 243.822C1108.04 243.523 1108.58 243.195 1109.1 242.826L1109.49 242.557C1112.31 240.61 1114.69 238.092 1116.48 235.167C1118.26 232.242 1119.4 228.976 1119.83 225.582C1120.26 222.188 1119.96 218.742 1118.97 215.469C1117.97 212.195 1116.29 209.168 1114.04 206.584L1119.47 201.174C1124.25 206.473 1127.11 213.207 1127.6 220.311C1128.1 227.414 1126.2 234.479 1122.21 240.385C1121.35 241.652 1120.41 242.857 1119.38 243.992L1126.74 249.6C1127.01 249.816 1127.24 250.083 1127.41 250.386C1127.58 250.689 1127.68 251.023 1127.72 251.368C1127.76 251.713 1127.73 252.062 1127.63 252.394C1127.53 252.727 1127.37 253.037 1127.15 253.306Z" fill="#4A4C4C"/>
<path d="M1116.42 222.553C1116.43 227.319 1114.8 231.946 1111.81 235.666C1108.82 239.387 1104.64 241.978 1099.97 243.011C1095.3 244.044 1090.42 243.457 1086.13 241.347C1081.84 239.237 1078.4 235.731 1076.38 231.409C1074.36 227.086 1073.89 222.207 1075.03 217.579C1076.18 212.951 1078.88 208.852 1082.68 205.959C1086.48 203.067 1091.16 201.555 1095.95 201.674C1100.73 201.792 1105.33 203.535 1108.98 206.613L1104.56 211.016C1101.61 208.703 1097.87 207.602 1094.13 207.938C1090.39 208.273 1086.91 210.02 1084.42 212.822C1081.92 215.624 1080.6 219.269 1080.71 223.012C1080.82 226.756 1082.36 230.315 1085.02 232.963C1087.68 235.611 1091.25 237.148 1095.01 237.26C1098.77 237.373 1102.43 236.051 1105.24 233.566C1108.05 231.081 1109.81 227.62 1110.14 223.89C1110.48 220.16 1109.37 216.442 1107.05 213.497L1111.46 209.094C1114.67 212.852 1116.42 217.622 1116.42 222.553Z" fill="#4A4C4C"/>
<path d="M1106.68 222.553C1106.68 225.069 1105.84 227.514 1104.28 229.492C1102.72 231.471 1100.53 232.868 1098.08 233.459C1095.62 234.049 1093.04 233.799 1090.74 232.748C1088.45 231.697 1086.58 229.906 1085.43 227.665C1084.28 225.424 1083.92 222.863 1084.41 220.395C1084.91 217.927 1086.22 215.695 1088.14 214.061C1090.06 212.426 1092.48 211.484 1095 211.385C1097.52 211.286 1100.01 212.038 1102.05 213.517L1098.39 217.164C1097.2 216.527 1095.84 216.295 1094.51 216.504C1093.18 216.712 1091.96 217.35 1091.03 218.319C1090.1 219.287 1089.51 220.534 1089.36 221.867C1089.21 223.199 1089.5 224.545 1090.19 225.696C1090.88 226.848 1091.93 227.742 1093.18 228.242C1094.43 228.741 1095.81 228.818 1097.11 228.462C1098.4 228.105 1099.55 227.333 1100.36 226.266C1101.18 225.199 1101.62 223.894 1101.62 222.553C1101.62 221.536 1101.36 220.534 1100.87 219.644L1104.54 215.988C1105.93 217.895 1106.68 220.194 1106.68 222.553Z" fill="#4A4C4C"/>
<path d="M1137.36 188.591C1137.36 189.288 1137.08 189.956 1136.58 190.448C1136.09 190.941 1135.42 191.219 1134.72 191.222H1129.41L1129.13 191.5C1129.49 191.478 1129.85 191.53 1130.19 191.652C1130.53 191.774 1130.84 191.964 1131.1 192.209C1131.36 192.455 1131.57 192.752 1131.71 193.082C1131.86 193.411 1131.93 193.766 1131.93 194.126C1131.93 194.485 1131.86 194.84 1131.71 195.169C1131.57 195.499 1131.36 195.796 1131.1 196.042C1130.84 196.287 1130.53 196.477 1130.19 196.599C1129.85 196.721 1129.49 196.773 1129.13 196.751H1123.82L1119.35 201.204C1118.56 200.338 1117.73 199.514 1116.86 198.733L1121.34 194.27C1121.33 194.224 1121.33 194.177 1121.34 194.13V188.98C1121.34 188.282 1121.62 187.614 1122.11 187.12C1122.61 186.627 1123.28 186.35 1123.98 186.35C1124.68 186.35 1125.35 186.627 1125.85 187.12C1126.34 187.614 1126.62 188.282 1126.62 188.98L1126.9 188.701C1126.89 188.655 1126.89 188.608 1126.9 188.562V183.451C1126.88 183.093 1126.93 182.734 1127.05 182.396C1127.17 182.058 1127.36 181.749 1127.61 181.488C1127.86 181.226 1128.16 181.018 1128.49 180.875C1128.82 180.733 1129.17 180.659 1129.53 180.659C1129.89 180.659 1130.25 180.733 1130.58 180.875C1130.91 181.018 1131.21 181.226 1131.46 181.488C1131.7 181.749 1131.9 182.058 1132.02 182.396C1132.14 182.734 1132.19 183.093 1132.17 183.451V185.961H1134.7C1135.05 185.959 1135.39 186.025 1135.72 186.156C1136.04 186.287 1136.33 186.48 1136.58 186.725C1136.83 186.969 1137.02 187.26 1137.16 187.58C1137.29 187.901 1137.36 188.244 1137.36 188.591Z" fill="#4A4C4C"/>
<path d="M289.953 232.135L288.973 233.871L288.591 234.531C288.494 234.664 288.429 234.816 288.402 234.977C288.375 235.139 288.385 235.304 288.433 235.46H286.548C286.548 235.574 286.548 235.655 286.548 235.737V237.367C286.548 237.807 286.357 237.986 285.916 237.994H284.33C284.249 238.006 284.167 238 284.089 237.975C284.011 237.95 283.941 237.908 283.882 237.852C283.824 237.796 283.78 237.727 283.754 237.651C283.728 237.576 283.72 237.495 283.732 237.415V235.452H277.601C277.502 235.468 277.4 235.455 277.307 235.416C277.214 235.377 277.135 235.313 277.078 235.232C277.027 235.152 277 235.061 277 234.967C277 234.873 277.027 234.781 277.078 234.702L279.371 230.693C279.528 230.408 279.503 230.375 279.188 230.375H278.54C278.445 230.387 278.348 230.37 278.264 230.327C278.179 230.283 278.11 230.215 278.066 230.131C278.027 230.046 278.013 229.952 278.026 229.86C278.039 229.767 278.079 229.68 278.141 229.61L281.082 225.649L281.181 225.511C281.264 225.389 281.231 225.307 281.073 225.307H280.558C280.462 225.324 280.362 225.31 280.274 225.268C280.186 225.226 280.114 225.157 280.068 225.072C280.021 224.987 280.004 224.89 280.017 224.795C280.031 224.699 280.075 224.611 280.143 224.541L282.868 220.614C282.903 220.579 282.931 220.537 282.951 220.492C282.951 220.435 282.951 220.361 283.017 220.296C282.949 220.272 282.88 220.253 282.81 220.239C282.68 220.251 282.549 220.251 282.419 220.239C282.286 220.239 282.112 220.158 282.07 220.068C282.052 220.002 282.049 219.933 282.06 219.865C282.072 219.798 282.098 219.734 282.137 219.677C282.602 219.017 283.1 218.373 283.582 217.729L284.687 216.263C284.953 215.912 285.243 215.912 285.518 216.263C286.348 217.379 287.179 218.495 288.01 219.62C288.057 219.682 288.091 219.753 288.109 219.829C288.128 219.905 288.131 219.983 288.118 220.06C288.076 220.255 287.86 220.239 287.686 220.247C287.511 220.255 287.337 220.296 287.162 220.321C287.245 220.459 287.312 220.614 287.411 220.752L290.036 224.541C290.211 224.802 290.227 225.014 290.036 225.177C289.931 225.252 289.808 225.3 289.679 225.315C289.513 225.315 289.33 225.315 289.156 225.315C289.087 225.323 289.019 225.342 288.957 225.372C288.973 225.441 288.998 225.506 289.031 225.568C289.654 226.383 290.277 227.263 290.917 228.102C290.97 228.155 291 228.227 291 228.302C291 228.376 290.97 228.448 290.917 228.501C290.418 229.153 289.928 229.821 289.438 230.481C289.307 230.606 289.213 230.763 289.167 230.936C289.121 231.11 289.125 231.292 289.178 231.464C289.231 231.635 289.332 231.788 289.469 231.907C289.606 232.026 289.773 232.105 289.953 232.135Z" fill="#4A4C4C"/>
<path d="M293.946 235.568H289.392C289.036 235.568 288.902 235.324 289.076 235.009L290.712 232.074C290.76 231.995 290.791 231.909 290.862 231.775C290.609 231.775 290.412 231.775 290.214 231.775C290.131 231.788 290.046 231.777 289.97 231.742C289.894 231.707 289.83 231.65 289.787 231.578C289.759 231.505 289.752 231.424 289.769 231.347C289.786 231.27 289.825 231.2 289.882 231.145C290.594 230.185 291.3 229.222 292.001 228.257C292.048 228.194 292.088 228.115 292.175 227.973C292.004 227.985 291.832 227.985 291.661 227.973C291.52 227.955 291.388 227.895 291.282 227.8C291.155 227.667 291.281 227.509 291.345 227.367C292.009 226.407 292.668 225.442 293.321 224.471C293.381 224.381 293.434 224.286 293.479 224.188C293.282 224.188 293.132 224.188 292.989 224.188C292.847 224.188 292.618 223.975 292.776 223.771C293.416 222.897 294.057 222.024 294.713 221.158C294.738 221.11 294.777 221.07 294.823 221.042C294.87 221.015 294.923 221 294.978 221C295.032 221 295.085 221.015 295.132 221.042C295.179 221.07 295.217 221.11 295.243 221.158C295.891 222.024 296.531 222.881 297.164 223.755C297.33 223.975 297.219 224.164 296.942 224.18C296.871 224.184 296.8 224.184 296.729 224.18H296.476C296.531 224.282 296.563 224.369 296.61 224.44L298.524 227.234L298.658 227.43C298.697 227.48 298.72 227.54 298.725 227.602C298.73 227.665 298.717 227.728 298.687 227.783C298.656 227.838 298.611 227.883 298.555 227.913C298.499 227.943 298.436 227.955 298.373 227.95H297.828C297.907 228.084 297.946 228.162 297.994 228.233C298.682 229.185 299.377 230.122 300.065 231.066C300.176 231.216 300.302 231.358 300.2 231.554C300.097 231.751 299.915 231.751 299.733 231.751C299.551 231.751 299.37 231.751 299.14 231.751C299.196 231.869 299.227 231.956 299.267 232.034L300.895 234.923C301.117 235.316 300.982 235.537 300.532 235.537H296.065C296.065 235.639 296.065 235.718 296.065 235.804V237.496C296.065 237.851 295.915 237.992 295.559 238H294.539C294.128 238 293.993 237.866 293.993 237.465V235.537L293.946 235.568Z" fill="#4A4C4C"/>
<path d="M1198.53 244.908V254.023H958.422V251.732L960.582 248.743H973.202L975.292 250.965H978.392V252.12H988.202L992.132 248.205L996.542 252.19L1003.07 243.224V240.833H1005.19V242.826H1009.32V244.549H1015L1020.62 238.94H1027.49V235.952L1030.33 233.132H1031.05V230.492H1034.71L1034.13 231.07H1033.13V232.266H1034.13V236.101H1036.44V235.254H1038.65V233.72H1041.15V235.155H1042.68V241.341H1044.9V238.701L1048.9 222.035V214.334H1049.67V209.642H1050.54V214.334H1051.6V221.716L1055.54 238.652V241.052H1058.04V239.807H1061.88V248.903H1064.19V244.111H1077.75V245.107H1079.48V249.999H1084.38V247.797H1087.65V251.722H1090.15V248.464H1093.51V251.045H1099.67V252.678H1101.11V249.52H1103.42V246.532H1104.86V248.823H1106.11V245.765H1106.88V244.121C1107.05 244.031 1107.22 243.942 1107.38 243.842H1109V242.846L1109.39 242.577H1112.46L1122.11 240.405L1123.9 239.996H1132.27V238.084H1139.57L1144.67 242.487V244.689H1145.73V246.412H1150L1152.11 243.423H1157.11V237.297H1158.84V239.787H1159.61V243.613H1165.19L1166.97 245.386V247.06H1168.17V243.822H1171.17V240.086H1172.17V243.922L1173.28 245.027V248.813H1176V246.701H1176.5V246.014H1187.86V247.209H1189.86V245.585H1191.86V243.653H1197.37V244.948L1198.53 244.908Z" fill="#4A4C4C"/>
<path d="M669.668 262.86C650.518 262.86 634.828 246.114 616.048 242.547C611.818 241.74 607.488 241.501 603.278 240.614C591.658 238.164 581.098 230.861 569.198 231.25C563.558 231.429 558.098 233.372 552.448 233.521C540.188 233.84 529.228 225.781 516.998 224.994C506.348 224.306 496.308 229.158 485.998 231.818C478.548 233.731 470.838 234.518 463.158 235.285L417.238 239.917C409.808 240.664 402.238 243.135 395.368 245.894C386.758 249.371 370.038 239.17 361.248 242.208C352.458 245.247 345.388 260.32 336.788 263.757C335.927 264.02 335.165 264.534 334.598 265.231C332.788 267.981 337.658 270.212 341.078 270.212L632.528 270.67L664.308 270.72C667.308 270.72 670.648 270.551 672.538 268.399C674.428 266.247 672.408 261.844 669.648 262.87" fill="#4A4C4C"/>
<path d="M724.482 253.585C719.932 253.585 716.212 247.169 711.752 245.795C710.752 245.486 709.752 245.396 708.752 245.057C706.002 244.061 703.492 241.312 700.672 241.461C699.332 241.531 698.032 242.278 696.672 242.338C693.762 242.457 691.162 239.349 688.262 239.06C685.732 238.801 683.352 240.664 680.902 241.68C679.155 242.338 677.335 242.786 675.482 243.015L662.952 245.057C661.125 245.223 659.357 245.784 657.772 246.701C655.772 248.036 654.052 250.507 651.962 251.682C649.872 252.858 647.532 252.629 645.492 253.944C645.263 254.075 645.082 254.273 644.972 254.511C644.542 255.567 645.702 256.414 646.512 256.414L715.682 256.584H723.222C723.606 256.655 724.003 256.608 724.36 256.45C724.717 256.292 725.018 256.029 725.222 255.697C725.662 254.87 725.222 253.187 724.532 253.575" fill="#4A4C4C"/>
<path d="M979.688 253.635C972.828 253.635 967.208 247.329 960.478 245.974C958.958 245.675 957.408 245.586 955.898 245.247C951.738 244.33 947.958 241.571 943.688 241.72C941.688 241.79 939.688 242.517 937.688 242.577C933.298 242.697 929.368 239.658 924.988 239.359C921.178 239.1 917.578 240.933 913.888 241.93C911.201 242.583 908.466 243.023 905.708 243.245L886.788 245.237C884.112 245.393 881.474 245.94 878.958 246.861C875.878 248.176 873.348 250.597 870.198 251.742C867.048 252.888 863.518 252.679 860.438 253.974C860.122 254.072 859.845 254.267 859.648 254.532C858.998 255.528 860.748 256.395 861.968 256.395L966.388 256.574H977.778C978.311 256.657 978.856 256.622 979.375 256.472C979.893 256.323 980.372 256.062 980.778 255.707C981.448 254.89 980.728 253.227 979.778 253.615" fill="#4A4C4C"/>
<path d="M894.719 253.505C890.939 253.505 887.839 250.029 884.129 249.281C883.299 249.122 882.439 249.072 881.609 248.883C879.319 248.375 877.229 246.89 874.879 246.94C873.769 246.94 872.689 247.379 871.569 247.408C869.149 247.478 866.989 245.805 864.569 245.635C862.469 245.496 860.489 246.502 858.449 247.06C856.967 247.419 855.459 247.659 853.939 247.777L843.519 248.883C842.042 248.969 840.587 249.271 839.199 249.78C837.499 250.497 836.099 251.842 834.369 252.469C832.639 253.097 830.689 252.977 828.989 253.695C828.816 253.75 828.666 253.858 828.559 254.003C828.199 254.571 829.159 255 829.839 255L887.389 255.089H893.669C893.957 255.132 894.252 255.112 894.532 255.029C894.812 254.946 895.07 254.804 895.289 254.611C895.669 254.163 895.289 253.246 894.719 253.456" fill="#4A4C4C"/>
<path d="M384.75 257.172H168.75V254.183L172.01 253.645L173.72 252.171H175.51L178.34 250.676L180.72 250.039L182.81 249.411L183.92 249.989L188.09 249.411L189.28 246.702H192.93L195.93 245.406L200.55 245.905L202.11 244.042L207.11 243.304C207.11 243.304 208.68 243.623 208.68 243.304C208.837 242.779 209.055 242.274 209.33 241.8H212.86L213.86 240.864L216 239.24L219 239.877L220 239.24H222.6C223.05 239.618 224.15 239.469 224.9 239.469L226.62 239.698L228.26 238.792L229.6 239.061L230.87 239.379L232.94 238.383L234.59 238.463H234.75C236.84 237.915 238.84 237.148 240.85 236.47L245.35 235.056C246.578 234.558 247.885 234.281 249.21 234.239C250.55 234.239 251.88 234.309 253.21 234.408C254.369 234.579 255.545 234.606 256.71 234.488C257.52 234.368 258.29 234.169 259.09 234.02C262.442 233.515 265.839 233.385 269.22 233.631C269.42 233.91 269.41 234.289 269.99 234.438C270.359 234.507 270.735 234.531 271.11 234.508H272.11C273.73 234.508 275.24 235.285 276.84 235.444C278.44 235.604 280.41 234.896 282.09 235.086C283.77 235.275 282.44 233.98 284.25 234.159C284.25 234.159 285.25 234.866 285.32 234.856C285.734 234.717 286.132 234.536 286.51 234.318C287.28 234.02 287.69 234.528 287.71 234.318C287.73 234.109 287.9 234.588 288.01 234.538C288.12 234.488 288.01 234.767 288.15 234.767C289.8 234.767 291.44 234.767 293.08 234.767C293.31 234.747 293.54 234.747 293.77 234.767C294.028 234.804 294.282 234.864 294.53 234.946C296.35 235.544 298.17 236.112 299.99 236.699L301.67 238.692L304.84 239.688L307.84 239.041L313.3 240.037V241.242C313.3 241.242 314.79 241.661 315.1 241.73C315.41 241.8 322.93 241.73 322.93 241.73L324.23 243.006L327.6 243.354L330.68 245.267L333.45 244.709L336.93 245.974H340L342.78 246.682L343.57 248.315L347.15 247.957L351.62 249.949L352.21 250.866L355.28 250.378L359.06 251.653L359.75 252.649H364.91L365.41 254.343L370.08 255.13H373V254.203L375.48 254.482L376.87 255.478H380.05L384.75 257.172Z" fill="#040707"/>
<path d="M1440 254H0V276H1440V254Z" fill="#040707"/>
<path d="M1074.56 255.568C1074.64 255.577 1074.72 255.577 1074.8 255.568H1232.89V252.46H1228.56C1228.51 252.478 1228.45 252.478 1228.4 252.46C1228.37 252.423 1228.35 252.378 1228.34 252.33C1228.29 252.083 1228.21 251.842 1228.1 251.613C1228.02 251.394 1227.95 251.164 1227.87 250.945C1227.7 250.427 1227.52 249.949 1227.35 249.391C1227.33 249.329 1227.3 249.271 1227.26 249.222C1227.18 249.197 1227.1 249.197 1227.03 249.222H1225.88C1225.49 249.242 1225.09 249.202 1224.71 249.102C1224.51 249.05 1224.33 248.955 1224.17 248.823C1224.02 248.704 1223.94 248.355 1223.8 248.295C1223.72 248.27 1223.64 248.27 1223.56 248.295C1223.16 248.441 1222.78 248.628 1222.43 248.853C1221.99 249.072 1221.33 249.192 1220.99 248.714C1220.85 248.524 1220.39 248.056 1220.32 247.937C1220.03 247.662 1219.69 247.439 1219.32 247.279C1219 247.16 1218.93 247.279 1218.44 247.279C1217.95 247.279 1217.32 247.279 1217.21 247.279C1216.69 247.279 1216.21 246.821 1215.68 246.662C1215.09 246.472 1214.45 246.511 1213.89 246.771L1213.55 246.94C1212.72 247.23 1211.84 247.289 1210.98 247.11C1210.26 246.925 1209.55 246.702 1208.86 246.442C1208.1 246.26 1207.33 246.157 1206.55 246.133C1205.85 246.087 1205.15 246.181 1204.49 246.412C1203.81 246.642 1203.1 246.74 1202.39 246.701C1201.86 246.701 1201.33 246.701 1200.81 246.701C1200.31 246.724 1199.82 246.808 1199.34 246.95C1199.3 246.96 1199.27 246.96 1199.23 246.95C1199.19 246.933 1199.15 246.906 1199.12 246.871C1198.8 246.521 1198.4 246.251 1197.96 246.084C1197.51 245.857 1197.02 245.757 1196.52 245.795C1196.13 245.865 1195.73 245.944 1195.34 246.034C1195.05 246.13 1194.76 246.207 1194.47 246.263C1194.12 246.299 1193.76 246.316 1193.41 246.313C1192.71 246.276 1192 246.33 1191.31 246.472C1190.9 246.582 1190.51 246.751 1190.1 246.881C1189.39 247.061 1188.67 247.178 1187.94 247.229C1187.72 247.229 1187.5 247.229 1187.28 247.289C1187.05 247.363 1186.81 247.403 1186.57 247.409C1186.44 247.381 1186.32 247.337 1186.2 247.279C1185.67 247.04 1185.1 246.905 1184.52 246.881C1183.38 246.943 1182.26 247.12 1181.16 247.409C1180.85 247.494 1180.55 247.643 1180.3 247.847C1179.98 248.046 1179.67 248.245 1179.3 248.425C1178.86 248.645 1178.43 248.891 1178.02 249.162C1177.58 249.481 1177.28 250.029 1176.81 250.268C1176.19 250.517 1175.55 250.697 1174.9 250.806L1172.9 251.334C1172.66 251.393 1172.42 251.393 1172.18 251.334C1172.03 251.29 1171.87 251.29 1171.72 251.334C1171.72 251.334 1171.62 251.423 1171.56 251.433C1171.5 251.443 1171.39 251.374 1171.31 251.344C1171.18 251.29 1171.04 251.269 1170.89 251.283C1170.75 251.297 1170.62 251.345 1170.5 251.423C1170.5 251.314 1170.36 251.294 1170.28 251.344C1170.2 251.394 1170.09 251.463 1170.01 251.344C1169.93 251.224 1170.01 251.244 1169.94 251.194C1169.89 251.108 1169.8 251.046 1169.7 251.02C1169.6 250.994 1169.5 251.006 1169.41 251.055C1169.21 251.144 1168.93 251.423 1168.7 251.334C1168.47 251.244 1168.54 251.174 1168.46 251.085C1168.41 251.031 1168.34 250.992 1168.27 250.971C1168.2 250.95 1168.12 250.948 1168.05 250.965C1167.89 250.965 1167.75 251.135 1167.59 251.145C1167.43 251.154 1167.3 251.035 1167.14 251.035C1166.98 251.035 1166.85 251.145 1166.7 251.154C1166.55 251.164 1166.26 251.025 1166.07 251.154L1165.98 251.214C1165.85 251.284 1165.74 251.214 1165.62 251.125C1165.46 251.08 1165.3 251.08 1165.14 251.125C1164.63 251.248 1164.13 251.411 1163.65 251.613C1162.95 251.822 1162.21 251.822 1161.51 251.613C1161.43 251.603 1161.35 251.603 1161.27 251.613C1161.06 251.63 1160.86 251.714 1160.7 251.852V252.161C1160.43 252.168 1160.17 252.236 1159.94 252.36C1159.8 252.449 1159.66 252.529 1159.52 252.599C1159.38 252.624 1159.23 252.624 1159.09 252.599C1158.91 252.627 1158.74 252.674 1158.57 252.738L1157.44 253.067H1157.32C1157.19 253.067 1157.1 252.858 1157.01 252.768C1156.88 252.655 1156.73 252.576 1156.56 252.539C1156.35 252.539 1156.13 252.469 1155.92 252.4C1155.69 252.295 1155.47 252.179 1155.25 252.051C1155.14 251.987 1155.02 251.949 1154.9 251.941C1154.77 251.932 1154.64 251.953 1154.53 252.001C1154.48 252.038 1154.43 252.065 1154.37 252.081C1154.27 252.081 1154.19 252.001 1154.11 251.932C1153.95 251.789 1153.77 251.682 1153.57 251.616C1153.36 251.551 1153.15 251.529 1152.94 251.553C1152.87 251.568 1152.8 251.568 1152.74 251.553C1152.68 251.529 1152.63 251.496 1152.58 251.453L1151.74 250.706C1151.7 250.664 1151.65 250.633 1151.59 250.616C1151.54 250.607 1151.49 250.607 1151.44 250.616C1151.16 250.701 1150.88 250.741 1150.59 250.736C1150.31 250.705 1150.03 250.78 1149.8 250.945L1149.52 250.537C1149.49 250.496 1149.46 250.459 1149.43 250.427C1149.37 250.413 1149.31 250.413 1149.25 250.427H1148.78C1148.74 250.418 1148.69 250.418 1148.65 250.427C1148.61 250.459 1148.58 250.496 1148.55 250.537C1148.44 250.634 1148.32 250.707 1148.18 250.752C1148.05 250.797 1147.9 250.812 1147.76 250.796H1146.94C1146.88 250.775 1146.82 250.775 1146.77 250.796C1146.72 250.856 1146.68 250.928 1146.66 251.005C1146.56 251.234 1146.38 251.224 1146.2 251.324C1145.99 251.429 1145.82 251.606 1145.73 251.822C1145.71 251.877 1145.69 251.929 1145.65 251.971C1145.62 252.007 1145.58 252.034 1145.54 252.051L1145.11 252.26C1145.07 252.271 1145.04 252.296 1145.02 252.33C1145.02 252.33 1145.02 252.39 1145.02 252.42C1145.02 252.45 1145.02 252.689 1144.96 252.728C1144.9 252.768 1144.69 252.728 1144.59 252.728C1144.45 252.763 1144.31 252.745 1144.18 252.679C1144.11 252.635 1144.06 252.577 1144.02 252.509L1143.77 252.181C1143.73 252.114 1143.68 252.058 1143.61 252.021C1143.55 252.007 1143.49 252.007 1143.43 252.021C1143.1 252.07 1142.76 252.07 1142.43 252.021C1142.21 251.961 1142.07 251.563 1141.98 251.344C1141.96 251.304 1141.94 251.267 1141.91 251.234C1141.87 251.2 1141.82 251.179 1141.77 251.174L1140.46 250.836C1140.46 250.836 1140.19 251.154 1140.14 251.184C1139.97 251.247 1139.8 251.291 1139.62 251.314L1138.44 251.593C1138.41 251.772 1138.34 251.943 1138.24 252.091C1138.19 252.148 1138.14 252.199 1138.08 252.24C1137.87 252.351 1137.68 252.496 1137.52 252.669C1137.38 252.83 1137.26 253.011 1137.17 253.207C1136.91 253.056 1136.66 252.886 1136.43 252.699C1136.2 252.523 1135.91 252.431 1135.62 252.44C1135.32 252.489 1135.02 252.451 1134.74 252.33C1134.57 252.189 1134.38 252.068 1134.18 251.971C1134.08 251.957 1133.97 251.957 1133.87 251.971H1132.67C1132.36 251.971 1131.9 252.101 1131.67 251.742C1131.58 251.573 1131.55 251.384 1131.47 251.224C1131.4 251.102 1131.3 250.998 1131.18 250.917C1131.06 250.836 1130.93 250.781 1130.79 250.756C1130.52 250.686 1130.25 250.686 1129.98 250.626C1129.84 250.592 1129.7 250.531 1129.58 250.447C1129.43 250.314 1129.3 250.155 1129.21 249.979L1128.73 249.192C1128.7 249.135 1128.66 249.087 1128.61 249.052C1128.55 249.033 1128.49 249.033 1128.43 249.052C1128.16 249.072 1127.88 249.072 1127.61 249.052C1127.39 248.99 1127.18 248.882 1127.01 248.734C1126.67 248.41 1126.29 248.135 1125.87 247.917C1125.54 247.82 1125.21 247.773 1124.87 247.777C1124.81 247.788 1124.75 247.788 1124.69 247.777C1124.62 247.746 1124.57 247.702 1124.52 247.648L1123.45 246.652C1123.42 246.608 1123.38 246.574 1123.33 246.552C1123.28 246.542 1123.23 246.542 1123.18 246.552L1122.01 246.632C1121.35 246.638 1120.69 246.523 1120.07 246.293C1119.49 246.137 1118.88 246.08 1118.28 246.124C1118.16 246.149 1118.03 246.149 1117.91 246.124C1117.83 246.079 1117.76 246.022 1117.7 245.954L1117.1 245.366C1116.98 245.232 1116.84 245.118 1116.68 245.028C1116.44 244.928 1116.18 244.887 1115.92 244.908H1113.33C1113.12 244.927 1112.93 245.027 1112.79 245.187C1112.68 245.307 1112.52 245.635 1112.35 245.615C1111.91 245.609 1111.48 245.532 1111.07 245.386C1110.68 245.197 1110.33 244.908 1109.95 244.709C1109.88 244.663 1109.81 244.636 1109.73 244.629C1109.65 244.626 1109.56 244.644 1109.49 244.679L1107.83 245.287C1107.8 245.298 1107.77 245.319 1107.75 245.346C1107.75 245.346 1107.75 245.426 1107.75 245.476C1107.76 245.702 1107.76 245.928 1107.75 246.153C1107.75 246.187 1107.75 246.222 1107.74 246.254C1107.73 246.286 1107.71 246.317 1107.69 246.343C1107.64 246.362 1107.59 246.362 1107.54 246.343H1106.44L1105.54 246.96C1105.36 247.102 1105.15 247.188 1104.92 247.209C1104.72 247.209 1104.51 247.209 1104.31 247.289C1104.11 247.369 1103.95 247.289 1103.78 247.289C1103.71 247.302 1103.64 247.329 1103.58 247.371C1103.52 247.412 1103.47 247.466 1103.43 247.528C1103.34 247.678 1103.33 247.897 1103.19 247.987C1103.13 248.001 1103.07 248.001 1103.02 247.987L1102.02 248.116C1101.88 248.129 1101.74 248.153 1101.61 248.186C1101.38 248.247 1101.16 248.334 1100.95 248.445C1100.78 248.565 1100.6 248.665 1100.41 248.744C1100.2 248.779 1099.99 248.779 1099.79 248.744L1098.36 248.634C1098.34 248.642 1098.31 248.642 1098.29 248.634C1098.26 248.605 1098.24 248.566 1098.23 248.524C1098.14 248.186 1098.07 247.817 1097.97 247.478C1097.87 247.235 1097.67 247.042 1097.43 246.94C1097.22 246.817 1097.02 246.677 1096.84 246.522C1096.76 246.441 1096.66 246.379 1096.55 246.343C1096.47 246.333 1096.4 246.333 1096.32 246.343L1095.32 246.462C1095.02 246.462 1094.69 246.462 1094.44 246.652C1094.32 246.775 1094.24 246.921 1094.18 247.08L1093.97 247.538C1093.95 247.578 1093.93 247.615 1093.9 247.648C1093.85 247.663 1093.79 247.663 1093.74 247.648H1092.9C1092.74 247.633 1092.58 247.633 1092.42 247.648C1092.3 247.674 1092.19 247.71 1092.08 247.757C1091.71 247.923 1091.33 248.066 1090.95 248.186C1090.54 248.255 1090.12 248.276 1089.71 248.245C1089.65 248.255 1089.59 248.255 1089.53 248.245C1089.46 248.222 1089.41 248.185 1089.36 248.136L1088.25 247.219C1088.19 247.164 1088.12 247.12 1088.04 247.09H1086.17C1086.13 247.108 1086.1 247.136 1086.08 247.17C1085.75 247.47 1085.55 247.883 1085.52 248.325C1085.24 248.315 1084.97 248.403 1084.75 248.574C1084.52 248.724 1084.31 248.913 1084.07 249.042C1083.91 249.104 1083.77 249.2 1083.65 249.321C1083.51 249.481 1083.43 249.8 1083.18 249.77C1083.13 249.76 1083.09 249.76 1083.04 249.77C1082.94 249.77 1082.87 249.859 1082.81 249.939C1082.67 250.088 1082.52 250.221 1082.36 250.338C1081.81 250.601 1081.32 250.97 1080.91 251.423C1080.86 251.529 1080.78 251.618 1080.68 251.682C1080.54 251.737 1080.39 251.737 1080.26 251.682C1080.2 251.667 1080.14 251.667 1080.09 251.682C1080.05 251.696 1080.01 251.72 1079.98 251.752C1079.69 252.001 1079.34 252.44 1078.98 252.539C1078.62 252.639 1078.47 252.539 1078.24 252.539C1078.08 252.607 1077.93 252.709 1077.81 252.838C1077.58 253.043 1077.32 253.223 1077.05 253.376C1076.86 253.456 1076.69 253.553 1076.52 253.665C1076.43 253.777 1076.38 253.908 1076.36 254.048C1076.33 254.187 1076.35 254.33 1076.4 254.462H1076.14C1075.96 254.427 1075.77 254.427 1075.59 254.462C1075.3 254.532 1075.2 254.771 1075 254.98C1075 254.95 1074.54 255.558 1074.56 255.568Z" fill="#040707"/>
<path d="M549.699 254.571H707.999V253.067H703.699C703.646 253.078 703.592 253.078 703.539 253.067C703.539 253.067 703.539 253.067 703.469 253.007C703.399 252.948 703.299 252.758 703.229 252.659C703.159 252.559 703.079 252.44 702.999 252.34C702.829 252.081 702.659 251.832 702.479 251.583C702.459 251.547 702.428 251.519 702.389 251.503C702.317 251.483 702.241 251.483 702.169 251.503H700.999C700.612 251.509 700.224 251.489 699.839 251.443C699.651 251.421 699.466 251.374 699.289 251.304C699.149 251.244 699.059 251.075 698.919 251.045C698.843 251.035 698.766 251.035 698.689 251.045C698.304 251.112 697.924 251.202 697.549 251.314C697.077 251.465 696.567 251.444 696.109 251.254C695.969 251.154 695.519 250.925 695.449 250.875C695.131 250.727 694.795 250.619 694.449 250.557C694.16 250.536 693.869 250.536 693.579 250.557C693.089 250.557 692.449 250.557 692.349 250.557C691.831 250.503 691.319 250.403 690.819 250.258C690.225 250.143 689.614 250.143 689.019 250.258L688.679 250.338C687.834 250.482 686.973 250.513 686.119 250.427C685.379 250.367 684.709 250.188 683.989 250.098C683.222 250.008 682.451 249.958 681.679 249.949C680.99 249.932 680.301 249.975 679.619 250.079C678.926 250.199 678.223 250.249 677.519 250.228C676.989 250.228 676.519 250.228 675.939 250.228C675.447 250.242 674.957 250.282 674.469 250.348H674.369H674.259C673.891 250.162 673.496 250.034 673.089 249.969C672.618 249.854 672.134 249.803 671.649 249.819L670.479 249.939C670.179 249.939 669.909 250.039 669.599 250.059H668.539C667.838 250.04 667.137 250.067 666.439 250.138C666.029 250.188 665.639 250.268 665.229 250.328C664.529 250.437 663.799 250.457 663.079 250.497H662.419C662.181 250.537 661.94 250.557 661.699 250.557C661.569 250.557 661.449 250.557 661.329 250.497C660.777 250.379 660.214 250.312 659.649 250.298C658.509 250.298 657.409 250.467 656.289 250.557C655.996 250.598 655.708 250.668 655.429 250.766L654.429 251.055C653.999 251.164 653.549 251.264 653.149 251.403C652.757 251.607 652.353 251.786 651.939 251.941C651.307 252.06 650.67 252.147 650.029 252.2L648.029 252.459C647.787 252.489 647.542 252.489 647.299 252.459C647.15 252.44 646.999 252.44 646.849 252.459H646.679C646.599 252.469 646.519 252.469 646.439 252.459C646.173 252.399 645.896 252.399 645.629 252.459C645.629 252.459 645.489 252.4 645.399 252.459C645.315 252.488 645.223 252.488 645.139 252.459C645.105 252.441 645.078 252.413 645.059 252.38C644.979 252.335 644.891 252.307 644.8 252.297C644.709 252.287 644.617 252.294 644.529 252.32C644.307 252.408 644.069 252.452 643.829 252.45C643.74 252.424 643.655 252.384 643.579 252.33C643.449 252.279 643.309 252.258 643.169 252.27C643.018 252.31 642.864 252.34 642.709 252.36C642.559 252.36 642.419 252.36 642.269 252.36C642.119 252.36 641.979 252.36 641.819 252.42C641.613 252.395 641.405 252.395 641.199 252.42H641.109C640.984 252.429 640.858 252.412 640.739 252.37C640.58 252.349 640.419 252.349 640.259 252.37C639.759 252.424 639.262 252.504 638.769 252.609C638.059 252.709 637.339 252.709 636.629 252.609H636.399C636.204 252.616 636.011 252.656 635.829 252.728V252.878C635.569 252.88 635.311 252.913 635.059 252.977L634.649 253.087C634.503 253.107 634.355 253.107 634.209 253.087C634.039 253.087 633.859 253.087 633.699 253.157L632.559 253.316H632.449C632.337 253.292 632.231 253.245 632.139 253.177C631.993 253.114 631.838 253.073 631.679 253.057C631.469 253.057 631.249 253.057 631.039 252.997C630.829 252.938 630.599 252.878 630.369 252.828C630.135 252.778 629.893 252.778 629.659 252.828C629.606 252.838 629.552 252.838 629.499 252.828C629.404 252.831 629.311 252.807 629.229 252.758C628.862 252.61 628.465 252.548 628.069 252.579H627.859L627.709 252.529L626.859 252.161H626.709H626.559C626.281 252.201 626 252.221 625.719 252.22C625.452 252.201 625.183 252.234 624.929 252.32L624.649 252.121H624.549C624.493 252.11 624.435 252.11 624.379 252.121H623.779L623.669 252.181C623.422 252.28 623.155 252.321 622.889 252.3H622.069C622.01 252.289 621.949 252.289 621.889 252.3C621.829 252.3 621.819 252.36 621.779 252.4C621.739 252.44 621.509 252.499 621.319 252.549C621.144 252.584 620.984 252.671 620.859 252.798C620.837 252.826 620.81 252.85 620.779 252.868H620.659L620.239 252.968C620.207 252.958 620.172 252.958 620.139 252.968C620.139 252.968 620.139 253.107 620.069 253.127C619.949 253.137 619.829 253.137 619.709 253.127C619.57 253.147 619.428 253.147 619.289 253.127L619.129 253.047L618.889 252.888C618.837 252.853 618.779 252.827 618.719 252.808H618.539C618.206 252.83 617.872 252.83 617.539 252.808C617.354 252.757 617.194 252.64 617.089 252.479C617.066 252.475 617.042 252.475 617.019 252.479C616.976 252.47 616.932 252.47 616.889 252.479L615.569 252.31C615.569 252.31 615.309 252.469 615.259 252.479C615.084 252.513 614.907 252.536 614.729 252.549L613.549 252.679C613.514 252.782 613.443 252.871 613.349 252.928L613.189 252.997C612.995 253.044 612.807 253.115 612.629 253.207C612.504 253.277 612.387 253.36 612.279 253.456C612.019 253.396 611.789 253.286 611.549 253.207C611.285 253.12 611.007 253.08 610.729 253.087C610.438 253.103 610.146 253.083 609.859 253.027C609.672 252.96 609.482 252.904 609.289 252.858C609.186 252.848 609.082 252.848 608.979 252.858H607.779C607.469 252.858 607.009 252.918 606.829 252.748C606.649 252.579 606.719 252.569 606.629 252.489C606.449 252.337 606.232 252.234 605.999 252.19C605.729 252.19 605.449 252.19 605.179 252.121C604.893 252.114 604.62 252.004 604.409 251.812L603.929 251.433C603.901 251.399 603.862 251.375 603.819 251.364C603.76 251.354 603.699 251.354 603.639 251.364C603.363 251.379 603.086 251.379 602.809 251.364C602.603 251.342 602.401 251.292 602.209 251.214C601.846 251.046 601.468 250.912 601.079 250.816C600.748 250.771 600.414 250.751 600.079 250.756H599.899C599.841 250.74 599.784 250.72 599.729 250.696L598.669 250.198L598.539 250.148H598.389H597.229C596.575 250.148 595.923 250.091 595.279 249.979C594.686 249.902 594.087 249.876 593.489 249.899C593.366 249.909 593.242 249.909 593.119 249.899C593.05 249.88 592.983 249.854 592.919 249.819L592.319 249.531C592.182 249.461 592.038 249.404 591.889 249.361C591.637 249.335 591.382 249.335 591.129 249.361H588.549C588.36 249.361 588.174 249.409 588.009 249.501C587.889 249.56 587.729 249.72 587.559 249.71C587.13 249.701 586.702 249.661 586.279 249.59C585.889 249.501 585.549 249.361 585.159 249.262H584.949C584.87 249.252 584.789 249.252 584.709 249.262L583.049 249.56H582.959C582.951 249.583 582.951 249.608 582.959 249.63C582.979 249.739 582.979 249.85 582.959 249.959C582.966 249.973 582.97 249.988 582.97 250.004C582.97 250.019 582.966 250.035 582.959 250.049C582.906 250.059 582.852 250.059 582.799 250.049H581.699L580.799 250.348C580.6 250.42 580.391 250.46 580.179 250.467H579.569C579.399 250.467 579.219 250.467 579.039 250.467C578.914 250.474 578.793 250.516 578.689 250.587C578.599 250.656 578.589 250.766 578.449 250.806C578.396 250.815 578.342 250.815 578.289 250.806L577.289 250.865H576.869C576.646 250.888 576.425 250.932 576.209 250.995C576.039 250.995 575.869 251.105 575.669 251.134C575.466 251.154 575.262 251.154 575.059 251.134H573.629H573.549C573.538 251.131 573.527 251.124 573.518 251.115C573.51 251.107 573.503 251.096 573.499 251.085C573.409 250.915 573.329 250.746 573.229 250.577C573.086 250.435 572.9 250.344 572.699 250.318C572.489 250.258 572.289 250.188 572.109 250.118C572.015 250.073 571.913 250.043 571.809 250.029H571.589C571.249 250.029 570.919 250.029 570.589 250.088C570.293 250.077 569.997 250.107 569.709 250.178C569.609 250.229 569.52 250.3 569.449 250.387L569.239 250.606C569.223 250.634 569.199 250.655 569.169 250.666H568.169C568.009 250.656 567.849 250.656 567.689 250.666H567.349C566.977 250.757 566.599 250.827 566.219 250.875C565.81 250.9 565.399 250.9 564.989 250.875H564.799H564.629L563.519 250.427C563.454 250.401 563.388 250.381 563.319 250.367H561.439H561.349C561.059 250.517 560.789 250.696 560.789 250.925C560.53 250.913 560.272 250.954 560.029 251.045C559.799 251.115 559.589 251.214 559.339 251.274C559.195 251.304 559.055 251.347 558.919 251.403C558.779 251.483 558.699 251.643 558.449 251.623H558.309C558.227 251.631 558.148 251.658 558.079 251.702C557.937 251.784 557.786 251.851 557.629 251.902C557.127 252.012 556.643 252.189 556.189 252.43C556.119 252.487 556.037 252.528 555.949 252.549C555.814 252.577 555.674 252.577 555.539 252.549C555.479 252.544 555.419 252.544 555.359 252.549C555.323 252.545 555.286 252.545 555.249 252.549C554.935 252.721 554.599 252.849 554.249 252.928C554.009 252.928 553.749 252.928 553.509 252.928C553.363 252.952 553.221 252.999 553.089 253.067C552.849 253.167 552.589 253.256 552.329 253.336C552.069 253.416 551.949 253.406 551.789 253.466C551.753 253.48 551.72 253.502 551.693 253.531C551.666 253.559 551.646 253.594 551.635 253.631C551.623 253.668 551.62 253.708 551.626 253.747C551.632 253.785 551.647 253.822 551.669 253.854H551.409C551.226 253.839 551.042 253.839 550.859 253.854C550.65 253.895 550.452 253.98 550.279 254.103C550.071 254.24 549.877 254.397 549.699 254.571Z" fill="#040707"/>
<path d="M699.919 253.954H858.239V253.117H853.759C853.736 253.124 853.712 253.124 853.689 253.117C853.689 253.117 853.519 252.977 853.449 252.927L853.219 252.748L852.699 252.33C852.67 252.321 852.638 252.321 852.609 252.33C852.536 252.319 852.462 252.319 852.389 252.33H851.229C850.843 252.35 850.456 252.35 850.069 252.33C849.884 252.324 849.7 252.3 849.519 252.26C849.379 252.26 849.289 252.13 849.149 252.12H848.919C848.509 252.12 848.159 252.21 847.779 252.26C847.304 252.356 846.814 252.356 846.339 252.26L845.679 252.051C845.35 251.968 845.016 251.908 844.679 251.871C844.369 251.871 844.299 251.871 843.809 251.871H842.579C842.066 251.846 841.555 251.79 841.049 251.702C840.451 251.642 839.848 251.642 839.249 251.702H838.909C838.057 251.767 837.201 251.767 836.349 251.702C835.609 251.702 834.939 251.573 834.219 251.523C833.499 251.473 832.689 251.453 831.909 251.443C831.222 251.431 830.534 251.454 829.849 251.513C829.151 251.58 828.45 251.607 827.749 251.593H826.169C825.669 251.593 825.169 251.592 824.699 251.662H824.599H824.489C824.105 251.564 823.714 251.495 823.319 251.453C822.842 251.391 822.361 251.364 821.879 251.373L820.709 251.443C820.409 251.443 820.139 251.493 819.829 251.503H818.769C818.069 251.503 817.359 251.503 816.669 251.503L815.459 251.612C814.759 251.672 814.029 251.682 813.309 251.702H812.649C812.409 251.702 812.179 251.702 811.929 251.702H811.559C811.002 251.638 810.441 251.604 809.879 251.602C808.739 251.602 807.639 251.692 806.519 251.742C806.23 251.759 805.942 251.799 805.659 251.861C805.349 251.911 805.029 251.971 804.659 252.011C804.289 252.051 803.779 252.13 803.379 252.21C802.979 252.29 802.649 252.449 802.169 252.509C801.689 252.569 800.879 252.609 800.259 252.649L798.259 252.798C798.016 252.813 797.772 252.813 797.529 252.798C797.38 252.783 797.229 252.783 797.079 252.798H796.909H796.669C796.4 252.763 796.128 252.763 795.859 252.798C795.859 252.798 795.719 252.798 795.629 252.798C795.543 252.812 795.455 252.812 795.369 252.798H795.289C795.115 252.754 794.933 252.754 794.759 252.798C794.529 252.845 794.294 252.872 794.059 252.878C793.949 252.878 793.889 252.828 793.809 252.808C793.673 252.792 793.535 252.792 793.399 252.808C793.246 252.818 793.092 252.818 792.939 252.808C792.789 252.808 792.649 252.808 792.499 252.808C792.349 252.808 792.209 252.808 792.049 252.808C791.843 252.793 791.636 252.793 791.429 252.808H791.339C791.217 252.828 791.092 252.828 790.969 252.808C790.81 252.793 790.649 252.793 790.489 252.808C789.979 252.808 789.489 252.898 788.999 252.937C788.287 252.992 787.571 252.992 786.859 252.937H786.629C786.438 252.935 786.246 252.955 786.059 252.997V253.077C785.801 253.076 785.544 253.096 785.289 253.137L784.879 253.196C784.733 253.206 784.586 253.206 784.439 253.196H783.929L782.789 253.286H782.679C782.572 253.28 782.466 253.253 782.369 253.206C782.218 253.174 782.064 253.154 781.909 253.147H781.269C781.039 253.147 780.829 253.087 780.599 253.057C780.363 253.027 780.125 253.027 779.889 253.057H779.729C779.64 253.068 779.549 253.068 779.459 253.057C779.079 252.97 778.689 252.937 778.299 252.957H778.089H777.939L777.089 252.758H776.939H776.789C776.509 252.758 776.239 252.758 775.949 252.758C775.685 252.751 775.42 252.771 775.159 252.818L774.879 252.708H774.779H773.999H773.889C773.634 252.77 773.371 252.794 773.109 252.778H772.109C772.07 252.794 772.033 252.814 771.999 252.838C771.852 252.892 771.696 252.919 771.539 252.917C771.378 252.934 771.222 252.981 771.079 253.057H770.999H770.879L770.459 253.117H770.359C770.359 253.117 770.359 253.186 770.289 253.206H769.999C769.859 253.216 769.719 253.216 769.579 253.206L769.419 253.157L769.179 253.067H769.009H768.829C768.539 253.067 768.149 253.067 767.829 253.067C767.665 253.051 767.509 252.989 767.379 252.888H767.309H767.179L765.859 252.798L765.549 252.898C765.389 252.898 765.189 252.898 765.019 252.898L763.839 252.977C763.792 253.044 763.72 253.091 763.639 253.107C763.586 253.114 763.532 253.114 763.479 253.107C763.29 253.134 763.103 253.174 762.919 253.226C762.798 253.262 762.681 253.308 762.569 253.366H762.499L761.769 253.226C761.499 253.177 761.224 253.153 760.949 253.157C760.66 253.182 760.369 253.182 760.079 253.157C759.879 253.157 759.719 253.077 759.509 253.057H757.999C757.665 253.092 757.327 253.071 756.999 252.997C756.937 252.945 756.87 252.898 756.799 252.858C756.584 252.779 756.358 252.735 756.129 252.728C755.859 252.728 755.579 252.728 755.309 252.728H754.909C754.781 252.7 754.657 252.657 754.539 252.599L754.059 252.389H753.949H753.769C753.489 252.389 753.209 252.389 752.939 252.389C752.738 252.375 752.537 252.349 752.339 252.31C751.968 252.212 751.59 252.139 751.209 252.091C750.889 252.091 750.539 252.091 750.209 252.091H750.029H749.859L748.799 251.812H748.669H748.519H747.359C746.708 251.818 746.057 251.788 745.409 251.722C744.819 251.722 744.229 251.672 743.619 251.722C743.496 251.732 743.372 251.732 743.249 251.722H743.049L742.449 251.563C742.308 251.525 742.164 251.495 742.019 251.473C741.766 251.457 741.512 251.457 741.259 251.473H738.679C738.496 251.47 738.314 251.497 738.139 251.553C737.996 251.614 737.844 251.651 737.689 251.662C737.259 251.662 736.809 251.662 736.409 251.602C736.009 251.543 735.679 251.473 735.289 251.423H735.079H734.839L733.179 251.583H733.089C733.109 251.644 733.109 251.71 733.089 251.772C733.089 251.772 733.089 251.772 733.039 251.822H731.799L730.899 251.991C730.695 252.032 730.488 252.055 730.279 252.061H729.669H729.139C729.019 252.063 728.901 252.086 728.789 252.13C728.699 252.13 728.689 252.23 728.549 252.25H728.389H727.389H726.969L726.309 252.32C726.131 252.358 725.951 252.385 725.769 252.399C725.579 252.399 725.359 252.399 725.159 252.399H723.729H723.649C723.559 252.31 723.479 252.21 723.379 252.12C723.214 252.039 723.033 251.991 722.849 251.981C722.639 251.981 722.439 251.911 722.259 251.861H721.959H721.739C721.399 251.861 721.069 251.861 720.739 251.861C720.445 251.855 720.15 251.875 719.859 251.921C719.767 251.944 719.68 251.981 719.599 252.031L719.389 252.15C719.378 252.155 719.366 252.157 719.354 252.157C719.342 252.157 719.33 252.155 719.319 252.15H717.839H717.499C717.129 252.15 716.759 252.24 716.369 252.26C715.979 252.28 715.549 252.26 715.139 252.26H714.949C714.893 252.27 714.835 252.27 714.779 252.26L713.669 252.021H713.469H711.589H711.499C711.209 252.111 710.939 252.21 710.939 252.33C710.684 252.331 710.43 252.355 710.179 252.399L709.489 252.529C709.348 252.545 709.208 252.568 709.069 252.599C708.926 252.68 708.764 252.721 708.599 252.718H708.459C708.383 252.706 708.305 252.706 708.229 252.718C708.082 252.764 707.931 252.801 707.779 252.828C707.292 252.89 706.811 252.99 706.339 253.127C706.262 253.155 706.181 253.175 706.099 253.186C705.963 253.201 705.825 253.201 705.689 253.186H705.509H705.399C705.073 253.287 704.738 253.357 704.399 253.396C704.159 253.396 703.899 253.396 703.659 253.396C703.517 253.413 703.376 253.443 703.239 253.485L702.479 253.625C702.299 253.625 702.099 253.625 701.939 253.704C701.779 253.784 701.749 253.854 701.819 253.914H700.999C700.801 253.935 700.606 253.982 700.419 254.053C700.419 254.053 699.889 253.954 699.919 253.954Z" fill="#040707"/>
<path d="M917.301 253.953H1075.62V253.117H1071.14C1071.12 253.123 1071.1 253.123 1071.08 253.117C1071.08 253.117 1070.9 252.977 1070.83 252.927L1070.61 252.748L1070.08 252.33H1070C1069.92 252.319 1069.85 252.319 1069.77 252.33H1068.62C1068.23 252.35 1067.84 252.35 1067.45 252.33C1067.27 252.323 1067.08 252.3 1066.9 252.26C1066.76 252.26 1066.68 252.13 1066.54 252.12H1066.3C1065.9 252.12 1065.54 252.21 1065.17 252.26C1064.7 252.356 1064.21 252.356 1063.73 252.26L1063.06 252.051C1062.73 251.968 1062.4 251.908 1062.06 251.871C1061.74 251.871 1061.67 251.871 1061.18 251.871H1060C1059.49 251.846 1058.98 251.789 1058.47 251.702C1057.88 251.642 1057.28 251.642 1056.68 251.702H1056.34C1055.49 251.767 1054.63 251.767 1053.77 251.702C1053.04 251.702 1052.37 251.572 1051.64 251.523C1050.91 251.473 1050.11 251.453 1049.34 251.443C1048.65 251.431 1047.97 251.454 1047.28 251.513C1046.58 251.58 1045.88 251.606 1045.18 251.592H1043.59C1043.09 251.592 1042.59 251.592 1042.12 251.662H1042.02H1041.91C1041.53 251.564 1041.14 251.494 1040.75 251.453C1040.27 251.391 1039.79 251.364 1039.31 251.373L1038.13 251.443C1037.83 251.443 1037.56 251.493 1037.26 251.503H1036.2C1035.5 251.503 1034.79 251.503 1034.1 251.503L1032.89 251.612C1032.19 251.672 1031.45 251.682 1030.73 251.702H1030.07C1029.83 251.702 1029.6 251.702 1029.36 251.702H1028.99C1028.43 251.638 1027.87 251.605 1027.3 251.602C1026.17 251.602 1025.06 251.692 1023.95 251.742C1023.66 251.759 1023.37 251.799 1023.09 251.861L1022.09 252.011C1021.66 252.081 1021.21 252.13 1020.8 252.21C1020.39 252.29 1020.07 252.449 1019.6 252.509C1019.13 252.569 1018.31 252.609 1017.69 252.648L1015.64 252.798C1015.4 252.813 1015.16 252.813 1014.92 252.798C1014.77 252.783 1014.61 252.783 1014.46 252.798H1014.3H1014.05C1013.78 252.763 1013.51 252.763 1013.24 252.798C1013.24 252.798 1013.1 252.798 1013.02 252.798C1012.93 252.812 1012.84 252.812 1012.75 252.798H1012.67C1012.5 252.752 1012.32 252.752 1012.15 252.798C1011.92 252.845 1011.68 252.872 1011.44 252.878L1011.19 252.808C1011.05 252.79 1010.92 252.79 1010.78 252.808C1010.63 252.818 1010.47 252.818 1010.32 252.808C1010.17 252.808 1010.03 252.808 1009.88 252.808C1009.73 252.808 1009.59 252.808 1009.44 252.808C1009.23 252.793 1009.02 252.793 1008.81 252.808H1008.72C1008.6 252.829 1008.48 252.829 1008.36 252.808C1008.2 252.793 1008.04 252.793 1007.88 252.808C1007.36 252.808 1006.88 252.897 1006.38 252.937C1005.67 252.992 1004.96 252.992 1004.25 252.937H1004C1003.81 252.936 1003.62 252.956 1003.43 252.997V253.077C1003.18 253.076 1002.92 253.096 1002.67 253.137L1002.25 253.196C1002.11 253.206 1001.96 253.206 1001.82 253.196H1001.3L1000.16 253.286H1000.05C999.943 253.278 999.838 253.252 999.741 253.206C999.593 253.175 999.442 253.155 999.291 253.147H998.651C998.411 253.147 998.211 253.087 997.981 253.057C997.742 253.027 997.5 253.027 997.261 253.057H997.101C997.014 253.068 996.927 253.068 996.841 253.057C996.457 252.97 996.064 252.936 995.671 252.957H995.471H995.311L994.471 252.758H994.321H994.171C993.891 252.758 993.611 252.758 993.321 252.758C993.056 252.752 992.792 252.772 992.531 252.818L992.251 252.708H992.151H991.381H991.281C991.022 252.77 990.756 252.794 990.491 252.778H989.491L989.391 252.838C989.243 252.89 989.088 252.917 988.931 252.917C988.767 252.936 988.608 252.983 988.461 253.057H988.381H988.261L987.841 253.117H987.751C987.751 253.117 987.751 253.186 987.681 253.206H987.321C987.184 253.216 987.047 253.216 986.911 253.206C986.855 253.199 986.801 253.182 986.751 253.156L986.501 253.067H986.341H986.161C985.871 253.067 985.481 253.067 985.161 253.067C984.996 253.054 984.839 252.991 984.711 252.887H984.641H984.501L983.181 252.798L982.871 252.897C982.721 252.897 982.511 252.897 982.351 252.897L981.161 252.977C981.116 253.042 981.048 253.088 980.971 253.107H980.811C980.618 253.133 980.428 253.173 980.241 253.226C980.123 253.261 980.009 253.308 979.901 253.366H979.831C979.561 253.366 979.331 253.276 979.091 253.226C978.82 253.176 978.546 253.153 978.271 253.156C977.981 253.182 977.69 253.182 977.401 253.156C977.201 253.156 977.051 253.077 976.841 253.057H975.331C974.996 253.092 974.659 253.071 974.331 252.997C974.241 252.947 974.211 252.897 974.131 252.858C973.913 252.778 973.683 252.734 973.451 252.728C973.181 252.728 972.911 252.728 972.641 252.728H972.231C972.105 252.702 971.984 252.658 971.871 252.599L971.391 252.389H971.271H971.091C970.821 252.389 970.531 252.389 970.261 252.389C970.063 252.375 969.866 252.348 969.671 252.31C969.296 252.213 968.915 252.14 968.531 252.091C968.211 252.091 967.861 252.091 967.531 252.091H967.341H967.181L966.111 251.812H965.991H965.841H964.671C964.023 251.817 963.375 251.787 962.731 251.722C962.141 251.722 961.551 251.672 960.941 251.722C960.818 251.732 960.694 251.732 960.571 251.722H960.361L959.761 251.562C959.619 251.524 959.476 251.494 959.331 251.473C959.081 251.458 958.831 251.458 958.581 251.473H955.991C955.808 251.47 955.625 251.497 955.451 251.553C955.311 251.614 955.163 251.651 955.011 251.662C954.581 251.662 954.131 251.662 953.731 251.602C953.331 251.543 952.991 251.473 952.611 251.423H952.391H952.151L950.491 251.582H950.411C950.426 251.645 950.426 251.71 950.411 251.772C950.411 251.772 950.411 251.772 950.351 251.822H949.101L948.191 251.991C947.99 252.031 947.786 252.054 947.581 252.061H946.971H946.441C946.318 252.063 946.196 252.087 946.081 252.13C946.001 252.13 945.991 252.23 945.851 252.25H945.681H944.681H944.271L943.611 252.32C943.432 252.357 943.252 252.383 943.071 252.399C942.871 252.399 942.651 252.399 942.451 252.399H941.021H940.951C940.931 252.406 940.91 252.406 940.891 252.399C940.806 252.301 940.716 252.208 940.621 252.12C940.456 252.036 940.276 251.988 940.091 251.981C939.881 251.981 939.691 251.911 939.501 251.861H939.201H938.981H937.981C937.686 251.854 937.392 251.874 937.101 251.921C937.008 251.942 936.92 251.979 936.841 252.031L936.631 252.15C936.608 252.156 936.584 252.156 936.561 252.15H935.201C935.081 252.15 934.971 252.15 934.861 252.15C934.481 252.15 934.121 252.24 933.731 252.26C933.341 252.28 932.901 252.26 932.491 252.26H932.311C932.251 252.27 932.19 252.27 932.131 252.26L931.001 251.692H930.801H929.001H928.911C928.621 251.782 928.351 251.881 928.351 252.001C928.093 252.002 927.835 252.026 927.581 252.071L926.901 252.2C926.756 252.216 926.613 252.239 926.471 252.27C926.332 252.352 926.172 252.394 926.011 252.389H925.871C925.791 252.377 925.71 252.377 925.631 252.389L925.191 252.499C924.701 252.562 924.216 252.661 923.741 252.798C923.664 252.828 923.583 252.848 923.501 252.858C923.365 252.873 923.227 252.873 923.091 252.858H922.921H922.811C922.485 252.958 922.15 253.028 921.811 253.067C921.571 253.067 921.311 253.067 921.081 253.067C920.935 253.083 920.791 253.113 920.651 253.156L919.891 253.296C919.721 253.296 919.511 253.296 919.351 253.376C919.191 253.455 919.171 253.525 919.231 253.585H918.431C918.229 253.606 918.031 253.652 917.841 253.724L917.301 253.953Z" fill="#040707"/>
<path d="M406.77 254.741C406.856 254.751 406.943 254.751 407.03 254.741H579.03V251.632H574.33C574.271 251.652 574.208 251.652 574.15 251.632C574.117 251.599 574.093 251.558 574.08 251.513C574.026 251.26 573.938 251.015 573.82 250.786C573.73 250.566 573.65 250.337 573.57 250.118L573 248.564C572.98 248.5 572.946 248.442 572.9 248.395C572.822 248.368 572.737 248.368 572.66 248.395H571.4C570.973 248.42 570.544 248.379 570.13 248.275C569.917 248.225 569.717 248.134 569.54 248.006C569.39 247.877 569.29 247.528 569.14 247.468C569.055 247.443 568.964 247.443 568.88 247.468C568.45 247.603 568.037 247.787 567.65 248.016C567.409 248.167 567.125 248.236 566.841 248.21C566.557 248.185 566.29 248.068 566.08 247.877C565.93 247.687 565.43 247.219 565.36 247.1C565.039 246.827 564.678 246.605 564.29 246.442C563.94 246.323 563.87 246.442 563.29 246.442C562.71 246.442 562.07 246.442 561.96 246.442C561.38 246.442 560.83 245.984 560.29 245.824C559.63 245.622 558.92 245.664 558.29 245.944L557.92 246.103C557.016 246.397 556.053 246.458 555.12 246.283C554.33 246.163 553.6 245.795 552.81 245.615C551.986 245.425 551.145 245.318 550.3 245.296C549.542 245.254 548.783 245.349 548.06 245.575C547.32 245.809 546.545 245.91 545.77 245.874C545.2 245.874 544.62 245.814 544.05 245.874C543.509 245.902 542.973 245.985 542.45 246.123C542.413 246.133 542.376 246.133 542.34 246.123C542.293 246.109 542.251 246.081 542.22 246.044C541.859 245.692 541.426 245.423 540.95 245.257C540.459 245.029 539.919 244.93 539.38 244.968C538.96 245.037 538.53 245.117 538.11 245.207C537.69 245.296 537.49 245.406 537.11 245.446C536.726 245.466 536.343 245.466 535.96 245.446C535.193 245.409 534.424 245.463 533.67 245.605C533.23 245.715 532.8 245.894 532.36 246.014C531.587 246.195 530.801 246.311 530.01 246.362C529.77 246.362 529.53 246.362 529.29 246.432C529.036 246.503 528.773 246.54 528.51 246.542C528.372 246.514 528.238 246.47 528.11 246.412C527.527 246.175 526.908 246.041 526.28 246.014C525.049 246.075 523.827 246.252 522.63 246.542C522.291 246.626 521.971 246.775 521.69 246.98C521.35 247.179 521 247.388 520.69 247.568C520.208 247.78 519.74 248.023 519.29 248.295C518.81 248.614 518.49 249.162 517.98 249.401C517.306 249.65 516.609 249.83 515.9 249.939L513.67 250.467C513.41 250.526 513.139 250.526 512.88 250.467C512.719 250.422 512.55 250.422 512.39 250.467C512.33 250.467 512.27 250.556 512.21 250.566C512.15 250.576 512.02 250.507 511.94 250.477C511.797 250.422 511.643 250.401 511.49 250.415C511.338 250.428 511.19 250.477 511.06 250.556C511.06 250.447 510.91 250.437 510.82 250.477C510.73 250.517 510.61 250.596 510.53 250.477C510.45 250.357 510.47 250.377 510.44 250.327C510.375 250.243 510.283 250.183 510.179 250.158C510.075 250.133 509.966 250.143 509.87 250.188C509.65 250.278 509.35 250.566 509.1 250.477C508.85 250.387 508.92 250.307 508.83 250.218C508.772 250.163 508.702 250.123 508.625 250.103C508.548 250.082 508.467 250.08 508.39 250.098C508.21 250.098 508.06 250.268 507.89 250.278C507.72 250.288 507.57 250.178 507.4 250.168C507.23 250.158 507.09 250.278 506.92 250.288C506.75 250.297 506.44 250.158 506.24 250.288L506.14 250.347C505.99 250.407 505.87 250.347 505.74 250.248C505.574 250.185 505.394 250.168 505.22 250.198C504.667 250.32 504.125 250.486 503.6 250.696C502.836 250.9 502.033 250.9 501.27 250.696H501.02C500.79 250.711 500.571 250.794 500.39 250.935V251.244C500.104 251.255 499.825 251.326 499.57 251.453C499.41 251.523 499.27 251.622 499.11 251.682C498.955 251.717 498.794 251.717 498.64 251.682C498.448 251.709 498.261 251.755 498.08 251.822L496.84 252.15H496.72C496.57 252.15 496.48 251.951 496.38 251.852C496.238 251.736 496.069 251.657 495.89 251.622C495.654 251.59 495.42 251.544 495.19 251.483C494.941 251.382 494.697 251.269 494.46 251.144C494.337 251.088 494.204 251.059 494.07 251.059C493.935 251.059 493.802 251.088 493.68 251.144C493.625 251.173 493.569 251.197 493.51 251.214C493.399 251.206 493.295 251.156 493.22 251.075C493.045 250.927 492.843 250.817 492.625 250.75C492.406 250.683 492.177 250.661 491.95 250.686C491.877 250.701 491.802 250.701 491.73 250.686C491.666 250.667 491.607 250.633 491.56 250.586L490.64 249.839C490.595 249.796 490.54 249.766 490.48 249.75C490.427 249.739 490.372 249.739 490.32 249.75C490.02 249.833 489.71 249.874 489.4 249.869C489.093 249.845 488.788 249.922 488.53 250.088L488.23 249.67C488.203 249.627 488.165 249.593 488.12 249.57C488.061 249.55 487.998 249.55 487.94 249.57H487.42C487.373 249.56 487.326 249.56 487.28 249.57C487.236 249.599 487.198 249.636 487.17 249.68C487.053 249.778 486.918 249.852 486.771 249.897C486.625 249.941 486.471 249.956 486.32 249.939H485.42C485.358 249.918 485.291 249.918 485.23 249.939C485.176 250.004 485.135 250.078 485.11 250.158C485 250.377 484.81 250.367 484.61 250.467C484.388 250.567 484.21 250.744 484.11 250.965C484.088 251.019 484.057 251.07 484.02 251.114C483.983 251.15 483.938 251.177 483.89 251.194L483.43 251.403C483.43 251.403 483.35 251.403 483.33 251.473C483.325 251.503 483.325 251.533 483.33 251.563C483.33 251.632 483.33 251.832 483.26 251.881C483.19 251.931 482.97 251.881 482.86 251.881C482.714 251.931 482.555 251.931 482.41 251.881C482.341 251.838 482.283 251.78 482.24 251.712L481.97 251.383C481.922 251.318 481.861 251.263 481.79 251.224C481.723 251.214 481.656 251.214 481.59 251.224C481.257 251.256 480.922 251.256 480.59 251.224C480.35 251.164 480.2 250.756 480.1 250.546C480.085 250.5 480.057 250.458 480.02 250.427C479.98 250.393 479.931 250.372 479.88 250.367L478.44 250.029C478.334 250.152 478.221 250.269 478.1 250.377C477.915 250.441 477.724 250.485 477.53 250.507L476.24 250.786C476.214 250.967 476.141 251.138 476.03 251.284C475.979 251.344 475.918 251.395 475.85 251.433C475.629 251.549 475.424 251.693 475.24 251.862C475.094 252.027 474.966 252.207 474.86 252.4C474.58 252.255 474.313 252.088 474.06 251.901C473.8 251.719 473.487 251.628 473.17 251.642C472.848 251.684 472.521 251.642 472.22 251.523C472.022 251.388 471.815 251.268 471.6 251.164C471.486 251.154 471.373 251.154 471.26 251.164H470C469.66 251.164 469.16 251.284 469 250.925C468.9 250.766 468.87 250.566 468.78 250.407C468.695 250.283 468.586 250.177 468.458 250.096C468.331 250.016 468.189 249.962 468.04 249.939C467.75 249.869 467.45 249.869 467.16 249.809C467.003 249.777 466.854 249.716 466.72 249.63C466.558 249.5 466.422 249.341 466.32 249.162L465.8 248.375C465.767 248.319 465.723 248.272 465.67 248.235C465.608 248.217 465.542 248.217 465.48 248.235C465.18 248.265 464.879 248.265 464.58 248.235C464.343 248.176 464.121 248.068 463.93 247.917C463.552 247.593 463.136 247.319 462.69 247.1C462.334 247.003 461.968 246.956 461.6 246.96C461.533 246.971 461.466 246.971 461.4 246.96C461.332 246.929 461.271 246.885 461.22 246.831L460.06 245.834C460.02 245.793 459.972 245.759 459.92 245.735H459.76L458.49 245.814C457.77 245.82 457.054 245.709 456.37 245.486C455.737 245.321 455.082 245.261 454.43 245.306C454.295 245.336 454.155 245.336 454.02 245.306C453.94 245.262 453.866 245.209 453.8 245.147L453.15 244.549C453.011 244.414 452.852 244.299 452.68 244.211C452.419 244.11 452.138 244.07 451.86 244.091H449C448.778 244.107 448.57 244.206 448.42 244.37C448.29 244.49 448.11 244.818 447.93 244.798C447.457 244.793 446.989 244.715 446.54 244.569C446.11 244.38 445.74 244.101 445.32 243.892C445.249 243.851 445.171 243.824 445.09 243.812C445.004 243.797 444.916 243.797 444.83 243.812L443 244.221C442.963 244.229 442.931 244.25 442.91 244.28C442.9 244.3 442.895 244.323 442.895 244.345C442.895 244.367 442.9 244.39 442.91 244.41C442.924 244.635 442.924 244.862 442.91 245.087C442.91 245.157 442.885 245.224 442.84 245.277C442.788 245.296 442.731 245.296 442.68 245.277H441.48L440.48 245.884C440.285 246.03 440.052 246.117 439.81 246.133L439.14 246.213C438.95 246.213 438.75 246.213 438.56 246.263C438.483 246.275 438.411 246.303 438.345 246.344C438.28 246.385 438.224 246.439 438.18 246.502C438.09 246.651 438.07 246.87 437.92 246.96C437.863 246.987 437.802 247.004 437.74 247.01L436.69 247.129L436.24 247.199C435.991 247.258 435.749 247.345 435.52 247.458C435.335 247.579 435.137 247.679 434.93 247.757C434.708 247.792 434.482 247.792 434.26 247.757L432.7 247.648C432.674 247.656 432.646 247.656 432.62 247.648C432.586 247.62 432.565 247.581 432.56 247.538C432.46 247.199 432.39 246.841 432.27 246.542C432.216 246.416 432.137 246.302 432.037 246.207C431.937 246.113 431.819 246.041 431.69 245.994C431.467 245.873 431.253 245.736 431.05 245.585C430.958 245.5 430.849 245.436 430.73 245.396C430.647 245.381 430.562 245.381 430.48 245.396L429.39 245.516C429.044 245.462 428.691 245.529 428.39 245.705C428.262 245.818 428.165 245.962 428.11 246.123L427.88 246.582C427.862 246.624 427.835 246.662 427.8 246.691C427.748 246.71 427.691 246.71 427.64 246.691H426.72C426.543 246.676 426.366 246.676 426.19 246.691L425.83 246.801C425.425 246.969 425.011 247.112 424.59 247.229C424.146 247.298 423.697 247.321 423.25 247.299C423.183 247.309 423.116 247.309 423.05 247.299C422.981 247.269 422.917 247.228 422.86 247.179L421.65 246.263C421.585 246.206 421.511 246.162 421.43 246.133H419.53C419.483 246.123 419.436 246.123 419.39 246.133C419.351 246.147 419.316 246.171 419.29 246.203C418.945 246.496 418.727 246.91 418.68 247.359C418.383 247.347 418.091 247.435 417.85 247.608C417.6 247.757 417.37 247.946 417.11 248.076C416.941 248.141 416.785 248.236 416.65 248.355C416.5 248.514 416.41 248.833 416.14 248.803H415.99C415.937 248.812 415.886 248.831 415.841 248.86C415.797 248.889 415.758 248.928 415.73 248.973C415.586 249.124 415.425 249.258 415.25 249.371C414.658 249.633 414.122 250.005 413.67 250.467C413.607 250.569 413.522 250.654 413.42 250.716C413.275 250.771 413.114 250.771 412.97 250.716C412.907 250.701 412.842 250.701 412.78 250.716C412.735 250.734 412.694 250.761 412.66 250.796C412.345 251.121 411.972 251.384 411.56 251.573C411.3 251.632 411.02 251.573 410.76 251.622C410.586 251.687 410.429 251.789 410.3 251.921C410.039 252.125 409.762 252.305 409.47 252.459C409.27 252.544 409.077 252.64 408.89 252.748C408.798 252.857 408.737 252.988 408.714 253.129C408.691 253.269 408.707 253.413 408.76 253.545H408.48C408.281 253.51 408.078 253.51 407.88 253.545C407.57 253.615 407.45 253.854 407.24 254.063C407.068 254.278 406.911 254.505 406.77 254.741Z" fill="#040707"/>
<path d="M1129.71 259.971C1129.79 259.98 1129.87 259.98 1129.95 259.971H1288V256.872H1283.67C1283.62 256.886 1283.56 256.886 1283.51 256.872C1283.48 256.834 1283.46 256.79 1283.45 256.743C1283.4 256.494 1283.32 256.252 1283.2 256.026C1283.13 255.796 1283.06 255.577 1282.98 255.348C1282.81 254.83 1282.63 254.352 1282.46 253.804C1282.44 253.743 1282.41 253.685 1282.37 253.635C1282.34 253.61 1282.3 253.592 1282.26 253.582C1282.22 253.572 1282.18 253.569 1282.14 253.575H1280.99C1280.6 253.595 1280.2 253.555 1279.82 253.455C1279.62 253.403 1279.44 253.308 1279.28 253.176C1279.13 253.057 1279.05 252.708 1278.91 252.638C1278.83 252.613 1278.75 252.613 1278.67 252.638C1278.28 252.778 1277.9 252.962 1277.54 253.186C1277.1 253.406 1276.44 253.535 1276.1 253.057C1275.96 252.858 1275.5 252.399 1275.43 252.28C1275.14 252.001 1274.8 251.778 1274.43 251.622C1274.11 251.503 1274.04 251.622 1273.55 251.622C1273.06 251.622 1272.43 251.622 1272.32 251.622C1271.8 251.622 1271.32 251.174 1270.79 251.015C1270.2 250.821 1269.56 250.861 1269 251.124L1268.66 251.294C1267.84 251.583 1266.95 251.642 1266.09 251.463C1265.36 251.343 1264.69 250.975 1263.96 250.795C1263.21 250.61 1262.44 250.503 1261.66 250.477C1260.96 250.435 1260.26 250.53 1259.6 250.756C1258.93 250.993 1258.21 251.095 1257.5 251.054C1256.97 251.054 1256.44 251.054 1255.91 251.054C1255.41 251.087 1254.92 251.173 1254.44 251.313C1254.41 251.323 1254.37 251.323 1254.34 251.313C1254.3 251.296 1254.26 251.265 1254.23 251.224C1253.91 250.88 1253.51 250.614 1253.07 250.447C1252.63 250.213 1252.13 250.11 1251.63 250.148C1251.23 250.218 1250.84 250.307 1250.45 250.397C1250.17 250.492 1249.88 250.568 1249.58 250.626C1249.23 250.646 1248.87 250.646 1248.52 250.626C1247.82 250.593 1247.11 250.65 1246.42 250.795C1246.01 250.895 1245.62 251.074 1245.21 251.204C1244.5 251.376 1243.78 251.49 1243.05 251.543C1242.83 251.543 1242.61 251.543 1242.39 251.612C1242.16 251.688 1241.92 251.725 1241.68 251.722C1241.55 251.704 1241.43 251.66 1241.31 251.592C1240.78 251.356 1240.2 251.224 1239.62 251.204C1238.49 251.259 1237.37 251.432 1236.27 251.722C1235.96 251.815 1235.67 251.967 1235.41 252.17C1235.09 252.369 1234.78 252.569 1234.41 252.748C1233.97 252.967 1233.54 253.213 1233.12 253.485C1232.69 253.794 1232.39 254.352 1231.92 254.591C1231.31 254.835 1230.67 255.015 1230.01 255.129L1228.01 255.647C1227.77 255.702 1227.53 255.702 1227.29 255.647C1227.14 255.598 1226.98 255.598 1226.83 255.647C1226.78 255.647 1226.72 255.737 1226.67 255.747C1226.62 255.757 1226.49 255.687 1226.42 255.657C1226.29 255.608 1226.15 255.59 1226.01 255.604C1225.87 255.618 1225.73 255.663 1225.61 255.737C1225.61 255.637 1225.47 255.617 1225.39 255.667C1225.31 255.717 1225.2 255.777 1225.12 255.717C1225.09 255.67 1225.06 255.62 1225.04 255.567C1225.02 255.524 1224.98 255.486 1224.94 255.456C1224.9 255.425 1224.86 255.403 1224.81 255.39C1224.76 255.377 1224.71 255.374 1224.66 255.38C1224.61 255.387 1224.56 255.403 1224.52 255.428C1224.32 255.508 1224.04 255.796 1223.81 255.707C1223.58 255.617 1223.65 255.537 1223.56 255.458C1223.51 255.403 1223.45 255.362 1223.37 255.34C1223.3 255.317 1223.23 255.313 1223.15 255.328C1223 255.328 1222.86 255.508 1222.7 255.508C1222.54 255.508 1222.4 255.408 1222.25 255.408C1222.1 255.438 1221.96 255.478 1221.81 255.527C1221.6 255.527 1221.37 255.398 1221.18 255.527L1221.09 255.587C1220.96 255.657 1220.84 255.587 1220.73 255.488C1220.58 255.432 1220.41 255.415 1220.25 255.438C1219.74 255.565 1219.24 255.731 1218.76 255.936C1218.06 256.145 1217.32 256.145 1216.62 255.936L1216.38 255.876C1216.17 255.894 1215.97 255.978 1215.81 256.115V256.424C1215.55 256.435 1215.29 256.507 1215.05 256.633C1214.91 256.713 1214.78 256.803 1214.63 256.872C1214.49 256.897 1214.34 256.897 1214.2 256.872C1214.02 256.897 1213.85 256.94 1213.68 257.002L1212.54 257.341C1212.51 257.351 1212.47 257.351 1212.43 257.341C1212.3 257.341 1212.21 257.141 1212.12 257.052C1212 256.932 1211.84 256.849 1211.67 256.813C1211.46 256.763 1211.24 256.753 1211.03 256.683C1210.8 256.581 1210.58 256.464 1210.36 256.334C1210.25 256.278 1210.13 256.249 1210 256.249C1209.88 256.249 1209.75 256.278 1209.64 256.334C1209.6 256.372 1209.54 256.396 1209.48 256.404C1209.38 256.404 1209.3 256.334 1209.22 256.265C1209.06 256.122 1208.88 256.015 1208.68 255.95C1208.48 255.884 1208.26 255.863 1208.05 255.886C1207.99 255.896 1207.92 255.896 1207.85 255.886C1207.79 255.863 1207.74 255.825 1207.69 255.777L1206.85 255.039C1206.81 254.997 1206.76 254.966 1206.7 254.95C1206.65 254.935 1206.6 254.935 1206.55 254.95C1206.28 255.031 1205.99 255.068 1205.7 255.059C1205.42 255.037 1205.14 255.114 1204.91 255.278L1204.63 254.87C1204.6 254.829 1204.57 254.792 1204.53 254.76C1204.48 254.745 1204.42 254.745 1204.36 254.76H1204C1203.96 254.751 1203.91 254.751 1203.87 254.76C1203.83 254.79 1203.8 254.827 1203.77 254.87C1203.67 254.967 1203.54 255.04 1203.4 255.085C1203.27 255.13 1203.12 255.145 1202.98 255.129H1202.16C1202.1 255.124 1202.04 255.142 1201.99 255.179C1201.94 255.239 1201.9 255.311 1201.88 255.388C1201.78 255.617 1201.6 255.597 1201.42 255.697C1201.21 255.812 1201.05 255.99 1200.95 256.205C1200.93 256.259 1200.91 256.31 1200.87 256.354L1200.76 256.434L1200.33 256.633C1200.3 256.651 1200.27 256.674 1200.24 256.703C1200.24 256.733 1200.24 256.763 1200.24 256.793C1200.24 256.872 1200.24 257.072 1200.17 257.111C1200.1 257.151 1199.91 257.111 1199.81 257.111C1199.68 257.152 1199.54 257.152 1199.4 257.111C1199.34 257.065 1199.28 257.008 1199.24 256.942L1198.99 256.603C1198.95 256.541 1198.9 256.49 1198.83 256.454C1198.77 256.44 1198.71 256.44 1198.65 256.454C1198.32 256.492 1197.98 256.492 1197.65 256.454C1197.43 256.394 1197.29 255.996 1197.2 255.777C1197.18 255.733 1197.16 255.693 1197.13 255.657C1197.09 255.627 1197.04 255.607 1196.99 255.597L1195.68 255.259C1195.68 255.259 1195.41 255.587 1195.36 255.617C1195.19 255.677 1195.02 255.717 1194.84 255.737L1193.65 256.026C1193.62 256.203 1193.56 256.373 1193.46 256.524L1193.3 256.673C1193.09 256.783 1192.9 256.928 1192.73 257.102C1192.6 257.263 1192.48 257.441 1192.39 257.63C1192.13 257.479 1191.89 257.309 1191.65 257.121C1191.42 256.94 1191.13 256.849 1190.83 256.862C1190.54 256.901 1190.24 256.864 1189.96 256.753C1189.79 256.612 1189.6 256.488 1189.4 256.384C1189.3 256.369 1189.19 256.369 1189.08 256.384H1187.89C1187.58 256.384 1187.12 256.504 1186.89 256.155C1186.8 255.986 1186.77 255.787 1186.69 255.627C1186.62 255.505 1186.52 255.401 1186.4 255.32C1186.29 255.239 1186.15 255.184 1186.01 255.159C1185.74 255.099 1185.47 255.089 1185.2 255.029C1185.05 255.003 1184.91 254.942 1184.79 254.85C1184.64 254.722 1184.52 254.567 1184.43 254.392L1183.95 253.595C1183.92 253.54 1183.88 253.492 1183.83 253.455C1183.77 253.441 1183.71 253.441 1183.65 253.455C1183.38 253.485 1183.1 253.485 1182.82 253.455C1182.61 253.395 1182.4 253.29 1182.23 253.147C1181.87 252.768 1181.46 252.446 1181 252.19C1180.68 252.089 1180.34 252.042 1180 252.051C1179.94 252.06 1179.87 252.06 1179.81 252.051C1179.75 252.023 1179.7 251.982 1179.65 251.931L1178.58 250.935C1178.55 250.894 1178.51 250.863 1178.46 250.845C1178.41 250.831 1178.36 250.831 1178.31 250.845L1177.14 250.925C1176.48 250.931 1175.82 250.817 1175.2 250.586C1174.62 250.422 1174.01 250.362 1173.41 250.407C1173.29 250.442 1173.16 250.442 1173.04 250.407C1172.96 250.366 1172.89 250.312 1172.83 250.248L1172.23 249.66C1172.11 249.525 1171.97 249.408 1171.81 249.311C1171.57 249.213 1171.31 249.172 1171.05 249.192H1168.46C1168.36 249.2 1168.25 249.23 1168.16 249.28C1168.07 249.33 1167.99 249.398 1167.92 249.48C1167.81 249.6 1167.64 249.929 1167.48 249.909C1167.04 249.899 1166.61 249.818 1166.2 249.67C1165.8 249.49 1165.46 249.201 1165.08 248.992C1165.01 248.955 1164.94 248.929 1164.86 248.913C1164.78 248.918 1164.7 248.939 1164.62 248.972L1162.96 249.58C1162.94 249.572 1162.91 249.572 1162.88 249.58C1162.87 249.625 1162.87 249.674 1162.88 249.72C1162.9 249.945 1162.9 250.171 1162.88 250.397C1162.88 250.429 1162.88 250.462 1162.87 250.493C1162.86 250.524 1162.84 250.552 1162.82 250.576C1162.77 250.596 1162.72 250.596 1162.67 250.576C1162.3 250.576 1161.94 250.576 1161.57 250.576L1160.66 251.194C1160.49 251.333 1160.27 251.42 1160.05 251.443L1159.44 251.513C1159.26 251.513 1159.08 251.513 1158.91 251.563C1158.84 251.577 1158.77 251.606 1158.71 251.649C1158.64 251.692 1158.59 251.747 1158.55 251.812C1158.47 251.961 1158.46 252.18 1158.32 252.26C1158.27 252.287 1158.21 252.304 1158.15 252.31L1157.15 252.429L1156.74 252.499C1156.51 252.559 1156.29 252.65 1156.08 252.768C1155.91 252.882 1155.73 252.978 1155.54 253.057C1155.34 253.092 1155.13 253.092 1154.92 253.057C1154.44 253.057 1153.92 252.997 1153.49 252.957H1153.42C1153.39 252.928 1153.37 252.89 1153.36 252.848C1153.27 252.499 1153.2 252.14 1153.1 251.851C1153.05 251.729 1152.98 251.618 1152.89 251.524C1152.79 251.429 1152.68 251.355 1152.56 251.303C1152.35 251.186 1152.16 251.049 1151.97 250.895C1151.89 250.808 1151.79 250.743 1151.67 250.706C1151.6 250.691 1151.52 250.691 1151.45 250.706L1150.45 250.825C1150.15 250.825 1149.81 250.825 1149.57 251.015C1149.46 251.136 1149.37 251.278 1149.31 251.433L1149.1 251.891C1149.09 251.932 1149.06 251.97 1149.03 252.001C1148.98 252.02 1148.92 252.02 1148.87 252.001H1148.03C1147.87 251.976 1147.71 251.976 1147.55 252.001C1147.43 252.022 1147.32 252.059 1147.21 252.11C1146.84 252.273 1146.47 252.413 1146.08 252.529C1145.67 252.602 1145.26 252.625 1144.84 252.599C1144.78 252.608 1144.72 252.608 1144.66 252.599C1144.6 252.572 1144.54 252.535 1144.48 252.489L1143.37 251.563C1143.32 251.508 1143.25 251.467 1143.17 251.443C1143.12 251.433 1143.06 251.433 1143.01 251.443H1141.42C1141.38 251.433 1141.34 251.433 1141.3 251.443C1141.27 251.461 1141.23 251.489 1141.21 251.523C1140.88 251.818 1140.68 252.229 1140.65 252.668C1140.37 252.662 1140.1 252.749 1139.88 252.917C1139.66 253.089 1139.44 253.249 1139.2 253.396C1139.04 253.46 1138.9 253.551 1138.77 253.665C1138.64 253.824 1138.56 254.153 1138.31 254.123H1138.17C1138.07 254.123 1138 254.222 1137.93 254.292C1137.8 254.446 1137.65 254.583 1137.49 254.701C1136.94 254.961 1136.45 255.33 1136.04 255.786C1135.98 255.888 1135.91 255.976 1135.81 256.046C1135.68 256.09 1135.53 256.09 1135.39 256.046C1135.34 256.026 1135.28 256.026 1135.22 256.046C1135.18 256.059 1135.14 256.083 1135.11 256.115C1134.82 256.364 1134.47 256.803 1134.11 256.892C1133.75 256.982 1133.61 256.892 1133.38 256.942C1133.22 257.008 1133.07 257.11 1132.95 257.241C1132.72 257.449 1132.46 257.633 1132.19 257.789C1132 257.865 1131.83 257.962 1131.66 258.078C1131.57 258.187 1131.52 258.317 1131.49 258.455C1131.47 258.593 1131.49 258.735 1131.54 258.865H1131.28C1131.1 258.84 1130.91 258.84 1130.73 258.865C1130.44 258.945 1130.34 259.174 1130.14 259.393C1130.15 259.353 1129.69 259.971 1129.71 259.971Z" fill="#040707"/>
<path d="M306.9 212.929L305.43 211.465L306.9 210L308.37 211.465L306.9 212.929Z" fill="#FFAE00"/>
<path d="M409.22 234.617L407.75 233.152L409.22 231.688L410.69 233.152L409.22 234.617Z" fill="#FFAE00"/>
<path d="M353.452 202.638C359.752 202.638 365.794 205.129 370.253 209.563C374.711 213.997 377.221 220.012 377.232 226.288V254.711H329.672V226.288C329.682 220.012 332.193 213.997 336.651 209.563C341.109 205.129 347.152 202.638 353.452 202.638Z" fill="#040707"/>
<path d="M326.841 216.884C325.84 219.378 325.239 222.014 325.061 224.695L325.001 226.288V254.711H305.891V233.391C305.891 224.934 314.451 217.83 325.761 216.904L326.851 216.844L326.841 216.884Z" fill="#040707"/>
<path d="M380 216.884C391.44 217.412 400.36 224.665 400.36 233.432V254.751H381.79V226.289C381.781 223.071 381.174 219.882 380 216.884Z" fill="#040707"/>
<path d="M322.538 212.113C329.105 212.113 334.428 206.809 334.428 200.267C334.428 193.726 329.105 188.422 322.538 188.422C315.972 188.422 310.648 193.726 310.648 200.267C310.648 206.809 315.972 212.113 322.538 212.113Z" fill="#040707"/>
<path d="M384.359 212.113C390.925 212.113 396.249 206.809 396.249 200.267C396.249 193.726 390.925 188.422 384.359 188.422C377.792 188.422 372.469 193.726 372.469 200.267C372.469 206.809 377.792 212.113 384.359 212.113Z" fill="#040707"/>
<path d="M353.45 197.896C363.954 197.896 372.47 189.413 372.47 178.948C372.47 168.483 363.954 160 353.45 160C342.945 160 334.43 168.483 334.43 178.948C334.43 189.413 342.945 197.896 353.45 197.896Z" fill="#040707"/>
<path d="M1095.46 224.466C1096.52 224.466 1097.38 223.609 1097.38 222.553C1097.38 221.496 1096.52 220.64 1095.46 220.64C1094.4 220.64 1093.54 221.496 1093.54 222.553C1093.54 223.609 1094.4 224.466 1095.46 224.466Z" fill="#FFAE00"/>
</svg>
