<svg width="34" height="34" viewBox="0 0 34 34" fill="none" xmlns="http://www.w3.org/2000/svg">
<circle cx="17" cy="17" r="16.25" fill="#F3F4F4" fill-opacity="0.1" stroke="url(#paint0_linear_9306_5370)" stroke-width="0.5"/>
<mask id="mask0_9306_5370" style="mask-type:alpha" maskUnits="userSpaceOnUse" x="7" y="7" width="20" height="20">
<rect x="7" y="7" width="20" height="20" fill="#D9D9D9"/>
</mask>
<g mask="url(#mask0_9306_5370)">
<path d="M22.8951 23.9792C21.2145 23.8542 19.6208 23.441 18.1138 22.7396C16.6069 22.0382 15.2562 21.0903 14.0618 19.8958C12.8673 18.7014 11.9263 17.3542 11.2388 15.8542C10.5513 14.3542 10.1381 12.7639 9.99926 11.0833C9.97148 10.7917 10.0568 10.5382 10.2553 10.3229C10.4536 10.1076 10.7016 10 10.9993 10H13.8326C14.0687 10 14.2736 10.0729 14.4472 10.2188C14.6208 10.3646 14.7354 10.5486 14.7909 10.7708L15.2909 12.9792C15.3187 13.1597 15.3083 13.3333 15.2597 13.5C15.2111 13.6667 15.1312 13.8056 15.0201 13.9167L12.9993 15.9583C13.277 16.4861 13.5965 16.9931 13.9576 17.4792C14.3187 17.9653 14.7213 18.4235 15.1653 18.8538C15.5824 19.2707 16.027 19.6562 16.4993 20.0104C16.9715 20.3646 17.4715 20.6806 17.9993 20.9583L20.0618 18.9583C20.1729 18.8472 20.3118 18.7674 20.4784 18.7188C20.6451 18.6701 20.8187 18.6597 20.9993 18.6875L23.2284 19.1667C23.4645 19.2361 23.652 19.3576 23.7909 19.5312C23.9298 19.7049 23.9993 19.9097 23.9993 20.1458V22.9792C23.9993 23.2768 23.8881 23.5248 23.6659 23.7231C23.4437 23.9216 23.1868 24.0069 22.8951 23.9792ZM12.3118 14.5L13.7701 13.0417L13.4126 11.5H11.5409C11.6104 12.0278 11.7076 12.5382 11.8326 13.0312C11.9576 13.5243 12.1173 14.0139 12.3118 14.5ZM19.4784 21.6667C19.9659 21.8644 20.4628 22.0215 20.969 22.1379C21.4753 22.2543 21.9854 22.3472 22.4993 22.4167V20.5417L20.9368 20.2083L19.4784 21.6667Z" fill="#FFAE00"/>
</g>
<defs>
<linearGradient id="paint0_linear_9306_5370" x1="22.6" y1="22.6" x2="33" y2="33" gradientUnits="userSpaceOnUse">
<stop stop-color="white" stop-opacity="0.5"/>
<stop offset="1" stop-color="#FFAE00"/>
</linearGradient>
</defs>
</svg>
