<svg width="28" height="28" viewBox="0 0 28 28" fill="none" xmlns="http://www.w3.org/2000/svg">
<mask id="mask0_5061_8029" style="mask-type:alpha" maskUnits="userSpaceOnUse" x="0" y="0" width="28" height="28">
<rect width="28" height="28" fill="#D9D9D9"/>
</mask>
<g mask="url(#mask0_5061_8029)">
<path d="M22.2547 23.7701C19.9019 23.5951 17.6707 23.0166 15.5609 22.0346C13.4512 21.0527 11.5602 19.7256 9.88802 18.0534C8.2158 16.3812 6.89844 14.4951 5.93594 12.3951C4.97344 10.2951 4.39497 8.06866 4.20052 5.71589C4.16163 5.30755 4.28112 4.95269 4.55898 4.6513C4.83665 4.34991 5.18383 4.19922 5.60052 4.19922H9.56719C9.89774 4.19922 10.1845 4.3013 10.4276 4.50547C10.6707 4.70964 10.8311 4.96727 10.9089 5.27839L11.6089 8.37005C11.6477 8.62283 11.6332 8.86589 11.5651 9.09922C11.497 9.33255 11.3852 9.527 11.2297 9.68255L8.40052 12.5409C8.78941 13.2798 9.23663 13.9895 9.74219 14.6701C10.2477 15.3506 10.8113 15.9921 11.433 16.5945C12.0169 17.1782 12.6394 17.718 13.3005 18.2138C13.9616 18.7096 14.6616 19.152 15.4005 19.5409L18.288 16.7409C18.4436 16.5853 18.638 16.4735 18.8714 16.4055C19.1047 16.3374 19.3477 16.3228 19.6005 16.3617L22.7214 17.0326C23.0519 17.1298 23.3144 17.2999 23.5089 17.543C23.7033 17.786 23.8005 18.0728 23.8005 18.4034V22.3701C23.8005 22.7867 23.645 23.1339 23.3339 23.4116C23.0227 23.6895 22.663 23.8089 22.2547 23.7701ZM7.43802 10.4992L9.47969 8.45755L8.97919 6.29922H6.35885C6.45608 7.03811 6.59219 7.75269 6.76719 8.44297C6.94219 9.13325 7.1658 9.81866 7.43802 10.4992ZM17.4714 20.5326C18.1539 20.8094 18.8495 21.0294 19.5582 21.1923C20.267 21.3552 20.9811 21.4853 21.7005 21.5826V18.9576L19.513 18.4909L17.4714 20.5326Z" fill="#DDDDDD"/>
</g>
</svg>
