<svg width="46" height="46" viewBox="0 0 46 46" fill="none" xmlns="http://www.w3.org/2000/svg">
<circle cx="23" cy="23" r="22.25" fill="#F3F4F4" fill-opacity="0.1" stroke="url(#paint0_linear_9306_5475)" stroke-width="0.5"/>
<mask id="mask0_9306_5475" style="mask-type:alpha" maskUnits="userSpaceOnUse" x="11" y="11" width="24" height="24">
<rect x="11" y="11" width="24" height="24" fill="#D9D9D9"/>
</mask>
<g mask="url(#mask0_9306_5475)">
<path d="M30.95 32C28.8667 32 26.8083 31.5458 24.775 30.6375C22.7417 29.7292 20.8917 28.4417 19.225 26.775C17.5583 25.1083 16.2708 23.2583 15.3625 21.225C14.4542 19.1917 14 17.1333 14 15.05C14 14.75 14.1 14.5 14.3 14.3C14.5 14.1 14.75 14 15.05 14H19.1C19.3333 14 19.5417 14.0792 19.725 14.2375C19.9083 14.3958 20.0167 14.5833 20.05 14.8L20.7 18.3C20.7333 18.5667 20.725 18.7917 20.675 18.975C20.625 19.1583 20.5333 19.3167 20.4 19.45L17.975 21.9C18.3083 22.5167 18.7042 23.1125 19.1625 23.6875C19.6208 24.2625 20.125 24.8167 20.675 25.35C21.1917 25.8667 21.7333 26.3458 22.3 26.7875C22.8667 27.2292 23.4667 27.6333 24.1 28L26.45 25.65C26.6 25.5 26.7958 25.3875 27.0375 25.3125C27.2792 25.2375 27.5167 25.2167 27.75 25.25L31.2 25.95C31.4333 26.0167 31.625 26.1375 31.775 26.3125C31.925 26.4875 32 26.6833 32 26.9V30.95C32 31.25 31.9 31.5 31.7 31.7C31.5 31.9 31.25 32 30.95 32ZM17.025 20L18.675 18.35L18.25 16H16.025C16.1083 16.6833 16.225 17.3583 16.375 18.025C16.525 18.6917 16.7417 19.35 17.025 20ZM25.975 28.95C26.625 29.2333 27.2875 29.4583 27.9625 29.625C28.6375 29.7917 29.3167 29.9 30 29.95V27.75L27.65 27.275L25.975 28.95Z" fill="#FFAE00"/>
</g>
<defs>
<linearGradient id="paint0_linear_9306_5475" x1="30.7" y1="30.7" x2="45" y2="45" gradientUnits="userSpaceOnUse">
<stop stop-color="white" stop-opacity="0.5"/>
<stop offset="1" stop-color="#FFAE00"/>
</linearGradient>
</defs>
</svg>
