<svg width="34" height="33" viewBox="0 0 34 33" fill="none" xmlns="http://www.w3.org/2000/svg">
<circle cx="17" cy="16.5" r="16.25" fill="#F3F4F4" fill-opacity="0.1" stroke="url(#paint0_linear_839_27435)" stroke-width="0.5"/>
<mask id="mask0_839_27435" style="mask-type:alpha" maskUnits="userSpaceOnUse" x="7" y="6" width="20" height="21">
<rect x="7" y="6.5" width="20" height="20" fill="#D9D9D9"/>
</mask>
<g mask="url(#mask0_839_27435)">
<path d="M22.8951 23.4792C21.2145 23.3542 19.6208 22.941 18.1138 22.2396C16.6069 21.5382 15.2562 20.5903 14.0618 19.3958C12.8673 18.2014 11.9263 16.8542 11.2388 15.3542C10.5513 13.8542 10.1381 12.2639 9.99926 10.5833C9.97148 10.2917 10.0568 10.0382 10.2553 9.82292C10.4536 9.60764 10.7016 9.5 10.9993 9.5H13.8326C14.0687 9.5 14.2736 9.57292 14.4472 9.71875C14.6208 9.86458 14.7354 10.0486 14.7909 10.2708L15.2909 12.4792C15.3187 12.6597 15.3083 12.8333 15.2597 13C15.2111 13.1667 15.1312 13.3056 15.0201 13.4167L12.9993 15.4583C13.277 15.9861 13.5965 16.4931 13.9576 16.9792C14.3187 17.4653 14.7213 17.9235 15.1653 18.3538C15.5824 18.7707 16.027 19.1562 16.4993 19.5104C16.9715 19.8646 17.4715 20.1806 17.9993 20.4583L20.0618 18.4583C20.1729 18.3472 20.3118 18.2674 20.4784 18.2188C20.6451 18.1701 20.8187 18.1597 20.9993 18.1875L23.2284 18.6667C23.4645 18.7361 23.652 18.8576 23.7909 19.0312C23.9298 19.2049 23.9993 19.4097 23.9993 19.6458V22.4792C23.9993 22.7768 23.8881 23.0248 23.6659 23.2231C23.4437 23.4216 23.1868 23.5069 22.8951 23.4792ZM12.3118 14L13.7701 12.5417L13.4126 11H11.5409C11.6104 11.5278 11.7076 12.0382 11.8326 12.5312C11.9576 13.0243 12.1173 13.5139 12.3118 14ZM19.4784 21.1667C19.9659 21.3644 20.4628 21.5215 20.969 21.6379C21.4753 21.7543 21.9854 21.8472 22.4993 21.9167V20.0417L20.9368 19.7083L19.4784 21.1667Z" fill="#FFAE00"/>
</g>
<defs>
<linearGradient id="paint0_linear_839_27435" x1="22.6" y1="22.1" x2="33" y2="32.5" gradientUnits="userSpaceOnUse">
<stop stop-color="white" stop-opacity="0.5"/>
<stop offset="1" stop-color="#FFAE00"/>
</linearGradient>
</defs>
</svg>
