<svg width="40" height="41" viewBox="0 0 40 41" fill="none" xmlns="http://www.w3.org/2000/svg">
<path d="M26.667 18.833C29.4337 18.833 31.6503 16.5997 31.6503 13.833C31.6503 11.0663 29.4337 8.83301 26.667 8.83301C23.9003 8.83301 21.667 11.0663 21.667 13.833C21.667 16.5997 23.9003 18.833 26.667 18.833ZM13.3337 18.833C16.1003 18.833 18.317 16.5997 18.317 13.833C18.317 11.0663 16.1003 8.83301 13.3337 8.83301C10.567 8.83301 8.33366 11.0663 8.33366 13.833C8.33366 16.5997 10.567 18.833 13.3337 18.833ZM13.3337 22.1663C9.45033 22.1663 1.66699 24.1163 1.66699 27.9997V32.1663H25.0003V27.9997C25.0003 24.1163 17.217 22.1663 13.3337 22.1663ZM26.667 22.1663C26.1837 22.1663 25.6337 22.1997 25.0503 22.2497C26.9837 23.6497 28.3337 25.533 28.3337 27.9997V32.1663H38.3337V27.9997C38.3337 24.1163 30.5503 22.1663 26.667 22.1663Z" fill="#FFAE00"/>
</svg>
