<svg width="20" height="20" viewBox="0 0 20 20" fill="none" xmlns="http://www.w3.org/2000/svg">
<mask id="mask0_211_19155" style="mask-type:alpha" maskUnits="userSpaceOnUse" x="0" y="0" width="20" height="20">
<rect width="20" height="20" fill="#D9D9D9"/>
</mask>
<g mask="url(#mask0_211_19155)">
<path d="M0 15V13.7708C0 13.0625 0.3125 12.5069 0.9375 12.1042C1.5625 11.7014 2.41667 11.5 3.5 11.5C3.70833 11.5 3.91667 11.5104 4.125 11.5312C4.33333 11.5521 4.54167 11.5833 4.75 11.625C4.51389 11.9028 4.32986 12.2153 4.19792 12.5625C4.06597 12.9097 4 13.2608 4 13.6158V15H0ZM5 15V13.7292C5 13.3422 5.10069 12.9885 5.30208 12.6681C5.50347 12.3477 5.77083 12.1042 6.10417 11.9375C6.71528 11.6319 7.34722 11.3993 8 11.2396C8.65278 11.0799 9.31618 11 9.99021 11C10.6773 11 11.3472 11.0799 12 11.2396C12.6528 11.3993 13.2847 11.6319 13.8958 11.9375C14.2292 12.1042 14.4965 12.3477 14.6979 12.6681C14.8993 12.9885 15 13.3422 15 13.7292V15H5ZM16 15V13.5965C16 13.2222 15.934 12.8694 15.8021 12.5383C15.6701 12.2072 15.4861 11.9028 15.25 11.625C15.4861 11.5833 15.7049 11.5521 15.9062 11.5312C16.1076 11.5104 16.3056 11.5 16.5 11.5C17.5833 11.5 18.4375 11.7014 19.0625 12.1042C19.6875 12.5069 20 13.0625 20 13.7708V15H16ZM6.54167 13.5H13.4583C13.3611 13.2639 12.9479 13.0382 12.2188 12.8229C11.4896 12.6076 10.75 12.5 10 12.5C9.25 12.5 8.51042 12.6076 7.78125 12.8229C7.05208 13.0382 6.63889 13.2639 6.54167 13.5ZM3.49563 10.5C3.08188 10.5 2.72917 10.354 2.4375 10.0619C2.14583 9.76993 2 9.41889 2 9.00875C2 8.58625 2.14604 8.22917 2.43813 7.9375C2.73007 7.64583 3.08111 7.5 3.49125 7.5C3.91375 7.5 4.27083 7.64417 4.5625 7.9325C4.85417 8.22083 5 8.57813 5 9.00438C5 9.41813 4.85583 9.77083 4.5675 10.0625C4.27917 10.3542 3.92188 10.5 3.49563 10.5ZM16.4956 10.5C16.0819 10.5 15.7292 10.354 15.4375 10.0619C15.1458 9.76993 15 9.41889 15 9.00875C15 8.58625 15.146 8.22917 15.4381 7.9375C15.7301 7.64583 16.0811 7.5 16.4913 7.5C16.9138 7.5 17.2708 7.64417 17.5625 7.9325C17.8542 8.22083 18 8.57813 18 9.00438C18 9.41813 17.8558 9.77083 17.5675 10.0625C17.2792 10.3542 16.9219 10.5 16.4956 10.5ZM9.98958 10C9.30208 10 8.71528 9.75694 8.22917 9.27083C7.74306 8.78472 7.5 8.19444 7.5 7.5C7.5 6.80556 7.74306 6.21528 8.22917 5.72917C8.71528 5.24306 9.30556 5 10 5C10.6944 5 11.2847 5.24306 11.7708 5.72917C12.2569 6.21528 12.5 6.80903 12.5 7.51042C12.5 8.19792 12.2569 8.78472 11.7708 9.27083C11.2847 9.75694 10.691 10 9.98958 10ZM10 8.5C10.2833 8.5 10.5208 8.40417 10.7125 8.2125C10.9042 8.02083 11 7.78333 11 7.5C11 7.21667 10.9042 6.97917 10.7125 6.7875C10.5208 6.59583 10.2833 6.5 10 6.5C9.71667 6.5 9.47917 6.59583 9.2875 6.7875C9.09583 6.97917 9 7.21667 9 7.5C9 7.78333 9.09583 8.02083 9.2875 8.2125C9.47917 8.40417 9.71667 8.5 10 8.5Z" fill="#FFAE00"/>
</g>
</svg>
