<svg width="100" height="100" viewBox="0 0 100 100" fill="none" xmlns="http://www.w3.org/2000/svg">
<g clip-path="url(#clip0_3059_13944)">
<path d="M50.0222 88.1404C65.1835 88.1404 80.3448 88.1905 95.5061 88.1016C98.8432 88.1016 100.261 89.1182 99.9555 92.6682C99.954 93.1627 99.8923 93.6552 99.772 94.1349C99.327 95.4682 98.2703 96.1238 96.6741 96.1238H64.3159C62.9422 96.1238 61.5684 96.1571 60.1947 96.1238C59.9154 96.0761 59.6283 96.1271 59.3826 96.268C59.1369 96.409 58.9482 96.631 58.8487 96.896C57.0523 100.568 57.5695 100.118 53.5039 100.135C50.5006 100.135 47.5028 100.096 44.505 100.135C43.2759 100.135 42.3359 99.7849 41.98 98.5849C41.3626 96.5071 40.0723 96.0349 37.9422 96.0627C26.4905 96.1904 15.0334 96.1238 3.58176 96.1238C1.0901 96.1238 0.00556174 95.046 0 92.5849V91.5849C0 89.2738 1.11235 88.1349 3.42047 88.1349H50.0222V88.1404Z" fill="#F7AC1B"/>
<path d="M6.5625 85.8855C7.07418 84.3355 7.47462 82.8521 8.06973 81.441C8.20172 81.1243 8.39492 80.8366 8.63827 80.5945C8.88162 80.3523 9.17036 80.1605 9.48797 80.0299C17.8751 77.9132 26.2121 75.4854 34.7049 73.9188C41.9018 72.6077 48.1754 79.1577 47.9418 85.8521L6.5625 85.8855Z" fill="#F7AC1B"/>
<path d="M93.4079 85.9234H51.9841C51.9452 84.2618 52.2676 82.6115 52.9292 81.0865C53.5908 79.5614 54.5758 78.1979 55.8161 77.0901C59.2366 73.9456 63.2411 73.1289 67.7294 74.2734C74.9893 76.1252 82.2566 77.9364 89.5314 79.7067C90.9774 80.0623 91.8617 80.7623 92.2233 82.2401C92.5236 83.479 92.9963 84.6678 93.4079 85.9234Z" fill="#F7AC1B"/>
<path d="M55.9783 58.5298C55.9783 59.7158 55.6261 60.8752 54.9662 61.8613C54.3063 62.8473 53.3683 63.6156 52.2711 64.069C51.1739 64.5223 49.9667 64.6404 48.8023 64.4082C47.6379 64.176 46.5687 63.604 45.7298 62.7645C44.891 61.9251 44.3203 60.8559 44.09 59.6924C43.8597 58.5289 43.9802 57.3232 44.4361 56.2281C44.892 55.1329 45.6629 54.1975 46.6512 53.5402C47.6396 52.8828 48.8009 52.5331 49.9883 52.5353C50.7775 52.5294 51.56 52.6805 52.2902 52.9798C53.0203 53.279 53.6835 53.7205 54.2411 54.2785C54.7986 54.8365 55.2394 55.4998 55.5376 56.2296C55.8359 56.9595 55.9857 57.7414 55.9783 58.5298Z" fill="#F7AC1B"/>
<path d="M49.9436 68.5125C50.3422 68.5014 50.7351 68.6095 51.0719 68.823C51.4086 69.0364 51.6739 69.3454 51.8337 69.7104C51.9935 70.0754 52.0405 70.4798 51.9687 70.8716C51.8969 71.2635 51.7097 71.625 51.4309 71.9099C51.1521 72.1947 50.7945 72.3899 50.4039 72.4704C50.0133 72.551 49.6075 72.5131 49.2386 72.3618C48.8697 72.2105 48.5544 71.9526 48.3332 71.6211C48.112 71.2896 47.9949 70.8997 47.997 70.5014C47.9918 70.2425 48.0383 69.9852 48.1337 69.7445C48.2292 69.5038 48.3716 69.2844 48.5529 69.0993C48.7341 68.9142 48.9504 68.7669 49.1891 68.6662C49.4279 68.5654 49.6844 68.5132 49.9436 68.5125Z" fill="#F7AC1B"/>
<path d="M72.8654 9.31175C72.4169 9.02815 72.037 8.64865 71.7531 8.20064C70.6408 6.67286 69.7787 4.8673 68.4161 3.62842C63.9945 -0.399363 56.9589 -1.09381 51.3638 1.64508C50.8807 1.88863 50.3205 1.93059 49.8065 1.76175C47.1285 0.385796 44.1112 -0.192704 41.1135 0.0950816C35.6129 0.650637 31.3304 3.08397 29.0779 8.42842C28.8487 8.82545 28.4949 9.13592 28.0712 9.31175C22.4594 12.0284 19.0723 16.434 18.544 22.6451C17.9878 29.0618 20.6296 34.1673 26.1135 37.5784C27.8376 38.6451 29.4505 39.5506 30.0735 41.6062C30.3098 42.0992 30.6361 42.5438 31.0356 42.9173C35.2347 48.0395 43.2103 49.5229 49.5673 46.3395C49.8425 46.1734 50.1579 46.0855 50.4795 46.0855C50.801 46.0855 51.1164 46.1734 51.3916 46.3395C53.5828 47.4647 56.0079 48.0603 58.4717 48.0784C59.5493 48.0136 60.6225 47.8893 61.6864 47.7062C66.3749 46.6673 69.99 44.2506 71.8643 39.6395C72.1184 39.2011 72.5091 38.8578 72.9767 38.6618C79.0612 35.6118 82.465 30.7562 82.4316 23.9062C82.3983 17.0562 78.9166 12.3284 72.8654 9.31175ZM56.1802 25.4229L57.5373 33.3284L50.435 29.5895L43.3382 33.3229L44.6953 25.4229L38.9444 19.8284L46.8866 18.6673L50.435 11.4895L53.9889 18.6673L61.9311 19.8284L56.1802 25.4229Z" fill="#F7AC1B"/>
</g>
<defs>
<clipPath id="clip0_3059_13944">
<rect width="100" height="100" fill="white"/>
</clipPath>
</defs>
</svg>
