<svg width="24" height="22" viewBox="0 0 24 22" fill="none" xmlns="http://www.w3.org/2000/svg">
<path d="M11.6036 1.1569C11.6496 1.06405 11.7205 0.985896 11.8086 0.931254C11.8966 0.876611 11.9981 0.847656 12.1017 0.847656C12.2053 0.847656 12.3068 0.876611 12.3949 0.931254C12.4829 0.985896 12.5539 1.06405 12.5998 1.1569L15.0222 6.06355C15.1818 6.3865 15.4174 6.66591 15.7087 6.87778C16 7.08966 16.3384 7.22767 16.6948 7.27999L22.1122 8.07277C22.2148 8.08764 22.3112 8.13094 22.3906 8.19777C22.4699 8.2646 22.5289 8.35229 22.561 8.45092C22.5931 8.54956 22.5969 8.6552 22.5721 8.7559C22.5472 8.8566 22.4947 8.94835 22.4205 9.02075L18.5027 12.8358C18.2443 13.0875 18.051 13.3983 17.9394 13.7414C17.8278 14.0845 17.8012 14.4495 17.862 14.8051L18.7869 20.1952C18.805 20.2978 18.7939 20.4034 18.7549 20.5C18.7159 20.5966 18.6505 20.6803 18.5662 20.7416C18.4819 20.8028 18.3821 20.8391 18.2781 20.8463C18.1742 20.8535 18.0703 20.8314 17.9784 20.7825L13.1357 18.2363C12.8166 18.0688 12.4616 17.9812 12.1012 17.9812C11.7408 17.9812 11.3858 18.0688 11.0667 18.2363L6.22505 20.7825C6.13312 20.8311 6.02937 20.853 5.92561 20.8456C5.82185 20.8383 5.72224 20.8019 5.63811 20.7407C5.55399 20.6796 5.48872 20.596 5.44974 20.4996C5.41075 20.4031 5.39961 20.2977 5.41759 20.1952L6.34145 14.8062C6.40248 14.4504 6.37604 14.0851 6.26442 13.7418C6.15279 13.3986 5.95933 13.0876 5.70072 12.8358L1.78295 9.0218C1.70807 8.94948 1.65501 8.85758 1.62981 8.75657C1.60461 8.65556 1.60829 8.54951 1.64042 8.45049C1.67255 8.35147 1.73185 8.26346 1.81156 8.19649C1.89126 8.12953 1.98818 8.0863 2.09126 8.07172L7.50756 7.27999C7.86437 7.22808 8.20322 7.09024 8.49495 6.87834C8.78668 6.66644 9.02255 6.38682 9.18226 6.06355L11.6036 1.1569Z" stroke="url(#paint0_linear_200_32842)" stroke-width="1.4748" stroke-linecap="round" stroke-linejoin="round"/>
<path d="M11.6036 1.1569C11.6496 1.06405 11.7205 0.985896 11.8086 0.931254C11.8966 0.876611 11.9981 0.847656 12.1017 0.847656C12.2053 0.847656 12.3068 0.876611 12.3949 0.931254C12.4829 0.985896 12.5539 1.06405 12.5998 1.1569L15.0222 6.06355C15.1818 6.3865 15.4174 6.66591 15.7087 6.87778C16 7.08966 16.3384 7.22767 16.6948 7.27999L22.1122 8.07277C22.2148 8.08764 22.3112 8.13094 22.3906 8.19777C22.4699 8.2646 22.5289 8.35229 22.561 8.45092C22.5931 8.54956 22.5969 8.6552 22.5721 8.7559C22.5472 8.8566 22.4947 8.94835 22.4205 9.02075L18.5027 12.8358C18.2443 13.0875 18.051 13.3983 17.9394 13.7414C17.8278 14.0845 17.8012 14.4495 17.862 14.8051L18.7869 20.1952C18.805 20.2978 18.7939 20.4034 18.7549 20.5C18.7159 20.5966 18.6505 20.6803 18.5662 20.7416C18.4819 20.8028 18.3821 20.8391 18.2781 20.8463C18.1742 20.8535 18.0703 20.8314 17.9784 20.7825L13.1357 18.2363C12.8166 18.0688 12.4616 17.9812 12.1012 17.9812C11.7408 17.9812 11.3858 18.0688 11.0667 18.2363L6.22505 20.7825C6.13312 20.8311 6.02937 20.853 5.92561 20.8456C5.82185 20.8383 5.72224 20.8019 5.63811 20.7407C5.55399 20.6796 5.48872 20.596 5.44974 20.4996C5.41075 20.4031 5.39961 20.2977 5.41759 20.1952L6.34145 14.8062C6.40248 14.4504 6.37604 14.0851 6.26442 13.7418C6.15279 13.3986 5.95933 13.0876 5.70072 12.8358L1.78295 9.0218C1.70807 8.94948 1.65501 8.85758 1.62981 8.75657C1.60461 8.65556 1.60829 8.54951 1.64042 8.45049C1.67255 8.35147 1.73185 8.26346 1.81156 8.19649C1.89126 8.12953 1.98818 8.0863 2.09126 8.07172L7.50756 7.27999C7.86437 7.22808 8.20322 7.09024 8.49495 6.87834C8.78668 6.66644 9.02255 6.38682 9.18226 6.06355L11.6036 1.1569Z" stroke="url(#paint1_linear_200_32842)" stroke-width="1.4748" stroke-linecap="round" stroke-linejoin="round"/>
<defs>
<linearGradient id="paint0_linear_200_32842" x1="22.5883" y1="0.847656" x2="2.61089" y2="21.7989" gradientUnits="userSpaceOnUse">
<stop stop-color="#FFAE00"/>
<stop offset="1" stop-color="#F87E00"/>
</linearGradient>
<linearGradient id="paint1_linear_200_32842" x1="12.1008" y1="0.847656" x2="12.1008" y2="20.8477" gradientUnits="userSpaceOnUse">
<stop stop-color="#F87E00"/>
<stop offset="0.6" stop-color="#FFAE00"/>
</linearGradient>
</defs>
</svg>
