<svg width="23" height="22" viewBox="0 0 23 22" fill="none" xmlns="http://www.w3.org/2000/svg">
<path d="M11.2013 1.1569C11.2472 1.06405 11.3182 0.985896 11.4062 0.931254C11.4942 0.876611 11.5958 0.847656 11.6994 0.847656C11.803 0.847656 11.9045 0.876611 11.9925 0.931254C12.0805 0.985896 12.1515 1.06405 12.1975 1.1569L14.6199 6.06355C14.7794 6.3865 15.015 6.66591 15.3063 6.87778C15.5977 7.08966 15.9361 7.22767 16.2925 7.27999L21.7098 8.07277C21.8125 8.08764 21.9089 8.13094 21.9882 8.19777C22.0675 8.2646 22.1266 8.35229 22.1587 8.45092C22.1907 8.54956 22.1946 8.6552 22.1697 8.7559C22.1449 8.8566 22.0924 8.94835 22.0181 9.02075L18.1003 12.8358C17.842 13.0875 17.6487 13.3983 17.537 13.7414C17.4254 14.0845 17.3989 14.4495 17.4596 14.8051L18.3845 20.1952C18.4027 20.2978 18.3916 20.4034 18.3525 20.5C18.3135 20.5966 18.2481 20.6803 18.1638 20.7416C18.0795 20.8028 17.9797 20.8391 17.8758 20.8463C17.7719 20.8535 17.668 20.8314 17.576 20.7825L12.7333 18.2363C12.4142 18.0688 12.0592 17.9812 11.6988 17.9812C11.3384 17.9812 10.9834 18.0688 10.6643 18.2363L5.82271 20.7825C5.73077 20.8311 5.62703 20.853 5.52327 20.8456C5.41951 20.8383 5.3199 20.8019 5.23577 20.7407C5.15164 20.6796 5.08638 20.596 5.04739 20.4996C5.00841 20.4031 4.99727 20.2977 5.01524 20.1952L5.93911 14.8062C6.00014 14.4504 5.9737 14.0851 5.86207 13.7418C5.75045 13.3986 5.55699 13.0876 5.29838 12.8358L1.38061 9.0218C1.30573 8.94948 1.25267 8.85758 1.22747 8.75657C1.20227 8.65556 1.20594 8.54951 1.23808 8.45049C1.27021 8.35147 1.32951 8.26346 1.40921 8.1965C1.48892 8.12953 1.58583 8.0863 1.68891 8.07172L7.10521 7.27999C7.46202 7.22808 7.80088 7.09024 8.09261 6.87834C8.38434 6.66644 8.62021 6.38682 8.77991 6.06355L11.2013 1.1569Z" fill="url(#paint0_linear_200_32841)"/>
<path d="M11.2013 1.1569C11.2472 1.06405 11.3182 0.985896 11.4062 0.931254C11.4942 0.876611 11.5958 0.847656 11.6994 0.847656C11.803 0.847656 11.9045 0.876611 11.9925 0.931254C12.0805 0.985896 12.1515 1.06405 12.1975 1.1569L14.6199 6.06355C14.7794 6.3865 15.015 6.66591 15.3063 6.87778C15.5977 7.08966 15.9361 7.22767 16.2925 7.27999L21.7098 8.07277C21.8125 8.08764 21.9089 8.13094 21.9882 8.19777C22.0675 8.2646 22.1266 8.35229 22.1587 8.45092C22.1907 8.54956 22.1946 8.6552 22.1697 8.7559C22.1449 8.8566 22.0924 8.94835 22.0181 9.02075L18.1003 12.8358C17.842 13.0875 17.6487 13.3983 17.537 13.7414C17.4254 14.0845 17.3989 14.4495 17.4596 14.8051L18.3845 20.1952C18.4027 20.2978 18.3916 20.4034 18.3525 20.5C18.3135 20.5966 18.2481 20.6803 18.1638 20.7416C18.0795 20.8028 17.9797 20.8391 17.8758 20.8463C17.7719 20.8535 17.668 20.8314 17.576 20.7825L12.7333 18.2363C12.4142 18.0688 12.0592 17.9812 11.6988 17.9812C11.3384 17.9812 10.9834 18.0688 10.6643 18.2363L5.82271 20.7825C5.73077 20.8311 5.62703 20.853 5.52327 20.8456C5.41951 20.8383 5.3199 20.8019 5.23577 20.7407C5.15164 20.6796 5.08638 20.596 5.04739 20.4996C5.00841 20.4031 4.99727 20.2977 5.01524 20.1952L5.93911 14.8062C6.00014 14.4504 5.9737 14.0851 5.86207 13.7418C5.75045 13.3986 5.55699 13.0876 5.29838 12.8358L1.38061 9.0218C1.30573 8.94948 1.25267 8.85758 1.22747 8.75657C1.20227 8.65556 1.20594 8.54951 1.23808 8.45049C1.27021 8.35147 1.32951 8.26346 1.40921 8.1965C1.48892 8.12953 1.58583 8.0863 1.68891 8.07172L7.10521 7.27999C7.46202 7.22808 7.80088 7.09024 8.09261 6.87834C8.38434 6.66644 8.62021 6.38682 8.77991 6.06355L11.2013 1.1569Z" fill="url(#paint1_linear_200_32841)"/>
<path d="M11.2013 1.1569C11.2472 1.06405 11.3182 0.985896 11.4062 0.931254C11.4942 0.876611 11.5958 0.847656 11.6994 0.847656C11.803 0.847656 11.9045 0.876611 11.9925 0.931254C12.0805 0.985896 12.1515 1.06405 12.1975 1.1569L14.6199 6.06355C14.7794 6.3865 15.015 6.66591 15.3063 6.87778C15.5977 7.08966 15.9361 7.22767 16.2925 7.27999L21.7098 8.07277C21.8125 8.08764 21.9089 8.13094 21.9882 8.19777C22.0675 8.2646 22.1266 8.35229 22.1587 8.45092C22.1907 8.54956 22.1946 8.6552 22.1697 8.7559C22.1449 8.8566 22.0924 8.94835 22.0181 9.02075L18.1003 12.8358C17.842 13.0875 17.6487 13.3983 17.537 13.7414C17.4254 14.0845 17.3989 14.4495 17.4596 14.8051L18.3845 20.1952C18.4027 20.2978 18.3916 20.4034 18.3525 20.5C18.3135 20.5966 18.2481 20.6803 18.1638 20.7416C18.0795 20.8028 17.9797 20.8391 17.8758 20.8463C17.7719 20.8535 17.668 20.8314 17.576 20.7825L12.7333 18.2363C12.4142 18.0688 12.0592 17.9812 11.6988 17.9812C11.3384 17.9812 10.9834 18.0688 10.6643 18.2363L5.82271 20.7825C5.73077 20.8311 5.62703 20.853 5.52327 20.8456C5.41951 20.8383 5.3199 20.8019 5.23577 20.7407C5.15164 20.6796 5.08638 20.596 5.04739 20.4996C5.00841 20.4031 4.99727 20.2977 5.01524 20.1952L5.93911 14.8062C6.00014 14.4504 5.9737 14.0851 5.86207 13.7418C5.75045 13.3986 5.55699 13.0876 5.29838 12.8358L1.38061 9.0218C1.30573 8.94948 1.25267 8.85758 1.22747 8.75657C1.20227 8.65556 1.20594 8.54951 1.23808 8.45049C1.27021 8.35147 1.32951 8.26346 1.40921 8.1965C1.48892 8.12953 1.58583 8.0863 1.68891 8.07172L7.10521 7.27999C7.46202 7.22808 7.80088 7.09024 8.09261 6.87834C8.38434 6.66644 8.62021 6.38682 8.77991 6.06355L11.2013 1.1569Z" stroke="url(#paint2_linear_200_32841)" stroke-width="1.4748" stroke-linecap="round" stroke-linejoin="round"/>
<path d="M11.2013 1.1569C11.2472 1.06405 11.3182 0.985896 11.4062 0.931254C11.4942 0.876611 11.5958 0.847656 11.6994 0.847656C11.803 0.847656 11.9045 0.876611 11.9925 0.931254C12.0805 0.985896 12.1515 1.06405 12.1975 1.1569L14.6199 6.06355C14.7794 6.3865 15.015 6.66591 15.3063 6.87778C15.5977 7.08966 15.9361 7.22767 16.2925 7.27999L21.7098 8.07277C21.8125 8.08764 21.9089 8.13094 21.9882 8.19777C22.0675 8.2646 22.1266 8.35229 22.1587 8.45092C22.1907 8.54956 22.1946 8.6552 22.1697 8.7559C22.1449 8.8566 22.0924 8.94835 22.0181 9.02075L18.1003 12.8358C17.842 13.0875 17.6487 13.3983 17.537 13.7414C17.4254 14.0845 17.3989 14.4495 17.4596 14.8051L18.3845 20.1952C18.4027 20.2978 18.3916 20.4034 18.3525 20.5C18.3135 20.5966 18.2481 20.6803 18.1638 20.7416C18.0795 20.8028 17.9797 20.8391 17.8758 20.8463C17.7719 20.8535 17.668 20.8314 17.576 20.7825L12.7333 18.2363C12.4142 18.0688 12.0592 17.9812 11.6988 17.9812C11.3384 17.9812 10.9834 18.0688 10.6643 18.2363L5.82271 20.7825C5.73077 20.8311 5.62703 20.853 5.52327 20.8456C5.41951 20.8383 5.3199 20.8019 5.23577 20.7407C5.15164 20.6796 5.08638 20.596 5.04739 20.4996C5.00841 20.4031 4.99727 20.2977 5.01524 20.1952L5.93911 14.8062C6.00014 14.4504 5.9737 14.0851 5.86207 13.7418C5.75045 13.3986 5.55699 13.0876 5.29838 12.8358L1.38061 9.0218C1.30573 8.94948 1.25267 8.85758 1.22747 8.75657C1.20227 8.65556 1.20594 8.54951 1.23808 8.45049C1.27021 8.35147 1.32951 8.26346 1.40921 8.1965C1.48892 8.12953 1.58583 8.0863 1.68891 8.07172L7.10521 7.27999C7.46202 7.22808 7.80088 7.09024 8.09261 6.87834C8.38434 6.66644 8.62021 6.38682 8.77991 6.06355L11.2013 1.1569Z" stroke="url(#paint3_linear_200_32841)" stroke-width="1.4748" stroke-linecap="round" stroke-linejoin="round"/>
<defs>
<linearGradient id="paint0_linear_200_32841" x1="22.1859" y1="0.847656" x2="2.20854" y2="21.7989" gradientUnits="userSpaceOnUse">
<stop stop-color="#FFAE00"/>
<stop offset="1" stop-color="#F87E00"/>
</linearGradient>
<linearGradient id="paint1_linear_200_32841" x1="11.6984" y1="0.847656" x2="11.6984" y2="20.8477" gradientUnits="userSpaceOnUse">
<stop stop-color="#F87E00"/>
<stop offset="0.6" stop-color="#FFAE00"/>
</linearGradient>
<linearGradient id="paint2_linear_200_32841" x1="22.1859" y1="0.847656" x2="2.20854" y2="21.7989" gradientUnits="userSpaceOnUse">
<stop stop-color="#FFAE00"/>
<stop offset="1" stop-color="#F87E00"/>
</linearGradient>
<linearGradient id="paint3_linear_200_32841" x1="11.6984" y1="0.847656" x2="11.6984" y2="20.8477" gradientUnits="userSpaceOnUse">
<stop stop-color="#F87E00"/>
<stop offset="0.6" stop-color="#FFAE00"/>
</linearGradient>
</defs>
</svg>
