<svg width="28" height="41" viewBox="0 0 28 41" fill="none" xmlns="http://www.w3.org/2000/svg">
<path d="M13.2572 6.87941C13.3136 6.7655 13.4007 6.66961 13.5087 6.60257C13.6167 6.53553 13.7412 6.5 13.8683 6.5C13.9954 6.5 14.12 6.53553 14.228 6.60257C14.336 6.66961 14.4231 6.7655 14.4795 6.87941L17.4515 12.8994C17.6473 13.2957 17.9363 13.6385 18.2938 13.8984C18.6512 14.1584 19.0664 14.3277 19.5037 14.3919L26.1503 15.3646C26.2762 15.3828 26.3945 15.4359 26.4918 15.5179C26.5891 15.5999 26.6616 15.7075 26.7009 15.8285C26.7403 15.9495 26.745 16.0791 26.7145 16.2027C26.6841 16.3262 26.6196 16.4388 26.5285 16.5276L21.7218 21.2083C21.4048 21.5172 21.1676 21.8985 21.0306 22.3195C20.8937 22.7404 20.8611 23.1882 20.9356 23.6245L22.0704 30.2377C22.0927 30.3636 22.0791 30.4932 22.0312 30.6117C21.9833 30.7302 21.9031 30.8329 21.7997 30.908C21.6962 30.9831 21.5738 31.0277 21.4463 31.0365C21.3187 31.0454 21.1913 31.0182 21.0785 30.9582L15.1369 27.8343C14.7454 27.6287 14.3099 27.5213 13.8677 27.5213C13.4255 27.5213 12.99 27.6287 12.5985 27.8343L6.65822 30.9582C6.54543 31.0179 6.41814 31.0447 6.29083 31.0357C6.16353 31.0267 6.04132 30.9821 5.9381 30.907C5.83489 30.8319 5.75481 30.7294 5.70698 30.6111C5.65915 30.4928 5.64548 30.3634 5.66754 30.2377L6.80103 23.6258C6.87591 23.1893 6.84347 22.7412 6.70652 22.32C6.56956 21.8988 6.33221 21.5173 6.01492 21.2083L1.20817 16.5289C1.1163 16.4402 1.0512 16.3274 1.02028 16.2035C0.989362 16.0796 0.993871 15.9495 1.0333 15.828C1.07272 15.7065 1.14547 15.5985 1.24327 15.5164C1.34106 15.4342 1.45996 15.3811 1.58643 15.3633L8.23174 14.3919C8.66951 14.3282 9.08525 14.1591 9.44318 13.8991C9.80111 13.6391 10.0905 13.296 10.2864 12.8994L13.2572 6.87941Z" fill="#FFAE00" stroke="#FFAE00" stroke-width="1.80945" stroke-linecap="round" stroke-linejoin="round"/>
</svg>
