<svg width="20" height="20" viewBox="0 0 20 20" fill="none" xmlns="http://www.w3.org/2000/svg">
<mask id="mask0_211_19150" style="mask-type:alpha" maskUnits="userSpaceOnUse" x="0" y="0" width="20" height="20">
<rect width="20" height="20" fill="#D9D9D9"/>
</mask>
<g mask="url(#mask0_211_19150)">
<path d="M6.54167 5.45866L8.83333 2.50033C8.98347 2.29963 9.16188 2.1522 9.36854 2.05803C9.57507 1.96401 9.79097 1.91699 10.0163 1.91699C10.2415 1.91699 10.4549 1.9656 10.6562 2.06283C10.8576 2.16005 11.0347 2.30588 11.1875 2.50033L13.4792 5.45866L16.9792 6.60449C17.2986 6.7156 17.5486 6.90102 17.7292 7.16074C17.9097 7.42033 18 7.70713 18 8.02116C18 8.17005 17.979 8.31901 17.9369 8.46803C17.8947 8.61692 17.8254 8.75963 17.7292 8.89616L15.4792 12.042L15.5625 15.417C15.5625 15.8475 15.4167 16.2121 15.125 16.5107C14.8333 16.8094 14.4849 16.9587 14.0796 16.9587C14.0543 16.9587 13.9236 16.9378 13.6875 16.8962L10 15.8753L6.31146 16.897C6.24271 16.9242 6.17708 16.9413 6.11458 16.9482C6.05208 16.9552 5.98938 16.9587 5.92646 16.9587C5.52382 16.9587 5.17153 16.8094 4.86958 16.5107C4.56764 16.2121 4.42361 15.8475 4.4375 15.417L4.52083 12.042L2.27083 8.89616C2.17361 8.75727 2.10417 8.61838 2.0625 8.47949C2.02083 8.3406 2 8.19456 2 8.04137C2 7.72234 2.09153 7.43074 2.27458 7.16658C2.45764 6.90241 2.71333 6.71505 3.04167 6.60449L6.54167 5.45866ZM7.41667 6.75033L3.5 8.04199L6.01875 11.6053L5.9375 15.4587L10 14.3128L14.0833 15.4378L13.9792 11.5837L16.5 8.02116L12.5625 6.75033L10 3.45866L7.41667 6.75033Z" fill="#FFAE00"/>
</g>
</svg>
