<svg width="41" height="40" viewBox="0 0 41 40" fill="none" xmlns="http://www.w3.org/2000/svg">
<path d="M20.7227 0.383789C31.5566 0.383789 40.3389 9.16607 40.3389 20C40.3389 30.8339 31.5566 39.6162 20.7227 39.6162C9.88872 39.6162 1.10645 30.8339 1.10645 20C1.10645 9.16607 9.88872 0.383789 20.7227 0.383789Z" fill="#F3F4F4" fill-opacity="0.1"/>
<path d="M20.7227 0.383789C31.5566 0.383789 40.3389 9.16607 40.3389 20C40.3389 30.8339 31.5566 39.6162 20.7227 39.6162C9.88872 39.6162 1.10645 30.8339 1.10645 20C1.10645 9.16607 9.88872 0.383789 20.7227 0.383789Z" stroke="url(#paint0_linear_764_26210)" stroke-width="0.766849"/>
<g clip-path="url(#clip0_764_26210)">
<path d="M28.706 15.6481V24.9021C28.706 25.5035 28.219 25.9905 27.6176 25.9905H25.0767V19.8217L20.7222 23.0884L16.3676 19.8217V25.9912H13.8267C13.6838 25.9912 13.5422 25.963 13.4101 25.9083C13.278 25.8535 13.1579 25.7733 13.0569 25.6722C12.9558 25.571 12.8756 25.4509 12.8209 25.3188C12.7663 25.1867 12.7382 25.0451 12.7383 24.9021V15.6481C12.7383 14.3022 14.2745 13.5337 15.351 14.3414L16.3676 15.1045L20.7222 18.3699L25.0767 15.1032L26.0933 14.3414C27.1691 13.5344 28.706 14.3022 28.706 15.6481Z" fill="#FFAE00"/>
</g>
<defs>
<linearGradient id="paint0_linear_764_26210" x1="27.7227" y1="27" x2="40.7227" y2="40" gradientUnits="userSpaceOnUse">
<stop stop-color="white" stop-opacity="0.5"/>
<stop offset="1" stop-color="#FFAE00"/>
</linearGradient>
<clipPath id="clip0_764_26210">
<rect width="15.9677" height="15.9677" fill="white" transform="translate(12.7383 12.0156)"/>
</clipPath>
</defs>
</svg>
