<svg width="41" height="40" viewBox="0 0 41 40" fill="none" xmlns="http://www.w3.org/2000/svg">
<path d="M20.0469 0.383789C30.8808 0.383789 39.6631 9.16607 39.6631 20C39.6631 30.8339 30.8808 39.6162 20.0469 39.6162C9.21294 39.6162 0.430664 30.8339 0.430664 20C0.430664 9.16607 9.21294 0.383789 20.0469 0.383789Z" fill="#F3F4F4" fill-opacity="0.1"/>
<path d="M20.0469 0.383789C30.8808 0.383789 39.6631 9.16607 39.6631 20C39.6631 30.8339 30.8808 39.6162 20.0469 39.6162C9.21294 39.6162 0.430664 30.8339 0.430664 20C0.430664 9.16607 9.21294 0.383789 20.0469 0.383789Z" stroke="url(#paint0_linear_764_26189)" stroke-width="0.766849"/>
<path fill-rule="evenodd" clip-rule="evenodd" d="M20.3587 24.0769C22.7639 24.0769 24.7136 22.1271 24.7136 19.722C24.7136 17.3169 22.7639 15.3672 20.3587 15.3672C17.9536 15.3672 16.0039 17.3169 16.0039 19.722C16.0039 22.1271 17.9536 24.0769 20.3587 24.0769ZM20.3587 22.6252C21.9621 22.6252 23.262 21.3254 23.262 19.722C23.262 18.1186 21.9621 16.8188 20.3587 16.8188C18.7553 16.8188 17.4555 18.1186 17.4555 19.722C17.4555 21.3254 18.7553 22.6252 20.3587 22.6252Z" fill="#FFAE00"/>
<path d="M24.7141 14.6445C24.3132 14.6445 23.9883 14.9695 23.9883 15.3703C23.9883 15.7712 24.3132 16.0961 24.7141 16.0961C25.115 16.0961 25.4399 15.7712 25.4399 15.3703C25.4399 14.9695 25.115 14.6445 24.7141 14.6445Z" fill="#FFAE00"/>
<path fill-rule="evenodd" clip-rule="evenodd" d="M12.8457 14.1161C12.3711 15.0476 12.3711 16.2671 12.3711 18.706V20.7383C12.3711 23.1772 12.3711 24.3967 12.8457 25.3282C13.2633 26.1476 13.9295 26.8139 14.7489 27.2313C15.6804 27.706 16.8999 27.706 19.3388 27.706H21.3711C23.81 27.706 25.0295 27.706 25.961 27.2313C26.7805 26.8139 27.4467 26.1476 27.8642 25.3282C28.3388 24.3967 28.3388 23.1772 28.3388 20.7383V18.706C28.3388 16.2671 28.3388 15.0476 27.8642 14.1161C27.4467 13.2966 26.7805 12.6304 25.961 12.2129C25.0295 11.7383 23.81 11.7383 21.3711 11.7383H19.3388C16.8999 11.7383 15.6804 11.7383 14.7489 12.2129C13.9295 12.6304 13.2633 13.2966 12.8457 14.1161ZM21.3711 13.1899H19.3388C18.0954 13.1899 17.2501 13.191 16.5968 13.2444C15.9604 13.2964 15.6349 13.3906 15.4079 13.5063C14.8616 13.7847 14.4175 14.2288 14.1391 14.7751C14.0235 15.0021 13.9292 15.3276 13.8772 15.964C13.8238 16.6173 13.8227 17.4626 13.8227 18.706V20.7383C13.8227 21.9817 13.8238 22.8269 13.8772 23.4803C13.9292 24.1168 14.0235 24.4422 14.1391 24.6692C14.4175 25.2155 14.8616 25.6596 15.4079 25.938C15.6349 26.0536 15.9604 26.1479 16.5968 26.1999C17.2501 26.2532 18.0954 26.2544 19.3388 26.2544H21.3711C22.6145 26.2544 23.4597 26.2532 24.1131 26.1999C24.7496 26.1479 25.075 26.0536 25.3021 25.938C25.8483 25.6596 26.2924 25.2155 26.5708 24.6692C26.6865 24.4422 26.7807 24.1168 26.8327 23.4803C26.8861 22.8269 26.8872 21.9817 26.8872 20.7383V18.706C26.8872 17.4626 26.8861 16.6173 26.8327 15.964C26.7807 15.3276 26.6865 15.0021 26.5708 14.7751C26.2924 14.2288 25.8483 13.7847 25.3021 13.5063C25.075 13.3906 24.7496 13.2964 24.1131 13.2444C23.4597 13.191 22.6145 13.1899 21.3711 13.1899Z" fill="#FFAE00"/>
<defs>
<linearGradient id="paint0_linear_764_26189" x1="27.0469" y1="27" x2="40.0469" y2="40" gradientUnits="userSpaceOnUse">
<stop stop-color="white" stop-opacity="0.5"/>
<stop offset="1" stop-color="#FFAE00"/>
</linearGradient>
</defs>
</svg>
