<svg width="41" height="40" viewBox="0 0 41 40" fill="none" xmlns="http://www.w3.org/2000/svg">
<path d="M20.4961 0.383789C31.33 0.383789 40.1123 9.16607 40.1123 20C40.1123 30.8339 31.33 39.6162 20.4961 39.6162C9.66216 39.6162 0.879883 30.8339 0.879883 20C0.879883 9.16607 9.66216 0.383789 20.4961 0.383789Z" fill="#F3F4F4" fill-opacity="0.1"/>
<path d="M20.4961 0.383789C31.33 0.383789 40.1123 9.16607 40.1123 20C40.1123 30.8339 31.33 39.6162 20.4961 39.6162C9.66216 39.6162 0.879883 30.8339 0.879883 20C0.879883 9.16607 9.66216 0.383789 20.4961 0.383789Z" stroke="url(#paint0_linear_764_26205)" stroke-width="0.766849"/>
<path fill-rule="evenodd" clip-rule="evenodd" d="M20.9103 17.1077V18.8013C21.265 18.2611 21.7538 17.8222 22.329 17.5276C22.9042 17.233 23.5461 17.0928 24.1917 17.1207C27.6398 17.1207 28.3853 19.2764 28.3853 22.0807V27.7903H25.1917V22.7284C25.1917 21.5209 24.9482 19.968 23.068 19.968C21.2446 19.968 20.9333 21.2823 20.9333 22.6386V27.7903H17.7497V17.1077H20.9103ZM15.6109 14.4231C15.6106 14.7395 15.5168 15.0487 15.3414 15.312C15.166 15.5753 14.9167 15.7809 14.6249 15.9031C14.3332 16.0244 14.0121 16.0561 13.7023 15.9942C13.3925 15.9324 13.1082 15.7798 12.8854 15.5558C12.6622 15.3317 12.5103 15.0467 12.4487 14.7364C12.3871 14.4262 12.4186 14.1047 12.5392 13.8123C12.6599 13.52 12.8642 13.2698 13.1267 13.0933C13.3891 12.9168 13.6979 12.8218 14.0141 12.8203C14.2243 12.8203 14.4325 12.8618 14.6266 12.9424C14.8207 13.0231 14.997 13.1412 15.1454 13.2901C15.2937 13.439 15.4112 13.6158 15.4911 13.8102C15.571 14.0046 15.6117 14.2129 15.6109 14.4231Z" fill="#FFAE00"/>
<path d="M15.6116 17.1211H12.418V27.7907H15.6116V17.1211Z" fill="#FFAE00"/>
<defs>
<linearGradient id="paint0_linear_764_26205" x1="27.4961" y1="27" x2="40.4961" y2="40" gradientUnits="userSpaceOnUse">
<stop stop-color="white" stop-opacity="0.5"/>
<stop offset="1" stop-color="#FFAE00"/>
</linearGradient>
</defs>
</svg>
