<svg width="41" height="40" viewBox="0 0 41 40" fill="none" xmlns="http://www.w3.org/2000/svg">
<path d="M20.9492 0.383789C31.7832 0.383789 40.5654 9.16607 40.5654 20C40.5654 30.8339 31.7832 39.6162 20.9492 39.6162C10.1153 39.6162 1.33301 30.8339 1.33301 20C1.33301 9.16607 10.1153 0.383789 20.9492 0.383789Z" fill="#F3F4F4" fill-opacity="0.1"/>
<path d="M20.9492 0.383789C31.7832 0.383789 40.5654 9.16607 40.5654 20C40.5654 30.8339 31.7832 39.6162 20.9492 39.6162C10.1153 39.6162 1.33301 30.8339 1.33301 20C1.33301 9.16607 10.1153 0.383789 20.9492 0.383789Z" stroke="url(#paint0_linear_764_26213)" stroke-width="0.766849"/>
<path d="M14.0932 19.9956C14.0932 18.5476 15.2703 17.3706 16.7182 17.3706H20.1053V15.7617H16.7182C14.3811 15.7617 12.4844 17.6585 12.4844 19.9956C12.4844 22.3327 14.3811 24.2295 16.7182 24.2295H20.1053V22.6206H16.7182C15.2703 22.6206 14.0932 21.4436 14.0932 19.9956ZM17.565 20.8424H24.3392V19.1488H17.565V20.8424ZM25.186 15.7617H21.7989V17.3706H25.186C26.634 17.3706 27.811 18.5476 27.811 19.9956C27.811 21.4436 26.634 22.6206 25.186 22.6206H21.7989V24.2295H25.186C27.5231 24.2295 29.4199 22.3327 29.4199 19.9956C29.4199 17.6585 27.5231 15.7617 25.186 15.7617Z" fill="#FFAE00"/>
<defs>
<linearGradient id="paint0_linear_764_26213" x1="27.9492" y1="27" x2="40.9492" y2="40" gradientUnits="userSpaceOnUse">
<stop stop-color="white" stop-opacity="0.5"/>
<stop offset="1" stop-color="#FFAE00"/>
</linearGradient>
</defs>
</svg>
