<svg width="41" height="40" viewBox="0 0 41 40" fill="none" xmlns="http://www.w3.org/2000/svg">
<path d="M20.8203 0.383789C31.6542 0.383789 40.4365 9.16607 40.4365 20C40.4365 30.8339 31.6542 39.6162 20.8203 39.6162C9.98638 39.6162 1.2041 30.8339 1.2041 20C1.2041 9.16607 9.98638 0.383789 20.8203 0.383789Z" fill="#F3F4F4" fill-opacity="0.1"/>
<path d="M20.8203 0.383789C31.6542 0.383789 40.4365 9.16607 40.4365 20C40.4365 30.8339 31.6542 39.6162 20.8203 39.6162C9.98638 39.6162 1.2041 30.8339 1.2041 20C1.2041 9.16607 9.98638 0.383789 20.8203 0.383789Z" stroke="url(#paint0_linear_764_26183)" stroke-width="0.766849"/>
<g clip-path="url(#clip0_764_26183)">
<path d="M18.8042 18.673L20.1203 17.3482L19.7762 16.1439H18.2192C18.2192 16.1439 17.8665 18.3289 20.387 20.8407C22.9074 23.3525 25.1009 23.0257 25.1009 23.0257V21.4687L23.8966 21.1246L22.5719 22.4407M29.2988 20.8407C29.1005 22.045 28.6204 23.1854 27.8974 24.1688C27.1745 25.1522 26.2293 25.9508 25.139 26.4993C24.0486 27.0478 22.8441 27.3308 21.6236 27.3251C20.403 27.3194 19.2012 27.0252 18.116 26.4665L13.9181 27.3267L14.7784 23.1289C14.217 22.0397 13.9221 20.8329 13.918 19.6075C13.9139 18.3822 14.2008 17.1734 14.7549 16.0805C15.3091 14.9876 16.1147 14.0419 17.1056 13.3211C18.0965 12.6003 19.2444 12.125 20.4548 11.9342C21.6652 11.7435 22.9036 11.8428 24.0681 12.2239C25.2327 12.6051 26.2901 13.2572 27.1535 14.1267C28.0169 14.9962 28.6616 16.0582 29.0345 17.2254C29.4075 18.3926 29.498 19.6317 29.2988 20.8407Z" stroke="#FFAE00" stroke-width="1.45161" stroke-linecap="round" stroke-linejoin="round"/>
<circle cx="19.0829" cy="17.0047" r="0.860215" fill="#FFAE00"/>
<circle cx="24.243" cy="22.1649" r="0.860215" fill="#FFAE00"/>
</g>
<defs>
<linearGradient id="paint0_linear_764_26183" x1="27.8203" y1="27" x2="40.8203" y2="40" gradientUnits="userSpaceOnUse">
<stop stop-color="white" stop-opacity="0.5"/>
<stop offset="1" stop-color="#FFAE00"/>
</linearGradient>
<clipPath id="clip0_764_26183">
<rect width="20.3226" height="23.2258" fill="white" transform="translate(10.6602 8.38672)"/>
</clipPath>
</defs>
</svg>
