<svg width="41" height="40" viewBox="0 0 41 40" fill="none" xmlns="http://www.w3.org/2000/svg">
<path d="M20.2734 0.383789C31.1074 0.383789 39.8896 9.16607 39.8896 20C39.8896 30.8339 31.1074 39.6162 20.2734 39.6162C9.4395 39.6162 0.657227 30.8339 0.657227 20C0.657227 9.16607 9.4395 0.383789 20.2734 0.383789Z" fill="#F3F4F4" fill-opacity="0.1"/>
<path d="M20.2734 0.383789C31.1074 0.383789 39.8896 9.16607 39.8896 20C39.8896 30.8339 31.1074 39.6162 20.2734 39.6162C9.4395 39.6162 0.657227 30.8339 0.657227 20C0.657227 9.16607 9.4395 0.383789 20.2734 0.383789Z" stroke="url(#paint0_linear_764_26196)" stroke-width="0.766849"/>
<g clip-path="url(#clip0_764_26196)">
<mask id="mask0_764_26196" style="mask-type:luminance" maskUnits="userSpaceOnUse" x="11" y="11" width="18" height="18">
<path d="M11.5586 11.293H28.9779V28.7123H11.5586V11.293Z" fill="white"/>
</mask>
<g mask="url(#mask0_764_26196)">
<path d="M25.2763 12.1094H27.9477L22.1122 18.7959L28.9779 27.8963H23.6028L19.3898 22.3781L14.5746 27.8963H11.9008L18.1419 20.7419L11.5586 12.1106H17.0706L20.873 17.1535L25.2763 12.1094ZM24.3369 26.2937H25.8176L16.2618 13.6286H14.6742L24.3369 26.2937Z" fill="#FFAE00"/>
</g>
</g>
<defs>
<linearGradient id="paint0_linear_764_26196" x1="27.2734" y1="27" x2="40.2734" y2="40" gradientUnits="userSpaceOnUse">
<stop stop-color="white" stop-opacity="0.5"/>
<stop offset="1" stop-color="#FFAE00"/>
</linearGradient>
<clipPath id="clip0_764_26196">
<rect width="17.4194" height="17.4194" fill="white" transform="translate(11.5625 11.2891)"/>
</clipPath>
</defs>
</svg>
