<svg width="19" height="18" viewBox="0 0 19 18" fill="none" xmlns="http://www.w3.org/2000/svg">
<path d="M8.82819 1.24739C8.86496 1.17312 8.92175 1.11059 8.99216 1.06688C9.06257 1.02316 9.1438 1 9.22668 1C9.30956 1 9.39079 1.02316 9.4612 1.06688C9.53161 1.11059 9.5884 1.17312 9.62517 1.24739L11.5631 5.17271C11.6907 5.43108 11.8792 5.6546 12.1123 5.8241C12.3453 5.9936 12.616 6.10401 12.9012 6.14587L17.235 6.78009C17.3172 6.79199 17.3943 6.82663 17.4578 6.88009C17.5212 6.93355 17.5685 7.00371 17.5941 7.08261C17.6198 7.16152 17.6229 7.24603 17.603 7.3266C17.5831 7.40716 17.5411 7.48055 17.4817 7.53848L14.3475 10.5905C14.1408 10.7919 13.9861 11.0405 13.8968 11.315C13.8075 11.5895 13.7863 11.8815 13.8349 12.166L14.5748 16.478C14.5893 16.5601 14.5804 16.6446 14.5492 16.7219C14.518 16.7992 14.4657 16.8661 14.3983 16.9151C14.3308 16.9641 14.251 16.9931 14.1678 16.9989C14.0847 17.0047 14.0016 16.987 13.928 16.9478L10.0539 14.9109C9.79859 14.7769 9.51458 14.7069 9.22626 14.7069C8.93794 14.7069 8.65393 14.7769 8.39866 14.9109L4.52535 16.9478C4.45181 16.9868 4.36881 17.0043 4.2858 16.9984C4.20279 16.9925 4.12311 16.9634 4.0558 16.9145C3.9885 16.8655 3.93629 16.7987 3.9051 16.7215C3.87391 16.6444 3.865 16.56 3.87938 16.478L4.61847 12.1668C4.6673 11.8822 4.64615 11.59 4.55685 11.3153C4.46755 11.0407 4.31278 10.792 4.10589 10.5905L0.971675 7.53932C0.911771 7.48146 0.869321 7.40794 0.849161 7.32713C0.829001 7.24633 0.831941 7.16148 0.857648 7.08226C0.883354 7.00305 0.930792 6.93264 0.994558 6.87907C1.05832 6.8255 1.13586 6.79091 1.21832 6.77925L5.55136 6.14587C5.83681 6.10434 6.10789 5.99407 6.34127 5.82455C6.57466 5.65503 6.76335 5.43133 6.89112 5.17271L8.82819 1.24739Z" stroke="url(#paint0_linear_211_19304)" stroke-width="1.17984" stroke-linecap="round" stroke-linejoin="round"/>
<path d="M8.82819 1.24739C8.86496 1.17312 8.92175 1.11059 8.99216 1.06688C9.06257 1.02316 9.1438 1 9.22668 1C9.30956 1 9.39079 1.02316 9.4612 1.06688C9.53161 1.11059 9.5884 1.17312 9.62517 1.24739L11.5631 5.17271C11.6907 5.43108 11.8792 5.6546 12.1123 5.8241C12.3453 5.9936 12.616 6.10401 12.9012 6.14587L17.235 6.78009C17.3172 6.79199 17.3943 6.82663 17.4578 6.88009C17.5212 6.93355 17.5685 7.00371 17.5941 7.08261C17.6198 7.16152 17.6229 7.24603 17.603 7.3266C17.5831 7.40716 17.5411 7.48055 17.4817 7.53848L14.3475 10.5905C14.1408 10.7919 13.9861 11.0405 13.8968 11.315C13.8075 11.5895 13.7863 11.8815 13.8349 12.166L14.5748 16.478C14.5893 16.5601 14.5804 16.6446 14.5492 16.7219C14.518 16.7992 14.4657 16.8661 14.3983 16.9151C14.3308 16.9641 14.251 16.9931 14.1678 16.9989C14.0847 17.0047 14.0016 16.987 13.928 16.9478L10.0539 14.9109C9.79859 14.7769 9.51458 14.7069 9.22626 14.7069C8.93794 14.7069 8.65393 14.7769 8.39866 14.9109L4.52535 16.9478C4.45181 16.9868 4.36881 17.0043 4.2858 16.9984C4.20279 16.9925 4.12311 16.9634 4.0558 16.9145C3.9885 16.8655 3.93629 16.7987 3.9051 16.7215C3.87391 16.6444 3.865 16.56 3.87938 16.478L4.61847 12.1668C4.6673 11.8822 4.64615 11.59 4.55685 11.3153C4.46755 11.0407 4.31278 10.792 4.10589 10.5905L0.971675 7.53932C0.911771 7.48146 0.869321 7.40794 0.849161 7.32713C0.829001 7.24633 0.831941 7.16148 0.857648 7.08226C0.883354 7.00305 0.930792 6.93264 0.994558 6.87907C1.05832 6.8255 1.13586 6.79091 1.21832 6.77925L5.55136 6.14587C5.83681 6.10434 6.10789 5.99407 6.34127 5.82455C6.57466 5.65503 6.76335 5.43133 6.89112 5.17271L8.82819 1.24739Z" stroke="url(#paint1_linear_211_19304)" stroke-width="1.17984" stroke-linecap="round" stroke-linejoin="round"/>
<defs>
<linearGradient id="paint0_linear_211_19304" x1="17.6159" y1="1" x2="1.63402" y2="17.761" gradientUnits="userSpaceOnUse">
<stop stop-color="#FFAE00"/>
<stop offset="1" stop-color="#F87E00"/>
</linearGradient>
<linearGradient id="paint1_linear_211_19304" x1="9.22593" y1="1" x2="9.22593" y2="17" gradientUnits="userSpaceOnUse">
<stop stop-color="#F87E00"/>
<stop offset="0.6" stop-color="#FFAE00"/>
</linearGradient>
</defs>
</svg>
