<svg width="25" height="24" viewBox="0 0 25 24" fill="none" xmlns="http://www.w3.org/2000/svg">
<path d="M4.5 6.25C4.5 5.65326 4.73705 5.08097 5.15901 4.65901C5.58097 4.23705 6.15326 4 6.75 4H18.25C18.5455 4 18.8381 4.0582 19.111 4.17127C19.384 4.28434 19.6321 4.45008 19.841 4.65901C20.0499 4.86794 20.2157 5.11598 20.3287 5.38896C20.4418 5.66194 20.5 5.95453 20.5 6.25V10.337C19.7518 9.98141 18.9018 9.90271 18.1011 10.1149C17.3003 10.3271 16.6008 10.8164 16.1269 11.4958C15.653 12.1752 15.4354 13.0007 15.5129 13.8254C15.5904 14.6502 15.9579 15.4207 16.55 16H6.75C6.15326 16 5.58097 15.7629 5.15901 15.341C4.73705 14.919 4.5 14.3467 4.5 13.75V6.25ZM13.5 18.772C13.5 18.313 13.611 17.881 13.808 17.5H3.25C3.05109 17.5 2.86032 17.579 2.71967 17.7197C2.57902 17.8603 2.5 18.0511 2.5 18.25C2.5 18.4489 2.57902 18.6397 2.71967 18.7803C2.86032 18.921 3.05109 19 3.25 19H13.502L13.5 18.875V18.772ZM21.5 13.5C21.5 14.163 21.2366 14.7989 20.7678 15.2678C20.2989 15.7366 19.663 16 19 16C18.337 16 17.7011 15.7366 17.2322 15.2678C16.7634 14.7989 16.5 14.163 16.5 13.5C16.5 12.837 16.7634 12.2011 17.2322 11.7322C17.7011 11.2634 18.337 11 19 11C19.663 11 20.2989 11.2634 20.7678 11.7322C21.2366 12.2011 21.5 12.837 21.5 13.5ZM23.5 18.875C23.5 20.431 22.214 22 19 22C15.786 22 14.5 20.437 14.5 18.875V18.772C14.5 17.792 15.294 17 16.273 17H21.727C22.707 17 23.5 17.793 23.5 18.772V18.875Z" fill="#FFAE00"/>
</svg>
