<svg width="34" height="34" viewBox="0 0 34 34" fill="none" xmlns="http://www.w3.org/2000/svg">
<circle cx="17" cy="17" r="16.25" fill="#F3F4F4" fill-opacity="0.1" stroke="url(#paint0_linear_9306_5363)" stroke-width="0.5"/>
<path d="M14.1539 16.0916L15.4653 14.7716L15.1225 13.5716H13.5711C13.5711 13.5716 13.2196 15.7487 15.7311 18.2516C18.2425 20.7544 20.4282 20.4287 20.4282 20.4287V18.8773L19.2282 18.5344L17.9082 19.8458M24.6111 18.2516C24.4135 19.4516 23.935 20.5879 23.2147 21.5678C22.4944 22.5477 21.5525 23.3434 20.4661 23.8899C19.3797 24.4365 18.1794 24.7184 16.9632 24.7128C15.7471 24.7071 14.5495 24.4139 13.4682 23.8573L9.28534 24.7144L10.1425 20.5316C9.58307 19.4463 9.28926 18.2437 9.2852 17.0228C9.28114 15.8018 9.56695 14.5973 10.1191 13.5084C10.6713 12.4194 11.4741 11.477 12.4614 10.7588C13.4488 10.0406 14.5925 9.56693 15.7986 9.37687C17.0047 9.18681 18.2387 9.28575 19.3991 9.66555C20.5595 10.0453 21.6131 10.6951 22.4734 11.5615C23.3337 12.4279 23.9761 13.4861 24.3477 14.6492C24.7193 15.8122 24.8096 17.0469 24.6111 18.2516Z" stroke="#FFAE00" stroke-width="1.6" stroke-linecap="round" stroke-linejoin="round"/>
<circle cx="14.4275" cy="14.4287" r="0.857143" fill="#FFAE00"/>
<circle cx="19.57" cy="19.5715" r="0.857143" fill="#FFAE00"/>
<defs>
<linearGradient id="paint0_linear_9306_5363" x1="22.6" y1="22.6" x2="33" y2="33" gradientUnits="userSpaceOnUse">
<stop stop-color="white" stop-opacity="0.5"/>
<stop offset="1" stop-color="#FFAE00"/>
</linearGradient>
</defs>
</svg>
