<svg width="24" height="24" viewBox="0 0 24 24" fill="none" xmlns="http://www.w3.org/2000/svg">
<path d="M9.15391 11.0914L10.4653 9.77144L10.1225 8.57144H8.57105C8.57105 8.57144 8.21962 10.7486 10.7311 13.2514C13.2425 15.7543 15.4282 15.4286 15.4282 15.4286V13.8772L14.2282 13.5343L12.9082 14.8457M19.6111 13.2514C19.4135 14.4515 18.935 15.5878 18.2147 16.5677C17.4944 17.5475 16.5525 18.3432 15.4661 18.8898C14.3797 19.4364 13.1794 19.7183 11.9632 19.7126C10.7471 19.707 9.54948 19.4138 8.46819 18.8572L4.28534 19.7143L5.14248 15.5314C4.58307 14.4462 4.28926 13.2436 4.2852 12.0227C4.28114 10.8017 4.56695 9.59721 5.11913 8.50824C5.6713 7.41927 6.47408 6.47692 7.46144 5.75868C8.4488 5.04043 9.59254 4.56681 10.7986 4.37675C12.0047 4.18669 13.2387 4.28563 14.3991 4.66542C15.5595 5.04522 16.6131 5.69503 17.4734 6.56141C18.3337 7.4278 18.9761 8.48602 19.3477 9.64906C19.7193 10.8121 19.8096 12.0467 19.6111 13.2514Z" stroke="#FFAE00" stroke-width="1.6" stroke-linecap="round" stroke-linejoin="round"/>
<circle cx="9.42746" cy="9.42843" r="0.857143" fill="#FFAE00"/>
<circle cx="14.57" cy="14.5715" r="0.857143" fill="#FFAE00"/>
</svg>
