<svg width="56" height="56" viewBox="0 0 56 56" fill="none" xmlns="http://www.w3.org/2000/svg">
<path d="M28 0.52832C43.1722 0.52832 55.4717 12.8278 55.4717 28C55.4717 43.1722 43.1722 55.4717 28 55.4717C12.8278 55.4717 0.52832 43.1722 0.52832 28C0.52832 12.8278 12.8278 0.52832 28 0.52832Z" fill="#F3F4F4" fill-opacity="0.1"/>
<path d="M28 0.52832C43.1722 0.52832 55.4717 12.8278 55.4717 28C55.4717 43.1722 43.1722 55.4717 28 55.4717C12.8278 55.4717 0.52832 43.1722 0.52832 28C0.52832 12.8278 12.8278 0.52832 28 0.52832Z" stroke="url(#paint0_linear_843_26357)" stroke-width="1.05655"/>
<path d="M25.2165 26.1723L27.0298 24.3472L26.5557 22.6879H24.4105C24.4105 22.6879 23.9246 25.6983 27.3972 29.159C30.8698 32.6198 33.892 32.1694 33.892 32.1694V30.0242L32.2328 29.5501L30.4076 31.3635M39.6757 29.159C39.4026 30.8183 38.741 32.3895 37.745 33.7444C36.7489 35.0993 35.4467 36.1995 33.9444 36.9553C32.4422 37.711 30.7826 38.1008 29.101 38.093C27.4194 38.0852 25.7634 37.6798 24.2683 36.9101L18.4846 38.0953L19.6698 32.3116C18.8963 30.811 18.49 29.1482 18.4844 27.4599C18.4788 25.7717 18.874 24.1063 19.6375 22.6005C20.401 21.0948 21.511 19.7918 22.8763 18.7986C24.2415 17.8055 25.823 17.1506 27.4906 16.8878C29.1583 16.625 30.8645 16.7618 32.469 17.287C34.0735 17.8121 35.5305 18.7106 36.72 19.9086C37.9096 21.1066 38.7978 22.5698 39.3116 24.1779C39.8255 25.7861 39.9503 27.4932 39.6757 29.159Z" stroke="#FFAE00" stroke-width="2" stroke-linecap="round" stroke-linejoin="round"/>
<circle cx="25.5992" cy="23.8727" r="1.18519" fill="#FFAE00"/>
<circle cx="32.7086" cy="30.984" r="1.18519" fill="#FFAE00"/>
<defs>
<linearGradient id="paint0_linear_843_26357" x1="37.8" y1="37.8" x2="56" y2="56" gradientUnits="userSpaceOnUse">
<stop stop-color="white" stop-opacity="0.5"/>
<stop offset="1" stop-color="#FFAE00"/>
</linearGradient>
</defs>
</svg>
