<svg width="20" height="20" viewBox="0 0 20 20" fill="none" xmlns="http://www.w3.org/2000/svg">
<mask id="mask0_4259_9452" style="mask-type:alpha" maskUnits="userSpaceOnUse" x="0" y="0" width="20" height="20">
<rect width="20" height="20" fill="#D9D9D9"/>
</mask>
<g mask="url(#mask0_4259_9452)">
<path d="M4.5 10.3125L1.4375 7.25L4.5 4.1875L7.5625 7.25L4.5 10.3125ZM7.5 18V13.8958C6.69444 13.8403 5.90278 13.7361 5.125 13.5833C4.34722 13.4306 3.56944 13.25 2.79167 13.0417L3.22917 11.6042C4.34028 11.9097 5.45694 12.1285 6.57917 12.2604C7.70153 12.3924 8.84042 12.4583 9.99583 12.4583C11.1514 12.4583 12.2951 12.3924 13.4271 12.2604C14.559 12.1285 15.6806 11.9097 16.7917 11.6042L17.2292 13.0417C16.4514 13.25 15.6701 13.4306 14.8854 13.5833C14.1007 13.7361 13.3056 13.8403 12.5 13.8958V18H7.5ZM4.5 8.1875L5.4375 7.25L4.5 6.3125L3.5625 7.25L4.5 8.1875ZM10 6C9.30556 6 8.71528 5.75694 8.22917 5.27083C7.74306 4.78472 7.5 4.19444 7.5 3.5C7.5 2.80556 7.74306 2.21528 8.22917 1.72917C8.71528 1.24306 9.30556 1 10 1C10.6944 1 11.2847 1.24306 11.7708 1.72917C12.2569 2.21528 12.5 2.80556 12.5 3.5C12.5 4.19444 12.2569 4.78472 11.7708 5.27083C11.2847 5.75694 10.6944 6 10 6ZM9.99563 11.5C9.58188 11.5 9.22917 11.3527 8.9375 11.0581C8.64583 10.7635 8.5 10.4094 8.5 9.99563C8.5 9.58188 8.64729 9.22917 8.94187 8.9375C9.23646 8.64583 9.59063 8.5 10.0044 8.5C10.4181 8.5 10.7708 8.64729 11.0625 8.94188C11.3542 9.23646 11.5 9.59063 11.5 10.0044C11.5 10.4181 11.3527 10.7708 11.0581 11.0625C10.7635 11.3542 10.4094 11.5 9.99563 11.5ZM10 4.5C10.2833 4.5 10.5208 4.40417 10.7125 4.2125C10.9042 4.02083 11 3.78333 11 3.5C11 3.21667 10.9042 2.97917 10.7125 2.7875C10.5208 2.59583 10.2833 2.5 10 2.5C9.71667 2.5 9.47917 2.59583 9.2875 2.7875C9.09583 2.97917 9 3.21667 9 3.5C9 3.78333 9.09583 4.02083 9.2875 4.2125C9.47917 4.40417 9.71667 4.5 10 4.5ZM14.2083 9.5L12.8958 7.25L14.2015 5H16.8125L18.125 7.25L16.8194 9.5H14.2083ZM15.0485 8H15.9375L16.3958 7.25L15.9515 6.5H15.0625L14.6042 7.25L15.0485 8Z" fill="#FFAE00"/>
</g>
</svg>
