<svg width="20" height="20" viewBox="0 0 20 20" fill="none" xmlns="http://www.w3.org/2000/svg">
<mask id="mask0_4259_9457" style="mask-type:alpha" maskUnits="userSpaceOnUse" x="0" y="0" width="20" height="20">
<rect width="20" height="20" fill="#D9D9D9"/>
</mask>
<g mask="url(#mask0_4259_9457)">
<path d="M10 18C8.88889 18 7.85069 17.7917 6.88542 17.375C5.92014 16.9583 5.07639 16.3819 4.35417 15.6458L5.41667 14.5833C6 15.1806 6.68403 15.6493 7.46875 15.9896C8.25347 16.3299 9.09722 16.5 10 16.5C11.801 16.5 13.3346 15.8665 14.6008 14.5994C15.8669 13.3323 16.5 11.7976 16.5 9.99521C16.5 8.19285 15.8665 6.65972 14.5994 5.39583C13.3323 4.13194 11.7976 3.5 9.99521 3.5C8.19285 3.5 6.65972 4.13305 5.39583 5.39917C4.13194 6.66542 3.5 8.19903 3.5 10H2C2 8.88889 2.20833 7.85069 2.625 6.88542C3.04167 5.92014 3.61458 5.07292 4.34375 4.34375C5.07292 3.61458 5.92333 3.04167 6.895 2.625C7.86667 2.20833 8.90486 2 10.0096 2C11.1143 2 12.1495 2.21 13.1152 2.63C14.0808 3.05 14.9265 3.62333 15.6525 4.35C16.3783 5.07667 16.951 5.92333 17.3706 6.89C17.7902 7.85667 18 8.89333 18 10C18 11.0933 17.79 12.1267 17.37 13.1C16.95 14.0733 16.3767 14.9233 15.65 15.65C14.9233 16.3767 14.0767 16.95 13.11 17.37C12.1433 17.79 11.1067 18 10 18ZM3.27083 14.2917L6.5 11.0625L8.77083 13.3333L12.5 9.60417V12H14V7H9V8.5H11.5L8.77083 11.2083L6.5 8.9375L2.20833 13.2292L3.27083 14.2917Z" fill="#FFAE00"/>
</g>
</svg>
