<svg width="20" height="20" viewBox="0 0 20 20" fill="none" xmlns="http://www.w3.org/2000/svg">
<mask id="mask0_4259_9464" style="mask-type:alpha" maskUnits="userSpaceOnUse" x="0" y="0" width="20" height="20">
<rect width="20" height="20" fill="#D9D9D9"/>
</mask>
<g mask="url(#mask0_4259_9464)">
<path d="M10 7L7.5 4.5L10 2L12.5 4.5L10 7ZM1 16V12.5C1 12.0833 1.14583 11.7292 1.4375 11.4375C1.72917 11.1458 2.08333 11 2.5 11H5.27083C5.52083 11 5.75 11.059 5.95833 11.1771C6.16667 11.2951 6.34722 11.4514 6.5 11.6458C6.90278 12.2292 7.40972 12.684 8.02083 13.0104C8.63194 13.3368 9.29167 13.5 10 13.5C10.7083 13.5 11.3681 13.3368 11.9792 13.0104C12.5903 12.684 13.0972 12.2292 13.5 11.6458C13.6528 11.4514 13.8333 11.2951 14.0417 11.1771C14.25 11.059 14.4792 11 14.7292 11H17.5C17.9167 11 18.2708 11.1458 18.5625 11.4375C18.8542 11.7292 19 12.0833 19 12.5V16H13V14.125C12.5694 14.4444 12.0938 14.6701 11.5729 14.8021C11.0521 14.934 10.5278 15 10 15C9.47222 15 8.95139 14.934 8.4375 14.8021C7.92361 14.6701 7.44444 14.4444 7 14.125V16H1ZM3.5 10C2.80556 10 2.21528 9.75694 1.72917 9.27083C1.24306 8.78472 1 8.19444 1 7.5C1 6.80556 1.24306 6.21528 1.72917 5.72917C2.21528 5.24306 2.80556 5 3.5 5C4.19444 5 4.78472 5.24306 5.27083 5.72917C5.75694 6.21528 6 6.80556 6 7.5C6 8.19444 5.75694 8.78472 5.27083 9.27083C4.78472 9.75694 4.19444 10 3.5 10ZM16.5 10C15.8056 10 15.2153 9.75694 14.7292 9.27083C14.2431 8.78472 14 8.19444 14 7.5C14 6.80556 14.2431 6.21528 14.7292 5.72917C15.2153 5.24306 15.8056 5 16.5 5C17.1944 5 17.7847 5.24306 18.2708 5.72917C18.7569 6.21528 19 6.80556 19 7.5C19 8.19444 18.7569 8.78472 18.2708 9.27083C17.7847 9.75694 17.1944 10 16.5 10Z" fill="#FFAE00"/>
</g>
</svg>
