<svg width="20" height="20" viewBox="0 0 20 20" fill="none" xmlns="http://www.w3.org/2000/svg">
<mask id="mask0_4259_9470" style="mask-type:alpha" maskUnits="userSpaceOnUse" x="0" y="0" width="20" height="20">
<rect width="20" height="20" fill="#D9D9D9"/>
</mask>
<g mask="url(#mask0_4259_9470)">
<path d="M8.14583 11.3542L8.85417 9.0625L7 7.60417H9.27083L10 5.35417L10.7292 7.60417H13L11.1458 9.0625L11.8542 11.3542L10 9.9375L8.14583 11.3542ZM5.47917 19V13.1667C4.88194 12.6528 4.40278 11.9653 4.04167 11.1042C3.68056 10.2431 3.5 9.375 3.5 8.5C3.5 6.69444 4.13194 5.15972 5.39583 3.89583C6.65972 2.63194 8.19444 2 10 2C11.8056 2 13.3403 2.63194 14.6042 3.89583C15.8681 5.15972 16.5 6.69444 16.5 8.5C16.5 9.38889 16.3333 10.2604 16 11.1146C15.6667 11.9688 15.1667 12.6597 14.5 13.1875V19L10 18L5.47917 19ZM10 13.5C11.3889 13.5 12.5694 13.0139 13.5417 12.0417C14.5139 11.0694 15 9.88889 15 8.5C15 7.11111 14.5139 5.93056 13.5417 4.95833C12.5694 3.98611 11.3889 3.5 10 3.5C8.61111 3.5 7.43056 3.98611 6.45833 4.95833C5.48611 5.93056 5 7.11111 5 8.5C5 9.88889 5.48611 11.0694 6.45833 12.0417C7.43056 13.0139 8.61111 13.5 10 13.5ZM6.97917 17.125L10 16.4583L13 17.125V14.25C12.5417 14.5 12.059 14.6875 11.5521 14.8125C11.0451 14.9375 10.5278 15 10 15C9.47222 15 8.95139 14.941 8.4375 14.8229C7.92361 14.7049 7.4375 14.5139 6.97917 14.25V17.125Z" fill="#FFAE00"/>
</g>
</svg>
