<svg width="20" height="20" viewBox="0 0 20 20" fill="none" xmlns="http://www.w3.org/2000/svg">
<mask id="mask0_4274_4095" style="mask-type:alpha" maskUnits="userSpaceOnUse" x="0" y="0" width="20" height="20">
<rect width="20" height="20" fill="#D9D9D9"/>
</mask>
<g mask="url(#mask0_4274_4095)">
<path d="M6.54167 5.45817L8.83333 2.49984C8.98347 2.29914 9.16188 2.15171 9.36854 2.05755C9.57507 1.96352 9.79097 1.9165 10.0163 1.9165C10.2415 1.9165 10.4549 1.96512 10.6562 2.06234C10.8576 2.15956 11.0347 2.30539 11.1875 2.49984L13.4792 5.45817L16.9792 6.604C17.2986 6.71512 17.5486 6.90053 17.7292 7.16025C17.9097 7.41984 18 7.70664 18 8.02067C18 8.16956 17.979 8.31852 17.9369 8.46755C17.8947 8.61644 17.8254 8.75914 17.7292 8.89567L15.4792 12.0415L15.5625 15.4165C15.5625 15.8471 15.4167 16.2116 15.125 16.5103C14.8333 16.8089 14.4849 16.9582 14.0796 16.9582C14.0543 16.9582 13.9236 16.9373 13.6875 16.8957L10 15.8748L6.31146 16.8965C6.24271 16.9237 6.17708 16.9408 6.11458 16.9478C6.05208 16.9547 5.98938 16.9582 5.92646 16.9582C5.52382 16.9582 5.17153 16.8089 4.86958 16.5103C4.56764 16.2116 4.42361 15.8471 4.4375 15.4165L4.52083 12.0415L2.27083 8.89567C2.17361 8.75678 2.10417 8.61789 2.0625 8.479C2.02083 8.34012 2 8.19407 2 8.04088C2 7.72185 2.09153 7.43025 2.27458 7.16609C2.45764 6.90192 2.71333 6.71456 3.04167 6.604L6.54167 5.45817ZM7.41667 6.74984L3.5 8.0415L6.01875 11.6048L5.9375 15.4582L10 14.3123L14.0833 15.4373L13.9792 11.5832L16.5 8.02067L12.5625 6.74984L10 3.45817L7.41667 6.74984Z" fill="#FFAE00"/>
</g>
</svg>
