<svg width="32" height="32" viewBox="0 0 32 32" fill="none" xmlns="http://www.w3.org/2000/svg">
<path d="M28 21.066C28.0032 22.0737 27.626 23.0455 26.9438 23.7871C26.2615 24.5287 25.3245 24.9854 24.32 25.066C22.3334 25.2127 19.5734 25.346 16 25.346C12.4267 25.346 9.66669 25.2127 7.68002 25.066C6.67556 24.9854 5.73854 24.5287 5.05628 23.7871C4.37401 23.0455 3.99679 22.0737 4.00002 21.066V10.9327C3.99679 9.925 4.37401 8.95323 5.05628 8.21164C5.73854 7.47005 6.67556 7.01329 7.68002 6.93268C9.66669 6.79935 12.4267 6.66602 16 6.66602C19.5734 6.66602 22.3334 6.79935 24.32 6.94602C25.3222 7.02645 26.2573 7.48132 26.9392 8.22008C27.6212 8.95883 27.9999 9.9273 28 10.9327V21.066ZM13.3334 11.9993V19.9993L20 15.9993L13.3334 11.9993Z" stroke="white" stroke-width="2" stroke-linecap="round" stroke-linejoin="round"/>
</svg>
